<svg xmlns="http://www.w3.org/2000/svg" viewBox="0 0 48 48" aria-hidden="true"><path fill-rule="evenodd" clip-rule="evenodd" d="M39 37.5V34h2v3.51A3.466 3.466 0 0 1 37.516 41H2a1 1 0 1 1 0-2h17.328A3.525 3.525 0 0 1 19 37.51V37H7a3 3 0 0 1-3-3V18a3 3 0 0 1 3-3h12V8.49C19 6.496 20.493 5 22.484 5h14.932c1.991 0 3.575 1.506 3.575 3.5v11.535c-.791.066-1.24.18-1.991.413V8.5c0-.798-.787-1.506-1.484-1.506H22.484c-.796 0-1.493.699-1.493 1.496v28.92c0 .798.697 1.59 1.493 1.59h14.932c.797 0 1.584-.702 1.584-1.5ZM19 17H7a1 1 0 0 0-1 1v16a1 1 0 0 0 1 1h12V17Z"/><path d="M34 9.003h-8c-.597 0-.995.4-.995.998s.398.997.995.997h8c.597 0 .995-.4.995-.997 0-.599-.398-.998-.995-.998Zm-3.493 27.993c.824 0 1.493-.67 1.493-1.496s-.669-1.496-1.493-1.496c-.825 0-1.493.67-1.493 1.496s.668 1.496 1.493 1.496Z"/><path fill-rule="evenodd" clip-rule="evenodd" d="M25 21a1 1 0 0 1 1-1h5a1 1 0 1 1 0 2h-4v2.5h2.25a3.75 3.75 0 1 1 0 7.5H26a1 1 0 1 1 0-2h3.25a1.75 1.75 0 1 0 0-3.5H26a1 1 0 0 1-1-1V21Z" class="accent"/><path d="M43.874 27A4.002 4.002 0 0 1 36 26a4 4 0 0 1 6.187-3.35c.367.24.866.246 1.177-.064.47-.47.473-1.247-.084-1.61A6 6 0 1 0 46 26a1 1 0 0 0-1-1.001h-4a1 1 0 1 0 0 2h2.874Z" class="accent"/></svg>