<svg xmlns="http://www.w3.org/2000/svg" viewBox="0 0 48 48" aria-hidden="true"><path d="M23 26.6c-1.5-.08-2.71-1.3-2.71-2.8 0-1.5 1.2-2.72 2.71-2.8v-2c-2.61.08-4.71 2.2-4.71 4.8 0 2.6 2.1 4.72 4.71 4.8v-2Z" class="accent"/><path d="M23 36.93c-.32-.05-.63-.16-.86-.39-.29-.29-.46-.68-.46-1.09v-.14a3.1 3.1 0 0 0-.58-1.74c-.37-.51-.87-.89-1.41-1.08-.4-.17-.83-.26-1.25-.26-.19 0-.37.02-.56.05-.62.11-1.18.4-1.63.84l-.08.08a1.585 1.585 0 0 1-2.57-.5 1.518 1.518 0 0 1 .34-1.68l.09-.09c.44-.45.73-1 .84-1.62.1-.54.05-1.1-.14-1.61-.01-.1-.04-.2-.08-.29-.24-.56-.64-1.03-1.15-1.36-.5-.33-1.1-.5-1.71-.5h-.22c-.42 0-.82-.17-1.12-.46a1.536 1.536 0 0 1 .01-2.18c.29-.29.7-.46 1.12-.46h.12c.61 0 1.2-.18 1.71-.51s.91-.81 1.14-1.35c.25-.57.33-1.2.22-1.81-.11-.61-.4-1.17-.85-1.63l-.09-.07c-.15-.14-.26-.31-.34-.5-.07-.19-.11-.39-.11-.59 0-.2.04-.4.12-.59.08-.19.19-.36.34-.5a1.585 1.585 0 0 1 2.23 0l.08.08c.45.44 1.01.72 1.63.83.54.1 1.1.05 1.62-.13.1-.01.2-.04.29-.07.56-.24 1.04-.63 1.38-1.14.34-.51.52-1.09.52-1.71v-.21c0-.41.16-.8.46-1.09.25-.26.59-.38.95-.41v-2c-.87.04-1.73.36-2.37.99-.68.67-1.05 1.56-1.05 2.51v.21c0 .21-.06.42-.18.6-.1.14-.22.25-.36.34-.08.01-.17.04-.25.07-.21.09-.43.12-.66.08-.22-.05-.42-.15-.58-.3l-.07-.07a3.73 3.73 0 0 0-1.16-.77 3.585 3.585 0 0 0-3.89.77c-.34.33-.6.72-.78 1.15-.18.43-.27.89-.27 1.36 0 .47.09.93.27 1.36.18.43.44.82.78 1.15l.07.07c.16.16.26.36.3.57.04.21.01.43-.08.64-.09.2-.23.37-.41.48-.18.12-.4.18-.62.19h-.12c-.95 0-1.85.37-2.52 1.03C8.37 22.16 8 23.05 8 24s.37 1.84 1.05 2.51c.67.67 1.57 1.04 2.52 1.04h.22c.22 0 .43.06.62.18.14.09.26.21.34.35.01.08.04.17.07.25.09.2.12.42.08.63-.04.22-.14.41-.29.56l-.08.08c-.33.33-.6.72-.78 1.15-.18.43-.27.89-.27 1.36 0 .47.09.93.27 1.36.18.43.44.82.78 1.15a3.585 3.585 0 0 0 5.05 0l.07-.07c.16-.16.36-.26.59-.3.22-.04.45-.01.72.1.21.08.39.21.53.4.13.18.2.39.21.59v.11c0 .95.37 1.84 1.05 2.51.61.6 1.41.95 2.26 1.01v-2.04H23Z"/><path fill-rule="evenodd" clip-rule="evenodd" d="M25 13a4 4 0 0 1 8 0v.897c3.224-.002 5.776 2.928 5.212 6.198A4.725 4.725 0 0 1 42 24.725V25a5.002 5.002 0 0 1-3.9 4.879c.123 2.809-2.17 5.264-5.1 5.194A4 4 0 0 1 25 35V13Zm12.66 14.927c-.33-.814-.836-1.491-1.509-1.992-.888-.66-1.986-.954-3.168-.935l.034 2c.83-.014 1.473.192 1.94.54.462.344.832.884 1.021 1.689a1 1 0 0 0 .012.046c.56 2-1.038 3.95-3.11 3.79l-.536-.041A1.249 1.249 0 0 0 31 34.268V35a2 2 0 1 1-4 0V21.322c.917.588 1.993.708 3 .708v-2c-.941 0-1.557-.132-1.985-.435-.39-.275-.789-.811-1.015-2.013V13a2 2 0 1 1 4 0v1.666c0 .788.703 1.392 1.483 1.271 2.286-.351 4.216 1.695 3.731 3.957l-.128.599a1.248 1.248 0 0 0 1.211 1.51A2.723 2.723 0 0 1 40 24.725V25a3.001 3.001 0 0 1-2.34 2.927Z"/></svg>