<svg xmlns="http://www.w3.org/2000/svg" viewBox="0 0 48 48" aria-hidden="true"><path fill-rule="evenodd" clip-rule="evenodd" d="M15.982 12.277C17.506 10.154 20.08 8 24 8c3.91 0 6.445 2.07 7.956 4.168a12.9 12.9 0 0 1 1.58 2.95c.16.425.276.804.351 1.11.038.153.067.295.086.422.008.053.018.122.023.198.073.288.108.628.134.941.024.308.045.671.067 1.062l.02.365c.062 1.078.154 2.392.394 3.804.483 2.835 1.548 5.955 4.062 8.24A1 1 0 0 1 38 33H10a1 1 0 0 1-.633-1.774c2.47-2.021 3.536-5.104 4.022-8.015.24-1.444.332-2.805.394-3.923l.02-.378c.022-.405.042-.78.067-1.098.023-.295.06-.768.122-1.044 0-.058-.003.044 0 0 .011-.138.037-.287.07-.434.066-.3.177-.674.333-1.092.313-.838.828-1.907 1.587-2.965Zm.01 4.601c-.026.166-.084.53-.08.63-.003.01-.024.14 0 0-.008.035.008-.058 0 0a7.79 7.79 0 0 0-.048.46c-.023.29-.04.631-.062 1.03l-.022.401c-.063 1.133-.16 2.584-.419 4.14-.402 2.415-1.213 5.183-2.996 7.461h23.368c-1.842-2.414-2.68-5.218-3.094-7.645-.26-1.525-.356-2.93-.419-4.024a229.31 229.31 0 0 1-.021-.388 41.82 41.82 0 0 0-.063-.992c-.032-.396-.066-.578-.085-.635-.05-.316-.053-.221-.05-.335a3.036 3.036 0 0 0-.056-.277 7.907 7.907 0 0 0-.28-.88 10.9 10.9 0 0 0-1.331-2.487C29.082 11.599 27.09 10 24 10c-3.079 0-5.113 1.659-6.393 3.443a10.975 10.975 0 0 0-1.339 2.5 6.37 6.37 0 0 0-.253.82c-.01.05-.018.088-.022.115Zm16.01.119v-.003.003Z"/><path class="accent" d="M28 34a4 4 0 0 1-8 0h2.007a1.992 1.992 0 1 0 3.986 0H28Z"/></svg>