<svg xmlns="http://www.w3.org/2000/svg" viewBox="0 0 48 48" aria-hidden="true"><path d="M35.45 18.38H34V11a3 3 0 0 0-3-3H14a3 3 0 0 0-3 3v26.92a3 3 0 0 0 3 3h18a7 7 0 0 0 7-7V21.87a3.5 3.5 0 0 0-3.55-3.49Zm1.553 15.54c0 1.317-.573 2.632-1.5 3.568-.927.936-2.186 1.499-3.503 1.512H14c-.265 0-.52-.135-.707-.323A1 1 0 0 1 13 37.97V11a1 1 0 0 1 1-1h17a1 1 0 0 1 1 1v22.2l2-1.15V20.38h1.503a1.5 1.5 0 0 1 1.057.436c.281.279.44.608.443 1.004v12.1Z"/><path d="M28.03 36H17a1 1 0 0 1 0-2h11a1 1 0 0 1 0 2h.03Zm0-4H17a1 1 0 0 1 0-2h11a1 1 0 0 1 0 2h.03ZM22 16.004l.005-1.1A1 1 0 0 1 24 15h.004L24 16c.387.136.793.357 1.104.626.114.1.2.225.252.365a.87.87 0 0 1-.128.838.947.947 0 0 1-.35.282.998.998 0 0 1-.607.129c-.212-.023-.563-.134-.563-.134s-.629-.117-.898-.118c-.319 0-.748.107-.75.38 0 .274.286.53 1.378.836 1.234.36 2.555.803 2.549 2.408-.006 1.27-.757 2.13-1.984 2.388v1H24a1 1 0 0 1-1.997.08L22 24c-.612-.135-1.206-.511-1.674-.925a.96.96 0 0 1-.238-.363.923.923 0 0 1 .1-.829.99.99 0 0 1 .316-.303c.188-.115.49-.164.712-.138a.977.977 0 0 1 .582.28c.155.14.339.248.54.32.2.071.413.103.627.095.729.003.96-.25.96-.515.003-.424-.492-.56-1.446-.82l-.093-.025c-1.264-.352-2.392-.968-2.386-2.408.01-.335.09-.664.24-.967.148-.303.36-.573.624-.795.264-.221.563-.439.897-.541.079-.025.159-.045.239-.062Z" class="accent"/></svg>