<svg xmlns="http://www.w3.org/2000/svg" viewBox="0 0 48 48" aria-hidden="true"><path fill-rule="evenodd" clip-rule="evenodd" d="M21 16a1 1 0 0 0-1-1h-9a1 1 0 1 0 0 2h9a1 1 0 0 0 1-1Zm17 0a1 1 0 0 0-1-1h-9a1 1 0 1 0 0 2h9a1 1 0 0 0 1-1Zm-11 5a1 1 0 0 1 1-1h9a1 1 0 1 1 0 2h-9a1 1 0 0 1-1-1Zm11 5a1 1 0 0 0-1-1h-9a1 1 0 1 0 0 2h9a1 1 0 0 0 1-1Zm-11 5a1 1 0 0 1 1-1h9a1 1 0 1 1 0 2h-9a1 1 0 0 1-1-1Zm-6-10a1 1 0 0 0-1-1h-9a1 1 0 1 0 0 2h9a1 1 0 0 0 1-1Zm-11 5a1 1 0 0 1 1-1h9a1 1 0 1 1 0 2h-9a1 1 0 0 1-1-1Zm11 5a1 1 0 0 0-1-1h-9a1 1 0 1 0 0 2h9a1 1 0 0 0 1-1Z" class="accent"/><path fill-rule="evenodd" clip-rule="evenodd" d="M7.07 9C6.478 9 6 9.51 6 10.138v27.018c0 .628.41.844 1 .844h11.852c.544 0 1.473.148 2.392.43.957.291 1.72.945 1.993 1.23a1.033 1.033 0 0 0 .827.338c.252-.016.5-.126.692-.331l.006-.006c.272-.285.967-.94 1.925-1.232.92-.28 1.848-.429 2.392-.429h11.852c.59 0 1.069-.216 1.069-.844V10.138C42 9.509 41.521 9 40.93 9H30.773c-2.08 0-4.074.879-5.545 2.444-.48.51-.89 1.08-1.227 1.693a8.3 8.3 0 0 0-1.227-1.694C21.302 9.88 19.308 9 17.228 9H7.069ZM25 17.5c-.07-.317 0-.009 0 0 .006-1.6.436-3.368 1.5-4.5 1.07-1.138 2.76-2 4.272-2H40v25.018H29.08c-.804 0-1.938.199-2.983.518-.332.101-.752.32-1.097.464V17.5Zm-2-.183c-.006-1.6-.436-3.185-1.5-4.317-1.07-1.138-2.76-2-4.272-2H8v25.018h10.92c.804 0 1.938.199 2.983.518.332.101.752.32 1.097.464V17.317Z"/></svg>