<svg xmlns="http://www.w3.org/2000/svg" viewBox="0 0 48 48" aria-hidden="true"><path d="M33 38.49v-3.054l2-1.297V38.5c0 1.995-1.686 3.5-3.577 3.5H16.39c-1.99 0-3.382-1.586-3.382-3.48V9.5c0-1.994 1.391-3.5 3.382-3.5h14.932c1.991 0 3.668 1.506 3.668 3.5v8.793A8.928 8.928 0 0 0 33 16.924V9.5c0-.798-.881-1.506-1.578-1.506H16.39c-.796 0-1.39.708-1.39 1.506v28.92c0 .797.594 1.58 1.39 1.58h14.932C32.12 40 33 39.288 33 38.49Z"/><path d="M28 10h-7.964c-.597 0-.995.398-.995.996 0 .599.398.997.995.997H28c.598 0 .996-.398.996-.997 0-.598-.398-.997-.996-.997Zm-2.013 26.5a1.495 1.495 0 1 1-2.986 0 1.494 1.494 0 1 1 2.986 0Z"/><path fill-rule="evenodd" clip-rule="evenodd" d="M33.502 32.796a9 9 0 0 1-12.295-3.294 9 9 0 1 1 15.589-9 9 9 0 0 1-3.294 12.294Zm-1-1.732a7 7 0 1 1-7-12.124 7 7 0 0 1 7 12.124Z" class="accent"/><path fill-rule="evenodd" clip-rule="evenodd" d="M28.51 22.44a1.5 1.5 0 0 1-.905 1.377 4.008 4.008 0 0 0 2.192 2.739 1.5 1.5 0 1 1 1.212 2.384c-.332 0-.666-.024-.987-.113-2.55-.71-4.513-3.126-4.513-5.887v-.5a1.5 1.5 0 0 1 3 0Z" class="accent"/></svg>