<svg class="sinch-icon" xmlns="http://www.w3.org/2000/svg" viewBox="0 0 48 48" aria-hidden="true" focusable="false"><path id="shape-a" fill-rule="evenodd" clip-rule="evenodd" d="M34.9 13.2552C32.2 10.5439 28.5 9.03766 24.7 9.03766C16.7 9.03766 10.3 15.4644 10.3 23.4979C10.3 26.0084 11 28.5188 12.2 30.728L10.2 38.159L17.9 36.1506C20 37.2552 22.4 37.8577 24.8 37.8577C32.8 37.8577 39.2 31.431 39.2 23.3975C39.1 19.5816 37.6 15.9665 34.9 13.2552ZM24.7 35.4477C22.5 35.4477 20.4 34.8452 18.6 33.7406L18.2 33.4393L13.7 34.6443L14.9 30.2259L14.6 29.7239C13.4 27.8159 12.8 25.6067 12.8 23.2971C12.8 16.6695 18.2 11.3473 24.8 11.3473C28 11.3473 31 12.5523 33.3 14.8619C35.6 17.1715 36.8 20.1841 36.8 23.3975C36.7 30.1255 31.3 35.4477 24.7 35.4477ZM31.3 26.5105C30.9 26.3096 29.2 25.5063 28.8 25.3054C28.5 25.205 28.2 25.1046 28 25.5063C27.8 25.9079 27.1 26.7113 26.9 26.9121C26.7 27.113 26.5 27.2134 26.1 27.0126C25.7 26.8117 24.6 26.41 23.2 25.205C22.1 24.2008 21.4 23.0962 21.2 22.6946C21 22.2929 21.2 22.0921 21.4 21.9916C21.6 21.7908 21.8 21.59 21.9 21.3891C22.1 21.1883 22.1 20.9874 22.3 20.7866C22.4 20.5858 22.4 20.3849 22.3 20.1841C22.2 19.9833 21.5 18.2762 21.2 17.4728C20.9 16.7699 20.6 16.8703 20.4 16.8703H19.7C19.5 16.8703 19.1 16.9707 18.7 17.272C18.4 17.6736 17.4 18.477 17.4 20.2845C17.4 22.0921 18.7 23.7992 18.9 24C19.1 24.2008 21.4 27.9163 25.1 29.4226C26 29.8243 26.6 30.0251 27.2 30.2259C28.1 30.5272 28.9 30.4268 29.5 30.3264C30.2 30.2259 31.6 29.4226 31.9 28.6192C32.2 27.8159 32.2 27.0126 32.1 26.9121C31.9 26.7113 31.6 26.7113 31.3 26.5105Z"/></svg>