<svg class="sinch-icon" xmlns="http://www.w3.org/2000/svg" viewBox="0 0 48 48" aria-hidden="true" focusable="false"><path id="shape-a" fill-rule="evenodd" clip-rule="evenodd" d="M22.7 22.5941C24.7 20.6862 27 19.7824 29.8 19.682C29.7 17.9749 29.1 16.569 28.1 15.2636C25.4 11.7489 20.5 10.3431 16.1 11.7489C12.9 12.8535 10.6 14.8619 9.60001 18.1757C8.60001 21.7908 10 25.3054 13.3 27.615C13.8 27.9163 13.9 28.2176 13.7 28.8201C13.486 29.3932 13.3738 29.9663 13.2544 30.5759C13.2064 30.8208 13.1573 31.0715 13.1 31.3305C13.2605 31.228 13.4167 31.1276 13.5696 31.0293C14.4647 30.4539 15.2459 29.9518 16.1 29.523C16.4 29.3222 16.8 29.3222 17.1 29.3222C17.482 29.3648 17.882 29.4255 18.3 29.4889C18.8669 29.575 19.4669 29.666 20.1 29.7238C19.8 26.8117 20.7 24.5021 22.7 22.5941ZM16 17.2719C16.7 17.3724 17.2 17.8745 17.2 18.5774C17.1 19.2803 16.6 19.7824 15.9 19.7824C15.2 19.682 14.7 19.1799 14.7 18.477C14.7 17.774 15.3 17.2719 16 17.2719ZM22.6 18.477C22.5 17.8745 23.1 17.2719 23.8 17.2719C24.5 17.2719 25 17.774 25.1 18.477C25.1 19.1799 24.6 19.682 23.9 19.682C23.2 19.682 22.6 19.1799 22.6 18.477Z"/><path id="shape-a" fill-rule="evenodd" clip-rule="evenodd" d="M35.1209 36.4061C35.4051 36.5602 35.6969 36.7182 36.0001 36.8535C35.9001 36.6527 35.9001 36.4519 35.9001 36.1506C35.3001 35.1464 35.7001 34.5439 36.5001 33.7406C39.4001 31.1297 39.7001 27.0125 37.3001 23.8996C34.5001 20.3849 28.8001 19.4811 24.9001 22.092C20.5001 25.0042 20.0001 30.4267 23.8001 33.9414C25.8001 35.7489 28.2001 36.5523 30.9001 36.251C31.271 36.2096 31.6419 36.1 32.0058 35.9925C32.5249 35.8391 33.0298 35.6899 33.5001 35.7489C34.0306 35.8155 34.5611 36.1029 35.1209 36.4061ZM27.1001 26.2092C27.1001 26.8117 26.7001 27.2134 26.1001 27.2134C25.5001 27.2134 25.1001 26.8117 25.1001 26.2092C25.0001 25.6067 25.5001 25.1046 26.1001 25.1046C26.7001 25.1046 27.1001 25.6067 27.1001 26.2092ZM31.5001 26.2092C31.5001 25.6067 32.0001 25.205 32.5001 25.205C33.1001 25.205 33.5001 25.7071 33.5001 26.3096C33.5001 26.9121 33.1001 27.3138 32.5001 27.3138C31.9001 27.3138 31.5001 26.8117 31.5001 26.2092Z"/></svg>