<svg xmlns="http://www.w3.org/2000/svg" viewBox="0 0 48 48" aria-hidden="true"><path d="M11.071 14C10.48 14 10 14.448 10 15s.48 1 1.071 1H23.93c.59 0 1.07-.448 1.07-1s-.48-1-1.071-1H11.07Zm0 5C10.48 19 10 19.448 10 20s.48 1 1.071 1H23.93c.59 0 1.07-.448 1.07-1s-.48-1-1.071-1H11.07Z" class="accent"/><path fill-rule="evenodd" clip-rule="evenodd" d="M8 8a3 3 0 0 0-3 3v13a3 3 0 0 0 3 3h2v5.73l8-4.62L19.93 27H27a3 3 0 0 0 3-3v-7h10a1 1 0 0 1 1 1v13a1 1 0 0 1-1 1h-4v4.27L28.61 32H21a1 1 0 0 1-1-1v-1.73l-2 1.15V31a3 3 0 0 0 3 3h7.07L38 39.73V34h2a3 3 0 0 0 3-3V18a3 3 0 0 0-3-3H30v-4a3 3 0 0 0-3-3H8Zm20 16V11a1 1 0 0 0-1-1H8a1 1 0 0 0-1 1v13a1 1 0 0 0 1 1h4v4.27l6-3.47 1.39-.8H27a1 1 0 0 0 1-1Z"/></svg>