<svg class="sinch-icon" xmlns="http://www.w3.org/2000/svg" viewBox="0 0 48 48" aria-hidden="true" focusable="false"><path id="shape-a" fill-rule="evenodd" clip-rule="evenodd" d="M10.8023 23.3965C17.7888 20.3965 22.4798 18.2965 24.7753 17.3965C31.4624 14.5965 32.7599 14.0965 33.758 14.0965C33.9576 14.0965 34.3568 14.0965 34.6562 14.3965C34.8558 14.5965 34.9556 14.8965 34.9556 14.9965C34.9556 15.0965 35.0554 15.5965 34.9556 15.8965C34.5564 19.6965 33.0593 28.8965 32.2609 33.1965C31.9614 34.9965 31.2628 35.5965 30.6639 35.6965C29.2666 35.7965 28.1688 34.7965 26.8713 33.8965L21.4817 30.2965C19.0863 28.6965 20.6832 27.8965 21.9807 26.4965C22.38 26.0965 28.4682 20.4965 28.568 19.9965C28.568 19.8965 28.568 19.6965 28.4682 19.5965C28.3684 19.4965 28.1688 19.4965 27.9692 19.5965C27.7695 19.5965 24.3761 21.8965 17.8886 26.2965C16.8906 26.9965 16.0921 27.2965 15.2937 27.2965C14.3954 27.2965 12.7985 26.7965 11.6008 26.3965C10.1037 25.8965 8.90601 25.6965 9.00582 24.7965C9.00582 24.2965 9.60466 23.8965 10.8023 23.3965Z"/></svg>