<svg class="sinch-icon" xmlns="http://www.w3.org/2000/svg" viewBox="0 0 48 48" aria-hidden="true" focusable="false"><path id="shape-a" d="M19.535 28.9482L19.4342 29.0266V29.8928C19.4342 31.4708 20.7122 32.75 22.2901 32.75H29.149L33.1681 35.8223C33.7321 36.2534 34.5458 35.8512 34.5458 35.1413V32.75H34.8251C36.403 32.75 37.6825 31.4708 37.6825 29.8928V20.939C37.6825 19.361 36.4033 18.0818 34.8254 18.0828C33.5054 18.0837 32.1744 18.085 30.8394 18.0863V23.8101C30.8394 26.6469 28.5408 28.9482 25.7021 28.9482H19.535Z"/><path id="shape-b" fill-rule="evenodd" clip-rule="evenodd" d="M28.5584 14.8682C28.5584 13.2891 27.2774 12.0095 25.6983 12.0096C23.0984 12.0097 20.4559 12.007 17.8243 12.0042C16.2644 12.0026 14.7083 12.001 13.1672 12C11.5892 11.999 10.3101 13.2782 10.3101 14.8562V23.81C10.3101 25.388 11.5896 26.6672 13.1675 26.6672H13.4468V29.0404C13.4468 29.7536 14.267 30.1548 14.8301 29.717L18.7525 26.6672H25.7021C27.2801 26.6672 28.5584 25.388 28.5584 23.81V14.8682ZM22.9447 20.5243C23.6897 20.0942 23.6897 19.019 22.9447 18.5889L18.5171 16.0326C17.7721 15.6025 16.8409 16.1401 16.8409 17.0003V22.1129C16.8409 22.9731 17.7721 23.5107 18.5171 23.0806L22.9447 20.5243Z"/></svg>