<svg class="sinch-icon" xmlns="http://www.w3.org/2000/svg" viewBox="0 0 48 48" aria-hidden="true" focusable="false"><path id="shape-a" fill-rule="evenodd" clip-rule="evenodd" d="M11.8023 22.3965C18.7888 19.3965 23.4798 17.2965 25.7753 16.3965C32.4624 13.5965 33.7599 13.0965 34.758 13.0965C34.9576 13.0965 35.3568 13.0965 35.6562 13.3965C35.8558 13.5965 35.9556 13.8965 35.9556 13.9965C35.9556 14.0965 36.0554 14.5965 35.9556 14.8965C35.5564 18.6965 34.0593 27.8965 33.2609 32.1965C32.9614 33.9965 32.2628 34.5965 31.6639 34.6965C30.2666 34.7965 29.1688 33.7965 27.8713 32.8965L22.4817 29.2965C20.0863 27.6965 21.6832 26.8965 22.9807 25.4965C23.38 25.0965 29.4682 19.4965 29.568 18.9965C29.568 18.8965 29.568 18.6965 29.4682 18.5965C29.3684 18.4965 29.1688 18.4965 28.9692 18.5965C28.7695 18.5965 25.3761 20.8965 18.8886 25.2965C17.8906 25.9965 17.0921 26.2965 16.2937 26.2965C15.3954 26.2965 13.7985 25.7965 12.6008 25.3965C11.1037 24.8965 9.90601 24.6965 10.0058 23.7965C10.0058 23.2965 10.6047 22.8965 11.8023 22.3965Z"/></svg>