<svg xmlns="http://www.w3.org/2000/svg" viewBox="0 0 48 48" aria-hidden="true"><path fill-rule="evenodd" clip-rule="evenodd" d="M25 10.874A4.002 4.002 0 0 0 24 3a4 4 0 0 0-1 7.874V13H12a3 3 0 0 0-3 3v16a3 3 0 0 0 3 3h2v5.69L23.95 35H36a3 3 0 0 0 3-3V16a3 3 0 0 0-3-3H25v-2.126ZM26 7a2 2 0 1 1-4 0 2 2 0 0 1 4 0Zm10 8.01a1 1 0 0 1 1 1v16a1 1 0 0 1-1 1H23.43L16 37.25V33h-4a1 1 0 0 1-1-1V16a1 1 0 0 1 1-1l24 .01Z"/><path class="accent" d="M18 18a4 4 0 0 0-3.465 6s1.152-2 3.465-2c2.313 0 3.465 2 3.465 2A4 4 0 0 0 18 18Zm12 0a4 4 0 0 0-3.465 6s1.152-2 3.465-2c2.313 0 3.465 2 3.465 2A4 4 0 0 0 30 18ZM19 28a1 1 0 1 0 0 2h4a1 1 0 1 0 0-2h-4Zm8 1a1 1 0 1 1-2 0 1 1 0 0 1 2 0Zm2 1a1 1 0 1 0 0-2 1 1 0 0 0 0 2Z"/></svg>