<svg xmlns="http://www.w3.org/2000/svg" viewBox="0 0 48 48" aria-hidden="true"><path d="M15.2 28.735c.187.155.442.242.707.242.265 0 .52-.087.707-.242a.758.758 0 0 0 .293-.582V21.8a.758.758 0 0 0-.293-.583 1.117 1.117 0 0 0-.707-.241c-.265 0-.52.086-.707.241a.758.758 0 0 0-.293.582v6.353c0 .218.105.428.293.582Zm17 .024c.187.154.441.241.707.241.265 0 .52-.087.707-.241a.758.758 0 0 0 .293-.583v-6.352a.758.758 0 0 0-.293-.583 1.117 1.117 0 0 0-.707-.24c-.265 0-.52.086-.707.24a.758.758 0 0 0-.293.583v6.352c0 .219.105.428.293.583Z" class="accent"/><path fill-rule="evenodd" clip-rule="evenodd" d="M20.907 39a2 2 0 0 1 2-2h3a2 2 0 0 1 2 2v2a2 2 0 0 1-2 2h-3a2 2 0 0 1-2-2v-2Zm2 0h3v2h-3v-2Z" class="accent"/><path d="M24.407 10c-2.787 0-5.458.836-7.427 2.795a10.41 10.41 0 0 0-3.073 7.38V28a1 1 0 1 1-2 0v-7.825a12.41 12.41 0 0 1 3.663-8.798C17.914 9.045 21.093 8 24.407 8c3.313 0 6.492 1.045 8.837 3.377a12.41 12.41 0 0 1 3.663 8.798V32h-2V20.175a10.41 10.41 0 0 0-3.074-7.38C29.865 10.836 27.193 10 24.407 10Zm3.5 31a9 9 0 0 0 9-9h-2a7 7 0 0 1-7 7v2Z"/></svg>