<svg xmlns="http://www.w3.org/2000/svg" viewBox="0 0 48 48" aria-hidden="true"><path fill-rule="evenodd" clip-rule="evenodd" d="M25 11h-8c-5.523 0-10 4.477-10 10v10h18c5.523 0 10-4.477 10-10s-4.477-10-10-10Zm-8-2C10.373 9 5 14.373 5 21v12h20c6.627 0 12-5.373 12-12S31.627 9 25 9h-8Z"/><path d="M16 21a2 2 0 1 1-4 0 2 2 0 0 1 4 0Zm7 0a2 2 0 1 1-4 0 2 2 0 0 1 4 0Zm7 0a2 2 0 1 1-4 0 2 2 0 0 1 4 0Z"/><path class="accent" d="M23 39a11.97 11.97 0 0 1-8.944-4h2.943A9.956 9.956 0 0 0 23 37h18V26.922a9.91 9.91 0 0 0-4.198-8.106 11.906 11.906 0 0 0-.878-2.79A11.923 11.923 0 0 1 43 26.922V39H23Z"/></svg>