<svg xmlns="http://www.w3.org/2000/svg" viewBox="0 0 48 48" aria-hidden="true"><path d="M7.617 7.076a1 1 0 0 1 1.09.217l8.74 8.74-.983 1.845L9 10.414V15.5h1.5a1 1 0 1 1 0 2H9V24h1.5a1 1 0 1 1 0 2H9v6h1.5a1 1 0 1 1 0 2H9v4h28.586L20.588 22.002h2.828l17.291 16.29A1 1 0 0 1 40 40H8a1 1 0 0 1-1-1V8a1 1 0 0 1 .617-.924Z"/><path d="M15 24a1 1 0 0 1 1 1v6h6a1 1 0 1 1 0 2h-7a1 1 0 0 1-1-1v-7a1 1 0 0 1 1-1Z"/><path fill-rule="evenodd" clip-rule="evenodd" d="M32.24 9.188a1.147 1.147 0 0 0-.87.109l-11.573 6.576L18.665 18h2.07l11.768-6.708a1.147 1.147 0 0 0-.263-2.104Zm-1.86-1.63a3.147 3.147 0 0 1 3.112 5.472h-.001l-11.996 6.84A1 1 0 0 1 21 20h-4a1 1 0 0 1-.883-1.47l2.05-3.853a1 1 0 0 1 .39-.4l11.824-6.72Z" class="accent"/></svg>