<svg xmlns="http://www.w3.org/2000/svg" viewBox="0 0 48 48" aria-hidden="true"><path fill-rule="evenodd" clip-rule="evenodd" d="M24 38c7.732 0 14-6.268 14-14s-6.268-14-14-14-14 6.268-14 14 6.268 14 14 14Zm0 2c8.837 0 16-7.163 16-16S32.837 8 24 8 8 15.163 8 24s7.163 16 16 16Z"/><path fill-rule="evenodd" clip-rule="evenodd" d="M21.5 20.5a1.5 1.5 0 1 1-3 0 1.5 1.5 0 0 1 3 0Zm8 0a1.5 1.5 0 1 1-3 0 1.5 1.5 0 0 1 3 0Zm-9.632 6.004a1 1 0 1 0-1.736.992c1.223 2.14 3.61 3.129 5.868 3.129 2.258 0 4.645-.989 5.868-3.129a1 1 0 1 0-1.736-.992c-.777 1.36-2.39 2.121-4.132 2.121-1.742 0-3.355-.761-4.132-2.121Z" class="accent"/></svg>