<svg xmlns="http://www.w3.org/2000/svg" viewBox="0 0 48 48" aria-hidden="true"><path d="M33.827 13H12a3 3 0 0 0-3 3v16a3 3 0 0 0 3 3h2v5.69L23.95 35H36a3 3 0 0 0 3-3V20.863l-2 2.004v9.143a1 1 0 0 1-1 1H23.43L16 37.25V33h-4a1 1 0 0 1-1-1V16a1 1 0 0 1 1-1l19.82.008L33.826 13Z"/><path fill-rule="evenodd" clip-rule="evenodd" d="M44.006 7.427a3.49 3.49 0 0 0-2.47 1.023l-11.17 11.17a.999.999 0 0 0-.263.464l-1.176 4.703A1 1 0 0 0 30.14 26l4.703-1.176a1 1 0 0 0 .464-.263l11.17-11.17a3.494 3.494 0 0 0-2.471-5.964Zm-1.057 2.437a1.494 1.494 0 1 1 2.113 2.113L34.09 22.951l-2.818.704.705-2.817L42.949 9.864Z" class="accent"/><path d="M27.222 22H14.778a.703.703 0 0 1-.55-.293A1.16 1.16 0 0 1 14 21c0-.265.082-.52.228-.707a.703.703 0 0 1 .55-.293h12.444c.206 0 .404.105.55.293.146.187.228.442.228.707 0 .265-.082.52-.228.707a.703.703 0 0 1-.55.293ZM24 28h-9a1 1 0 0 1 0-2h9a1 1 0 1 1 0 2Z" class="accent"/></svg>