<svg xmlns="http://www.w3.org/2000/svg" viewBox="0 0 48 48" aria-hidden="true"><path d="M34.906 9H12.414c-1.17 0-2.586.224-3.414 1-.828.776-1 2.04-1 3.138v21.724c0 1.097.172 2.362 1 3.138.828.776 2.243 1 3.414 1h23.172c1.17 0 2.586-.224 3.414-1 .828-.776 1-2.04 1-3.138V18.658L38 20v14.862c0 .549-.147 1.287-.56 1.675-.414.388-1.268.463-1.854.463H12.414c-.585 0-1.5-.112-1.914-.5-.414-.388-.5-.951-.5-1.5V13c0-.549.086-1.112.5-1.5.414-.388 1.329-.431 1.914-.431h18.844L34.906 9Z"/><path fill-rule="evenodd" clip-rule="evenodd" d="M42.582 7.673a2.182 2.182 0 0 0-1.657.207l-17.28 9.82-2.084 3.694 4.24.1 17.28-9.82a2.182 2.182 0 0 0-.5-4Zm-2.646-1.532a4.182 4.182 0 0 1 4.133 7.272L26.548 23.37a1 1 0 0 1-.518.13l-6.183-.146A1 1 0 0 1 19 21.863l3.039-5.387a.999.999 0 0 1 .377-.378l17.52-9.957Z" class="accent"/></svg>