<svg xmlns="http://www.w3.org/2000/svg" viewBox="0 0 48 48" aria-hidden="true"><path d="m21.01 16.055.005-1.246c0-.216.107-.422.295-.574.188-.151.443-.236.708-.235.265.001.52.088.706.241a.74.74 0 0 1 .29.576l-.004 1.187a3.48 3.48 0 0 1 1.094.622c.114.1.2.225.252.365a.87.87 0 0 1-.128.838.947.947 0 0 1-.35.282.998.998 0 0 1-.607.129c-.212-.023-.563-.134-.563-.134s-.629-.117-.898-.118c-.319 0-.748.107-.75.38 0 .274.286.53 1.378.836 1.234.36 2.555.803 2.549 2.408-.006 1.27-.783 2.029-2.01 2.286l-.005 1.293a.745.745 0 0 1-.296.574 1.127 1.127 0 0 1-.708.235 1.127 1.127 0 0 1-.706-.241.745.745 0 0 1-.29-.576l.005-1.273a3.697 3.697 0 0 1-1.651-.835.96.96 0 0 1-.238-.363.923.923 0 0 1 .1-.829.991.991 0 0 1 .316-.303c.188-.115.49-.164.712-.138a.978.978 0 0 1 .582.28 1.666 1.666 0 0 0 1.167.415c.729.003.96-.25.96-.515.003-.424-.492-.56-1.446-.82l-.093-.025c-1.264-.352-2.392-.968-2.386-2.408.01-.335.09-.664.24-.967.148-.303.36-.573.624-.795a2.595 2.595 0 0 1 1.146-.552ZM27 31H16a1 1 0 0 1 0-2h11a1 1 0 0 1 0 2Zm-11 4h11a1 1 0 0 0 0-2H16a1 1 0 0 0 0 2Z" class="accent"/><path d="M34.45 18.38H33V11a3 3 0 0 0-3-3H13a3 3 0 0 0-3 3v26.92a3 3 0 0 0 3 3h18a7 7 0 0 0 7-7V21.87a3.5 3.5 0 0 0-3.55-3.49Zm1.553 15.54c0 1.317-.573 2.632-1.5 3.568A5 5 0 0 1 31 38.97H13a1 1 0 0 1-1-1V11a1 1 0 0 1 1-1h17a1 1 0 0 1 1 1v22l2-1V20.38h1.503a1.5 1.5 0 0 1 1.057.436c.281.279.44.608.443 1.004v12.1Z"/></svg>