<svg xmlns="http://www.w3.org/2000/svg" viewBox="0 0 48 48" aria-hidden="true"><path fill-rule="evenodd" clip-rule="evenodd" d="M11 19v1h-1a2 2 0 0 0-2 2v4a2 2 0 0 0 2 2h1v1a2 2 0 0 0 2 2h1a2 2 0 0 0 2-2V19a2 2 0 0 0-2-2h-1a2 2 0 0 0-2 2Zm3 0h-1v10h1V19Zm-3 3v4h-1v-4h1Zm26-3v1h1a2 2 0 0 1 2 2v4a2 2 0 0 1-2 2h-1v1a2 2 0 0 1-2 2h-1a2 2 0 0 1-2-2V19a2 2 0 0 1 2-2h1a2 2 0 0 1 2 2Zm-3 0h1v10h-1V19Zm3 3v4h1v-4h-1Z" class="accent"/><path d="M5 24a1 1 0 0 1 1-1h2v2H6a1 1 0 0 1-1-1Zm38 0a1 1 0 0 1-1 1h-2v-2h2a1 1 0 0 1 1 1Zm-27 1h16v-2H16v2Z"/></svg>