<svg xmlns="http://www.w3.org/2000/svg" viewBox="0 0 48 48" aria-hidden="true"><path d="M13.703 19 18 16.5V19l-3.228 1.773C13.992 21.237 13 22.098 13 23v3.687L6.5 30.5a.532.532 0 0 1-.715-.193l-.525-.896a.512.512 0 0 1 .197-.703l5.608-3.22V23c0-1.624 1.22-3.162 2.638-4ZM32 25.561h1.45c.28 0 .536-.11.725-.287.586.693 1.015.855 1.886.906-.472.716-1.194 1.25-2.087 1.399v.303c0 2.088-1.502 3.841-3.497 4.273C30.03 34.275 27.963 36 25.678 36H19l-6.885 3.928a.53.53 0 0 1-.716-.187l-.525-.89a.51.51 0 0 1 .19-.702L18.5 34h7.18c1.456 0 2.788-1.349 2.788-2.78v-1.03h1.057c1.3 0 2.475-1.032 2.475-2.308v-2.32Z"/><path d="m42.69 21.797-.525-.895a.53.53 0 0 0-.715-.187L36.061 23.5v-1.025c0-1.708-.873-3.475-2.612-3.475H24v4.383c0 1.031-.715 1.985-1.745 2.146-1.313.213-2.254-.896-2.254-2.146v-6.078c0-.89.265-1.605 1.033-2.075l2.192-1.347C23.973 13.425 25.115 13 26 13l6.551.056 5.252-2.853A.512.512 0 0 0 38 9.5l-.525-.902a.532.532 0 0 0-.715-.194L32 11h-6.215c-1.28 0-2.586.479-3.67 1.142l-2.198 1.348c-1.148.708-1.687 1.727-1.917 3.01v6.747c0 2.153 1.294 4.151 3.48 4.358 2.5.238 4.52-1.695 4.52-4.105V21h7.45c.577 0 .511.908.511 1.475v2.032c0 1 .957 1.673 2.1 1.673L42.5 22.5a.51.51 0 0 0 .19-.703Z" class="accent"/></svg>