<svg xmlns="http://www.w3.org/2000/svg" viewBox="0 0 48 48" aria-hidden="true"><path fill-rule="evenodd" clip-rule="evenodd" d="M23.649 7.064a1 1 0 0 1 .702 0l12 4.5A1 1 0 0 1 37 12.5V23c0 4.946-3.282 8.95-6.341 11.628a33.532 33.532 0 0 1-6.06 4.188l-.109.057-.03.015-.009.004-.002.002h-.001l-.224.08L24 39l-.246-.03-.202-.076-.003-.002-.01-.004-.03-.015A20.735 20.735 0 0 1 23 38.6a33.532 33.532 0 0 1-5.659-3.972c-3.058-2.678-6.34-6.682-6.34-11.628V12.5a1 1 0 0 1 .649-.936l12-4.5ZM24 39l-.246-.03-.202-.076c.282.14.614.14.896 0l-.224.08L24 39Zm0-2.133.031-.017a31.536 31.536 0 0 0 5.31-3.727C32.282 30.55 35 27.052 35 23v-9.807L24 9.068l-11 4.125V23c0 4.054 2.718 7.55 5.659 10.122a31.536 31.536 0 0 0 5.31 3.728l.031.017Z"/><path fill-rule="evenodd" clip-rule="evenodd" d="M22.2 15.5a1 1 0 0 1 .95.689l2.65 8.096.85-2.596A1 1 0 0 1 27.6 21H30a1 1 0 1 1 0 2h-1.675l-1.575 4.811a1 1 0 0 1-1.9 0l-2.65-8.096-.85 2.596a1 1 0 0 1-.95.689H18a1 1 0 1 1 0-2h1.675l1.575-4.811a1 1 0 0 1 .95-.689Z" class="accent"/></svg>