<svg xmlns="http://www.w3.org/2000/svg" viewBox="0 0 48 48" aria-hidden="true"><path fill-rule="evenodd" clip-rule="evenodd" d="M32.829 6.178a1 1 0 0 1 .653 1.254l-1.098 3.49a1 1 0 0 1-1.908-.6l1.099-3.49a1 1 0 0 1 1.254-.654Zm7.483 2.38a1 1 0 0 1-.103 1.41l-4.817 4.16a1 1 0 1 1-1.307-1.514l4.816-4.16a1 1 0 0 1 1.41.104ZM41.475 17a1 1 0 0 1-1 1H37a1 1 0 1 1 0-2h3.475a1 1 0 0 1 1 1Z" class="accent"/><path fill-rule="evenodd" clip-rule="evenodd" d="M16.939 14a10 10 0 0 1 17.07 7.07 9.178 9.178 0 0 1-3.46 7.61c-1.01.94-1.54 1.47-1.54 2.39l-.004 2-1.995-.8v-1.2c0-1.823 1.067-2.82 2.118-3.801l.062-.058a7.2 7.2 0 0 0 2.82-6.14 8 8 0 1 0-16 0 7.2 7.2 0 0 0 2.81 6.14c1.08.99 2.19 2.02 2.19 3.86v1.2l-1.995.8-.005-2c0-.92-.54-1.45-1.54-2.38a9.192 9.192 0 0 1-3.46-7.62A10 10 0 0 1 16.939 14Z"/><path d="M19.005 36a1 1 0 0 1 1-1h8a1 1 0 1 1 0 2h-8a1 1 0 0 1-1-1Zm2.003 4a1 1 0 0 1 1-1h4a1 1 0 1 1 0 2h-4a1 1 0 0 1-1-1Z"/></svg>