<svg xmlns="http://www.w3.org/2000/svg" viewBox="0 0 48 48" aria-hidden="true"><path fill-rule="evenodd" clip-rule="evenodd" d="M27 16c0-4.979 4.021-9 9-9 4.883 0 8.904 3.925 9 9 0 4.979-4.021 9-9 9a8.99 8.99 0 0 1-9-9Zm2 0c0 3.925 3.075 6.99 7 6.99 3.83-.096 6.904-3.064 7-6.99 0-3.925-3.075-7-7-7s-7 3.075-7 7Z" class="accent"/><path d="m35 12.004.005-1.1A1 1 0 0 1 37 11h.004L37 12a3.54 3.54 0 0 1 1.104.626c.114.1.2.225.252.365a.87.87 0 0 1-.128.838.948.948 0 0 1-.35.282.998.998 0 0 1-.607.129c-.212-.023-.563-.134-.563-.134s-.629-.117-.898-.118c-.319 0-.748.107-.75.38 0 .274.286.53 1.377.836 1.235.36 2.556.803 2.55 2.408-.006 1.27-.757 2.13-1.984 2.388v1H37a1 1 0 0 1-1.997.08L35 20c-.612-.135-1.206-.511-1.675-.925a.96.96 0 0 1-.236-.363.922.922 0 0 1 .099-.829.992.992 0 0 1 .316-.303c.188-.115.49-.164.712-.138a.977.977 0 0 1 .582.28c.155.14.339.248.54.32.2.071.413.103.627.095.729.003.96-.25.96-.515.003-.424-.492-.56-1.446-.82l-.093-.025c-1.264-.352-2.392-.968-2.386-2.408.01-.335.09-.664.24-.967.148-.303.36-.573.624-.795.264-.221.563-.439.897-.541.079-.025.158-.045.239-.062Zm-3 12.064A8.99 8.99 0 0 1 27 16a1 1 0 0 0-1 1v18a1 1 0 0 0 1 1h4a1 1 0 0 0 1-1V24.068Zm-14-4.071a1 1 0 0 1 1-1h4a1 1 0 0 1 1 1v15a1 1 0 0 1-1 1h-4a1 1 0 0 1-1-1v-15Zm-6.98 3a1 1 0 0 0-1 1v11a1 1 0 0 0 1 1h4a1 1 0 0 0 1-1v-11a1 1 0 0 0-1-1h-4Z" class="accent"/><path d="M29.286 10H8.2C6.433 10 5 11.343 5 13v24c0 1.657 1.433 3 3.2 3h25.6c1.767 0 3.2-1.343 3.2-3V27h-2v10c0 .552-.61 1-1.2 1H8.2c-.59 0-1.2-.448-1.2-1V13c0-.552.61-1 1.2-1h19.732c.361-.728.818-1.4 1.354-2Z"/></svg>