<svg xmlns="http://www.w3.org/2000/svg" viewBox="0 0 48 48" aria-hidden="true"><path d="M38 18H10v2h6v17h2v-8h20v-2H18v-7h20v-2Z" class="accent"/><path fill-rule="evenodd" clip-rule="evenodd" d="M12.477 11C11.314 11 10 12.107 10 13.197v21.606C10 35.893 11.314 37 12.477 37h23.046C36.686 37 38 35.893 38 34.803V13.198C38 12.106 36.686 11 35.523 11H12.477ZM8 13.197C8 10.88 10.005 9 12.477 9h23.046C37.995 9 40 10.88 40 13.197v21.606C40 37.12 37.995 39 35.523 39H12.477C10.005 39 8 37.12 8 34.803V13.198Z"/></svg>