<svg xmlns="http://www.w3.org/2000/svg" viewBox="0 0 48 48" aria-hidden="true"><path fill-rule="evenodd" clip-rule="evenodd" d="M11.2 37h25.6c.59 0 1.2-.448 1.2-1V12c0-.552-.61-1-1.2-1H11.2c-.59 0-1.2.448-1.2 1v24c0 .552.61 1 1.2 1Zm25.6 2c1.767 0 3.2-1.343 3.2-3V12c0-1.657-1.433-3-3.2-3H11.2C9.433 9 8 10.343 8 12v24c0 1.657 1.433 3 3.2 3h25.6Z"/><path fill-rule="evenodd" clip-rule="evenodd" d="M29 19a1 1 0 1 1 0-2h5a1 1 0 0 1 1 1v5a1 1 0 1 1-2 0v-2.586l-7.293 7.293a1 1 0 0 1-1.414 0L21 24.414l-6.293 6.293a1 1 0 0 1-1.414-1.414l7-7a1 1 0 0 1 1.414 0L25 25.586 31.586 19H29Z" class="accent"/></svg>