<svg xmlns="http://www.w3.org/2000/svg" viewBox="0 0 48 48" aria-hidden="true"><path fill-rule="evenodd" clip-rule="evenodd" d="M11.2 37h25.6c.59 0 1.067-.448 1.067-1V12c0-.552-.478-1-1.067-1H11.2c-.59 0-1.067.448-1.067 1v24c0 .552.478 1 1.067 1Zm25.6 2c1.767 0 3.2-1.343 3.2-3V12c0-1.657-1.433-3-3.2-3H11.2C9.433 9 8 10.343 8 12v24c0 1.657 1.433 3 3.2 3h25.6Z"/><path fill-rule="evenodd" clip-rule="evenodd" d="M13.293 17.293a1 1 0 0 1 1.414 0L21 23.586l3.293-3.293a1 1 0 0 1 1.414 0L33 27.586V25a1 1 0 1 1 2 0v5a1 1 0 0 1-1 1h-5a1 1 0 1 1 0-2h2.586L25 22.414l-3.293 3.293a1 1 0 0 1-1.414 0l-7-7a1 1 0 0 1 0-1.414Z" class="accent"/></svg>