<svg class="sinch-icon" xmlns="http://www.w3.org/2000/svg" viewBox="0 0 236 48" aria-hidden="true"><path d="m100.82 36.72 6.606-3.801c1.299 2.603 3.5 3.903 6.602 3.9 2.914 0 4.704-1.299 4.704-3.201 0-1.902-2.498-2.498-6.806-3.401-5.903-1.303-9.703-3.7-9.703-8.704 0-5.412 5.503-9.108 11.605-9.108 5.204 0 8.804 1.403 12.006 5.411l-6.303 3.605c-1.199-2.081-3.001-3.101-5.603-3.101-2.701 0-4.2 1.199-4.2 2.802 0 1.998 3.001 2.397 7.002 3.4 5.503 1.4 9.707 3.301 9.707 8.805 0 5.702-5.603 9.603-12.609 9.603-5.802-.008-10.207-1.607-13.008-6.21Zm29.618 5.41V16.739l7.405-4.333v29.717l-7.405.009Zm12.608 0V26.517c0-8.004 5.903-14.111 14.108-14.111 8.325 0 14.107 6.506 14.107 14.111v15.606h-7.493V27.016c0-4.604-2.801-7.306-6.602-7.306-4.104 0-6.606 2.914-6.606 7.306v15.106l-7.514.009Zm32.203-14.515c0-8.904 6.402-15.21 15.402-15.21 5.603 0 10.602 2.914 13.004 7.405l-6.402 3.805a7.36 7.36 0 0 0-6.702-4.005c-4.404 0-7.705 3.302-7.705 8.005 0 4.604 3.101 8.105 7.705 8.105 3.001 0 5.603-1.503 6.802-4.004l6.402 3.704a14.887 14.887 0 0 1-13.104 7.493c-8.883.009-15.402-6.394-15.402-15.298Zm32.519 14.507V4.304L215.186 0v14.607a12.584 12.584 0 0 1 6.902-2.202c8.204 0 13.907 5.603 13.907 13.907v15.819h-7.493V27.016c0-4.604-2.801-7.306-6.602-7.306-4.104 0-6.606 2.914-6.606 7.306v15.106h-7.526ZM82.892 27.578a15.068 15.068 0 0 1-9.766 14.244C68.06 43.8 62.124 43.072 56.4 39.837l-4.162-2.398a14.752 14.752 0 0 1-3.197 2.752l-13.32 7.792h-.026v-6.722h.025l20.02-11.735a14.647 14.647 0 0 1-.641 2.876l4.162 2.381c5.345 3.04 9.333 2.56 11.735 1.624a9.484 9.484 0 0 0 5.607-5.828 9.67 9.67 0 0 0 .458-2.972 9.257 9.257 0 0 0-6.17-8.717c-2.418-.911-6.406-1.344-11.713 1.761L26.675 39.679l-.038.025c-3.605 2.11-7.31 3.197-10.823 3.217-2.001.02-3.99-.328-5.865-1.028a15.185 15.185 0 0 1-9.22-18.898 15.352 15.352 0 0 1 9.037-9.475c5.066-1.977 11.002-1.274 16.725 1.986l4.163 2.398a14.678 14.678 0 0 1 3.201-2.752l.28-.166 1.552-.908-6.619-3.746a2.915 2.915 0 0 1 2.86-5.058l9.512 5.44 9.32-5.41a2.914 2.914 0 0 1 2.939 5.007l-26.52 15.31a14.67 14.67 0 0 1 .616-2.68l-4.163-2.382c-5.341-3.038-9.325-2.56-11.73-1.619a9.317 9.317 0 0 0 .103 17.508c2.415.912 6.407 1.345 11.714-1.76l32.557-19.053c3.604-2.11 7.31-3.193 10.823-3.214 2-.02 3.987.329 5.86 1.029a15.077 15.077 0 0 1 9.937 14.128"/></svg>