<svg class="sinch-icon" viewBox="0 0 49 48" fill="currentColor" xmlns="http://www.w3.org/2000/svg"><path fill-rule="evenodd" clip-rule="evenodd" d="M6.47729 0C3.16359 0 0.477295 2.68629 0.477295 6V42C0.477295 45.3137 3.16359 48 6.47729 48H42.4773C45.791 48 48.4773 45.3137 48.4773 42V6C48.4773 2.68629 45.791 0 42.4773 0H6.47729ZM15.1965 14.7193C10.0709 19.8449 10.0709 28.1552 15.1965 33.2808C15.9288 34.013 15.9288 35.2002 15.1965 35.9325C14.4643 36.6647 13.2771 36.6647 12.5449 35.9325C5.95477 29.3424 5.95477 18.6577 12.5449 12.0676C13.2771 11.3354 14.4643 11.3354 15.1965 12.0676C15.9288 12.7998 15.9288 13.987 15.1965 14.7193ZM36.4097 12.0676C35.6775 11.3354 34.4903 11.3354 33.7581 12.0676C33.0259 12.7998 33.0259 13.987 33.7581 14.7193C38.8837 19.8449 38.8837 28.1552 33.7581 33.2808C33.0259 34.013 33.0259 35.2002 33.7581 35.9325C34.4903 36.6647 35.6775 36.6647 36.4097 35.9325C42.9998 29.3424 42.9998 18.6577 36.4097 12.0676ZM20.4999 27.9775C18.3032 25.7808 18.3032 22.2193 20.4999 20.0226C21.2321 19.2903 21.2321 18.1031 20.4999 17.3709C19.7676 16.6387 18.5805 16.6387 17.8482 17.3709C14.1871 21.0321 14.1871 26.968 17.8482 30.6292C18.5805 31.3614 19.7676 31.3614 20.4999 30.6292C21.2321 29.8969 21.2321 28.7097 20.4999 27.9775ZM24.4773 26.25C25.72 26.25 26.7273 25.2427 26.7273 24C26.7273 22.7574 25.72 21.75 24.4773 21.75C23.2347 21.75 22.2273 22.7574 22.2273 24C22.2273 25.2427 23.2347 26.25 24.4773 26.25ZM28.4548 17.3709C29.187 16.6387 30.3742 16.6387 31.1064 17.3709C34.7676 21.0321 34.7676 26.968 31.1064 30.6292C30.3742 31.3614 29.187 31.3614 28.4548 30.6292C27.7226 29.8969 27.7226 28.7097 28.4548 27.9775C30.6515 25.7808 30.6515 22.2193 28.4548 20.0226C27.7226 19.2903 27.7226 18.1031 28.4548 17.3709Z"/></svg>