<svg class="sinch-icon" viewBox="0 0 49 48" fill="currentColor" xmlns="http://www.w3.org/2000/svg"><path fill-rule="evenodd" clip-rule="evenodd" d="M18.5852 24.0017C18.5852 27.2551 21.2235 29.8932 24.4773 29.8932C27.7311 29.8932 30.3694 27.2551 30.3694 24.0017C30.3694 20.7483 27.7311 18.1102 24.4773 18.1102C21.2235 18.1102 18.5852 20.7483 18.5852 24.0017ZM26.8335 24.0017C26.8335 25.3028 25.7786 26.3576 24.4773 26.3576C23.176 26.3576 22.1211 25.3028 22.1211 24.0017C22.1211 22.7006 23.176 21.6458 24.4773 21.6458C25.7786 21.6458 26.8335 22.7006 26.8335 24.0017Z"/><path fill-rule="evenodd" clip-rule="evenodd" d="M0.477295 6C0.477295 2.68629 3.16359 0 6.47729 0H42.4773C45.791 0 48.4773 2.68629 48.4773 6V42C48.4773 45.3137 45.791 48 42.4773 48H6.47729C3.16359 48 0.477295 45.3137 0.477295 42V6ZM33.9054 24.0017C33.9054 24.9774 34.6976 25.7695 35.6734 25.7695C36.6491 25.7695 37.4413 24.9774 37.4413 24.0017C37.4413 16.8421 31.6376 11.039 24.4773 11.039C17.317 11.039 11.5167 16.8421 11.5167 24.0017C11.5167 31.1613 17.3204 36.9644 24.4807 36.9644C28.0609 36.9644 31.301 35.5128 33.647 33.167L36.146 35.6658C33.1608 38.654 29.0332 40.5 24.4773 40.5C15.3654 40.5 7.97729 33.1126 7.97729 24.0017C7.97729 14.8907 15.3654 7.5 24.4773 7.5C33.5892 7.5 40.9773 14.8874 40.9773 23.9983C40.9773 25.3547 40.4605 26.7112 39.4235 27.7481C37.6215 29.5499 34.8438 29.7844 32.7902 28.4518C31.2024 31.4162 28.0745 33.4288 24.4773 33.4288C19.272 33.4288 15.0492 29.2065 15.0492 24.0017C15.0492 18.7969 19.272 14.5746 24.4773 14.5746C29.6826 14.5746 33.9054 18.7935 33.9054 24.0017Z"/></svg>