<svg class="sinch-icon" viewBox="0 0 48 48" fill="currentColor" xmlns="http://www.w3.org/2000/svg"><path d="M27.7761 27.776C29.8615 25.6906 29.8615 22.3094 27.7761 20.2239C25.6906 18.1384 22.3094 18.1384 20.2239 20.2239C18.1385 22.3094 18.1385 25.6906 20.2239 27.776C22.3094 29.8615 25.6906 29.8615 27.7761 27.776Z" fill="black"/><path fill-rule="evenodd" clip-rule="evenodd" d="M20.0473 4.74083C21.3476 5.10491 22.6719 5.59871 24 6.21367C25.3281 5.59871 26.6524 5.10492 27.9527 4.74083C32.6493 3.42578 37.6611 3.67655 40.9922 7.00773C44.3234 10.3389 44.5742 15.3507 43.2591 20.0473C42.8951 21.3476 42.4013 22.6719 41.7863 24C42.4013 25.3281 42.8951 26.6524 43.2592 27.9527C44.5742 32.6493 44.3235 37.6611 40.9923 40.9922C37.6611 44.3234 32.6493 44.5742 27.9527 43.2591C26.6524 42.8951 25.3281 42.4013 24 41.7863C22.6719 42.4013 21.3476 42.8951 20.0473 43.2592C15.3507 44.5742 10.3389 44.3234 7.00773 40.9922C3.67655 37.6611 3.42577 32.6493 4.74083 27.9527C5.10492 26.6524 5.59872 25.3281 6.21369 24C5.59873 22.6719 5.10494 21.3476 4.74086 20.0473C3.4258 15.3507 3.67658 10.3389 7.00776 7.00773C10.3389 3.67655 15.3507 3.42577 20.0473 4.74083ZM10.7838 10.7838C12.0836 9.48396 14.5293 8.86358 18.0956 9.74799C16.5539 10.8883 15.0493 12.1824 13.6158 13.6158C12.1824 15.0493 10.8883 16.5538 9.74802 18.0955C8.86361 14.5292 9.484 12.0836 10.7838 10.7838ZM34.3842 13.6158C35.8176 15.0493 37.1117 16.5538 38.252 18.0955C39.1364 14.5292 38.516 12.0836 37.2162 10.7838C35.8551 9.42269 33.2376 8.8066 29.3925 9.88321C25.64 10.9339 21.3 13.4838 17.3919 17.3919C15.2625 19.5213 13.5363 21.779 12.2361 24C13.5363 26.221 15.2625 28.4787 17.3919 30.6081C18.3453 31.5615 19.3244 32.434 20.3143 33.2237C19.373 33.6802 18.4719 34.0305 17.6343 34.2759C16.1515 34.7102 15.1066 34.7565 14.453 34.6713C13.8239 34.5894 13.6349 34.4032 13.6158 34.3841C12.1824 32.9506 10.8883 31.4461 9.748 29.9044C8.86357 33.4707 9.48396 35.9164 10.7838 37.2162C12.1449 38.5773 14.7624 39.1934 18.6074 38.1168C22.36 37.0661 26.7 34.5162 30.6081 30.6081C32.7375 28.4787 34.4637 26.221 35.7639 24C34.4637 21.779 32.7375 19.5213 30.6081 17.3919C29.6547 16.4385 28.6756 15.5659 27.6856 14.7763C28.627 14.3197 29.5281 13.9694 30.3657 13.7241C31.8485 13.2897 32.8934 13.2435 33.547 13.3286C34.1761 13.4105 34.3651 13.5967 34.3842 13.6158ZM37.2162 37.2162C38.516 35.9164 39.1364 33.4707 38.252 29.9044C37.1117 31.4461 35.8176 32.9507 34.3841 34.3841C32.9507 35.8176 31.4461 37.1117 29.9044 38.252C33.4707 39.1364 35.9164 38.516 37.2162 37.2162Z" fill="black"/></svg>