<svg width="48" height="48" viewBox="0 0 48 48" fill="currentColor" xmlns="http://www.w3.org/2000/svg"><g clip-path="url(#clip0_59370_41008)"><path d="M23.6522 47.3044C36.7165 47.3044 47.3043 36.7165 47.3043 23.6522C47.3043 10.5878 36.7165 0 23.6522 0C10.5878 0 0 10.5878 0 23.6522C0 36.7165 10.5878 47.3044 23.6522 47.3044Z" class="logo"/><path fill-rule="evenodd" clip-rule="evenodd" d="M31.9026 11.6869C33.4609 12.5113 34.6852 13.7495 35.527 15.3113L35.5305 15.3078H35.5444C36.3826 16.8661 36.8278 18.6713 36.8278 21.4574V23.0469C36.8278 23.6591 36.8105 24.2261 36.7652 24.7617C36.4278 29.8434 34.8696 33.1304 32.9252 35.273C29.3267 39.2281 24.4325 39.2069 23.6728 39.2036C23.6541 39.2035 23.638 39.2034 23.6244 39.2034H23.5339C23.5248 39.2034 23.5117 39.1996 23.4994 39.1959C23.4883 39.1926 23.4779 39.1895 23.4713 39.1895C23.3183 39.1269 23.2278 39.0052 23.1652 38.8521C23.0609 38.5774 23.12 38.3304 23.3809 38.1321C23.5613 37.9895 23.7494 37.8503 23.9379 37.7107C24.1311 37.5677 24.3248 37.4243 24.5113 37.2765C24.6052 37.2 24.6818 37.1374 24.7722 37.0608C24.7722 37.0608 25.0957 36.7721 25.3705 36.48C25.6452 36.1913 26.1357 35.4852 26.6087 34.4765C26.6539 34.3687 26.64 34.2608 26.5635 34.1843C26.4731 34.0765 26.32 34.1078 26.32 34.1078H20.8731C18.0905 34.1078 16.2852 33.6661 14.7235 32.8243C13.1652 32 11.9409 30.7617 11.0992 29.2C10.2609 27.6417 9.81567 25.8365 9.81567 23.0504V21.4608C9.81567 18.6782 10.2574 16.873 11.0992 15.3113C11.9235 13.753 13.1618 12.5287 14.7235 11.6869C16.2818 10.8487 18.087 10.4034 20.8731 10.4034H25.7531C28.5357 10.4034 30.3409 10.8452 31.9026 11.6869ZM31.7218 17.3009H14.9078C14.5705 17.3009 14.3096 17.5757 14.3096 17.8992V20.3026C14.3096 20.64 14.5844 20.9009 14.9078 20.9009H31.7218C32.0591 20.9009 32.32 20.6261 32.32 20.3026V17.8992C32.32 17.5618 32.0452 17.3009 31.7218 17.3009ZM23.6139 23.6035H14.9078C14.5705 23.6035 14.3096 23.8783 14.3096 24.2018V26.6053C14.3096 26.9426 14.5844 27.2035 14.9078 27.2035H23.6139C23.9513 27.2035 24.2122 26.9287 24.2122 26.6053V24.2018C24.2122 23.8644 23.9374 23.6035 23.6139 23.6035Z" fill="white"/></g><defs><clipPath id="clip0_59370_41008"><rect width="48" height="48" fill="white"/></clipPath></defs></svg>