<svg viewBox="0 0 314 48" fill="currentColor" xmlns="http://www.w3.org/2000/svg"><path fill-rule="evenodd" clip-rule="evenodd" d="M6 0C2.68629 0 0 2.68629 0 6V42C0 45.3137 2.68629 48 6 48H42C45.3137 48 48 45.3137 48 42V6C48 2.68629 45.3137 0 42 0H6ZM14.7192 14.7193C9.59359 19.8449 9.59359 28.1552 14.7192 33.2808C15.4515 34.013 15.4515 35.2002 14.7192 35.9325C13.987 36.6647 12.7998 36.6647 12.0676 35.9325C5.47748 29.3424 5.47748 18.6577 12.0676 12.0676C12.7998 11.3354 13.987 11.3354 14.7192 12.0676C15.4515 12.7998 15.4515 13.987 14.7192 14.7193ZM35.9324 12.0676C35.2002 11.3354 34.013 11.3354 33.2808 12.0676C32.5486 12.7998 32.5486 13.987 33.2808 14.7193C38.4064 19.8449 38.4064 28.1552 33.2808 33.2808C32.5486 34.013 32.5486 35.2002 33.2808 35.9325C34.013 36.6647 35.2002 36.6647 35.9324 35.9325C42.5225 29.3424 42.5225 18.6577 35.9324 12.0676ZM20.0226 27.9775C17.8259 25.7808 17.8259 22.2193 20.0226 20.0226C20.7548 19.2903 20.7548 18.1031 20.0226 17.3709C19.2903 16.6387 18.1032 16.6387 17.3709 17.3709C13.7098 21.0321 13.7098 26.968 17.3709 30.6292C18.1032 31.3614 19.2903 31.3614 20.0226 30.6292C20.7548 29.8969 20.7548 28.7097 20.0226 27.9775ZM24 26.25C25.2427 26.25 26.25 25.2427 26.25 24C26.25 22.7574 25.2427 21.75 24 21.75C22.7574 21.75 21.75 22.7574 21.75 24C21.75 25.2427 22.7574 26.25 24 26.25ZM27.9775 17.3709C28.7097 16.6387 29.8969 16.6387 30.6292 17.3709C34.2903 21.0321 34.2903 26.968 30.6292 30.6292C29.8969 31.3614 28.7097 31.3614 27.9775 30.6292C27.2453 29.8969 27.2453 28.7097 27.9775 27.9775C30.1742 25.7808 30.1742 22.2193 27.9775 20.0226C27.2453 19.2903 27.2453 18.1031 27.9775 17.3709Z" class="logo"/><path d="M181.584 36.6611C183.534 37.8311 185.848 38.4162 188.526 38.4162C191.646 38.4162 194.181 37.6751 196.131 36.1932C198.107 34.7111 199.368 32.6571 199.914 30.0311H196.287C195.871 31.6952 195.013 33.0341 193.713 34.0482C192.439 35.0361 190.71 35.5302 188.526 35.5302C186.576 35.5302 184.873 35.0881 183.417 34.2041C181.961 33.2942 180.83 32.0071 180.024 30.3431C179.244 28.6532 178.854 26.6382 178.854 24.2982C178.854 21.9581 179.244 19.9561 180.024 18.2921C180.83 16.6022 181.961 15.3151 183.417 14.4312C184.873 13.5211 186.576 13.0661 188.526 13.0661C190.71 13.0661 192.439 13.5862 193.713 14.6261C195.013 15.6401 195.871 16.9922 196.287 18.6822H199.914C199.368 16.0042 198.107 13.9242 196.131 12.4421C194.181 10.9341 191.646 10.1801 188.526 10.1801C185.848 10.1801 183.534 10.7781 181.584 11.9742C179.66 13.1701 178.165 14.8341 177.099 16.9662C176.033 19.0722 175.5 21.5162 175.5 24.2982C175.5 27.1061 176.033 29.5761 177.099 31.7082C178.165 33.8142 179.66 35.4651 181.584 36.6611Z"/><path d="M310.201 37.9482C308.433 37.9482 307.042 37.5192 306.028 36.6612C305.014 35.8032 304.507 34.2562 304.507 32.0202V21.3732H301.153V18.6042H304.507L304.936 13.9632H307.783V18.6042H313.477V21.3732H307.783V32.0202C307.783 33.2422 308.03 34.0742 308.524 34.5162C309.018 34.9322 309.889 35.1402 311.137 35.1402H313.165V37.9482H310.201Z"/><path d="M291.99 38.4162C290.144 38.4162 288.48 38.0002 286.998 37.1682C285.542 36.3102 284.385 35.1271 283.527 33.6192C282.695 32.0852 282.279 30.3041 282.279 28.2762C282.279 26.2482 282.695 24.4802 283.527 22.9721C284.385 21.4382 285.542 20.2551 286.998 19.4232C288.48 18.5652 290.144 18.1361 291.99 18.1361C294.278 18.1361 296.202 18.7342 297.762 19.9302C299.348 21.1262 300.349 22.7251 300.765 24.7272H297.411C297.151 23.5312 296.514 22.6081 295.5 21.9582C294.486 21.2822 293.303 20.9442 291.951 20.9442C290.859 20.9442 289.832 21.2172 288.87 21.7632C287.908 22.3092 287.128 23.1281 286.53 24.2202C285.932 25.3121 285.633 26.6642 285.633 28.2762C285.633 29.8882 285.932 31.2402 286.53 32.3322C287.128 33.4242 287.908 34.2562 288.87 34.8281C289.832 35.3741 290.859 35.6472 291.951 35.6472C293.303 35.6472 294.486 35.3221 295.5 34.6722C296.514 33.9962 297.151 33.0471 297.411 31.8252H300.765C300.375 33.7752 299.387 35.3611 297.801 36.5832C296.215 37.8051 294.278 38.4162 291.99 38.4162Z"/><path fill-rule="evenodd" clip-rule="evenodd" d="M266.927 37.1682C268.357 38.0002 269.995 38.4162 271.841 38.4162C274.129 38.4162 276.001 37.8311 277.457 36.6612C278.939 35.4651 279.94 33.9702 280.46 32.1762H277.223C276.807 33.2422 276.144 34.0872 275.234 34.7111C274.324 35.3351 273.193 35.6472 271.841 35.6472C270.801 35.6472 269.813 35.4001 268.877 34.9061C267.967 34.4122 267.2 33.6842 266.576 32.7221C265.978 31.7342 265.64 30.4991 265.562 29.0172H280.967V28.0421C280.976 27.9483 280.983 27.8545 280.989 27.7606C280.993 27.6938 280.996 27.627 280.999 27.5601C281.001 27.4909 281.003 27.4217 281.005 27.3526L281.005 27.2897C281.006 27.2545 281.006 27.2194 281.006 27.1842C281.006 25.5981 280.642 24.1162 279.914 22.7381C279.186 21.3602 278.133 20.2551 276.755 19.4232C275.403 18.5652 273.791 18.1361 271.919 18.1361C270.021 18.1361 268.344 18.5652 266.888 19.4232C265.458 20.2551 264.34 21.4382 263.534 22.9721C262.728 24.4802 262.325 26.2482 262.325 28.2762C262.325 30.3301 262.728 32.1112 263.534 33.6192C264.366 35.1271 265.497 36.3102 266.927 37.1682ZM267.668 22.3482C268.89 21.3862 270.281 20.9052 271.841 20.9052C273.479 20.9052 274.857 21.3992 275.975 22.3872C277.093 23.3752 277.691 24.7402 277.769 26.4822H265.601C265.783 24.6622 266.472 23.2841 267.668 22.3482Z"/><path d="M243.076 18.6042H246.04L246.235 22.0752C246.859 20.8531 247.756 19.8912 248.926 19.1892C250.096 18.4872 251.422 18.1361 252.904 18.1361C255.192 18.1361 257.012 18.8382 258.364 20.2421C259.742 21.6202 260.431 23.7522 260.431 26.6382V37.9482H257.155V26.9892C257.155 22.9591 255.491 20.9442 252.163 20.9442C250.499 20.9442 249.108 21.5552 247.99 22.7771C246.898 23.9732 246.352 25.6891 246.352 27.9251V37.9482H243.076V18.6042Z"/><path d="M223.007 37.9482H226.283V27.9251C226.283 25.6891 226.829 23.9732 227.921 22.7771C229.039 21.5552 230.43 20.9442 232.094 20.9442C235.422 20.9442 237.086 22.9591 237.086 26.9892V37.9482H240.362V26.6382C240.362 23.7522 239.674 21.6202 238.295 20.2421C236.943 18.8382 235.124 18.1361 232.835 18.1361C231.353 18.1361 230.028 18.4872 228.857 19.1892C227.687 19.8912 226.79 20.8531 226.166 22.0752L225.971 18.6042H223.007V37.9482Z"/><path fill-rule="evenodd" clip-rule="evenodd" d="M210.991 38.4162C209.171 38.4162 207.533 38.0002 206.077 37.1682C204.621 36.3362 203.464 35.1661 202.606 33.6582C201.774 32.1242 201.358 30.3301 201.358 28.2762C201.358 26.2222 201.787 24.4412 202.645 22.9331C203.503 21.3992 204.66 20.2161 206.116 19.3842C207.598 18.5522 209.249 18.1361 211.069 18.1361C212.889 18.1361 214.527 18.5522 215.983 19.3842C217.439 20.2161 218.583 21.3992 219.415 22.9331C220.273 24.4412 220.702 26.2222 220.702 28.2762C220.702 30.3301 220.273 32.1242 219.415 33.6582C218.557 35.1661 217.387 36.3362 215.905 37.1682C214.449 38.0002 212.811 38.4162 210.991 38.4162ZM210.991 35.6082C212.109 35.6082 213.149 35.3351 214.111 34.7891C215.073 34.2432 215.853 33.4242 216.451 32.3322C217.049 31.2402 217.348 29.8882 217.348 28.2762C217.348 26.6642 217.049 25.3121 216.451 24.2202C215.879 23.1281 215.112 22.3092 214.15 21.7632C213.188 21.2172 212.161 20.9442 211.069 20.9442C209.951 20.9442 208.911 21.2172 207.949 21.7632C206.987 22.3092 206.207 23.1281 205.609 24.2202C205.011 25.3121 204.712 26.6642 204.712 28.2762C204.712 29.8882 205.011 31.2402 205.609 32.3322C206.207 33.4242 206.974 34.2432 207.91 34.7891C208.872 35.3351 209.899 35.6082 210.991 35.6082Z"/><path d="M94.6284 15.4441C95.2322 15.9725 95.987 16.2367 96.8928 16.2367C97.8237 16.2367 98.5785 15.9725 99.1573 15.4441C99.7612 14.8906 100.063 14.1986 100.063 13.3683C100.063 12.5381 99.7612 11.8586 99.1573 11.3303C98.5785 10.7768 97.8237 10.5 96.8928 10.5C95.987 10.5 95.2322 10.7768 94.6284 11.3303C94.0496 11.8586 93.7603 12.5381 93.7603 13.3683C93.7603 14.1986 94.0496 14.8906 94.6284 15.4441Z"/><path d="M94.3264 18.8408V37.8625H99.4215V18.8408H94.3264Z"/><path d="M144.854 37.8625V10.689H149.949V21.6716C150.578 20.6904 151.409 19.8978 152.441 19.2939C153.497 18.6901 154.718 18.3882 156.101 18.3882C157.686 18.3882 159.02 18.7278 160.101 19.4072C161.184 20.0614 162.002 21.0175 162.555 22.2755C163.109 23.5335 163.385 25.0935 163.385 26.9555V37.8625H158.328V27.4083C158.328 25.8987 158.013 24.7413 157.385 23.9361C156.755 23.1058 155.762 22.6907 154.403 22.6907C153.571 22.6907 152.817 22.8919 152.138 23.2945C151.458 23.6971 150.918 24.2884 150.515 25.0683C150.138 25.8231 149.949 26.729 149.949 27.7857V37.8625H144.854Z"/><path d="M127.983 37.032C129.467 37.8875 131.166 38.3151 133.078 38.3151C135.493 38.3151 137.531 37.6736 139.192 36.3903C140.878 35.082 141.947 33.3333 142.4 31.1443H137.003C136.852 31.7483 136.588 32.2639 136.21 32.6917C135.833 33.0944 135.367 33.4088 134.814 33.6353C134.286 33.8618 133.694 33.9749 133.04 33.9749C132.386 33.9749 131.769 33.8492 131.191 33.5975C130.637 33.3459 130.159 32.9811 129.757 32.5031C129.354 31.9998 129.04 31.4085 128.813 30.7291C128.587 30.0246 128.473 29.2321 128.473 28.3515C128.473 27.1941 128.662 26.2002 129.04 25.37C129.442 24.5144 129.983 23.8728 130.662 23.4451C131.367 22.9922 132.159 22.7658 133.04 22.7658C134.021 22.7658 134.864 23.0174 135.569 23.5206C136.298 24.0238 136.776 24.7158 137.003 25.5963H142.4C141.947 23.357 140.89 21.5958 139.23 20.3126C137.569 19.0294 135.518 18.3878 133.078 18.3878C131.166 18.3878 129.467 18.8281 127.983 19.7087C126.498 20.5642 125.341 21.7468 124.511 23.2564C123.68 24.7409 123.265 26.4643 123.265 28.4269C123.265 30.3391 123.68 32.0376 124.511 33.522C125.341 35.0066 126.498 36.1765 127.983 37.032Z"/><path d="M102.407 18.8407V37.8623H107.502V27.71C107.502 26.653 107.691 25.7599 108.068 25.0302C108.446 24.2755 108.962 23.6968 109.616 23.2941C110.295 22.8916 111.062 22.6903 111.918 22.6903C113.251 22.6903 114.233 23.0929 114.862 23.898C115.516 24.7031 115.843 25.8606 115.843 27.3702V37.8623H120.901V26.8795C120.901 25.0428 120.611 23.4955 120.032 22.2374C119.479 20.9794 118.661 20.0232 117.579 19.3691C116.497 18.7149 115.164 18.3878 113.579 18.3878C112.094 18.3878 110.811 18.7149 109.729 19.3691C108.672 20.0232 107.854 20.8787 107.276 21.9355L106.898 18.8407H102.407Z"/><path d="M82.0014 38.3153C80.0892 38.3153 78.3783 37.9883 76.8686 37.3341C75.3842 36.6798 74.2015 35.7237 73.3209 34.4657C72.4655 33.2077 72.0253 31.6854 72 29.8991H77.397C77.4221 30.679 77.6235 31.3836 78.0009 32.0126C78.3783 32.6415 78.8939 33.1447 79.5483 33.5221C80.2277 33.8745 81.0328 34.0507 81.9637 34.0507C82.7688 34.0507 83.4608 33.9248 84.0394 33.6732C84.6434 33.3964 85.1089 33.019 85.4357 32.5409C85.7629 32.0628 85.9265 31.4967 85.9265 30.8426C85.9265 30.0878 85.7377 29.4588 85.3603 28.9556C85.0082 28.4523 84.5048 28.0245 83.8508 27.6723C83.2216 27.3201 82.4795 27.0056 81.624 26.7288C80.7938 26.4269 79.9131 26.1123 78.982 25.7853C76.8937 25.106 75.2961 24.2001 74.189 23.0679C73.1071 21.9357 72.5662 20.4386 72.5662 18.5767C72.5662 16.9915 72.9435 15.6329 73.6983 14.5007C74.4783 13.3684 75.5477 12.5003 76.9063 11.8965C78.2651 11.2927 79.8124 10.9907 81.5486 10.9907C83.335 10.9907 84.8948 11.3052 86.2284 11.9343C87.587 12.5381 88.6564 13.4187 89.4364 14.5761C90.2415 15.7335 90.6566 17.0923 90.6819 18.6522H85.2471C85.222 18.0735 85.0457 17.5325 84.7189 17.0293C84.4169 16.5009 83.989 16.0858 83.4355 15.7839C82.882 15.4568 82.2279 15.2932 81.4731 15.2932C80.8187 15.2681 80.215 15.3687 79.6613 15.5952C79.1331 15.8216 78.7053 16.1613 78.3783 16.6142C78.0764 17.0419 77.9253 17.5829 77.9253 18.237C77.9253 18.8661 78.0764 19.3944 78.3783 19.8222C78.7053 20.2499 79.1457 20.6273 79.6992 20.9544C80.2527 21.2563 80.9068 21.5457 81.6617 21.8224C82.1074 21.9709 82.5751 22.1239 83.0645 22.2813C83.4042 22.3904 83.7543 22.5016 84.115 22.615C85.4233 23.0679 86.631 23.6089 87.7379 24.2379C88.8452 24.8417 89.7257 25.6343 90.3799 26.6156C91.0342 27.5968 91.3612 28.8926 91.3612 30.503C91.3612 31.8867 90.9965 33.1699 90.2668 34.3526C89.5371 35.535 88.4804 36.4911 87.0965 37.2209C85.7377 37.9504 84.0394 38.3153 82.0014 38.3153Z"/></svg>