<svg viewBox="0 0 157 48" fill="currentColor" xmlns="http://www.w3.org/2000/svg"><path d="M53.2055 39.6663V16.4938H68.3338V19.9035H57.4427V26.2594H67.3407V29.5697H57.4427V36.2566H68.3338V39.6663H53.2055Z"/><path d="M70.5848 39.6663V23.2469H74.3255L74.6565 26.0276C75.1655 25.0552 75.8979 24.2856 76.8579 23.7104C77.8179 23.1352 78.9476 22.8497 80.251 22.8497C82.2827 22.8497 83.8593 23.4911 84.9848 24.7697C86.1103 26.0483 86.6731 27.9269 86.6731 30.3973V39.6663H82.4358V30.7945C82.4358 29.3835 82.1503 28.2994 81.5752 27.5504C81 26.8014 80.1062 26.4249 78.8938 26.4249C77.6814 26.4249 76.7255 26.8428 75.9641 27.6828C75.2027 28.5228 74.8221 29.6897 74.8221 31.1918V39.6663H70.5848Z"/><path d="M96.0083 34.7669C95.2138 34.7669 94.4731 34.68 93.7903 34.5021L92.5655 35.7269C92.9421 35.9256 93.4469 36.0911 94.0883 36.2235C94.7296 36.3559 95.7641 36.4883 97.2 36.6207C99.3848 36.8194 100.974 37.3366 101.967 38.1766C102.96 39.0166 103.457 40.1752 103.457 41.6525C103.457 42.6249 103.192 43.5435 102.662 44.4166C102.132 45.2897 101.317 45.9931 100.212 46.5352C99.1076 47.0773 97.6965 47.3462 95.9752 47.3462C93.6372 47.3462 91.7503 46.9118 90.3145 46.0387C88.8786 45.1656 88.1627 43.858 88.1627 42.1159C88.1627 40.6387 88.8786 39.3559 90.3145 38.2759C89.8717 38.0773 89.491 37.8663 89.1724 37.6469C88.8538 37.4276 88.5724 37.1959 88.3283 36.9518V36.1904L91.2083 33.1449C89.9296 32.0194 89.2883 30.5752 89.2883 28.8083C89.2883 27.7035 89.5572 26.7021 90.0993 25.7959C90.6414 24.8897 91.4069 24.1738 92.4 23.6442C93.3931 23.1145 94.5972 22.8497 96.0083 22.8497C96.9352 22.8497 97.7958 22.9821 98.5903 23.2469H104.814V25.829L102 26.0276C102.443 26.8676 102.662 27.7945 102.662 28.8083C102.662 29.9131 102.397 30.9145 101.868 31.8207C101.338 32.7269 100.572 33.4428 99.5669 33.9725C98.5614 34.5021 97.3779 34.7669 96.0083 34.7669ZM92.0359 41.6856C92.0359 42.5007 92.4165 43.1131 93.1779 43.5228C93.9393 43.9325 94.8703 44.1352 95.9752 44.1352C97.08 44.1352 97.8952 43.92 98.5572 43.4897C99.2193 43.0594 99.5503 42.48 99.5503 41.7518C99.5503 41.1559 99.3352 40.6594 98.9048 40.2621C98.4745 39.8649 97.6179 39.6207 96.3393 39.5338C95.4331 39.4676 94.5972 39.3683 93.8234 39.2359C93.1821 39.5876 92.7269 39.9766 92.4496 40.3945C92.1724 40.8125 92.0359 41.2428 92.0359 41.6856ZM96.0083 31.5228C96.869 31.5228 97.5807 31.2911 98.1434 30.8276C98.7062 30.3642 98.9876 29.7021 98.9876 28.8414C98.9876 27.9807 98.7062 27.3187 98.1434 26.8552C97.5807 26.3918 96.869 26.16 96.0083 26.16C95.1021 26.16 94.3738 26.3918 93.8234 26.8552C93.2731 27.3187 92.9959 27.9807 92.9959 28.8414C92.9959 29.7021 93.2731 30.3642 93.8234 30.8276C94.3738 31.2911 95.1021 31.5228 96.0083 31.5228Z"/><path d="M111.898 40.0635C110.487 40.0635 109.328 39.8359 108.422 39.3849C107.516 38.9338 106.846 38.3297 106.403 37.5807C105.96 36.8318 105.741 36.0042 105.741 35.098C105.741 33.5752 106.337 32.338 107.528 31.3904C108.72 30.4428 110.508 29.9669 112.891 29.9669H117.062V29.5697C117.062 28.4442 116.743 27.6166 116.102 27.0869C115.461 26.5573 114.666 26.2925 113.719 26.2925C112.858 26.2925 112.109 26.4952 111.468 26.9049C110.826 27.3145 110.429 27.9145 110.276 28.709H106.138C106.25 27.5173 106.651 26.4787 107.346 25.5973C108.041 24.7159 108.939 24.0373 110.044 23.5614C111.149 23.0856 112.382 22.8497 113.752 22.8497C116.09 22.8497 117.935 23.4331 119.28 24.6042C120.625 25.7752 121.299 27.4304 121.299 29.5697V39.6663H117.691L117.294 37.018C116.81 37.8994 116.131 38.6276 115.258 39.2028C114.385 39.778 113.268 40.0635 111.898 40.0635ZM112.858 36.7531C114.07 36.7531 115.014 36.3559 115.688 35.5614C116.363 34.7669 116.785 33.7862 116.963 32.6152H113.354C112.229 32.6152 111.422 32.818 110.938 33.2276C110.454 33.6373 110.21 34.138 110.21 34.7338C110.21 35.3752 110.454 35.8718 110.938 36.2235C111.422 36.5752 112.063 36.7531 112.858 36.7531Z"/><path d="M130.634 34.7669C129.84 34.7669 129.099 34.68 128.417 34.5021L127.192 35.7269C127.568 35.9256 128.073 36.0911 128.714 36.2235C129.356 36.3559 130.39 36.4883 131.826 36.6207C134.011 36.8194 135.6 37.3366 136.593 38.1766C137.586 39.0166 138.083 40.1752 138.083 41.6525C138.083 42.6249 137.818 43.5435 137.288 44.4166C136.759 45.2897 135.943 45.9931 134.839 46.5352C133.734 47.0773 132.323 47.3462 130.601 47.3462C128.263 47.3462 126.377 46.9118 124.941 46.0387C123.505 45.1656 122.789 43.858 122.789 42.1159C122.789 40.6387 123.505 39.3559 124.941 38.2759C124.498 38.0773 124.117 37.8663 123.799 37.6469C123.48 37.4276 123.199 37.1959 122.954 36.9518V36.1904L125.834 33.1449C124.556 32.0194 123.914 30.5752 123.914 28.8083C123.914 27.7035 124.183 26.7021 124.726 25.7959C125.268 24.8897 126.033 24.1738 127.026 23.6442C128.019 23.1145 129.223 22.8497 130.634 22.8497C131.561 22.8497 132.422 22.9821 133.217 23.2469H139.44V25.829L136.626 26.0276C137.069 26.8676 137.288 27.7945 137.288 28.8083C137.288 29.9131 137.023 30.9145 136.494 31.8207C135.964 32.7269 135.199 33.4428 134.193 33.9725C133.188 34.5021 132.004 34.7669 130.634 34.7669ZM126.662 41.6856C126.662 42.5007 127.043 43.1131 127.804 43.5228C128.565 43.9325 129.497 44.1352 130.601 44.1352C131.706 44.1352 132.521 43.92 133.183 43.4897C133.846 43.0594 134.177 42.48 134.177 41.7518C134.177 41.1559 133.961 40.6594 133.531 40.2621C133.101 39.8649 132.244 39.6207 130.966 39.5338C130.059 39.4676 129.223 39.3683 128.45 39.2359C127.808 39.5876 127.353 39.9766 127.076 40.3945C126.799 40.8125 126.662 41.2428 126.662 41.6856ZM130.634 31.5228C131.495 31.5228 132.207 31.2911 132.77 30.8276C133.332 30.3642 133.614 29.7021 133.614 28.8414C133.614 27.9807 133.332 27.3187 132.77 26.8552C132.207 26.3918 131.495 26.16 130.634 26.16C129.728 26.16 129 26.3918 128.45 26.8552C127.899 27.3187 127.622 27.9807 127.622 28.8414C127.622 29.7021 127.899 30.3642 128.45 30.8276C129 31.2911 129.728 31.5228 130.634 31.5228Z"/><path d="M148.179 40.0635C146.524 40.0635 145.055 39.7118 143.777 39.0042C142.498 38.2966 141.492 37.3035 140.764 36.0249C140.036 34.7462 139.672 33.2649 139.672 31.589C139.672 29.9131 140.032 28.378 140.748 27.0538C141.463 25.7297 142.457 24.6994 143.727 23.9587C144.997 23.218 146.491 22.8497 148.212 22.8497C149.822 22.8497 151.245 23.2014 152.483 23.909C153.72 24.6166 154.684 25.5807 155.379 26.8056C156.074 28.0304 156.422 29.3918 156.422 30.8938C156.422 31.138 156.418 31.3904 156.406 31.6552C156.393 31.92 156.377 32.1973 156.356 32.4828H143.876C143.963 33.7614 144.41 34.7669 145.217 35.4952C146.023 36.2235 147 36.5876 148.146 36.5876C149.007 36.5876 149.731 36.3931 150.314 36.0083C150.898 35.6235 151.337 35.1187 151.622 34.5021H155.926C155.615 35.5407 155.102 36.4842 154.386 37.3325C153.67 38.1807 152.785 38.8511 151.738 39.3352C150.691 39.8194 149.503 40.0635 148.179 40.0635ZM148.212 26.2925C147.174 26.2925 146.259 26.5863 145.465 27.1697C144.67 27.7531 144.161 28.6428 143.942 29.8345H152.119C152.052 28.7545 151.655 27.8938 150.927 27.2525C150.199 26.6111 149.292 26.2925 148.212 26.2925Z"/><path d="M56.1682 11.5821C55.5724 11.5821 55.0468 11.4786 54.5917 11.2759C54.1365 11.0731 53.7765 10.7793 53.5158 10.3945C53.2551 10.0138 53.1186 9.5462 53.1103 8.99999H54.6744C54.691 9.38068 54.8275 9.6993 55.0841 9.95585C55.3406 10.2124 55.7006 10.3448 56.1558 10.3448C56.5489 10.3448 56.8634 10.2496 57.0951 10.0593C57.3268 9.86896 57.4427 9.61654 57.4427 9.30206C57.4427 8.98758 57.3393 8.71034 57.1365 8.52413C56.9337 8.33792 56.6606 8.18896 56.3213 8.0731C55.982 7.95723 55.6179 7.8331 55.233 7.70068C54.6082 7.48551 54.1282 7.20827 53.8013 6.86482C53.4744 6.52551 53.3089 6.07448 53.3089 5.50758C53.3006 5.02758 53.4165 4.61792 53.6524 4.27448C53.8882 3.93103 54.211 3.6662 54.6206 3.47586C55.0303 3.28551 55.502 3.19034 56.0358 3.19034C56.5696 3.19034 57.0537 3.28551 57.4675 3.47999C57.8813 3.67448 58.2041 3.94344 58.4399 4.29103C58.6758 4.63861 58.7999 5.05241 58.8165 5.53241H57.2275C57.2193 5.24689 57.1117 4.99448 56.8965 4.77517C56.6855 4.55586 56.3875 4.44413 56.011 4.44413C55.6882 4.43586 55.4151 4.51448 55.1958 4.67999C54.9765 4.84551 54.8648 5.08551 54.8648 5.40413C54.8648 5.6731 54.9517 5.88827 55.1213 6.04551C55.291 6.20275 55.5227 6.3393 55.8165 6.44689C56.1103 6.55448 56.4455 6.67034 56.8262 6.79448C57.2275 6.93517 57.5958 7.09654 57.9268 7.28275C58.2579 7.46896 58.5268 7.7131 58.7255 8.0193C58.9282 8.32551 59.0275 8.71448 59.0275 9.19448C59.0275 9.62068 58.9199 10.0138 58.7048 10.3779C58.4896 10.7421 58.1668 11.0317 57.7448 11.251C57.3186 11.4703 56.7972 11.5821 56.1806 11.5821H56.1682Z"/><path d="M62.6317 11.4455V3.33517H64.113V11.4455H62.6317Z"/><path d="M68.0068 11.4455V3.33517H69.4882L73.2993 9.04551V3.33517H74.7806V11.4455H73.2993L69.4882 5.74344V11.4455H68.0068Z"/><path d="M82.3531 11.5821C81.5337 11.5821 80.8303 11.4083 80.2427 11.0565C79.6551 10.7048 79.2041 10.2165 78.8855 9.58344C78.5668 8.95448 78.4096 8.2262 78.4096 7.39861C78.4096 6.57103 78.5668 5.84275 78.8855 5.20965C79.1999 4.57655 79.6551 4.07999 80.2427 3.72827C80.8303 3.37241 81.5337 3.19448 82.3531 3.19448C83.3255 3.19448 84.1241 3.43448 84.7448 3.91861C85.3655 4.40275 85.7544 5.07723 85.9075 5.95034H84.2731C84.1737 5.51172 83.9586 5.16413 83.6317 4.91172C83.3048 4.6593 82.8703 4.53517 82.3282 4.53517C81.5793 4.53517 80.9917 4.79172 80.5655 5.30068C80.1393 5.80965 79.9282 6.50896 79.9282 7.39861C79.9282 8.28827 80.1393 8.98344 80.5655 9.48827C80.9917 9.9931 81.5793 10.2455 82.3282 10.2455C82.8703 10.2455 83.3048 10.1296 83.6317 9.89379C83.9586 9.65792 84.1737 9.33103 84.2731 8.9131H85.9075C85.7544 9.74896 85.3655 10.3986 84.7448 10.8703C84.1241 11.3421 83.3255 11.5779 82.3531 11.5779V11.5821Z"/><path d="M89.5365 11.4455V3.33517H91.0179V6.70758H94.6551V3.33517H96.1365V11.4455H94.6551V7.91172H91.0179V11.4455H89.5365Z"/><path d="M41.5986 17.2138C41.5986 21.4303 39.9558 25.3903 36.9765 28.3696C33.9972 31.349 30.0331 32.9917 25.8207 32.9917H21.5172L25.8207 28.6883C32.1476 28.6883 37.2952 23.5407 37.2952 17.2138C37.2952 10.8869 32.1476 5.7393 25.8207 5.7393C19.4938 5.7393 14.3462 10.8869 14.3462 17.2138V17.4372C13.5269 17.2883 12.6869 17.2138 11.8345 17.2138H11.1186C10.7586 17.2138 10.3986 17.2262 10.0427 17.2552V17.2138C10.0427 12.9972 11.6855 9.03723 14.6648 6.05792C17.6441 3.07861 21.6083 1.43585 25.8207 1.43585C30.0331 1.43585 33.9972 3.07861 36.9765 6.05792C39.9558 9.03723 41.5986 13.0014 41.5986 17.2138Z" class="logo"/><path d="M21.5586 41.5986H11.4745C5.93791 41.5986 1.4317 37.0924 1.4317 31.5559C1.4317 26.0193 5.93791 21.5131 11.4745 21.5131C17.011 21.5131 21.5172 26.0193 21.5172 31.5559V32.9917L17.2138 32.9917V31.5559C17.2138 28.3903 14.64 25.8165 11.4745 25.8165C8.30894 25.8165 5.73515 28.3903 5.73515 31.5559C5.73515 34.7214 8.30894 37.2952 11.4745 37.2952H17.2551L21.5586 41.5986Z" class="logo"/></svg>