<svg class="sinch-icon" viewBox="0 0 49 48" fill="currentColor" xmlns="http://www.w3.org/2000/svg"><path fill-rule="evenodd" clip-rule="evenodd" d="M0.477295 6C0.477295 2.68629 3.16359 0 6.47729 0H42.4773C45.791 0 48.4773 2.68629 48.4773 6V42C48.4773 45.3137 45.791 48 42.4773 48H6.47729C3.16359 48 0.477295 45.3137 0.477295 42V6ZM7.97729 14.2332C7.97729 12.1762 9.61781 10.5084 11.6421 10.5074L26.3088 10.5C28.3346 10.499 29.9773 12.1674 29.9773 14.2258V24.47C29.9773 26.5277 28.3357 28.1958 26.3106 28.1958H19.894L14.9268 31.8011C14.32 32.2414 13.4773 31.8007 13.4773 31.0431V28.1958H11.644C9.61892 28.1958 7.97729 26.5277 7.97729 24.47V14.2332ZM22.644 34.716C21.0215 34.716 19.6451 33.6452 19.162 32.1611L20.7752 30.9902H26.3106C29.8545 30.9902 32.7273 28.071 32.7273 24.47V17.9567L37.3124 17.959C39.3368 17.9601 40.9773 19.6279 40.9773 21.6849V30.9902C40.9773 33.0479 39.3357 34.716 37.3106 34.716H35.4773V38.4419C35.4773 39.2094 34.6149 39.6476 34.0106 39.187L28.144 34.716H22.644Z"/></svg>