<svg viewBox="0 0 276 48" fill="currentColor" xmlns="http://www.w3.org/2000/svg"><path fill-rule="evenodd" clip-rule="evenodd" d="M0 6C0 2.68629 2.68629 0 6 0H42C45.3137 0 48 2.68629 48 6V42C48 45.3137 45.3137 48 42 48H6C2.68629 48 0 45.3137 0 42V6ZM34.6094 9.23007C35.8029 8.75342 37.1589 9.03054 38.0642 9.93951L38.0605 9.93581C38.9695 10.8448 39.2466 12.2008 38.7699 13.3906L28.1321 39.9909C27.6554 41.1769 26.5691 41.9492 25.2906 42.0009H25.1502C23.9309 42.0009 22.8445 41.3321 22.294 40.231L18.3588 32.357L21.2224 29.4934L25.0948 37.2381L34.65 13.35L10.7619 22.9052L18.5066 26.7776L15.643 29.6412L7.76897 25.706C6.62722 25.1333 5.95104 23.9879 6.00277 22.7094C6.0545 21.4309 6.82675 20.3446 8.01284 19.8679L34.6094 9.23007Z" class="logo"/><path d="M225.276 13.662C225.718 14.078 226.264 14.286 226.914 14.286C227.538 14.286 228.071 14.078 228.513 13.662C228.955 13.22 229.176 12.674 229.176 12.024C229.176 11.4 228.955 10.88 228.513 10.464C228.071 10.048 227.538 9.84 226.914 9.84C226.264 9.84 225.718 10.048 225.276 10.464C224.86 10.88 224.652 11.4 224.652 12.024C224.652 12.674 224.86 13.22 225.276 13.662Z"/><path d="M225.276 18.576V37.92H228.552V18.576H225.276Z"/><path d="M232.006 37.92V9.84H235.282V37.92H232.006Z"/><path d="M238.948 13.662C239.39 14.078 239.923 14.286 240.547 14.286C241.171 14.286 241.691 14.078 242.107 13.662C242.549 13.22 242.77 12.674 242.77 12.024C242.77 11.4 242.549 10.88 242.107 10.464C241.691 10.048 241.171 9.84 240.547 9.84C239.923 9.84 239.39 10.048 238.948 10.464C238.506 10.88 238.285 11.4 238.285 12.024C238.285 12.674 238.506 13.22 238.948 13.662Z"/><path d="M234.619 43.692V46.5H236.647C238.441 46.5 239.806 46.071 240.742 45.213C241.678 44.355 242.146 42.99 242.146 41.118V18.576H238.87V41.04C238.87 42.002 238.649 42.678 238.207 43.068C237.791 43.484 237.102 43.692 236.14 43.692H234.619Z"/><path d="M272.548 37.92C270.78 37.92 269.389 37.4909 268.375 36.633C267.361 35.775 266.854 34.228 266.854 31.992V21.345H263.5V18.576H266.854L267.283 13.935H270.13V18.576H275.824V21.345H270.13V31.992C270.13 33.214 270.377 34.046 270.871 34.488C271.365 34.9039 272.236 35.1119 273.484 35.1119H275.512V37.92H272.548Z"/><path fill-rule="evenodd" clip-rule="evenodd" d="M254.294 38.388C252.448 38.388 250.81 37.972 249.38 37.1399C247.95 36.282 246.819 35.0989 245.987 33.591C245.181 32.0829 244.778 30.3019 244.778 28.248C244.778 26.22 245.181 24.4519 245.987 22.9439C246.793 21.41 247.911 20.2269 249.341 19.3949C250.797 18.537 252.474 18.1079 254.372 18.1079C256.244 18.1079 257.856 18.537 259.208 19.3949C260.586 20.2269 261.639 21.332 262.367 22.7099C263.095 24.088 263.459 25.5699 263.459 27.1559C263.459 27.1945 263.459 27.233 263.458 27.2715L263.457 27.3652C263.455 27.4488 263.452 27.5324 263.448 27.616L263.441 27.7363L263.434 27.8428C263.43 27.8999 263.425 27.9569 263.42 28.0139V28.989H248.015C248.093 30.4709 248.431 31.7059 249.029 32.6939C249.653 33.656 250.42 34.3839 251.33 34.8779C252.266 35.3719 253.254 35.619 254.294 35.619C255.646 35.619 256.777 35.3069 257.687 34.6829C258.597 34.0589 259.26 33.214 259.676 32.1479H262.913C262.393 33.942 261.392 35.437 259.91 36.6329C258.454 37.8029 256.582 38.388 254.294 38.388ZM254.294 20.877C252.734 20.877 251.343 21.358 250.121 22.3199C248.925 23.256 248.236 24.6339 248.054 26.454H260.222C260.144 24.7119 259.546 23.347 258.428 22.3589C257.31 21.371 255.932 20.877 254.294 20.877Z"/><path fill-rule="evenodd" clip-rule="evenodd" d="M212.511 38.388C210.898 38.388 209.559 38.115 208.493 37.5689C207.428 37.0229 206.635 36.295 206.115 35.3849C205.594 34.4749 205.334 33.487 205.334 32.4209C205.334 30.4449 206.089 28.924 207.597 27.8579C209.104 26.7919 211.159 26.259 213.758 26.259H218.984V26.025C218.984 24.3349 218.542 23.0609 217.658 22.2029C216.775 21.319 215.591 20.877 214.109 20.877C212.835 20.877 211.731 21.202 210.794 21.8519C209.884 22.4759 209.312 23.399 209.078 24.6209H205.724C205.854 23.2169 206.323 22.0339 207.129 21.072C207.96 20.1099 208.987 19.3819 210.209 18.888C211.432 18.368 212.731 18.1079 214.109 18.1079C216.814 18.1079 218.841 18.836 220.193 20.2919C221.572 21.722 222.261 23.633 222.261 26.025V37.92H219.335L219.14 34.4489C218.594 35.541 217.788 36.4769 216.723 37.2569C215.682 38.011 214.278 38.388 212.511 38.388ZM213.017 35.619C214.265 35.619 215.331 35.2939 216.216 34.6439C217.126 33.9939 217.814 33.149 218.282 32.1089C218.75 31.069 218.984 29.9769 218.984 28.833V28.794H214.031C212.108 28.794 210.742 29.1319 209.936 29.8079C209.156 30.4579 208.766 31.277 208.766 32.2649C208.766 33.279 209.13 34.0979 209.858 34.7219C210.612 35.3199 211.666 35.619 213.017 35.619Z"/><path d="M175.5 10.6199V37.92H178.776V16.509L187.902 34.0199H190.359L199.485 16.47V37.92H202.761V10.6199H198.9L189.15 29.6519L179.322 10.6199H175.5Z"/><path d="M94.6284 15.4441C95.2322 15.9725 95.987 16.2367 96.8928 16.2367C97.8237 16.2367 98.5785 15.9725 99.1573 15.4441C99.7612 14.8906 100.063 14.1986 100.063 13.3683C100.063 12.5381 99.7612 11.8586 99.1573 11.3303C98.5785 10.7768 97.8237 10.5 96.8928 10.5C95.987 10.5 95.2322 10.7768 94.6284 11.3303C94.0496 11.8586 93.7603 12.5381 93.7603 13.3683C93.7603 14.1986 94.0496 14.8906 94.6284 15.4441Z"/><path d="M94.3264 18.8408V37.8625H99.4215V18.8408H94.3264Z"/><path d="M144.854 37.8625V10.689H149.949V21.6716C150.578 20.6904 151.409 19.8978 152.441 19.2939C153.497 18.6901 154.718 18.3882 156.101 18.3882C157.686 18.3882 159.02 18.7278 160.101 19.4072C161.184 20.0614 162.002 21.0175 162.555 22.2755C163.109 23.5335 163.385 25.0935 163.385 26.9555V37.8625H158.328V27.4083C158.328 25.8987 158.013 24.7413 157.385 23.9361C156.755 23.1058 155.762 22.6907 154.403 22.6907C153.571 22.6907 152.817 22.8919 152.138 23.2945C151.458 23.6971 150.918 24.2884 150.515 25.0683C150.138 25.8231 149.949 26.729 149.949 27.7857V37.8625H144.854Z"/><path d="M127.983 37.032C129.467 37.8875 131.166 38.3151 133.078 38.3151C135.493 38.3151 137.531 37.6736 139.192 36.3903C140.878 35.082 141.947 33.3333 142.4 31.1443H137.003C136.852 31.7483 136.588 32.2639 136.21 32.6917C135.833 33.0944 135.367 33.4088 134.814 33.6353C134.286 33.8618 133.694 33.9749 133.04 33.9749C132.386 33.9749 131.769 33.8492 131.191 33.5975C130.637 33.3459 130.159 32.9811 129.757 32.5031C129.354 31.9998 129.04 31.4085 128.813 30.7291C128.587 30.0246 128.473 29.2321 128.473 28.3515C128.473 27.1941 128.662 26.2002 129.04 25.37C129.442 24.5144 129.983 23.8728 130.662 23.4451C131.367 22.9922 132.159 22.7658 133.04 22.7658C134.021 22.7658 134.864 23.0174 135.569 23.5206C136.298 24.0238 136.776 24.7158 137.003 25.5963H142.4C141.947 23.357 140.89 21.5958 139.23 20.3126C137.569 19.0294 135.518 18.3878 133.078 18.3878C131.166 18.3878 129.467 18.8281 127.983 19.7087C126.498 20.5642 125.341 21.7468 124.511 23.2564C123.68 24.7409 123.265 26.4643 123.265 28.4269C123.265 30.3391 123.68 32.0376 124.511 33.522C125.341 35.0066 126.498 36.1765 127.983 37.032Z"/><path d="M102.407 18.8407V37.8623H107.502V27.71C107.502 26.653 107.691 25.7599 108.068 25.0302C108.446 24.2755 108.962 23.6968 109.616 23.2941C110.295 22.8916 111.062 22.6903 111.918 22.6903C113.251 22.6903 114.233 23.0929 114.862 23.898C115.516 24.7031 115.843 25.8606 115.843 27.3702V37.8623H120.901V26.8795C120.901 25.0428 120.611 23.4955 120.032 22.2374C119.479 20.9794 118.661 20.0232 117.579 19.3691C116.497 18.7149 115.164 18.3878 113.579 18.3878C112.094 18.3878 110.811 18.7149 109.729 19.3691C108.672 20.0232 107.854 20.8787 107.276 21.9355L106.898 18.8407H102.407Z"/><path d="M82.0014 38.3153C80.0892 38.3153 78.3783 37.9883 76.8686 37.3341C75.3842 36.6798 74.2015 35.7237 73.3209 34.4657C72.4655 33.2077 72.0253 31.6854 72 29.8991H77.397C77.4221 30.679 77.6235 31.3836 78.0009 32.0126C78.3783 32.6415 78.8939 33.1447 79.5483 33.5221C80.2277 33.8745 81.0328 34.0507 81.9637 34.0507C82.7688 34.0507 83.4608 33.9248 84.0394 33.6732C84.6434 33.3964 85.1089 33.019 85.4357 32.5409C85.7629 32.0628 85.9265 31.4967 85.9265 30.8426C85.9265 30.0878 85.7377 29.4588 85.3603 28.9556C85.0082 28.4523 84.5048 28.0245 83.8508 27.6723C83.2216 27.3201 82.4795 27.0056 81.624 26.7288C80.7938 26.4269 79.9131 26.1123 78.982 25.7853C76.8937 25.106 75.2961 24.2001 74.189 23.0679C73.1071 21.9357 72.5662 20.4386 72.5662 18.5767C72.5662 16.9915 72.9435 15.6329 73.6983 14.5007C74.4783 13.3684 75.5477 12.5003 76.9063 11.8965C78.2651 11.2927 79.8124 10.9907 81.5486 10.9907C83.335 10.9907 84.8948 11.3052 86.2284 11.9343C87.587 12.5381 88.6564 13.4187 89.4364 14.5761C90.2415 15.7335 90.6566 17.0923 90.6819 18.6522H85.2471C85.222 18.0735 85.0457 17.5325 84.7189 17.0293C84.4169 16.5009 83.989 16.0858 83.4355 15.7839C82.882 15.4568 82.2279 15.2932 81.4731 15.2932C80.8187 15.2681 80.215 15.3687 79.6613 15.5952C79.1331 15.8216 78.7053 16.1613 78.3783 16.6142C78.0764 17.0419 77.9253 17.5829 77.9253 18.237C77.9253 18.8661 78.0764 19.3944 78.3783 19.8222C78.7053 20.2499 79.1457 20.6273 79.6992 20.9544C80.2527 21.2563 80.9068 21.5457 81.6617 21.8224C82.4167 22.074 83.2343 22.3382 84.115 22.615C85.4233 23.0679 86.631 23.6089 87.7379 24.2379C88.8452 24.8417 89.7257 25.6343 90.3799 26.6156C91.0342 27.5968 91.3612 28.8926 91.3612 30.503C91.3612 31.8867 90.9965 33.1699 90.2668 34.3526C89.5371 35.535 88.4804 36.4911 87.0965 37.2209C85.7377 37.9504 84.0394 38.3153 82.0014 38.3153Z"/></svg>