<svg class="sinch-icon" viewBox="0 0 267 48" fill="currentColor" xmlns="http://www.w3.org/2000/svg"><path fill-rule="evenodd" clip-rule="evenodd" d="M24.0092 0C30.4258 0 36.4516 2.49691 40.9883 7.0309L41.0031 7.04079C45.5398 11.5748 48.0381 17.602 48.0381 24.0099C48.0381 24.4697 48.0233 24.9197 47.9986 25.3745C47.6671 31.2732 45.2132 36.7713 41.0031 40.979C40.3896 41.5921 39.7514 42.1656 39.0836 42.7046L35.4176 39.0408C35.4226 39.0358 35.4226 39.0359 35.4226 39.0359L35.3632 38.9765C32.2662 35.8813 28.2144 34.3189 24.1477 34.2892H23.8855C21.5652 34.309 19.2449 34.8282 17.1077 35.8467C15.5196 34.9122 14.1294 33.6712 13.0312 32.2027C14.0354 31.5896 15.0843 31.0705 16.1677 30.6354C14.6489 28.8455 13.7337 26.5315 13.7337 24.0049C13.7337 18.3337 18.3495 13.7206 24.024 13.7206C29.6986 13.7206 34.3144 18.3337 34.3144 24.0049C34.3144 26.5266 33.3991 28.8455 31.8803 30.6354C34.5123 31.6885 36.9315 33.2707 38.9995 35.3375L39.0588 35.3968C41.4731 32.2225 42.8138 28.3906 42.8831 24.3461V24.0049C42.8831 18.9716 40.919 14.2349 37.357 10.6749C33.7949 7.11496 29.0554 5.15204 24.0191 5.15204C18.9827 5.15204 14.2432 7.11496 10.6812 10.6749C7.11914 14.2349 5.15507 18.9716 5.15507 24.0049C5.15507 29.0383 7.11914 33.775 10.6812 37.335C14.2432 40.8949 18.9778 42.8578 24.0191 42.8578C26.3146 42.8578 28.5458 42.4524 30.6336 41.6712C31.0096 41.958 31.3707 42.2744 31.7171 42.6205L34.636 45.5377C31.3707 47.1496 27.7592 48 24.0141 48C17.5975 48 11.5717 45.5031 7.03504 40.9691C2.49838 36.4351 0 30.4079 0 24C0 17.5921 2.49343 11.5649 7.03009 7.0309C11.5668 2.49691 17.5925 0 24.0092 0ZM24.0092 18.8578C21.1744 18.8578 18.864 21.1669 18.864 24V24.0049C18.864 26.7441 21.021 28.9889 23.7272 29.1372H24.2763C26.9924 28.9938 29.1544 26.8331 29.1544 24C29.1544 21.1669 26.844 18.8578 24.0092 18.8578Z" fill="black"/><path d="M63.4835 11.7627C64.0277 12.005 64.656 12.1286 65.3684 12.1286H65.3833C66.1204 12.1286 66.7438 11.9951 67.2534 11.733C67.758 11.471 68.1439 11.1249 68.4011 10.6898C68.6584 10.2547 68.787 9.78494 68.787 9.27567C68.787 8.70212 68.6683 8.23735 68.4259 7.87146C68.1884 7.50558 67.8668 7.21386 67.471 6.99137C67.0753 6.76887 66.6349 6.57604 66.1551 6.40793C65.6999 6.2596 65.2992 6.12116 64.9479 5.9926C64.5967 5.86405 64.3196 5.70088 64.1168 5.513C63.9139 5.32511 63.81 5.068 63.81 4.74662C63.81 4.3659 63.9436 4.07913 64.2058 3.88135C64.468 3.68358 64.7946 3.58964 65.1804 3.59952C65.6306 3.59952 65.9869 3.73302 66.2392 3.99507C66.4964 4.25713 66.6251 4.55873 66.6349 4.8999H68.5347C68.5149 4.32635 68.3665 3.83191 68.0845 3.41658C67.8025 3.00125 67.4166 2.67987 66.9219 2.44748C66.4272 2.2151 65.8483 2.10138 65.2101 2.10138C64.5719 2.10138 64.0079 2.2151 63.5182 2.44254C63.0284 2.66998 62.6425 2.98642 62.3605 3.3968C62.0785 3.80719 61.94 4.29668 61.9499 4.87023C61.9499 5.54761 62.1478 6.08655 62.5386 6.49198C62.9294 6.90237 63.5033 7.23364 64.2504 7.49075C64.6453 7.62655 65.0219 7.75506 65.3773 7.87629L65.5515 7.93574C65.9572 8.07418 66.2837 8.25218 66.5261 8.47468C66.7685 8.69718 66.8922 9.02845 66.8922 9.40422C66.8922 9.77999 66.7537 10.0816 66.4766 10.309C66.1996 10.5365 65.8236 10.6502 65.3536 10.6502C64.8094 10.6502 64.379 10.492 64.0723 10.1854C63.7655 9.87888 63.6023 9.49816 63.5825 9.04328H61.7124C61.7223 9.69594 61.8856 10.2547 62.1972 10.7095C62.5089 11.1694 62.9393 11.5204 63.4835 11.7627Z" fill="black"/><path d="M73.0961 2.27443V11.9654H74.8672V2.27443H73.0961Z" fill="black"/><path d="M79.5226 11.9654V2.27443H81.2938L85.8502 9.09767V2.27443H87.6213V11.9654H85.8502L81.2938 5.15206V11.9654H79.5226Z" fill="black"/><path d="M94.1518 11.5006C94.8543 11.9209 95.6953 12.1286 96.6749 12.1286V12.1236C97.8375 12.1236 98.7923 11.8418 99.5344 11.2781C100.276 10.7145 100.742 9.93821 100.925 8.93945H98.9704C98.8517 9.43883 98.5944 9.82944 98.2036 10.1113C97.8127 10.3931 97.2933 10.5315 96.6452 10.5315C95.7497 10.5315 95.0472 10.2299 94.5376 9.62672C94.0281 9.0235 93.7758 8.19285 93.7758 7.12981C93.7758 6.06677 94.0281 5.23117 94.5376 4.62301C95.0472 4.01485 95.7497 3.7083 96.6452 3.7083C97.2933 3.7083 97.8127 3.85663 98.2036 4.15824C98.5944 4.45985 98.8517 4.87517 98.9704 5.39928H100.925C100.742 4.35601 100.276 3.55008 99.5344 2.97159C98.7923 2.3931 97.8375 2.10632 96.6749 2.10632C95.6953 2.10632 94.8543 2.31893 94.1518 2.74415C93.4492 3.16442 92.905 3.75774 92.529 4.51423C92.1481 5.27072 91.9601 6.14093 91.9601 7.12981C91.9601 8.11868 92.1481 8.98889 92.529 9.74044C92.91 10.4969 93.4492 11.0804 94.1518 11.5006Z" fill="black"/><path d="M105.263 11.9654V2.27443H107.034V6.3041H111.383V2.27443H113.154V11.9654H111.383V7.74291H107.034V11.9654H105.263Z" fill="black"/><path d="M74.3725 46.1607C71.5773 46.1607 69.1729 45.5624 67.1692 44.3609C65.1656 43.1595 63.622 41.4883 62.5386 39.3375C61.4551 37.1866 60.9159 34.7046 60.9159 31.8813C60.9159 29.0581 61.4551 26.5661 62.5386 24.4054C63.622 22.2447 65.1656 20.5538 67.1692 19.3424C69.1729 18.131 71.5773 17.5229 74.3725 17.5229C77.6971 17.5229 80.423 18.3486 82.5454 19.9951C84.6678 21.6415 85.9937 23.9555 86.523 26.937H80.9425C80.6011 25.4339 79.8689 24.2522 78.7459 23.3968C77.6228 22.5414 76.1387 22.1112 74.2933 22.1112C71.7356 22.1112 69.727 22.9815 68.2774 24.7219C66.8279 26.4623 66.1006 28.8504 66.1006 31.8813C66.1006 34.9122 66.8279 37.2954 68.2774 39.021C69.727 40.7466 71.7356 41.6119 74.2933 41.6119C76.1387 41.6119 77.6228 41.2114 78.7459 40.4054C79.8689 39.5995 80.6011 38.487 80.9425 37.063H86.523C85.9937 39.911 84.6678 42.1409 82.5454 43.7478C80.423 45.3548 77.6971 46.1607 74.3725 46.1607Z" fill="black"/><path fill-rule="evenodd" clip-rule="evenodd" d="M98.3173 46.1607C96.4176 46.1607 94.7108 45.7256 93.192 44.8554C91.6731 43.9852 90.4759 42.7787 89.5903 41.2361C88.7048 39.6934 88.2645 37.9085 88.2645 35.8764C88.2645 33.8442 88.7147 32.0593 89.6101 30.5167C90.5056 28.974 91.7127 27.7676 93.2315 26.8974C94.7504 26.0272 96.4572 25.5921 98.3569 25.5921C100.257 25.5921 101.924 26.0272 103.443 26.8974C104.962 27.7676 106.159 28.974 107.044 30.5167C107.93 32.0593 108.37 33.8442 108.37 35.8764C108.37 37.9085 107.93 39.6934 107.044 41.2361C106.159 42.7787 104.952 43.9852 103.423 44.8554C101.894 45.7256 100.192 46.1607 98.3173 46.1607ZM98.3173 41.7701C99.6383 41.7701 100.786 41.2756 101.761 40.2868C102.735 39.2979 103.225 37.8294 103.225 35.8764C103.225 33.9234 102.735 32.4549 101.761 31.466C100.786 30.4771 99.6482 29.9827 98.3569 29.9827C97.0657 29.9827 95.8585 30.4771 94.8938 31.466C93.9291 32.4549 93.4492 33.9234 93.4492 35.8764C93.4492 37.8294 93.9291 39.2979 94.8938 40.2868C95.8585 41.2756 96.9964 41.7701 98.3173 41.7701Z" fill="black"/><path d="M110.903 26.0667V45.686H115.969V35.5599C115.969 33.7651 116.424 32.3708 117.335 31.3671C118.245 30.3634 119.388 29.864 120.837 29.864C122.287 29.864 123.356 30.314 124.043 31.2089C124.731 32.1038 125.072 33.3993 125.072 35.0853V45.686H130.138V34.6106C130.138 31.6588 129.465 29.4141 128.12 27.8863C126.774 26.3585 124.889 25.5921 122.46 25.5921C120.902 25.5921 119.551 25.9332 118.403 26.6205C117.256 27.3078 116.38 28.2274 115.771 29.3894L115.376 26.0667H110.903Z" fill="black"/><path d="M141.735 45.686C139.677 45.686 138.029 45.1867 136.787 44.1829C135.546 43.1792 134.927 41.3993 134.927 38.843V30.2991H131.563V26.0667H134.927L135.521 20.8059H139.993V26.0667H145.297V30.2991H139.993V38.8826C139.993 39.8319 140.196 40.4845 140.607 40.8405C141.017 41.1965 141.72 41.3745 142.724 41.3745H145.178V45.686H141.735Z" fill="black"/><path fill-rule="evenodd" clip-rule="evenodd" d="M150.284 45.3498C151.367 45.8888 152.752 46.1607 154.439 46.1607C156.077 46.1607 157.413 45.8195 158.457 45.1323C159.5 44.445 160.312 43.5748 160.891 42.5216L161.366 45.686H165.68V33.6218C165.68 31.0655 164.873 29.0878 163.265 27.6885C161.657 26.2892 159.451 25.5921 156.656 25.5921C155.018 25.5921 153.544 25.8739 152.223 26.4425C150.902 27.0111 149.828 27.822 148.997 28.8752C148.166 29.9283 147.686 31.1693 147.553 32.5933H152.5C152.683 31.644 153.158 30.9271 153.925 30.4376C154.692 29.9481 155.587 29.7058 156.616 29.7058C157.749 29.7058 158.699 30.0222 159.466 30.6551C160.233 31.288 160.614 32.2769 160.614 33.6218V34.0964H155.627C152.777 34.0964 150.64 34.665 149.215 35.7973C147.79 36.9295 147.078 38.4079 147.078 40.2274C147.078 41.3103 147.34 42.2991 147.869 43.1941C148.399 44.089 149.2 44.8109 150.284 45.3498ZM158.971 40.7812C158.165 41.7305 157.037 42.2052 155.587 42.2052C154.637 42.2052 153.87 41.9926 153.292 41.5723C152.713 41.152 152.421 40.5587 152.421 39.7923C152.421 39.0803 152.713 38.4821 153.292 37.9926C153.87 37.5031 154.835 37.2608 156.181 37.2608H160.495C160.282 38.6601 159.777 39.8319 158.971 40.7812Z" fill="black"/><path d="M178.147 46.1607C176.143 46.1607 174.372 45.7256 172.843 44.8554C171.315 43.9852 170.107 42.7738 169.222 41.2163C168.336 39.6588 167.896 37.8789 167.896 35.8764C167.896 33.8739 168.336 32.0939 169.222 30.5365C170.107 28.979 171.315 27.7676 172.843 26.8974C174.372 26.0272 176.143 25.5921 178.147 25.5921C180.655 25.5921 182.763 26.2447 184.479 27.5501C186.196 28.8554 187.289 30.6551 187.764 32.9493H182.421C182.159 32 181.635 31.2534 180.858 30.7145C180.081 30.1755 179.161 29.9036 178.107 29.9036C176.707 29.9036 175.52 30.4326 174.545 31.4858C173.571 32.5389 173.081 34.0025 173.081 35.8764C173.081 37.7503 173.571 39.2138 174.545 40.267C175.52 41.3201 176.707 41.8492 178.107 41.8492C179.161 41.8492 180.081 41.5871 180.858 41.0581C181.635 40.529 182.159 39.7775 182.421 38.8035H187.764C187.289 41.0185 186.196 42.7985 184.479 44.1434C182.763 45.4883 180.655 46.1607 178.147 46.1607Z" fill="black"/><path d="M193.82 44.1829C195.062 45.1867 196.709 45.686 198.767 45.686H202.21V41.3745H199.757C198.752 41.3745 198.05 41.1965 197.639 40.8405C197.228 40.4845 197.026 39.8319 197.026 38.8826V30.2991H202.329V26.0667H197.026V20.8059H192.553L191.96 26.0667H188.595V30.2991H191.96V38.843C191.96 41.3993 192.578 43.1792 193.82 44.1829Z" fill="black"/><path fill-rule="evenodd" clip-rule="evenodd" d="M212.263 45.686V17.9975H222.514C224.73 17.9975 226.566 18.3684 228.015 19.1051C229.465 19.8418 230.548 20.8603 231.261 22.1508C231.973 23.4413 232.329 24.8949 232.329 26.5019C232.329 28.1088 231.988 29.4339 231.3 30.7145C230.613 31.9951 229.544 33.0235 228.095 33.7997C226.645 34.576 224.785 34.9666 222.514 34.9666H217.329V45.686H212.263ZM217.329 30.8529H222.197C223.964 30.8529 225.24 30.4623 226.017 29.686C226.793 28.9098 227.184 27.8467 227.184 26.5019C227.184 25.157 226.793 24.0544 226.017 23.2781C225.24 22.5019 223.964 22.1112 222.197 22.1112H217.329V30.8529Z" fill="black"/><path d="M234.185 26.0667V45.686H239.251V36.7466C239.251 35.2435 239.493 34.0717 239.983 33.2262C240.473 32.3807 241.15 31.7874 242.021 31.4462C242.892 31.1051 243.881 30.932 244.99 30.932H246.414V25.5921C244.752 25.5921 243.307 25.9679 242.081 26.7194C240.854 27.471 239.884 28.4796 239.172 29.7454L238.697 26.0667H234.185Z" fill="black"/><path fill-rule="evenodd" clip-rule="evenodd" d="M256.947 46.1607C255.047 46.1607 253.341 45.7256 251.822 44.8554C250.303 43.9852 249.106 42.7787 248.22 41.2361C247.335 39.6934 246.894 37.9085 246.894 35.8764C246.894 33.8442 247.344 32.0593 248.24 30.5167C249.135 28.974 250.343 27.7676 251.861 26.8974C253.38 26.0272 255.087 25.5921 256.987 25.5921C258.886 25.5921 260.554 26.0272 262.073 26.8974C263.591 27.7676 264.789 28.974 265.674 30.5167C266.56 32.0593 267 33.8442 267 35.8764C267 37.9085 266.56 39.6934 265.674 41.2361C264.789 42.7787 263.581 43.9852 262.053 44.8554C260.524 45.7256 258.822 46.1607 256.947 46.1607ZM256.947 41.7701C258.268 41.7701 259.416 41.2756 260.39 40.2868C261.365 39.2979 261.855 37.8294 261.855 35.8764C261.855 33.9234 261.365 32.4549 260.39 31.466C259.416 30.4771 258.278 29.9827 256.987 29.9827C255.695 29.9827 254.488 30.4771 253.524 31.466C252.559 32.4549 252.079 33.9234 252.079 35.8764C252.079 37.8294 252.559 39.2979 253.524 40.2868C254.488 41.2756 255.626 41.7701 256.947 41.7701Z" fill="black"/></svg>