<svg class="sinch-icon" viewBox="0 0 49 49" fill="currentColor" xmlns="http://www.w3.org/2000/svg"><path d="M46.4106 16.6402C44.7006 11.8532 42.3717 7.56381 39.8583 4.56179C38.5174 2.96072 37.1548 1.76532 35.814 1.01347C33.5448 -0.257655 31.7262 -0.0467034 30.5971 0.353565C29.8425 0.618608 28.9034 1.14869 28.0782 2.18723L1.01671 24.1912L0.745283 24.7645C0.576996 25.1161 -0.850723 28.3399 0.756139 32.8402C2.363 37.3405 5.51701 38.9416 5.86987 39.1093L6.4453 39.3797H17.6228L26.3194 48.045V40.0883L19.9625 33.7544H7.9273C7.4333 33.3487 6.62444 32.4886 6.07616 30.9525C5.52787 29.4163 5.61473 28.2425 5.73416 27.6151L26.1239 10.9985C26.1239 10.9985 26.1239 11.0256 26.1239 11.0418C26.3031 14.6226 27.1934 18.7767 28.6808 22.9309C30.1682 27.085 32.1117 30.8659 34.2451 33.7544H26.3248V39.3797H41.3783C41.8451 39.4825 42.2794 39.5258 42.6811 39.5258C43.3977 39.5258 44.0111 39.3906 44.4943 39.2175C45.6234 38.8172 47.1651 37.8328 48.1206 35.4203C48.6851 33.9923 48.9783 32.2128 49 30.1249C49 30.0383 49 29.9518 49 29.8653C49 26.0032 48.088 21.3244 46.4106 16.6402ZM34.0008 21.0431C32.6328 17.2135 31.8294 13.3785 31.7479 10.2413C31.6828 7.9208 32.0248 6.62263 32.3071 6.01682C32.3777 5.85996 32.4482 5.75178 32.5025 5.68146C32.546 5.69228 32.6002 5.70851 32.66 5.72473C33.1974 5.91946 34.3754 6.6605 35.9823 8.73216C36.9431 9.97083 37.8768 11.4637 38.7454 13.1243C39.6085 14.7849 40.4065 16.6077 41.0905 18.5225C42.4586 22.3521 43.262 26.1871 43.3434 29.3243C43.414 31.9423 42.9688 33.2621 42.6757 33.7489C42.6431 33.803 42.6106 33.8517 42.5834 33.8842C42.4966 33.8679 42.3717 33.8247 42.2197 33.7489C41.6171 33.4568 40.526 32.6671 39.1037 30.8281C37.182 28.3453 35.3688 24.8673 33.9954 21.0377L34.0008 21.0431Z" fill="black"/></svg>