<svg xmlns="http://www.w3.org/2000/svg" viewBox="0 0 48 48" aria-hidden="true"><path d="M23.563 4.173a1 1 0 0 1 .264 1.39l-9.195 13.505 5.45 3.773 5.358-2.679 11.404-9.917a1 1 0 1 1 1.312 1.51l-10.82 9.409 6.13 8.757c.207-.026.454-.052.723-.071.731-.052 1.766-.067 2.609.195 1.854.578 3.535 1.77 4.122 3.55.049.147.073.346.084.437l.001.01a17.905 17.905 0 0 1 .105 1.209c.01.39-.019.715-.058 1.164-.016.183-.034.386-.052.622V37a1 1 0 0 0-1-1h-.92c.025-.288.037-.453.03-.696v-.01a4.389 4.389 0 0 0-.014-.201 25.874 25.874 0 0 0-.076-.808 3.638 3.638 0 0 0-.014-.108c-.324-.914-1.306-1.755-2.804-2.222-.462-.144-1.177-.16-1.87-.11a12.335 12.335 0 0 0-1.072.125l-.029.005-.033.005h-.001l-4.48.996a1 1 0 0 1-1.01-.366l-5.06-6.578 1.835-.895 4.422 5.749 2.42-.538-5.649-8.068-4.446 2.224-.481.234.002.005-.303.151a1 1 0 0 1-1.016-.072l-5.925-4.101-3.102 4.557-.868-.55a1 1 0 0 0-1.362.28l-1.94 2.84 15.94-23.41a1 1 0 0 1 1.389-.264Z"/><path fill-rule="evenodd" clip-rule="evenodd" d="M8.174 25.007a1 1 0 0 1 1.362-.28L27.291 36H40a1 1 0 0 1 1 1v4a1 1 0 0 1-1 1H27a1 1 0 0 1-.53-.152l-20-12.5a1 1 0 0 1-.296-1.412l2-2.929Zm1.106 1.927-.867 1.27L27.287 40H39v-2H27a1 1 0 0 1-.536-.156L9.28 26.934Z" class="accent"/></svg>