<svg xmlns="http://www.w3.org/2000/svg" viewBox="0 0 48 48" aria-hidden="true"><path fill-rule="evenodd" clip-rule="evenodd" d="M4 30a1 1 0 1 0 0 2h26.897c.447 0 1.235.32 1.95 1.025C33.54 33.705 34 34.59 34 35.5c0 2.064-1.323 3.5-3.103 3.5H18.138a.998.998 0 0 1 0-1.997h10.48a1 1 0 1 0 0-2h-10.48a2.998 2.998 0 0 0 0 5.997h12.76c2.274 0 3.956-1.378 4.692-3.271a4.5 4.5 0 1 0-.066-4.338A6.17 6.17 0 0 0 34.25 31.6c-.935-.921-2.199-1.6-3.353-1.6H4Zm38 5.5a2.5 2.5 0 1 1-5 0 2.5 2.5 0 0 1 5 0Z"/><path fill-rule="evenodd" clip-rule="evenodd" d="M20.5 18a4.5 4.5 0 1 0-3.593-1.79.866.866 0 0 0-.107.095L3.281 30.274a.997.997 0 0 0-.28.71A1 1 0 0 1 4 30h2.33l11.244-11.62 10.348 9.107c.077.067.118.12.14.157.255.44.278.71.203 1.024-.014.06-.053.13-.167.201a.983.983 0 0 1-.506.131h-.881a1 1 0 0 1-.631-.224l-4.905-3.99a1.051 1.051 0 0 0-.064-.048l-1.544-1.062a1 1 0 1 0-1.134 1.648l.61.419L15.24 30h2.681l2.732-3.06L24.415 30h5.382c.187-.24.332-.528.413-.867.214-.893.05-1.685-.42-2.494a2.648 2.648 0 0 0-.546-.653l-9.09-8c.114.01.23.014.346.014Zm0-2a2.5 2.5 0 1 0 0-5 2.5 2.5 0 0 0 0 5Z" class="accent"/></svg>