<svg xmlns="http://www.w3.org/2000/svg" viewBox="0 0 48 48" aria-hidden="true"><path fill-rule="evenodd" clip-rule="evenodd" d="M37.553 12.008a.583.583 0 0 0-.383.067.51.51 0 0 0-.23.267 1 1 0 1 1-1.88-.681 2.51 2.51 0 0 1 1.118-1.323 2.583 2.583 0 0 1 1.704-.303 2.555 2.555 0 0 1 1.51.844c.391.45.609 1.025.608 1.623 0 .483-.178.931-.352 1.269a6.458 6.458 0 0 1-.628.965 10.259 10.259 0 0 1-.842.957l-.017.016-.005.005-.003.003a1 1 0 0 1-1.394-1.434h.001l.009-.01a6.554 6.554 0 0 0 .195-.203c.13-.14.303-.336.473-.556.172-.223.326-.451.433-.659.053-.102.087-.188.108-.255a.49.49 0 0 0 .022-.099V12.5c0-.11-.04-.22-.118-.311a.555.555 0 0 0-.329-.181ZM36.571 18a1 1 0 0 1 1-1h.01a1 1 0 1 1 0 2h-.01a1 1 0 0 1-1-1Z" class="accent"/><path d="M37.5 6a8.49 8.49 0 0 0-8.5 8.5 8.49 8.49 0 0 0 8.5 8.5 8.49 8.49 0 0 0 8.5-8.5C45.91 9.707 42.112 6 37.5 6Zm0 15.101a6.676 6.676 0 0 1-6.692-6.691A6.676 6.676 0 0 1 37.5 7.718a6.676 6.676 0 0 1 6.691 6.692c-.09 3.707-3.074 6.6-6.691 6.691Z" class="accent"/><path d="M29.129 13.016a8.59 8.59 0 0 0-.115 1.982.99.99 0 0 1-.062.002H12a1 1 0 0 0-1 1v16a1 1 0 0 0 1 1h4v5l7.43-4.99H36a1 1 0 0 0 1-1V25h2v7a3 3 0 0 1-3 3H23.95l-8.407 5.441L14 41.5V35h-2a3 3 0 0 1-3-3V16a3 3 0 0 1 3-3h16.952a1 1 0 0 1 .177.016Z"/></svg>