<svg xmlns="http://www.w3.org/2000/svg" viewBox="0 0 48 48" aria-hidden="true"><path d="M19.1 31.3h-1.6l-2.2 3.6-2.2-3.6h-1.6V39H13v-5l2.2 3.6h.2l2.2-3.6v5h1.5v-7.7Zm9.7 0h-1.6L25 34.9l-2.2-3.6h-1.6V39h1.5v-5l2.2 3.6h.2l2.2-3.6v5h1.5v-7.7Zm5 7.9c1.6 0 2.8-.9 2.8-2.3 0-1.6-1.3-2-2.5-2.4-1.2-.4-1.5-.6-1.5-1.1 0-.4.4-.8 1-.8.8 0 1.2.4 1.5 1l1.3-.7c-.5-1.1-1.5-1.7-2.8-1.7-1.3 0-2.6.8-2.6 2.3 0 1.5 1.1 2 2.3 2.3 1.1.3 1.7.6 1.7 1.1 0 .4-.3.8-1.2.8-1 0-1.5-.5-1.8-1.2l-1.3.8c.4 1.1 1.5 1.9 3.1 1.9Z"/><path class="accent" d="M17.2 17.8a1 1 0 1 0 0-2 1 1 0 0 0 0 2Zm3.3 0a1 1 0 1 0 0-2 1 1 0 0 0 0 2ZM34 11.1a1 1 0 1 0 0-2 1 1 0 0 0 0 2Zm-9.8 4.1c-.1 0-.2 0-.3-.1-.3-.2-.4-.6-.3-.9l2.7-4.7c.1-.2.3-.3.6-.3.2 0 .5.1.6.3l1.6 2.6 1.4-1.4c.3-.3.7-.3 1 0l3.4 3.4c.3.3.3.7 0 1-.3.3-.7.3-1 0l-2.9-3-1.5 1.5c-.1.1-.4.2-.6.2-.2 0-.4-.1-.5-.3L27 11.1l-2.1 3.7c-.2.2-.4.4-.7.4Z"/><path d="M20.9 16.5c0 1.1.9 2 2 2h4.8l1.3.7 5.4 3.1v-3.8h1.4c1.1 0 2-.9 2-2V7.7c0-1.1-.9-2-2-2H22.9c-1.1 0-2 .9-2 2v8.8Zm0-6.1h-6.8c-1.1 0-2 .9-2 2v8.8c0 1.1.9 2 2 2h1.4V27l6.7-3.8H27c1.1 0 2-.9 2-2v-.4l-1.4-.8v1.1c0 .4-.3.7-.7.7h-5.1l-5 3v-2.9h-2.7c-.4 0-.7-.3-.7-.7v-8.8c0-.4.3-.7.7-.7h6.8m15.5 4.8c0 .4-.3.7-.7.7H33v2.9l-4-2.4-1-.5h-5.1c-.4 0-.7-.3-.7-.7V7.7c0-.4.3-.7.7-.7h12.8c.4 0 .7.3.7.7v8.8Z"/></svg>