<svg xmlns="http://www.w3.org/2000/svg" viewBox="0 0 48 48" aria-hidden="true"><path d="M28 12h-8a1 1 0 0 1 0-2h8a1 1 0 0 1 0 2Z" class="accent"/><path d="M25.5 36.5a1.5 1.5 0 1 1-3 0 1.5 1.5 0 0 1 3 0Z"/><path fill-rule="evenodd" clip-rule="evenodd" d="M35 9.46v29.08A3.46 3.46 0 0 1 31.54 42H16.46A3.46 3.46 0 0 1 13 38.54V9.46A3.46 3.46 0 0 1 16.46 6h15.08A3.46 3.46 0 0 1 35 9.46Zm-2.428 30.112A1.46 1.46 0 0 0 33 38.54V9.46A1.46 1.46 0 0 0 31.54 8H16.46A1.46 1.46 0 0 0 15 9.46v29.08A1.46 1.46 0 0 0 16.46 40h15.08a1.46 1.46 0 0 0 1.032-.428Z"/></svg>