<svg xmlns="http://www.w3.org/2000/svg" viewBox="0 0 48 48" aria-hidden="true"><path fill-rule="evenodd" clip-rule="evenodd" d="M27.453 5.355a1 1 0 0 1 1.403-.102L42.38 17.162a1 1 0 0 1 .095 1.426L21.238 42.624a1 1 0 0 1-1.409.081L6.333 30.812c-.411-.365-.404-1.046-.043-1.46L27.453 5.355Zm.855 2.061L8.402 29.974l12.01 10.574 19.891-22.531-11.995-10.6Z"/><path d="M29.017 10.726a1 1 0 0 1 .089 1.411l-1.984 2.251a1 1 0 0 1-1.5-1.322l1.983-2.251a1 1 0 0 1 1.412-.09Zm-6.382 22.367a1 1 0 0 1 .09 1.411l-1.984 2.25a1 1 0 0 1-1.5-1.321l1.983-2.251a1 1 0 0 1 1.411-.09Zm-2.718-11.539.932.827a2.594 2.594 0 0 0-.343 1.225c-.008.345.054.683.183.995.13.312.322.59.567.818 1.077.957 2.285.517 3.384-.198l.081-.053c.826-.543 1.254-.825 1.571-.543.198.175.236.517-.248 1.061a1.662 1.662 0 0 1-1.083.602.977.977 0 0 0-.595.25c-.166.15-.33.409-.367.626a.991.991 0 0 0 .018.438.935.935 0 0 0 .556.622.96.96 0 0 0 .429.062 3.697 3.697 0 0 0 1.718-.687l.952.846a.745.745 0 0 0 .624.163c.239-.039.472-.172.648-.37.176-.199.281-.446.292-.687a.745.745 0 0 0-.236-.6l-.966-.86c.618-1.09.563-2.175-.386-3.019-1.2-1.066-2.406-.368-3.493.32-.95.617-1.332.663-1.537.48-.204-.18-.001-.574.21-.812.18-.201.683-.597.683-.597s.315-.19.472-.333a.998.998 0 0 0 .305-.54.949.949 0 0 0 .02-.45.87.87 0 0 0-.545-.65.909.909 0 0 0-.44-.053 3.48 3.48 0 0 0-1.19.41l-.887-.788a.745.745 0 0 0-.624-.163 1.127 1.127 0 0 0-.648.37 1.127 1.127 0 0 0-.292.687.745.745 0 0 0 .235.6Z" class="accent"/></svg>