<svg xmlns="http://www.w3.org/2000/svg" viewBox="0 0 48 48" aria-hidden="true"><path fill-rule="evenodd" clip-rule="evenodd" d="M9.29 8.318a.933.933 0 0 1 1.404 0l30.015 32.83a1.158 1.158 0 0 1 0 1.534.933.933 0 0 1-1.403 0L9.291 9.852a1.159 1.159 0 0 1 0-1.534Z" class="accent"/><path d="M27.98 24.143a5.69 5.69 0 0 0 .02-.486V12.343c0-.834-.176-1.754-.727-2.343C26.72 9.41 25.78 9 25 9s-1.721.41-2.273 1c-.551.59-.727 1.166-.727 2v5.603l-2-2.188v-3.072c0-1.417.527-2.776 1.465-3.778C22.402 7.563 23.674 7 25 7s2.598.563 3.535 1.565C29.473 9.567 30 10.925 30 12.343v11.314c0 .769-.155 1.52-.447 2.207l-1.574-1.721ZM22.727 26c.544.581 1.467.989 2.241 1l1.587 1.735A4.708 4.708 0 0 1 25 29c-1.326 0-2.598-.563-3.535-1.565-.938-1.002-1.465-2.36-1.465-3.778v-2.09l2.016 2.204c.055.787.254 1.74.711 2.229Z"/><path d="M25 31c1.108 0 2.209-.11 3.221-.442l1.412 1.544c-1.125.504-2.358.761-3.633.898v3.579c.002.133.005.382 0 .421h4c.552 0 1 .341 1 .931 0 .59-.448 1.069-1 1.069H20c-.552 0-1-.478-1-1.069 0-.59.448-.931 1-.931h4c-.005-.04-.002-.32 0-.465V33c-2.285-.245-4.433-.876-6.071-2.626C16.054 28.369 15 25.65 15 22.817v-2.748c0-.59.448-1.069 1-1.069s1 .41 1 1v2.748c0 2.268.785 4.649 2.286 6.252 1.499 1.602 3.594 1.998 5.714 2Zm7.837-1.545C34.23 27.576 35 25.24 35 22.817v-2.748c0-.59-.448-1.069-1-1.069s-1 .41-1 1v2.748c0 1.831-.512 3.736-1.5 5.246l1.337 1.461Z"/></svg>