<svg xmlns="http://www.w3.org/2000/svg" viewBox="0 0 48 48" aria-hidden="true"><path d="M13.293 15.293A1 1 0 0 0 14 17h14a1 1 0 0 0 0-2H14a1 1 0 0 0-.707.293Zm10 6A1 1 0 0 1 24 21h4a1 1 0 0 1 0 2h-4a1 1 0 0 1-.707-1.707ZM23 27.868a1 1 0 0 1 1-1h4a1 1 0 1 1 0 2h-4a1 1 0 0 1-1-1Z" class="accent"/><path fill-rule="evenodd" clip-rule="evenodd" d="M13.306 21.306c.196-.196.462-.306.74-.306H20c.277 0 .498.064.694.26.196.197.306.463.306.74v5.778c0 .278-.11.674-.306.87-.196.196-.585.352-.863.352h-5.785c-.278 0-.544-.11-.74-.306C13.11 28.498 13 28.277 13 28v-5.954c0-.278.11-.544.306-.74ZM15 23v4h4v-4h-4Z" class="accent"/><path fill-rule="evenodd" clip-rule="evenodd" d="M9.172 10.217A4.236 4.236 0 0 0 8 13.154v17.654c0 1.377.527 2.697 1.464 3.671A4.908 4.908 0 0 0 13 36h22a4.907 4.907 0 0 0 3.535-1.52A5.295 5.295 0 0 0 40 30.807V19.385a4.236 4.236 0 0 0-1.172-2.938A3.926 3.926 0 0 0 36 15.231v-2.077a4.236 4.236 0 0 0-1.172-2.937A3.926 3.926 0 0 0 32 9H12c-1.06 0-2.078.438-2.828 1.217Zm24.242 1.468c.375.39.586.918.586 1.469v17.654c0 .104.016.25.046.402L36 30.038v-12.73c.53 0 1.04.218 1.414.608.375.39.586.918.586 1.469v11.423c0 .826-.316 1.618-.879 2.203-.562.584-1.325.989-2.121.989H13c-.796 0-1.559-.405-2.121-.99A3.177 3.177 0 0 1 10 30.809V13.154c0-.551.21-1.08.586-1.469.375-.39.884-.608 1.414-.608h20c.53 0 1.04.219 1.414.608Z"/></svg>