<svg xmlns="http://www.w3.org/2000/svg" viewBox="0 0 48 48" aria-hidden="true"><path fill-rule="evenodd" clip-rule="evenodd" d="M24.566 11.194a1 1 0 0 0-1.132 0L22 12h-3.5l3.801-2.454a3 3 0 0 1 3.398 0L29.5 12H26l-1.434-.806ZM36 19l.937.694-12.543 5.373a1 1 0 0 1-.788 0l-12.543-5.373L12 19l.019-2.39-3.585 2.464a1 1 0 0 0-.434.824v16.088a3 3 0 0 0 3 3h26a3 3 0 0 0 3-3V19.898a1 1 0 0 0-.434-.824L36 16.5V19Zm2 2.414-12.819 5.492a3 3 0 0 1-2.362 0L10 21.414v14.572a1 1 0 0 0 1 1h26a1 1 0 0 0 1-1V21.414Z"/><path d="M13 12a1 1 0 0 0-1 1v7.098l2 .855V14h20v6.956l2-.86V13a1 1 0 0 0-1-1H13Z" class="accent"/><path d="M16 17a1 1 0 0 1 1-1h14a1 1 0 1 1 0 2H17a1 1 0 0 1-1-1Zm0 3a1 1 0 0 1 1-1h14a1 1 0 1 1 0 2H17a1 1 0 0 1-1-1Z" class="accent"/></svg>