<svg xmlns="http://www.w3.org/2000/svg" viewBox="0 0 48 48" aria-hidden="true"><path fill-rule="evenodd" clip-rule="evenodd" d="M26 27a8 8 0 1 1-.864-3.62l1.734-1.001A10 10 0 0 0 18 17c-5.523 0-10 4.477-10 10s4.477 10 10 10 10-4.477 10-10c0-.682-.068-1.348-.198-1.991l-1.862 1.007c.04.322.06.65.06.984Z" class="accent"/><path fill-rule="evenodd" clip-rule="evenodd" d="M31 27c0 7.18-5.82 13-13 13S5 34.18 5 27s5.82-13 13-13c4.966 0 9.282 2.785 11.47 6.877l1.734-1C28.668 15.187 23.706 12 18 12 9.716 12 3 18.716 3 27c0 8.284 6.716 15 15 15 8.284 0 15-6.716 15-15 0-1.546-.234-3.038-.669-4.442l-1.799.974C30.837 24.636 31 25.799 31 27Z"/><path fill-rule="evenodd" clip-rule="evenodd" d="M20.018 29.22a3 3 0 1 1 .77-3.33l1.743-1.006a5 5 0 1 0 .43 2.744l-2.943 1.592Z"/><path d="m18 26.83 21.65-12.5" stroke="#272727" stroke-width="2" stroke-linecap="round"/><path d="M32.16 14.674a1 1 0 0 1 .499-.926l5.653-3.264a1 1 0 0 1 1.498.806l.134 2.232a1 1 0 0 1-.498.926l-5.653 3.264a1 1 0 0 1-1.498-.806l-.134-2.232Zm3.448 5.971a1 1 0 0 0 1.05.031l5.654-3.264a1 1 0 0 0 .051-1.7l-1.866-1.232a1 1 0 0 0-1.05-.032l-5.654 3.264a1 1 0 0 0-.051 1.7l1.866 1.233Z" stroke="#272727" stroke-width="2"/></svg>