<svg xmlns="http://www.w3.org/2000/svg" viewBox="0 0 48 48" aria-hidden="true"><path d="M16.1 33.7c0 1.4-1.1 2.5-2.6 2.5H12v2.6h-1.3v-7.7h2.8c1.5.1 2.6 1.2 2.6 2.6Zm-1.3 0c0-.8-.5-1.3-1.3-1.3H12V35h1.6c.7 0 1.2-.5 1.2-1.3Zm2.6 2.6v-5.1h1.3v5.1c0 .9.5 1.5 1.6 1.5s1.7-.6 1.7-1.5v-5.1h1.3v5.1c0 1.7-1.2 2.7-2.9 2.7-1.8 0-3-1-3-2.7Zm7.2.8 1.1-.6c.3.8.9 1.3 1.9 1.3 1 0 1.4-.5 1.4-1 0-.7-.6-.9-1.7-1.3-1.2-.4-2.4-.8-2.4-2.3 0-1.4 1.2-2.2 2.5-2.2s2.2.7 2.7 1.7l-1.1.6c-.3-.6-.8-1.1-1.6-1.1-.7 0-1.2.4-1.2 1s.4.8 1.6 1.2c1.3.4 2.6.8 2.6 2.3 0 1.4-1.1 2.3-2.7 2.3-1.7 0-2.7-.8-3.1-1.9Zm12.8-5.9v7.7h-1.3v-3.3h-3.3v3.3h-1.3v-7.7h1.3v3.2h3.3v-3.2h1.3ZM23.8 8.5h-5.1c-.2 0-.3-.1-.4-.2-.1-.1-.2-.3-.2-.4 0-.2.1-.3.2-.4.1-.1.3-.2.4-.2h5.1c.2 0 .3.1.4.2.1.1.2.3.2.4 0 .2-.1.3-.2.4-.1.1-.2.2-.4.2Z"/><path class="accent" d="M35.6 13.5h-1.9c-.2 0-.3-.1-.4-.2-.1-.1-.3-.2-.3-.4s.1-.3.2-.4c.1-.1.3-.2.4-.2h1.9c.2 0 .3.1.4.2.1.1.2.3.2.4 0 .2-.1.3-.2.4-.1.1-.2.2-.3.2Z"/><path d="M21.6 24.9c.5 0 .9-.4.9-.9s-.4-1-.9-1-.9.4-.9.9.4 1 .9 1Z"/><path class="accent" d="M27.7 23.3c-1.1 0-2-.9-2-2H27c0 .5.3.8.8.8s.8-.3.8-.7v-.1h1.3c-.2 1.1-1.1 2-2.2 2Z"/><path d="M26 27.4h-9.5c-.6 0-1.1-.2-1.5-.6-.4-.4-.6-1-.6-1.5V6.9c0-.6.2-1.1.6-1.5.4-.4 1-.6 1.5-.6H26c.6 0 1.1.2 1.5.6.4.4.6 1 .6 1.5v3.5h-1.3V6.9c0-.2-.1-.5-.3-.7 0-.1-.2-.2-.5-.2h-9.5c-.2 0-.5.1-.7.3-.2.2-.3.4-.3.7v18.4c0 .2.1.5.3.7.2.2.4.3.7.3H26c.2 0 .5-.1.7-.3.2-.2.3-.4.3-.7v-1l1.3.8v.2c0 .6-.2 1.1-.6 1.5-.5.3-1.1.5-1.7.5Z"/><path class="accent" d="M27 9.4c-2.1.3-3.8 2.1-3.8 4.3 0 3.4-1.2 4.7-1.6 5.2-.3.2-.4.6-.3.9.2.4.6.4 1.2.4h10.2c.6 0 1 0 1.2-.4.2-.5 0-.8-.2-1-.4-.5-1.6-1.7-1.6-5.2 0-2.2-1.6-4-3.8-4.2 0 0-.4-.1-1.3 0Zm-3.7 9.5c.6-.9 1.3-2.5 1.3-5.3 0-1.7 1.4-3 3-3h.1c1.7 0 3 1.4 3 3 0 2.8.7 4.4 1.3 5.3h-8.7ZM36.6 9l-3.2 2c-.1.1-.3.1-.5.1s-.3-.1-.4-.3c-.1-.1-.1-.3-.1-.5s.1-.3.3-.4l3.2-2c.1-.1.3-.1.5-.1s.3.1.4.3c.1.1.1.3.1.5s-.1.3-.3.4Zm-3.9-1.9-.9 1.6c-.1.1-.2.3-.4.3s-.4 0-.5-.1c-.1-.1-.3-.2-.3-.4s0-.3.1-.5l.9-1.6c.1-.1.2-.3.4-.3s.3 0 .5.1c.1.1.3.2.3.4s-.1.4-.1.5Z"/></svg>