<svg xmlns="http://www.w3.org/2000/svg" viewBox="0 0 48 48" aria-hidden="true"><g clip-path="url(#a)" fill-rule="evenodd" clip-rule="evenodd"><path d="M24.472 22.118A1 1 0 0 1 25 23v6h1a1 1 0 1 1 0 2h-4a1 1 0 1 1 0-2h1v-4.134a1 1 0 0 1-1.055-1.698l1.5-1a1 1 0 0 1 1.027-.05Z" class="accent"/><path d="M13 7a1 1 0 0 1 1-1h5a1 1 0 0 1 .997.92c.304 3.767.674 6.639 1.36 8.558.34.95.727 1.58 1.148 1.967.393.361.86.555 1.495.555.636 0 1.122-.195 1.535-.565.438-.392.842-1.024 1.192-1.97.706-1.907 1.078-4.772 1.274-8.517A1 1 0 0 1 29 6c.398 0 .907-.003 1.458-.006 1.253-.006 2.72-.014 3.566.006A1 1 0 0 1 35 7v25a1 1 0 0 1-1 1h-3.012c-.068 2.86-.448 5.337-1.381 7.169-.53 1.04-1.254 1.901-2.22 2.489-.965.588-2.106.862-3.403.842-1.28-.02-2.385-.316-3.31-.919-.923-.602-1.592-1.462-2.087-2.485-.87-1.804-1.258-4.254-1.508-7.096h-3.08a1 1 0 0 1-1-1V7Zm2 24h3a1 1 0 0 1 .997.923c.251 3.266.613 5.692 1.391 7.303.377.78.83 1.322 1.379 1.68.547.356 1.263.579 2.249.594.99.016 1.744-.192 2.332-.55.588-.359 1.08-.91 1.477-1.69C28.64 37.66 29 35.218 29 32a1 1 0 0 1 1-1h3V7.988c-.751-.003-1.653.002-2.482.006-.196.001-.333-.007-.518-.006-.21 3.337-.646 6.142-1.397 8.172-.414 1.117-.966 2.078-1.734 2.765C26.08 19.633 25.113 20 24 20s-2.07-.368-2.849-1.084c-.75-.69-1.28-1.654-1.677-2.765C18.751 14.131 18.291 11.333 18 8h-3v23Z"/></g><defs><clipPath id="a"><path d="M0 0h48v48H0z"/></clipPath></defs></svg>