<svg xmlns="http://www.w3.org/2000/svg" viewBox="0 0 48 48" aria-hidden="true"><path fill-rule="evenodd" clip-rule="evenodd" d="M7 8a1 1 0 0 1 1-1h32a1 1 0 0 1 1 1v5.5a.984.984 0 0 1-.072.371l-.025.06.025-.059v.001l-.001.003-.002.005-.006.013a2.013 2.013 0 0 1-.068.15 5.5 5.5 0 0 1-1.019 1.413C39.056 16.234 37.812 17 36 17c-1.812 0-3.056-.766-3.832-1.543a5.497 5.497 0 0 1-.248-.265 7.46 7.46 0 0 1-.31.298C30.826 16.203 29.596 17 28 17s-2.826-.797-3.61-1.51a7.42 7.42 0 0 1-.39-.382 7.42 7.42 0 0 1-.39.382C22.826 16.203 21.596 17 20 17s-2.826-.797-3.61-1.51c-.11-.1-.214-.2-.31-.298a5.403 5.403 0 0 1-.248.265C15.056 16.234 13.812 17 12 17c-1.812 0-3.056-.766-3.832-1.543a5.499 5.499 0 0 1-1.019-1.413 3.293 3.293 0 0 1-.068-.15l-.006-.013-.002-.005v-.003h-.001l.025.058-.025-.06A1 1 0 0 1 7 13.5V8Zm2 5.27.06.106c.109.18.28.424.522.667.474.473 1.23.957 2.418.957 1.188 0 1.944-.484 2.418-.957A3.506 3.506 0 0 0 15 13.27V9H9v4.27ZM17 9v4.193a5.599 5.599 0 0 0 .735.817c.591.537 1.361.99 2.265.99.904 0 1.674-.453 2.265-.99a5.613 5.613 0 0 0 .735-.817V9h-6Zm8 0v4.193a5.599 5.599 0 0 0 .735.817c.591.537 1.361.99 2.265.99.904 0 1.674-.453 2.265-.99a5.613 5.613 0 0 0 .735-.817V9h-6Zm8 0v4.27l.06.106c.109.18.28.424.522.667.474.473 1.23.957 2.418.957 1.188 0 1.944-.484 2.418-.957A3.502 3.502 0 0 0 39 13.27V9h-6Z" class="accent"/><path fill-rule="evenodd" clip-rule="evenodd" d="M9 16.136v21.996c-.005.49-.007.868.5.868h28.524a1 1 0 0 0 1-1L39 16.135c-.531.35-1.186.64-1.977.778V37H23v-7.857C23 28.59 22.278 28 21.726 28h-6.822c-.553 0-.904.577-.904 1.129V37h-3V16.918a5.197 5.197 0 0 1-2-.782ZM21 30v7h-5.096v-7H21Z"/><path fill-rule="evenodd" clip-rule="evenodd" d="M15 19c-.552 0-1 .363-1 .915v4.238c0 .553.448.847 1 .847h18.193c.552 0 1-.294 1-.847v-4.238c0-.552-.448-.915-1-.915H15Zm1 4v-2h16v2H16Zm10.153 5c-.552 0-1.153.448-1.153 1v4.095c0 .553.448.905 1 .905h6.597c1 0 1.403 0 1.403-1v-4c0-1-.851-1-1.403-1h-6.444ZM27 32v-2h5v2h-5Z"/></svg>