<svg xmlns="http://www.w3.org/2000/svg" viewBox="0 0 48 48" aria-hidden="true"><path fill-rule="evenodd" clip-rule="evenodd" d="M20 39a4 4 0 1 0 0-8 4 4 0 0 0 0 8Zm0-2a2 2 0 1 0 0-4 2 2 0 0 0 0 4Zm14 2a4 4 0 1 0 0-8 4 4 0 0 0 0 8Zm0-2a2 2 0 1 0 0-4 2 2 0 0 0 0 4Z" class="accent"/><path fill-rule="evenodd" clip-rule="evenodd" d="M8 11a1 1 0 0 1 1-1h5a1 1 0 0 1 .967.744l4.106 15.512a1 1 0 0 0 .966.744H33.6a1 1 0 0 0 .94-.658L37.572 18h-18.56l-.547-2H39a1 1 0 0 1 .94 1.342l-3.521 9.683A3 3 0 0 1 33.599 29H20.04a3 3 0 0 1-2.9-2.232L13.23 12H9a1 1 0 0 1-1-1Z"/></svg>