<svg xmlns="http://www.w3.org/2000/svg" viewBox="0 0 48 48" aria-hidden="true"><path fill-rule="evenodd" clip-rule="evenodd" d="M19 11a6 6 0 1 0 0 12 6 6 0 0 0 0-12Zm-4 6a4 4 0 1 1 8 0 4 4 0 0 1-8 0Z"/><path d="M10 38c0-3.071 1.112-5.295 2.723-6.76 1.628-1.48 3.83-2.24 6.08-2.24 4.483 0 8.959 2.991 9.198 9.04a1 1 0 1 0 1.998-.08C29.712 30.676 24.188 27 18.803 27c-2.685 0-5.385.906-7.425 2.76C9.322 31.629 8 34.404 8 38a1 1 0 1 0 2 0Z"/><path class="accent" d="M30.296 11.457A6 6 0 0 0 28 11v2a4 4 0 0 1 0 8v2a6 6 0 0 0 2.296-11.543ZM32 29.804v-2.158c3.731 1.352 6.793 4.82 7 10.316a1 1 0 1 1-2 .075c-.16-4.26-2.296-6.982-5-8.233Z"/></svg>