<svg xmlns="http://www.w3.org/2000/svg" viewBox="0 0 48 48" aria-hidden="true"><path class="accent" d="M33.568 22.8a1 1 0 0 0-1.505-1.318l-4.164 4.756-2.126-2.205a1 1 0 1 0-1.44 1.388l2.882 2.988a1 1 0 0 0 1.472-.035l4.88-5.575Z"/><path class="accent" fill-rule="evenodd" clip-rule="evenodd" d="M20 25c0-4.979 4.021-9 9-9 4.883 0 8.904 3.925 9 9 0 4.979-4.021 9-9 9a8.99 8.99 0 0 1-9-9Zm1.915-.096A7.07 7.07 0 0 0 29 31.99c3.83-.095 6.99-3.16 7.085-7.085A7.07 7.07 0 0 0 29 17.82a7.07 7.07 0 0 0-7.085 7.085Z"/><path d="M33 38.5v-3.063l2-1.31V38.5c0 2-1.5 3.6-3.4 3.6H16.5c-2 0-3.5-1.6-3.5-3.5V9.5c0-2 1.5-3.5 3.5-3.5h15c2 0 3.5 1.5 3.5 3.5v8.817a8.968 8.968 0 0 0-2-1.372V9.5c0-.8-.7-1.5-1.4-1.5H16.5c-.8 0-1.5.7-1.5 1.5v29c0 .8.7 1.5 1.5 1.5h15c.8 0 1.5-.7 1.5-1.5Z"/><path d="M28 10h-8c-.6 0-1 .4-1 1s.4 1 1 1h8c.6 0 1-.4 1-1s-.4-1-1-1Zm-2.5 26.5a1.5 1.5 0 1 1-3 0 1.5 1.5 0 0 1 3 0Z"/></svg>