<svg xmlns="http://www.w3.org/2000/svg" viewBox="0 0 48 48" aria-hidden="true"><path d="M27.5 13.029V13H11.907C10.25 13 9 14.343 9 16v16c0 1.657 1.25 3 2.907 3h24C37.564 35 39 33.657 39 32v-5.44l-2 .54V32c0 .552-.541 1-1.093 1h-24c-.553 0-.907-.448-.907-1V16c0-.552.354-1 .907-1H27.06a8.957 8.957 0 0 1 .44-1.971ZM5.907 38a1 1 0 0 1 1-1h35a1 1 0 1 1 0 2h-35a1 1 0 0 1-1-1Z"/><path d="M40.568 13.8a1 1 0 0 0-1.505-1.318l-4.164 4.756-2.126-2.205a1 1 0 1 0-1.44 1.388l2.882 2.988a1 1 0 0 0 1.472-.035l4.88-5.575Z" class="accent"/><path fill-rule="evenodd" clip-rule="evenodd" d="M27 16c0-4.979 4.021-9 9-9 4.883 0 8.904 3.925 9 9 0 4.979-4.021 9-9 9a8.99 8.99 0 0 1-9-9Zm1.915-.096A7.07 7.07 0 0 0 36 22.99c3.83-.095 6.99-3.16 7.085-7.085C43.085 11.98 39.925 9 36 9s-7.085 2.979-7.085 6.904Z" class="accent"/></svg>