<svg xmlns="http://www.w3.org/2000/svg" viewBox="0 0 48 48" aria-hidden="true"><path fill-rule="evenodd" clip-rule="evenodd" d="M40.078 12.252c.78-2.572-2.36-4.507-4.307-2.655a.617.617 0 0 1-.933-.097c-1.525-2.213-4.995-.965-4.761 1.712a.617.617 0 0 1-.658.668c-2.68-.187-3.869 3.304-1.63 4.79.316.21.37.652.113.932-1.818 1.979.17 5.084 2.729 4.26.36-.115.74.118.798.493.413 2.655 4.082 3.037 5.033.523a.617.617 0 0 1 .882-.317c2.334 1.332 4.92-1.298 3.547-3.608a.617.617 0 0 1 .302-.888c2.497-.994 2.053-4.655-.61-5.023a.617.617 0 0 1-.505-.79Zm-2.929-1.206c.459-.436 1.199.02 1.015.626a2.617 2.617 0 0 0 2.146 3.35c.627.088.732.95.144 1.185a2.617 2.617 0 0 0-1.282 3.767c.323.544-.286 1.164-.836.85a2.617 2.617 0 0 0-3.745 1.346c-.224.593-1.089.503-1.186-.123a2.617 2.617 0 0 0-3.387-2.088c-.603.194-1.072-.538-.643-1.004a2.617 2.617 0 0 0-.48-3.95c-.527-.35-.247-1.174.384-1.13a2.617 2.617 0 0 0 2.79-2.837c-.055-.631.763-.925 1.122-.404a2.617 2.617 0 0 0 3.958.412ZM14.372 18.12c.643-2.827 4.613-2.827 5.256 0 .259 1.137 1.54 1.681 2.518 1.068l.147-.092c2.4-1.505 5.14 1.343 3.61 3.748-.622.98-.093 2.29 1.029 2.542 2.757.619 2.757 4.61 0 5.228-1.122.251-1.651 1.562-1.028 2.542 1.53 2.405-1.211 5.253-3.611 3.748l-.147-.092c-.977-.613-2.26-.069-2.518 1.067-.643 2.828-4.613 2.828-5.256 0-.259-1.136-1.54-1.68-2.518-1.067l-.147.092c-2.4 1.505-5.14-1.343-3.61-3.748.622-.98.093-2.29-1.029-2.542-2.757-.619-2.757-4.61 0-5.228 1.122-.251 1.651-1.562 1.028-2.542-1.53-2.405 1.211-5.253 3.611-3.748l.147.092c.977.613 2.26.069 2.518-1.067Zm8.76 2.689.147-.092c.22-.137.385-.147.508-.127a.812.812 0 0 1 .443.245.84.84 0 0 1 .233.458c.017.128.003.298-.136.518-1.331 2.093-.201 4.897 2.2 5.436.25.056.376.166.45.267a.829.829 0 0 1 .146.486c0 .198-.06.369-.146.486-.074.101-.2.211-.45.267-2.401.539-3.531 3.343-2.2 5.436.14.22.153.39.136.518a.84.84 0 0 1-.233.457.812.812 0 0 1-.443.246c-.123.02-.289.01-.508-.127l-.146-.092c-2.073-1.3-4.787-.145-5.334 2.26-.06.265-.176.402-.286.485a.86.86 0 0 1-.513.159.86.86 0 0 1-.513-.159c-.11-.083-.226-.22-.286-.485-.547-2.405-3.26-3.56-5.334-2.26l-.146.092c-.22.137-.385.147-.508.127a.812.812 0 0 1-.442-.245.84.84 0 0 1-.234-.458c-.017-.128-.003-.298.136-.518 1.331-2.093.201-4.897-2.2-5.436-.25-.056-.376-.166-.45-.267A.829.829 0 0 1 6.877 28c0-.198.06-.369.146-.486.074-.101.2-.211.45-.267 2.401-.539 3.531-3.343 2.2-5.436-.14-.22-.153-.39-.136-.518a.84.84 0 0 1 .233-.457.812.812 0 0 1 .443-.246c.123-.02.289-.01.508.127l.146.092c2.073 1.3 4.787.145 5.334-2.26.06-.265.176-.402.286-.485a.86.86 0 0 1 .513-.159.86.86 0 0 1 .513.159c.11.082.226.22.286.485.547 2.405 3.26 3.56 5.334 2.26Z"/><path d="M34.5 18a1.5 1.5 0 1 0 0-3 1.5 1.5 0 0 0 0 3Z" class="accent"/><path fill-rule="evenodd" clip-rule="evenodd" d="M21 28a4 4 0 1 1-8 0 4 4 0 0 1 8 0Zm-2 0a2 2 0 1 1-4 0 2 2 0 0 1 4 0Z" class="accent"/></svg>