<svg xmlns="http://www.w3.org/2000/svg" viewBox="0 0 48 48" aria-hidden="true"><path fill-rule="evenodd" clip-rule="evenodd" d="M19.348 20.588c-1.827.69-3.518 1.626-4.665 2.61a1.001 1.001 0 0 1-1.44-.134 1.077 1.077 0 0 1 .131-1.485c1.38-1.184 3.298-2.225 5.27-2.97 1.972-.745 4.09-1.229 5.89-1.229 4.378 0 8.423 1.897 11.104 4.2.434.372.493 1.036.132 1.484a1.001 1.001 0 0 1-1.44.135c-2.37-2.036-5.965-3.71-9.796-3.71-1.487 0-3.359.409-5.186 1.099Zm5.255 8.952a6.51 6.51 0 0 0-3.85 1.265 1.003 1.003 0 0 1-1.425-.249 1.075 1.075 0 0 1 .242-1.47 8.513 8.513 0 0 1 5.033-1.655c1.803 0 3.562.579 5.033 1.656.46.337.568.995.241 1.47a1.003 1.003 0 0 1-1.425.248 6.51 6.51 0 0 0-3.85-1.266Z" class="accent"/><path fill-rule="evenodd" clip-rule="evenodd" d="M24.823 24.606c-3.158 0-5.663.978-7.593 2.427a1.054 1.054 0 0 1-1.476-.21 1.056 1.056 0 0 1 .21-1.479c2.288-1.717 5.235-2.85 8.859-2.85 3.155 0 5.482 1.19 7.695 2.85.465.35.56 1.012.21 1.478a1.053 1.053 0 0 1-1.476.211c-2.004-1.505-3.894-2.427-6.43-2.427Zm-.331-10.495a20.022 20.022 0 0 0-13.248 5.011 1.053 1.053 0 0 1-1.488-.093 1.056 1.056 0 0 1 .093-1.49 22.13 22.13 0 0 1 29.286 0c.437.385.479 1.052.094 1.49a1.053 1.053 0 0 1-1.488.093 20.022 20.022 0 0 0-13.249-5.01Zm-1.054 18.941c0-.583.472-1.056 1.054-1.056h.014a1.055 1.055 0 0 1 0 2.111h-.014a1.055 1.055 0 0 1-1.054-1.055Z"/></svg>