<svg class="sinch-icon" xmlns="http://www.w3.org/2000/svg" viewBox="0 0 48 48" aria-hidden="true" focusable="false"><path id="shape-d" fill-rule="evenodd" clip-rule="evenodd" d="M35.76 24.2727C35.76 23.4218 35.6836 22.6036 35.5418 21.8182H24.24V26.46H30.6982C30.42 27.96 29.5745 29.2309 28.3036 30.0818L32.1818 33.0927C34.4509 31.0036 35.76 27.9273 35.76 24.2727Z"/><path id="shape-c" fill-rule="evenodd" clip-rule="evenodd" d="M24.24 36C27.48 36 30.1964 34.9255 32.1818 33.0927L28.3036 30.0818C27.2291 30.8018 25.8545 31.2273 24.24 31.2273C21.1145 31.2273 18.4691 29.1164 17.5254 26.28L13.5164 29.3891C15.4909 33.3109 19.5491 36 24.24 36Z"/><path id="shape-b" fill-rule="evenodd" clip-rule="evenodd" d="M17.5254 26.28C17.2854 25.56 17.1491 24.7909 17.1491 24C17.1491 23.2091 17.2854 22.44 17.5254 21.72L13.5164 18.6109C12.7036 20.2309 12.24 22.0636 12.24 24C12.24 25.9364 12.7036 27.7691 13.5164 29.3891L17.5254 26.28Z"/><path id="shape-a" fill-rule="evenodd" clip-rule="evenodd" d="M24.24 16.7727C26.0018 16.7727 27.5836 17.3782 28.8273 18.5673L32.2691 15.1255C30.1909 13.1891 27.4745 12 24.24 12C19.5491 12 15.4909 14.6891 13.5164 18.6109L17.5254 21.72C18.4691 18.8836 21.1145 16.7727 24.24 16.7727Z"/></svg>