<svg class="sinch-icon" xmlns="http://www.w3.org/2000/svg" viewBox="0 0 48 48" aria-hidden="true" focusable="false"><path id="shape-a" d="M19.2 24C19.2 21.2887 21.4 19.1799 24 19.1799C26.7 19.1799 28.8 21.3891 28.8 24C28.8 26.6109 26.6 28.8201 24 28.8201C21.3 28.8201 19.2 26.7113 19.2 24ZM16.6 24C16.6 28.1172 19.9 31.431 24 31.431C28.1 31.431 31.4 28.1172 31.4 24C31.4 19.8828 28.1 16.569 24 16.569C19.9 16.569 16.6 19.8828 16.6 24ZM30 16.2678C30 16.569 30.1 16.9707 30.3 17.272C30.5 17.5732 30.8 17.7741 31.1 17.8745C31.4 17.9749 31.8 18.0753 32.1 17.9749C32.4 17.8745 32.7 17.7741 33 17.4728C33.2 17.272 33.4 16.8703 33.5 16.569C33.6 16.2678 33.5 15.8661 33.4 15.5649C33.3 15.2636 33 14.9623 32.8 14.7615C32.5 14.5607 32.2 14.4603 31.8 14.4603C31.3 14.4603 30.9 14.6611 30.6 14.9623C30.2 15.364 30 15.7657 30 16.2678ZM18.2 35.749C16.8 35.6485 16 35.4477 15.5 35.2469C14.8 34.9456 14.3 34.6444 13.8 34.1423C13.3 33.6402 13 33.1381 12.7 32.4351C12.5 31.9331 12.3 31.1297 12.2 29.7238C12.1 28.2176 12.1 27.7155 12.1 23.8996C12.1 20.0837 12.1 19.5816 12.2 18.0753C12.3 16.6695 12.5 15.8661 12.7 15.364C13 14.6611 13.3 14.159 13.8 13.6569C14.3 13.1548 14.8 12.8536 15.5 12.5523C16 12.3515 16.8 12.1506 18.2 12.0502C19.7 11.9498 20.2 11.9498 24 11.9498C27.8 11.9498 28.3 11.9498 29.8 12.0502C31.2 12.1506 32 12.3515 32.5 12.5523C33.2 12.8536 33.7 13.1548 34.2 13.6569C34.7 14.159 35 14.6611 35.3 15.364C35.5 15.8661 35.7 16.6695 35.8 18.0753C35.9 19.5816 35.9 20.0837 35.9 23.8996C35.9 27.7155 35.9 28.2176 35.8 29.7238C35.7 31.1297 35.5 31.9331 35.3 32.4351C35 33.1381 34.7 33.6402 34.2 34.1423C33.7 34.6444 33.2 34.9456 32.5 35.2469C32 35.4477 31.2 35.6485 29.8 35.749C28.3 35.8494 27.8 35.8494 24 35.8494C20.1 35.8494 19.7 35.8494 18.2 35.749ZM18.1 9.64017C16.6 9.74059 15.5 9.94142 14.6 10.3431C13.7 10.7448 12.8 11.2469 12 12.0502C11.2 12.8536 10.7 13.6569 10.3 14.6611C9.9 15.5649 9.7 16.6695 9.6 18.1757C9.5 19.682 9.5 20.1841 9.5 24.1004C9.5 28.0167 9.5 28.5188 9.6 30.0251C9.7 31.5314 9.9 32.636 10.3 33.5397C10.7 34.4435 11.2 35.3473 12 36.1506C12.8 36.954 13.6 37.4561 14.6 37.8577C15.5 38.2594 16.6 38.4603 18.1 38.5607C19.6 38.6611 20.1 38.6611 24 38.6611C27.9 38.6611 28.4 38.6611 29.9 38.5607C31.4 38.4603 32.5 38.2594 33.4 37.8577C34.3 37.4561 35.2 36.954 36 36.1506C36.8 35.3473 37.3 34.5439 37.7 33.5397C38.1 32.636 38.3 31.5314 38.4 30.0251C38.5 28.5188 38.5 28.0167 38.5 24.1004C38.5 20.1841 38.5 19.682 38.4 18.1757C38.3 16.6695 38.1 15.5649 37.7 14.6611C37.3 13.7573 36.8 12.8536 36 12.0502C35.2 11.2469 34.4 10.7448 33.4 10.3431C32.5 9.94142 31.4 9.74059 29.9 9.64017C28.4 9.53975 27.9 9.53975 24 9.53975C20.1 9.53975 19.6 9.53975 18.1 9.64017Z"/></svg>