<svg class="sinch-icon" xmlns="http://www.w3.org/2000/svg" viewBox="0 0 48 48" aria-hidden="true" focusable="false"><path id="shape-a" fill-rule="evenodd" clip-rule="evenodd" d="M24 11.5439C31.8 11.5439 38.2001 16.6653 38.2001 23.0921C38.2001 25.6025 37.2001 27.9121 35.2001 30.2218C32.2001 33.7364 25.5 37.954 24 38.5565C22.5 39.159 22.7 38.1548 22.8 37.7532C22.8 37.5523 23 36.5481 23 36.5481C23.1 36.1465 23.1 35.6444 23 35.2427C22.8 34.841 22.2001 34.6402 21.7001 34.5398C14.9 33.636 9.80005 28.8159 9.80005 23.0921C9.80005 16.7657 16.2 11.5439 24 11.5439ZM29.5 26.8075H33.5C33.6 26.8075 33.8 26.6067 33.8 26.5063V25.5021C33.8 25.3012 33.6 25.2008 33.5 25.2008H30.8V24.1966H33.5C33.7 24.1966 33.8 23.9958 33.8 23.8954V22.8912C33.8 22.6904 33.6 22.5899 33.5 22.5899H30.8V21.5858H33.5C33.7 21.5858 33.8 21.3849 33.8 21.2845V20.2803C33.8 20.0795 33.6 19.9791 33.5 19.9791H29.5C29.3 19.9791 29.2 20.1799 29.2 20.2803V26.5063C29.2 26.7071 29.4 26.8075 29.5 26.8075ZM19 26.5063C19 26.7071 18.8 26.8075 18.7 26.8075H14.7C14.5 26.8075 14.4 26.6067 14.4 26.5063V20.2803C14.4 20.0795 14.6 19.9791 14.7 19.9791H15.7C15.9 19.9791 16 20.1799 16 20.2803V25.2008H18.7C18.9 25.2008 19 25.4017 19 25.5021V26.5063ZM20.1 19.9791H21.1C21.3 19.9791 21.4 20.0795 21.4 20.2803V26.5063C21.4 26.7071 21.2 26.8075 21.1 26.8075H20.1C19.9 26.8075 19.8 26.6067 19.8 26.5063V20.2803C19.8 20.0795 20 19.9791 20.1 19.9791ZM27 19.9791H28C28.1 19.9791 28.3 20.0795 28.5 20.2803V26.5063C28.5 26.7071 28.3 26.8075 28.2 26.8075H27.1C27 26.8075 27 26.7071 27 26.7071L24.2 22.8912V26.6067C24.2 26.8075 24 26.9079 23.9 26.9079H22.9C22.7 26.9079 22.6 26.7071 22.6 26.6067V20.3807C22.6 20.1799 22.8 20.0795 22.9 20.0795H23.9L26.7 23.9958V20.2803C26.7 20.0795 26.9 19.9791 27 19.9791Z"/></svg>