<svg class="sinch-icon" xmlns="http://www.w3.org/2000/svg" viewBox="0 0 48 48" aria-hidden="true" focusable="false"><path id="shape-c" fill-rule="evenodd" clip-rule="evenodd" d="M14.8187 36.8019C10.6964 33.9064 8 29.1156 8 23.7C8 14.8694 15.1693 7.7 24 7.7C32.8306 7.7 40 14.8693 40 23.7C40 32.5306 32.8307 39.7 24 39.7C23.4881 39.7 22.9817 39.6759 22.482 39.6288C20.987 41.4536 18.7162 42.619 16.1754 42.619C14.4765 42.619 12.8983 42.098 11.592 41.2071C13.1209 40.1645 14.2773 38.6153 14.8187 36.8019Z"/><path id="shape-b" d="M32.5333 19.5915C32.2842 19.6392 32.027 19.6642 31.764 19.6642C29.5204 19.6642 27.7015 17.8454 27.7015 15.6018C27.7015 15.4402 27.711 15.2808 27.7293 15.1241H25.7066V19.1346C25.7066 19.4314 25.5025 19.6892 25.2136 19.7574C24.9248 19.8256 24.6269 19.6863 24.4942 19.4208L22.3459 15.1241H19.7333C17.3785 15.1241 15.4666 17.036 15.4666 19.3908V27.9241C15.4666 30.279 17.3785 32.1908 19.7333 32.1908H22.2933V28.1804C22.2933 27.8836 22.4973 27.6257 22.7862 27.5575C23.0751 27.4893 23.373 27.6287 23.5057 27.8942L25.654 32.1908H28.2666C30.6215 32.1908 32.5333 30.279 32.5333 27.9241V19.5915Z"/><path id="shape-a" d="M31.764 18.3751C33.2957 18.3751 34.5373 17.1334 34.5373 15.6018C34.5373 14.0701 33.2957 12.8284 31.764 12.8284C30.2324 12.8284 28.9907 14.0701 28.9907 15.6018C28.9907 17.1334 30.2324 18.3751 31.764 18.3751Z"/></svg>