<svg class="sinch-icon" xmlns="http://www.w3.org/2000/svg" viewBox="0 0 48 48" aria-hidden="true" focusable="false"><path id="shape-a" d="M21.1 21.8912L21.9 24.2009H20.3L21.1 21.8912Z"/><path id="shape-a" fill-rule="evenodd" clip-rule="evenodd" d="M10.2 23.1966C10.2 17.1715 16.4 12.251 24 12.251C31.6 12.251 37.7999 17.0711 37.7999 23.0962C37.7999 29.1213 31.6 34.0418 24 34.0418C23.1 34.0418 22.3 33.9414 21.5 33.841C20.7 34.4435 16.1 37.6569 15.7 37.7573C15.7 37.7573 15.6 37.8577 15.4 37.7573C15.3 37.6569 15.3 37.4561 15.3 37.4561C15.3 37.217 16.0555 34.6387 16.4675 33.2327C16.5747 32.8668 16.6586 32.5803 16.7 32.4351C12.8 30.5272 10.2 27.113 10.2 23.1966ZM15.6 26.2092C15.6 26.7113 16 27.0126 16.4 27.0126C16.8 27.0126 17.1 26.6109 17.3 26.2092V21.4896H18.5C18.9 21.4896 19.3 21.0879 19.3 20.6862C19.3 20.2845 18.9 19.8829 18.5 19.8829H14.4C14 19.8829 13.6 20.2845 13.6 20.6862C13.6 21.0879 14 21.4896 14.4 21.4896H15.6V26.2092ZM22.6 26.6109C22.7 26.9122 23 27.0126 23.3 27.0126C23.4171 27.0126 23.5343 26.9781 23.6313 26.9496C23.7 26.9294 23.7586 26.9122 23.8 26.9122C24 26.8117 24.2 26.6109 24 25.8076L22.1 20.7866C21.9 20.385 21.5 19.9833 21 19.9833C20.4 19.9833 20 20.385 19.9 20.7866L18 25.8076C17.8 26.5105 18 26.8117 18.2 26.9122C18.3 27.0126 18.5 27.0126 18.7 27.0126C19.1 27.0126 19.3 26.8117 19.4 26.6109L19.8 25.6067H22.2L22.6 26.6109ZM24.5 26.2092C24.5 26.6109 24.9 26.9122 25.3 26.9122H27.8C28.3 26.9122 28.6 26.6109 28.6 26.2092C28.6 25.8076 28.2 25.5063 27.8 25.5063H26.1V20.7866C26.1 20.385 25.7 19.9833 25.3 19.9833C24.9 19.9833 24.5 20.385 24.5 20.7866V26.2092ZM29 26.2092C29 26.6109 29.4 27.0126 29.8 27.0126C30.2 27.0126 30.6 26.6109 30.6 26.2092V24.5021L30.9 24.2009L32.8 26.7113C32.9 26.9122 33.1 27.0126 33.4 27.0126C33.6 27.0126 33.8 26.9122 33.9 26.8117C34.1 26.7113 34.2 26.5105 34.2 26.3097C34.2 26.1088 34.1 25.908 34 25.7071L32 23.0963L33.7 21.1883C33.8 21.0879 33.9 20.8871 33.9 20.6862C33.9 20.4854 33.8 20.2845 33.7 20.1841C33.6 20.0837 33.4 19.9833 33.2 19.9833C33.1 19.9833 32.9 20.0837 32.8 20.1841L30.6 22.3933V20.6862C30.6 20.2845 30.2 19.8829 29.8 19.8829C29.4 19.8829 29 20.2845 29 20.6862V26.2092Z"/></svg>