<svg class="sinch-icon" xmlns="http://www.w3.org/2000/svg" viewBox="0 0 48 48" aria-hidden="true" focusable="false"><path id="shape-a" d="M27 22.092C27 22.2929 27.2 22.4937 27.4 22.4937C27.6 22.4937 27.8 22.2929 27.7 22.092C27.6 20.3849 26.7 19.3808 25 19.2803C24.8 19.2803 24.6 19.4812 24.6 19.682C24.6 19.8828 24.8 20.0837 25 20.0837C26.3 20.0837 26.9 20.7866 27 22.092Z"/><path id="shape-a" d="M29.4 23.1967C29.2 23.1967 29 22.9958 29 22.795C29 21.4896 28.6 20.385 27.8 19.4812C27 18.5774 25.9 18.0753 24.4 17.9749C24.2 17.9749 24 17.7741 24 17.5732C24 17.3724 24.2 17.1716 24.4 17.1716C26.1 17.272 27.4 17.8745 28.3 18.8787C29.2 19.8829 29.7 21.1883 29.7 22.795C29.8 22.9958 29.6 23.1967 29.4 23.1967Z"/><path id="shape-a" d="M31.1 23.5983C31.1 23.7991 31.3 24 31.5 24C31.7 24 31.9 23.7991 31.7999 23.4979C31.7999 20.9874 31 18.8786 29.5 17.3724C28 15.8661 26.0999 15.0627 23.7999 15.0627C23.5999 15.0627 23.4 15.2636 23.4 15.4644C23.4 15.6653 23.5999 15.8661 23.7999 15.8661C25.8999 15.9665 27.6 16.6694 29 17.9749C30.4 19.3807 31.1 21.1883 31.1 23.5983Z"/><path id="shape-a" d="M25.9 27.0125C25.7 27.3138 25.1 27.3138 25.1 27.3138C21.1 26.3096 20 22.1925 20 22.1925C20 22.1925 19.8999 21.6904 20.2999 21.3891L21 20.7866C21.3 20.4853 21.6 19.8828 21.2 19.1799C21.05 18.9289 20.9 18.7029 20.75 18.477C20.5999 18.251 20.45 18.0251 20.2999 17.774C19.8999 17.3724 19.2 16.4686 19.2 16.4686C18.9 16.0669 18.3999 15.9665 17.7999 16.2678C17.1999 16.569 16.6999 16.9707 16.2999 17.4728C15.8999 17.8745 15.7 18.2761 15.7 18.6778V18.8786C15.7 19.0795 15.7 19.1799 15.8 19.3807C16 20.0837 16.5 21.0879 17.4 22.795C18 23.7991 18.5999 24.7029 19.2999 25.6067C19.5999 26.1088 20 26.5104 20.4 26.9121C20.6 27.113 20.8249 27.2887 21.0499 27.4644C21.2749 27.6401 21.4999 27.8159 21.7 28.0167C22.5999 28.7196 23.5 29.4226 24.5 29.9247C26.3 30.9289 27.2999 31.3305 27.9 31.5314C28 31.6318 28.2 31.6318 28.4 31.6318H28.6C29 31.5314 29.4 31.3305 29.7999 31.0293C30.2999 30.6276 30.7 30.1255 31 29.523C31.3 29.0209 31.2 28.5188 30.7999 28.1171C30.7999 28.1171 29.9 27.3138 29.5 27.0125C29.1 26.7113 28.6 26.41 28.1 26.1088C27.5 25.7071 26.8 25.9079 26.5 26.3096L25.9 27.0125Z"/><path id="shape-a" fill-rule="evenodd" clip-rule="evenodd" d="M24.6 9.53976C31.5 9.53976 34.6 11.8494 35.4 12.5523C37.9 14.8619 39.3 19.7824 38.5 27.5147C37.67 34.4597 32.7584 35.6835 31.2145 36.0682C31.0842 36.1007 30.9778 36.1272 30.9 36.1506C30.5 36.3515 26.7 37.2552 21.7 36.8536C21.45 37.1548 21.125 37.5062 20.8 37.8577C20.475 38.2091 20.1499 38.5607 19.9 38.8619C19.767 39.0088 19.6412 39.152 19.5205 39.2894C18.7334 40.1855 18.167 40.8303 17.3 40.569C16.5 40.3682 16.5 39.0628 16.5 39.0628V35.9498C9.19996 33.841 9.29996 26.3096 9.39996 22.2929C9.49996 18.2762 10.3 14.9624 12.5 12.7531C16.4 9.03767 24.6 9.53976 24.6 9.53976ZM30.4007 33.9288C31.782 33.5765 35.4895 32.6309 36.2 27.0126C37 20.4854 35.9 16.067 33.8 14.2594C33.2 13.6569 30.4 11.8494 24.5 11.8494C24.5 11.8494 17.6 11.4477 14.2 14.4603C12.3 16.3682 11.7 19.0795 11.6 22.4937L11.5946 22.6734C11.4915 26.1287 11.3054 32.3642 17.3 34.0419V39.2636C17.3 39.5649 17.3 39.7657 17.5 39.7657C17.7 39.7657 17.8 39.7657 18 39.5649C19 38.5607 22.1 34.7448 22.1 34.7448C26.1352 35.0342 29.3397 34.2113 29.9396 34.0573L30 34.0419C30.0895 34.0081 30.2266 33.9732 30.4007 33.9288Z"/></svg>