<svg class="sinch-icon" xmlns="http://www.w3.org/2000/svg" viewBox="0 0 405 400" fill="none" aria-hidden="true" focusable="false"><path d="M324.748 147.124H80.312v213.654h244.436V147.124Z" fill="#666"/><path d="M396.393 366.262h-23.601a1.686 1.686 0 0 1-1.686-1.687v-23.618a8.44 8.44 0 0 0-2.468-5.964 8.427 8.427 0 0 0-5.96-2.471h-3.372a5.055 5.055 0 0 1-5.057-5.061v-13.158a8.435 8.435 0 0 0-8.429-8.435 1.686 1.686 0 0 1-1.686-1.687V175.972a5.057 5.057 0 0 1 5.057-5.061h13.487a8.427 8.427 0 0 0 5.96-2.471 8.44 8.44 0 0 0 2.468-5.964V147a6.755 6.755 0 0 0-2.329-5.102L206.943 1.648a6.74 6.74 0 0 0-8.827 0L36.282 141.897a6.755 6.755 0 0 0-2.33 5.102v15.476c0 2.237.889 4.382 2.47 5.964a8.426 8.426 0 0 0 5.96 2.471h13.486a5.055 5.055 0 0 1 5.057 5.061V304.18a1.686 1.686 0 0 1-1.686 1.687 8.436 8.436 0 0 0-8.429 8.435v13.158a5.062 5.062 0 0 1-5.057 5.061h-3.371c-2.236 0-4.38.889-5.96 2.471a8.438 8.438 0 0 0-2.47 5.964V361.2a5.061 5.061 0 0 1-5.057 5.061H8.666c-2.235 0-4.38.888-5.96 2.47a8.437 8.437 0 0 0-2.469 5.964v16.87A8.436 8.436 0 0 0 8.667 400h387.726a8.435 8.435 0 0 0 8.429-8.435v-16.87a8.437 8.437 0 0 0-2.469-5.964 8.426 8.426 0 0 0-5.96-2.47ZM96.326 305.868a1.687 1.687 0 0 1-1.686-1.687V175.972a5.062 5.062 0 0 1 5.058-5.061h39.335a5.06 5.06 0 0 1 5.058 5.061v128.209a1.687 1.687 0 0 1-1.686 1.687 8.435 8.435 0 0 0-8.429 8.435v13.158a5.057 5.057 0 0 1-5.057 5.061h-19.107a5.057 5.057 0 0 1-5.057-5.061v-13.158a8.435 8.435 0 0 0-8.429-8.435Zm83.166 0a1.686 1.686 0 0 1-1.686-1.687V175.972a5.057 5.057 0 0 1 5.057-5.061h39.333a5.057 5.057 0 0 1 5.057 5.061v128.209a1.687 1.687 0 0 1-1.686 1.687 8.435 8.435 0 0 0-8.429 8.435v13.158a5.06 5.06 0 0 1-5.057 5.061h-19.103a5.055 5.055 0 0 1-5.057-5.061v-13.158a8.435 8.435 0 0 0-8.429-8.435Zm83.162 0a1.686 1.686 0 0 1-1.686-1.687V175.972a5.06 5.06 0 0 1 5.058-5.061h39.335a5.058 5.058 0 0 1 5.058 5.061v128.209a1.687 1.687 0 0 1-1.686 1.687 8.435 8.435 0 0 0-8.429 8.435v13.158a5.055 5.055 0 0 1-5.057 5.061H276.14a5.057 5.057 0 0 1-5.057-5.061v-13.158a8.435 8.435 0 0 0-8.429-8.435Z" fill="#CCC"/><path d="M202.53 147.124c24.206 0 43.83-19.638 43.83-43.861 0-24.224-19.624-43.862-43.83-43.862-24.207 0-43.83 19.638-43.83 43.862 0 24.223 19.623 43.861 43.83 43.861Z" fill="#666"/><path d="M202.53 137.002c18.62 0 33.715-15.106 33.715-33.739 0-18.634-15.095-33.74-33.715-33.74-18.621 0-33.716 15.106-33.716 33.74 0 18.633 15.095 33.739 33.716 33.739Z" fill="#CCC"/><path d="M204.505 122.136v2.953c0 .447-.177.876-.494 1.192a1.683 1.683 0 0 1-2.877-1.192v-2.899c-4.495-.283-8.052-2.108-10.273-5.131a3.028 3.028 0 0 1-.491-2.404 3.035 3.035 0 0 1 1.445-1.983 3.038 3.038 0 0 1 3.894.756c1.241 1.599 3.017 2.595 5.425 2.855v-10.878c-5.058-1.883-10.189-4.13-10.189-10.824 0-6.17 4.757-9.727 10.189-10.246v-2.902a1.668 1.668 0 0 1 .123-.65 1.695 1.695 0 0 1 1.562-1.053 1.682 1.682 0 0 1 1.563 1.052c.083.207.125.428.123.651v2.952c3.136.425 5.931 1.802 7.933 4.231a2.936 2.936 0 0 1 .633 2.393 2.943 2.943 0 0 1-1.418 2.027 2.926 2.926 0 0 1-3.709-.651 5.983 5.983 0 0 0-3.439-2.024v10.354c4.963 1.883 10.293 3.867 10.293 10.824 0 6.049-4.335 9.869-10.293 10.597Zm-3.398-22.797v-9.11c-2.556.418-4.178 1.984-4.178 4.339 0 2.21 1.255 3.411 4.178 4.774v-.003Zm7.683 12.237c0-2.46-1.621-3.664-4.285-4.865v9.521c2.873-.577 4.285-2.406 4.285-4.653v-.003Z" fill="#F2F2F2"/></svg>