<svg class="sinch-icon" xmlns="http://www.w3.org/2000/svg" viewBox="0 0 1009 800" fill="none" aria-hidden="true" focusable="false"><path d="M303.417 503.799c0 6.53 2.582 12.764 7.183 17.394 4.601 4.601 10.864 7.213 17.364 7.213h329.564c6.5 0 12.763-2.582 17.364-7.213a24.598 24.598 0 0 0 7.183-17.394V210.181H303.417v293.618Z" fill="#F2F2F2"/><path d="M303.417 210.151h378.718v-24.814c0-6.53-2.583-12.764-7.183-17.394-4.601-4.601-10.864-7.213-17.365-7.213H328.024a24.434 24.434 0 0 0-17.364 7.213 24.598 24.598 0 0 0-7.184 17.394c-.059 12.407-.059 24.814-.059 24.814Z" fill="#FFBE3C"/><path d="M521.642 467.646c-5.699 0-10.33 4.631-10.33 10.33s4.631 10.329 10.33 10.329 10.329-4.63 10.329-10.329c0-5.699-4.63-10.33-10.329-10.33Zm-28.881 0c-5.699 0-10.329 4.631-10.329 10.33s4.63 10.329 10.329 10.329c5.699 0 10.33-4.63 10.33-10.329 0-5.699-4.631-10.33-10.33-10.33Zm-28.911 0c-5.699 0-10.329 4.631-10.329 10.33s4.63 10.329 10.329 10.329c5.699 0 10.33-4.63 10.33-10.329 0-5.699-4.631-10.33-10.33-10.33Z" fill="#666"/><path d="M492.731 256.812c-47.076 0-85.218 38.201-85.218 85.307s38.172 85.307 85.218 85.307c47.047 0 85.218-38.201 85.218-85.307.03-47.106-38.141-85.307-85.218-85.307Z" fill="#FFBE3C"/><path d="M504.99 314.93c0-6.738-5.461-12.229-12.229-12.229-6.738 0-12.229 5.462-12.229 12.229v17.661c0 6.738 5.462 12.229 12.229 12.229 6.738 0 12.229-5.461 12.229-12.229V314.93Z" fill="#fff"/><path d="M492.761 381.538a4.65 4.65 0 0 1-4.66-4.66v-20.392a4.649 4.649 0 0 1 4.66-4.66 4.648 4.648 0 0 1 4.66 4.66v20.392a4.668 4.668 0 0 1-4.66 4.66Z" fill="#fff"/><path d="M492.732 360.641c-7.094 0-13.773-2.73-18.819-7.717a26.678 26.678 0 0 1-8.014-18.67 4.689 4.689 0 0 1 4.571-4.75c2.582-.059 4.69 2.019 4.749 4.572.148 9.468 8.014 17.186 17.483 17.186 9.469 0 17.335-7.718 17.483-17.186.03-2.553 2.137-4.572 4.66-4.572h.089c2.582.03 4.631 2.167 4.571 4.75-.119 7.064-2.968 13.683-8.014 18.67-4.987 4.987-11.665 7.717-18.759 7.717Z" fill="#fff"/><path d="M187.448 304.067h-.059c-3.859-.03-6.976-3.176-6.946-7.035l.475-55.536c.03-3.859 3.176-6.975 7.035-6.945 3.858.029 6.975 3.176 6.945 7.034l-.445 55.536c-.029 3.829-3.176 6.946-7.005 6.946Z" fill="#272727"/><path d="M266.403 289.819h-.059c-3.859-.03-6.976-3.176-6.946-7.035l.475-43.663c.03-3.858 3.176-6.975 7.035-6.945 3.858.029 6.975 3.176 6.945 7.034l-.445 43.663c-.029 3.829-3.176 6.946-7.005 6.946Z" fill="#007171"/><path d="M239.689 304.067h-.059c-3.859-.03-6.975-3.177-6.946-7.035l.475-67.409c.03-3.859 3.176-6.975 7.035-6.946 3.859.03 6.975 3.176 6.946 7.035l-.446 67.409c-.029 3.829-3.176 6.946-7.005 6.946Z" fill="#A7D5C2"/><path d="M213.153 284.417h-.059c-3.621-.03-6.56-2.731-6.53-6.055l.445-29.861c.03-3.324 2.998-5.996 6.619-5.966 3.621.03 6.56 2.731 6.53 6.055l-.445 29.861c0 3.294-2.939 5.966-6.56 5.966Z" fill="#E83452"/><path d="M798.49 222.648h.059c3.859.029 6.975 3.176 6.946 7.034l-.475 55.566c-.03 3.859-3.176 6.975-7.035 6.946-3.859-.03-6.975-3.176-6.946-7.035l.475-55.536a6.967 6.967 0 0 1 6.976-6.975Z" fill="#007171"/><path d="M719.534 236.895h.06c3.858.03 6.975 3.176 6.945 7.035l-.474 43.692c-.03 3.859-3.176 6.976-7.035 6.946-3.859-.03-6.975-3.176-6.946-7.035l.475-43.663a6.968 6.968 0 0 1 6.975-6.975Z" fill="#272727"/><path d="M746.249 222.648h.059c3.859.029 6.976 3.176 6.946 7.034l-.475 67.439c-.03 3.858-3.176 6.975-7.035 6.945-3.858-.029-6.975-3.176-6.945-7.034l.474-67.409a6.967 6.967 0 0 1 6.976-6.975Z" fill="#E83452"/><path d="M772.785 242.297h.059c3.621.03 6.56 2.731 6.53 6.056l-.445 29.86c-.03 3.324-2.998 5.996-6.619 5.966-3.622-.03-6.56-2.731-6.53-6.055l.445-29.86c0-3.295 2.938-5.967 6.56-5.967Z" fill="#A7D5C2"/><path d="M173.705 389.819v-.06c.03-3.858 3.057-6.975 6.738-6.945l138.35.475c3.71.029 6.678 3.176 6.649 7.034-.03 3.859-3.058 6.976-6.738 6.946l-138.35-.475c-3.681 0-6.649-3.117-6.649-6.975Z" fill="#CDE9FB"/><path d="M264.86 405.521c8.524 0 15.434-6.911 15.434-15.435 0-8.524-6.91-15.435-15.434-15.435-8.525 0-15.435 6.911-15.435 15.435 0 8.524 6.91 15.435 15.435 15.435Z" fill="#12364C"/><path d="M173.705 389.819v-.06c.03-3.858 3.057-6.975 6.738-6.945l81.063.475c3.71.029 6.678 3.176 6.648 7.034-.029 3.859-3.057 6.976-6.737 6.946l-81.063-.475c-3.681 0-6.649-3.117-6.649-6.975Z" fill="#12364C"/><path d="M173.705 430.187v-.059c.03-3.859 3.057-6.976 6.738-6.946l138.35.475c3.71.029 6.678 3.176 6.649 7.034-.03 3.859-3.058 6.976-6.738 6.946l-138.35-.475c-3.681 0-6.649-3.116-6.649-6.975Z" fill="#CDE9FB"/><path d="M225.976 445.889c8.524 0 15.435-6.91 15.435-15.435 0-8.524-6.911-15.435-15.435-15.435-8.525 0-15.435 6.911-15.435 15.435 0 8.525 6.91 15.435 15.435 15.435Z" fill="#12364C"/><path d="M173.705 430.187v-.059c.03-3.859 3.057-6.976 6.738-6.946l40.695.475c3.71.029 6.678 3.176 6.648 7.034-.029 3.859-3.057 6.976-6.737 6.946l-40.695-.475c-3.681 0-6.649-3.116-6.649-6.975Z" fill="#12364C"/><path d="m672.429 494.39-17.75-.089c.089-17.899 7.123-34.699 19.798-47.344 12.704-12.644 29.564-19.62 47.462-19.62 17.899 0 34.758 6.976 47.462 19.62 12.704 12.645 19.739 29.445 19.798 47.344l-17.75.089c-.059-13.179-5.254-25.557-14.603-34.847-9.35-9.321-21.758-14.426-34.937-14.426-27.129-.03-49.361 22.084-49.48 49.273Z" fill="#CDE9FB"/><path d="m672.518 494.39-17.75-.089c.089-17.899 7.123-34.699 19.798-47.344 12.704-12.644 29.563-19.62 47.462-19.62 11.902 0 23.597 3.147 33.838 9.142l-8.935 15.317a49.496 49.496 0 0 0-24.903-6.709c-27.189 0-49.392 22.114-49.51 49.303Z" fill="#A8D7E2"/><path d="m672.518 494.39-17.75-.089c.029-9.498 2.048-18.7 5.936-27.308 3.74-8.311 9.083-15.672 15.821-21.876l12.021 13.06c-10.151 9.291-15.969 22.5-16.028 36.213Zm48.056 2.879a2.446 2.446 0 0 1-1.9-.92 2.44 2.44 0 0 1 .416-3.384l22.825-17.779a2.439 2.439 0 0 1 3.384.415 2.44 2.44 0 0 1-.416 3.384l-22.825 17.78a2.49 2.49 0 0 1-1.484.504Z" fill="#0A273D"/><path d="M726.511 491.125a5.25 5.25 0 0 1-1.93 7.183 5.249 5.249 0 0 1-7.183-1.929 5.249 5.249 0 0 1 1.929-7.183 5.25 5.25 0 0 1 7.184 1.929Z" fill="#fff"/><path d="M721.969 501.425a7.668 7.668 0 0 1-6.649-3.829c-1.009-1.781-1.306-3.829-.772-5.818.535-1.989 1.811-3.621 3.562-4.66 3.651-2.107 8.371-.861 10.478 2.79 1.009 1.781 1.306 3.829.772 5.818-.534 1.989-1.811 3.621-3.562 4.66a7.516 7.516 0 0 1-3.829 1.039Zm0-10.508c-.505 0-.98.119-1.425.386a2.972 2.972 0 0 0-1.336 1.722 2.772 2.772 0 0 0 .297 2.167c.802 1.365 2.523 1.84 3.889 1.039a2.97 2.97 0 0 0 1.335-1.722 2.772 2.772 0 0 0-.296-2.167 2.975 2.975 0 0 0-1.722-1.336 3.39 3.39 0 0 0-.742-.089Z" fill="#0A273D"/><path d="M596.352 676.402c-6.767 0-12.169-5.669-11.813-12.437.119-2.107.237-4.363.356-6.619a40.58 40.58 0 0 0-13.12-32.116c-17.572-16.118-47.195-43.307-63.015-57.821-6.234-5.729-7.569-15.049-3.176-22.292a18.006 18.006 0 0 1 12.377-8.4 18.055 18.055 0 0 1 14.456 3.859c6.589 5.432 14.128 11.635 20.273 16.681 2.226 1.841 5.342 2.226 7.925.95 2.256-1.068 3.77-3.206 4.126-5.61l-7.866-122.558c-.445-6.857 4.185-13.001 10.893-14.456.238-.059.475-.118.713-.148 3.74-.831 7.628-.06 10.804 2.107 3.146 2.167 5.284 5.521 5.877 9.291l9.053 57.376c2.167-7.243 9.677-11.665 17.157-9.884 6.47 1.514 10.893 7.183 11.131 13.505 2.968-5.699 9.557-8.905 16.117-7.361 6.085 1.425 10.359 6.53 11.042 12.407a14.479 14.479 0 0 1 15.435-6.174 14.337 14.337 0 0 1 10.953 12.111c.029.267.089.534.118.801 0 .03 11.339 58.979 10.894 79.905-.178 8.252-2.672 20.392-5.017 30.039a93.185 93.185 0 0 0-1.929 33.303l4.007 19.264c1.514 7.332-4.066 14.218-11.576 14.218h-76.195v.059Z" fill="#894915"/></svg>