<svg class="sinch-icon" xmlns="http://www.w3.org/2000/svg" viewBox="0 0 570 800" fill="none" aria-hidden="true" focusable="false"><path d="M76.044 170.577a22.296 22.296 0 0 0-13.048-28.718 22.31 22.31 0 0 0-17.059.58 22.3 22.3 0 0 0-11.65 12.475 891689.5 891689.5 0 0 0-32.869 87.663 22.302 22.302 0 0 0 37.179 23.045c2-2.141 3.558-4.654 4.587-7.397l32.86-87.648Z" fill="#842306"/><path d="M295.568 292.355a9.42 9.42 0 0 1 9.419-9.418h255.422a9.416 9.416 0 0 1 9.419 9.418v250.238a9.429 9.429 0 0 1-2.758 6.662 9.429 9.429 0 0 1-6.661 2.759H295.568V292.355Z" fill="#FCECCB"/><path d="M385.341 366.142s21.968 6.618 43.525 52.058l-60.218-.382a1.499 1.499 0 0 1-1.215-.64 1.496 1.496 0 0 1-.175-1.362l18.083-49.674Z" fill="#272727"/><path d="m380.844 551.971 15.423-47.213 7.108-24.38-42.009 1.16-24.304 70.161m190.402.289a23.552 23.552 0 0 0 20.789-12.532 23.558 23.558 0 0 0-1.313-24.239l-26.142-38.578-39.729 25.334 26.889 39.673a23.53 23.53 0 0 0 19.519 10.342" fill="#F2A068"/><path d="M455.385 422.149a23.57 23.57 0 0 1 17.656-3.646 23.557 23.557 0 0 1 15.063 9.908l39.254 57.898-40.334 24.451-37.892-55.886a23.551 23.551 0 0 1 6.262-32.716" fill="#FFBE3C"/><path d="m360.437 484.038 17.997-53.017a19.065 19.065 0 0 1 18.051-12.936h72.924l9.833 8.814-.578 125.186H356.382l17.321-68.045-13.266-.002Z" fill="#FFBE3C"/><path d="m526.343 511.445-99.375 16.77-.915 23.827 102.959-.103a20.345 20.345 0 0 0 14.506-5.897 20.337 20.337 0 0 0 4.438-22.285 20.34 20.34 0 0 0-18.987-12.483c-.878.006-1.755.063-2.626.171Zm-141.317-189.06c7.086-11.405 19.772-17.582 33.1-16.12a34.43 34.43 0 0 1 30.751 34.456l-.129 28.577a34.567 34.567 0 0 1-11.537 25.593c-7.285 6.499-17.174 9.472-26.879 8.41-2.697-.296-5.144-.749-7.601-1.613a34.43 34.43 0 0 1-23.006-32.707l.132-28.577a34.39 34.39 0 0 1 5.169-18.027" fill="#F2A068"/><path d="M393.663 383.867a12.895 12.895 0 0 0 11.558-3.472 1.43 1.43 0 0 0 0-2.041 1.476 1.476 0 0 0-2.064 0 9.994 9.994 0 0 1-6.772 2.87 10.004 10.004 0 0 1-6.903-2.539 1.477 1.477 0 0 0-1.05-.371 1.477 1.477 0 0 0-1.009.47 1.442 1.442 0 0 0-.378 1.04 1.42 1.42 0 0 0 .477.998 13.029 13.029 0 0 0 6.141 3.045Z" fill="#842306"/><path d="M408.492 447.222a6.361 6.361 0 0 1-7.017-.369l-.216-.162a6.361 6.361 0 0 1-2.142-7.409l11.275-29.097a5.651 5.651 0 0 0-1.44-6.199 5.293 5.293 0 0 0-3.528-1.453c8.328-12.092 31.74-38.669 31.74-38.669l8.475 44.987c1.887 6.363 4.182 9.237 9.38 9.237h2.824l-49.357 29.134h.006Zm46.883 104.269-11.228-25.942a.373.373 0 0 0-.38-.216l-9.127.98a26.058 26.058 0 0 1-11.506-1.373l-7.799-2.794a19.746 19.746 0 0 0-19.787 3.826l-20.582 19.741a4.388 4.388 0 0 0-1.511 3.967 3.76 3.76 0 0 0 2.066 2.895l.084.033a4.476 4.476 0 0 0 3.835-.326l2.278-1.432c.408.661 1.08 1.363 2.44 1.695a5.64 5.64 0 0 0 4.778-1.079l6.778-4.716a12.55 12.55 0 0 1 12.921-.864l6.909 3.541a23.545 23.545 0 0 0 10.682 2.581h28.816a.376.376 0 0 0 .342-.521" fill="#F2A068"/><path d="m405.007 531.784-34.115 9.738a4.34 4.34 0 0 1-5.104-6.184 4.339 4.339 0 0 1 2.556-2.118l33.705-11.051a5.042 5.042 0 0 1 3.863.265 5.025 5.025 0 0 1 2.226 6.791 5.02 5.02 0 0 1-2.956 2.501c-.054.019-.13.041-.186.058" fill="#F2A068"/><path d="M413.538 420.629a1.658 1.658 0 0 1-1.409-.668 1.664 1.664 0 0 1-.238-1.541c3.53-10.187 17.789-51.322 17.966-51.322a9.203 9.203 0 0 0 6.506-2.697 9.202 9.202 0 0 0 2.697-6.505c0-5.081-4.129-8.991-9.203-9.203-18.068-.753-46.396-5.592-46.448-20.89-.041-12.707 19.847-23.302 34.834-21.618 18.219 2.045 29.855 9.285 40.636 22.602 13.363 16.339 14.825 41.552 5.785 60.624-8.698 18.353-30.68 30.328-51.126 31.218Z" fill="#272727"/><path d="M444.346 0H254.12a19.646 19.646 0 0 0-19.631 19.63v78.955h209.857a19.651 19.651 0 0 0 19.627-19.63V19.63A19.651 19.651 0 0 0 444.346 0" fill="#007171"/><path d="M305.524 59.59c5.723 0 10.362-4.64 10.362-10.362 0-5.723-4.639-10.362-10.362-10.362-5.722 0-10.362 4.639-10.362 10.362 0 5.722 4.64 10.362 10.362 10.362Zm43.534.065c5.723 0 10.362-4.64 10.362-10.362 0-5.723-4.639-10.362-10.362-10.362s-10.362 4.639-10.362 10.362c0 5.722 4.639 10.362 10.362 10.362Zm43.46 0c5.723 0 10.362-4.64 10.362-10.362 0-5.723-4.639-10.362-10.362-10.362-5.722 0-10.362 4.639-10.362 10.362 0 5.722 4.64 10.362 10.362 10.362Z" fill="#fff"/><path d="M41.603 771.444c5.435-6.386 12.2-14.337 12.2-27.402v-2.086c0-.112.015-.216.02-.334v-24.14a5.021 5.021 0 0 1 5.022 5.063l-.024 7.475a20.943 20.943 0 0 1 39.207-.665v-6.851a5.022 5.022 0 0 1 5.022-5.022h.684v47.934c.78 10.664 2.937 17.15 3.023 17.392.687 1.947.897 4.031.612 6.076a12.908 12.908 0 0 1-6.861 9.68A12.901 12.901 0 0 1 94.573 800H46.71a12.9 12.9 0 0 1-12.901-12.901c0-6.493 3.785-10.943 7.794-15.655Zm183.694-52.228h22.736c4.612 0 9.581 3.74 11.094 8.349 2.416-4.134 6.573-7.032 12.023-7.989 2.109-.373 4.711 1.402 5.445 3.671l1.196 3.863c4.183 12.879 13.627 25.178 25.999 33.856 8.158 5.724 17.179 9.578 26.042 11.129l13.003 2.517c6.363 1.233 12.361 6.478 14.361 12.567 2.327 7.086-1.529 12.832-8.615 12.832h-31.989c-11.042 0-23.295-3.815-34.331-10.41-1.568-.937-3.06-.034-2.544 1.536l2.08 6.326c.462 1.408-.305 2.548-1.71 2.548h-28.83c-1.406 0-2.919-1.14-3.384-2.548L223.2 722.355c-.568-1.727.372-3.124 2.097-3.124" fill="#0A273D"/><path d="m47.656 285.39.162-.177h106.174l.128.358c.164.456 16.286 45.702 16.286 65.521 0 40.276-33.364 73.041-74.373 73.041-41.01 0-74.374-32.765-74.374-73.047 0-36.804 25.738-65.424 25.997-65.703" fill="#E03E52"/><path d="M131.405 347.199v380.729a12.626 12.626 0 0 1-12.608 12.608H34.332a12.627 12.627 0 0 1-12.61-12.608V347.199h109.683Z" fill="#E83452"/><path d="m156.207 276.418.365-.019 153.735 447.863a12.608 12.608 0 0 1-11.925 16.701h-83.078a12.606 12.606 0 0 1-11.925-8.514L68.941 340.806l87.266-64.388Z" fill="#E83452"/><path d="m266.261 150.876 2.894-7.952a5.644 5.644 0 0 0-10.578-3.93l-7.305 19.318a11.995 11.995 0 0 0 .905 10.354l2.556 4.305a4.416 4.416 0 0 1-.485 5.182l-8.531 9.66s23.818 29.901 23.449 28.798l21.656-31.002 9.667-13.819c.052-.067.108-.132.158-.201l4.234-6.046a6.494 6.494 0 0 0 .636-6.332 6.504 6.504 0 0 0-5.075-3.84 6.503 6.503 0 0 0-3.658-6.998 6.485 6.485 0 0 0-2.74-.608 6.49 6.49 0 0 0-2.694-5.069 6.477 6.477 0 0 0-5.662-.938l8.701-13.154a5.395 5.395 0 0 0-1.526-7.488 5.4 5.4 0 0 0-7.458 1.479l-19.152 28.298.008-.017Z" fill="#842306"/><path d="M290.477 174.848a7.335 7.335 0 0 1-5.195-2.16l-8.689-8.729a7.34 7.34 0 0 1-.818-9.369l6.542-9.38 1.669 1.164-6.529 9.382a5.293 5.293 0 0 0 .591 6.767l8.687 8.727a5.288 5.288 0 0 0 4.084 1.551 5.292 5.292 0 0 0 3.86-2.045l5.749-7.43a1.02 1.02 0 0 1 1.611 1.246l-5.75 7.43a7.318 7.318 0 0 1-5.344 2.83 6.927 6.927 0 0 1-.468.016Z" fill="#894915"/><path d="M276.095 177.27a1.017 1.017 0 0 1-.963-1.35l1.222-3.545a12.133 12.133 0 0 0-.729-9.584 12.117 12.117 0 0 0-7.476-6.04l-1.756-.49a1.015 1.015 0 0 1-.736-.859 1.02 1.02 0 0 1 1.285-1.102l1.753.49a14.166 14.166 0 0 1 8.729 7.056 14.159 14.159 0 0 1 .849 11.192l-1.222 3.545a1.013 1.013 0 0 1-.956.687Z" fill="#894915"/><path d="M279.953 200.635a11.47 11.47 0 0 0 1.815-8.672 11.463 11.463 0 0 0-4.912-7.373l-9.565-6.357a11.457 11.457 0 0 0-14.825 1.84l-47.36 52.138a21.98 21.98 0 0 0 2.943 32.25 21.956 21.956 0 0 0 31.384-5.003l40.52-58.823Z" fill="#842306"/><path d="M194.451 155.434a34.84 34.84 0 0 0-30.156-17.39 11.344 11.344 0 0 0-11.319 10.567c-.13 1.9.219 3.801 1.016 5.53 11.618 25.174 34.074 73.896 47.101 102.128a22.41 22.41 0 0 0 5.4 7.316 22.417 22.417 0 0 0 16.891 5.647 22.414 22.414 0 0 0 15.567-8.305 22.418 22.418 0 0 0 1.923-25.268c-13.046-22.546-34.036-58.821-46.423-80.225Z" fill="#842306"/><path d="M188.543 149.175a68.07 68.07 0 0 1-5.892-57.366l2.561-7.354-73.726-26.515-.119.345-12.955 18.302A92.435 92.435 0 0 1 83.965 92.63a58.592 58.592 0 0 0-19.055 54.11c.24 1.367.39 2.237.419 2.399a.036.036 0 0 0 .034.028h123.18v.007Z" fill="#FFBE3C"/><path d="M196.36 154.095a30.82 30.82 0 0 0-27.251-16.433H60.699a30.81 30.81 0 0 0-29.148 20.797l-18.205 52.993 46.052-.047-10.444 26.091 1.826 1.35-3.061 46.503h98.027a7.17 7.17 0 0 0 6.791-4.856l20.024-58.515.864 1.622 46.619-24.652-23.684-44.853Z" fill="#A8D7E2"/><path d="M178.35 235.89c4.513 0 6.154 3.671 3.671 8.173-2.484 4.502-8.169 8.172-12.679 8.172-4.511 0-6.156-3.67-3.671-8.172 2.485-4.502 8.168-8.173 12.679-8.173Z" fill="#fff"/><path d="M192.385 46.781c-3.211-14.466-14.162-25.547-28.582-28.903a38.002 38.002 0 0 0-44.641 24.658l-10.319 29.797a38.095 38.095 0 0 0 1.587 29.243 38.092 38.092 0 0 0 21.868 19.478 38.105 38.105 0 0 0 48.554-23.797l10.319-29.816a38.005 38.005 0 0 0 1.214-20.66Z" fill="#842306"/><path d="m126.22 72.154-11.443 38.358-.605-.6c-4.485-4.457-17.973-25.667-15.354-33.23l6.683-9.579a61.194 61.194 0 0 0 7.557-14.758l3.727-10.63c6.151-17.77 27.249-28.484 47.029-23.882 14.436 3.36 25.403 14.447 28.616 28.933 1.131 5.1 1.142 10.876.032 16.263l-.118.57s-59.35-11.761-60.378-12.091c-3.641-1.158-10.006.701-12.357 6.14a10.748 10.748 0 0 0 6.613 14.497l-.002.009Z" fill="#FFBE3C"/><path d="M83.293 137.727h-5.497v.496c0 20.117 16.084 36.491 35.853 36.491 19.77 0 35.843-16.365 35.843-36.491v-.496h-4.137c-4.616-.137-8.328-1.566-8.328-6.212 0-4.828 3.615-8.439 8.596-8.581l.49-.015-.773-53.697-19.649 6.045-13.428 42.673c-4.307 13.171-15.615 19.411-28.97 19.787Z" fill="#842306"/><path d="M133.723 52.06a10.733 10.733 0 0 1 4.571 15.96 10.733 10.733 0 0 1-11.093 4.393 10.738 10.738 0 0 1-7.595-14.762 10.746 10.746 0 0 1 14.117-5.59Z" fill="#007171"/><path d="M158.269 106.382c-.135 0-.269-.021-.397-.061-14.961-4.586-24.71-11.692-28.979-21.117-4.931-10.893-.611-20.741-.432-21.16a1.36 1.36 0 0 1 2.477 1.114c-.054.117-3.994 9.218.432 18.962 3.943 8.665 13.121 15.26 27.281 19.601a1.357 1.357 0 0 1-.397 2.656l.015.005Z" fill="#007171"/><path d="M125.391 254.569c-.935-6.585-4.081-11.227-3.862-11.858.57-1.63 4.102-6.603 6.717-10.148a5.057 5.057 0 0 0-1.151-6.856c.013-.017.013-.017 0-.019a5.88 5.88 0 0 0-6.809-.201 5.909 5.909 0 0 0-1.688 1.712c-1.984 3.075-4.497 6.968-6.602 10.233a13.358 13.358 0 0 1-12.05 6.089l-8.735-.542-3.023 14.369s38.125 3.723 37.203-2.779Z" fill="#842306"/><path d="M252.205 224.036a4.959 4.959 0 0 0-1.082-7.4 4.954 4.954 0 0 0-2.675-.783H141.3a5.603 5.603 0 0 0-4.253 1.943c-7.724 8.978-40.07 46.576-54.537 63.388a4.954 4.954 0 0 0 3.756 8.185h107.146a5.617 5.617 0 0 0 4.254-1.943l54.539-63.387v-.003Z" fill="#007171"/><path d="M176.45 243.378c4.448 0 6.069 3.611 3.614 8.061-2.455 4.45-8.053 8.06-12.503 8.06-4.451 0-6.068-3.612-3.615-8.06 2.453-4.448 8.054-8.061 12.504-8.061Z" fill="#fff"/><path d="M86.873 272.685s-56.502.071-67.388 0a19.656 19.656 0 0 1-14.221-6.346 19.652 19.652 0 0 1-5.137-14.702 19.235 19.235 0 0 1 13.917-17.093 19.238 19.238 0 0 1 7.749-.576l30.553 3.96 57.479 6.316c3.897.429 7.841.068 11.595-1.06l27.884-8.376a4.632 4.632 0 0 1 5.69 3.239 4.637 4.637 0 0 1-3.239 5.692l-18.748 5.143 3.022.702c4.319.842 6.022 1.237 10.883 2.522l10.494 2.478a4.636 4.636 0 0 1 3.331 5.64 4.63 4.63 0 0 1-5.64 3.33l-2.878-.741a4.635 4.635 0 0 1 2.68 5.42 4.642 4.642 0 0 1-2.13 2.833 4.635 4.635 0 0 1-3.51.496l-1.609-.412a5.778 5.778 0 0 1-.338 4.547 5.796 5.796 0 0 1-5.647 3.101h-26.213a34.86 34.86 0 0 1-14.289-3.062 34.86 34.86 0 0 0-14.29-3.051Z" fill="#842306"/></svg>