<svg class="sinch-icon" xmlns="http://www.w3.org/2000/svg" viewBox="0 0 929 800" fill="none" aria-hidden="true" focusable="false"><path d="M721.527 796.19a9.074 9.074 0 0 1-9.053-8.754l-3.007-85.959h24.129l-3.007 85.959a9.073 9.073 0 0 1-9.062 8.754Zm-708.768 0a9.076 9.076 0 0 1-9.052-8.754L.699 701.477h24.13l-3.008 85.959a9.074 9.074 0 0 1-9.062 8.754Zm164.309 0a9.065 9.065 0 0 1-9.053-8.754l-3.007-85.959h24.119l-3.007 85.959a9.062 9.062 0 0 1-9.052 8.754Z" fill="#005F5F"/><path d="M733.617 523.172V757.88H545.024V470.754h136.174a52.421 52.421 0 0 1 52.419 52.418Z" fill="#059688"/><path d="M607.864 364.569v248.888H.895v-265.16c0-36.167 32.8-49.215 39.02-49.215h502.463a65.487 65.487 0 0 1 65.486 65.487Z" fill="#005F5F"/><path d="M733.617 598.803H163.443V757.87h570.174V598.803Z" fill="#059688"/><path d="M522.852 325.807a17.504 17.504 0 0 1 2.534 24.252l-33.439 42.728a19.412 19.412 0 0 1-13.293 7.518 19.382 19.382 0 0 1-7.761-.716 19.386 19.386 0 0 1-6.854-3.713 19.402 19.402 0 0 1-1.782-28.032l36.271-40.359a17.508 17.508 0 0 1 24.324-1.678Z" fill="#F2A068"/><path d="m393.527 429.179 62.036-70.945 46.147 36.693-55.147 76.424a33.884 33.884 0 0 1-47.381 5.152 33.877 33.877 0 0 1-12.555-22.5 33.877 33.877 0 0 1 6.9-24.824Z" fill="#FFD03C"/><path d="M609.955 778.477v.731a21.222 21.222 0 0 1-21.235 20.761h-29.69a42.43 42.43 0 0 1-36.363-20.462v20.483h-37.774a268.052 268.052 0 0 1-4.202-20.741 343.307 343.307 0 0 1-1.812-12.955 298.31 298.31 0 0 1-1.936-34.159v-53.242h68.679v41.831c0 20.329 11.472 36.816 31.801 36.816h10.741c11.73-.03 21.657 9.238 21.791 20.937Z" fill="#E63855"/><path d="M609.945 779.238A21.225 21.225 0 0 1 588.71 800h-29.68a42.436 42.436 0 0 1-36.363-20.494v20.483h-37.774a268.028 268.028 0 0 1-4.202-20.74l129.254-.011Z" fill="#12364C"/><path d="m753.235 654.651.37.628a21.245 21.245 0 0 1-7.146 28.835l-25.241 15.602a42.406 42.406 0 0 1-41.708 1.689l10.771 17.425-32.12 19.865a258.55 258.55 0 0 1-14.489-15.447 258.246 258.246 0 0 1-8.352-10.072 298.716 298.716 0 0 1-19.629-28.052l-28.001-45.313 58.412-36.116 21.997 35.581c10.7 17.291 29.124 25.272 46.414 14.582l9.135-5.643c9.979-6.128 23.295-3.471 29.587 6.436Z" fill="#E63855"/><path d="M753.605 655.279a21.245 21.245 0 0 1-7.146 28.835l-25.241 15.602a42.406 42.406 0 0 1-41.708 1.689l10.772 17.425-32.121 19.865a258.55 258.55 0 0 1-14.489-15.447l109.933-67.969Z" fill="#12364C"/><path d="m422.537 521.874-116.37 3.666-12.358-57.588-29.556-138.481a29.252 29.252 0 0 1 18.804-32.266 29.266 29.266 0 0 1 13.285-1.605l9.927 1.483 13.625 2.06 39.061 5.829 6.179.68 4.49.679a46.8 46.8 0 0 1 2.06.268c28.083 4.119 48.103 29.515 46.847 57.876l-8.857 96.485 12.863 60.914Z" fill="#FFD03C"/><path d="M414.438 340.164c-6.572-17.514-26.098-26.383-43.612-19.811-17.514 6.573-26.383 26.099-19.811 43.612l36.907 98.346c6.573 17.513 26.098 26.383 43.612 19.81 17.514-6.572 26.384-26.098 19.811-43.612l-36.907-98.345Z" fill="#FFD03C"/><path d="m445.42 489.415 14.809-2.471-64.189 112.549h-5.036a85.833 85.833 0 0 1-84.961-73.323l-12.183-58.185 116.288-9.784s.628 3.46 5.283 13.944c8.898 20.04 30.957 16.951 30.957 16.951l-.968.319Z" fill="#12364C"/><path d="M172.299 573.336a25.325 25.325 0 0 0 25.314 25.323h117.74a12.625 12.625 0 0 0 12.615-12.234l12.996-126.782a17.6 17.6 0 0 1 3.234-10.298 34.531 34.531 0 0 0 6.261-25.138v-36.961a2.047 2.047 0 0 0-.269-1.036 2.063 2.063 0 0 0-2.82-.766l-9.722 5.602-6.003 3.45a9.145 9.145 0 0 1-6.849.927 34.947 34.947 0 0 0-11.04-1.03c-2.149.141-4.28.486-6.364 1.03a9.092 9.092 0 0 1-6.889-.906l-6.035-3.471-9.722-5.602a2.05 2.05 0 0 0-2.068.005 2.049 2.049 0 0 0-.752.761c-.18.316-.273.673-.269 1.036v37.589c0 .288-.083.587-.103.886a35.311 35.311 0 0 0 .762 11.132 12.913 12.913 0 0 1-3.213 11.637l-51.976 55.889-48.082 51.718a25.41 25.41 0 0 0-6.776 17.239h.03Z" fill="#12364C"/><path d="M335.197 420.231a5.899 5.899 0 0 0-9.117-2.985 5.907 5.907 0 0 0-2.139 2.985m-15.632 0a5.904 5.904 0 0 0-11.267 0" stroke="#FFD03C" stroke-miterlimit="10" stroke-linecap="round"/><path d="M225.397 589.297a203.805 203.805 0 0 1 31.925-.752c25.674 1.483 52.943 9.506 52.943 29.865 0 39.216-63.406 4.398-67.824 39.196-5.221 41.028 76.537 23.943 76.537 23.943" stroke="#12364C" stroke-width="18.43" stroke-miterlimit="10" stroke-linecap="round"/><path d="M223.08 516.262V757.88H.7V467.654h.195V342.922a39.874 39.874 0 1 1 79.492-1.741v132.776h100.388a42.299 42.299 0 0 1 39.085 26.116 42.303 42.303 0 0 1 3.22 16.189Z" fill="#059688"/><path d="m538.897 272.894-44.777 73.21a5.838 5.838 0 0 1-4.974 2.791h-43.984a5.829 5.829 0 0 1-4.974-8.866l44.787-73.221a5.82 5.82 0 0 1 4.964-2.781h43.994a5.824 5.824 0 0 1 5.085 2.977 5.817 5.817 0 0 1-.121 5.89Z" fill="#12364C"/><path d="M520.103 316.012a5.22 5.22 0 0 1-3.152-1.029l-24.983-18.537a5.292 5.292 0 0 1-2.065-5.575 5.287 5.287 0 0 1 2.444-3.29 5.304 5.304 0 0 1 4.06-.558c.68.181 1.317.496 1.874.927l24.983 18.537a5.29 5.29 0 0 1-.056 8.547 5.292 5.292 0 0 1-3.105.999v-.021Z" fill="#F2A068"/><path d="M525.674 318.144h-44.797a5.306 5.306 0 0 1-5.07-5.299 5.304 5.304 0 0 1 5.07-5.298h44.797a5.301 5.301 0 0 1 5.07 5.298 5.3 5.3 0 0 1-5.07 5.299Z" fill="#F2A068"/><path d="M528.269 328.669h-42.398a5.293 5.293 0 0 1 0-10.587h42.398a5.292 5.292 0 0 1 3.743 9.036 5.293 5.293 0 0 1-3.743 1.551Z" fill="#F2A068"/><path d="M523.419 338.967h-30.411a5.292 5.292 0 1 1 0-10.586h30.411c1.404 0 2.75.558 3.743 1.55a5.296 5.296 0 0 1 0 7.486 5.292 5.292 0 0 1-3.743 1.55Z" fill="#F2A068"/><path d="M530.782 293.109s-6.941 9.186-4.799 17.044c2.142 7.858 12.142 14.757-3.512 34.201" stroke="#F2A068" stroke-width="11.44" stroke-miterlimit="10" stroke-linecap="round"/><path d="m233.924 432.218-.154.052-6.601 1.905-2.966.865-9.907 2.853-5.788 1.678-3.563 1.041-3.388-10.35-6.818-20.895 6.262-1.504 25.23-6.076 2.668 10.556 5.025 19.875Z" fill="#F2A068"/><path d="M255.551 484.513h-.114a5.254 5.254 0 0 1-5.324-5.149c-.546-38.454-32.501-51.615-33.861-52.161a5.244 5.244 0 0 1-2.802-6.729 5.238 5.238 0 0 1 6.633-3.023c1.627.628 39.865 16.117 40.524 61.789a5.244 5.244 0 0 1-5.056 5.273Z" fill="#F2A068"/><path d="M244.387 491.3c-.24.016-.481.016-.721 0a5.237 5.237 0 0 1-4.675-5.746c4.181-40.73-30.339-54.354-31.811-54.921a5.243 5.243 0 1 1 3.697-9.814 65.824 65.824 0 0 1 21.214 14.346c9.351 9.392 19.958 25.931 17.332 51.491a5.229 5.229 0 0 1-5.036 4.644Z" fill="#F2A068"/><path d="M234.614 492.649a4.805 4.805 0 0 1-1.03-.072 5.244 5.244 0 0 1-3.419-2.1 5.23 5.23 0 0 1-.926-3.904c6.106-38.248-30.607-51.934-32.172-52.521a5.252 5.252 0 0 1-2.976-2.692 5.233 5.233 0 0 1-.201-4.007 5.236 5.236 0 0 1 2.691-2.976 5.233 5.233 0 0 1 4.008-.201 70.273 70.273 0 0 1 22.213 14.057c9.825 9.268 20.71 25.395 16.786 49.977a5.242 5.242 0 0 1-4.974 4.439Z" fill="#F2A068"/><path d="M221.216 478.531v1.843a5.24 5.24 0 0 1-5.067 5.149h-.319a5.249 5.249 0 0 1-5.149-5.386l.052-1.864c.484-17.311.329-22.574-6.179-28.495a21.134 21.134 0 0 0-2.214-1.658c-4.799-3.357-13.738-9.588-9.166-24.644.924-4.521.84-9.191-.247-13.676l1.812-.443 6.262-1.503c3.748 13.593 2.749 16.889 2.214 18.619a17.182 17.182 0 0 0-.783 4.191c-.206 4.521 2.482 6.395 5.911 8.795.052.039.107.074.165.103a35.762 35.762 0 0 1 3.141 2.41c10.309 9.443 10.041 19.072 9.567 36.559Zm7.178-68c2.585 11.328 14.778 23.11 17.837 27.291 2.286 3.089-4.789 6.858-4.789 6.858l-29.165-21.492 4.799-6.684 11.318-5.973Z" fill="#F2A068"/><path d="M482.916 0h271.163a52.015 52.015 0 0 1 52.017 52.017v129.819a52.018 52.018 0 0 1-52.017 52.017h-323.18V52.016A52.016 52.016 0 0 1 482.916 0Z" fill="#F2F2F2"/><path d="M879.224 525.439a59.163 59.163 0 1 1-105.269-37.074h92.221a58.883 58.883 0 0 1 13.048 37.074Z" fill="#059688"/><path d="M820.06 680.479c32.675 0 59.164-26.488 59.164-59.163s-26.489-59.164-59.164-59.164-59.163 26.489-59.163 59.164 26.488 59.163 59.163 59.163Z" fill="#059688"/><path d="M879.224 717.213a58.891 58.891 0 0 1-13.038 37.074h-92.241a59.164 59.164 0 1 1 105.279-37.074Zm-57.67-489.775c-3.667 7.826-20.514 46.671-20.514 97.596 0 50.925 16.847 89.77 20.514 97.597 3.655-7.827 20.514-46.672 20.514-97.597s-16.859-89.77-20.514-97.596Zm106.762 201.146a133.876 133.876 0 0 0-90.831 58.175 133.96 133.96 0 0 0 90.831-58.175Zm-212.979 0a133.876 133.876 0 0 1 90.831 58.175 133.872 133.872 0 0 1-90.831-58.175Zm33.006-124.559c-.7 8.61-2.935 50.894 14.85 98.617 17.785 47.722 47.135 78.266 53.294 84.291.7-8.62 2.935-50.904-14.84-98.616-17.775-47.712-47.135-78.236-53.304-84.292Zm146.421 0c.7 8.61 2.935 50.894-14.85 98.617-17.785 47.722-47.135 78.266-53.294 84.291-.7-8.62-2.935-50.904 14.84-98.616 17.775-47.712 47.135-78.236 53.304-84.292Z" fill="#059688"/><path d="M291.43 279.309H186.387c-18.706 0-33.871 15.164-33.871 33.871 0 18.706 15.165 33.871 33.871 33.871H291.43c18.706 0 33.871-15.165 33.871-33.871 0-18.707-15.165-33.871-33.871-33.871Z" fill="#FFD03C"/><path d="m219.486 306.888 18.001 92.499-57.289 13.944-26.539-90.419a33.876 33.876 0 0 1 65.827-16.024Z" fill="#FFD03C"/><path d="m681.178 628.018-72.757 45.838-86.259-136.905a42.987 42.987 0 0 1 13.45-59.298 42.987 42.987 0 0 1 59.297 13.501l86.269 136.864ZM382.775 220.867v5.149l-.381 54.149-.206 29.102a54.404 54.404 0 0 0-12.564-2.924l-4.49-.67-6.179-.679-39.061-5.829-13.624-2.06-9.928-1.483a29.213 29.213 0 0 0-12.183 1.205c-3.862-3.985-6.179-8.496-6.179-13.47v-.052c.007-1.041.138-2.078.392-3.089l.566-.896 10.298-18.29 35.014-57.608 40.678 12.121 6.756 2.06 11.091 3.264Z" fill="#12364C"/><path d="M370.871 311.017a17.18 17.18 0 0 1-2.833 22.739 17.18 17.18 0 0 1-22.913-.31l-17.219-15.859a24.902 24.902 0 0 1-8.022-18.32v-2.359h37.362v.742a9.637 9.637 0 0 0 6.807 9.217l1.73.525a9.54 9.54 0 0 1 5.088 3.625Zm17.702-91.509v44.385a24.31 24.31 0 0 1-15.001 22.464 24.3 24.3 0 0 1-9.303 1.851 7.011 7.011 0 0 0-7.013 7.013v.587h-37.362v-75.425c0-18.979 15.056-35.014 34.056-35.209a33.662 33.662 0 0 1 7.024.669l.299.051c.875.175 1.75.402 2.595.639a33.888 33.888 0 0 1 10.123 4.881l.515.361a32.825 32.825 0 0 1 4.026 3.439 34.339 34.339 0 0 1 10.041 24.294Z" fill="#F2A068"/><path d="M320.007 228.271v30.895a15.449 15.449 0 1 1 0-30.895Z" fill="#F2A068"/><path d="M388.573 219.517v8.939a40.501 40.501 0 0 1-18.372-12.502 38.853 38.853 0 0 1-2.904-3.944c-7.549 11.009-15.993 22.728-30.328 21.75-7.673-.525-9.063-4.707-17.095-5.541l-1.731-6.879c0-4.119 2.431-9.042 3.708-12.729 4.685-13.439 17.167-23.356 32.079-23.469a32.99 32.99 0 0 1 7.023.659l.299.051c.875.175 1.751.402 2.595.639a33.876 33.876 0 0 1 10.123 4.881l.515.361a33.756 33.756 0 0 1 4.027 3.439 34.336 34.336 0 0 1 10.061 24.345Z" fill="#12364C"/><path d="M357.256 266.086c0-10.323-8.368-18.691-18.691-18.691-10.323 0-18.691 8.368-18.691 18.691v46.116c0 10.322 8.368 18.691 18.691 18.691 10.323 0 18.691-8.369 18.691-18.691v-46.116Z" fill="#F2A068"/><path d="M352.879 353.734c-3.027 19.454-32.254 16.601-31.729-2.78.34-19.031 2.06-32.821-15.519-41.049-16.117-6.632-29.865-15.973-27.259-29.71.484-3.296 9.268-16.107 10.833-19.186l.278-.247 30.308 1.102v11.668a13.233 13.233 0 0 0 6.179 11.256c26.6 16.528 28.804 40.266 26.909 68.946Z" fill="#12364C"/><path d="M331.758 288.877a58.978 58.978 0 0 1 1.853 1.545c-.535-.453-1.163-.989-1.853-1.545Zm-1.267-1 1.267 1.03a27.272 27.272 0 0 0-1.267-1.03Zm4.367 3.624c-.412-.371-.835-.721-1.247-1.081.515.432.938.813 1.247 1.081Z" fill="#12364C"/><path d="M376.02 263.193a11.2 11.2 0 0 1-13.469 3.03 11.2 11.2 0 0 1-3.874-3.03" stroke="#894915" stroke-width="1.85" stroke-miterlimit="10" stroke-linecap="round"/><path d="M382.147 250.268c6.029 0 10.916-4.887 10.916-10.916 0-6.029-4.887-10.916-10.916-10.916-6.029 0-10.916 4.887-10.916 10.916 0 6.029 4.887 10.916 10.916 10.916Zm-26.847-.309c6.028 0 10.916-4.887 10.916-10.916 0-6.029-4.888-10.916-10.916-10.916-6.029 0-10.917 4.887-10.917 10.916 0 6.029 4.888 10.916 10.917 10.916Zm10.905-10.916h5.026" stroke="#F2F2F2" stroke-width="1.69" stroke-miterlimit="10" stroke-linecap="round"/><path d="M562.181 715.42h-86V553.593a43.002 43.002 0 0 1 73.407-30.402 42.991 42.991 0 0 1 12.593 30.402V715.42Z" fill="#12364C"/><path d="M516.055 509.023H391.724c-24.991 0-45.25 20.258-45.25 45.246 0 24.988 20.259 45.245 45.25 45.245h124.331c24.992 0 45.251-20.257 45.251-45.245 0-24.988-20.259-45.246-45.251-45.246Z" fill="#12364C"/><path d="m548.769 471.381-122.491 21.312c-24.621 4.283-41.108 27.713-36.825 52.332 4.284 24.618 27.715 41.103 52.337 36.819l122.491-21.312c24.621-4.284 41.108-27.714 36.825-52.332-4.284-24.619-27.716-41.103-52.337-36.819Z" fill="#12364C"/></svg>