<svg class="sinch-icon" xmlns="http://www.w3.org/2000/svg" viewBox="0 0 1111 800" fill="none" aria-hidden="true" focusable="false"><path d="M28.048 690.354a10.693 10.693 0 0 1-9.883-6.586 10.686 10.686 0 0 1 9.856-14.79l.027 21.376Zm3.263-21.326a10.69 10.69 0 0 1 10.702 10.675 10.688 10.688 0 0 1-10.675 10.701l-.027-21.376Z" fill="#0A273D"/><path d="M1091.38 7.94c0-.807-.16-1.605-.47-2.35a6 6 0 0 0-1.33-1.992 6.126 6.126 0 0 0-4.34-1.791H185.426a6.118 6.118 0 0 0-5.66 3.78 6.123 6.123 0 0 0-.467 2.343v523.2a6.127 6.127 0 0 0 6.127 6.124h899.814c1.62 0 3.18-.646 4.33-1.794a6.113 6.113 0 0 0 1.79-4.33V7.94h.02Z" fill="#059688"/><path d="M1091.95-.075H176.096V10.16h915.854V-.075Z" fill="#FFE1CC"/><path d="M174.292-.076v531.088h10.237V-.076h-10.237Zm911.938 0v531.088h10.24V-.076h-10.24Z" fill="#FFE1CC"/><path d="M791.332 511.442h-33.118a5.57 5.57 0 0 0-5.569 5.57 5.57 5.57 0 0 0 5.569 5.57h33.118a5.57 5.57 0 0 0 0-11.14Zm177.33 0h-20.773a5.57 5.57 0 1 0 0 11.14h20.773a5.57 5.57 0 0 0 0-11.14Zm-225.501 0h-15.656a5.57 5.57 0 0 0-5.569 5.57 5.57 5.57 0 0 0 5.569 5.57h15.656a5.57 5.57 0 0 0 0-11.14Z" fill="#fff"/><path d="M164.053 522.582h937.527c2.24 0 4.38.888 5.97 2.469a8.425 8.425 0 0 1 2.46 5.961c0 2.236-.88 4.38-2.46 5.961a8.46 8.46 0 0 1-5.97 2.469H164.053v-16.86Z" fill="#F2A068"/><path d="M155.689 799.864c74.184 0 134.322-4.665 134.322-10.42 0-5.754-60.138-10.42-134.322-10.42s-134.322 4.666-134.322 10.42c0 5.755 60.138 10.42 134.322 10.42Z" fill="#F2F2F2"/><path d="M196.481 513.568h-80.81v32.85h80.81v-32.85ZM15.89 447.887h6.97v32.085h-6.97A16.045 16.045 0 0 1-.15 463.931a16.044 16.044 0 0 1 16.04-16.044Zm182.539-31.504v4.474h-84.342v-4.474a42.17 42.17 0 1 1 84.342 0Zm98.056 63.589h-6.967v-32.085h6.967a16.043 16.043 0 1 1 0 32.088v-.003Z" fill="#0A273D"/><path d="M226.829 395.991H86.467c-38.506 0-69.722 31.216-69.722 69.722 0 38.506 31.216 69.722 69.722 69.722H226.83c38.506 0 69.722-31.216 69.722-69.722 0-38.506-31.216-69.722-69.722-69.722Z" fill="#CCC"/><path d="M222.424 420.836H90.872c-24.311 0-44.02 19.707-44.02 44.018 0 24.31 19.709 44.018 44.02 44.018h131.552c24.312 0 44.02-19.708 44.02-44.018 0-24.311-19.708-44.018-44.02-44.018Z" fill="#0A273D"/><path d="M153.955 734.611a83.938 83.938 0 0 1-78.05-53.064l-26.728-67.59c-10.896-34.412 14.794-69.496 50.88-69.496h111.697c38.896 0 64.73 40.265 48.527 75.623l-30.053 65.567a83.939 83.939 0 0 1-76.273 48.96Z" fill="#CCC"/><path d="M482.314 319.083 300.531 559.358l-8.237-6.34 185.673-237.274a2.74 2.74 0 0 1 4.878 1.319 2.736 2.736 0 0 1-.531 2.02Z" fill="#FFBE3C"/><path d="M32.913 629.591c16.18 0 29.297-13.117 29.297-29.297s-13.117-29.297-29.297-29.297-29.297 13.117-29.297 29.297 13.117 29.297 29.297 29.297Zm-3.236 50.538c8.124 0 14.71-6.587 14.71-14.711s-6.586-14.71-14.71-14.71c-8.125 0-14.71 6.586-14.71 14.71s6.585 14.711 14.71 14.711Z" fill="#CCC"/><path d="m4.582 607.794 10.508 59.543 29.215-.347 16.902-59.097-56.625-.099Z" fill="#CCC"/><path d="M319.059 519.572a10.705 10.705 0 0 1-4.168-7.039 10.702 10.702 0 0 1 2.03-7.925 10.705 10.705 0 0 1 7.039-4.168 10.675 10.675 0 0 1 7.924 2.031l-12.825 17.101Zm20.247-11.471a10.688 10.688 0 0 1-12.829 17.097l12.829-17.097Z" fill="#0A273D"/><path d="M276.147 606.28c16.181 0 29.297-13.117 29.297-29.297 0-16.181-13.116-29.297-29.297-29.297-16.18 0-29.297 13.116-29.297 29.297 0 16.18 13.117 29.297 29.297 29.297Zm41.494-64.884c8.124 0 14.71-6.586 14.71-14.71s-6.586-14.71-14.71-14.71-14.71 6.586-14.71 14.71 6.586 14.71 14.71 14.71Z" fill="#CCC"/><path d="m303.343 587.891 27.141-54.03-23.634-17.173-48.86 37.299 45.353 33.904Z" fill="#CCC"/><path d="M191.357 467.995a49.039 49.039 0 0 1-53.449 10.632 49.028 49.028 0 0 1-15.911-10.632" stroke="#FFBE3C" stroke-width="18" stroke-linecap="round" stroke-linejoin="round"/></svg>