<svg class="sinch-icon" xmlns="http://www.w3.org/2000/svg" viewBox="0 0 1398 800" fill="none" aria-hidden="true" focusable="false"><path d="m470.694 744.75-52.971-154.319-.761.042-182.101 134.355 6.841 19.922h228.992Z" fill="#E83452"/><path d="M365.204 738.182H136.323v6.564h228.881v-6.564Z" fill="#E03E52"/><path d="M518.218 524.499a39.003 39.003 0 0 0 10.531 16.181l76.352 70.264-29.059 65.96s-92.252-70.481-124.19-94.475a64.163 64.163 0 0 1-22.141-30.545c-18.45-54.078-47.588-206.898-47.588-206.898l67.672-22.141 68.437 201.631-.014.023Z" fill="#F2A068"/><path d="m325.951 362.984-137.28 36.785a78.268 78.268 0 0 1-82.365-27.957 78.264 78.264 0 0 1-13.508-27.394 81.467 81.467 0 0 1 29.102-85.73 81.482 81.482 0 0 1 28.514-14.059l14.23-3.814-3.736-13.995a81.459 81.459 0 0 1 55.771-99.258l23.787-6.965 18.04-53.336a85.332 85.332 0 0 1 39.423-47.28l25.527-14.174a30.973 30.973 0 0 1 41.296 10.66l28.169 45.07-70.66 18.94-3.201 70.816 6.891 211.719v-.028Z" fill="#842306"/><path d="M213.491 278.181h-.526a58.47 58.47 0 0 0-46.471 25.651L79.569 432.035l92.252 65.789 17.777-24.027.83 135.094 233.518-.277 27.947-160.057h41.698s-20.558-77.492-32.749-127.963a55.435 55.435 0 0 0-53.889-42.436h-190.45a66.361 66.361 0 0 0-3.026 0l.014.023Z" fill="#0A273D"/><path d="m277.297 202.286-5.041 75.974 41.975 85.301a29.6 29.6 0 0 0 26.568 16.517 30.897 30.897 0 0 0 24.158-11.633 30.902 30.902 0 0 0 5.972-26.139l-17.381-76.159a18.754 18.754 0 0 1-.392-5.872c.083-.922.185-2.034.295-3.228a18.738 18.738 0 0 1 12.371-15.951 73.725 73.725 0 0 0 12.916-3.229 85.609 85.609 0 0 0 57.196-81.311l-.328-71.034a85.603 85.603 0 0 0-12.855-44.816C405.14 12.353 373.609-3.003 340.467.632a85.603 85.603 0 0 0-76.449 85.68l.323 71.033a85.914 85.914 0 0 0 12.956 44.927v.014Z" fill="#F2A068"/><path d="m292.118 143.286 14.299-1.384a72.972 72.972 0 0 0 2.269 6.278c12.496 30.198 18.556 62.671 16.91 95.314l-.102 2.081a34.974 34.974 0 0 1-35.286 33.21l-74.687-.761 76.597-134.738Z" fill="#842306"/><path d="M307.191 145.394c.277 5.438 5.955.272 5.503 5.765-2.338 28.036-46.37 56.408-58.612 35.102-13.764-23.985 4.267-99.89 4.267-99.89-.18-42.348 36.647-80.836 82.104-85.845 33.183-3.635 64.756 11.739 82.399 40.13.222-.08.102.211 0 0-4.441 35.844-72.233 57.15-117.16 59.04-12.615.526-22.883 10.25-22.883 22.879a22.895 22.895 0 0 0 22.883 22.883c.499 0 .997 0 1.49-.051l.009-.013Z" fill="#842306"/><path d="M305.674 172.931c12.636 0 22.879-10.243 22.879-22.879 0-12.635-10.243-22.878-22.879-22.878-12.635 0-22.878 10.243-22.878 22.878 0 12.636 10.243 22.879 22.878 22.879ZM446.575 744.75c-.807-42.113-33.635-134.226-33.972-135.181l-.267-.747H190.783l-.336.369c-.535.59-53.507 59.502-54.235 135.559h310.363Z" fill="#E83452"/><path d="M1397.73 745.175c0-.351-4.2-.632-9.38-.632H9.776c-5.185 0-9.387.281-9.387.632v54.189c0 .35 4.202.636 9.387.636H1388.35c5.18 0 9.38-.286 9.38-.636v-54.189Z" fill="#F2F2F2"/><path d="m498.858 623.751-105.277-137.25a5.997 5.997 0 0 0-8.408-1.109l-2.58 1.979a5.996 5.996 0 0 0-1.108 8.408l105.277 137.25a5.996 5.996 0 0 0 8.408 1.108l2.58-1.979a5.995 5.995 0 0 0 1.108-8.407Z" fill="#842306"/><path d="M528.106 675.365c16.446-12.615 15.157-41.901-2.878-65.413-18.034-23.512-45.986-32.346-62.432-19.731-16.445 12.614-15.157 41.9 2.878 65.412 18.035 23.512 45.987 32.346 62.432 19.732Z" fill="#842306"/><path d="m12.1 530.297 67.47-98.262 96.887 65.789-33.46 48.834-130.896-16.361Zm548.6 120.292.545.498 27.869-18.303a52.26 52.26 0 0 0 14.124 1.647c11.494-.346 20.069-.462 25.881-5.854.318-.3 5.835-.922 6.457-.493 4.05 2.647 8.054 6.356 13.123 6.665a11.48 11.48 0 0 0 10.337-5.217c3.455-5.337 1.555-12.712-3.805-16.144l-13.838-9.354c-7.777-5.24-16.144-8.764-26.546-7.842l-16.324 1.453a25.616 25.616 0 0 1-8.902-.655" fill="#F2A068"/><path d="M423.992 637.655c0 59.719 48.409 108.128 108.129 108.128 59.719 0 108.123-48.409 108.123-108.128H423.992Z" fill="#FFBE3C"/><path d="M644.991 627.046h-226.94v13.838h226.94v-13.838Z" fill="#FFBE3C"/><path d="M652.611 625.077c.294.949.437 1.939.424 2.933l-1.757-.604a9.534 9.534 0 0 0-10.31 15.254 9.556 9.556 0 0 0-4.451 15.355 9.528 9.528 0 0 0-3.528 16.297 9.502 9.502 0 0 0-2.971 2.107l-2.472 2.602a9.548 9.548 0 0 0-2.621 6.815 9.532 9.532 0 0 0 2.967 6.672c.134.129.281.24.419.36a9.533 9.533 0 0 0 13.068-.706l2.468-2.578a9.502 9.502 0 0 0 .383-12.699 9.491 9.491 0 0 0 6.219-6.503 9.495 9.495 0 0 0-1.999-8.774 9.493 9.493 0 0 0 4.567-15.221c-.042-.046-.074-.097-.111-.139a9.748 9.748 0 0 0 2.869-1.434c.064-.046.129-.092.189-.143.152-.115.295-.24.461-.364.166-.125.332-.3.489-.462a11.911 11.911 0 0 0 3.51-10.013 11.928 11.928 0 0 0-5.862-8.843l-2.634-1.522c.275.515.503 1.054.683 1.61Z" fill="#F2A068"/><path d="M933.703 542.94a14.156 14.156 0 0 1 13.902-11.504h211.005a14.488 14.488 0 0 1 11.18 5.263 14.523 14.523 0 0 1 2.87 5.643c.53 2.069.59 4.23.19 6.327l-32.23 167.58H900.663l33.04-173.309Z" fill="#0A273D"/><path d="m895.395 743.869 5.268-27.62h239.957l-3.11 16.144a14.163 14.163 0 0 1-13.91 11.49l-228.205-.014Z" fill="#617582"/><path d="m916.451 701.406 29.678-155.805a1.995 1.995 0 0 1 1.96-1.623h210.251a1.958 1.958 0 0 1 1.53.724c.19.227.33.491.4.776.07.285.08.582.03.87l-29.68 155.805a2.001 2.001 0 0 1-1.96 1.623H918.389a2 2 0 0 1-1.522-.733 1.998 1.998 0 0 1-.416-1.637Z" fill="#fff"/><path d="M1053.11 539.398h14.6c.45 0 .88-.178 1.2-.495.31-.317.49-.746.49-1.194 0-.447-.18-.877-.49-1.194a1.707 1.707 0 0 0-1.2-.494h-14.6c-.45 0-.88.178-1.19.494-.32.317-.5.747-.5 1.194 0 .448.18.877.5 1.194.31.317.74.495 1.19.495Zm-8.35.525c1.22 0 2.21-.991 2.21-2.214 0-1.223-.99-2.214-2.21-2.214s-2.21.991-2.21 2.214c0 1.223.99 2.214 2.21 2.214ZM827.562 743.878h79.203v-27.629H799.928c0 3.629.715 7.222 2.104 10.574a27.618 27.618 0 0 0 14.955 14.954 27.627 27.627 0 0 0 10.575 2.101Z" fill="#617582"/><path d="m925.086 692.997 26.578-139.526a1.786 1.786 0 0 1 1.757-1.453h195.809c.26 0 .52.058.76.17a1.829 1.829 0 0 1 .97 1.172c.06.255.07.521.02.779l-26.57 139.531c-.08.411-.3.78-.63 1.045a1.79 1.79 0 0 1-1.15.404h-195.8a1.786 1.786 0 0 1-1.719-1.346 1.783 1.783 0 0 1-.025-.776Z" fill="#F2F2F2"/><path d="m1016.23 656.99-26.01-66.498a1.669 1.669 0 0 0-2.163-.947l-.833.326a1.67 1.67 0 0 0-.947 2.163l26.003 66.498a1.678 1.678 0 0 0 2.17.947l.83-.326a1.675 1.675 0 0 0 .95-2.163Z" fill="#842306"/><path d="M1020.04 673.002c5.36-2.096 7.27-10.007 4.27-17.67-2.99-7.663-9.77-12.176-15.13-10.08-5.36 2.096-7.27 10.007-4.27 17.67 2.99 7.663 9.77 12.176 15.13 10.08Z" fill="#842306"/><path d="M932.111 689.058h70.669" stroke="#E83452" stroke-width="2" stroke-miterlimit="10"/><path d="M1002.98 689.058h115.66" stroke="#617582" stroke-width="2" stroke-miterlimit="10"/><path d="M1043.87 631.345c9.37 0 16.96-7.594 16.96-16.961 0-9.367-7.59-16.96-16.96-16.96-9.37 0-16.96 7.593-16.96 16.96s7.59 16.961 16.96 16.961Z" fill="#0A273D"/><path d="M1042.65 614.029a1.85 1.85 0 0 0 2.44 0l6.96-6.061a.424.424 0 0 0 .13-.206.399.399 0 0 0-.02-.241.383.383 0 0 0-.37-.263h-15.84a.383.383 0 0 0-.37.263.399.399 0 0 0-.02.241c.02.08.07.152.13.206l6.96 6.061Zm10.37-4.386-5.71 4.972 5.71 4.972a.409.409 0 0 0 .44.064.395.395 0 0 0 .17-.151.35.35 0 0 0 .06-.222v-9.326a.35.35 0 0 0-.06-.222.395.395 0 0 0-.4-.184.407.407 0 0 0-.21.097Zm-18.3 0a.407.407 0 0 0-.61.087.437.437 0 0 0-.07.222v9.326a.437.437 0 0 0 .24.373.409.409 0 0 0 .44-.064l5.71-4.972-5.71-4.972Zm11.11 6.194a3.8 3.8 0 0 1-1.96.545c-.69 0-1.36-.189-1.95-.545l-5.7 4.964a.424.424 0 0 0-.13.206c-.02.08-.01.164.02.241.03.077.08.144.14.191a.43.43 0 0 0 .24.072h14.76c.08 0 .16-.026.23-.072a.383.383 0 0 0 .14-.191.399.399 0 0 0 .02-.241.424.424 0 0 0-.13-.206l-5.68-4.964Zm-3.28-35.373c7.18 0 12.99-5.82 12.99-12.999s-5.81-12.998-12.99-12.998c-7.18 0-13 5.819-13 12.998 0 7.179 5.82 12.999 13 12.999Z" fill="#FFBE3C"/><path d="M1046.6 563.198h-8.11c-.66.002-1.28.262-1.75.724-.46.463-.72 1.09-.72 1.744v5.609c0 .122.05.24.13.326.09.087.21.135.33.135h10.15a2.464 2.464 0 0 0 1.74-.724c.46-.462.72-1.089.73-1.744v-3.588c0-.327-.07-.652-.19-.954a2.568 2.568 0 0 0-.54-.808 2.579 2.579 0 0 0-.81-.537 2.502 2.502 0 0 0-.96-.183Z" fill="#0A273D"/><path d="M1045.44 568.272c.47 0 .84-.376.84-.839 0-.464-.37-.84-.84-.84-.46 0-.84.376-.84.84 0 .463.38.839.84.839Zm-2.89 0c.46 0 .84-.376.84-.839 0-.464-.38-.84-.84-.84-.47 0-.84.376-.84.84 0 .463.37.839.84.839Zm-2.91 0c.47 0 .84-.376.84-.839a.836.836 0 1 0-1.67 0c0 .463.37.839.83.839Z" fill="#FFBE3C"/><path d="M404.361 183.166c1.586.316 3.203.455 4.82.415a22.443 22.443 0 0 0 15.106-6.402 2.474 2.474 0 0 0 .738-1.76 2.463 2.463 0 0 0-.738-1.759 2.538 2.538 0 0 0-3.561 0 17.24 17.24 0 0 1-23.579.571 2.54 2.54 0 0 0-3.557.171 2.476 2.476 0 0 0-.649 1.794 2.472 2.472 0 0 0 .825 1.721 22.446 22.446 0 0 0 10.609 5.249" fill="#0A273D"/><path d="M1077.03 603.236c3.28 0 6.49-.974 9.22-2.799a16.637 16.637 0 0 0 6.12-7.452 16.666 16.666 0 0 0 .94-9.594 16.608 16.608 0 0 0-4.54-8.502 16.622 16.622 0 0 0-18.1-3.6 16.597 16.597 0 0 0-7.45 6.116 16.564 16.564 0 0 0-2.8 9.225c0 2.182.42 4.343 1.26 6.36a16.545 16.545 0 0 0 3.59 5.392 16.66 16.66 0 0 0 5.4 3.598c2.01.833 4.17 1.26 6.36 1.256Z" fill="#fff"/><path d="M1077.03 577.626c-5.2 0-9.14 3.806-9.14 8.861a8.59 8.59 0 0 0 2.9 6.573c.14.161.23.351.28.554l.07 1.665a.7.7 0 0 0 .34.601.718.718 0 0 0 .7.022l1.8-.831c.16-.056.32-.08.49-.069.85.222 1.74.338 2.62.346 5.19 0 9.14-3.81 9.14-8.861s-4.02-8.861-9.2-8.861Z" fill="url(#b)"/><path d="m1071.55 589.116 2.71-4.294a1.406 1.406 0 0 1 .92-.613 1.382 1.382 0 0 1 1.08.267l2.15 1.596c.1.068.22.104.34.104.13 0 .25-.036.35-.104l2.77-2.219c.41-.276.92.139.62.554l-2.63 4.294a1.386 1.386 0 0 1-1.49.593c-.19-.046-.36-.13-.51-.247l-2.15-1.591a.616.616 0 0 0-.35-.104c-.12 0-.24.036-.34.104l-2.84 2.214c-.42.281-.9-.139-.63-.554Z" fill="#fff"/><path d="M976.148 631.17a48.464 48.464 0 0 0 82.732 34.27 48.465 48.465 0 0 0 14.2-34.27h-96.932Z" fill="#FFBE3C"/><path d="M1075.21 626.414H973.486v6.204h101.724v-6.204Z" fill="#FFBE3C"/><path d="M59.518 615.491c30.794 0 55.757-24.963 55.757-55.757 0-30.794-24.963-55.757-55.757-55.757-30.794 0-55.757 24.963-55.757 55.757 0 30.794 24.963 55.757 55.757 55.757Zm244.177-166.145a122.38 122.38 0 0 1 62.012-8.382c1.693.213 3.229.379 4.571.494 10.54.89 24.05 10.318 29.41 17.846 7.611 10.692 43.783 72.137 43.783 72.137a10.47 10.47 0 0 1 1.007 7.946 10.46 10.46 0 0 1-4.907 6.332 10.467 10.467 0 0 1-14.278-3.9l-17.228-30.079" fill="#F2A068"/><path d="M401.838 548.9a10.149 10.149 0 0 1-10.148-10.148v-27.399l-20.586-12.579a10.138 10.138 0 0 1-4.923-6.284 10.15 10.15 0 0 1 15.49-11.017l25.444 15.544a10.144 10.144 0 0 1 4.852 8.649v33.086a10.15 10.15 0 0 1-10.129 10.148Z" fill="#F2A068"/><path d="M384.056 537.151a10.154 10.154 0 0 1-7.945-3.842 10.154 10.154 0 0 1-1.931-8.612l5.697-24.128-9.811-9.226a10.143 10.143 0 0 1-.006-13.906 10.15 10.15 0 0 1 13.881-.854l14.086 13.215a10.143 10.143 0 0 1 2.929 9.724l-7.043 29.839a10.148 10.148 0 0 1-9.857 7.79Z" fill="#F2A068"/><path d="M366.63 524.969a10.148 10.148 0 0 1-9.161-5.807l-4.419-9.345a10.147 10.147 0 0 1 7.722-14.378l1.669-7.076-9.806-9.225a10.152 10.152 0 0 1 2.546-16.972 10.135 10.135 0 0 1 7.961-.088 10.137 10.137 0 0 1 3.368 2.272l14.082 13.22a10.15 10.15 0 0 1 2.929 9.719l-7.039 29.839a10.154 10.154 0 0 1-3.162 5.299 10.154 10.154 0 0 1-6.69 2.542Z" fill="#F2A068"/><path d="m360.767 495.444 10.438-35.056-44.281-18.242-247.355 65.886-10.212 107.473 245.851-96.804s38.764-14.779 45.559-23.257Z" fill="#F2A068"/><defs><radialGradient id="b" cx="0" cy="0" r="1" gradientUnits="userSpaceOnUse" gradientTransform="translate(1072.56 594.513) scale(18.4504)"><stop stop-color="#09F"/><stop offset=".61" stop-color="#A033FF"/><stop offset=".93" stop-color="#FF5280"/><stop offset="1" stop-color="#FF7061"/></radialGradient></defs></svg>