<svg class="sinch-icon" xmlns="http://www.w3.org/2000/svg" viewBox="0 0 882 800" fill="none" aria-hidden="true" focusable="false"><path d="M297.694 190.879h276.167a105.848 105.848 0 0 1 105.856 105.848v363.342H191.846V296.727a105.848 105.848 0 0 1 105.848-105.848Z" fill="#12364C" stroke="#1B364A" stroke-width="1.07" stroke-miterlimit="10"/><path d="M363.237 295.76c50.393 0 91.244-40.851 91.244-91.243 0-50.393-40.851-91.244-91.244-91.244-50.392 0-91.243 40.851-91.243 91.244 0 50.392 40.851 91.243 91.243 91.243Z" fill="#FFBE3C"/><path d="M509.115 295.76c50.392 0 91.243-40.851 91.243-91.243 0-50.393-40.851-91.244-91.243-91.244-50.392 0-91.243 40.851-91.243 91.244 0 50.392 40.851 91.243 91.243 91.243Z" fill="#FFBE3C"/><path d="M367.473 155.192a92.8 92.8 0 0 1 18.048-140.186 92.803 92.803 0 0 1 119.314 140.186 91.476 91.476 0 0 0-20.587 38.018 90.428 90.428 0 0 0-2.26 10.892h-91.633a94.487 94.487 0 0 0-2.428-11.521 91.61 91.61 0 0 0-20.454-37.389Z" fill="#FFE1CC"/><path d="M528.966 92.803a92.523 92.523 0 0 1-24.087 62.389 89.753 89.753 0 0 0-7.427 9.34v-57.08a53.623 53.623 0 0 0-15.708-37.933 53.646 53.646 0 0 0-37.933-15.709h-15.279a53.638 53.638 0 0 0-49.558 33.114 53.638 53.638 0 0 0-4.083 20.528v57.089a88.575 88.575 0 0 0-7.418-9.349 92.827 92.827 0 0 1-21.66-83.798 92.816 92.816 0 0 1 56.882-65.236A92.824 92.824 0 0 1 518.288 49.52a92.837 92.837 0 0 1 10.678 43.283Z" fill="#FFBE3C"/><path d="M454.977 160.35a24.305 24.305 0 0 1-18.801 8.904 24.311 24.311 0 0 1-18.801-8.904" stroke="#14374B" stroke-width="4.67" stroke-miterlimit="10" stroke-linecap="round"/><path d="M350.609 96.879h15.952v55.343h-15.952a18.44 18.44 0 0 1-18.451-18.406v-18.495a18.45 18.45 0 0 1 5.405-13.044 18.44 18.44 0 0 1 13.046-5.398Zm171.143 55.344H505.8V96.879h15.952a18.442 18.442 0 0 1 18.433 18.442v18.46a18.444 18.444 0 0 1-18.433 18.442Z" fill="#fff"/><path d="M509.15 152.214V84.322a63.806 63.806 0 0 0-63.806-63.806h-18.176a63.806 63.806 0 0 0-63.807 63.806v67.901" stroke="#fff" stroke-width="8.6" stroke-miterlimit="10"/><path d="M363.423 130.457v34.393a22.501 22.501 0 0 0 22.501 22.501h26.205" stroke="#fff" stroke-width="8.6" stroke-miterlimit="10"/><path d="M417.827 176.559h-12.735c-5.741 0-10.395 4.652-10.395 10.39 0 5.739 4.654 10.391 10.395 10.391h12.735c5.741 0 10.395-4.652 10.395-10.391 0-5.738-4.654-10.39-10.395-10.39Z" fill="#fff"/><path d="M374.891 125.902h122.57" stroke="#14374B" stroke-width="5" stroke-miterlimit="10"/><path d="M410.977 143.431c9.681 0 17.529-7.848 17.529-17.529 0-9.681-7.848-17.529-17.529-17.529-9.681 0-17.529 7.848-17.529 17.529 0 9.681 7.848 17.529 17.529 17.529Zm50.398 0c9.681 0 17.529-7.848 17.529-17.529 0-9.681-7.848-17.529-17.529-17.529-9.681 0-17.529 7.848-17.529 17.529 0 9.681 7.848 17.529 17.529 17.529Z" fill="#FFE1CC" stroke="#14374B" stroke-width="5" stroke-miterlimit="10"/><path d="M420.344 39.791v25.496l60.608 22.128 11.91-17.316-28.146-28.146-44.372-2.162Z" fill="#FFBE3C"/><path d="M495.21 92.111a72.58 72.58 0 0 1-96.445-29.289 53.386 53.386 0 0 1 29.75-9.004h15.296a53.65 53.65 0 0 1 51.399 38.293Z" fill="#FFBE3C"/><path d="M881.381 510.957H.675v289.052H881.38V510.957Z" fill="#F2F2F2"/><path d="M652.218 672.414H220.133a17.151 17.151 0 0 1-16.27-22.589l29.032-86.715a17.144 17.144 0 0 1 16.27-11.715h374.066a17.143 17.143 0 0 1 16.27 11.715l28.979 86.715a17.14 17.14 0 0 1-2.345 15.46 17.157 17.157 0 0 1-13.917 7.129Zm-513.943 6.601h-17.041a33.818 33.818 0 0 1-32.045-44.638l18.876-55.892a33.813 33.813 0 0 1 32.045-23.042h17.006a33.82 33.82 0 0 1 33.45 28.823 33.83 33.83 0 0 1-1.405 15.824l-18.876 55.884a33.813 33.813 0 0 1-32.01 23.041Z" fill="#12364C" stroke="#1B364A" stroke-width="1.07" stroke-miterlimit="10"/><path d="M136.99 614.517h-2.942a5.843 5.843 0 0 1-5.539-7.71l3.261-9.66a5.849 5.849 0 0 1 5.539-3.979h2.942a5.843 5.843 0 0 1 4.749 2.439 5.856 5.856 0 0 1 .79 5.28l-3.288 9.659a5.829 5.829 0 0 1-5.512 3.971Z" fill="#666"/><path d="M733.013 462.127a52.654 52.654 0 0 1-23.839 34.686l-43.955 27.383-48.599-67.227.319-.195-29.112-42.148a10.048 10.048 0 0 0-15.837-.9 10.044 10.044 0 0 0-2.419 5.491l-8.286 73.82-2.011 17.919H313.122l-1.914-17.201-8.419-75.539a10.048 10.048 0 0 0-18.246-4.618l-29.865 43.07.221.142-48.679 67.289-43.743-27.286a52.652 52.652 0 0 1-14.658-75.753L274.28 248.012a52.682 52.682 0 0 1 49.007-21.189l41.04 5.113c11.379 1.418 22.394-5.494 25.461-16.554a24.37 24.37 0 0 0 .85-7.994c0-.416-.053-.797-.079-1.152-.027-.354 0-.496-.053-.726-.063-.576-.107-1.055-.16-1.401h91.633c-.097.674-.186 1.356-.275 2.039 0 .168 0 .363-.053.576a23.99 23.99 0 0 0 .984 9.269c3.35 10.723 14.179 17.29 25.345 15.899l40.402-5.069a52.668 52.668 0 0 1 49.025 21.189L723.85 421.06a52.673 52.673 0 0 1 9.163 41.067Z" fill="#E83452"/><path d="m388.866 608.935-12.469-45.905a37.001 37.001 0 0 0-8.241-15.952v-3.554a30.514 30.514 0 0 0-23.76-28.624l-2.499-1.01-86.971-57.089-48.741 67.351 43.37 27.587c.886.514 1.711.993 2.57 1.445l23.928 17.954a19.405 19.405 0 0 1 7.479 12.186l5.495 34.783a8.87 8.87 0 0 0 3.49 5.923 8.853 8.853 0 0 0 6.675 1.645 8.857 8.857 0 0 0 7.337-10.333l-5.503-34.854v-.133a40.41 40.41 0 0 0-.479-2.331 4.438 4.438 0 0 1 .646-3.501 4.431 4.431 0 0 1 6.23-1.13 4.428 4.428 0 0 1 1.791 2.779l10.254 55.281a8.862 8.862 0 0 0 8.108 7.223 9.018 9.018 0 0 0 2.225-.124 8.863 8.863 0 0 0 7.089-10.333l-10.12-54.502a4.246 4.246 0 0 1 6.61-4.253 4.243 4.243 0 0 1 1.72 2.64l11.14 55.415a8.869 8.869 0 0 0 3.779 5.632 8.865 8.865 0 0 0 9.848-.019 8.854 8.854 0 0 0 3.758-5.647 8.865 8.865 0 0 0-.007-3.458l-11.042-54.945a3.46 3.46 0 0 1 .56-2.658 3.466 3.466 0 0 1 1.009-.951 3.462 3.462 0 0 1 1.302-.476 3.447 3.447 0 0 1 3.811 2.473c.656 2.321 1.418 5.148 1.418 5.148l11.175 41.164a8.854 8.854 0 0 0 4.423 5.52 8.86 8.86 0 0 0 7.053.524 9.094 9.094 0 0 0 5.539-10.891Zm93.672 0 12.469-45.906a36.992 36.992 0 0 1 8.241-15.951l-.053-1.835v-1.719a30.518 30.518 0 0 1 23.777-28.624l2.517-.993 86.971-57.089 48.742 67.352-43.353 27.614c-.842.514-1.702.992-2.57 1.444l-23.928 17.954a19.42 19.42 0 0 0-7.488 12.186l-5.486 34.783a8.864 8.864 0 0 1-17.511-2.765l5.503-34.854v-.133c.133-.789.293-1.56.479-2.331a4.43 4.43 0 0 0-3.669-5.397 4.433 4.433 0 0 0-4.998 3.545l-10.254 55.317a8.847 8.847 0 0 1-3.54 6.089 8.874 8.874 0 0 1-6.863 1.584 8.878 8.878 0 0 1-5.851-3.922 8.864 8.864 0 0 1-1.142-6.95l10.121-54.502a4.255 4.255 0 0 0-1.957-4.396 4.25 4.25 0 0 0-1.588-.584 4.254 4.254 0 0 0-4.786 3.367l-11.157 55.379a8.858 8.858 0 0 1-6.961 7.181 8.87 8.87 0 0 1-6.763-1.359 8.866 8.866 0 0 1-3.645-9.314l11.042-54.944a3.446 3.446 0 0 0-2.872-4.085 3.456 3.456 0 0 0-3.819 2.472c-.647 2.322-1.418 5.149-1.418 5.149l-11.175 41.199a8.871 8.871 0 0 1-4.407 5.499 8.872 8.872 0 0 1-7.025.545 9.083 9.083 0 0 1-5.583-11.006Z" fill="#FFE1CC"/></svg>