<svg class="sinch-icon" xmlns="http://www.w3.org/2000/svg" viewBox="0 0 153 100" fill="none" aria-hidden="true" focusable="false"><path d="M11.462 0H141.53c6.312 0 11.295 5.15 11.295 11.462v77.076c0 6.313-5.149 11.462-11.461 11.462H11.296C4.984 100-.166 94.85-.166 88.538L0 11.462C0 5.149 5.15 0 11.462 0Z" fill="#059688"/><path d="M114.95 35.216h17.94c2.658 0 4.984-2.16 4.984-4.983v-9.635c0-2.658-2.16-4.983-4.984-4.983h-17.94c-2.658 0-4.983 2.16-4.983 4.983v9.635c0 2.823 2.159 4.983 4.983 4.983Z" fill="#FFD03C"/><path d="M65.947 23.09H18.44c-1.329 0-2.492-1.163-2.492-2.492v-2.325c0-1.33 1.163-2.492 2.492-2.492h47.342c1.33 0 2.492 1.163 2.492 2.492v2.325c0 1.329-.997 2.492-2.326 2.492ZM41.529 35.382h-23.09c-1.329 0-2.492-1.163-2.492-2.492v-2.325c0-1.33 1.163-2.492 2.492-2.492h23.09c1.329 0 2.491 1.163 2.491 2.492v2.325c0 1.495-.996 2.492-2.491 2.492ZM152.824 61.13H0v21.76h152.824V61.13Z" fill="#007171"/></svg>