<svg class="sinch-icon" xmlns="http://www.w3.org/2000/svg" viewBox="0 0 875 659" fill="none" aria-hidden="true" focusable="false"><path fill="#DEF2FF" fill-rule="evenodd" d="M307.105 326.053c-1.601-6.891-4.679-14.697-10.857-19.584-5.062-3.294-12.492-7.421-18.042-7.216-9.059.33-18.923 3.5-26.745 10.046-3.652 3.046-7.333 6.134-10.496 10.127-3.218 4.092-5.802 9.046-7.815 14.488-4.153-2.914-8.664-4.512-13.381-4.512-7.392 0-14.281 3.927-20.076 10.698-.169-.107-.339-.21-.51-.309-3.75-2.196-8.014-2.549-12.149-2.314-3.238.157-6.54.706-9.393 2.628-2.468 1.687-4.487 4.315-6.443 6.865-2.781 3.638-5.633 7.495-7.351 11.965l-.182-.001c-9.873 0-22.77 10.889-22.77 24.321 0 12.415 11.017 22.657 20.481 24.137 17.329 5.073 55.84 7.785 97.097 7.785 54.434 0 85.161-1.703 103.777-12.183 0-.424-.243-.837-.713-1.237 5.174-4.461 9.096-11.095 9.096-18.502 0-11.237-9.025-20.693-17.756-23.485-6.382-21.908-19.277-36.879-34.161-36.879-4.048 0-7.948 1.108-11.611 3.162Zm-18.801 23.279c-.28-.144-.561-.283-.844-.419l1.668-1.4a74.073 74.073 0 0 0-.824 1.819Zm412.651-170.589c1.452-6.255 4.246-13.341 9.854-17.777 4.594-2.989 11.338-6.736 16.376-6.549 8.222.299 17.175 3.176 24.274 9.117 3.315 2.766 6.656 5.568 9.528 9.193 2.919 3.713 5.265 8.209 7.093 13.148 3.768-2.644 7.862-4.094 12.144-4.094 6.709 0 12.962 3.565 18.222 9.711.153-.097.307-.19.462-.28 3.404-1.993 7.274-2.314 11.027-2.1 2.939.142 5.936.641 8.525 2.385 2.24 1.531 4.073 3.917 5.848 6.231 2.524 3.302 5.113 6.802 6.672 10.859l.165-.001c8.962 0 20.667 9.883 20.667 22.075 0 11.266-9.996 20.561-18.585 21.907-15.726 4.605-50.684 7.067-88.134 7.067-49.406 0-77.296-1.545-94.193-11.057 0-.386.221-.76.649-1.124-4.696-4.049-8.256-10.07-8.256-16.793 0-10.198 8.19-18.78 16.113-21.315 5.793-19.885 17.497-33.475 31.007-33.475 3.675 0 7.216 1.007 10.542 2.872Zm17.062 21.129c.255-.131.511-.258.769-.382l-1.519-1.275c.255.544.505 1.097.75 1.657Z" clip-rule="evenodd"/><path fill="#DEF2FF" d="M599.095 394.132c-4-18.9-19.1-34.2-36.7-42.2s-37.5-9.7-56.8-9.2c-31.5.8-65.8 8.5-93 24.4-12.7 7.4-25.5 14.9-36.5 24.6-24.2 21.5-38.1 52.8-43.9 84.7 54.4 8.8 109.6 12.5 164.7 10.9M74.996 527.933c3.4-16.8 15.4-30.2 27-42.6 6.1-6.5 12.4-13.2 20.1-17.5 8.9-4.9 19.2-6.3 29.3-6.7 12.9-.6 26.2.3 37.9 5.9 11.7 5.5 21.7 16.4 23.5 29.6-32.9 20.4-65.6 42.4-98.5 62.8-.9.5-1.8 1.1-2.9 1.1-1.1 0-2.1-.8-2.9-1.5-11.7-9.7-23.1-19.9-33.5-31.1Z"/><path fill="#F5B486" d="m78.394 478.832 12.6 10.3c6.2 3.5 13.601 3.1 22.501 1.3l35.2-9.4 11.2 49.1-64.2 14.2-8.8-20.3-8.5-45.2Z"/><path fill="#DEF2FF" d="M36.196 599.834c-3.8-17.9 88.9-36.7 100.4-50.9 13.4-16.5 33.4-28.2 54.6-28.8 21.2-.7 43.1 10.8 52.2 30 18-59 87.4-88.3 144.8-76.7 35.3 7.1 67.3 29.2 86.5 59.7 22.4-43.3 52.8-82.5 89.4-114.8 26.7-23.7 64.7-44.3 100.9-47.3 38.4-3.2 58.3 11.2 89.9 32.7 11.2 7.7 27.2 18.7 35.4 29.5 9 11.9 15.9 29.4 20.7 43.5 9.6 28.1 1.3 52-.9 81.7-2.3 31.5-19.7 59-49 72.5-13 6-43.8 10.3-43.8 10.3s-555.8 1.3-631.3 0c-25.9-.4-43.5-12.1-49.8-41.4Z"/><path fill="#FFBE3C" d="M136.746 483.85c.014-2.359 1.642-4.371 3.959-4.82 29.427-5.703 117.462-18.514 144.245-27.314 34.591-11.365 56.745-15.883 72.945-11.783l113.7 28.9-50.9 70.2s-38.3-70.2-95.2-70.2c-111.3 0-183.6 60.2-183.6 60.2-4.976-5.632-5.213-34.385-5.149-45.183Z"/><path fill="#DEF2FF" d="M86.094 641.233c0-95.8 77.7-173.6 173.6-173.6 95.9 0 173.5 77.7 173.5 173.6h-347.1Z"/><path fill="#F5B486" d="m244.293 506.836 12.8-10c4.7-5.2 25.725-26.728 25.925-35.828l12.575-22.172h40.9l-26.3 53.5-8.2 25.7-57.7-11.2Z"/><path fill="#6EBBEE" d="m191.932 509.48 19.589 2.218c7.303.838 14.561-1.267 20.344-5.89l16.816-13.399c12.23-9.807 11.552 5.539 11.552 5.539s12.93 10.524 27.49 13.095c23.318 4.118 18.033-12.619 27.029-11.144 1.423.252 2.415 1.669 2.163 3.092l-9.673 41.567c-.92 3.954-4.368 6.792-8.428 6.813-15.925.083-57.183-.733-98.654-10.029-15.002-3.363-27.572-13.57-25.915-22.309 1.688-8.281 9.38-10.455 17.687-9.553ZM49.784 439.324l6.901 18.467c2.562 6.889 7.728 12.405 14.47 15.465l19.565 8.918c14.284 6.458.297 12.808.297 12.808s-3.521 16.295.785 30.44c6.897 22.652 19.422 10.355 22.183 19.043.421 1.383-.393 2.909-1.775 3.33l-41.438 10.214c-3.942.972-8.034-.815-9.892-4.425-7.291-14.158-25.262-51.306-35.769-92.486-3.8-14.897-.398-30.728 8.142-33.212 8.147-2.248 13.57 3.623 16.531 11.438Z"/><path fill="#FFCF6E" d="M454.797 530.231c16.6 16.1 66.1 22.2 115.3 4.6 25.3-9 60.739-40.152 60.739-40.152s-94.639-52.248-119.339-74.148"/><path fill="#DEF2FF" d="M78.895 639.832c34.242 0 62-27.758 62-62 0-34.242-27.758-62-62-62-34.242 0-78.97 27.758-78.97 62 0 34.242 44.728 62 78.97 62Z"/><path fill="#FFCF6E" d="m511.493 420.532-56.7 109.7c-29.7-49.7-53.807-58.319-105.5-182.7-19.7-38.9 30.6-73.6 61.2-42.6l101 115.6Z"/><path fill="#DEF2FF" d="M303.195 635.331c0-84.9 68.9-153.8 153.8-153.8s153.8 68.9 153.8 153.8h-307.6Z"/><path fill="#FFCF6E" d="M325.87 483.978c1.832.677 3.719.047 5.015-1.415 10.85-12.239 60.779-71.411 53.206-115.728-5.498-32.176-32.896-56.804-32.896-56.804s-53.451 105.274-77.349 138.406c-2.204 3.055-1.429 7.465 1.846 9.328 12.419 7.063 39.756 22.364 50.178 26.213Z"/><path fill="#F5B486" d="m569.177 288.719-82.523-78.172-15.517 21.028c43.118 47.977 30.426 52.525 61.813 90.959 6.485 6.696 40.906 37.78 47.401 30.106 8.799-10.397-11.174-63.921-11.174-63.921Z"/><path fill="#059688" d="M610.56 314.378s-25.564-16.435-36.814-30.093c-1.602-1.944-4.899-1.361-5.752 1.009-9.301 25.86-26.088 42.661-33.302 49.495-1.424 1.35-1.302 3.699.323 4.8 5.814 3.94 21.424 21.174 29.146 21.174 0 0-42.378 46.252-66.321 44.257 19.253 20.513 57.643 117.647 104.454 102.713 27.307-8.712 48.6-55 48.6-55s46.501-101.8 2.4-111.2c-21-14.5-28.234-15.155-42.734-27.155Z"/><path fill="#F5B486" d="M644.456 347.815s-14.9-5.8-6.1-16.2c8.9-10.4 4.303-18.969-6.249-33.735-13.159-18.414-18.106-21.719-4.916-48.671 7.781-15.901 30.687-37.096 30.687-37.096s17.678 8.102 37.978 24.502c20.3 16.5 0 101.8 0 101.8l-23.899 29"/><path fill="#703E29" d="M645.371 218.022c-5.699 32.385 32.349 31.529 7.97 45.837-35.656 20.925-65.763 77.723-.004 83.702 60.258 12.603-7.144 60.472 43.156 60.572 60.3.1 132.794-72.727 64.965-88.473-32.959-7.651-54.457-15.177-42.847-49.324s-22.039-58.338-37.367-62.278c-12.057-3.099-32.14-.57-35.873 9.964Z"/><path fill="#F5B486" d="M463.841 201.668c-3.844-3.677-5.661-7-10.484-5.869l-6.71 2.051 4.403-1.556-9.785-9.192c-2.796-2.97-10.695-10.889-11.254-13.364a4.39 4.39 0 0 1 0-1.909c.35-1.768 1.678-3.252 3.565-3.677l17.824 13.93 5.242 3.606c6.5 3.606 7.199 2.481 10.969 6.205l5.121 5.601"/><path fill="#F5B486" d="m432.795 215.623 5.403-6.303 10.314-1.801 9.741 9.168 10.314-14.325-11.624-11.051c-1.228-1.146-2.947-1.719-4.666-1.392l-14.898 2.62a5.394 5.394 0 0 0-3.52 2.292s-7.858 12.033-9.25 14.325c-1.555 2.538-1.146 5.566.573 7.04 2.211 1.964 5.649 1.719 7.613-.573Z"/><path fill="#F5B486" d="M452.033 204.406c-1.228-1.146-2.947-1.637-4.584-1.391l-15.471 2.537c-2.046.328-3.683 1.801-4.338 3.766l-2.865 9.414c-.082.163-.082.327-.164.491-.573 2.701.409 4.899 3.029 5.717 2.865.901 3.664-.931 5.526-3.258l2.91-4.635a3.725 3.725 0 0 1 2.557-1.696l7.916-1.285"/><path fill="#F5B486" d="m490.506 214.393-23.33-22.756-19.073 15.962s-1.93 3.648-1.904 6.169c5.121 3.259 6.57 7.536 10.241 11.172 5.509 5.455 12.037 3.388 18.379 10.318l15.687-20.865Z"/><path fill="#DEF2FF" d="M815.496 595.535c-48.6 55.9-152.4 58.599-208.2 9.899-55.9-48.599-44.2-100.999 4.4-156.899 48.6-55.9 101.4-27.8 175.5-27.8 73 0 76.9 118.9 28.3 174.8Z"/><path fill="#DEF2FF" d="M689.496 393.132c49.8-28.1 112.545-47.508 164.941 20.974 42.084 55.005 29.022 196.483-124.98 226.179"/><path fill="#F5B486" d="M626.47 479.472c15.214-2.723 31.422-27.294 45.822-39.794-35.761-14.061-43.664-31.834-43.664-31.834l-17.53 28.071 15.372 43.557Z"/><path fill="#059688" d="M681.794 350.633c-8.5 1.4-61.496-9.03-70.696-15.93l32.696 52.93 38-37Z"/><path fill="#F5B486" d="M621.987 433.99s20.596 29.924 10.319 42.757c-5.793 7.233-37.769 3.823-56.988-6.641-19.22-10.465-31.768-17.475-70.651-51.604 4.744-13.911 9.811-20.735 9.811-20.735 34.955 11.356 70.684 32.512 107.509 36.223Z"/><path fill="#DEF2FF" d="M767.596 628.156c-64.562 26.715-171.126 31.057-359.906 31.057-188.779 0-360.981-12.037-369.752-34.046 0-15.411 180.973-21.761 369.752-21.761 188.78 0 359.906 9.339 359.906 24.75Z"/><path fill="#059688" d="m633.428 380.783-9.834 32.612s19.439 24.039 47.554 28.949c1.92.335 3.842-.588 4.696-2.34 4.311-8.837 6.262-21.006 24.101-44.792 10.1-13.4 16.748-41.036-1.911-49.609-11.1-5.1-36.206-4.92-47.406 11.38-11.3 16.4-17.2 23.8-17.2 23.8Z"/><mask id="b" width="99" height="91" x="126" y="152" maskUnits="userSpaceOnUse" style="mask-type:alpha"><path fill="#C4C4C4" d="M126.02 160.711a8.273 8.273 0 0 1 8.273-8.273h81.446a8.273 8.273 0 0 1 8.274 8.273v73.099a8.273 8.273 0 0 1-8.274 8.274h-20.254a8.274 8.274 0 0 1-8.274-8.274v-29.669a8.274 8.274 0 0 0-2.768-6.176l-4.056-3.615a8.274 8.274 0 0 0-11.178.153l-3.695 3.48a8.273 8.273 0 0 0-2.601 6.023v2.574a8.274 8.274 0 0 1-8.274 8.274h-20.346a8.274 8.274 0 0 1-8.273-8.274v-45.869Z"/></mask><g stroke-width="12.411" mask="url(#b)"><rect width="36.826" height="105.17" x="156.596" y="183.209" stroke="#059688" rx="18.413"/><rect width="61.648" height="129.991" x="144.185" y="170.799" stroke="#FFBE3C" rx="30.824"/><rect width="85.784" height="154.444" x="132.119" y="158.572" stroke="#EF5858" rx="42.892"/></g><path fill="#DEF2FF" fill-rule="evenodd" d="M194.269 219.944c.548-2.593 1.602-5.529 3.717-7.368 1.733-1.239 4.277-2.791 6.178-2.714 3.102.124 6.479 1.317 9.157 3.779 1.251 1.146 2.511 2.308 3.594 3.81 1.102 1.539 1.987 3.402 2.676 5.449 1.422-1.096 2.966-1.697 4.581-1.697 2.532 0 4.891 1.478 6.876 4.027.058-.041.117-.08.176-.117 1.284-.826 2.744-.959 4.16-.871 1.108.059 2.239.266 3.216.989.845.635 1.536 1.623 2.206 2.582.952 1.368 1.928 2.819 2.516 4.5l.061-.001c3.381 0 7.797 4.097 7.797 9.15 0 4.672-3.776 8.526-7.018 9.08-5.935 1.908-19.119 2.927-33.243 2.927-18.638 0-29.159-.64-35.534-4.582 0-.16.083-.315.245-.466-1.772-1.678-3.114-4.173-3.114-6.959 0-4.228 3.09-7.785 6.08-8.835 2.185-8.241 6.6-13.873 11.697-13.873 1.386 0 2.721.417 3.976 1.19Zm6.437 8.755c.095-.054.191-.106.288-.157l-.57-.526c.096.224.19.452.282.683Zm-52.088-30.56c-.602-2.593-1.76-5.529-4.084-7.367-1.904-1.239-4.699-2.792-6.787-2.715-3.408.124-7.119 1.317-10.061 3.779-1.374 1.146-2.759 2.308-3.949 3.81-1.21 1.539-2.182 3.403-2.939 5.45-1.563-1.097-3.26-1.698-5.035-1.698-2.78 0-5.372 1.478-7.552 4.025a5.331 5.331 0 0 0-.19-.115c-1.41-.826-3.014-.959-4.57-.87-1.218.059-2.46.265-3.533.988-.929.635-1.688 1.624-2.424 2.583-1.046 1.368-2.118 2.818-2.765 4.499h-.07c-3.714 0-8.565 4.096-8.565 9.149 0 4.669 4.143 8.521 7.703 9.079 6.518 1.909 21.005 2.929 36.525 2.929 20.476 0 32.035-.641 39.038-4.583 0-.159-.091-.314-.267-.464 1.947-1.679 3.423-4.174 3.423-6.961 0-4.227-3.395-7.784-6.679-8.834-2.401-8.242-7.252-13.874-12.851-13.874-1.523 0-2.99.417-4.368 1.19Zm-7.072 8.755a18.655 18.655 0 0 0-.317-.157l.627-.526c-.106.225-.209.452-.31.683Z" clip-rule="evenodd"/><path fill="#F5B486" d="M481.556 375.328 465.4 365.026l-17.268-6.241c-2.134-1.12-2.997-3.81-1.989-5.982 1.03-2.169 2.329-2.063 4.554-1.144l18.234 5.018 17.121 9.08a5.208 5.208 0 0 1 1.743 1.171c.498.499.889 1.1 1.161 1.762.265.654.387 1.364.372 2.072a5.439 5.439 0 0 1-.456 2.056 5.432 5.432 0 0 1-1.221 1.714 5.28 5.28 0 0 1-1.797 1.098 5.416 5.416 0 0 1-2.083.316 5.237 5.237 0 0 1-2.042-.522l-.181-.087.008-.009Z"/><path fill="#F5B486" d="m507.98 420.895 8.418-22.748a39.24 39.24 0 0 1-15.923-15.334l-4.088-7.691a20.648 20.648 0 0 0-7.534-7.985 20.71 20.71 0 0 0-10.554-3.027l-29.977.801a4.468 4.468 0 0 0-2.244.492 4.647 4.647 0 0 0-1.727 1.529 3.967 3.967 0 0 0-.443 3.711l.059.054c.257.51.609.967 1.029 1.349.613.558 1.371.94 2.175 1.118l2.764.472a3.948 3.948 0 0 0 .036 1.598c.121.524.346 1.02.672 1.455a5.94 5.94 0 0 0 1.965 1.771 5.826 5.826 0 0 0 2.543.731l8.573 1.103a13.27 13.27 0 0 1 6.522 2.752 13.314 13.314 0 0 1 4.163 5.718l2.856 7.661a24.734 24.734 0 0 0 6.492 9.554c7.898 6.505 14.129 9.898 24.239 14.915l-.016.001Z"/><path stroke="#FFBE3C" stroke-linecap="round" stroke-width="8.241" d="m389.023 129.573 13.744-13.401m-.175 13.571L389.191 116m203.032 51.983 13.743-13.401m-.174 13.571-13.401-13.743M739.43 91.573l13.743-13.401m-.174 13.571L739.598 78M223 53.303l13.743-13.4m-.174 13.571L223.168 39.73"/><path stroke="#FFBE3C" stroke-linecap="round" stroke-width="9.872" d="m501.617 39.422 24.729-24.113m-.307 24.421L501.926 15"/></svg>