<svg class="sinch-icon" xmlns="http://www.w3.org/2000/svg" viewBox="0 0 363 400" fill="none" aria-hidden="true" focusable="false"><path d="M123.38 312.535c3.428-2.347 8.075-1.455 10.517 1.972 2.441 3.427 1.784 8.216-1.456 10.892l-26.479 25.258-37.23.282 54.648-38.404Z" fill="#6D3A10"/><path d="M96.995 327.887c40.751 0 73.756-33.943 73.756-75.821s-33.051-75.822-73.756-75.822c-40.75 0-73.756 33.944-73.756 75.822s33.005 75.821 73.756 75.821Z" fill="#FFBE3C"/><path d="m.798 374.836 15.211-32.77 1.878-3.991c3.521-7.559 9.578-13.521 17.043-16.901l1.408-.611L82.3 300c4.273-1.925 9.296-.235 11.644 3.944 2.347 4.178 1.267 9.483-2.442 12.347L71.08 331.925c-1.737 1.314-.798 4.178 1.361 4.178h78.122c4.038 0 7.371 3.193 7.653 7.324.282 4.132-2.582 7.841-6.573 8.404l-59.765 8.451a68.266 68.266 0 0 0-17.934 5.164l-13.334 5.962a18.766 18.766 0 0 0-9.39 9.249l-7.088 14.883c-1.315 2.817-4.038 4.46-6.902 4.46a7.649 7.649 0 0 1-3.145-.704L4.553 385.587C1.831 384.319 0 381.502 0 378.263c0-1.221.329-2.347.798-3.427Z" fill="#894915"/><path d="m227.324 172.535.845-1.878c-3.145 1.456-6.854.845-9.39-1.502-2.582-2.394-3.521-6.056-2.441-9.437 3.24-10.187 7.183-22.535 10.188-31.972 2.817-8.873 10.798-14.976 19.859-15.211 11.925-.328 28.31-.798 39.061-1.08 7.371-.187 14.554-2.394 20.845-6.338 7.23-4.507 16.949-10.61 23.615-14.835 4.226-2.63 9.718-1.315 12.348 3.051 5.164 8.592 13.474 22.348 18.685 31.033 1.268 2.113 1.643 4.648 1.08 7.089a9.206 9.206 0 0 1-4.132 5.728 28575.184 28575.184 0 0 0-29.53 17.981c-1.268.752-2.16 1.972-2.535 3.428-4.179 15.539-17.935 26.338-33.615 26.431-3.662 0-14.273-27.558-14.273-28.215.094-3.569-1.502-6.996-4.037-9.437-2.535-2.441-5.963-3.662-9.39-3.38-4.507.375-8.404 3.427-9.953 7.793-1.408 3.944-3.239 8.967-4.836 13.474-2.77 7.794-6.338 15.258-10.563 22.301-.939 1.596-1.925 3.192-2.77 4.648-2.253 3.709-6.667 5.399-10.704 4.037-2.77-.939-4.93-3.145-5.822-6.009-.939-2.817-.469-5.963 1.221-8.404l6.244-9.296Z" fill="#842306"/><path d="M288.357 161.08c0-1.784-1.409-3.24-3.146-3.24h-79.906c-1.737 0-3.145 1.456-3.145 3.24v82.159c0 1.785 1.408 3.24 3.145 3.24h79.906c1.737 0 3.146-1.455 3.146-3.24V161.08Z" fill="#007071"/><path d="M64.977 105.164a10.895 10.895 0 0 1 4.084 6.151c.563 2.3 1.22 4.788 1.22 4.788l47.466-22.817-73.615-47.37-34.32 18.356s43.052 31.925 55.165 40.892Z" fill="#EB5C2A"/><path d="M158.685 157.183a1.924 1.924 0 0 1-.845 1.737c-.563.376-1.267.47-1.878.188-14.929-7.042-82.394-38.967-97.605-46.15-.61-.282-1.033-.892-1.127-1.596-.047-.705.235-1.409.798-1.785 13.99-9.906 76.385-54.178 90.282-64.037a1.79 1.79 0 0 1 1.925-.14c.61.328 1.033.938 1.08 1.642 1.173 17.136 6.244 93.287 7.37 110.141Z" fill="#E03E52"/><path d="M39.061 85.54c52.582 28.779 71.221-14.695 74.319-14.789 6.62-.282 18.216.047 18.216.047 8.733 2.348 18.169-2.112 19.766-9.437 1.314-6.056-4.226-11.08-12.958-13.427l-18.357-4.882a38.077 38.077 0 0 0-20.892.375c-11.596 3.521-21.737-.14-34.883-10.798L37.465 3.991c-7.324-5.4-15.212-5.775-20.47 1.737L2.065 42.91C-1.83 49.155-.046 57.465 6.01 61.455" fill="#F2A068"/><path d="M226.667 127.84c2.817-8.873 10.798-14.976 19.859-15.211 11.925-.329 28.31-.798 39.061-1.08 7.371-.188 14.554-2.394 20.845-6.338 7.23-4.507 16.948-10.657 23.615-14.835 4.225-2.63 9.718-1.315 12.347 3.051 5.165 8.592 13.474 22.348 18.686 31.033 1.267 2.113 1.643 4.648 1.08 7.089-.564 2.395-2.066 4.507-4.132 5.728-9.343 5.681-32.113 21.408-32.113 21.408s-.187.47-.469 1.315c-5.587 14.93-19.39 24.836-34.93 25.023-.657 0-1.314 0-1.924.047-3.662.047-7.184 1.503-9.86 4.038-3.38 3.192-7.981 7.512-10.704 10.047a7.049 7.049 0 0 1-5.352 1.878 9.954 9.954 0 0 1-7.7-4.836c-1.69-2.77-1.971-6.197-.845-9.249.329-.892.564-1.455.564-1.455s6.197-13.662 16.948-16.855c3.662-1.784 6.056-5.586 6.197-9.765 0-.61.47-7.277-3.756-11.408-2.535-2.442-5.962-3.662-9.389-3.381" fill="#842306"/></svg>