<svg class="sinch-icon" xmlns="http://www.w3.org/2000/svg" viewBox="0 0 663 400" fill="none" aria-hidden="true" focusable="false"><path d="M399.021 21.99A26.666 26.666 0 0 0 372.833.326H27.643a27.295 27.295 0 0 0-26.8 32.458L61.57 348.302h399.66L399.021 21.991Z" fill="#0A273D"/><path d="m471.145 400.31-9.915-52.008H61.57l5.85 30.386a26.681 26.681 0 0 0 26.203 21.644l377.522-.022Z" fill="#CCC"/><path d="m431.538 320.359-55.88-293.36a3.747 3.747 0 0 0-3.689-3.053H28.204a3.754 3.754 0 0 0-3.689 4.426l55.88 293.351a3.741 3.741 0 0 0 3.69 3.054H427.85a3.756 3.756 0 0 0 3.688-4.418Z" fill="#FFBE3C"/><path d="M542.126 270.948h-95.768l24.787 129.362h95.767l-24.786-129.362Z" fill="#059688"/><path d="M542.126 270.948h95.804l-20.19 108.315a25.763 25.763 0 0 1-25.333 21.047h-25.495l-24.786-129.362Z" fill="#007171"/><path d="M199.378 15.322h-27.493a3.181 3.181 0 0 1-3.18-3.18 3.18 3.18 0 0 1 3.18-3.18h27.493a3.181 3.181 0 0 1 3.18 3.18 3.18 3.18 0 0 1-3.18 3.18Zm15.721.996a4.175 4.175 0 1 0 0-8.35 4.175 4.175 0 0 0 0 8.35Z" fill="#CCC"/><path d="M124.274 370.028h-16.642a4.291 4.291 0 0 0-2.921 7.262 4.297 4.297 0 0 0 2.921 1.317h16.642a4.295 4.295 0 0 0 2.92-7.262 4.295 4.295 0 0 0-2.92-1.317Zm33.476 0h-16.642a4.295 4.295 0 0 0-2.92 7.262 4.295 4.295 0 0 0 2.92 1.317h16.642a4.293 4.293 0 0 0 0-8.579Zm20.774-.989a5.287 5.287 0 0 0-4.88 3.261 5.285 5.285 0 0 0 1.145 5.756 5.279 5.279 0 0 0 9.017-3.735 5.285 5.285 0 0 0-5.282-5.282Z" fill="#0A273D"/><path d="M512.36 374.387c7.167 0 12.976-5.809 12.976-12.976 0-7.166-5.809-12.976-12.976-12.976-7.166 0-12.976 5.81-12.976 12.976 0 7.167 5.81 12.976 12.976 12.976Z" fill="#007171"/><path d="m542.148 270.948 24.787-129.355h95.767l-24.787 129.355h-95.767Z" fill="#059688"/><path d="M566.935 141.593c-35.004 0-49.359-14.606-70.081-31.3-23.982-19.32-34.716-29.943-63.56-33.934l-92.713-11.803a17.803 17.803 0 0 0-19.918 17.704 17.811 17.811 0 0 0 14.149 17.425l81.884 16.657 30.113 48.547S406 152.71 390.301 147.922a21.657 21.657 0 0 0-25.118 9.93l-.258.45a21.07 21.07 0 0 0-1.664 17.53 21.09 21.09 0 0 0 12.22 12.678c11.383 4.471 44.107 17.159 57.799 23.031 29.729 12.762 43.678 35.837 66.562 48.105 22.883 12.268 42.734 11.331 42.306 11.331l24.787-129.355v-.029Z" fill="#F2A068"/><path d="m424.988 158.199 21.821 6.698-30.113-48.555 8.292 41.857Z" fill="#894915"/><path d="M446.395 271.014a58.005 58.005 0 0 1-22.793-4.562 57.997 57.997 0 0 1-19.174-13.143l-1.918-1.991a89.778 89.778 0 0 0-96.601-21.312l-72.818 30.245a15.716 15.716 0 0 0-9.662 18.43 15.715 15.715 0 0 0 3.48 6.652c-5.481 3.445-8.564 9.966-7.023 16.325a14.919 14.919 0 0 0 18 11.028l3.113-.737a14.92 14.92 0 0 0 2.213 14.859 14.928 14.928 0 0 0 14.017 5.405l6.919-1.121a15.004 15.004 0 0 0 .797 7.583 15.173 15.173 0 0 0 14.289 9.59h74.249c7.377 0 14.23 3.143 18.509 8.425 21.806 26.948 53.851 43.583 88.523 43.583h10.667l-24.787-129.259Z" fill="#F2A068"/></svg>