<svg class="sinch-icon" xmlns="http://www.w3.org/2000/svg" viewBox="0 0 69 100" fill="none" aria-hidden="true" focusable="false"><path d="M66.309 55.839c-2.685-1.61-6.175-.805-7.785 1.88l-.269.536a14.716 14.716 0 0 1-4.698 4.832c-1.879 1.074-4.027 1.745-6.174 1.611-2.148 0-4.161-.94-5.906-2.148-1.611-1.342-2.82-3.087-3.356-5.234-1.208-4.027.403-8.994 4.027-11.41 3.624-2.55 8.59-2.819 12.886-.403l.402.269c2.014 1.074 4.564.805 6.31-.94 2.012-2.147 1.878-5.369-.135-7.382-3.356-3.222-7.92-5.37-12.752-5.638a20.507 20.507 0 0 0-8.59 1.074L39.866 5.1a5.098 5.098 0 0 0-5.1-5.101c-2.82-.134-5.236 2.148-5.37 5.1l-.134 6.444c-.806-1.88-2.55-3.222-4.698-3.222a5.334 5.334 0 0 0-5.37 5.1l-.133 5.907a5.385 5.385 0 0 0-2.014-.403c-2.819 0-5.1 2.416-5.235 5.37l-.402 22.818a40.844 40.844 0 0 1-9.128 25.1l-.671.94C.537 74.497-.134 76.107-.134 77.718c0 2.148.94 4.027 2.55 5.37l19.06 15.436A6.936 6.936 0 0 0 25.773 100h.94c1.879-.268 3.49-1.208 4.698-2.684l15.57-19.464c2.416 0 4.832-.268 7.114-.94 2.282-.67 4.564-1.744 6.577-3.22 4.027-2.82 6.846-6.98 8.054-11.679.671-2.281-.268-4.832-2.416-6.174Z" fill="#842306"/></svg>