<svg class="sinch-icon" xmlns="http://www.w3.org/2000/svg" viewBox="0 0 470 800" fill="none" aria-hidden="true" focusable="false"><path d="M292.51 167.246c-.288 0-.479-.192-.479-.48 0-3.21-1.773-4.84-3.69-6.517-1.965-1.773-3.978-3.594-3.978-7.236s2.013-5.463 3.978-7.236c1.869-1.677 3.69-3.307 3.69-6.517 0-3.211-1.773-4.841-3.69-6.518-1.965-1.773-3.978-3.594-3.978-7.236s2.013-5.463 3.978-7.236c1.869-1.677 3.69-3.307 3.69-6.517 0-.288.191-.48.479-.48.287 0 .479.192.479.48 0 3.642-2.013 5.463-3.977 7.236-1.869 1.677-3.69 3.306-3.69 6.517 0 3.211 1.773 4.84 3.69 6.517 1.964 1.774 3.977 3.595 3.977 7.237s-2.013 5.463-3.977 7.236c-1.869 1.677-3.69 3.306-3.69 6.517 0 3.211 1.773 4.84 3.69 6.517 1.964 1.773 3.977 3.594 3.977 7.236 0 .24-.24.48-.479.48Z" fill="#272727"/><path d="M292.941 106.434c12.439 0 22.523-10.084 22.523-22.523 0-12.44-10.084-22.523-22.523-22.523s-22.523 10.084-22.523 22.523 10.084 22.523 22.523 22.523Z" fill="#FFBE3C" stroke="#FFBE3C" stroke-miterlimit="10"/><path d="M301.231 89.613c-.479 4.121-4.025 7.332-8.29 7.332-4.265 0-7.763-3.21-8.291-7.332h16.581Z" fill="#F2F2F2" stroke="#F2F2F2" stroke-miterlimit="10"/><path d="M288.916 80.844a.862.862 0 0 1-.719-.336 4.845 4.845 0 0 0-3.642-1.677c-1.39 0-2.732.623-3.642 1.677-.336.383-.959.431-1.342.096-.383-.335-.431-.958-.096-1.342a6.81 6.81 0 0 1 5.128-2.348c1.965 0 3.834.863 5.127 2.348.336.384.288 1.007-.095 1.342-.288.144-.48.24-.719.24Zm16.82 0a.864.864 0 0 1-.719-.336 4.843 4.843 0 0 0-3.642-1.677 4.847 4.847 0 0 0-3.642 1.677c-.335.383-.958.431-1.342.096-.383-.335-.431-.958-.095-1.342a6.807 6.807 0 0 1 5.127-2.348 6.81 6.81 0 0 1 5.128 2.348c.335.384.287 1.007-.096 1.342-.24.144-.479.24-.719.24Z" fill="#272727"/><path d="M343.402 360.561c-1.054 0-2.108-.288-3.114-.815l-26.166-13.945c-3.354-1.773-4.6-5.942-2.827-9.297 1.773-3.354 5.942-4.6 9.297-2.827l26.165 13.945c3.354 1.773 4.6 5.942 2.827 9.297-1.294 2.348-3.69 3.69-6.182 3.642Z" fill="#842306"/><path d="M386.723 333.101c.096 5.176-4.025 9.393-9.201 9.489l-49.886.719 13.322 16.724-79.118-32.826 13.754-23.434 22.283 8.962a158.392 158.392 0 0 0 61.579 11.405l17.683-.24h.288c5.127.096 9.201 4.17 9.296 9.201ZM201.22 153.205c-3.307 2.108-5.895 6.038-5.559 9.967l.239 2.396c.048.288.048.527.096.815l-43.321 3.93c0-.288 0-.528-.048-.815l-4.744-50.461-1.725-18.594c-.479-5.271.192-10.399 1.917-15.095.287-.767.575-1.486.862-2.252a31.824 31.824 0 0 1 2.924-5.32c.335-.479.67-1.006 1.054-1.485 5.559-7.476 14.041-12.7 24.008-13.706a34.198 34.198 0 0 1 25.159 7.715 33.446 33.446 0 0 1 5.272 5.464 37.401 37.401 0 0 1 2.635 3.93c.671 1.197 1.294 2.395 1.821 3.69 1.342 3.114 2.205 6.516 2.54 10.063l2.588 27.602c1.198 13.322-5.272 25.495-15.718 32.156Z" fill="#842306"/><path d="M175.486 98.239a17.684 17.684 0 0 1-11.981 18.21l-.766-7.716c-.432-4.265-4.217-7.379-8.435-6.948h-.191c-4.265.383-7.38 4.217-6.949 8.434l.863 8.722h-.096l-1.725-18.594c-.479-5.271.191-10.399 1.917-15.095.287-.767.575-1.486.862-2.204a31.896 31.896 0 0 1 2.923-5.32c0-.048.048-.048.096-.096.144-.191.288-.43.432-.623.191-.24.335-.479.527-.718 5.559-7.476 14.041-12.7 24.008-13.706A34.198 34.198 0 0 1 202.13 70.3a33.399 33.399 0 0 1 5.271 5.464 37.409 37.409 0 0 1 2.636 3.93c.671 1.197 1.294 2.395 1.821 3.69l-37.762-3.547 1.39 18.402Z" fill="#081B2B"/><path d="M177.594 205.919c-11.932 1.054-22.427-7.764-23.481-19.696l-3.786-43.273c-1.054-11.933 7.763-22.427 19.696-23.482 11.932-1.054 22.427 7.764 23.481 19.696l3.786 43.273c1.054 11.932-7.763 22.427-19.696 23.482Z" fill="#842306"/><path d="m317.045 308.422-17.347 53.337a14.693 14.693 0 0 1-1.534-.527l-108.925-40.638c-14.52-5.415-21.9-21.564-16.485-36.084 5.415-14.521 21.565-21.9 36.085-16.485l108.206 40.397Z" fill="#059688"/><path d="M256.185 312.975c0 17.491 9.68 54.294 15.623 68.863l-17.779 1.485-25.207-43.896 16.821-25.254 7.523-2.492 3.019 1.294Z" fill="#081B2B"/><path d="m253.598 230.79 2.635 85.108H132.931l-1.964-.096-28.562-101.162c-4.36-28.177 14.185-48.88 41.644-46.819.431.048.863.096 1.342.096 2.061.192 3.786-.479 4.936-1.677.958-1.055 1.533-2.54 1.438-4.313l44.279 4.456c1.006 3.834 4.6 7.093 8.434 7.476.431.048.863.096 1.342.144 27.651 3.498 43.417 28.657 47.778 56.787Z" fill="#005F5F"/><path d="m205.772 174.051-61.723-6.182c.431.048.863.096 1.294.096 2.061.191 3.786-.432 4.936-1.677.958-1.055 1.533-2.588 1.438-4.313l44.279 4.456c1.006 3.834 4.6 7.093 8.434 7.476.479.048.911.096 1.342.144Z" fill="#059688"/><path d="M132.74 393.675s-12.843-23.242-1.582-77.729h125.123v15.191c0 38.242-25.35 72.074-62.25 82.09-4.792 1.294-9.248 2.06-13.178 2.06-25.686 0-48.113-21.612-48.113-21.612Z" fill="#081B2B"/><path d="M256.281 315.898v.911l-.048-.911h.048Z" fill="#081B2B"/><path d="M208.456 124.452c.718 0 1.246.623 1.102 1.342-.815 3.929-4.265 6.901-8.434 6.901-4.17 0-7.668-2.972-8.435-6.901-.143-.671.432-1.342 1.103-1.342h14.664Z" fill="#F2F2F2" stroke="#F2F2F2" stroke-miterlimit="10"/><path d="M256.138 220.343c3.258-4.936 9.919-8.818 11.261-19.984l-11.261 19.984Z" fill="#842306"/><path d="M256.138 220.343c3.258-4.936 9.919-8.818 11.261-19.984" stroke="#842306" stroke-width="20" stroke-miterlimit="10" stroke-linecap="round"/><path d="M304.538 257.098h-38.816c-2.253 0-4.026-2.204-3.69-4.552l11.884-81.419c.24-1.677 1.582-2.875 3.211-2.875h38.816c2.253 0 4.026 2.204 3.69 4.552l-11.884 81.419c-.24 1.677-1.582 2.875-3.211 2.875Z" fill="#272727" stroke="#272727" stroke-miterlimit="10"/><path d="M296.008 190.248a1.582 1.582 0 1 0 0-3.165 1.582 1.582 0 0 0 0 3.165Z" fill="#A8D4C2" stroke="#CCC" stroke-miterlimit="10"/><path d="M265.866 252.689c.575 3.45-.767 7.188-4.218 9.249l-31.58 19.073c-7.044 4.265-16.245 2.06-20.558-4.936-1.534-2.444-2.252-5.224-2.252-7.907 0-4.888 2.396-9.68 6.757-12.556l12.411-8.194-.144-.048c7.572-5.271 10.256-10.207 11.885-14.664l3.115-10.303c1.869-6.038 8.29-10.878 14.28-10.83h18.881l-8.577 41.116Z" fill="#842306"/><path d="M254.7 216.27h33.832m-33.832 9.584h40.637m-40.637 9.488h37.81m-37.81 9.537h26.452" stroke="#842306" stroke-width="20" stroke-miterlimit="10" stroke-linecap="round"/><path d="M112.23 345.705c-1.534 0-3.067-.144-4.649-.383-15.287-2.54-25.59-17.012-23.05-32.251l19.121-114.628c2.539-15.287 17.012-25.59 32.251-23.051 15.287 2.54 25.59 17.013 23.05 32.252l-19.121 114.628c-2.252 13.705-14.137 23.433-27.602 23.433Z" fill="#059688"/><path d="M103.508 693.422c.766-.67 1.677-1.054 2.635-1.054l46.676.336c2.396-.384 4.504 1.437 4.361 3.881l-.24 3.786c-.671 12.891 4.217 25.446 13.466 34.408 6.038 5.894 11.453 9.68 21.229 11.644 1.773.336 3.259.671 4.553.911 5.798 1.15 7.523 1.486 10.83 3.307 6.182 3.45 7.715 5.99 7.763 12.938.048 4.313-1.677 8.434-4.696 11.358-2.588 2.492-5.942 3.833-9.441 3.833h-34.168c-11.74 0-23.241-4.265-32.442-11.932a1.376 1.376 0 0 0-1.678-.144c-.479.288-.766.767-.814 1.39l-.479 7.188c-.048.959-.528 1.917-1.294 2.588-.671.575-1.486.91-2.301.91H96.655c-1.677 0-2.923-1.485-2.731-3.258l8.242-79.598c.048-.91.575-1.821 1.342-2.492Z" fill="#0A273D"/><path d="M216.219 657.481c.862-.527 1.821-.766 2.779-.623l47.155 7.812c2.444 0 4.217 2.156 3.69 4.552l-.863 3.69a44.785 44.785 0 0 0 7.764 36.133c5.031 6.757 9.728 11.357 19.12 14.903 1.678.623 3.115 1.151 4.313 1.63 5.511 2.06 7.188 2.635 10.16 4.984 5.558 4.408 6.661 7.14 5.606 13.993a14.023 14.023 0 0 1-.718 2.875c-1.007 2.923-3.786 4.84-6.853 4.84-36.325-.048-41.644.048-42.411.096h-.143c-11.597-1.869-22.284-8.482-30.143-17.539-.431-.48-1.054-.671-1.629-.432a1.593 1.593 0 0 0-1.007 1.246l-.814 3.499c-.24.958-.815 1.821-1.678 2.348-.766.479-1.581.671-2.396.527l-30.478-.048c-1.677-.288-2.635-1.917-2.156-3.642l18.977-78.543c.191-.959.814-1.773 1.725-2.301Z" fill="#0A273D"/><path d="m180.901 316.712 68.096-.815s48.353 118.414 69.294 169.69c6.182 15.095 7.38 31.724 3.499 47.538-10.016 40.829-29.472 120.427-33.737 137.726-.479 1.965-2.252 3.355-4.313 3.355h-71.211a4.382 4.382 0 0 1-3.45-1.677c-.863-1.055-1.151-2.444-.815-3.786 5.846-24.344 29.52-122.775 34.743-144.339a12.828 12.828 0 0 0-.671-8.147c-7.428-17.396-36.852-86.115-36.852-86.115s-25.206 249.575-28.704 284.509c-.24 2.301-2.157 4.026-4.457 3.978-14.281-.24-62.106-.958-77.537-1.198-1.246 0-2.396-.575-3.21-1.486-.815-.91-1.247-2.156-1.103-3.402 3.786-37.81 28.561-286.906 28.561-286.906l4.888-50.796c1.582-32.731 8.77-58.656 9.009-58.896l15.383.815h32.587v-.048Z" fill="#081B2B"/><path d="m232.32 293.423-104.229 49.263a28.113 28.113 0 0 1-11.98 2.683c-10.495 0-20.558-5.942-25.35-16.053-6.614-13.993-.623-30.718 13.37-37.331l104.373-49.359 23.816 50.797Z" fill="#059688"/></svg>