<svg class="sinch-icon" xmlns="http://www.w3.org/2000/svg" viewBox="0 0 618 800" fill="none" aria-hidden="true" focusable="false"><path d="M111.589 741.283a50.26 50.26 0 0 1-15.802-41.874L18.438 672.49a299.388 299.388 0 0 0-12.73 44.456l43.724 25.652 79.056 46.382a26.481 26.481 0 0 0-3.418-35.178l-13.481-12.519Zm498.992-48.905a24.224 24.224 0 0 0-30.847-3.796l-11.262 7.282a30.057 30.057 0 0 1-33.594-.642 111.18 111.18 0 0 1-8.044-6.216l-64.443 57.787.416.733a113.65 113.65 0 0 0 32.981 36.516l119.273-84.836a24.164 24.164 0 0 0-4.48-6.828Z" fill="#666"/><path d="m431.939 319.359-49.024-117.69a63.833 63.833 0 0 0-20.444-26.385l-9.395-7.101a12.065 12.065 0 0 1-4.177-13.649 12.065 12.065 0 0 1 2.627-4.317l-32.115-26.934a44.944 44.944 0 0 1-17.993 5.321 42.911 42.911 0 0 1-25.703 8.487 72.416 72.416 0 0 1 12.467 22.285c6.344 18.286 5.187 37.949-3.258 55.365l-15.636 32.236-13.278 27.377 73.9 31.877a18.337 18.337 0 0 1 14.618-3.167 18.333 18.333 0 0 1 12.11 8.777l38.259 66.416c18.968 32.927 68.138 27.123 78.922-9.315l24.942-84.307a62.055 62.055 0 0 1 1.299-3.914l-38.331-33.395-29.79 72.033Z" fill="#FFBE3C"/><path d="M277.329 212.302c6.957-14.35 8.811-30.74 4.698-46.052-.069-.248-.124-.505-.202-.758-.17-.603-.363-1.204-.553-1.804-.158-.497-.308-1.001-.479-1.498-.055-.16-.112-.319-.168-.478a66.568 66.568 0 0 0-1.213-3.19c-.056-.138-.116-.273-.173-.41a66.543 66.543 0 0 0-1.398-3.112c-.06-.124-.125-.248-.183-.372a64.942 64.942 0 0 0-1.583-3.032c-.061-.109-.124-.217-.186-.326-.566-1-1.157-1.984-1.771-2.951-.058-.092-.124-.181-.178-.272a66.362 66.362 0 0 0-1.963-2.871c-.052-.074-.108-.144-.16-.216a64.809 64.809 0 0 0-2.159-2.79c-.042-.052-.086-.102-.124-.154a66.712 66.712 0 0 0-2.364-2.71l-.074-.077a66.845 66.845 0 0 0-2.585-2.633l-12.792-.621a103.668 103.668 0 0 0-73.494 25.727L143.571 192.2l-15.319 13.481-51.067 44.946c-26.804 23.592-30.65 61.417-14.056 89.363a71.722 71.722 0 0 0 5.141 7.504 70.62 70.62 0 0 0 20.586 17.707l42.067 24.007 24.088-43.774 7.858-14.277-27.69-16.678-9.355-5.68 68.528-54.476a11.435 11.435 0 0 1 11.652-1.549l42.758 18.444 12.947-26.694 15.62-32.222Z" fill="#FFBE3C"/><path d="M397.947 101.311a2.634 2.634 0 0 0-5.267.043c0 .16.278 14.114 14.2 20.133l1.788-4.964c-10.397-4.704-10.708-14.7-10.721-15.212Z" fill="#842306"/><path d="M4.208 724.772 0 748.574l38.137 19.749 11.292-25.726-43.72-25.652a314.94 314.94 0 0 0-1.501 7.827ZM67.7 783.53 95 797.18c11.85 5.924 25.969 2.173 33.481-8.205l-79.05-46.377c-3.209 19.922 5.365 34.481 18.27 40.932Zm428.088.512a113.478 113.478 0 0 0 11.335 7.116l13.349 7.301 27.921-21.451-15.493-19.07 2.385 1.08a38.754 38.754 0 0 0 40.216-5.088l32.546-26.123c8.785-7.051 11.273-18.877 7.014-28.601l-119.273 84.836Zm-264.52-476.748 17.496-36.072L206 252.773l-43.135 78.389 6.74-6.701a65.438 65.438 0 0 1 61.663-17.167Zm292.744 379.227a112.134 112.134 0 0 1-23.443-29.939l-175.936-326.91c-4.419-8.214-1.9-18.171 5.287-23.441l-73.9-31.877-87.601 180.66c-8.438 17.416-23.166 30.502-41.452 36.845a72.55 72.55 0 0 1-23.807 4.039 71.29 71.29 0 0 1-4.53-.155L26.917 652.025a295.663 295.663 0 0 0-6.342 14.891 295.188 295.188 0 0 0-2.137 5.573l77.349 26.919 26.796 9.324 5.879-11.926 14.739-29.889 107.66-218.414 189.414 318.118 22.111-19.828 64.443-57.791a111.78 111.78 0 0 1-2.818-2.481Zm-42.538-471.563 78.752-69.707a9.045 9.045 0 0 0 2.89-9.891 9.048 9.048 0 0 0-8.234-6.196 9.064 9.064 0 0 0-6.647 2.528L469.477 201.4a9.057 9.057 0 0 0 5.533 15.579 9.057 9.057 0 0 0 6.464-2.021Z" fill="#0A273D"/><path d="M356.54 84.528a5.708 5.708 0 1 0 0 11.416 5.708 5.708 0 0 0 0-11.416Zm-80.824 52.563c-.668 0-1.338-.015-2.01-.048l-9.2-.444c.888.853 1.75 1.73 2.584 2.633l.075.077a62.7 62.7 0 0 1 2.364 2.71c.043.052.087.102.124.154.745.91 1.464 1.84 2.159 2.789.052.072.108.143.16.216.68.938 1.335 1.895 1.963 2.872.059.09.124.18.178.272a63.401 63.401 0 0 1 1.771 2.95l.186.327a65.411 65.411 0 0 1 1.583 3.031c.061.124.124.249.183.373a57.198 57.198 0 0 1 1.398 3.112c.057.136.117.272.173.409.431 1.049.833 2.11 1.213 3.191.03.085.066.167.096.248.029.081.047.15.072.224.171.497.321.993.479 1.498.19.602.381 1.201.553 1.805.071.248.134.506.202.758 4.095 15.047 2.66 30.879-4.21 45.045l-.488 1.006-15.615 32.226-12.947 26.698-17.497 36.072-24.959 51.475-4.83 9.96-1.284 2.649c-11.789 24.315-41.695 33.576-65.164 20.181l-4.112-2.346-42.06-24.013a70.601 70.601 0 0 1-20.588-17.712 67.946 67.946 0 0 1-2.946-4.045 69.382 69.382 0 0 1-2.195-3.458l-25.113 51.795c-17.433 35.953-2.366 79.386 33.587 96.82a72.358 72.358 0 0 0 27.028 7.144 72.05 72.05 0 0 0 4.531.155 72.55 72.55 0 0 0 23.807-4.039c18.286-6.344 33.008-19.429 41.452-36.845l87.601-180.66 13.278-27.377 15.636-32.236c8.445-17.417 9.602-37.079 3.258-55.365a72.419 72.419 0 0 0-12.476-22.287Z" fill="#E83452"/><path d="M484.68 212.124a76.562 76.562 0 0 0-20.001 28.065l-2.95 7.138 38.333 33.397a63.3 63.3 0 0 1 15.212-23.466l19.101-18.63a68.825 68.825 0 0 0 12.658-81.69l-62.353 55.186ZM390.746 66.699a24.841 24.841 0 0 0-22.824-15.04c-13.719 0-24.838 11.121-24.838 24.84 0 .431.042.852.063 1.279l-.063.013v5.688c0 17.184-9.574 32.133-23.678 39.804l32.118 26.928a12.123 12.123 0 0 1 8.873-3.901l20.655-.018a24.073 24.073 0 0 0 22.633-15.928l3.195-8.879c-13.922-6.018-14.2-19.979-14.2-20.132a2.648 2.648 0 0 1 .192-1.01 2.633 2.633 0 0 1 5.075.966c.007.513.324 10.508 10.721 15.206l18.805-52.288a47.753 47.753 0 0 0 2.72-19.572L390.746 66.7Zm-34.206 29.24a5.706 5.706 0 0 1-5.598-6.822 5.7 5.7 0 0 1 4.484-4.485 5.707 5.707 0 1 1 1.114 11.306Zm-186.935 228.52-6.74 6.701-7.858 14.277-24.091 43.777 4.111 2.346c23.47 13.395 53.374 4.134 65.164-20.181l1.284-2.649 4.83-9.96 24.96-51.475a65.428 65.428 0 0 0-61.66 17.164Z" fill="#FFE1CC"/><path d="M391.904.974c-18.455-3.761-36.709 3.632-47.578 17.714v-.016l-5.233 6.364a37.095 37.095 0 0 1-29.817 13.505l-10.065-.321v.013c-.47-.014-.939-.036-1.414-.036-25.009 0-45.284 20.274-45.284 45.284 0 25.009 20.275 45.283 45.284 45.283 1.219 0 2.424-.062 3.619-.157a44.985 44.985 0 0 0 17.995-5.324c14.104-7.671 23.678-22.621 23.678-39.805v-5.687l.063-.013c-.021-.427-.063-.848-.063-1.28 0-13.718 11.119-24.84 24.838-24.84a24.84 24.84 0 0 1 22.824 15.04l39.447-22.042C428.735 23.917 413.782 5.432 391.904.974Z" fill="#842306"/></svg>