<svg class="sinch-icon" xmlns="http://www.w3.org/2000/svg" viewBox="0 0 616 800" fill="none" aria-hidden="true" focusable="false"><path d="m324.132 774.747-11.713-2.419a43.402 43.402 0 0 1-35.475-42.818l.066-3.751a3.955 3.955 0 0 0-1.407-3.057 3.83 3.83 0 0 0-3.085-.938l-43.971-.337a3.43 3.43 0 0 0-3.422 3.432v72.206a2.88 2.88 0 0 0 2.869 2.879h27.71a2.88 2.88 0 0 0 2.87-2.879v-6.076a1.42 1.42 0 0 1 .781-1.263 1.416 1.416 0 0 1 1.479.128 50.64 50.64 0 0 0 30.008 10.09h30.748a12.76 12.76 0 0 0 12.664-11.461 12.763 12.763 0 0 0-10.075-13.792l-.047.056Zm-200.04-52.28a2.54 2.54 0 0 0-2.073-.938l-42.48.319c-2.072-.356-4.557 1.322-5.213 3.535l-.938 3.442c-3.45 11.694-11.863 23.078-23.087 31.246-7.324 5.335-13.429 8.768-22.956 10.577l-4.389.816c-5.626 1.022-7.296 1.332-10.878 3.01-6.695 3.123-8.88 5.43-11.15 11.722-1.406 3.911-1.153 7.671.694 10.315a8.653 8.653 0 0 0 7.362 3.498h30.983c10.653 0 22.45-3.854 33.243-10.84a1.396 1.396 0 0 1 1.575-.141 1.117 1.117 0 0 1 .29 1.266l-1.875 6.564a2.653 2.653 0 0 0 .338 2.335 2.167 2.167 0 0 0 1.782.844h27.945a3.922 3.922 0 0 0 3.516-2.972l17.695-72.207a2.617 2.617 0 0 0-.384-2.391Z" fill="#0A273D"/><path d="M427.059 180.113a20.255 20.255 0 0 0-3.245 8.44 22.167 22.167 0 0 0 1.041 9.096l.835 2.644c.332 1.087.599 2.192.797 3.311.419 2.227.582 4.496.487 6.761a38.017 38.017 0 0 1-2.879 12.753l-.14.338-.197.347a11723.368 11723.368 0 0 1-18.221 30.767l-9.161 15.351-9.209 15.323a5.079 5.079 0 0 1-9.285-1.34 5.073 5.073 0 0 1 .555-3.846l9.058-15.417 9.106-15.388a4584.477 4584.477 0 0 1 18.314-30.711l-.338.684a27.79 27.79 0 0 0 2.195-9.274 19.756 19.756 0 0 0-.3-4.529 18.214 18.214 0 0 0-.516-2.213l-.394-1.313-.422-1.482a30.14 30.14 0 0 1-.938-13.334 25.925 25.925 0 0 1 2.082-6.565c.966-2 2.152-3.887 3.535-5.626a4.503 4.503 0 0 1 7.963 1.917 4.5 4.5 0 0 1-.63 3.287l-.093.019Z" fill="#F2A068"/><path d="M311.275 168.729c-2.138-5.496-3.985-10.241-2.879-13.766l3.301-9.547-69.13-27.194-.15.422c-6.902 20.105-16.13 27.41-23.547 33.271-5.336 4.22-11.253 7.999-16.88 11.656-1.828 1.182-3.657 2.354-5.476 3.545-8.88 5.833-14.901 12.612-17.883 20.161-2.532 6.386-1.603 17.217 6.414 25.91l.122.131 121.907 5.177h.319l6.986-19.834c4.136-11.299.122-21.633-3.104-29.932Z" fill="#272727"/><path d="M298.325 195.313H191.647v37.867h106.678v-37.867Z" fill="#007372"/><path d="M349.863 342.277a24.483 24.483 0 0 1-21.652-13.129l-51.764-97.891a24.506 24.506 0 0 1-1.741-18.667 24.491 24.491 0 0 1 21.128-17.158 24.486 24.486 0 0 1 23.937 12.954l51.754 97.891a24.512 24.512 0 0 1-21.662 36Z" fill="#F2A068"/><path d="M319.771 208.357a24.556 24.556 0 0 0-14.468-12.218 24.542 24.542 0 0 0-26.341 7.82 24.55 24.55 0 0 0-2.59 27.354l29.811 56.378 43.399-22.947-29.811-56.387Z" fill="#007171"/><path d="M180.103 257.88v74.269l93.719.619h.047a6.681 6.681 0 0 0 6.329-4.52l24.082-70.331-124.177-.037Z" fill="#007372"/><path d="m277.085 332.562-.141-.15H183.92l-.113.31c-.14.403-14.263 40.041-14.263 57.399 0 35.287 29.23 63.992 65.155 63.992s65.164-28.705 65.164-63.992c0-32.24-22.553-57.306-22.778-57.559Z" fill="#FFBE3C"/><path d="M240.438 301.222c31.592 0 57.202-23.603 57.202-52.72 0-29.116-25.61-52.72-57.202-52.72s-57.203 23.604-57.203 52.72c0 29.117 25.611 52.72 57.203 52.72Z" fill="#007171"/><path d="M319.415 107.212a35.983 35.983 0 0 0-55.14-22.138 35.982 35.982 0 0 0-13.991 18.125l-9.734 28.132a35.948 35.948 0 0 0 25.835 46.841c2.697.624 5.456.938 8.224.937a35.874 35.874 0 0 0 33.909-24.231l9.743-28.132a35.84 35.84 0 0 0 1.154-19.534Z" fill="#F2A068"/><path d="M203.716 389.802v333.546a11.053 11.053 0 0 0 11.028 11.047h74.007a11.062 11.062 0 0 0 11.046-11.047V389.802h-96.081Z" fill="#FFBE3C"/><path d="M167.181 378.502h-.328L49.7 719.766a11.048 11.048 0 0 0 10.447 14.629h72.788a11.038 11.038 0 0 0 6.427-2.074 11.04 11.04 0 0 0 4.019-5.428l117.79-343.074-93.99-5.317Z" fill="#FFBE3C"/><path d="M129.681 334.85a24.543 24.543 0 0 1-21.676-13.058 24.554 24.554 0 0 1 1.374-25.267l61.291-90.464a24.546 24.546 0 0 1 33.886-6.248 24.548 24.548 0 0 1 6.756 33.789l-61.273 90.464a24.51 24.51 0 0 1-20.358 10.784Zm202.178-31.489 71.175-88.561a11.585 11.585 0 0 1 7.163-4.165 11.587 11.587 0 0 1 12.239 16.6l-50.704 101.67a23.82 23.82 0 0 1-13.723 12.558 23.804 23.804 0 0 1-18.566-1.144 23.815 23.815 0 0 1-12.078-14.147 23.83 23.83 0 0 1-.991-9.44 23.792 23.792 0 0 1 2.775-9.076 25.174 25.174 0 0 1 2.71-4.295Z" fill="#F2A068"/><path d="M319.452 107.203a35.765 35.765 0 0 0-27.007-27.317c-18.68-4.341-38.597 5.768-44.402 22.506l-12.125 34.613c-2.466 7.145-4.023 18.126-3.957 27.991.084 11.928 2.457 20.818 6.695 25.029l.563.562 17.817-59.753-.506-.112a9.817 9.817 0 0 1-6.48-4.576 10.016 10.016 0 0 1-.703-8.056c2.231-7.202 10.099-8.627 25.497-4.595 14.572 3.817 23.922 3.282 30.655-10.315.478 4.529 2.738 15.989 13.334 19.693l.526.178.112-.535a37.492 37.492 0 0 0-.019-15.313Z" fill="#272727"/><path d="M293.055 156.65c-1.101 0-2.199-.123-3.273-.366a15.126 15.126 0 0 1-9.199-6.33 1.701 1.701 0 0 1 .59-2.162 1.702 1.702 0 0 1 2.223.287 11.602 11.602 0 0 0 15.632 3.526 1.723 1.723 0 0 1 1.341-.272c.23.049.448.145.64.281a1.724 1.724 0 0 1 .704 1.173 1.708 1.708 0 0 1-.377 1.316c-.15.181-.335.33-.545.437a15.208 15.208 0 0 1-7.736 2.11Z" fill="#842306"/><path d="M135.223 334.859 93.024 457.704a16.037 16.037 0 0 0 15.154 21.24h.15l90.812-.807a26.302 26.302 0 0 0 24.634-17.704L266.77 335.45l.197-.553-131.744-.038Zm178.125-134.266a23.524 23.524 0 0 0-3.751-2.447l-.432-.225-44.552 126.652 5.129.759 43.737-124.27.094-.281-.225-.188Z" fill="#0A273D"/><path d="M419.744 151.736h-35.268a6.152 6.152 0 0 0-5.824 4.183l-21.371 63.222a6.144 6.144 0 0 0 5.823 8.112h35.316a6.159 6.159 0 0 0 5.833-4.182l21.324-63.214a6.153 6.153 0 0 0-3.025-7.44 6.176 6.176 0 0 0-2.808-.681Z" fill="#272727"/><path d="m412.899 204.26-33.112.488a4.693 4.693 0 0 1-4.317-4.547 4.686 4.686 0 0 1 4.064-4.774l33.074-1.313a5.081 5.081 0 0 1 .403 10.155l-.112-.009Z" fill="#F2A068"/><path d="m410.507 202.731-24.381-18.568a4.106 4.106 0 0 1 1.71-7.394 4.108 4.108 0 0 1 3.063.708l25.469 16.983a5.083 5.083 0 0 1-5.626 8.44l-.235-.169Z" fill="#F2A068"/><path d="M410.01 212.971h-33.571a4.521 4.521 0 0 1-4.409-4.438 4.516 4.516 0 0 1 4.25-4.592l33.515-1.125a5.06 5.06 0 0 1 3.639 1.36 5.067 5.067 0 0 1 1.612 3.535 5.074 5.074 0 0 1-4.895 5.251l-.141.009Z" fill="#F2A068"/><path d="m407.207 221.421-33.112-.066a4.217 4.217 0 0 1-4.323-4.116 4.22 4.22 0 0 1 4.116-4.324l33.094-1.65a5.09 5.09 0 0 1 3.77 1.237 5.081 5.081 0 0 1-3.255 8.909l-.29.01Z" fill="#F2A068"/><path d="M204.804 199.524a24.565 24.565 0 0 0-27.305-.213 24.568 24.568 0 0 0-6.829 6.73l-36.404 53.715 40.614 27.588 36.441-53.752a24.552 24.552 0 0 0-6.517-34.068Z" fill="#007171"/><path d="M391.415 221.421h3.019a5.46 5.46 0 0 1 5.177 7.183l-8.571 7.427 28.751-17.208 1.172-23.265-29.548 25.863Zm-260.571 71.155 112.079 14.714a13.86 13.86 0 0 1-1.819 27.607l-113.036-.122a21.2 21.2 0 0 1-19.983-12.975 21.2 21.2 0 0 1 0-16.426 21.19 21.19 0 0 1 19.983-12.976c.928.001 1.855.06 2.776.178Zm144.412-97.262a8.117 8.117 0 0 1-5.723-2.379 8.117 8.117 0 0 1-2.379-5.723 8.023 8.023 0 0 1 .592-3.118 8.023 8.023 0 0 1 4.402-4.396 8.005 8.005 0 0 1 3.118-.588h.469l-.732-50.695-18.558 5.683-12.631 40.323c-4.154 12.716-15.229 20.93-28.208 20.93h-2.166l26.342 12.069 38.588-12.078-3.114-.028Z" fill="#F2A068"/><path d="M211.237 195.313v.469c0 18.99 15.182 34.434 33.843 34.434s33.852-15.444 33.852-34.434v-.469h-67.695Zm76.388 101.756a7.296 7.296 0 0 0-6.001-3.085h-16.927a19.115 19.115 0 0 0-18.07 12.931l-9.377 27.373a.406.406 0 0 0 .056.384.412.412 0 0 0 .347.178h35.053a7.382 7.382 0 0 0 6.977-4.988l8.936-26.117a7.308 7.308 0 0 0-.994-6.676Z" fill="#F2A068"/><path d="m274.9 296.328-7.802-5.28a8.808 8.808 0 0 0-11.187 1.126l-15.426 15.688a.422.422 0 0 0 .3.722h23.659a.458.458 0 0 0 .319-.14l10.193-11.488a.482.482 0 0 0 .103-.337.413.413 0 0 0-.159-.291Z" fill="#F2A068"/><path d="M524.556 354.468v-38.879a25.467 25.467 0 0 0-25.46-25.46H424.33v64.339a25.438 25.438 0 0 0 7.457 17.999 25.456 25.456 0 0 0 18.003 7.451h49.306a25.46 25.46 0 0 0 25.46-25.45Z" fill="#fff"/><path d="M498.768 327.273a13.982 13.982 0 0 0-25.272-6.33 13.971 13.971 0 0 0-9.477-5.59 13.976 13.976 0 0 0-10.584 3.01 13.96 13.96 0 0 0-1.592 20.163l18.586 18.558a4.401 4.401 0 0 0 3.104 1.286 4.397 4.397 0 0 0 3.104-1.286l18.052-18.024.516-.515a13.92 13.92 0 0 0 3.563-11.272Z" fill="#E83452"/><path d="M590.133 0H472.155a25.45 25.45 0 0 0-25.451 25.45v124.44h143.429a25.451 25.451 0 0 0 25.45-25.45V25.45A25.45 25.45 0 0 0 590.133 0ZM334.156 44.205v64.817a25.46 25.46 0 0 0 25.451 25.46h70.865V44.205a25.45 25.45 0 0 0-25.45-25.45h-45.415a25.451 25.451 0 0 0-25.451 25.45Zm240.241 121.251H447.061v83.835a25.466 25.466 0 0 0 7.45 18.005 25.459 25.459 0 0 0 18 7.464h101.886a25.471 25.471 0 0 0 25.46-25.46v-58.394a25.458 25.458 0 0 0-25.46-25.45Z" fill="#fff"/><path d="M484.524 247.293h73.388a6.461 6.461 0 0 0 6.461-6.461V197.33a6.461 6.461 0 0 0-6.461-6.461h-73.388a6.46 6.46 0 0 0-6.461 6.461v43.502a6.46 6.46 0 0 0 6.461 6.461Z" fill="#059688"/><path d="M542.936 210.777h10.156a2.794 2.794 0 0 0 2.794-2.794v-5.43a2.794 2.794 0 0 0-2.794-2.794h-10.156a2.794 2.794 0 0 0-2.795 2.794v5.43a2.794 2.794 0 0 0 2.795 2.794Z" fill="#FFD03C"/><path d="M515.254 199.796h-26.735c-.767 0-1.388.621-1.388 1.388v1.322c0 .766.621 1.388 1.388 1.388h26.735c.766 0 1.387-.622 1.387-1.388v-1.322c0-.767-.621-1.388-1.387-1.388Zm-13.71 6.986h-13.025c-.767 0-1.388.622-1.388 1.388v1.322c0 .767.621 1.388 1.388 1.388h13.025c.766 0 1.388-.621 1.388-1.388v-1.322c0-.766-.622-1.388-1.388-1.388Zm62.829 18.568h-86.31v12.247h86.31V225.35Z" fill="#007171"/><path d="m397.07 103.208-32.822-.497-5.692-58.224 34.05-8.618a3.49 3.49 0 0 1 4.464 3.347v63.992Z" fill="#666"/><path d="M358.556 44.486h43.521a4.69 4.69 0 0 1 4.689 4.69v59.302a4.691 4.691 0 0 1-4.689 4.689h-41.795c-.458 0-.897-.182-1.22-.506a1.722 1.722 0 0 1-.506-1.22V44.486Z" fill="#CCC"/><path d="M399.517 83.375h-33.731c-.642 0-1.162.52-1.162 1.163v.469c0 .642.52 1.162 1.162 1.162h33.731c.642 0 1.163-.52 1.163-1.162v-.47c0-.641-.521-1.162-1.163-1.162Z" fill="#F2F2F2"/><path d="M384.532 67.79a2.288 2.288 0 0 0-1.257-3.517 2.288 2.288 0 0 0-2.503 3.517.332.332 0 0 1 .043.324.325.325 0 0 1-.259.2 15.556 15.556 0 0 0-13.457 15.408h31.105a15.558 15.558 0 0 0-13.456-15.407.323.323 0 0 1-.259-.2.323.323 0 0 1 .043-.325Z" fill="#F2F2F2"/><path d="M572.297 100.686a97.184 97.184 0 0 0-55.702-67.518l-.713-.31-35.756 81.837a4.548 4.548 0 0 0 .352 4.309 4.547 4.547 0 0 0 3.802 2.059c.34.002.68-.032 1.013-.103l87.154-19.515-.15-.759Z" fill="#FFBE3C"/><path d="m573.478 101.211-8.393 1.875a91.277 91.277 0 0 0-49.016-61.891c-.75-.366-3.132-1.575-3.132-1.575s.938-2.326 1.463-3.432l1.876-4.427a8.44 8.44 0 0 1 11.046-4.06c24.71 10.934 45.866 34.537 52.392 63.55a8.318 8.318 0 0 1-6.236 9.96Z" fill="#842306"/><path d="M535.115 66.486a14.064 14.064 0 0 0-18.332-10.235 14.063 14.063 0 0 0-9.373 11.69 14.065 14.065 0 1 0 27.705-1.455Zm-3.638 43.343a14.199 14.199 0 0 0-25.666-4.309 14.198 14.198 0 0 0-2.035 10.507l.197.938 27.729-6.246-.225-.89Z" fill="#E03E52"/><path d="M546.828 93.202a3.01 3.01 0 1 0 0 6.02 3.01 3.01 0 0 0 0-6.02Zm-39.451-6.357a3.011 3.011 0 1 0 0 6.022 3.011 3.011 0 0 0 0-6.022Zm-24.194 21.427h-.244l-2.129 4.848a3.003 3.003 0 0 0 2.687 1.147 3.013 3.013 0 0 0 2.696-3.151 3.01 3.01 0 0 0-3.01-2.853v.009Z" fill="#007171"/><path d="M562.113 262.437c8.908 0 16.129-7.221 16.129-16.129 0-8.908-7.221-16.129-16.129-16.129-8.908 0-16.129 7.221-16.129 16.129 0 8.908 7.221 16.129 16.129 16.129Z" fill="#059688"/><path d="M559.834 253.875a1.874 1.874 0 0 1-1.322-.543l-6.18-6.171a1.885 1.885 0 0 1-.445-.609 1.888 1.888 0 0 1-.033-1.478 1.857 1.857 0 0 1 1.047-1.043 1.865 1.865 0 0 1 1.477.039c.231.106.438.258.608.447l4.839 4.839 9.855-9.856a1.892 1.892 0 0 1 1.327-.55 1.877 1.877 0 0 1 1.327 3.204l-11.187 11.178a1.876 1.876 0 0 1-1.313.543Z" fill="#DCEDE1"/></svg>