<svg class="sinch-icon" xmlns="http://www.w3.org/2000/svg" viewBox="0 0 551 400" fill="none" aria-hidden="true" focusable="false"><path d="M134.859 360.719V133.554a8.568 8.568 0 0 0-4.729-7.653 8.51 8.51 0 0 0-8.949.839c-39.84 30.051-77.57 74.62-116.57 113.723l-.89.813a8.522 8.522 0 0 0-2.771 6.102v.458a8.623 8.623 0 0 0 2.771 6.127l.89.813c39 39.052 76.73 82.68 116.545 112.757a8.514 8.514 0 0 0 8.949.839 8.546 8.546 0 0 0 4.754-7.653Z" fill="#272727"/><path d="M289.769 102.587h-76.451a144.403 144.403 0 0 0-102.103 42.281 144.4 144.4 0 0 0-42.28 102.103 144.404 144.404 0 0 0 42.28 102.104 144.403 144.403 0 0 0 102.103 42.281h76.451V102.587Z" fill="#FFBD3A"/><path d="M296.888 102.587a7.107 7.107 0 0 0-7.118-7.119h-76.451a151.614 151.614 0 0 0-107.138 44.365A151.53 151.53 0 0 0 61.79 246.971a151.568 151.568 0 0 0 44.365 107.138 151.464 151.464 0 0 0 107.138 44.365h76.477a7.107 7.107 0 0 0 7.118-7.118V102.587Zm-14.237 7.119v274.531h-69.332a137.35 137.35 0 0 1-97.07-40.196 137.303 137.303 0 0 1-40.196-97.07 137.35 137.35 0 0 1 40.196-97.07 137.245 137.245 0 0 1 97.07-40.195h69.332Z" fill="#272727"/><path d="M55.714 31.552c24.407-40.756 97.095-42.205 162.206-3.23 65.112 38.976 98.189 103.732 73.782 144.512-24.408 40.755-97.096 42.204-162.207 3.229C64.358 137.062 31.306 72.307 55.714 31.552Z" fill="#F2F2F2"/><path d="M542.105 31.552c-24.407-40.756-97.095-42.205-162.206-3.23-65.112 38.976-98.189 103.732-73.782 144.512 24.408 40.755 97.096 42.204 162.207 3.229 65.112-39.001 98.189-103.756 73.781-144.511Z" fill="#F2F2F2"/><path d="M301.998 391.458c79.503 0 143.952-64.45 143.952-143.953 0-79.502-64.449-143.952-143.952-143.952s-143.952 64.45-143.952 143.952c0 79.503 64.449 143.953 143.952 143.953Z" fill="#FFBD3A"/><path d="M301.999 95.036c-84.155 0-152.495 68.34-152.495 152.495 0 84.154 68.34 152.494 152.495 152.494 84.154 0 152.494-68.34 152.494-152.494 0-84.155-68.34-152.495-152.494-152.495Zm0 17.085c74.722 0 135.409 60.662 135.409 135.41 0 74.722-60.662 135.409-135.409 135.409-74.722 0-135.41-60.662-135.41-135.409 0-74.748 60.662-135.41 135.41-135.41Z" fill="#272727"/><path d="M351.775 251.96c17.522 0 31.726-14.204 31.726-31.726 0-17.521-14.204-31.725-31.726-31.725-17.521 0-31.725 14.204-31.725 31.725 0 17.522 14.204 31.726 31.725 31.726Zm0-21.028c5.909 0 10.698-4.789 10.698-10.698 0-5.908-4.789-10.698-10.698-10.698-5.908 0-10.698 4.79-10.698 10.698 0 5.909 4.79 10.698 10.698 10.698Z" fill="#272727"/></svg>