<svg class="sinch-icon" xmlns="http://www.w3.org/2000/svg" viewBox="0 0 262 400" fill="none" aria-hidden="true" focusable="false"><path d="M143.865 360.038c-.754 0-1.634-.252-2.262-.88-1.257-1.257-1.257-3.267 0-4.398l14.326-14.326-95.759-94.251c-.628-.629-1.005-1.383-.88-2.262 0-.88.378-1.634 1.006-2.262l42.601-40.968c1.257-1.257 3.268-1.131 4.399.126 1.256 1.257 1.131 3.267-.126 4.398l-40.34 38.706 95.759 94.125c.629.628.88 1.382.88 2.262 0 .88-.377 1.634-.88 2.262l-16.588 16.588c-.502.628-1.256.88-2.136.88Z" fill="#842306"/><path d="M104.154 400a3.112 3.112 0 0 1-3.142-3.142V199.56a3.112 3.112 0 0 1 3.142-3.142 3.112 3.112 0 0 1 3.142 3.142v197.298a3.112 3.112 0 0 1-3.142 3.142Z" fill="#842306"/><path d="M248.546 19.479h-25.888c-.251 0-.377.125-.377.377l-.125 15.708c0 .126 0 .126.125.251.126.126.126.126.252.126h19.478c12.316 0 15.08 4.65 17.594 11.436.251.628.377 1.005 1.131 1.005.628 0 1.131-.503 1.131-1.131V32.799c0-7.288-6.032-13.32-13.321-13.32Z" fill="#FCECCB"/><path d="M235.98 107.32 204.061 75.4c-7.038-7.037-10.556-16.085-10.556-25.384 3.141 1.256 6.534 2.01 10.053 2.01 14.326 0 26.013-11.687 26.013-26.013C229.571 11.687 218.01 0 203.558 0c-4.524 0-8.922 1.257-12.692 3.267-1.76.629-3.519 1.634-4.901 3.016-24.003 24.003-24.003 63.085 0 87.214l31.919 31.919c2.388 2.388 3.77 5.53 3.77 8.923s-1.257 6.534-3.77 8.922c-2.388 2.388-5.529 3.77-8.922 3.77-3.393 0-6.535-1.257-8.923-3.77l-27.27-27.27c-9.425-9.425-21.112-15.834-33.93-18.599-4.65-1.256-9.551-2.01-14.577-2.01-15.206 0-28.904 6.157-38.832 16.211L2.867 194.031c-1.885 1.885-2.388 4.524-1.383 7.037 1.006 2.514 3.268 4.022 5.907 4.022h118.002c27.018-.629 49.387-20.861 53.031-47.126l3.519 3.519a38.132 38.132 0 0 0 27.019 11.184 38.13 38.13 0 0 0 27.018-11.184 38.133 38.133 0 0 0 11.185-27.019c0-10.179-3.896-19.855-11.185-27.144Z" fill="#E83452"/><path d="M259.856 47.125c.252.629.377.754.754.754s.754-.377.754-.754V32.8c0-7.163-5.78-12.944-12.944-12.944h-6.534v15.458c12.441.125 15.457 4.9 17.97 11.812Z" fill="#842306"/><path d="M260.736 48.508c-.88 0-1.006-.503-1.257-1.131-2.513-6.66-5.152-11.436-17.342-11.436-.251 0-.503-.251-.503-.503V19.981c0-.251.252-.503.503-.503h6.535c7.414 0 13.446 6.032 13.446 13.447V47.25c-.126.628-.754 1.257-1.382 1.257ZM260.359 47c.125.251.125.377.251.502.251 0 .377-.125.377-.251V32.799a12.39 12.39 0 0 0-12.441-12.44h-6.032v14.45c12.441.252 15.331 5.405 17.845 12.19Z" fill="#842306"/><path d="M203.557 32.422a6.409 6.409 0 1 0 0-12.817 6.409 6.409 0 0 0 0 12.817Z" fill="#F2F2F2"/><path d="M203.557 32.674a6.49 6.49 0 0 1-6.535-6.535 6.49 6.49 0 0 1 6.535-6.535 6.49 6.49 0 0 1 6.535 6.535 6.49 6.49 0 0 1-6.535 6.535Zm0-12.819a6.168 6.168 0 0 0-6.158 6.158 6.168 6.168 0 0 0 6.158 6.158 6.168 6.168 0 0 0 6.158-6.158 6.168 6.168 0 0 0-6.158-6.158Z" fill="#F2F2F2"/></svg>