<svg class="sinch-icon" xmlns="http://www.w3.org/2000/svg" viewBox="0 0 1009 800" fill="none" aria-hidden="true" focusable="false"><path d="M938.981 752.891H136.196V800h802.785v-47.109Z" fill="#E83452"/><path d="M466.171 265.411c6.277-16.141 11.701-30.086 8.459-40.46l-9.709-28.062 203.235-80.073.427 1.244c20.306 59.125 47.43 80.583 69.226 97.825 15.69 12.414 32.966 23.518 49.674 34.257 5.394 3.467 10.778 6.928 16.109 10.431 26.121 17.145 43.8 37.088 52.589 59.27 7.435 18.769 4.699 50.615-18.872 76.178l-.354.383-358.35 15.2-.929.039-20.541-58.294c-12.271-33.15-.457-63.521 9.033-87.938" fill="#842306"/><path d="M558.38 295.177a101.9 101.9 0 0 1-83.165-67.905l-27.661-82.717a101.86 101.86 0 0 1-3.245-55.403c8.608-38.798 37.962-68.484 76.615-77.472C572.002-.226 638.001 28.198 655.137 77.74l27.661 79.921c8.377 24.2-4.135 50.653-16.812 73.969l15.18 48.279c11.805 36.1 43.245 59.422 80.099 59.419h6.129l-96.878 34.281-129.945-34.305h8.729a23.028 23.028 0 0 0 23.001-23.001c0-9.754-5.497-17.649-13.921-21.116v-.009Z" fill="#F2A068"/><path d="M128.874 380.36c4.155 0 5.936-5.298 2.606-7.803l-29.52-22.244a11.285 11.285 0 0 1-3.416-13.791c2.576-5.491 9.184-7.81 14.791-5.494l63.776 27.177a122.645 122.645 0 0 1 53.346 43.889" fill="#894915"/><path d="m63.744 375.204 74.67-.05c4.155 0 28.374 43.01 25.245 42.583L51.28 398.443a26.318 26.318 0 0 1-17.346-11.187c-6.42-9.481-16.27-24.02-22.224-32.815a11.024 11.024 0 0 1 1.333-13.98 11.357 11.357 0 0 1 16.076 0l34.625 34.729" fill="#894915"/><path d="m82.474 376.914-1.092.891a26.34 26.34 0 0 1-39.14-7.124c-3.814-6.444-7.617-12.859-10.448-17.64a11.023 11.023 0 0 1 2.175-13.868 11.355 11.355 0 0 1 8.228-2.832 11.374 11.374 0 0 1 7.819 3.817l32.458 36.768" fill="#894915"/><path d="m54.201 380.408 74.673-.048 55.21-.05a63.074 63.074 0 0 1 51.556 26.664l31.193 44.129-74.037 35.074s-6.278-13.408-13.061-27.932a50.874 50.874 0 0 0-51.116-29.033c-15.83 1.553-35.896 1.484-57.478-3.562a69.734 69.734 0 0 1-40.713-27.201c-9.246-12.763-21.16-29.362-27.964-38.834a10.887 10.887 0 0 1 1.143-14.058 11.209 11.209 0 0 1 15.862 0l34.729 34.839" fill="#F2A068"/><path d="m407.069 411.676 129.809 57.715-113.109 243.398c-16.029 34.468-56.712 49.728-91.444 34.287l-1.211-.54a69.654 69.654 0 0 1-36.85-39.007 69.64 69.64 0 0 1 1.825-53.63l110.972-242.211.008-.012Z" fill="#F2A068"/><path d="M537.249 245.809a32.247 32.247 0 0 0 6.827-1.808 32.87 32.87 0 0 0 17.64-16.281 3.598 3.598 0 0 0 .146-2.788 3.604 3.604 0 0 0-1.888-2.056 3.708 3.708 0 0 0-4.895 1.76 25.23 25.23 0 0 1-32.182 12.437 3.713 3.713 0 0 0-4.808 1.992 3.603 3.603 0 0 0 .786 3.967 3.6 3.6 0 0 0 1.188.782 32.84 32.84 0 0 0 17.174 1.992" fill="#842306"/><path d="M54.166 379.319V200.925H177.39v178.394h-.023c0 7.337-27.605 13.292-61.589 13.292-33.984 0-61.589-5.955-61.589-13.292h-.023Z" fill="#059688"/><path d="M115.048 252.072c-27.308 0-51.773-3.39-63.86-8.849a4.655 4.655 0 0 1-2.442-2.604 4.66 4.66 0 0 1 1.173-5.048 4.65 4.65 0 0 1 3.34-1.261 4.68 4.68 0 0 1 1.773.412c10.79 4.874 34.349 8.015 60.019 8.015 22.428 0 50.116-2.693 61.416-8.706a4.664 4.664 0 1 1 4.381 8.234c-11.187 5.963-37.014 9.807-65.8 9.807Z" fill="#FFD03C"/><path d="M130.172 299.526a12.214 12.214 0 0 0-24.426 0v17.649a12.22 12.22 0 0 0 7.54 11.285 12.215 12.215 0 0 0 16.888-11.285l-.002-17.649Z" fill="#007171"/><path d="M117.96 366.116a4.663 4.663 0 0 1-4.664-4.663v-20.398c0-1.237.492-2.423 1.366-3.298a4.666 4.666 0 0 1 6.595 0 4.667 4.667 0 0 1 1.366 3.298v20.395a4.673 4.673 0 0 1-1.365 3.299 4.675 4.675 0 0 1-3.298 1.367Z" fill="#007171"/><path d="M117.936 345.231a26.836 26.836 0 0 1-26.822-26.364 4.666 4.666 0 0 1 4.585-4.742 4.666 4.666 0 0 1 4.742 4.584 17.496 17.496 0 0 0 34.987 0 4.663 4.663 0 0 1 4.663-4.585h.08a4.65 4.65 0 0 1 4.261 2.956 4.66 4.66 0 0 1 .322 1.793 26.83 26.83 0 0 1-26.818 26.364v-.006Z" fill="#007171"/><path d="M115.778 216.09c34.014 0 61.588-5.951 61.588-13.292s-27.574-13.292-61.588-13.292c-34.015 0-61.589 5.951-61.589 13.292s27.574 13.292 61.589 13.292Z" fill="#0A273D"/><path d="m265.094 448.922-73.78 34.168 106.835 231.608a64.687 64.687 0 0 0 78.13 34.622 64.878 64.878 0 0 0 33.215-99.808l-144.4-200.59Z" fill="#F2A068"/><path d="M612.622 94.908c-5.954 1.412-25.928 6.174-37.044 9.083-42.838 11.205-71.191 7.42-90.998-32.45-1.407 13.334-8.053 47.006-39.22 57.923l-1.526.535-.329-1.586c-3.084-14.954-3.055-30.985.089-45.138 8.905-40.217 39.35-70.992 79.422-80.316C577.914-9.804 636.469 19.926 653.54 69.247l35.643 101.642c7.266 20.995-1.146 71.04-1.345 100.031-.237 35.085-49.867-121.788-46.251-124.827a.423.423 0 0 0 .124-.253 30.05 30.05 0 0 0 5.852-37.112 30.053 30.053 0 0 0-34.941-13.811v-.01Z" fill="#842306"/><path d="M755.545 337.858a119.41 119.41 0 0 1 108.451 69.436l56.175 121.895h-99.963l87.947 224.218h-402.15V529.189H353.166l53.155-120.215a119.42 119.42 0 0 1 109.215-71.122l240.009.006Z" fill="#FFD03C"/><path d="m239.938 204.315 3.348 2.968c13.524 13.987 30.36 23.334 48.407 28.169 56.718 15.198 115.555-18.774 130.752-75.492 7.252-27.068 3.378-56.43-10.777-80.945-14.156-24.515-37-42.38-64.709-49.807-56.72-15.198-115.56 18.774-130.286 76.308-5.18 19.335-4.387 39.582.962 58.282l1.543 4.559-20.502 35.266 41.259.695.003-.003Z" fill="#007171"/><path d="M267.771 151.492h-.05a6.997 6.997 0 0 1-6.946-7.044l.172-24.672a6.998 6.998 0 0 1 13.993.098l-.172 24.681a6.998 6.998 0 0 1-6.997 6.937Zm103.569.51h-.047a7 7 0 0 1-6.949-7.047l.172-24.669a6.998 6.998 0 0 1 6.996-6.949h.051a7 7 0 0 1 6.945 7.047l-.172 24.669a7.001 7.001 0 0 1-6.996 6.949Zm-77.867 10.915h-.05a6.999 6.999 0 0 1-6.949-7.047l.333-47.264a6.995 6.995 0 0 1 6.996-6.949h.047a7.005 7.005 0 0 1 6.44 4.364 7.01 7.01 0 0 1 .515 2.683l-.332 47.267a6.996 6.996 0 0 1-7 6.946Zm52.011.255h-.051a6.995 6.995 0 0 1-6.948-7.041l.332-47.267a6.997 6.997 0 1 1 13.992.098l-.332 47.267a6.99 6.99 0 0 1-6.993 6.943Zm-26.302 9.946h-.05a6.977 6.977 0 0 1-4.934-2.082 7.001 7.001 0 0 1-2.012-4.961l.472-67.416a6.993 6.993 0 0 1 7.046-6.945 6.998 6.998 0 0 1 6.946 7.046l-.475 67.413a6.994 6.994 0 0 1-6.993 6.945Z" fill="#fff"/><path d="M644.38 597.3a5.818 5.818 0 0 0 5.72-8.368c-2.758-5.61-6.127-12.467-9.083-18.469a14.107 14.107 0 0 1 3.129-16.622 14.124 14.124 0 0 1 5.182-3.022 13.897 13.897 0 0 1 16.424 6.421l32.761 58.451a31.832 31.832 0 0 0 9.301 10.368 31.837 31.837 0 0 0 12.836 5.408l14.717 2.651-.066.148L949.59 673.7a62.593 62.593 0 0 1 43.054 30.591 62.62 62.62 0 0 1 7.986 25.842 62.683 62.683 0 0 1-3.67 26.797 62.368 62.368 0 0 1-58.296 40.76 62.366 62.366 0 0 1-24.566-4.95l-117.321-49.752a15.614 15.614 0 0 1-2-.593s-72.94-30.06-102.278-40.894a73.143 73.143 0 0 0-25.75-4.524c-7.795.054-17.486-.222-23.82-1.573-16.029-3.416-58.95-22.666-58.971-22.675a12.952 12.952 0 0 0-.594-.243 11.296 11.296 0 0 1 .211-21.188 11.317 11.317 0 0 1 1.03-21.612 11.317 11.317 0 0 1 2.327-22.205l-42.149-17.216a10.875 10.875 0 0 1-5.693-14.77c.083-.176.163-.348.246-.52a10.884 10.884 0 0 1 12.983-5.705l92.043 28.035.018-.005Z" fill="#F2A068"/><path d="M776.394 528.4s63.188 135.982 108.968 234.41a64.036 64.036 0 0 0 60.991 36.966 64.018 64.018 0 0 0 24.317-6.016l.861-.403c31.919-15.002 45.699-52.987 30.829-84.964-45.715-98.294-82.005-179.103-82.005-179.103l-143.961-.89Z" fill="#F2A068"/></svg>