<svg class="sinch-icon" xmlns="http://www.w3.org/2000/svg" viewBox="0 0 324 400" fill="none" aria-hidden="true" focusable="false"><path d="M199.651 263.077c5.57-3.661 12.997-2.281 16.923 3.077 3.926 5.358 2.865 12.891-2.334 16.976l-42.546 39.469-59.947.478 87.904-60Z" fill="#894915"/><path d="M323.418 48.806 274.876 0H99.014v277.454h224.404V48.806Z" fill="#FFBE3C"/><path d="m2.198 360.584 24.509-51.406 3.024-6.26c5.676-11.83 15.437-21.22 27.48-26.525l2.228-.955 74.164-32.255c6.897-3.024 15.014-.371 18.78 6.154 3.767 6.525 2.069 14.854-3.979 19.363l-32.891 24.616c-2.811 2.069-1.326 6.525 2.175 6.525h125.995c6.472 0 11.883 4.987 12.361 11.459a12.328 12.328 0 0 1-10.61 13.156l-96.393 13.263c-9.973 1.379-19.735 4.085-28.965 8.117l-21.592 9.336c-6.631 2.865-12.042 8.011-15.172 14.536l-11.3 23.289A12.363 12.363 0 0 1 60.872 400c-1.698 0-3.449-.371-5.093-1.114L8.191 377.401c-4.403-1.963-7.374-6.366-7.32-11.512 0-1.857.53-3.661 1.326-5.305Z" fill="#894915"/><path d="M323.418 48.806 274.876 0l.266 49.337 48.276-.53Zm-40.849 51.459c0-4.987-3.926-9.018-8.807-9.018H148.139c-4.881 0-8.806 4.031-8.806 9.018 0 4.987 3.925 9.019 8.806 9.019h125.623c4.881 0 8.807-4.032 8.807-9.019Zm0 50.663c0-4.827-3.926-8.753-8.807-8.753H148.139c-4.881 0-8.806 3.926-8.806 8.753 0 4.828 3.925 8.754 8.806 8.754h125.623c4.881 0 8.807-3.926 8.807-8.754Zm0 50.398c0-4.827-3.926-8.753-8.807-8.753H148.139c-4.881 0-8.806 3.926-8.806 8.753 0 4.828 3.925 8.754 8.806 8.754h125.623c4.881 0 8.807-3.926 8.807-8.754Z" fill="#F2F2F2"/></svg>