<svg class="sinch-icon" xmlns="http://www.w3.org/2000/svg" viewBox="0 0 484 800" fill="none" aria-hidden="true" focusable="false"><path d="M178.004 78.73v102.229l138.383 25.498-75.495-140.143-62.888 12.416Zm-24.832 663.471 11.512-2.378c7.802-1.475 15.032-5.043 20.931-10.418 8.896-8.087 13.938-19.647 13.891-31.635l-.048-3.663c0-1.142.524-2.236 1.38-2.997.856-.713 1.998-1.046 3.044-.856l43.195-.333a3.39 3.39 0 0 1 3.377 3.377v70.929a2.811 2.811 0 0 1-2.806 2.806h-27.211a2.812 2.812 0 0 1-2.807-2.806v-5.994a1.37 1.37 0 0 0-.761-1.237 1.304 1.304 0 0 0-1.427.143c-8.61 6.374-19.028 9.894-29.446 9.894h-30.208c-6.898 0-12.511-5.613-12.511-12.511a12.368 12.368 0 0 1 9.895-12.321Zm196.468-51.376c.475-.619 1.189-.904 2.045-.904l41.72.333c2.045-.333 4.471 1.284 5.137 3.473l.952 3.377c3.377 11.465 11.655 22.644 22.691 30.683 7.183 5.233 13.177 8.611 22.549 10.371 1.665.333 3.092.571 4.329.808 5.518.999 7.183 1.332 10.703 2.95 6.565 3.092 8.706 5.328 10.942 11.512 1.379 3.853 1.141 7.516-.666 10.133-1.57 2.188-4.139 3.425-7.231 3.425h-30.446c-10.465 0-22.073-3.758-32.633-10.656-.571-.381-1.142-.428-1.57-.143-.333.238-.428.714-.286 1.237l1.808 6.422c.238.856.143 1.713-.333 2.283-.38.524-.999.809-1.76.809h-27.448c-1.523 0-3.045-1.284-3.473-2.902l-17.459-70.928c-.19-.856-.047-1.665.429-2.283Z" fill="#FA0"/><path d="M340.554 405.256H177.861c.999-25.212 5.851-50.14 14.842-73.735 3.568-9.371 5.804-18.314 3.901-25.355h105.845l14.224 27.401a300.306 300.306 0 0 1 23.881 71.689Z" fill="#0A273D"/><path d="M303.115 307.403H196.937c-8.23-30.445-28.685-106.464-36.582-136.243 7.564-6.137 16.84-10.133 26.497-11.512 2.949-.999 56.895-.381 61.509-.523 14.034-.571 40.626-2.189 49.046 11.75 18.172 30.159 1.141 102.61 5.708 136.528Z" fill="#007171"/><path d="m241.225 199.607-.761 14.367-2.473 46.144-.429 7.754h-28.827l-.381-7.754-2.474-46.144-.761-14.367h36.106Z" fill="#F2F2F2"/><path d="M242.129 209.55h-37.961c-.619 0-1.094-.571-.952-1.142l1.903-9.752c.143-.666.714-1.189 1.427-1.189h33.252c.714 0 1.285.476 1.428 1.189l1.902 9.752c.096.571-.38 1.142-.999 1.142Z" fill="#F2F2F2"/><path d="m240.464 213.974-2.473 46.143h-29.637l-2.474-46.143h34.584Z" fill="#FA0"/><path d="M194.891 140.049c-10.227-3.52-17.125-11.132-17.125-30.636V82.298c0-9.229 3.758-17.601 9.799-23.69 6.09-6.09 14.51-9.847 23.786-9.8 18.505.095 25.213 15.46 25.213 33.966v64.411l-34.87 1.665-.428-1.665c-.666-3.235-3.092-5.994-6.375-7.136Z" fill="#842306"/><path d="M219.01 182.054c-9.61 0-17.411-7.802-17.411-17.411v-22.739c0-9.609 7.801-17.411 17.411-17.411 9.609 0 17.411 7.802 17.411 17.411v22.739c0 9.609-7.802 17.411-17.411 17.411Z" fill="#842306"/><path d="M248.361 159.124c-2.854 13.891-15.127 24.309-29.874 24.309-14.605 0-26.83-10.275-29.78-23.976a55.777 55.777 0 0 1 5.661-.285 7.08 7.08 0 0 0 5.043-2.093 7.164 7.164 0 0 0 2.093-5.043v-2.711c0-.476-.143-1.57-.238-2.046l35.202.571c0 6.232 5.043 11.322 11.322 11.322h.571v-.048Z" fill="#842306"/><path d="M256.543 158.744c-14.604.761-26.354 2.712-26.354-11.845V94.38c0-4.756-3.853-8.657-8.658-8.657h-36.106c-3.33 0-6.28 2.236-7.183 5.423l-.476 1.712v-10.56c0-9.23 3.758-17.602 9.799-23.69a33.396 33.396 0 0 1 23.691-9.8c18.41 0 33.347 14.842 33.49 33.252h.761l11.036 76.684Z" fill="#FA0"/><path d="M197.698 123.256c-2.902 0-5.613-1.284-7.421-3.52-.285-.333-.238-.809.095-1.047.333-.285.809-.237 1.047.096a8.083 8.083 0 0 0 6.279 2.949c2.426 0 4.71-1.094 6.28-2.949.285-.333.761-.381 1.046-.096.333.286.381.762.095 1.047-1.855 2.236-4.566 3.52-7.421 3.52Z" fill="#E83452"/><path d="M119.206 323.434c-11.512-4.804-16.983-18.029-12.178-29.541l48.332-119.308c4.709-11.655 18.029-17.173 29.589-12.368 11.465 4.757 16.935 17.839 12.273 29.351L148.7 311.256c-4.757 11.512-17.982 16.983-29.494 12.178Zm225.296-13.176c-11.132 5.661-24.451 1.712-29.779-8.753l-56.134-107.748c-5.471-10.514-.809-23.691 10.37-29.399 11.037-5.614 24.309-1.808 29.685 8.562l56.276 108.082c5.376 10.513.666 23.595-10.418 29.256Z" fill="#007171"/><path d="m304.4 256.931-11.846 37.866-43.908-22.691c-8.087-4.186-11.179-14.176-6.897-22.216 2.902-5.47 8.515-8.658 14.414-8.658 1.76 0 3.568.286 5.328.904l42.909 14.795Z" fill="#842306"/><path d="M354.92 300.506c-5.233 11.321-18.648 16.269-29.97 11.036l-32.396-16.745 11.846-37.866 39.483 13.605c11.322 5.233 16.27 18.648 11.037 29.97Zm-218.113 22.215c-11.369 5.09-24.737 0-29.874-11.369l-17.364-43.385 34.109-20.646s-3.188-5.946-7.897-14.889l32.396 60.462c5.09 11.37 0 24.737-11.37 29.827Z" fill="#007171"/><path d="m123.678 247.274-34.156 20.693-26.07-64.601c-.142-.286-.237-.619-.332-.904-6.993-19.171 20.74-31.111 30.112-12.987 13.843 26.687 30.446 57.799 30.446 57.799Z" fill="#842306"/><path d="M136.332 211.643a5.353 5.353 0 0 1-3.854 1.76l-19.694.38-9.181.191-9.372.19c-1.57.048-3.092-.618-4.09-1.808-.334-.38-.62-.761-.81-1.237l-1.046-2.235-.904-1.903-.238-.524-3.758-7.944-.238-.428-3.805-8.039-.19-.381-.81-1.713-1.57-3.33-.094-.19-.238-.476-.048-.095-1.046-2.188-2.236-4.709-2.617-5.519-9.514-20.17c-1.665-3.472.857-7.516 4.662-7.564l4.044-.095 34.156-.713c2.093-.048 3.996 1.141 4.899 3.044l28.4 59.844c1.047 2.094.571 4.377-.808 5.852Z" fill="#0A273D"/><path d="M70.493 210.739c-2.188 0-4.233-1.284-5.185-3.377-3.9-9.086-5.708-16.364-2.521-24.594 1.712-4.472 1.237-10.466-1.332-15.651a5.643 5.643 0 0 1 2.616-7.516 5.643 5.643 0 0 1 7.517 2.616c3.9 8.04 4.519 17.221 1.665 24.594-1.618 4.234-1.047 8.135 2.378 16.079 1.237 2.855-.095 6.137-2.95 7.374a5.194 5.194 0 0 1-2.188.475Z" fill="#842306"/><path d="m82.1 215.877-7.135 2.617a4.981 4.981 0 0 1-6.374-2.855l-6.042-15.318c-1.95-5.09.618-10.798 5.708-12.701l16.032-5.804 6.136 15.651c2.855 7.374-.903 15.699-8.324 18.41Z" fill="#842306"/><path d="M68.4 198.846a4.622 4.622 0 0 1-3.187-1.284c-1.855-1.76-1.95-4.71-.19-6.612l27.734-29.494c1.76-1.903 4.71-1.951 6.612-.191 1.855 1.76 1.95 4.71.19 6.613l-27.734 29.494c-.904.999-2.14 1.474-3.425 1.474Z" fill="#842306"/><path d="M68.258 199.56c-1.856 0-3.568-1.094-4.33-2.901-.95-2.379.191-5.138 2.57-6.09l43.907-17.886c2.379-.952 5.138.19 6.09 2.569.951 2.378-.191 5.137-2.569 6.089l-43.908 17.886c-.571.191-1.19.333-1.76.333Z" fill="#842306"/><path d="M71.017 208.551a4.733 4.733 0 0 1-4.33-2.902c-.998-2.378.144-5.137 2.522-6.089l41.101-17.078c2.379-.999 5.138.143 6.089 2.521.999 2.379-.142 5.138-2.521 6.09L72.824 208.17c-.618.238-1.189.381-1.807.381Z" fill="#842306"/><path d="M74.252 217.305a4.765 4.765 0 0 1-4.33-2.855c-.998-2.378.096-5.137 2.474-6.136l36.582-15.413c2.379-.999 5.138.095 6.137 2.473.999 2.379-.095 5.138-2.474 6.137l-36.582 15.413a4.728 4.728 0 0 1-1.807.381Zm202.557 40.91-3.711 12.416c-1.903 6.279-8.943 9.324-14.794 6.374l-4.377-2.188v.048l-1.855-.904c-.381-.19-.761-.381-1.142-.619l-1.617-.808c-.048-.095-.048-.143-.048-.19-4.186-2.712-7.706-6.375-10.18-10.704l-18.6-.285c-2.807-.048-5.043-2.331-4.995-5.138a5.07 5.07 0 0 1 3.52-4.757l-4.281-.048c-2.807-.047-5.043-2.331-4.995-5.137.047-1.808.999-3.378 2.426-4.234-2.664-.143-4.805-2.426-4.757-5.138.047-2.807 2.331-5.042 5.137-4.995l18.648.286-11.322-2.997a5.058 5.058 0 0 1-3.615-6.185 5.058 5.058 0 0 1 6.184-3.615l23.5 6.232 4.139 1.046.999.286c.475.143.904.333 1.284.571a10.23 10.23 0 0 1 3.616 3.235l5.898 8.61c1.856 2.759 4.615 4.709 7.802 5.613 5.566 1.665 8.801 7.564 7.136 13.225Z" fill="#842306"/><path d="M180.953 159.315c-11.988-.095-22.834 7.231-27.163 18.41l-6.755 17.269 17.839-7.279 16.079-28.4Z" fill="#007171"/><path d="M249.408 702.575h-61.7c-5.613 0-10.18-4.567-10.18-10.18v-281.62c0-22.644 18.362-41.006 41.006-41.006 22.644 0 41.006 18.362 41.006 41.006v281.62c.048 5.613-4.519 10.18-10.132 10.18Z" fill="#0A273D"/><path d="M407.153 702.575h-64.125c-4.329 0-8.183-2.902-9.277-7.135l-75.257-281.811c-4.567-22.168 9.657-43.86 31.873-48.474 22.168-4.567 43.86 9.657 48.474 31.872l77.636 293.465c1.57 6.089-2.997 12.083-9.324 12.083Z" fill="#0A273D"/><path d="M189.801 200.892c-6.517 0-11.75-5.28-11.75-11.75v-37.486h23.453l.047 37.486c0 6.47-5.28 11.75-11.75 11.75Z" fill="#FA0"/></svg>