<svg class="sinch-icon" xmlns="http://www.w3.org/2000/svg" viewBox="0 0 348 400" fill="none" aria-hidden="true" focusable="false"><path d="m317.588 245.886-19.619 33.991c-2.698 4.709-1.08 10.693 3.58 13.391l8.486 4.905c4.709 2.698 10.693 1.079 13.39-3.581l19.62-33.991c2.698-4.709 1.079-10.693-3.58-13.391l-8.486-4.905c-4.709-2.697-10.693-1.128-13.391 3.581Z" fill="#007171"/><path d="m292.063 231.162-19.62 33.981 25.486 14.715 19.62-33.981-25.486-14.715Z" fill="#0A273D"/><path d="M257.11 301.606 36.24 174.077c-4.71-2.697-6.28-8.731-3.582-13.39l49.05-84.954c2.698-4.709 8.731-6.279 13.39-3.58L315.97 199.68c4.709 2.698 6.279 8.731 3.581 13.391l-49.05 84.954c-2.697 4.66-8.731 6.278-13.39 3.58Z" fill="#007171"/><path d="M338.189 194.433 90.292 51.306c-4.709-2.698-10.693-1.08-13.39 3.58l-49.05 84.955c-2.698 4.708-1.08 10.692 3.58 13.39l75.145 43.409a49.64 49.64 0 0 0 24.721 6.622h204.537c4.807 0 6.523-6.426 2.354-8.829Z" fill="#0A273D"/><path d="M296.595 195.12a4.906 4.906 0 1 0-.001-9.811 4.906 4.906 0 0 0 .001 9.811Z" fill="#E83452"/><path d="m123.806 2.674-29.43 50.972 4.248 2.453 29.429-50.973-4.247-2.452Z" fill="#0A273D"/><path d="M125.608 9.81a4.905 4.905 0 1 0 0-9.81 4.905 4.905 0 0 0 0 9.81Z" fill="#E83452"/><path d="M138.115 230.779v103.004c0 5.395-4.414 9.81-9.81 9.81H39.82c-5.297 0-9.614-4.316-9.614-9.614v-12.458c0-5.396-4.414-9.81-9.81-9.81h-9.81c-5.395 0-9.81 4.414-9.81 9.81v68.669c0 5.396 4.415 9.81 9.81 9.81h9.81c5.396 0 9.81-4.414 9.81-9.81v-12.459c0-5.297 4.317-9.613 9.614-9.613h113.01c5.396 0 9.81-4.415 9.81-9.81V230.779c0-5.396-4.414-9.81-9.81-9.81h-4.905c-5.395 0-9.81 4.365-9.81 9.81Z" fill="#0A273D"/><path d="M150.378 267.419c16.254 0 29.43-13.176 29.43-29.43 0-16.254-13.176-29.43-29.43-29.43-16.254 0-29.43 13.176-29.43 29.43 0 16.254 13.176 29.43 29.43 29.43Z" fill="#0A273D"/><path d="M150.378 252.704c8.127 0 14.715-6.588 14.715-14.715 0-8.127-6.588-14.715-14.715-14.715-8.127 0-14.715 6.588-14.715 14.715 0 8.127 6.588 14.715 14.715 14.715Z" fill="#FFBE3C"/></svg>