<svg class="sinch-icon" xmlns="http://www.w3.org/2000/svg" viewBox="0 0 332 800" fill="none" aria-hidden="true" focusable="false"><path d="M15.572 768.49c5.98-7.04 13.454-15.798 13.454-30.211v-2.288c0-.132.027-.241.027-.373V709a5.512 5.512 0 0 1 3.93 1.631 5.525 5.525 0 0 1 1.602 3.942l-.027 8.242a23.099 23.099 0 0 1 34.601-11.447 23.098 23.098 0 0 1 8.651 10.731v-7.567a5.531 5.531 0 0 1 5.532-5.529h.745v52.864c.85 11.756 3.244 18.907 3.323 19.174A14.22 14.22 0 0 1 73.983 800H21.186a14.212 14.212 0 0 1-13.145-8.781 14.224 14.224 0 0 1-1.083-5.444c.026-7.207 4.203-12.099 8.617-17.285m155.966-57.593h25.061c5.08 0 9.791 4.13 10.503 9.213 3.52-4.57 8.715-7.749 14.904-8.829 2.405-.41 4.913 1.54 5.235 4.031l.519 4.258c1.936 14.191 9.794 27.765 21.629 37.336 7.814 6.315 16.957 10.559 26.399 12.267l13.812 2.771c6.746 1.361 12.29 7.134 13.231 13.859 1.094 7.8-4.356 14.138-12.158 14.138h-35.241c-12.164 0-26.739-4.209-37.544-11.471-1.532-1.027-3.368-.024-3.124 1.695l.976 6.981a2.38 2.38 0 0 1-1.378 2.592 2.387 2.387 0 0 1-1.027.203h-31.783a3.338 3.338 0 0 1-3.188-2.795l-9.756-82.811a2.894 2.894 0 0 1 .638-2.426 2.894 2.894 0 0 1 2.295-1.012" fill="#0A273D"/><path d="m117.026 333.641 91.807 2.672s32.734 328.42 38.806 390.107a8.878 8.878 0 0 1-8.917 9.884h-76.965a8.985 8.985 0 0 1-8.946-8.007l-26.545-231.278-22.497 225.851a9.027 9.027 0 0 1-8.946 8.125H18.59a9.205 9.205 0 0 1-6.716-2.962 9.006 9.006 0 0 1-2.2-6.925l39.92-395.093 67.432 7.626Z" fill="#E83452"/><path d="M281.37 81.4a3.555 3.555 0 0 1 3.088-1.742l42.531.058-46.13 77.338-38.28-.055a3.612 3.612 0 0 1-3.095-5.394L281.37 81.4Z" fill="#666"/><path d="M326.906 108.869c-2.261 2.499-3.954 5.159-4.839 8.057-.886 2.898-1.015 5.987-.561 9.498l.379 2.865c.143 1.168.221 2.343.231 3.52a31.632 31.632 0 0 1-.724 7.016 38.965 38.965 0 0 1-5.245 12.516l-.211.308-.278.328a9656.603 9656.603 0 0 1-24.161 28.208l-12.122 14.079a5.277 5.277 0 0 1-7.446.568 5.28 5.28 0 0 1-.568-7.446l-.137-.117 12.069-14.12a3838.104 3838.104 0 0 1 24.24-28.129l-.458.642c1.834-2.933 3.227-5.98 3.922-9.092.353-1.539.523-3.115.504-4.693a14.29 14.29 0 0 0-.152-2.347l-.161-1.411-.168-1.572c-.41-4.288-.293-9.239 1.382-13.821a27.074 27.074 0 0 1 3.32-6.371 31.126 31.126 0 0 1 4.611-5.138 4.675 4.675 0 0 1 6.579 6.626l-.006.026Z" fill="#842306"/><path d="m288.131 79.652 38.013.053a5.162 5.162 0 0 1 5.175 5.216 5.16 5.16 0 0 1-.731 2.592l-40.507 67.905a3.369 3.369 0 0 1-2.886 1.646l-45.208-.065 46.144-77.347Z" fill="#CCC"/><path d="M321.382 89.152c.095-.65-.27-1.24-.815-1.32-.545-.079-1.064.383-1.158 1.033-.095.649.27 1.24.815 1.319.545.08 1.064-.383 1.158-1.032Z" fill="#666"/><path d="m218.844 218.161 78.608-80.401a12.025 12.025 0 0 1 16.098.173 12.025 12.025 0 0 1 1.5 16.03l-60.006 97.468a24.734 24.734 0 0 1-16.209 9.766 24.732 24.732 0 0 1-24.861-11.69 24.72 24.72 0 0 1 1.285-27.442 25.526 25.526 0 0 1 3.579-3.904" fill="#842306"/><path d="m296.505 118.965-12.173-13.169a4.361 4.361 0 0 1 .264-6.072c1.672-1.467 4.253-1.467 5.808.088l23.054 21.943a5.72 5.72 0 0 1 1.672 3.607l2.757-1.671-5.338 23.611-21.764 6.356a5.655 5.655 0 0 0 .307-4.701 5.654 5.654 0 0 0-3.358-3.306l-3.49-.645-1.203-.088.088-.091-17.804-3.136a4.38 4.38 0 0 1 1.291-8.653l1.466.176a4.557 4.557 0 0 1-2.669-5.074 4.651 4.651 0 0 1 5.251-3.784l.821.088a4.741 4.741 0 0 1-1.376-4.223 4.832 4.832 0 0 1 5.427-4.048l20.969 2.792Z" fill="#842306"/><path d="M72.501 147.534a59.129 59.129 0 0 1 50.508-28.305h65.263a37.057 37.057 0 0 1 32.729 19.352 37.052 37.052 0 0 1-1.55 37.991c-11.146 17.337-20.561 31.795-20.561 31.795l2.493 32.176 46.373-68.113 37.602 29.947s-20.737 33.937-37.045 60.658a37.255 37.255 0 0 1-43.88 15.662l4.899 62.506-161.41 1.117 3.402-35.875H30.587a20.154 20.154 0 0 1-3.315 0 24.665 24.665 0 0 1-15.399-5.808 29.622 29.622 0 0 1-7.658-39.098c25.987-43.499 68.02-113.835 68.02-113.835l.266-.17Z" fill="#12364C"/><path d="M168.784 155.101c7.157 5.339 22.307-12.319 22.307-12.319v-19.714a9.675 9.675 0 0 1 8.77-9.626c15.161-1.414 26.248-15.123 24.738-30.596l-4.676-47.933C217.87 13.724 199.18-1.815 178.346.461c-20.367 2.264-34.834 21.206-32.804 42.031l6.251 64.089c.616 6.315-3.91 11.874-10.064 12.449l-3.37.31 30.425 35.761Z" fill="#842306"/><path d="M145.616 42.912C143.19 20.145 156.905 3.364 176.941.382c19.729-2.934 39.304 11.494 42.634 32.093 0 0-6.914 14.39-23.662 14.989-16.845.613-21.447-13.528-34.3-13.493-10.597.062-14.006 11.665-14.959 19.925l-1.038-10.984Zm59.199 48.998a14.143 14.143 0 0 0 11.929-5.781 1.561 1.561 0 0 0 .282-1.174 1.549 1.549 0 0 0-.646-1.02 1.596 1.596 0 0 0-2.22.366 11.15 11.15 0 0 1-6.814 4.297 11.028 11.028 0 0 1-7.92-1.542 1.647 1.647 0 0 0-2.226.475 1.605 1.605 0 0 0 .472 2.2 14.273 14.273 0 0 0 7.151 2.179" fill="#12364C"/><path d="M229.186 146.214a12.226 12.226 0 0 0-12.272-12.208H89.249a12.266 12.266 0 0 0-12.269 12.205v139.951h152.23V146.214h-.024Z" fill="#FFBE3C"/><path d="M144.16 133.951H94.455v44.75a2.83 2.83 0 0 0 2.845 2.839c.5-.003.99-.138 1.42-.392a4952.27 4952.27 0 0 0 18.423-10.768 2.834 2.834 0 0 1 2.795-.02 8012.289 8012.289 0 0 1 20.01 10.984 2.863 2.863 0 0 0 3.832-1.091c.244-.425.372-.906.371-1.396.009-12.475.009-44.906.009-44.906Z" fill="#007171"/><path d="M202.556 255.889a5.79 5.79 0 0 1 5.778 9.949l-12.841 9.627a1.418 1.418 0 0 0 .851 2.546h42.729a4.835 4.835 0 0 1 .687 9.626l-39.498 8.507c-.161.035-.325.052-.487.09-5.183.505-54.415.179-54.415.179l-1.03-24.902 58.226-15.622Z" fill="#842306"/><path d="M145.272 306.416H51.225l-.355 4.605h94.382v-4.605h.02Z" fill="#0A273D"/><path d="m145.463 271.309-84.372-8.899v43.639h84.372v-34.74Z" fill="#12364C"/></svg>