<svg class="sinch-icon" xmlns="http://www.w3.org/2000/svg" viewBox="0 0 833 800" fill="none" aria-hidden="true" focusable="false"><path d="M626.249 216.68c40.142-13.016 83.238 8.969 96.254 49.111 13.016 40.143-9.078 83.347-49.221 96.473-40.142 13.016-83.237-8.969-96.253-49.111-12.907-40.143 9.187-83.347 49.22-96.473Z" fill="#F2F2F2"/><path d="m579.435 305.606 135.74-43.751-10.391-32.267-135.74 43.752 10.391 32.266Zm1.969-43.86L693.08 225.76l-2.516-7.766-111.676 35.986 2.516 7.766Z" fill="#fff"/><path d="M622.968 207.931c-45.064 14.656-69.784 63.221-55.237 108.285 14.548 45.064 63.003 69.784 108.067 55.127 45.064-14.657 69.784-63.221 55.237-108.285-14.657-45.065-63.003-69.784-108.067-55.127Zm5.797 17.828c35.22-11.484 73.065 7.876 84.441 43.096 11.375 35.22-7.985 73.175-43.205 84.659-35.22 11.485-73.065-7.875-84.441-43.095-11.375-35.22 7.985-73.175 43.205-84.66Z" fill="#007171"/><path d="M655.891 435.878c2.297-4.594 2.844-9.954 1.313-14.876a4953.332 4953.332 0 0 0-10.173-31.282c-1.64-5.032.766-10.61 5.469-12.907 5.36-2.625 11.813-.328 14.439 5.031 5.468 11.266 14.109 28.986 16.406 33.361.11.328.438.547.766.656.328.11.656 0 .984-.218a1.17 1.17 0 0 1 1.532.109c1.422 1.531 5.031 5.25 8.313 9.188l12.469 49.33s-10.61 21.219-19.688 38.611c-.766 1.422-1.969 2.406-3.501 2.844-1.531.437-3.172.328-4.484-.438-10.719-5.906-34.892-19.251-45.283-25.048-2.735-1.531-3.828-4.922-2.406-7.766 5.359-10.391 17.61-34.454 23.844-46.595Z" fill="#F2A068"/><path d="m660.266 373.421 32.595 100.847c2.625 8.204 11.485 12.688 19.688 10.063 8.204-2.625 12.688-11.485 10.063-19.688l-32.595-100.848c-2.625-8.203-11.485-12.688-19.688-10.063-8.204 2.625-12.688 11.485-10.063 19.689Z" fill="#007171"/><path d="M683.674 416.844c-2.407.219-4.813-.547-6.782-2.187-4.047-3.282-4.047-8.204-1.203-13.345l8.86-14.11 9.625-15.532c2.078-4.812 7.656-6.89 12.469-4.812 4.813 2.078 6.891 7.656 4.813 12.469-.11.328-.328.547-.438.875l-1.531 2.735c1.859-.329 3.719-.11 5.578.656 4.813 2.078 6.891 7.656 4.813 12.469-.109.328-.328.547-.437.875l-2.735 4.703c1.094.11 2.188.329 3.281.766 4.704 2.078 6.891 7.657 4.813 12.469-.109.328-.328.547-.437.875l-2.516 4.376c.765.109 1.531.328 2.187.656 4.813 2.078 7.001 7.656 4.922 12.36-.109.328-.328.547-.437.875l-5.031 9.188c-2.626 6.015-4.813 10.828-4.813 10.828-.109.328-.328.547-.438.875-2.625 4.485-8.422 6.016-12.906 3.391-4.157-2.406-5.797-7.547-3.938-11.922-2.516.328-5.25-.329-7.328-2.079-2.954-2.515-3.829-5.797-2.844-9.406-2.735.547-5.579-.11-7.876-1.969-4.047-3.281-4.047-8.204-1.203-13.344l1.532-2.735Z" fill="#F2A068"/><path d="m643.64 334.482-5.14-2.625c-1.094-.547-2.297-.11-2.844.984-.547 1.094-.11 2.297.875 2.844l5.141 2.625-2.625 5.141c-.547 1.094-.11 2.297.875 2.844 1.093.547 2.296.109 2.843-.985l2.626-5.141 5.14 2.626c1.094.546 2.297.109 2.844-.985.219-.547.328-1.094.11-1.641-.219-.546-.547-.984-1.094-1.203l-5.141-2.625 2.625-5.141c.219-.547.328-1.093.109-1.64-.218-.547-.546-.985-1.093-1.203-1.094-.547-2.297-.11-2.844.984l-2.407 5.141Zm109.38-38.392-4.157-2.079c-.875-.437-1.859-.109-2.297.766-.437.875-.109 1.86.766 2.297l4.157 2.078-2.079 4.157c-.437.875-.109 1.859.766 2.297.875.437 1.859.109 2.297-.766l2.078-4.156 4.157 2.078c.875.437 1.859.109 2.297-.766.218-.437.218-.875.109-1.312-.109-.438-.438-.766-.875-.985l-4.156-2.078 2.078-4.156c.218-.438.218-.876.109-1.313-.109-.438-.437-.766-.875-.984-.875-.438-1.859-.11-2.297.765l-2.078 4.157ZM623.186 182.336l-6.344-3.172a2.643 2.643 0 0 0-3.5 1.094 2.645 2.645 0 0 0 1.094 3.5l6.344 3.172-3.281 6.344a2.643 2.643 0 0 0 1.093 3.5 2.645 2.645 0 0 0 3.501-1.094l3.281-6.344 6.344 3.172a2.644 2.644 0 0 0 3.5-1.094c.328-.656.328-1.312.11-1.969a2.589 2.589 0 0 0-1.313-1.531l-6.344-3.172 3.281-6.344c.328-.656.328-1.312.11-1.969a2.589 2.589 0 0 0-1.313-1.531 2.644 2.644 0 0 0-3.5 1.094l-3.063 6.344Z" fill="#EDB158"/><path d="m558.981 595.352-31.939-65.737c-4.156-8.641-11.813-14.985-21.11-17.61-15.969-4.484-33.142.875-43.861 13.673-10.719 12.688-12.907 30.517-5.797 45.501l50.533 105.661-31.501 49.22h78.534c19.907 0 38.064-11.484 46.596-29.423" fill="#842306"/><path d="m219.796 621.712.656 104.457h333.607L478.587 562.21l50.315-28.658S497.4 465.628 478.04 423.845c-8.969-19.469-28.329-31.939-49.767-32.157-62.128-.657-195.461-2.079-195.461-2.079l-14.438 24.392.219 28.657-29.423-18.594-64.972 138.583 95.707 43.315-.109 15.75Z" fill="#842306"/><path d="M372.708 88.924c-47.252.328-84.988 39.486-84.988 86.738v213.071l77.441 77.44c10.828 10.829-14.766 11.813-2.625 2.516h-1.094c14.329-11.157 15.75-32.376 2.844-45.283l13.781-29.97c-2.953-2.953-4.703-7.11-4.703-11.376 0-7.875 5.688-14.547 13.454-15.86 40.908-6.453 72.081-41.892 72.081-84.55V174.568c.109-47.58-38.611-85.972-86.191-85.644Z" fill="#F2A068"/><path d="M414.491 195.898a29.208 29.208 0 0 0 22.641 10.72 29.21 29.21 0 0 0 22.642-10.72h-45.283Z" fill="#272727"/><path d="M455.289 149.63c-10.719-35.329-43.642-61.033-82.581-60.705-47.252.328-84.988 39.486-84.988 86.738v20.344h235.494c5.906 0 10.719-4.812 10.719-10.719 0-5.906-4.813-10.719-10.719-10.719h-34.127c-15.531 0-29.313-10.063-33.798-24.939Z" fill="#842306"/><path d="M416.131 322.997c-8.641 0-17.282-3.282-23.844-9.844-1.313-1.313-1.313-3.501 0-4.813 1.312-1.313 3.5-1.313 4.812 0 10.501 10.5 27.564 10.5 37.955 0 1.313-1.313 3.5-1.313 4.813 0 1.312 1.312 1.312 3.5 0 4.813-6.454 6.562-15.095 9.844-23.736 9.844Z" fill="#894915"/><path d="M362.645 195.898c-17.719 0-32.158 14.329-32.158 32.158v7.11c0 2.406-1.75 4.484-4.047 4.922-9.844 1.75-17.281 9.734-17.281 20.125v8.204c0 14.657-8.313 28.11-21.439 34.673V196.008h74.925v-.11Z" fill="#272727"/><path d="M114.682 726.716a52.607 52.607 0 0 1-46.267-27.564c-9.188-17.063-8.203-37.627 2.406-53.815l57.753-85.206 87.831 56.002-22.97 33.908 142.522 24.063 1.969 52.612H114.682Z" fill="#842306"/><path d="m277.548 725.403 24.829-57.315c.109-.328.437-.547.875-.438l20.126 2.188c8.531.875 17.391-.11 25.376-3.063l17.282-6.125a43.788 43.788 0 0 1 43.751 8.422l45.502 43.643c2.625 2.296 3.828 5.468 3.282 8.75-.438 2.844-2.188 5.25-4.594 6.344l-.219.109a9.466 9.466 0 0 1-3.5.657c-1.75 0-3.391-.438-5.032-1.313l-5.031-3.172c-.875 1.422-2.406 2.953-5.36 3.719-3.609.875-7.438 0-10.61-2.406l-14.985-10.391c-8.422-5.907-19.36-6.563-28.547-1.969l-15.314 7.875c-7.219 3.719-15.422 5.688-23.626 5.688h-63.658c-.328 0-.547-.11-.657-.328 0-.329 0-.547.11-.875Z" fill="#F2A068"/><path d="m388.896 681.87 75.363 21.548c5.14 1.422 10.391-1.531 11.813-6.563 1.421-4.922-1.422-10.172-6.235-11.703l-74.487-24.501c-5.797-1.86-12.141 1.312-14.001 7.109-1.859 5.798 1.313 12.142 7.11 14.001.109 0 .218.109.437.109Z" fill="#F2A068"/><path d="M191.248 415.203c7.766-16.516 24.719-26.579 42.876-25.485 3.391.218 6.891.437 10.61.656 15.423.875 29.314 9.735 36.533 23.298 7.328 13.563 7 30.079-.766 43.423-21.11 36.424-47.252 81.488-66.174 113.973-6.344 10.938-17.173 18.595-29.642 21.001-12.469 2.407-25.267-.765-35.22-8.531-15.86-12.469-21.001-34.236-12.469-52.502 6.562-14.11 14.766-31.502 23.079-49.221 11.156-24.063 22.75-48.674 31.173-66.612Z" fill="#842306"/><path d="M314.409 197.102s4.484 35.548-47.908 41.892c-5.469.656-8.751-5.688-5.141-9.844 6.891-7.766 14.328-19.251 14.328-33.142 0-26.251 3.829-107.082 96.91-107.082l-58.189 108.176Z" fill="#842306"/><path d="m400.053 391.358-42.549 118.458-81.378-119.88c4.922-6.016 8.86-12.797 11.594-20.016l40.142 4.922a21.459 21.459 0 0 1 14.985 9.625l18.267 29.095 28.548-43.97c0 .219.875 9.406 10.391 21.766Z" fill="#007171"/><path d="M542.465 343.013 520.37 338.2c-3.5-.765-7.11.875-8.75 4.047l-7.329 13.564c-1.312 2.406-4.375 3.39-6.781 2.078-6.563-3.5-19.361-10.938-32.486-21.985-15.204-12.798-37.626-18.048-45.502-19.47-1.531-.328-3.062.656-3.391 2.297-.328 1.531.657 3.172 2.188 3.5l11.922 2.516s21.548 4.594 49.768 40.361c0 0 20.563 24.501 46.267 23.735 19.251-.547 22.314-25.376 22.642-37.736a8.013 8.013 0 0 0-6.453-8.094ZM165.544 470.111 62.29 664.15l131.255-14.219 48.783-69.018-76.784-110.802Z" fill="#842306"/><path d="m501.775 474.926 57.206 120.426 73.174-112.879 52.174 33.251-60.049 130.927-23.845 50.096-89.144-3.5-70.331-140.334 60.815-77.987Z" fill="#842306"/></svg>