<svg class="sinch-icon" xmlns="http://www.w3.org/2000/svg" viewBox="0 0 452 400" fill="none" aria-hidden="true" focusable="false"><path d="M22.733 164.196 296.838 5.995c21.315-12.323 48.626-4.996 60.949 16.32l88.093 152.373c12.323 21.315 4.996 48.626-16.32 60.949L155.456 393.838c-21.316 12.323-48.627 4.996-60.95-16.319L6.413 225.312c-12.323-21.482-4.996-48.792 16.32-61.116Z" fill="#007171"/><path d="m296.005 114.571 39.634-22.814c6.827-3.83 9.159-12.656 5.162-19.317l-11.657-20.317c-3.83-6.828-12.656-9.159-19.317-5.162l-39.634 22.814c-6.827 3.83-9.159 12.656-5.162 19.317l11.657 20.317c3.83 6.827 12.489 9.159 19.317 5.162Z" fill="#FFBE3C"/><path d="m163.449 153.705-103.58 59.784c-4.663 2.664-10.492.999-13.156-3.497-2.665-4.663-1-10.491 3.497-13.156l103.58-59.783c4.663-2.665 10.492-1 13.156 3.497 2.664 4.662 1.166 10.491-3.497 13.155Zm-39.467 60.783-47.627 27.477c-4.663 2.665-10.492.999-13.156-3.497-2.664-4.663-1-10.491 3.497-13.156l47.627-27.477c4.663-2.664 10.491-.999 13.156 3.497 2.831 4.497 1.165 10.492-3.497 13.156Z" fill="#059688"/><path d="M416.588 124.052 65.14 326.966l28.81 49.898L445.397 173.95l-28.809-49.898Z" fill="#0A273D"/></svg>