<svg class="sinch-icon" xmlns="http://www.w3.org/2000/svg" viewBox="0 0 480 800" fill="none" aria-hidden="true" focusable="false"><path d="m420.112 212.532 19.863-3.003c4.157-.693 7.159-3.927 7.39-8.086l1.155-17.788c.231-2.31 2.079-4.389 4.619-4.389a4.633 4.633 0 0 1 4.619 4.62l.231 15.709 9.239-5.544c4.388-2.541 9.931.231 10.162 5.313l.693 13.63c.231 5.776-3.465 11.089-9.008 12.475l-43.42 12.013" fill="#832511"/><path d="m343.719 5.117 2.039-2.051a1.798 1.798 0 0 0 0-2.508 1.77 1.77 0 0 0-2.492 0l-2.039 2.052-2.038-2.052a1.77 1.77 0 0 0-2.492 0 1.796 1.796 0 0 0 0 2.508l2.039 2.051-2.039 2.052a1.796 1.796 0 0 0 0 2.507c.227.456.906.456 1.359.456.453 0 .906-.228 1.359-.456l2.039-2.051 2.039 2.051c.226.456.906.456 1.359.456.453 0 .906-.228 1.359-.456a1.798 1.798 0 0 0 0-2.507l-2.492-2.052ZM147.552 55.04l2.039-2.051a1.798 1.798 0 0 0 0-2.508 1.77 1.77 0 0 0-2.492 0l-2.039 2.052-2.038-2.052a1.77 1.77 0 0 0-2.492 0 1.796 1.796 0 0 0 0 2.508l2.038 2.051-2.038 2.052a1.796 1.796 0 0 0 0 2.507c.226.456.906.456 1.359.456.453 0 .906-.228 1.359-.456l2.039-2.051 2.038 2.051c.227.456.906.456 1.36.456.453 0 .906-.228 1.359-.456a1.798 1.798 0 0 0 0-2.507l-2.492-2.052Zm258.914-26.9 2.038-2.051c.68-.684.68-1.824 0-2.508a1.77 1.77 0 0 0-2.492 0l-2.038 2.052-2.039-2.28a1.77 1.77 0 0 0-2.492 0 1.798 1.798 0 0 0 0 2.508l2.039 2.051-2.039 2.052a1.798 1.798 0 0 0 0 2.507c.227.456.906.456 1.359.456.454 0 .907-.228 1.36-.456l2.038-2.051 2.039 2.051c.226.456.906.456 1.359.456.453 0 .906-.228 1.359-.456.68-.683.68-1.823 0-2.507l-2.491-1.824Zm-52.327 123.779 2.039-2.052a1.797 1.797 0 0 0 0-2.507 1.77 1.77 0 0 0-2.492 0l-2.038 2.051-2.039-2.051a1.77 1.77 0 0 0-2.492 0 1.797 1.797 0 0 0 0 2.507l2.039 2.052-2.039 2.051a1.799 1.799 0 0 0 0 2.508c.227.456.906.456 1.359.456.453 0 .906-.228 1.359-.456l2.039-2.052 2.039 2.052c.226.456.906.456 1.359.456.453 0 .906-.228 1.359-.456.68-.684.68-1.824 0-2.508l-2.492-2.051ZM277.802 56.18l2.038-2.052c.68-.684.68-1.823 0-2.507a1.769 1.769 0 0 0-2.491 0l-2.039 2.051-2.039-2.28a1.769 1.769 0 0 0-2.491 0 1.796 1.796 0 0 0 0 2.508l2.038 2.052-2.038 2.052a1.796 1.796 0 0 0 0 2.507c.226.456.906.456 1.359.456.453 0 .906-.228 1.359-.456l2.038-2.052 2.039 2.052c.227.456.906.456 1.359.456.453 0 .906-.228 1.359-.456.68-.684.68-1.824 0-2.508l-2.491-1.823Z" fill="#FBBD3F"/><path d="M393.551 82.933c4.157 0 7.621-3.465 7.621-7.854 0-4.39-3.464-7.855-7.621-7.855-4.158 0-7.622 3.465-7.622 7.855 0 4.389 3.233 7.854 7.622 7.854ZM228.648 113.89c4.157 0 7.622-3.465 7.622-7.854 0-4.39-3.465-7.855-7.622-7.855s-7.621 3.465-7.621 7.855c0 4.389 3.464 7.854 7.621 7.854Z" fill="#10273D"/><path d="M216.408 64.222c0 .232.23.463.461.463h12.703a.497.497 0 0 0 .462-.463V51.286a.497.497 0 0 0-.462-.462h-12.703a.495.495 0 0 0-.461.462v12.936Zm-97.003 61.448c0 .231.231.462.462.462h12.703a.497.497 0 0 0 .462-.462v-12.936a.497.497 0 0 0-.462-.463h-12.703a.497.497 0 0 0-.462.463v12.936Zm263.522-2.079c0 .231.23.462.461.462h12.703a.497.497 0 0 0 .462-.462v-12.937a.497.497 0 0 0-.462-.462h-12.703c-.231 0-.461.231-.461.462v12.937Z" fill="#009687"/><path d="M251.975 25.641s0 .232-.231.232h-.231c-2.309-1.156-12.934-6.007-15.243-7.162l-.231-.231s0-.231.231-.231c2.079-1.617 12.01-8.547 14.088-9.934h.231l.231.231c.231 2.773.924 14.554 1.155 17.095Zm75.523 69.997s0 .231-.231.231h-.231c-2.309-1.154-12.933-6.006-15.243-7.16l-.231-.232s0-.23.231-.23c2.079-1.618 12.01-8.548 14.088-9.934h.231l.231.23c.231 2.542.924 14.554 1.155 17.095ZM103.47 176.726s0 .231-.231.231h-.231c-2.31-1.155-12.934-6.006-15.243-7.161l-.231-.231s0-.232.23-.232c2.08-1.617 12.01-8.547 14.089-9.933h.231l.231.231c.231 2.541.924 14.554 1.155 17.095Z" fill="#E03F52"/><path d="M174.374 96.794c-1.386-.231-2.772.23-3.927 1.155-.461.462-.923 1.386-1.154 2.079l-2.31 12.013a4.467 4.467 0 0 0-2.079-1.155c-1.385-.231-3.002.231-3.926 1.155l-.462.462c-.462-.231-.924-.693-1.616-.693-1.386-.231-3.003.231-3.927 1.155l-.462.462c-.462-.231-.923-.693-1.616-.693-1.386-.231-3.003.231-3.927 1.155a4.466 4.466 0 0 0-1.154 2.079s-2.31 12.475-2.541 17.095c0 1.386.231 3.003.462 4.851.462 3.696.462 7.624-.231 11.32-1.617 9.24-4.85 25.411-4.85 25.411-.462 2.31 1.155 4.39 3.464 4.852l16.167 6.006c2.772.462 4.619-1.617 4.85-4.389l4.62-32.342c.461-5.314 1.847-8.548 5.312-10.627 2.078-1.155 3.695-2.772 4.619-4.851l3.002-5.313c1.386-2.542 1.386-4.852-.231-6.007-2.078-1.155-5.081 0-6.467 2.541 0 0-4.619 5.776-4.388 4.852l5.543-27.722c.462-2.08-.693-4.39-2.771-4.851Z" fill="#832511"/><path d="M470.691 744.326H322.186v-96.333c0-4.62-3.927-8.548-8.546-8.548H165.596c-4.619 0-8.545 3.928-8.545 8.548v58.908H8.545c-4.619 0-8.545 3.928-8.545 8.548v75.772c0 4.621 3.926 8.548 8.545 8.548h462.146c4.619 0 8.546-3.927 8.546-8.548v-38.348c0-4.62-3.927-8.547-8.546-8.547Z" fill="#13384C"/><path d="m301.169 486.514-19.632 56.829-20.093-30.955 16.629-59.602 23.096 33.728Z" fill="#fff"/><path d="m265.371 486.052-17.322 48.051 37.184 43.893c9.238 10.857 26.329 0 20.324-12.937l-11.548-25.181c-1.847-4.158-2.771-9.009-2.54-13.629l.231-4.852c0-1.617-.231-3.234-1.155-4.389l-21.479-31.187c-.924-1.617-3.002-1.386-3.695.231Z" fill="#14374D"/><path d="M267.91 519.318a6.93 6.93 0 0 0 6.929-6.931 6.93 6.93 0 1 0-13.857 0 6.93 6.93 0 0 0 6.928 6.931Z" fill="#A8D7E2"/><path d="m211.09 398.155-26.649 8.413 13.973 44.28 26.649-8.414-13.973-44.279Z" fill="#fff"/><path d="m221.026 416.285 15.474 48.744-39.031 42.275c-9.47 10.396-26.33-1.155-19.863-13.86l12.472-24.719c2.079-4.158 3.233-8.778 3.002-13.399v-4.851c0-1.617.462-3.234 1.386-4.389l22.634-30.494c1.155-1.386 3.233-.924 3.926.693Z" fill="#14374D"/><path d="M217.33 449.32a6.93 6.93 0 0 0 6.929-6.93 6.93 6.93 0 1 0-13.858 0 6.93 6.93 0 0 0 6.929 6.93Zm-34.874 60.527c4.62 2.772 10.625 2.772 15.244-2.079l38.801-42.276-3.234-9.933-50.811 54.288Z" fill="#A8D7E2"/><path d="m336.043 391.106-36.722-76.928-.231-11.089S165.828 285.07 157.975 285.07c-11.316 0-21.017 10.627-19.862 21.716l1.155 6.006 30.717 97.95 3.465 2.772 48.27-1.848c1.616-.231 2.771-1.617 2.771-3.234 0-.231 0-.693-.231-.924l-.231-.462-22.172-61.681 72.521 27.26 16.629 22.408-30.025 76.003c0 .231-.231.231-.231.462v.231c0 .231-.231.694-.231.925 0 1.386.693 2.31 1.848 3.003.231.231.462.231.693.231l45.037 18.25c.231 0 .231 0 .462.231l.461.231c.231 0 .462.231.693.231 1.386 0 2.31-.693 3.003-1.848v-.231c0-.231 0-.231.231-.462.924-2.772 1.616-5.545 2.54-8.317 2.079-6.699 3.927-13.168 6.005-19.867 2.31-7.854 4.85-15.94 7.16-23.794l6.236-20.099c1.616-5.082 4.157-10.626 4.619-15.94v-.231c.231-4.851-1.155-9.471-3.465-12.936Z" fill="#009687"/><path d="M299.321 584.002c-4.619 2.541-10.855 2.31-15.012-2.772l-37.185-43.662 3.465-9.933 48.732 56.367Z" fill="#A8D7E2"/><path d="M158.437 325.96c11.352 0 20.555-9.205 20.555-20.56 0-11.355-9.203-20.56-20.555-20.56s-20.555 9.205-20.555 20.56c0 11.355 9.203 20.56 20.555 20.56Zm14.55 87.093a3.233 3.233 0 1 0 0-6.467 3.233 3.233 0 0 0 0 6.467Z" fill="#009687"/><path d="m430.735 206.294-65.822 13.861s-46.885-33.035-50.118-34.652c-3.696-2.31-8.084-3.466-12.703-3.466h-59.818c-1.617 0-3.002.231-4.388.462-.462 0-1.155 0-1.617.231l-66.746 18.251 3.233-36.732-33.027-11.55s-2.309 40.427-3.926 68.611c-.462 7.392 3.002 14.554 9.238 18.943 6.005 4.389 13.627 4.158 20.786 2.31 5.543-1.386 60.511-16.171 60.511-16.171-2.078 7.855-21.248 64.222-21.248 64.222l94 23.563 8.776-84.782s30.025 21.022 39.956 27.029c3.695 2.31 7.621 3.927 11.779 2.772 20.093-5.544 78.294-21.253 78.294-21.253l-7.16-31.649Z" fill="#CCE8FA"/><path d="M280.383 202.137c4.388 3.697 11.086.693 11.086-4.851v-8.778a6.21 6.21 0 0 1 6.235-6.238c9.932 0 17.784-8.085 17.784-17.788v-30.725c0-13.398-11.086-24.487-24.481-24.256-13.165.231-23.789 11.32-23.789 24.487v40.659c0 3.927-3.233 7.161-7.16 7.161h-2.078l22.403 20.329Z" fill="#832511"/><path d="M275.071 115.969c10.855-12.244 35.105-5.544 37.646 6.699 1.154 15.247-19.863 13.168-19.863 15.016v7.393h-4.85v-.693c0-2.542-1.847-4.621-4.388-4.852-2.771-.231-5.081 2.079-5.081 4.621v6.93c0 6.237-5.081 11.32-11.317 11.551v-28.415c0-7.161 3.002-13.63 7.853-18.25Z" fill="#FBBD3F"/></svg>