<svg class="sinch-icon" xmlns="http://www.w3.org/2000/svg" viewBox="0 0 498 800" fill="none" aria-hidden="true" focusable="false"><path d="M113.896 752.919c.061 8.544 7.271 15.27 15.815 15.27h53.442c10.907 0 21.025-5.757 26.539-15.209.97-1.636 3.515-.97 3.515.969v11.695a2.56 2.56 0 0 0 2.545 2.545h33.749a2.56 2.56 0 0 0 2.545-2.545v-63.986l-72.832 14.906-4.12 7.089a28.005 28.005 0 0 1-24.176 13.876h-21.571a15.243 15.243 0 0 0-10.846 4.484c-2.908 2.787-4.605 6.665-4.605 10.906Zm284.905-.545c-.061 8.544-7.271 15.27-15.815 15.27h-53.442c-10.907 0-21.025-5.757-26.539-15.209-.97-1.636-3.515-.97-3.515.969v11.695a2.56 2.56 0 0 1-2.545 2.545h-33.749a2.56 2.56 0 0 1-2.545-2.545v-63.986l72.832 14.906 4.12 7.089a28.005 28.005 0 0 0 24.176 13.876h21.692a15.24 15.24 0 0 1 10.846 4.484c2.787 2.787 4.484 6.665 4.484 10.906Zm-21.45-404.272-27.812 10.483-63.985-196.38 20.117-7.453c28.054-10.361 59.138 3.939 69.56 31.933l33.992 91.857c10.422 28.055-3.878 59.139-31.872 69.56Z" fill="#12364C"/><path d="M368.323 592.108v137.786l-222.555.303-1.394-400.454 6.241-4.908H368.02v267.273h.303Z" fill="#12364C"/><path d="M263.013 459.471v245.277c0 4.969-2.605 9.029-5.756 9.029-3.151 0-5.756-4.06-5.756-9.029v-245.58c0-5.211 2.787-9.331 6.12-9.028 3.029.363 5.392 4.544 5.392 9.331Z" fill="#0A273D"/><path d="M358.628 165.357v162.69H144.313V193.956c0-23.631 19.148-42.778 42.779-42.778 6.604 0 11.633-5.877 10.664-12.421l-3.212-37.871a3.264 3.264 0 0 1 3.272-3.575h118.277a3.264 3.264 0 0 1 3.272 3.575l-3.272 37.871c-1.03 6.544 4.059 12.421 10.664 12.421 9.028 0 17.45 2.787 24.297 7.574 2.121 1.454 4.121 3.151 5.938 4.969.606.545 1.091 1.09 1.636 1.636Z" fill="#12364C"/><path d="M302.641 58.775v59.804c0 17.511-14.179 31.75-31.75 31.75h-29.085c-16.965-.605-30.538-14.602-30.538-31.689V58.775c0-3.818.485-7.575 1.393-11.15.425-1.636.909-3.271 1.515-4.847l.727-1.818a55.018 55.018 0 0 1 1.818-3.817c7.695-14.36 22.843-24.116 40.233-24.116 12.604 0 24.056 5.09 32.296 13.391a45.285 45.285 0 0 1 7.574 9.998c.848 1.454 1.576 2.969 2.242 4.544 1.575 3.757 2.727 7.817 3.211 11.998.243 1.939.364 3.878.364 5.817Z" fill="#F2A068"/><path d="M285.554 145.604h-57.26v47.261h57.26v-47.261Z" fill="#E0E0E0"/><path d="M222.053 79.436c.061-.787.121-1.575.243-2.363l.181-2c.061-.484.122-.969.122-1.453.424-4.242.787-8.423 1.03-12.422a41.65 41.65 0 0 0 11.936 10.361c5.999 3.515 12.906 5.575 20.299 5.757h1.09c7.999 0 15.512-2.242 21.935-6.06 4.362-2.665 8.24-6.059 11.391-10.058.243 3.939.606 8.059 1.03 12.18l.546 5.816c.545 6.362.969 12.603.605 18.117-.303 4.423-1.09 8.423-2.787 11.573-2.848 5.454-5.453 6.908-7.634 6.484a62.608 62.608 0 0 0-1.273-2.06c-4.363-6.363-12.724-8.059-19.571-4.484-.788.424-1.757.666-2.787.666h-3.03a6.102 6.102 0 0 1-2.787-.666c-6.847-3.515-15.33-1.939-19.693 4.484-.485.666-.848 1.393-1.272 2.06-2.182.363-4.726-1.152-7.514-6.484-1.636-3.15-2.484-7.15-2.787-11.573-.242-5.453.121-11.573.727-17.875Zm87.435-2.908-.061.121.061-.12c-.061 0-6.12-5.09-6.847-17.694 0-.182 0-.363-.061-.545v-.121c-.121-2.06-.242-3.697-.424-5.15h.061c-.061-.304-.061-.607-.121-.91-.061-.303-.061-.606-.122-.909v-.242c-.424-3.09-1.03-5.21-2.181-8.18l-.363-.909-.364-.909c-.303-.727-.666-1.454-.969-2.18-.122-.183-.182-.425-.303-.607-.243-.545-.546-1.03-.849-1.575-.06-.06-.06-.121-.121-.182-.182-.303-.303-.606-.485-.909-.06-.06-.06-.121-.121-.182-.182-.303-.363-.666-.606-.97a9.329 9.329 0 0 0-.666-.969c-.424-.606-.788-1.212-1.273-1.757-.06-.06-.06-.121-.121-.182-.242-.303-.485-.605-.666-.909l-.728-.908-.727-.91a38.019 38.019 0 0 0-2.12-2.302c-.364-.303-.667-.666-1.03-.97 0-.06-.061-.06-.061-.06l-.182-.182c-.363-.363-.727-.666-1.151-1.03-.545-.484-1.091-.97-1.697-1.393-.545-.485-1.151-.91-1.757-1.333a7.881 7.881 0 0 0-.909-.606c-.303-.182-.606-.424-.909-.606-.303-.182-.605-.424-.908-.606-.606-.364-1.273-.727-1.939-1.09-.667-.364-1.333-.667-1.939-1.03l-2-.91c-.666-.303-1.394-.545-2.06-.787l-1.091-.364-1.09-.364c-.364-.12-.727-.242-1.091-.303-.364-.12-.727-.181-1.091-.302-.363-.061-.727-.182-1.09-.243-.364-.06-.727-.182-1.091-.242-.727-.182-1.515-.303-2.242-.424a26.466 26.466 0 0 0-2.302-.303c-.364-.06-.788-.06-1.152-.121-.363-.061-.787-.061-1.151-.061-.363 0-.788-.06-1.151-.06h-2.606c-.606 0-1.151.06-1.757.12-.242 0-.545.061-.788.061h-.06c-.242 0-.485.06-.727.06-.243 0-.546.061-.788.122l-1.454.182c-.061 0-.121 0-.243.06-.242.06-.484.06-.666.122h-.303c-.242.06-.545.12-.788.12h-.121c-.363.061-.788.182-1.151.243-.182.06-.364.06-.545.121-.303.06-.667.182-.97.243-.485.12-.969.303-1.515.424-.484.12-.969.303-1.454.484l-1.454.546c-.243.06-.485.181-.727.303-.243.12-.485.181-.727.303-.243.12-.485.181-.728.303-.484.181-.908.424-1.393.606-1.091.545-2.181 1.09-3.212 1.696-.181.121-.424.243-.605.364-.061.06-.122.06-.243.12-.303.183-.545.364-.848.546-.061.06-.121.06-.182.121-.242.122-.485.303-.727.485-.121.06-.182.121-.303.182 0 0-.061 0-.061.06-.121.061-.181.122-.303.182-.121.06-.181.121-.302.182-.364.242-.667.485-.97.727-.061.06-.121.06-.182.121-.303.243-.545.425-.848.667-.121.121-.242.182-.364.303-.363.303-.666.545-1.03.848-.363.303-.666.606-1.03.909-.06.06-.121.06-.121.121l-.727.727-.061.06-.363.364-.182.182-.182.182-.545.545-.061.06-.06.062c-.303.363-.667.727-.97 1.03l-.121.12c-.303.364-.606.728-.909 1.03-.182.243-.424.486-.606.789-.06.06-.06.12-.121.181-.121.121-.242.303-.363.485-.243.303-.485.667-.728 1.03a9.34 9.34 0 0 0-.666.97c-.061.06-.121.12-.121.242 0 .06-.061.06-.061.06l-.727 1.091c-.061.121-.121.182-.182.303-.181.303-.424.667-.606.97v.06s0 .06-.06.06c-.061.122-.121.183-.182.304a6.952 6.952 0 0 0-.606 1.151s-.061.06-.061.121l-.363.727-.364.727c-.06.182-.181.303-.242.485-.121.243-.242.545-.364.788-.121.303-.303.666-.424.97a14.84 14.84 0 0 0-.606 1.454l-.121.363v.06s0 .061-.06.061c-1.03 2.727-1.576 4.666-2 7.332v.121c-.363 2.12-.545 4.726-.788 8.423-.787 12.663-6.847 17.693-6.847 17.693-3.938 4.968-6.968 13.875-1.757 20.783.424.545.909 1.09 1.394 1.636 1.999 1.999 3.332 2.06 4.181 1.211l2.848 17.512.121.909v1.03c0 .242 0 .545.06.787 0 .424.061.788.122 1.152v.242c0 .182 0 .303.06.485 0 .242.061.484.121.727 0 .182.061.363.061.545v.182c0 .121.061.242.061.363 0 .182.06.364.121.546.06.242.121.545.181.787.061.243.122.546.182.788.061.182.121.424.182.606 0 .061.061.121.061.242.06.243.121.425.181.667v.061c.061.181.122.303.182.484.061.182.121.303.182.485.121.364.242.727.363 1.03.122.364.243.667.425 1.03 0 .061.06.121.06.121.061.122.061.182.121.303.122.243.182.485.303.667.122.242.182.424.303.666.061.122.122.303.243.424.121.182.242.425.303.606.06.061.121.182.121.243.182.303.303.545.485.848.181.364.424.667.606 1.03.181.303.424.606.605.909.182.303.425.606.667.909.121.121.242.303.364.424.121.121.242.303.363.424.182.243.424.485.667.727l.181.182c.243.242.485.545.727.788l.728.727c.181.182.424.363.605.606.182.182.425.363.606.545l.303.303.303.303c.243.182.424.364.667.545.242.243.545.425.848.667.061.06.121.06.182.121l.727.545c.303.243.606.425.909.606.303.182.606.424.969.606l1.636.909c.425.243.909.485 1.333.667.061 0 .122.06.182.121.061 0 .061 0 .121.06a77.603 77.603 0 0 1 5.454 2.909c1.817 1.03 3.575 2.181 5.271 3.332 4.12 2.727 9.15 4.484 15.088 4.848.363 0 .727.06 1.09.06 5.817 0 11.21-1.696 15.754-4.665a109.938 109.938 0 0 1 5.696-3.454 122.19 122.19 0 0 1 6.241-3.272c.303-.121.606-.303.909-.424a31.783 31.783 0 0 0 14.421-15.391 31.678 31.678 0 0 0 2.666-12.724l.182-.969 2.848-17.512c.848.909 2.181.849 4.241-1.15.545-.546 1.03-1.091 1.394-1.637 5.211-6.907 2.12-15.814-1.818-20.783Z" fill="#12364C"/><path d="M256.227 122.942a11.994 11.994 0 0 1-9.27-4.362 1.017 1.017 0 0 1 .121-1.333 1.017 1.017 0 0 1 1.333.121 10.063 10.063 0 0 0 7.816 3.696c3.03 0 5.878-1.333 7.817-3.696.303-.424.909-.485 1.333-.121.424.302.484.908.121 1.333a11.997 11.997 0 0 1-9.271 4.362Z" fill="#F2A068"/><path d="m208.481 185.534-10.665-85.799 93.615 126.153-48.534 12.846-48.595 12.906 14.179-66.106Z" fill="#12364C"/><path d="m305.368 185.534 10.725-85.799-93.676 126.153 48.595 12.846 48.534 12.906-14.178-66.106Zm-33.69-84.406c-5.453 0-10.24-2.908-12.906-7.271a2.103 2.103 0 0 0-3.635 0c-2.667 4.363-7.453 7.271-12.907 7.271-8.967 0-16.117-7.756-15.087-16.905.182-1.636 1.636-2.848 3.272-2.848h53.079c1.636 0 3.09 1.212 3.272 2.848 1.03 9.15-6.12 16.905-15.088 16.905Z" fill="#12364C"/><path d="M302.156 122.518c-3.211 22.116-22.237 39.142-45.262 39.142-23.025 0-42.051-17.026-45.263-39.142l44.112 3.029 46.413-3.029ZM134.861 348.102l27.751 10.483 63.986-196.38-20.117-7.453c-28.054-10.361-59.138 3.939-69.56 31.933l-33.992 91.857c-10.362 28.055 3.938 59.139 31.932 69.56Z" fill="#12364C"/><path d="m354.811 372.158-92.706 60.228a9.112 9.112 0 0 1-9.877 0l-93.07-60.228V175.899c0-2.545 2.848-4.12 5.03-2.727l87.858 56.957c3.03 1.939 6.908 1.939 9.877 0l87.677-56.835c2.242-1.455 5.211.181 5.211 2.787v196.077Z" fill="#A7D5C2"/><path d="m232.475 84.95-3.211 2.787-7.271-8.301.545-5.817 9.937 11.33Zm59.38-5.756-7.513 8.543-3.211-2.787 10.119-11.513c.242 1.879.424 3.818.605 5.757Z" fill="#12364C"/><path d="M158.25 238.37c-4.848 0-8.786 3.939-8.786 8.786l-.121 2.605c-.182 4.303-2.121 8.423-5.635 11.028-2.182 1.576-3.636 4.181-3.636 7.09v.969c0 2.727-.848 5.453-2.605 7.574a8.89 8.89 0 0 0-1.939 5.575c0 1.09.181 2.181.545 3.15a12.03 12.03 0 0 1 0 8.483c-.364.97-.545 2-.545 3.151a8.89 8.89 0 0 0 1.939 5.575c1.757 2.12 2.605 4.847 2.605 7.574 0 4.847 3.939 8.785 8.786 8.785h17.996c4.484 0 8.483-3.272 9.028-7.695a8.927 8.927 0 0 0-1.212-5.635c4.06-.788 7.089-4.362 7.089-8.665 0-2.484-1.03-4.665-2.666-6.301 3.636-1.091 6.363-4.423 6.363-8.422 0-4.363-3.212-7.999-7.393-8.665 1.273-1.636 2-3.696 1.879-5.938-.243-4.726-4.363-8.301-9.089-8.301h-11.937v-20.662c-.182-.061-.424-.061-.666-.061Zm195.713 0c4.847 0 8.786 3.939 8.786 8.786l.121 2.605c.182 4.303 2.121 8.423 5.635 11.028 2.181 1.576 3.635 4.181 3.635 7.09v.969c0 2.727.849 5.453 2.606 7.574a8.89 8.89 0 0 1 1.939 5.575c0 1.09-.182 2.181-.545 3.15a12.02 12.02 0 0 0 0 8.483c.363.97.545 2 .545 3.151a8.89 8.89 0 0 1-1.939 5.575c-1.757 2.12-2.606 4.847-2.606 7.574 0 4.847-3.938 8.785-8.785 8.785h-17.996c-4.484 0-8.483-3.272-9.029-7.695-.242-2.06.243-3.999 1.212-5.635-4.059-.788-7.089-4.362-7.089-8.665 0-2.484 1.03-4.665 2.666-6.301-3.636-1.091-6.362-4.423-6.362-8.422 0-4.363 3.211-7.999 7.392-8.665-1.272-1.636-1.999-3.696-1.878-5.938.242-4.726 4.362-8.301 9.089-8.301h11.936v-20.662c.182-.061.424-.061.667-.061Z" fill="#F2A068"/></svg>