<svg class="sinch-icon" xmlns="http://www.w3.org/2000/svg" viewBox="0 0 1019 800" fill="none" aria-hidden="true" focusable="false"><path d="M473.381 252.933 353.928 495.201l-61.594-199.713 181.047-42.555Z" fill="#272727"/><path d="M517.914 136.41a96.174 96.174 0 0 0-160.64-68.317 91.325 91.325 0 0 1-51.419 23.68 96.193 96.193 0 0 0-72.035 46.466 86.123 86.123 0 0 1-47.597 37.542 148.315 148.315 0 0 0-74.028 54.454 145.765 145.765 0 0 0-27.22 90.137c0 27.71 14.25 63.095 36.308 90.151 27.323 33.526 64.181 52.059 103.746 52.059 2.35.105 4.7.149 7.036.149a147.143 147.143 0 0 0 119.946-62.102A147.153 147.153 0 0 0 370.78 266.87a96.173 96.173 0 0 0 30.269-33.526 97.148 97.148 0 0 0 20.823 2.276 96.195 96.195 0 0 0 89.618-61.507 96.18 96.18 0 0 0 6.424-37.703Z" fill="#272727"/><path d="M622.821 361.826a149.8 149.8 0 0 0 10.411-18.147 16.684 16.684 0 0 0-5.473-21.403 16.25 16.25 0 0 0-13.231-2.009 16.252 16.252 0 0 0-10.255 8.598 102.924 102.924 0 0 1-29.332 37.334 45.284 45.284 0 0 0-15.885 44.324 31.803 31.803 0 0 1-1.19 17.329l-66.785 134.386-104.817-132.631-58.574-72.794-85.883 131.635 216.834 232.734a50.366 50.366 0 0 0 83.652-15.736l1.576-3.957 97.068-243.607-18.116-96.056Z" fill="#842306"/><path d="M606.682 419.865a16.074 16.074 0 0 1-6.946-1.488 16.261 16.261 0 0 1-9.315-15.545c.11-2.14.642-4.237 1.566-6.171l76.408-161.651a16.258 16.258 0 0 1 29.391 13.892l-76.393 161.622a16.278 16.278 0 0 1-14.711 9.341Z" fill="#0A273D"/><path d="m694.379 348.231-18.086-36.367a12.885 12.885 0 0 0-15.886-6.604 12.516 12.516 0 0 0-7.198 7.14 12.516 12.516 0 0 0 .445 10.129l4.299 8.641a12.423 12.423 0 0 0-10.977-.223c-6.307 2.975-8.716 11.052-5.667 17.314l3.956 8.151a12.474 12.474 0 0 0-10.843-.164c-6.232 2.975-8.686 10.947-5.741 17.194l3.867 8.196a12.419 12.419 0 0 0-11.899.565 12.869 12.869 0 0 0-4.7 16.228l11.616 26.119-5.265 16.777 11.75 32.396a27.232 27.232 0 0 1 16.124-15.945 59.057 59.057 0 0 0 34.582-33.541l11.617-28.974a57.222 57.222 0 0 0-1.994-47.032Z" fill="#842306"/><path d="m327.675 356.843 58.589 72.793-67.573 133.896-25.628-192.336 34.612-14.353Z" fill="#fff"/><path d="M412.531 719.115V569.839a145.606 145.606 0 0 0-12.762-59.585l-62.381-138.969c-10.412-12.97-9.847-28.082-6.113-35.697l-88.561-47.865-3.792 7.75c-8.36 17.045-22.624 30.09-38.673 40.159-16.48 10.293-26.773 23.293-36.768 43.269L139.31 428.61 21.984 687.18A61.165 61.165 0 0 0 48.4 766.167a61.16 61.16 0 0 0 29.287 7.461H339.56l72.972-54.513Z" fill="#fff"/><path d="M331.275 335.588a25.451 25.451 0 0 1 11.684-11.621 25.458 25.458 0 0 1 16.353-2.033c60.612 12.3 78.089 4.373 105.784-52.06l42.109-86.016-172.539-86.314-21.568 43.982-70.354 146.197 88.56 47.865h-.029Z" fill="#842306"/><path d="m507.205 183.858-40.726-86.27H334.666l-80.662 108.373 1.487 56.045c27.383 14.874 59.377 3.704 72.526-24.557l14.532-29.629c6.634-14.264 35.043-8.136 49.203-1.264a28.173 28.173 0 0 0 37.185-12.257 44.372 44.372 0 0 1 58.545-19.827l19.723 9.386Z" fill="#272727"/><path d="m391.997 167.49-3.882-1.914c-11.022-5.435-24.363-.907-29.799 10.115l-15.815 32.07c-5.435 11.022-.906 24.363 10.115 29.798l3.882 1.915c11.022 5.435 24.363.906 29.799-10.116l15.815-32.069c5.435-11.022.906-24.363-10.115-29.799Z" fill="#842306"/><path d="M747.405 0h223.87a46.925 46.925 0 0 1 33.175 13.74 46.945 46.945 0 0 1 13.74 33.173v110.335a46.947 46.947 0 0 1-13.74 33.173 46.928 46.928 0 0 1-33.175 13.74H700.567V46.913A46.912 46.912 0 0 1 747.405 0Z" fill="#007171"/><path d="m455.8 796.46-36.59-29.629a20.037 20.037 0 0 0-22.192-2.008l-25.584 13.982c-18.399 10.055-38.999 17.447-59.972 17.536l-244.202-1.1c-49.56.208-82.134-51.673-60.418-96.161l132.245-269.964 108.789 110.812-87.147 148.74 125.715 10.412a66.934 66.934 0 0 0 35.177-6.827l30.983-15.44a35.826 35.826 0 0 1 22.375-3.177 35.83 35.83 0 0 1 19.823 10.852l82.655 88.843a15.873 15.873 0 0 1-.387 22.014 15.872 15.872 0 0 1-21.27 1.115Z" fill="#842306"/><path d="M806.662 118.611c9.099-2.148 14.733-11.264 12.586-20.363-2.147-9.098-11.264-14.733-20.362-12.585-9.099 2.147-14.733 11.264-12.586 20.362 2.147 9.098 11.264 14.733 20.362 12.586Zm56.281-.004c9.098-2.147 14.733-11.264 12.586-20.362-2.148-9.098-11.264-14.733-20.363-12.586-9.098 2.147-14.733 11.264-12.586 20.362 2.148 9.099 11.264 14.734 20.363 12.586Zm64.363-4.544c6.61-6.61 6.61-17.328 0-23.938-6.611-6.61-17.328-6.61-23.938 0-6.611 6.61-6.611 17.328 0 23.938 6.61 6.61 17.327 6.61 23.938 0Z" fill="#F2F1F2"/></svg>