<svg class="sinch-icon" xmlns="http://www.w3.org/2000/svg" viewBox="0 0 513 400" fill="none" aria-hidden="true" focusable="false"><path d="M510.487 5.691c-4.378-6.129-12.842-7.442-18.825-2.918l-8.173 5.983c-8.172 6.13-12.55 15.615-14.155 25.83-.292 1.897-2.773 2.48-3.94 1.021l-16.345-21.89-3.794-4.961c-4.378-5.837-12.696-7.005-18.533-2.627-3.794 2.919-5.691 7.297-5.254 11.82-4.378-2.334-9.923-2.042-14.155 1.168-4.086 3.065-5.837 7.88-5.108 12.55a13.248 13.248 0 0 0-13.28 1.46c-4.523 3.356-6.275 9.193-4.669 14.3L363.825 20.14c-4.378-5.838-12.696-7.005-18.533-2.627-5.838 4.378-7.005 12.696-2.627 18.533l48.595 64.94c5.254 7.005 11.967 12.55 19.847 16.344l4.086 1.898c7.881 3.794 14.593 9.339 19.847 16.344l8.902 11.82c2.189 2.919 5.399 4.816 9.048 5.254a12.972 12.972 0 0 0 10.069-2.627l32.543-24.37a13.919 13.919 0 0 0 5.107-14.302c-.437-1.897-1.313-3.502-2.48-5.107l-15.031-19.701c4.669-7.005 7.734-15.031 8.901-23.641l3.503-24.663c.584-3.94 2.627-7.442 5.837-9.923l5.691-4.232c5.838-4.232 7.443-12.55 3.357-18.388Z" fill="#F2A068"/><path d="M422.928 93.688c-.73 0-1.459 0-2.189-.145-3.94-.584-7.589-2.627-9.924-5.838l-23.641-31.521c-.583-.876-.437-2.043.438-2.627.876-.584 2.043-.438 2.627.438l23.641 31.521c1.751 2.481 4.524 3.94 7.443 4.378 3.064.438 5.983-.292 8.464-2.189 3.356-2.48 4.961-6.567 4.378-10.653-.146-.73.146-1.313.729-1.751.584-.438 1.314-.438 1.897-.146 1.022.438 2.043.73 3.065.876 3.065.437 5.983-.292 8.464-2.19 3.356-2.48 4.962-6.566 4.378-10.652-.146-.73.146-1.314.73-1.752.583-.437 1.313-.437 1.897-.145 1.021.437 2.043.73 3.064.875 3.065.438 5.984-.292 8.464-2.189 4.962-3.794 5.984-10.945 2.189-15.907-.583-.875-.437-2.043.438-2.626.876-.584 2.043-.438 2.627.438 4.962 6.712 3.648 16.198-3.065 21.16a14.853 14.853 0 0 1-11.236 2.918c-.438 0-.876-.146-1.314-.292-.292 4.378-2.481 8.61-5.983 11.383a14.856 14.856 0 0 1-11.237 2.919c-.438 0-.875-.146-1.313-.292-.292 4.378-2.481 8.61-5.983 11.383-2.627 1.459-5.692 2.626-9.048 2.626Z" fill="#894915"/><path d="M175.719 278.876c4.961-3.21 11.528-2.043 14.885 2.773 3.502 4.816 2.481 11.383-2.043 15.031l-37.651 35.024-52.973.438 77.782-53.266Z" fill="#842306"/><path d="M404.686 99.38h-245.75c-16.344 0-29.624 13.28-29.624 29.624v169.719a3.613 3.613 0 0 0 3.649 3.648h271.725c16.345 0 29.624-13.279 29.624-29.624V128.858c-.146-16.198-13.279-29.478-29.624-29.478Z" fill="#fff"/><path d="M351.859 176.87c-2.189-17.366-16.199-31.667-33.564-33.856-14.156-1.898-28.019 3.94-36.629 15.322-8.464-11.236-22.474-17.22-36.629-15.322-17.366 2.334-31.376 16.49-33.565 33.856-1.313 11.091 1.897 21.89 9.048 30.354h-.146l52.098 52.097c2.481 2.481 5.837 3.795 9.048 3.795 3.21 0 6.567-1.314 9.047-3.795l49.471-49.471 2.481-2.48h-.146c7.589-8.464 10.945-19.409 9.486-30.5Z" fill="#E83452"/><path d="m1.33 365.268 21.598-45.385 2.627-5.545c4.961-10.507 13.571-18.679 24.224-23.349l2.043-.876 65.378-28.457c6.129-2.626 13.28-.292 16.49 5.4 3.357 5.691 1.897 13.134-3.502 17.074l-29.041 21.744c-2.48 1.897-1.167 5.837 1.898 5.837h111.2c5.691 0 10.507 4.378 10.945 10.069.438 5.692-3.649 10.799-9.34 11.675l-85.078 11.675c-8.756 1.167-17.366 3.648-25.538 7.15l-18.972 8.172c-5.837 2.481-10.653 7.151-13.425 12.842l-9.924 20.577c-1.897 3.94-5.837 6.129-9.777 6.129-1.46 0-3.065-.292-4.524-1.022L6.583 380.007c-3.94-1.751-6.567-5.691-6.42-10.215 0-1.459.437-3.065 1.167-4.524Z" fill="#894915"/></svg>