<svg class="sinch-icon" xmlns="http://www.w3.org/2000/svg" viewBox="0 0 855 800" fill="none" aria-hidden="true" focusable="false"><path d="M376.317 795.116c206.045 0 373.077-167.032 373.077-373.077S582.362 48.962 376.317 48.962 3.24 215.994 3.24 422.039s167.032 373.077 373.077 373.077Z" fill="#F2F2F2"/><path d="m230.851 288.296-39.666-68.116 36.839-23.112 47.67 71.983a24.829 24.829 0 0 1 .346 26.882l-58.377 93.266-16.521-29.082 29.709-71.821Z" fill="#842306"/><path d="m227.546 385.757.018-24.49c0-1.366-14.107-9.304-13.967-8.28 0 0 3.287 19.101 5.336 31.063a22.428 22.428 0 0 0 9.531 14.779l5.596 3.793a4.048 4.048 0 0 0 5.139-.49 3.369 3.369 0 0 0 .731-3.67 3.348 3.348 0 0 0-.731-1.092l-11.65-11.61" fill="#760D00"/><path d="m221.365 364.922-164.604-1.098L71.72 252.891l-11.911-1.613-26.483-30.626 34.044-54.897a39.738 39.738 0 0 1 33.786-18.797h73.503a39.738 39.738 0 0 1 33.366 18.15l46.694 72.142-53.722-.364 20.368 128.036Z" fill="#A7D5C2"/><path d="m54.356 421.931 75.799-1.012-56.086 335.275-51.638-3.907 31.925-330.356Zm157.02-30.158-67.059 6.388 58.297 347.887 53.127-6.906-44.365-347.369Z" fill="#842306"/><path d="M57.454 360.478h163.277s24.573 151.289 30.948 190.212a7.763 7.763 0 0 1-1.78 6.323 7.758 7.758 0 0 1-5.994 2.687c-19.148-.296-62.623.028-79.061-.23a7.76 7.76 0 0 1-7.531-6.469l-15.254-113.095a1.85 1.85 0 0 0-1.811-1.602 1.848 1.848 0 0 0-1.844 1.564c-4.974 31.864-17.702 113.462-17.702 113.462a7.758 7.758 0 0 1-7.66 6.504H33.634a7.761 7.761 0 0 1-7.475-5.68 7.758 7.758 0 0 1-.182-3.33c6.52-39.881 31.475-190.346 31.475-190.346h.002Z" fill="#FFBE3C"/><path d="m320.891 763.731-19.455-1.265a27.134 27.134 0 0 1-18.76-9.238l-14.033-15.983c-11.974-13.641-25.003-9.266-37.837 2.939-.124.116-.253.233-.364.354l-.106.104a2.475 2.475 0 0 1-3.174.253 41.887 41.887 0 0 0-24.174-7.666 2.637 2.637 0 0 0-2.635 2.625v56.719a2.629 2.629 0 0 0 2.625 2.627l117.215-.027c2.075 0 4.129-.41 6.045-1.207a15.733 15.733 0 0 0 8.528-8.571 15.753 15.753 0 0 0 1.177-6.051c-.041-8.318-6.752-15.087-15.052-15.626M2.87 775.826l23.85-31.743c7.903-10.52 21.357-14.867 33.48-10.821 10.349 3.452 17.035 12.25 17.035 22.416 0 8.814 2.843 20.935 3.94 24.877A14.313 14.313 0 0 1 67.4 798.731H14.308a14.316 14.316 0 0 1-14.25-15.604 14.314 14.314 0 0 1 2.812-7.301Z" fill="#09283D"/><path d="M314.022 795.21c36.563 0 66.204-29.64 66.204-66.204 0-36.564-29.641-66.204-66.204-66.204-36.564 0-66.204 29.64-66.204 66.204 0 36.564 29.64 66.204 66.204 66.204Z" fill="#A7D5C2"/><mask id="b" style="mask-type:alpha" maskUnits="userSpaceOnUse" x="247" y="662" width="134" height="134"><path d="M314.022 795.21c36.564 0 66.205-29.64 66.205-66.204 0-36.564-29.641-66.204-66.205-66.204-36.563 0-66.204 29.64-66.204 66.204 0 36.564 29.641 66.204 66.204 66.204Z" fill="#A7D5C2"/></mask><g mask="url(#b)" fill="#007171" stroke="#A7D5C2" stroke-width="18.16" stroke-linecap="round" stroke-linejoin="round"><path d="m248.475 724.348 27.492 15.863v31.746l-27.492 15.871-27.491-15.871v-31.746l27.491-15.863Zm54.741-94.121 27.492 15.871v31.743l-27.492 15.871-27.489-15.871v-31.743l27.489-15.871Z"/><path d="m220.963 677.242 27.492 15.872v31.742l-27.492 15.872-27.502-15.869v-31.743l27.502-15.874Z"/><path d="m248.339 630.187 27.492 15.871v31.743l-27.492 15.879-27.492-15.874v-31.748l27.492-15.871Zm81.967 141.608 27.489 15.871v31.746l-27.489 15.871-27.492-15.871v-31.746l27.492-15.871Z"/><path d="m330.306 771.795 27.489 15.871v31.746l-27.489 15.871-27.492-15.871v-31.746l27.492-15.871Z"/><path d="m303.196 724.47 27.489 15.871v31.735l-27.489 15.872-27.492-15.872v-31.735l27.492-15.871Z"/><path d="m330.566 677.404 27.492 15.872v31.743l-27.492 15.871-27.489-15.871v-31.743l27.489-15.872Z"/><path d="m385.049 677.672 27.492 15.874v31.745l-27.492 15.872-27.492-15.872v-31.745l27.492-15.874Z"/></g><path d="M567.593 0H297.17a17.395 17.395 0 0 0-17.377 17.376v174.482a2.898 2.898 0 0 0 2.896 2.896h284.904a17.395 17.395 0 0 0 17.376-17.376V17.376A17.392 17.392 0 0 0 567.593 0" fill="#007071"/><path d="M509.76 78.545H355.006a5.961 5.961 0 0 1 0-11.921H509.76a5.961 5.961 0 0 1 0 11.921Zm-77.403 49.585h-77.351a5.96 5.96 0 1 1 0-11.922h77.351a5.96 5.96 0 1 1 0 11.922Z" fill="#DCEDE1"/><path d="m842.562 763.293-16.056-1.045a22.403 22.403 0 0 1-15.485-7.622l-11.582-13.191c-9.883-11.256-46.765-7.098-54.185-7.101-1.199 0-2.177-1.563-2.177-.367v53.14a2.166 2.166 0 0 0 2.165 2.168l96.74-.021a13.004 13.004 0 0 0 9.215-3.83 12.995 12.995 0 0 0 3.784-9.234c-.033-6.863-5.564-12.452-12.422-12.897" fill="#FFBE3C"/><path d="M766.568 789.139v-66.946H648.377l26.457-160.838a53.085 53.085 0 0 0-30.085-56.795 53.104 53.104 0 0 0-22.296-4.911h-13.998l-7.705 46.765-20.598-.04-15.7 75.546h9.079a12.538 12.538 0 0 1 12.377 14.581L567.416 748.75a34.83 34.83 0 0 0 19.753 37.278 34.829 34.829 0 0 0 14.64 3.212l164.761-.104-.002.003Z" fill="#A7D5C2"/><path d="m380.892 774.395 15.823-1.029a22.06 22.06 0 0 0 15.257-7.514l11.415-13.001c9.739-11.094 20.338-7.536 30.777 2.39l.296.289.086.085a2.025 2.025 0 0 0 2.585.215 34.046 34.046 0 0 1 19.659-6.236 2.144 2.144 0 0 1 2.145 2.137v46.14a2.141 2.141 0 0 1-1.317 1.974 2.143 2.143 0 0 1-.818.163l-95.339-.023a12.812 12.812 0 0 1-12.812-12.875c.033-6.764 5.493-12.27 12.245-12.707" fill="#FFBE3C"/><path d="M674.996 546.204H483.702a47.118 47.118 0 0 0-46.454 39.261l-28.903 170.897 76.156.574 22.014-134.718h82.096c43.816 0 80.811-32.552 86.388-76.014h-.003Z" fill="#A7D5C2"/><path d="M492.202 582.074a25.449 25.449 0 0 1-5.311 11.405l-42.863 52.328 23.104 28.011 58.312-58.312a41.844 41.844 0 0 0 11.509-21.749c6.97-36.585 26.675-139.985 26.675-139.985l-45.697-8.092s-20.495 108.657-25.729 136.394Z" fill="#F2A068"/><path d="M534.46 473.792c-.253 7.971-10.03 12.113-15.816 6.517-4.413-4.269-12.316-9.514-12.986-10.162-3.54-3.421-9.104-3.376-12.447.102-9.405 9.802-25.11 9.931-35.074.288l-30.852-29.854c-13.641-13.201-14.127-34.863-.974-48.112 12.875-12.969 34.117-12.564 47.523.409l41.254 39.922c4.047 3.924 10.452 3.871 14.281-.117 10.255.86 18.54 3.321 24.682 7.526l-19.591 33.481Z" fill="#F2A068"/><path d="M417.748 425.059c-7.367-15.006 8.457-43.244 30.324-41.98a35.026 35.026 0 0 1 25.767 9.913l28.863 27.932c-6.055 6.189-16.059 6.239-22.422.081l-7.101-6.873c-2.739-2.651-7.114-2.507-9.554.397-2.228 2.65-1.818 6.679.721 9.134l.677.658-4.612 4.805-7.38-7.142c-1.542-1.492-12.495 11.838-24.024 10.621a7.588 7.588 0 0 1-14.29 2.507 7.58 7.58 0 0 1 .284-7.394 7.592 7.592 0 0 1 2.749-2.656l-.002-.003Z" fill="#272727"/><path d="M675.145 546.3c-6.441-49.736-56.614-91.334-117.645-116.433a29.775 29.775 0 0 0-12.919-2.21 29.777 29.777 0 0 0-22.481 12.182 29.76 29.76 0 0 0-5.204 12.029c-7.958 41.727-20.271 107.061-20.271 107.061h47.143l2.615-12.624 128.762-.005Z" fill="#007171"/><path d="m448.07 641.918-14.787 13.853a7.374 7.374 0 0 1-5.058 1.99 10.823 10.823 0 0 0-6.663 2.276l-9.287 7.241a25.65 25.65 0 0 1-6.201 3.568l-6.651 2.675a4.933 4.933 0 0 0-2.862 3.096 4.92 4.92 0 0 0 .586 4.175 4.104 4.104 0 0 0 4.532 1.697l10.445-2.926-17.45 23.18a4.446 4.446 0 0 0 .49 5.579 4.447 4.447 0 0 0 2.664 1.319 4.445 4.445 0 0 0 2.898-.657c-.111.205-1.419 1.725-1.932 2.871-.794 1.477-.026 3.897 1.588 5.057a4.438 4.438 0 0 0 5.508-.252c.179-.157 1.411-1.705 1.568-1.895a4.44 4.44 0 0 0 1.885 5.33 4.433 4.433 0 0 0 2.947.582 4.432 4.432 0 0 0 2.643-1.428l.896-1.335a4.433 4.433 0 0 0 2.604 4.538 4.438 4.438 0 0 0 5.116-1.096l3.647-4.335s15.277-13.679 26.172-24.965c3.864-3.852 3.452-6.692 5.533-9.104 8.598-8.449 18.104-20.232 23.296-24.685a1.582 1.582 0 0 0 .414-1.846 1.582 1.582 0 0 0-.396-.541l-24.465-21.703a1.58 1.58 0 0 0-2.18.076l-7.521 7.649.021.016Z" fill="#F2A068"/><path d="M102.709 72.878a11.948 11.948 0 0 0 0 22.584v7.245a35.064 35.064 0 0 0 13.874 27.972 9.17 9.17 0 0 1 3.689 7.271 9.017 9.017 0 0 1-9 9.013h-2.754l22.53 26.116a9.091 9.091 0 0 0 10.594 2.356 9.078 9.078 0 0 0 3.098-2.283l23.086-26.189h-3.391a9.008 9.008 0 0 1-9.011-9.013 9.167 9.167 0 0 1 3.69-7.271 35.059 35.059 0 0 0 13.881-27.972v-7.245a11.95 11.95 0 0 0 5.821-18.221 11.95 11.95 0 0 0-5.821-4.363v-5.31a35.148 35.148 0 0 0-22.229-32.683 35.151 35.151 0 0 0-13.681-2.454c-19.22.41-34.376 16.562-34.376 35.782v4.668-.003Z" fill="#842306"/><path d="M148.895 114.218a15.62 15.62 0 0 1-22.088 0" stroke="#272727" stroke-width="4" stroke-linecap="round" stroke-linejoin="round"/><path d="M106.803 69.13c0-7.809 2.588-14.349 10.202-14.349 8.345 0 10.515 12.005 20.846 12.005 10.33 0 12.505-12.005 20.848-12.005 7.612 0 10.202 6.54 10.202 14.35v18.736h4.094V54.33a17.952 17.952 0 0 0-10.72-16.395c-6.428-2.853-15.216-5.632-24.889-5.508-9.37.121-17.809 2.82-24.025 5.563a17.894 17.894 0 0 0-10.654 16.383v33.495h4.096V69.13Z" fill="#272727"/><path d="M115.015 208.175c-3.619-4.231-7.931-6.115-8.042-6.644-.324-1.385-.074-6.355.172-10.024a4.425 4.425 0 0 0-4.064-4.509v-.02a4.634 4.634 0 0 0-3.554 1.24 4.628 4.628 0 0 0-1.451 3.473l.23 10.511a15.64 15.64 0 0 1-7.248 13.544l-5.563 3.541 4.478 7.556s28.61-14.483 25.036-18.658l.006-.01Z" fill="#760D00"/><path d="M154.59 169.776a4.715 4.715 0 0 0-4.712-4.712h-40.583a4.715 4.715 0 0 0-4.712 4.712v74.206a4.714 4.714 0 0 0 4.712 4.711h40.583a4.71 4.71 0 0 0 4.712-4.711v-74.206Z" fill="#272727"/><path d="M145.321 178.339a3.174 3.174 0 1 0 0-6.348 3.174 3.174 0 0 0 0 6.348Z" fill="#fff"/><path d="m48.555 238.198-14.948-17.573s-14.2 22.489-27.79 44.003a25.188 25.188 0 0 0 8.488 35.138 25.186 25.186 0 0 0 12.81 3.501h.52a23.518 23.518 0 0 0 16.563-6.828l53.145-52.71-7.736-27.087-41.052 21.556Z" fill="#842306"/><path d="M406.295 772.409c-.357 0-.712-.044-1.057-.131a2.39 2.39 0 0 1-2.17-.858c-2.023-2.476-2.127-7.101-.321-13.742 1.401-5.159 3.904-11.203 6.694-16.185 3.973-7.081 7.412-10.308 10.515-9.883 1.34.182 3.105 1.085 3.899 4.34.506 2.056.344 4.962-.465 8.631a65.814 65.814 0 0 1-3.323 10.381c-1.229 3.035-5.629 13.151-10.543 16.375a6.122 6.122 0 0 1-3.229 1.072Zm12.773-35.84c-.791.542-2.415 2.137-4.676 5.905a70.878 70.878 0 0 0-6.069 13.282c-2.223 6.593-2.299 10.268-1.897 11.861.321-.114 1.492-.693 3.495-3.515 5.417-7.63 10.462-22.27 9.306-27.009a5.355 5.355 0 0 0-.159-.524Z" fill="#12364C"/><path d="M403.937 772.807h-.146c-5.885-.357-11.201-12.807-12.754-17.574-1.848-5.679-1.805-9.071.139-10.677.734-.604 2.335-1.411 4.833-.027 3.563 1.972 6.864 8.38 8.118 11.046 3.854 8.186 3.584 12.268 3.409 13.325-.253 1.585-.989 2.488-1.725 3.004a2.379 2.379 0 0 1-.834.665 2.383 2.383 0 0 1-1.04.238Zm-9.427-23.491c.354 2.822 2.217 8.671 5.368 13.891 1.227 2.023 2.251 3.262 2.992 3.976-.106-1.561-.776-4.57-2.729-8.892-1.997-4.398-4.167-7.587-5.631-8.975Z" fill="#12364C"/><path d="M436.029 793.997c-.221 0-.44-.03-.652-.091-9.724-2.764-14.638-7.552-16.299-9.484-1.571-1.82-2.41-4.046-3.224-6.175-1.298-3.412-2.218-5.536-4.74-6.181-1.082-.278-2.25-.114-3.601.073-.995.16-2.001.25-3.009.268a2.372 2.372 0 0 1-1.736-.67 2.377 2.377 0 0 1-.727-1.713c0-.32.065-.636.189-.931a2.397 2.397 0 0 1 1.338-1.294c.298-.115.616-.169.936-.159a17.177 17.177 0 0 0 2.352-.225c1.616-.225 3.449-.478 5.442.031 5.058 1.292 6.691 5.624 8.014 9.104.698 1.838 1.355 3.571 2.38 4.759 2.918 3.392 8.016 6.31 13.987 8.009a2.385 2.385 0 0 1 1.716 2.622 2.38 2.38 0 0 1-2.366 2.054v.003Z" fill="#12364C"/><path d="M143.286 207.087a5.721 5.721 0 0 1-.655 9.577s-19.433 13.624-27.664 19.137a27.37 27.37 0 0 1-7.779 3.598l-.792.228a29.364 29.364 0 0 0-10.467 5.404l-7.69 6.198-23.623-21.536c15.068-5.892 31.359-12.743 38.71-27.299l21.213-25.97a4.57 4.57 0 0 1 3.122-1.589 4.579 4.579 0 0 1 3.332 1.084 4.578 4.578 0 0 1 .493 6.453l-12.501 14.572 2.868-1.103c4.001-1.697 5.617-2.316 10.308-3.952l9.585-4.168a4.577 4.577 0 0 1 4.599 7.714 4.57 4.57 0 0 1-1.534.915l-2.398 1.391a4.573 4.573 0 0 1 2.408 8.798l-1.548.551.013-.003Z" fill="#842306"/></svg>