<svg class="sinch-icon" xmlns="http://www.w3.org/2000/svg" viewBox="0 0 554 400" fill="none" aria-hidden="true" focusable="false"><path d="m271.087 163.069-1.706-3.643c6.278 2.868 13.719 1.706 18.834-2.945 5.115-4.65 7.053-11.858 4.883-18.446a35257.638 35257.638 0 0 0-20.461-62.313c-5.658-17.284-21.624-29.22-39.838-29.684-23.948-.62-56.733-1.55-78.357-2.093-14.725-.388-29.141-4.65-41.774-12.323C98.252 22.709 78.721 10.85 65.312 2.635 56.865-2.558 45.782.078 40.59 8.525A67087.97 67087.97 0 0 1 3.154 69.056C.596 73.164-.18 78.124.984 82.852 2.146 87.58 5.169 91.61 9.277 94.09c18.678 11.083 48.595 28.754 59.213 35.032a11.324 11.324 0 0 1 5.115 6.666c8.37 30.304 36.117 51.153 67.584 51.23 7.286 0 28.444-53.478 28.444-54.796-.155-6.975 3.023-13.64 8.061-18.446 5.038-4.805 11.935-7.13 18.833-6.587 9.068.775 16.819 6.742 19.996 15.19 2.868 7.751 6.433 17.516 9.688 26.352 5.581 15.191 12.711 29.684 21.159 43.48 1.938 3.1 3.798 6.2 5.581 9.068 4.495 7.285 13.408 10.54 21.468 7.828a18.691 18.691 0 0 0 11.703-11.703c1.86-5.503.93-11.626-2.402-16.354l-12.633-17.981Z" fill="#F2A068"/><path d="M200.79 168.029c1.008-2.092 9.921-20.151 11.006-22.166 27.436-52.858 82.697-88.975 146.405-88.975 90.991 0 164.852 73.862 164.852 164.852 0 39.295-13.796 75.334-36.737 103.701-5.348 6.665-4.34 16.431 2.248 21.779 6.665 5.347 16.431 4.34 21.779-2.248 27.281-33.637 43.634-76.497 43.634-123.154 0-108.042-87.734-195.776-195.776-195.776-75.566 0-146.56 50.3-189.188 115.403-8.525 13.176-2.402 8.758-3.487 11.006-3.643 7.751 6.897 19.609 14.648 23.251 7.75 3.333 16.973.078 20.616-7.673Z" fill="#007171"/><path d="M258.298 361.015c-66.653-11.083-111.683-74.171-100.6-140.825 2.712-16.354 8.603-31.389 16.818-44.643 3.333-5.347 1.705-12.4-3.643-15.733-5.347-3.333-15.423 5.968-18.756 11.316-9.843 15.733-16.431 31.699-18.291 45.727-10.463 79.442 41.62 153.459 120.675 166.635 6.2 1.007 12.09-3.178 13.098-9.378 1.085-6.201-3.1-12.014-9.301-13.099Z" fill="#059688"/><path d="M279.302 388.142a20.032 20.032 0 0 0 .31-15.269c-1.938-4.96-5.735-8.913-10.541-11.005l-33.791-14.881c-10.076-4.418-21.779.155-26.274 10.153-4.418 10.076.155 21.779 10.153 26.274l33.792 14.881a20.03 20.03 0 0 0 15.268.31c4.96-1.86 8.913-5.58 11.083-10.463Z" fill="#059688"/><path d="m417.57 329.239 55.105-97.113a18.74 18.74 0 0 1 16.044-9.456c6.665-.077 14.881 5.58 9.3 2.403 24.802 14.105 34.257 44.797 22.244 70.219-1.007 2.48-2.17 4.96-3.565 7.363l-36.505 63.476c-14.881 25.886-47.975 34.799-73.861 19.918 5.502 3.178-3.488-1.085-6.821-6.82-3.332-5.735-3.332-12.788 0-18.601l18.059-31.389ZM258.376 172.137 203.27 269.25c-3.255 5.735-9.378 9.378-16.043 9.378-6.666.078-14.881-5.58-9.301-2.402-24.801-14.106-34.257-44.798-22.243-70.219 1.007-2.481 2.17-4.961 3.565-7.363l36.504-63.476c14.881-25.887 47.975-34.8 73.862-19.919-5.503-3.178 3.488 1.085 6.82 6.82 3.333 5.736 3.333 12.789 0 18.601l-18.058 31.467Z" fill="#FFBE3C"/><path d="M160.565 189.498c4.651 0 8.448-3.798 8.448-8.448s-3.797-8.448-8.448-8.448c-4.65 0-8.448 3.798-8.448 8.448" fill="#007171"/><path d="M232.799 46.038c-23.948-.62-56.733-1.55-78.357-2.093-14.803-.388-29.141-4.65-41.774-12.323C98.252 22.709 78.721 10.85 65.312 2.635 56.865-2.558 45.782.078 40.59 8.525 30.203 25.344 13.617 52.16 3.154 69.134.596 73.242-.18 78.202.984 82.93c1.162 4.727 4.185 8.758 8.293 11.238 16.043 9.455 51.85 33.404 61.77 39.992 1.706 1.163 3.023 2.79 3.721 4.65 11.083 28.832 38.597 48.053 69.521 48.441 2.171 0 4.186.077 6.046.077 6.2.078 12.168 2.48 16.741 6.665 7.053 6.433 17.516 16.044 23.251 21.237 2.558 2.402 6.045 3.565 9.533 3.255a20.75 20.75 0 0 0 15.888-9.688c3.488-5.581 4.108-12.401 1.706-18.524a119.867 119.867 0 0 1-.853-2.247s-12.401-26.662-33.947-32.862a21.738 21.738 0 0 1-12.401-18.989c0-1.24-.93-14.183 7.518-22.244 5.038-4.805 10.231-7.285 17.206-6.665-.465-1.705.62-.93.62-.93" fill="#F2A068"/></svg>