<svg class="sinch-icon" xmlns="http://www.w3.org/2000/svg" viewBox="0 0 477 800" fill="none" aria-hidden="true" focusable="false"><path d="M192.95 319.347a122.727 122.727 0 0 0-6.013 15.032c-3.821 11.191-7.997 26.098-7.997 26.098a38.626 38.626 0 0 0 38.573-38.541v-2.568H192.95" fill="#081B2B"/><path d="M80.175 785.229a15.096 15.096 0 0 0 15.252 14.823h51.663a29.682 29.682 0 0 0 25.629-14.688 1.803 1.803 0 0 1 2.035-.844 1.81 1.81 0 0 1 1.336 1.753v11.316a2.462 2.462 0 0 0 .719 1.745 2.461 2.461 0 0 0 1.745.718h32.591a2.451 2.451 0 0 0 2.464-2.463v-61.884l-70.402 14.417-3.998 6.837a27.15 27.15 0 0 1-23.384 13.415H94.946a14.822 14.822 0 0 0-14.823 14.855h.052Zm283.832-1.044a15.094 15.094 0 0 0 20.471 5.585l28.468-15.659a51.417 51.417 0 0 0 25.942-35.379c.72-3.841.887-7.307.073-9.854a1.807 1.807 0 0 1 2.912-1.9l8.456 7.506a2.452 2.452 0 0 0 2.712.374c.291-.142.55-.34.764-.583l21.609-24.376a2.46 2.46 0 0 0-.208-3.476l-48.929-42.467-41.757 40.149s11.128 28.51 12.162 35.254c1.044 6.587-1.566 10.773-8.581 14.615l-18.248 10.053a14.837 14.837 0 0 0-7.566 14.652 14.832 14.832 0 0 0 1.762 5.516l-.042-.01Z" fill="#A7D5C2"/><path d="M211.562 518.413a46.975 46.975 0 0 1 66.338-3.582l161.398 144.865-62.757 69.919-161.406-144.871a46.978 46.978 0 0 1-3.581-66.338l.008.007Z" fill="#081B2B"/><path d="M178.554 488.128a46.977 46.977 0 0 1 46.977 46.976V752h-93.953V535.094a46.977 46.977 0 0 1 46.976-46.977v.011Z" fill="#081B2B"/><path d="M272.165 376.063c7.215-24.915-7.134-50.961-32.049-58.176-24.915-7.215-50.961 7.134-58.176 32.049L134.67 513.17c-7.215 24.915 7.134 50.961 32.049 58.176 24.915 7.215 50.962-7.134 58.177-32.049l47.269-163.234Z" fill="#081B2B"/><path d="M337.316 392.262c7.215-24.915-7.134-50.962-32.049-58.177-24.915-7.215-50.961 7.134-58.176 32.049l-47.269 163.234c-7.215 24.915 7.134 50.961 32.049 58.176 24.915 7.215 50.961-7.133 58.176-32.049l47.269-163.233Z" fill="#081B2B"/><path d="M331.489 319.336h-.24v-.741H193.002v52.749a69.13 69.13 0 0 0 5.261 26.451 69.133 69.133 0 0 0 37.407 37.406 69.107 69.107 0 0 0 26.45 5.261c21.755 0 66.811-6.117 75.163-48.198 8.059-40.733-5.93-65.109-5.794-72.928Z" fill="#081B2B"/><path d="M201.667 312.843a34.982 34.982 0 0 1-31.642-49.827l49.472-105.436a34.973 34.973 0 0 1 64.004 3.348 34.966 34.966 0 0 1-.701 26.341l-49.471 105.436a34.968 34.968 0 0 1-31.662 20.138Z" fill="#059688"/><path d="M229.853 298.625a34.95 34.95 0 0 1-48.522 9.572l-96.04-66.143a9.863 9.863 0 0 1-2.632-13.571l27.717-41.903a9.845 9.845 0 0 1 6.344-4.235 9.848 9.848 0 0 1 7.467 1.563l96.124 66.174a34.97 34.97 0 0 1 9.542 48.543Z" fill="#059688"/><path d="M92.316 170.567a7.795 7.795 0 0 1-5.507-2.281 7.788 7.788 0 0 1-2.281-5.507V132.85l-7.704 1.837a7.782 7.782 0 0 1-8.388-2.877 7.788 7.788 0 0 1 4.828-12.27l8.184-1.952a15.24 15.24 0 0 1 18.708 14.844v30.274a7.806 7.806 0 0 1-2.274 5.573 7.799 7.799 0 0 1-5.566 2.288Z" fill="#842306"/><path d="m112.202 175.149-47.467 10.909a4.373 4.373 0 0 1-3.56-.647L1.828 143.832c-2.38-1.671-.98-6.942 2.088-7.642l43.48-9.98a13.123 13.123 0 0 1 10.731 1.952l56.163 39.346c2.328 1.67.929 6.952-2.088 7.641Z" fill="#272727"/><path d="m156.548 205.413-25.451 35.618-39.387-27.914a17.876 17.876 0 0 0-11.692-2.224 27.596 27.596 0 0 1-27.654-13.273 27.598 27.598 0 0 1-3.57-10.163l-1.2-8.477 66.487-9.927 1.044 7.599 41.423 28.761Z" fill="#842306"/><path d="M124.322 198.752a8.882 8.882 0 0 1-8.42-1.975 8.868 8.868 0 0 1-2.739-8.203 37.58 37.58 0 0 0-5.533-27.403 8.894 8.894 0 0 1-1.887-6.678 8.873 8.873 0 0 1 6.693-7.512 8.899 8.899 0 0 1 6.851 1.107 8.894 8.894 0 0 1 2.561 2.445 55.654 55.654 0 0 1 8.759 41.308 8.885 8.885 0 0 1-6.285 6.911Z" fill="#842306"/><path d="M119.197 179.294a8.09 8.09 0 0 1-1.754.198H39.149a7.61 7.61 0 0 1 0-15.22h78.294a7.609 7.609 0 0 1 6.253 11.987 7.617 7.617 0 0 1-4.499 3.035Zm143.017-23.822a24.326 24.326 0 0 1-24.01-21.515l-1.67-23.718a25.102 25.102 0 0 1 14.8-25.641 25.107 25.107 0 0 1 10.254-2.149 25.135 25.135 0 0 1 25.231 25.055v23.749a24.292 24.292 0 0 1-7.254 17.238 24.3 24.3 0 0 1-17.351 6.981Z" fill="#842306"/><path d="M286.851 105.458v13.884l-49.347 5.71a6.525 6.525 0 0 0-1.753-3.132 6.676 6.676 0 0 0-4.729-1.962 32.181 32.181 0 0 1-20.988-7.783 32.18 32.18 0 0 1-10.831-19.589v-.188c-.094-.7-.178-1.41-.219-2.088a1.179 1.179 0 0 1 0-.188 31.249 31.249 0 0 1-.073-2.213V44.002A43.956 43.956 0 0 1 237.807.314a41.084 41.084 0 0 1 5.095-.303 43.967 43.967 0 0 1 40.647 27.153 43.98 43.98 0 0 1 3.344 16.838v60.85a1.936 1.936 0 0 0-.042.606Zm11.9 30.659h-71.456a70.117 70.117 0 0 1 7.057-3.591 5.65 5.65 0 0 0 2.171-1.702 5.269 5.269 0 0 0 1.044-3.184v-.992l51.413-7.61a63.285 63.285 0 0 0 5.627 11.786 48.112 48.112 0 0 0 4.144 5.293Z" fill="#842306"/><path d="m289.074 119.08-2.015.23a6.86 6.86 0 0 1-7.547-5.596 6.87 6.87 0 0 1 4.176-7.568l3.131-1.294c0 4.797.743 9.565 2.203 14.134l.052.094Z" fill="#842306"/><path d="M286.84 43.99v28.186h-12.965V58.772a11.345 11.345 0 0 0-10.882-11.43 11.346 11.346 0 0 0-11.782 10.501v1.337a6.9 6.9 0 0 1-6.514 6.983 6.69 6.69 0 0 1-6.9-6.702V41.318a8.352 8.352 0 0 0-8.352-8.351h-29.188A43.99 43.99 0 0 1 239.645.125l1.043-.073h2.141a43.967 43.967 0 0 1 43.99 43.99l.021-.052Z" fill="#081B2B"/><path d="M286.84 62.374v39.168a24.28 24.28 0 0 1-12.965-21.494V62.374h12.965Z" fill="#081B2B"/><path d="M213.348 85.362a14.374 14.374 0 0 1-10.074 7.13c-.827.145-1.665.218-2.505.219a11.165 11.165 0 0 1-1.566-.094v-.188c-.094-.7-.178-1.41-.219-2.088a12.143 12.143 0 0 0 12.422-6.055 1.123 1.123 0 0 1 .682-.54 1.117 1.117 0 0 1 .863.112 1.136 1.136 0 0 1 .397 1.503Z" fill="#E83452"/><path d="M338.744 226.803c0 38.406-7.245 92.544-7.245 92.544H192.95c-.209-5.042-10.565-99.664-8.696-101.898 1.253-23.488 8.038-47.456 23.739-65.401a76.172 76.172 0 0 1 13.748-12.423h80.382c.961.908 1.973 1.754 3.007 2.599.323.272.657.543.981.836 24.094 20.366 32.633 45.337 32.633 83.743Z" fill="#005F5F"/><path d="M302.155 139.625h-80.383a71.449 71.449 0 0 1 12.11-6.911h62.176a48.55 48.55 0 0 0 6.097 6.911Zm-47.248 163.603a34.948 34.948 0 0 1-48.616 9.103l-95.446-67.04a9.857 9.857 0 0 1-2.495-13.571l28.103-41.622a9.878 9.878 0 0 1 6.38-4.177 9.869 9.869 0 0 1 7.452 1.62l95.498 67.082a34.97 34.97 0 0 1 9.124 48.605Z" fill="#059688"/><path d="M227.18 316.779a34.992 34.992 0 0 1-31.641-49.837l49.471-105.436a34.972 34.972 0 0 1 64.555 2.97 34.974 34.974 0 0 1-1.23 26.74l-49.472 105.436a34.977 34.977 0 0 1-31.683 20.127Z" fill="#059688"/></svg>