<svg class="sinch-icon" xmlns="http://www.w3.org/2000/svg" viewBox="0 0 100 100" fill="none" aria-hidden="true" focusable="false"><path d="M50 100c27.614 0 50-22.386 50-50S77.614 0 50 0 0 22.386 0 50s22.386 50 50 50Z" fill="#059688"/><path d="M42.732 73.546c-1.454 0-2.907-.58-4.07-1.744L19.476 52.616c-2.326-2.325-2.326-5.814 0-8.14 2.326-2.325 5.814-2.325 8.14 0l15.116 15.117L73.255 28.78c2.326-2.326 5.814-2.326 8.14 0 2.325 2.326 2.325 5.814 0 8.14L46.802 71.802c-1.163 1.163-2.617 1.744-4.07 1.744Z" fill="#F2F2F2"/></svg>