<svg class="sinch-icon" xmlns="http://www.w3.org/2000/svg" viewBox="0 0 704 800" fill="none" aria-hidden="true" focusable="false"><path d="m75.596 729.084-.824-17.686a22.045 22.045 0 0 1 8.898-18.733l35.593-26.365-35.593-41.677-56.254 48.04 48.18 56.421Z" fill="#F2A068"/><path d="m93.805 772.711-11.56-15.461a26.88 26.88 0 0 1-5.107-20.068l3.012-20.844c2.572-17.79-9.102-24.788-26.545-26.605-.167-.019-.333-.032-.5-.048h-.146a2.446 2.446 0 0 1-2.238-2.222 41.455 41.455 0 0 0-9.775-23.125 2.61 2.61 0 0 0-3.674-.299L.912 695.078a2.6 2.6 0 0 0-.29 3.664l22.9 31.887a2.601 2.601 0 0 0 3.666.288l2.614-2.233a2.621 2.621 0 0 1 4.315 2.21l-.264 3.271a35.83 35.83 0 0 0 8.46 26.224l27.352 32.025a15.59 15.59 0 0 0 22.047 1.682c6.238-5.38 7.02-14.786 2.087-21.385" fill="#12364C"/><path d="M106.376 342.998s124.012-29.959 124.042-15.703a9.048 9.048 0 0 0 1.69 5.25l88.623 123.856 2.649 3.709c25.267 35.447 18.235 84.499-15.976 111.411L142.218 698.31c-4.98 3.917-12.301 2.948-16.32-2.159L77.061 634.09c-4.021-5.107-3.24-12.449 1.74-16.367l145.916-111.632-118.341-163.093Z" fill="#CDE9FB"/><path d="m187.501 752.127-13.984-10.86a22.044 22.044 0 0 1-8.476-18.932l3.065-44.186h-54.798v73.976h74.193v.002Z" fill="#F2A068"/><path d="m232.457 766.711-19.265-1.252a26.877 26.877 0 0 1-18.574-9.147l-13.896-15.827c-11.859-13.509-24.761-9.176-37.468 2.914-.125.116-.244.233-.363.349l-.103.104a2.453 2.453 0 0 1-3.145.264 41.483 41.483 0 0 0-23.937-7.589 2.61 2.61 0 0 0-2.61 2.599v56.156a2.608 2.608 0 0 0 .761 1.839 2.594 2.594 0 0 0 1.838.762h39.119a2.598 2.598 0 0 0 2.598-2.601v-8.495a2.626 2.626 0 0 1 1.62-2.428 2.62 2.62 0 0 1 2.862.574l2.315 2.331a35.829 35.829 0 0 0 25.429 10.596h42.139a15.59 15.59 0 0 0 11.055-4.596 15.601 15.601 0 0 0 4.541-11.078c-.04-8.238-6.686-14.939-14.905-15.472" fill="#12364C"/><path d="m112.016 308.644.151-.164 99.171-.093.119.337c.154.424 15.226 42.726 15.226 61.255 0 37.656-139.1 68.288-139.1 68.288L86.58 372.89a86.788 86.788 0 0 1 4.36-28.536c4.932-14.964 12.015-36.735 11.523-36.873" fill="#CDE9FB"/><path d="M189.395 366.339V689.06c0 5.893-5.298 10.688-11.788 10.688H98.631c-6.5 0-11.79-4.795-11.79-10.688V366.204l102.554.135Z" fill="#CDE9FB"/><path d="M101.452 177.92a55.677 55.677 0 0 1 43.685-23.397l26.298-.808L103.306 270.3a27.548 27.548 0 0 1-37.574 9.965 27.582 27.582 0 0 1-13.163-18.005 27.577 27.577 0 0 1 4.461-21.853l44.422-62.487Z" fill="#F2A068"/><path d="m357.921 352.017-21.54 1.643a1.961 1.961 0 0 0-.747 3.647l14.473 8.381a5.108 5.108 0 0 1 2.286 6.008c-.858 2.606-3.708 4.008-6.344 3.274l-30.128-8.728a35.503 35.503 0 0 1-5.981-2.456 48.282 48.282 0 0 1-22.473-23.906c-2.692-6.206-5.372-12.407-5.372-12.407l31.532-12.508 5.751 14.065a9.049 9.049 0 0 0 7.528 5.587l2.778.265c3.926.371 7.887.068 11.711-.896a45.59 45.59 0 0 1 21.721-.113c5.218 1.255 10.805 2.516 12.566 2.598a5.628 5.628 0 0 1 5.057 3.801l3.385.419a5.619 5.619 0 0 1 4.916 5.205 4.613 4.613 0 0 1-1.131 3.348 4.617 4.617 0 0 1-3.17 1.563c-.302.018-.615.042-.933.066l4.445 5.107a5.62 5.62 0 0 1 .183 7.152 4.628 4.628 0 0 1-3.079 1.735 4.6 4.6 0 0 1-3.403-.954c-4.453-3.499-11.862-8.442-15.581-10.886-1.947.291-3.178.492-3.178.492a39.498 39.498 0 0 1-5.269-1.51l-.003.008Z" fill="#F2A068"/><path d="M703.568 363.653a12.777 12.777 0 0 0-3.744-9.042 12.784 12.784 0 0 0-9.042-3.744H275.218a12.777 12.777 0 0 0-9.042 3.744 12.784 12.784 0 0 0-3.744 9.042 12.79 12.79 0 0 0 12.786 12.786h415.564a12.787 12.787 0 0 0 12.786-12.786Z" fill="#2E3542"/><path d="M689.656 13.467A13.466 13.466 0 0 0 676.192 0h-387.87a13.466 13.466 0 0 0-13.467 13.467V286.51a13.467 13.467 0 0 0 13.467 13.464h387.87a13.463 13.463 0 0 0 13.464-13.464V13.467Z" fill="#F2F2F2"/><path d="M606.976 143.553a32.631 32.631 0 0 0 32.317-32.944l-16.315.157a16.317 16.317 0 0 1-16.158 16.473l.156 16.314Z" fill="#A7D5C2"/><path d="M637.295 108.527a32.629 32.629 0 0 0-20.435-29.955 32.633 32.633 0 0 0-42.225 43.049 32.64 32.64 0 0 0 30.344 19.853l-.159-16.315a16.317 16.317 0 1 1 16.158-16.476l16.315-.156h.002Zm.001 90.488a31.353 31.353 0 0 1-53.523 22.188 31.353 31.353 0 0 1 22.17-53.529 31.37 31.37 0 0 1 31.353 31.352v-.011Z" fill="#007171"/><path d="M605.888 199.341h-35.85v-.326a35.923 35.923 0 0 1 35.852-35.903v36.229h-.002Z" fill="#A7D5C2"/><path d="M354.067 126.584a3.711 3.711 0 0 0-3.708-3.708h-24.775a3.708 3.708 0 0 0-3.709 3.708V230.37h32.208V126.584h-.016Zm39.188-23.431a3.708 3.708 0 0 0-3.709-3.709h-24.777a3.709 3.709 0 0 0-3.709 3.709V230.37h32.208V103.153h-.013Zm39.19 92.485a3.71 3.71 0 0 0-3.709-3.708h-24.783a3.707 3.707 0 0 0-3.708 3.708v34.732h32.208v-34.732h-.008Zm39.187-114.053a3.706 3.706 0 0 0-3.708-3.708h-24.775a3.708 3.708 0 0 0-3.708 3.708V230.37h32.191V81.585Zm39.188 64.495a3.708 3.708 0 0 0-3.709-3.708h-24.775a3.71 3.71 0 0 0-3.708 3.708v84.29h32.207v-84.29h-.015Z" fill="#007171"/><path d="M151.823 71.064c30.022-8.044 60.924 9.801 68.974 39.821 8.05 30.02-9.801 60.924-39.82 68.977-30.02 8.052-60.925-9.801-68.977-39.824-8.053-30.022 9.801-60.929 39.823-68.974Z" fill="#272727"/><path d="M213.56 106.382a26.642 26.642 0 0 1 33.479 23.988 26.644 26.644 0 0 1-30.06 28.155 26.644 26.644 0 0 1-22.255-19.517 26.653 26.653 0 0 1 18.836-32.626Z" fill="#272727"/><path d="M274.354 203.248a29.646 29.646 0 0 0-37.015-18.396 29.748 29.748 0 0 0-16.587 43.372l65.856 112.35a17.401 17.401 0 0 0 32.406-9.192 7.874 7.874 0 0 0-.447-2.45c-3.613-10.272-29.758-84.571-44.236-125.681l.023-.003Z" fill="#F2A068"/><path d="M264.498 175.091a37.798 37.798 0 0 0-35.659-25.257h-92.774a27.784 27.784 0 0 0-12.678 3.064 27.783 27.783 0 0 0-9.88 8.514L65.957 227.7l51.123-1.033-21.418 103.412h135.177l-.056-84.936 6.116 10.119 48.12-21.851-20.521-58.32Z" fill="#FFBE3C"/><path d="M242.322 57.695a36.587 36.587 0 0 0-70.36 2.872l-7.035 29.463a36.573 36.573 0 0 0 4.318 27.756 36.576 36.576 0 0 0 22.724 16.511 36.574 36.574 0 0 0 38.203-14.24 36.59 36.59 0 0 0 5.917-13.042l7.035-29.464a36.517 36.517 0 0 0-.794-19.866" fill="#F2A068"/><path d="M220.431 115.154a14.78 14.78 0 0 1-3.284-.037 15.134 15.134 0 0 1-9.769-5.382 1.714 1.714 0 0 1-.378-1.254 1.715 1.715 0 0 1 1.873-1.53c.452.045.867.268 1.154.62a11.6 11.6 0 0 0 15.893 1.962 1.706 1.706 0 0 1 2.705 1.621 1.704 1.704 0 0 1-.671 1.121 15.144 15.144 0 0 1-7.504 2.879" fill="#894915"/><path d="M242.372 57.681a36.382 36.382 0 0 0-30.091-24.94c-19.337-2.52-38.475 9.717-42.671 27.285l-8.797 36.2c-1.785 7.474-2.254 18.745-1.197 28.716 1.282 12.071 4.577 20.828 9.271 24.661l.633.53 12.047-62.249-.53-.06c-2.932-.361-5.422-1.776-7.014-3.974-1.592-2.199-2.138-5.086-1.526-8.08 1.537-7.52 9.314-9.49 25.347-7.212 25.104 3.568 41.164 2.368 44.502-10.84.021.099.1 0 0 0" fill="#272727"/><path d="M215.203 149.807h-.072a12.277 12.277 0 0 1-3.777-.559 8.243 8.243 0 0 1-1.828-14.998 6.506 6.506 0 0 1 1.385-.617l.451-.135-14.06-49.608-16.728 10.481-9.329 44.236a14.152 14.152 0 0 1-13.674 11.229l-3.091.04 28.984 20.894 32.17-19.4a.841.841 0 0 0-.431-1.56v-.003Z" fill="#F2A068"/><path d="M151.728 149.853v.476c0 19.313 15.443 35.026 34.435 35.026 18.992 0 34.435-15.713 34.435-35.026v-.476h-68.87Z" fill="#F2A068"/><path d="M184.796 81.766a1.982 1.982 0 1 1 .394 3.945 1.982 1.982 0 0 1-.394-3.945Z" fill="#fff"/><path d="M299.699 357.757a31.603 31.603 0 0 1-9.576-10.352 22786.012 22786.012 0 0 1-11.464-19.932l68.788 23.087-10.282.562a3.32 3.32 0 0 0-2.932 4.468 3.321 3.321 0 0 0 1.26 1.6c.069.051.111.098.14.117l14.474 8.381a5.103 5.103 0 0 1 2.286 6.008c-.858 2.606-3.708 4.007-6.344 3.274l-30.128-8.728c-5.341-1.55-11.655-5.372-16.222-8.477v-.008Zm-40.422-155.481-.095-.244a5.037 5.037 0 0 0-5.735-3.073l-41.964 8.977a4.943 4.943 0 0 1-2.799-.212c-1.341-.498-3.905-1.324-9.571-2.164-6.166-.922-11.758 5.052-14.423 8.959-2.408 3.533-5.918 6.336-10.182 6.818l-4.546.432.019.047-.861.098-51.817 4.861-40.721 4.278a26.978 26.978 0 0 0-19.568 11.472 26.404 26.404 0 0 0-3.708 22.195 26.646 26.646 0 0 0 13.244 16.317 27.14 27.14 0 0 0 21.074 1.796l52.125-17c.297-.041.591-.101.88-.18 0 0 26.88-8.477 41.476-12.673.217-.042.437-.092.659-.153 3.894-1.06 9.396-.623 13.422-.265 3.571.315 8.026.553 10.98.18 7.483-.948 27.879-8.063 27.89-8.066l.265-.087a5.117 5.117 0 0 0 3.021-7.566 5.12 5.12 0 0 0-2.319-2.044 5.13 5.13 0 0 0 .341-9.838 5.135 5.135 0 0 0 .207-10.066l16.751-5.226a4.69 4.69 0 0 0 1.261-.612l1.518-.472a4.993 4.993 0 0 0 2.999-2.566 4.92 4.92 0 0 0 .177-3.923Z" fill="#F2A068"/><path d="M308.965 367.648v430.231c0 .562.223 1.101.621 1.498a2.115 2.115 0 0 0 2.996 0c.398-.397.621-.936.621-1.498V367.648a2.12 2.12 0 0 0-4.238 0Zm366.074 0v430.231c0 .562.223 1.101.621 1.498a2.115 2.115 0 0 0 2.997 0c.397-.397.62-.936.62-1.498V367.648a2.118 2.118 0 1 0-4.238 0Zm-386.097 0v430.231c0 .562.223 1.101.621 1.498a2.115 2.115 0 0 0 2.996 0c.398-.397.621-.936.621-1.498V367.648a2.12 2.12 0 0 0-4.238 0Zm366.077 0v430.231c0 .562.223 1.101.621 1.498a2.115 2.115 0 0 0 2.996 0c.398-.397.621-.936.621-1.498V367.648a2.12 2.12 0 0 0-4.238 0Z" fill="#2E3542"/><path d="M542.225 232.945a2.089 2.089 0 0 1-1.471-.61 2.077 2.077 0 0 1-.608-1.472V52.329a2.08 2.08 0 0 1 3.526-1.424c.388.375.616.885.635 1.424v178.534a2.083 2.083 0 0 1-2.082 2.082Z" fill="#fff"/></svg>