<svg class="sinch-icon" xmlns="http://www.w3.org/2000/svg" viewBox="0 0 560 800" fill="none" aria-hidden="true" focusable="false"><path d="M559.279 500.617H.435v74.971h558.844v-74.971ZM340.614 766.701v.687c-.125 5.31-2.311 10.121-5.81 13.682-3.624 3.624-8.622 5.873-14.119 5.873H292.82c-14.494 0-27.176-7.685-34.174-19.243v19.243H223.16a256.138 256.138 0 0 1-3.936-19.493 204.337 204.337 0 0 1-1.687-12.182c-1.249-10.684-1.811-21.367-1.811-32.113v-50.043h64.537v39.297c0 19.118 10.808 34.612 29.863 34.612h10.059c10.995-.063 20.304 8.622 20.429 19.68Z" fill="#12364C"/><path d="M429.142 766.701v.687c-.125 5.31-2.311 10.121-5.81 13.682-3.624 3.624-8.622 5.873-14.12 5.873h-27.864c-14.494 0-27.177-7.685-34.174-19.243v19.243h-35.486a256.138 256.138 0 0 1-3.936-19.493 204.337 204.337 0 0 1-1.687-12.182c-1.249-10.684-1.812-21.367-1.812-32.113v-50.043h64.538v39.297c0 19.118 10.808 34.612 29.863 34.612h10.059c10.995-.063 20.304 8.622 20.429 19.68ZM322.247 272.955c-2.312 35.299-30.863 63.975-66.162 66.35-41.671 2.873-76.345-30.114-76.345-71.16 0-18.056 6.685-34.487 17.743-47.044a31.103 31.103 0 0 0 5.685-9.309c.25-.562.375-1.062.562-1.624.375-1.125.688-2.25.875-3.374.812-3.999.812-8.122-.125-12.12-.812-3.562-1.187-7.248-1.187-11.059v-.749c.187-10.621 3.561-20.492 9.309-28.614.875-1.25.125-2.936-1.375-3.186-18.742-2.624-33.049-18.993-32.487-38.548.562-20.117 17.118-36.486 37.236-36.798 21.179-.312 38.422 16.743 38.422 37.86 0 5.748-1.312 11.183-3.561 16.119-.625 1.374.375 2.936 1.874 2.874 1.687-.063 3.374 0 5.061.062 25.115 1.625 45.544 21.867 47.481 46.919.5 6.623-.25 12.995-1.999 18.931-2.874 9.433-.5 19.554 5.373 27.489 9.496 12.932 14.807 29.301 13.62 46.981Z" fill="#12364C"/><path d="M397.779 540.414v181.929h-114.08v-145.38h-70.535c-32.737 0-59.289-26.553-59.289-59.29V403.655l182.553.313-.812 85.654c-.375 4.81 3.436 8.871 8.309 8.871h11.996c23.116.063 41.858 18.805 41.858 41.921Z" fill="#A7D5C2"/><path d="M311.438 540.414v181.929h-114.08V498.556h72.222c23.116 0 41.858 18.742 41.858 41.858Z" fill="#A7D5C2"/><path d="M295.007 701.664c-3.248 0-5.935-2.687-5.935-5.936V531.23c0-3.249 2.687-5.935 5.935-5.935 3.249 0 5.936 2.686 5.936 5.935v164.498c0 3.249-2.687 5.936-5.936 5.936Z" fill="#12364C"/><path d="M140.255 451.698h11.621V327.185h-11.621c-22.429 0-40.671 18.18-40.671 40.671v43.233c0 22.367 18.18 40.609 40.671 40.609Z" fill="#059688"/><path d="M337.678 316.189v103.147H139.255V316.189c0-29.738 24.116-53.854 53.854-53.854h90.715c1.562 0 3.061.062 4.623.187.312 0 .687.063 1 .125 2.811.313 5.56.813 8.184 1.5 1.624.437 3.249.937 4.811 1.499 20.554 7.56 35.236 27.364 35.236 50.543Z" fill="#059688"/><path d="M305.628 266.271 269.08 423.46l-14.12 59.664c-7.934 30.738-38.984 49.73-70.097 42.483-31.363-7.247-50.98-38.36-44.108-69.723L250.4 481.312l13.432-57.852 36.923-158.689c1.687.438 3.311.938 4.873 1.5Z" fill="#FFD03C"/><path d="M155.874 0h-17.243v786.88h17.243V0Z" fill="#12364C"/><path d="M299.755 177.743v51.98c0 15.744-12.745 28.489-28.488 28.489h-8.247c-1.625 0-2.687 1.562-2.437 2.936.063.437.313.812.687 1.187l3.749 3.436 11.058 10.184c8.185 7.559 8.684 20.242 1.187 28.426-7.497 8.185-20.242 8.684-28.426 1.187 0 0-28.614-29.863-35.674-36.548-5.81-5.56-11.995-6.31-11.995-6.31s6.997-1.624 10.496-3.936c6.247-4.186 7.559-7.747 7.559-15.244v-19.742c-9.308-1.937-16.306-10.184-16.306-19.993 0-9.871 6.998-18.117 16.306-19.992v-5.06c0-22.242 17.619-41.109 39.922-41.234 8.747-.063 16.869 2.624 23.491 7.31a40.063 40.063 0 0 1 5.311 4.435c7.247 7.31 11.807 17.369 11.807 28.489Z" fill="#894915"/><path d="M271.391 234.908c-4.311 0-8.309-1.874-11.058-5.248-.375-.5-.312-1.187.125-1.562.5-.374 1.187-.312 1.562.125 2.311 2.812 5.685 4.374 9.309 4.374 3.623 0 6.997-1.625 9.309-4.374.374-.499 1.124-.562 1.561-.187.5.375.563 1.124.188 1.562a14.07 14.07 0 0 1-10.996 5.31Zm-2.499-37.111c-.062-.624-.187-1.249-.312-1.874-1.375-5.373-6.248-9.371-11.995-9.371-4.686 0-8.747 2.624-10.871 6.435a9.851 9.851 0 0 0-.75 1.687c-.5 1.312-.75 2.749-.75 4.248 0 6.81 5.561 12.37 12.371 12.37 6.809 0 12.37-5.56 12.37-12.37 0-.375-.063-.75-.063-1.125Zm-12.37 11.683a10.478 10.478 0 0 1-10.496-10.496c0-5.81 4.686-10.495 10.496-10.495 5.81 0 10.496 4.685 10.496 10.495.062 5.748-4.686 10.496-10.496 10.496Zm30.551-22.866c-5.81 0-10.684 3.999-11.996 9.372-.124.624-.249 1.249-.312 1.874-.062.375-.062.75-.062 1.124 0 6.81 5.56 12.371 12.37 12.371s12.37-5.561 12.37-12.371c0-6.872-5.56-12.37-12.37-12.37Zm0 22.866a10.478 10.478 0 0 1-10.496-10.496c0-5.81 4.686-10.495 10.496-10.495 5.81 0 10.496 4.685 10.496 10.495 0 5.748-4.748 10.496-10.496 10.496Z" fill="#E83452"/><path d="M216.913 226.599a6.685 6.685 0 1 0 0-13.37 6.685 6.685 0 0 0 0 13.37Z" fill="#FFD03C"/><path d="m217.035 180.825-.734 1.725 29.145 12.404.734-1.725-29.145-12.404Zm58.605 15.099h-7.622v1.874h7.622v-1.874Z" fill="#E83452"/><path d="M267.206 145.506c0 21.679-17.619 39.297-39.298 39.297-4.185 0-8.246-.687-12.057-1.874v-17.056c0-17.806 14.119-32.862 31.925-32.987 6.997-.063 13.369 1.249 18.68 4.998.437 2.187.75 5.31.75 7.622Z" fill="#12364C"/><path d="M137.818 283.077c-4.998 0-9.058 4.061-9.058 9.059l-.125 2.687c-.188 4.435-2.187 8.684-5.811 11.37-2.249 1.624-3.748 4.311-3.748 7.31v.999c0 2.812-.875 5.623-2.687 7.81a9.17 9.17 0 0 0-1.999 5.748c0 1.124.188 2.249.562 3.248a12.395 12.395 0 0 1 0 8.747c-.374 1-.562 2.062-.562 3.249 0 2.186.75 4.186 1.999 5.747 1.812 2.187 2.687 4.998 2.687 7.81 0 4.998 4.061 9.059 9.059 9.059h18.555c4.623 0 8.747-3.374 9.309-7.935.25-2.124-.25-4.123-1.25-5.81 4.186-.812 7.31-4.498 7.31-8.934 0-2.561-1.062-4.81-2.749-6.497 3.749-1.125 6.56-4.561 6.56-8.684 0-4.499-3.311-8.247-7.622-8.934 1.312-1.687 2.062-3.811 1.937-6.123-.25-4.873-4.498-8.559-9.372-8.559h-12.307V283.14c-.125-.063-.375-.063-.688-.063Z" fill="#894915"/></svg>