<svg class="sinch-icon" xmlns="http://www.w3.org/2000/svg" viewBox="0 0 349 400" fill="none" aria-hidden="true" focusable="false"><path d="m325.318 140.2-51.731 58.141c-6.753 7.668-18.427 8.354-26.095 1.487-7.668-6.752-8.355-18.426-1.488-26.094.344-.343.687-.801 1.03-1.145l56.424-53.676c6.066-5.837 15.679-5.494 21.516.572 5.494 5.837 5.494 14.878.344 20.715ZM185.117 332.017 117.135 400h61.23c3.548 0 6.867-1.373 9.385-3.891l63.977-63.977-66.61-.115Zm-82.747-65.121 25.866-78.284c2.518-7.782 10.873-11.902 18.655-9.384 6.295 2.06 10.301 8.011 10.186 14.42l-1.946 82.404c-.343 14.878-12.703 26.781-27.696 26.437-14.879-.343-26.781-12.704-26.438-27.696 0-2.747.572-5.494 1.373-7.897Z" fill="#894915"/><path d="m286.405 86.638-5.837-4.692v1.83c-1.03-.228-2.175-.343-3.434-.343h-90.987c-8.812 0-16.709 7.096-17.739 15.909l-26.782 227.41c-.343 2.976.115 5.723 1.374 8.126l-1.831.229 5.951 4.693c2.289 1.716 5.265 2.746 8.584 2.746h90.758c8.698 0 16.71-7.095 17.74-15.794l27.124-227.41c.572-5.265-1.373-9.843-4.921-12.704Z" fill="#666"/><path d="M240.625 337.968h-90.758c-8.698 0-14.993-7.095-13.963-15.794l27.01-227.41c1.03-8.813 9.042-15.908 17.74-15.908h90.987c8.812 0 14.993 7.095 13.963 15.908l-27.239 227.41c-1.03 8.699-8.927 15.794-17.74 15.794Z" fill="#F2F2F2"/><path d="M207.091 90.644c.115-1.374-.801-2.633-2.289-2.633-1.487 0-2.746 1.145-2.861 2.633-.114 1.373.801 2.632 2.289 2.632 1.374-.114 2.747-1.259 2.861-2.632Zm28.498 2.861h-22.203a2.833 2.833 0 0 1-2.861-2.861 2.833 2.833 0 0 1 2.861-2.862h22.203a2.834 2.834 0 0 1 2.862 2.862c0 1.602-1.374 2.86-2.862 2.86Z" fill="#666"/><path d="m294.874 287.039-26.094 25.293c-6.524 6.409-17.053 6.18-23.348-.344-5.951-6.065-6.18-15.679-.801-22.088l23.347-27.926c6.524-7.782 18.198-8.812 25.98-2.289 7.783 6.524 8.813 18.198 2.289 25.98l-1.373 1.374Z" fill="#894915"/><path d="m297.392 250.415-26.438 25.064c-6.638 6.295-17.053 5.952-23.348-.686-5.836-6.181-5.951-15.794-.572-22.089l23.691-27.582c6.638-7.668 18.198-8.584 25.98-1.946 7.783 6.638 8.584 18.197 1.946 25.98-.458.343-.916.916-1.259 1.259Z" fill="#894915"/><path d="m298.651 212.532-26.438 25.064c-6.638 6.295-17.053 5.952-23.348-.572-5.836-6.18-5.951-15.794-.572-22.088l23.691-27.583c6.638-7.782 18.198-8.583 25.98-2.06 7.783 6.638 8.584 18.198 2.06 25.98-.458.458-.915.916-1.373 1.259Zm-61.688 129.9s-34.793.114-54.478.114c-5.265 0-9.957-3.547-11.331-8.583-9.27-33.763-30.329-65.351-30.443-65.58l-.801-1.144-1.374.458c-.343.114-7.095 2.632-14.077 8.354-9.385-10.186-16.709-16.824-16.709-16.938l-1.832-1.717-1.03 2.289c-.457.916-10.872 24.035-2.975 61.917 4.005 18.312-1.832 35.022-18.083 51.274l-14.42 14.42c-2.175 2.175-2.748 5.265-1.603 8.126 1.144 2.861 3.777 4.578 6.867 4.578h70.386l13.963-13.963 33.991 4.807 48.298-48.298-4.349-.114Z" fill="#894915"/><path d="m151.24 137.911-2.861 1.374c-11.674 6.981-24.835 10.3-37.883 10.3-41.201 0-74.964-33.762-74.964-74.964 0-19.685 8.012-38.913 21.975-52.876C71.584 7.668 90.352-.343 110.495-.343c41.202 0 74.965 33.762 74.507 75.422 0 14.077-4.235 27.582-11.216 39.37l-1.831 2.862 7.439 27.582-28.155-6.982Z" fill="#CDE9FB"/><path d="M50.754 117.768v-7.553c0-1.488-1.259-2.747-2.747-2.747s-2.747 1.259-2.747 2.747v7.553h-7.553c-1.488 0-2.747 1.259-2.747 2.747s1.259 2.747 2.747 2.747h7.553v7.553c0 1.488 1.26 2.747 2.747 2.747a2.76 2.76 0 0 0 1.946-.801 2.76 2.76 0 0 0 .801-1.946v-7.553h7.554c.8 0 1.487-.344 1.945-.801a2.763 2.763 0 0 0 .801-1.946c0-1.488-1.259-2.747-2.746-2.747h-7.554Zm160.229-80.801 5.265-5.265c1.03-1.03 1.03-2.86 0-3.89-1.031-1.03-2.862-1.03-3.892 0l-5.264 5.264-5.265-5.265c-1.03-1.03-2.861-1.03-3.891 0-1.03 1.03-1.03 2.861 0 3.891l5.264 5.265-5.264 5.265c-1.03 1.03-1.03 2.86 0 3.891a2.68 2.68 0 0 0 1.945.801 2.68 2.68 0 0 0 1.946-.801l5.265-5.265 5.264 5.265a2.68 2.68 0 0 0 1.946.801c.687 0 1.373-.229 1.946-.801 1.03-1.03 1.03-2.861 0-3.891l-5.265-5.265ZM162.8 43.72c11.061 0 20.028-8.968 20.028-20.029S173.861 3.662 162.8 3.662c-11.062 0-20.029 8.968-20.029 20.029S151.738 43.72 162.8 43.72Z" fill="#FFBE3C"/><path d="M153.3 44.978H68.608v58.026H153.3V44.978Z" fill="#E83452"/><path d="M140.482 56.652H81.197V91.33h59.285V56.653Z" fill="#fff"/><path d="m81.197 56.652 29.757 17.282 30.558-17.282-25.408-4.463-34.907 4.463Z" fill="#E83452"/></svg>