<svg class="sinch-icon" xmlns="http://www.w3.org/2000/svg" viewBox="0 0 1215 800" fill="none" aria-hidden="true" focusable="false"><path d="m711.325 316.615-16.26 169.599" stroke="#000" stroke-width="3.14" stroke-linecap="round" stroke-linejoin="round"/><path d="M1214.64 494.186H0V799.89h1214.64V494.186Z" fill="#F2F2F2"/><path d="M809.998 566.266H611.067v21.963h198.931v-21.963Zm-151.913-23.591h-38.839v21.963h38.839v-21.963Z" fill="#0A273D"/><path d="M704.658 553.417h-38.839v21.963h38.839v-21.963Zm46.576 0h-38.839v21.963h38.839v-21.963Zm46.576 0h-38.839v21.963h38.839v-21.963Zm-127.737-75H440.747v15.153h229.326v-15.153Z" fill="#0A273D"/><path d="M726.19 161.949H531.809L500.442 493.57h194.381l31.367-331.621Z" fill="#0A273D"/><path d="M934.149 9.202A8.413 8.413 0 0 0 925.771 0H389.132a8.414 8.414 0 0 0-8.377 7.624L350.979 322.43a8.413 8.413 0 0 0 8.376 9.202h536.639a8.412 8.412 0 0 0 8.379-7.624c4.175-44.131 25.22-266.627 29.776-314.806Z" fill="#007171"/><path d="M545.317 0H388.188a8.416 8.416 0 0 0-8.376 7.624L350.035 322.43a8.413 8.413 0 0 0 8.376 9.202H513.95L545.317 0Zm175.541 32.011a8.412 8.412 0 0 0-8.379-9.201H565.732a8.411 8.411 0 0 0-8.376 7.624c-1.023 10.818-2.892 30.597-3.994 42.22a8.41 8.41 0 0 0 4.975 8.483 8.416 8.416 0 0 0 3.401.718h154.411s3.155-33.239 4.714-49.841l-.005-.003Zm-18.824 196.776a8.41 8.41 0 0 0-8.376-9.202h-147.87a8.413 8.413 0 0 0-8.379 7.624c-.229 2.416-.484 5.111-.72 7.624a8.413 8.413 0 0 0 8.376 9.202h155.539s.776-8.316 1.43-15.248Zm-4.041 36.877a8.408 8.408 0 0 0-2.154-6.452 8.424 8.424 0 0 0-6.222-2.75h-147.88a8.415 8.415 0 0 0-8.379 7.625c-.229 2.416-.484 5.11-.72 7.624a8.408 8.408 0 0 0 4.975 8.483 8.401 8.401 0 0 0 3.401.718h155.539s.788-8.313 1.44-15.248Z" fill="#059688"/><path d="M896.094 104.11a7.335 7.335 0 0 0-7.301-8.026H738.738a7.335 7.335 0 0 0-7.301 6.643l-9.051 95.697h158.115a7.336 7.336 0 0 0 7.301-6.644l8.292-87.667v-.003Z" fill="#A7D5C2"/><path d="M1078.13 303.554a8.432 8.432 0 0 0-2.16-6.452 8.416 8.416 0 0 0-6.22-2.75H754.123a8.409 8.409 0 0 0-8.378 7.624l-18.122 191.599h332.527s14.27-150.836 17.98-190.016v-.005Z" fill="#007171"/><path d="m985.066 332.523-154.301-.11c-5.466 0-10.401 4.44-10.997 9.906l-10.054 101.199 163.211.116c5.468 0 10.4-4.438 11-9.906l9.974-91.288c.597-5.466-3.365-9.917-8.833-9.92" fill="#FFBE3C"/><path d="M947.536 380.077h-88.301a6.197 6.197 0 1 1 0-12.393h88.301a6.197 6.197 0 1 1 0 12.393Z" fill="#FCECCB"/><path d="M855.567 136.552h-88.301a6.197 6.197 0 1 1 0-12.393h88.301a6.197 6.197 0 1 1 0 12.393Z" fill="#DCEDE1"/><path d="M900.298 408.368h-44.136a6.197 6.197 0 1 1 0-12.393h44.136a6.188 6.188 0 0 1 4.381 1.815 6.202 6.202 0 0 1 1.815 4.382 6.19 6.19 0 0 1-3.825 5.725 6.205 6.205 0 0 1-2.371.471Z" fill="#FCECCB"/><path d="M852.518 164.841h-44.137a6.196 6.196 0 0 1 0-12.394h44.137a6.206 6.206 0 0 1 4.381 1.815 6.206 6.206 0 0 1 1.815 4.382 6.202 6.202 0 0 1-1.815 4.382 6.204 6.204 0 0 1-4.381 1.815Z" fill="#DCEDE1"/><path d="M1061.6 478.417H708.286l-1.651 15.153h353.325l1.64-15.153Z" fill="#0A273D"/><path d="M993.86 354.717c10.18 0 18.43-8.251 18.43-18.429 0-10.178-8.25-18.43-18.43-18.43-10.178 0-18.43 8.252-18.43 18.43 0 10.178 8.252 18.429 18.43 18.429Z" fill="#E83452"/><path d="m531.854 607.676 4.58-73.955a.988.988 0 0 1 .741-.886l23.37-5.726a68.346 68.346 0 0 0 27.137-13.642l16.733-13.845a51.778 51.778 0 0 1 52.184-8.216l68.337 30.308c3.83 1.522 6.467 4.596 7.237 8.434.676 3.363-.262 6.785-2.508 8.975l-.181.158a11.69 11.69 0 0 1-9.727 2.629l-6.891-1.496c-.416 1.988-1.451 4.317-4.506 6.352-3.657 2.432-8.292 3.024-12.73 1.617l-20.914-5.579a32.903 32.903 0 0 0-32.621 9.388l-13.884 14.891a61.625 61.625 0 0 1-24.029 15.882l-71.029 25.702a.976.976 0 0 1-1.315-.978" fill="#F2A068"/><path d="m638.435 514.174 92.75-6.415a11.387 11.387 0 0 0 6.909-19.702 11.384 11.384 0 0 0-8.037-3.032l-92.931 2.824a13.185 13.185 0 0 0-12.649 13.566 13.183 13.183 0 0 0 13.438 12.785c.152 0 .357-.016.507-.026" fill="#F2A068"/><path d="M1040.14 612.418c0-35.547-29.15-64.361-65.109-64.361-35.963 0-65.113 28.814-65.113 64.361v.936h130.222v-.936Z" fill="#0A273D"/><path d="M1015.3 592.614a12.775 12.775 0 0 0 1.87-4.789c.3-1.706.25-3.454-.14-5.141a12.855 12.855 0 0 0-2.14-4.676 12.854 12.854 0 0 0-3.8-3.469l-18.292-10.953a26.196 26.196 0 0 0-13.755-3.717l-21.806.263c-1.895.031-2.177-2.216-.583-3.252 10.016-6.51 34.28-5.574 49.296-4.233 1.59.141 3.19-.055 4.7-.576a11.396 11.396 0 0 0 4.06-2.447 11.443 11.443 0 0 0 2.7-3.89c.61-1.473.91-3.059.87-4.655a11.656 11.656 0 0 0-11.24-11.381c-12.097-.334-32.251-.263-50.35 2.997-23.734 4.275-49.021 16.519-50.432 17.128l-.127.061-81.631 41.959-92.787 48.112 75.335 44.012 93.697-64.887a9.097 9.097 0 0 1 6.309-1.548 94.22 94.22 0 0 0 51.632-8.15l4.795-2.243a7.727 7.727 0 0 1 5.784-.308l24.261 8.35c2.633.907 5.504.842 8.094-.183a11.671 11.671 0 0 0 6.03-5.404c.11-.202.21-.404.32-.607 1.02-1.929 1.4-4.13 1.1-6.29a10.418 10.418 0 0 0-2.8-5.74l.54.026a9.602 9.602 0 0 0 8.49-4.372v.003Z" fill="#F2A068"/><path d="m202.699 799.913 7.04-67.382a51.487 51.487 0 0 1-38.16-17.446 51.485 51.485 0 0 1-12.509-40.051l27.981-238.22c7.306-62.203 60.299-108.91 122.928-108.345l210.384 1.895a122.665 122.665 0 0 1 114.91 82.828l80.64 234.905 111.058-57.616 41.56 121.117-92.345 66.489a115.848 115.848 0 0 1-67.687 21.834l-505.8-.008Z" fill="#E83452"/><path d="M600.998 129.64c-7.062-34.385-31.152-60.693-62.866-68.665-41.912-10.54-96.057 14.641-110.13 58.554l-22.699 70.829c-7.753 24.2 6.31 50.94 17.769 73.35 11.46 22.41 31.286 41.087 54.374 46.889a78.551 78.551 0 0 0 19.161 2.385c35.005 0 67.111-23.749 79.031-60.939l22.697-73.311a97.197 97.197 0 0 0 2.663-49.092Z" fill="#F2A068"/><path d="M514.432 224.917c-.826 7.992-.879 54.208-.702 101.168a106.8 106.8 0 0 1-31.448 76.038 106.78 106.78 0 0 1-76.18 31.103c-58.183-.458-105.288-47.415-105.932-105.595a3530.93 3530.93 0 0 0-.044-4.044 107.072 107.072 0 0 1 17.42-59.734c22.16-33.941 60.244-92.264 85.906-131.565a190.162 190.162 0 0 1 69.701-63.794l2.826-1.506c39.244-20.935 87.984-8.184 111.947 29.285 1.501 2.366 2.811 4.582 3.862 6.572.623 1.183 1.225 2.869 1.806 4.938a50.005 50.005 0 0 1-9.838 45.656 50.003 50.003 0 0 1-43.255 17.614c-6.341-.628-11.355-1.385-13.787-2.287a29.017 29.017 0 0 0-38.447 33.325 29.014 29.014 0 0 0 26.167 22.823l-.002.003Z" fill="#FFBE3C"/><path d="M599.044 542.239a44.554 44.554 0 0 0-11.779-33.615 44.554 44.554 0 0 0-32.651-14.234H277.313a44.542 44.542 0 0 0-44.223 39.212c-4.206 34.848-10.348 85.97-14.893 123.704a44.548 44.548 0 0 0 25.953 45.947 44.55 44.55 0 0 0 18.27 3.921h282.981a44.547 44.547 0 0 0 44.431-41.231c2.629-35.416 6.449-86.496 9.223-123.704h-.011Z" fill="#0A273D"/><path d="M423.454 633.966h-33.458L373.791 800h33.447l16.216-166.034Z" fill="#0A273D"/></svg>