<svg class="sinch-icon" xmlns="http://www.w3.org/2000/svg" viewBox="0 0 576 800" fill="none" aria-hidden="true" focusable="false"><path d="M56.703 674.418a54.944 54.944 0 0 1-53.105-68.862L36.888 479.8a54.883 54.883 0 0 1 66.571-37.292 54.876 54.876 0 0 1 39.496 65.287l-33.289 125.756a54.878 54.878 0 0 1-52.963 40.867Z" fill="#F2A068"/><path d="m37.903 476.25-15.14 56.766 107.638 14.933 42.801-154.575h-27.409a111.669 111.669 0 0 0-107.89 82.876Z" fill="#FFBE3C"/><path d="m192.51 265.541 27.186 105.116a18.091 18.091 0 0 1-17.437 22.717l4.756 9.622 62.679 6.674 55.23-16.312c-13.919 0-27.52-8.449-27.52-24.65 0-11.287 10.193-19.879 23.033-23.922" fill="#F2A068"/><path d="M395.704 393.374H145.698a64.347 64.347 0 0 0-63.082 51.588 64.347 64.347 0 0 0 .846 29.148l72.175 273.784 100.25 30.214 243.411.967-103.594-385.701Z" fill="#FFBE3C"/><path d="M157.635 393.374a100.41 100.41 0 0 0 100.4 99.147 100.41 100.41 0 0 0 100.4-99.147h-200.8Z" fill="#F2A068"/><path d="M260.595 268.426c74.12 0 134.205-60.086 134.205-134.205C394.8 60.101 334.715.016 260.595.016 186.476.016 126.39 60.1 126.39 134.22c0 74.119 60.086 134.205 134.205 134.205Z" fill="#842306"/><path d="M118.131 132.541c34.136 0 61.808-27.673 61.808-61.808 0-34.136-27.672-61.808-61.808-61.808-34.136 0-61.808 27.672-61.808 61.808 0 34.135 27.672 61.808 61.808 61.808Z" fill="#842306"/><path d="m171.49 185.281 21.622 82.321c15.852 60.54 65.565 94.527 125.803 77.581 63.521-17.866 113.836-61.221 93.291-135.188L388 117.877a113.333 113.333 0 0 0-91.278-83.002s15.425 124.377-125.232 150.406Z" fill="#F2A068"/><path d="M422.066 131.875a32.572 32.572 0 0 0-49.918-18.413 32.58 32.58 0 0 0-12.349 16.241l-25.031 6.769a33.756 33.756 0 0 0-5.041-3.583 32.911 32.911 0 0 0-49.303 31.563 32.905 32.905 0 0 0 32.28 29.793 32.907 32.907 0 0 0 33.138-28.835 32.91 32.91 0 0 0-5.621-22.835l17.977-4.755a32.563 32.563 0 0 0 19.336 32.459 32.562 32.562 0 0 0 13.05 2.764 32.598 32.598 0 0 0 25.913-12.757 32.603 32.603 0 0 0 5.617-28.332l-.048-.079Zm-102.072 53.676a25.284 25.284 0 1 1 17.833-30.991 25.367 25.367 0 0 1-17.833 30.991Zm77.168-20.798a25.268 25.268 0 1 1 17.85-30.976 25.13 25.13 0 0 1-8.973 26.64 25.14 25.14 0 0 1-8.877 4.336Z" fill="#1E2225"/><path d="M357.69 248.12a62.628 62.628 0 0 1-27.091-5.961 3.663 3.663 0 0 1-1.328-4.684 3.658 3.658 0 0 1 4.498-1.863 55.989 55.989 0 0 0 36.635 3.583c9.86-2.743 17.834-9.337 25.126-20.767a3.66 3.66 0 0 1 4.945-.955 3.66 3.66 0 0 1 1.221 4.887c-8.322 13.046-17.643 20.608-29.327 23.873a55.477 55.477 0 0 1-14.679 1.887Z" fill="#842306"/><path d="M520.461 797.971a54.913 54.913 0 0 1-53.026-40.883l-65.311-247.089a54.886 54.886 0 0 1 106.115-28.091l65.311 247.09a54.92 54.92 0 0 1-9.598 47.515 54.926 54.926 0 0 1-43.491 21.41v.048Z" fill="#F2A068"/><path d="M388.38 393.374h-17.976l30.309 139.642h121.111l-11.461-44.766a125.848 125.848 0 0 0-121.983-94.876Z" fill="#FFBE3C"/><path d="m170.221 350.065-22.066-100.836a12.11 12.11 0 0 1 18.042-13.035 12.116 12.116 0 0 1 5.499 7.344l26.378 99.869a14.33 14.33 0 0 1-5.17 15.061 14.328 14.328 0 0 1-20.084-2.714 14.311 14.311 0 0 1-2.456-5.023c-.048-.238-.095-.396-.143-.666Z" fill="#F2A068"/><path d="m283.613 321.484-65.946 35.382a17.192 17.192 0 0 1-15.033.608 17.197 17.197 0 0 1-9.76-11.451l-39.409-152.625a17.218 17.218 0 0 1 8.26-19.324l64.788-36.159a17.2 17.2 0 0 1 15.114-.815 17.211 17.211 0 0 1 9.916 11.436l40.55 153.45a17.196 17.196 0 0 1-8.48 19.498Z" fill="#0A273D"/><path d="M177.497 303.904a24.591 24.591 0 0 1-1.838-11.763 28.071 28.071 0 0 1 2.79-9.876 23.95 23.95 0 0 1 7.767-9.115 24.61 24.61 0 0 1 3.171-1.823l1.093-.523 2.22-1.03c5.881-2.79 11.81-5.485 17.738-8.18 5.929-2.695 11.842-5.406 17.834-7.926 5.992-2.521 12.016-5.057 18.119-7.356a13.127 13.127 0 0 1 11.097 23.779c-5.691 3.17-11.477 6.214-17.279 9.178-5.802 2.964-11.683 5.754-17.548 8.576-5.866 2.822-11.747 5.628-17.66 8.354l-2.219 1.031-1.11.507c.374-.157.73-.353 1.062-.587a4.384 4.384 0 0 0 1.586-1.696c.076-.174.108-.365.095-.555a4.519 4.519 0 0 0-.539-2.171 14.328 14.328 0 0 1-26.347 11.271l-.032-.095Z" fill="#F2A068"/><path d="M266.27 294.202c-6.991 3.979-14.14 7.625-21.337 11.097a76.891 76.891 0 0 0-9.21 4.977 24.788 24.788 0 0 0-5.723 4.978 15.87 15.87 0 0 0-2.885 5.374 23.927 23.927 0 0 0-.856 7.276 85.597 85.597 0 0 0 3.313 19.023l.079.349a14.3 14.3 0 0 1-4.422 15.274 14.314 14.314 0 0 1-20.165-1.728 14.323 14.323 0 0 1-2.694-4.891 77.228 77.228 0 0 1-5.517-27.948 52.75 52.75 0 0 1 2.6-16.359 42.916 42.916 0 0 1 8.972-15.282 50.509 50.509 0 0 1 12.825-10.05c4.343-2.489 8.814-4.217 12.222-5.77 7.292-3.171 14.631-6.341 22.193-9.115a12.675 12.675 0 0 1 15.311 6.738 12.682 12.682 0 0 1-4.69 16.057h-.016Z" fill="#F2A068"/><path d="m169.952 300.749 72.635-21.797-52.899 66.088-19.736-44.291Z" fill="#F2A068"/><path d="M231.332 375.429 126.707 649.15A65.392 65.392 0 0 1 4.613 602.481a68.174 68.174 0 0 1 6.61-12.777l162.105-244.125a32.816 32.816 0 0 1 58.004 29.866v-.016Z" fill="#F2A068"/><path d="M215.115 197.044c1.585 6.832-1.474 13.617-7.023 15.107-5.548 1.49-11.508-2.917-13.094-9.86-1.585-6.944 1.697-13.57 7.245-14.965 5.548-1.395 11.239 2.901 12.872 9.718Z" fill="#FFBE3C"/><path d="M169.365 189.403c.92 2.885 0 5.849-2.203 6.594-2.204.745-4.756-1.03-5.58-3.979-.824-2.948.143-5.849 2.298-6.547 2.156-.697 4.566 1.063 5.485 3.932Z" fill="#F1F1F1"/><path d="M199.279 474.157a3.608 3.608 0 0 1-1.142-.19 3.643 3.643 0 0 1-2.123-1.823 3.656 3.656 0 0 1-.207-2.79l34.051-103.674c2.6-9.02.475-14.79.444-14.854a3.677 3.677 0 0 1 2.076-4.755 3.622 3.622 0 0 1 2.801.007 3.603 3.603 0 0 1 1.955 2.006c.127.317 3.17 7.926-.254 19.72l-34.098 103.801a3.66 3.66 0 0 1-3.503 2.552Z" fill="#842306"/><path d="M161.36 363.714c10.716-14.869 3.852-36.587 3.852-36.587l22.384 22.716-26.236 13.871Zm77.391-156.05-8.608 12.318-8.782 12.222-8.862 12.158-4.549 6.103-2.156 2.965c-.539.808-1.142 1.585-1.585 2.394a49.346 49.346 0 0 0-7.514 21.59 48.359 48.359 0 0 0 .237 11.525c.105.958.258 1.911.46 2.853l.27 1.427.412 1.791 1.68 7.324a14.34 14.34 0 1 1-27.868 6.785l-1.823-7.308-.46-1.871-.491-2.251c-.349-1.506-.587-3.027-.825-4.549a75.795 75.795 0 0 1-.443-18.468 76.784 76.784 0 0 1 12.301-34.526c.824-1.3 1.775-2.521 2.663-3.773.888-1.253 1.585-2.029 2.346-3.06l4.597-5.96 9.21-11.889 9.306-11.826 9.4-11.747a13.19 13.19 0 0 1 21.084 15.853v-.08ZM523.79 798.24H243.062a32.274 32.274 0 0 1-4.422-64.281l278.096-38.441a51.597 51.597 0 0 1 57.409 44.15 51.597 51.597 0 0 1-43.285 58.065 56.304 56.304 0 0 1-7.07.507Z" fill="#F2A068"/><path d="m306.313 796.386-28.867-66.58a1.002 1.002 0 0 0-.983-.57l-23.429 2.52a67.118 67.118 0 0 1-29.549-3.519l-20.006-7.181a50.73 50.73 0 0 0-50.806 9.828l-52.836 50.633a11.213 11.213 0 0 0-3.868 10.177 9.669 9.669 0 0 0 5.311 7.434l.222.08c1.289.498 2.66.75 4.042.745a11.477 11.477 0 0 0 5.786-1.585l5.85-3.678a9.507 9.507 0 0 0 6.341 4.343 14.424 14.424 0 0 0 12.253-2.742l17.438-12.111a32.242 32.242 0 0 1 33.179-2.235l17.722 9.099a60.444 60.444 0 0 0 27.425 6.626h73.982a.943.943 0 0 0 .714-.301 1.002 1.002 0 0 0 .079-.983Z" fill="#F2A068"/><path d="M176.974 745.801 89.406 770.8a11.15 11.15 0 1 1-6.53-21.321l86.537-28.36a12.923 12.923 0 0 1 9.853.752 12.922 12.922 0 0 1 6.435 7.499 12.911 12.911 0 0 1-8.251 16.289l-.476.142ZM81.306 609.979c33.593 0 60.825-27.232 60.825-60.825s-27.232-60.825-60.825-60.825-60.825 27.232-60.825 60.825 27.232 60.825 60.825 60.825Z" fill="#F2A068"/></svg>