<svg class="sinch-icon" xmlns="http://www.w3.org/2000/svg" viewBox="0 0 73 131" fill="none" aria-hidden="true" focusable="false"><path d="M0 76.93C0 82.65 4.63 87.3 10.35 87.3h34.77s1.42-4.98-4.1-5.88c4.1-6.68 7.44-19.4 7.44-19.4s0 23.25 3.47 25.28H64s1.8-1.9 1.8-4.73c-.39-2.44-2.96-1.59-4.99-2.44-1.38-12.66 1.27-32.33 6.81-49.56 0-1.5 1.8-3.1 2.68-4.33 1.7-2.33 2.7-5.2 2.7-8.31 0-.67-.05-2.64-.14-3.28V.85A.85.85 0 0 0 71.6.11l-3.98 2.3-2.45 1.4c-.84.5-1.85.63-2.8.38a14.2 14.2 0 0 0-7.12 0c-.95.26-1.96.13-2.82-.37-2.77-1.9-4.45-2.85-7.3-3.56-.78-.2-1.55 0-1.16.9 0 0 1.17 2.65 1.15 4.75 0 .51.06.93 0 1.15-.64 6.3-1.06 10.08-.12 14.08.4 1.7 1.31 2.75.12 4.03 0 0-18.36 3.05-30.17 15.92C5.84 51 0 63.62 0 76.94Z" fill="#A05735"/><path d="M68.17 14.28a2.42 2.42 0 0 0-4.6-.02" fill="#A05735"/><path fill-rule="evenodd" clip-rule="evenodd" d="M62.5 14.03a3.23 3.23 0 0 1 6.17.02c.13.43-.29.6-.72.74-.44.13-.71.18-.85-.25-.2-.65-.8-.92-1.52-.92-.71 0-1.85.28-2.05.92-.13.43-.33.38-.76.25-.44-.14-.4-.33-.27-.76Z" fill="#703E29"/><path d="M57.17 14.28a2.42 2.42 0 0 0-4.6-.01" fill="#A05735"/><path fill-rule="evenodd" clip-rule="evenodd" d="M51.79 14.02a3.23 3.23 0 0 1 6.17.01c.13.44.22.6-.21.74s-1.17.19-1.3-.24c-.21-.66-.87-.88-1.58-.88-.71 0-2.04.23-2.25.88-.13.43-.08.38-.5.24-.44-.13-.47-.32-.33-.75Z" fill="#703E29"/><path d="m60.77 20.65-.94-1.01a.98.98 0 0 1 .72-1.65h1.88a.98.98 0 0 1 .72 1.65l-.94 1.01a.98.98 0 0 1-1.44 0ZM35.24 82.05c2.67.3 1.26 3.84.4 5.3h9.42c.56-2.76-.16-4.9-3.13-5.93-.41-.14-.6-.64-.36-1 1.8-2.7 3.48-6.48 6.58-17.3.46-.73.61-4.48-1.4-7.1-2.23-2.92-12.54 1.21-19.26 4.56-.33.17-.1.82.28.8 8.89-.53 5.89 12.47 2.82 20.1-.1.24.12.5.37.47.82-.09 2.28-.13 4.28.1ZM57.9 80.67c3.34.44 2.03 4.67 1.05 6.52h5.09c.15-.31 2-2.78 2-4.63s-1.7-1.57-4.84-2.37a.59.59 0 0 1-.45-.5c-.5-5.12.56-20.88 2.36-31.39-1.77 1.4-3.97 4.54-5.42 6.89-.79 1.27-1.31 2.7-1.52 4.18-1.08 7.85.1 16.66 1.16 20.83.07.26.3.44.58.47Z" fill="#703E29"/><path fill-rule="evenodd" clip-rule="evenodd" d="M15.32 82.6a3.6 3.6 0 0 0-4.97-1.04c-9.94 5-8.61 16.43.17 23.13 6.6 4.4 14.84 7.15 20.34 11.82 2.29 1.93 4.96 7.76-.46 8.17a13.93 13.93 0 0 1-4.59-.4c-1.9-.55-3.83.4-4.21 1.73-.61 2.1 2.59 3.6 2.63 3.61 3.87 1.12 9.26 0 11.26-2.16 11.73-10.8-13.27-21.45-20.53-28.43a7.35 7.35 0 0 1-.67-11.46 3.6 3.6 0 0 0 1.03-4.98Zm10.5 41.68Z" fill="#A05735"/><path d="M46.35 2.22a8.06 8.06 0 0 1 4.1 2.64c.12.16.02.38-.18.42-.75.12-1.94.41-2.65.74-.22.1-.67-.03-.74-.27l-.84-3.22a.25.25 0 0 1 .31-.31ZM70.85 2.94a6.37 6.37 0 0 0-3.42 2.17c-.13.15-.05.4.14.47.64.25 1.62.79 2.33 1.28.24.16.95-.1.98-.39l.29-3.25a.26.26 0 0 0-.32-.28Z" fill="#F5B486"/></svg>