<svg class="sinch-icon" xmlns="http://www.w3.org/2000/svg" viewBox="0 0 437 400" fill="none" aria-hidden="true" focusable="false"><path d="m284.229 94.021.95-2.111c-3.537 1.636-7.707.95-10.558-1.69-2.904-2.692-3.959-6.81-2.745-10.61 3.642-11.456 8.077-25.34 11.455-35.952 3.168-9.977 12.142-16.84 22.331-17.104 13.409-.37 31.833-.897 43.923-1.214 8.288-.211 16.365-2.692 23.439-7.127 8.13-5.068 19.058-11.984 26.554-16.682 4.751-2.956 10.928-1.478 13.884 3.431 5.807 9.661 15.151 25.129 21.011 34.895 1.425 2.376 1.848 5.227 1.214 7.972-.633 2.692-2.323 5.068-4.645 6.44a29315.67 29315.67 0 0 0-33.206 20.22c-1.426.844-2.429 2.217-2.851 3.853-4.698 17.474-20.166 29.616-37.798 29.722-4.118 0-16.049-30.989-16.049-31.728.106-4.012-1.689-7.866-4.54-10.61-2.851-2.746-6.705-4.118-10.558-3.802-5.068.422-9.45 3.854-11.192 8.764-1.584 4.434-3.643 10.083-5.438 15.203-3.114 8.764-7.126 17.158-11.878 25.076-1.056 1.795-2.164 3.59-3.114 5.227-2.534 4.223-7.497 6.071-12.037 4.54-3.114-1.056-5.543-3.537-6.546-6.758-1.003-3.167-.528-6.704 1.32-9.449l7.074-10.506Z" fill="#842306"/><path d="M139.105 301.65c3.907-2.64 9.081-1.637 11.826 2.217 2.745 3.854 2.006 9.238-1.637 12.248l-29.774 28.401-41.864.317 61.449-43.183Z" fill="#F2A068"/><path d="M121.262 314.795c21.116 0 38.221-17.58 38.221-39.277 0-21.697-17.105-39.277-38.221-39.277-21.117 0-38.221 17.58-38.221 39.277.053 21.697 17.157 39.277 38.221 39.277Z" fill="#FFBE3C"/><path d="M194.008 254.665c36.268 0 65.726-30.249 65.726-67.572 0-37.324-29.405-67.573-65.726-67.573-36.32 0-65.725 30.249-65.725 67.573 0 37.323 29.405 67.572 65.725 67.572Z" fill="#007171"/><path d="m185.351 179.966 3.959-1.056v32.625h16.049v-47.248h-12.618l-10.663 3.378 3.273 12.301Z" fill="#fff"/><path d="m1.267 371.757 17.105-36.849 2.111-4.487c3.96-8.499 10.77-15.204 19.164-19.005l1.583-.686 51.683-23.123c4.804-2.164 10.453-.264 13.092 4.435 2.64 4.698 1.426 10.664-2.745 13.884l-22.911 17.685c-1.954 1.478-.898 4.698 1.53 4.698h87.845c4.54 0 8.289 3.59 8.605 8.236.317 4.645-2.903 8.816-7.39 9.449l-67.204 9.503a76.743 76.743 0 0 0-20.166 5.807l-14.993 6.704c-4.645 2.059-8.394 5.755-10.558 10.4l-8.024 16.577c-1.478 3.167-4.54 5.015-7.76 5.015a8.591 8.591 0 0 1-3.538-.792L5.491 383.793C2.429 382.368.37 379.2.37 375.558c0-1.32.37-2.64.897-3.801Z" fill="#F2A068"/><path d="M289.719 162.967c26.66 0 48.251-22.225 48.251-49.624s-21.591-49.624-48.251-49.624c-26.659 0-48.251 22.225-48.251 49.624s21.592 49.624 48.251 49.624Z" fill="#059688"/><path d="M283.49 43.764c3.167-9.978 12.142-16.84 22.33-17.104 13.409-.37 31.834-.898 43.923-1.215 8.288-.21 16.365-2.692 23.439-7.126a6605.238 6605.238 0 0 1 26.607-16.682c4.751-2.957 10.928-1.479 13.884 3.43 5.807 9.662 15.151 25.13 21.011 34.896 1.426 2.376 1.848 5.226 1.214 7.971a10.349 10.349 0 0 1-4.645 6.441c-10.506 6.388-36.11 24.073-36.11 24.073s-.211.528-.527 1.478c-6.283 16.788-21.803 27.927-39.277 28.138-.739 0-1.478 0-2.165.053-4.117.052-8.077 1.689-11.086 4.54a2800.987 2800.987 0 0 1-12.036 11.297c-1.637 1.531-3.801 2.27-6.019 2.112a11.188 11.188 0 0 1-8.657-5.438c-1.901-3.115-2.218-6.968-.951-10.4.37-1.003.634-1.636.634-1.636s6.968-15.362 19.058-18.952c4.17-2.006 6.81-6.282 6.968-10.98 0-.687.528-8.184-4.223-12.83-2.851-2.744-6.705-4.117-10.558-3.8" fill="#842306"/><path d="M113.449 288.135h18.371v-6.652h-8.13c0-1.794 7.919-4.276 7.919-10.611 0-5.12-3.959-7.866-9.291-7.866-6.018 0-8.5 3.854-9.239 7.55l7.338 1.531c.264-1.056.634-2.112 1.584-2.112.581 0 1.056.369 1.056 1.109 0 3.959-9.608 6.757-9.608 13.936v3.115Z" fill="#E24751"/><path d="M302.02 96.028h-23.651v9.555h11.192l-5.755 5.068v6.915h5.174c1.742 0 2.798 1.056 2.798 2.27 0 1.373-1.056 2.165-2.217 2.165-1.109 0-2.006-.898-2.27-2.376l-10.4 2.323c.95 4.171 4.329 10.136 13.198 10.136 7.813 0 13.514-5.015 13.514-12.406 0-5.86-2.85-9.08-6.44-10.4l4.909-4.54v-8.71h-.052Z" fill="#0A273D"/></svg>