<svg class="sinch-icon" xmlns="http://www.w3.org/2000/svg" viewBox="0 0 411 800" fill="none" aria-hidden="true" focusable="false"><path d="m318.729 614.593 3.926 11.778 30.889-7.185-3.703-11.926-31.112 7.333Z" fill="#E83452"/><path d="M122.655 280.667v23.481H88.433l-9.407 3.037c-1.111.222-2.296.371-3.408.371-3.777 0-7.037-1.334-10.666-3.334h-9.408c-1.259 0-2.444-.518-3.333-1.333-.889-.889-1.407-2.074-1.407-3.333 0-2.593 2.074-4.667 4.592-4.667h11.185c.815 0 1.556-.37 2.149-.889a2.967 2.967 0 0 0 .888-2.148c0-1.037-.592-2-1.481-2.593l-12.074-9.481-12.593-6.297c-2.296-1.111-3.259-3.925-2.148-6.296.815-1.629 2.445-2.666 4.222-2.592.741 0 1.408.148 2.074.518l12.593 6.296c6.148 0 12.296 1.408 17.778 4.223l10.37 5.185 34.296-.148Z" fill="#FFE1CC"/><path d="m57.693 272.37 8.37 4.148-6.296 12.593a4.766 4.766 0 0 1-6.297 2.148 4.766 4.766 0 0 1-2.148-6.296l6.37-12.593Z" fill="#FFE1CC"/><path d="M274.878 622.074h-32.889v12.519h32.889v-12.519Z" fill="#E83452"/><path d="M320.137 186v12.37h-61.704s-.074-12.37 0-12.37h61.704Z" fill="#005F5F"/><path d="M274.878 395.852h-65.852v226.37h65.852v-226.37Z" fill="#A8D7E2"/><path d="M349.841 607.259 314.359 498.37c-4.296-13.259-6.518-27.185-6.518-41.111V396h-65.852v61.259c0 13.926 2.222 27.852 6.518 41.111l38.741 123.704 62.593-14.815Z" fill="#A8D7E2"/><path d="M288.063 321.778h-17.259V198.37h37.037v123.408h-19.778Z" fill="#005F5F"/><path d="M319.322 321.778h-11.481V198.37h24.666v123.408h-13.185Z" fill="#059688"/><path d="M270.803 198.37v24.667h-53.555l15.037-14.963c.889-.963 1.481-2.222 1.481-3.555a6.133 6.133 0 0 0-6.148-6.149h-2.074a16.407 16.407 0 0 1-16.444-16.444v-32.444c0-13.482 10.592-24.815 24.074-25.186 13.629-.37 24.963 10.371 25.333 24V186c-.074 6.815 5.407 12.296 12.222 12.37h.074Z" fill="#FFE1CC"/><path d="M283.322 198.37h-12.518l-15.556 13.333c-7.481 6.371-18.666 5.926-25.629-.963l-43.778 43.778c-16.741 16.741-39.408 26.074-63.037 26.074h-.222v41.186h16.666c23.63 0 46.297-9.408 63.037-26.075l6.741-6.74V396h98.741V222.889c.074-13.482-10.889-24.445-24.371-24.519h-.074Z" fill="#081B2B"/><path d="M134.952 279.777c-4 .519-8.074.815-12.148.815h-.222v41.185h12.37v-42Z" fill="#059688"/><path d="M233.766 161.333h-28.814" stroke="#E83452" stroke-width="3" stroke-miterlimit="10"/><path d="M204.952 153.111v16.445" stroke="#E83452" stroke-width="3" stroke-miterlimit="10" stroke-linecap="round"/><path d="M258.433 148.963v32.963a16.407 16.407 0 0 1-16.444-16.445v-4.148c0-2.222-1.778-4.074-4-4.074h-.074a4.14 4.14 0 0 0-4.148 4.148v8.223c-2.223 0-4.297-.815-5.852-2.371-1.556-1.555-2.445-3.629-2.371-5.852v-12.37l32.889-.074Z" fill="#081B2B"/><path d="M258.433 148.963h-49.407c0-13.63 11.037-24.667 24.667-24.667 13.629 0 24.74 10.963 24.74 24.667 0-.075 0 0 0 0Z" fill="#FFBE3C"/><path d="M258.433 140.741h-49.407v12.371h49.407v-12.371Z" fill="#FA0"/><path d="M365.396 336.222v59.63h-41.185v-59.63a88.108 88.108 0 0 0-4.593-28.074L283.026 198.37c24.592-.074 46.444 15.704 54.222 39.037l23.556 70.741a84.2 84.2 0 0 1 4.592 28.074Z" fill="#081B2B"/><path d="M365.47 383.556h-41.185v12.37h41.185v-12.37Z" fill="#059688"/><path d="M270.804 198.37v86.445c0 20.444 16.592 37.037 37.037 37.037v-12.371c-13.63 0-24.667-11.037-24.667-24.666V198.37h-12.37Z" fill="#007171"/><path d="M332.507 198.37h-24.666c0-6.814 5.555-12.37 12.37-12.37 6.815.074 12.296 5.556 12.296 12.37Z" fill="#081B2B"/><path d="M274.878 663.408v-28.815h-32.889c0 16.444-45.26 8.222-45.26 28.815h78.149Z" fill="#F2F2F2"/><path d="M262.581 675.703H209.1c-6.815 0-12.371-5.555-12.371-12.37h78.223c0 6.815-5.482 12.37-12.371 12.37Z" fill="#081B2B"/><path d="m365.396 651.037-11.852-31.851-30.889 7.185 2.815 8.222c7.037 20.593-38.222 8.222-38.222 28.815h37.407l40.741-12.371Z" fill="#F2F2F2"/><path d="m357.1 667.111-27.259 7.185c-3.704.963-7.482 1.482-11.26 1.482h-18.963c-6.814 0-12.37-5.556-12.37-12.371h26.963c3.926 0 7.852-.518 11.704-1.555l39.555-10.815c2.148 6.667-1.481 13.778-8.074 16-.074 0-.148.074-.296.074Z" fill="#081B2B"/><path d="M305.322 414.37h52.519c2.444 0 4.444 2 4.444 4.445v19.925c0 3.112-4.222 6.519-6.666 6.519h-52.371c-2.444 0-4.444-2-4.444-4.444v-19.926c.074-2.445 2.222-6.519 6.518-6.519Z" fill="#666"/><path d="M305.47 414.37h52.371c2.444 0 4.444 2 4.444 4.445v19.925c0 2.445-2 4.445-4.444 4.445H305.47c-2.444 0-4.444-2-4.444-4.445v-19.925c0-2.445 2-4.445 4.444-4.445Z" fill="#272727"/><path d="M354.063 413.186v.148c-.074.148-.148.296-.296.37.148-.148.222-.37.296-.518Z" fill="#FFE1CC"/><path d="M307.767 383.556h-98.741v12.37h98.741v-12.37Z" fill="#059688"/><path d="M217.248 178.888a1.14 1.14 0 0 0-1.111-1.111 1.14 1.14 0 0 0-1.111 1.111c0 3.186-2.519 5.852-5.704 6 .148.741.297 1.482.593 2.223 4.222-.445 7.407-4 7.333-8.223Z" fill="#F2A068"/><path d="M344.507 442.889c-.592 1.333-1.481 2.592-2.592 3.555-.889.741-2.074 1.408-3.111 1.185-1.26-.296-2.371-1.111-2.963-2.296-1.037 2.297-5.482 4.889-7.556 4-1.407-.666-2.667-1.629-3.629-2.815a4.35 4.35 0 0 1-5.482 2.815c-1.852-.592-3.63-2.815-3.63-2.815 0 .149-.074.223-.148.297-.889 2.222-3.407 3.333-5.629 2.444a4.444 4.444 0 0 1-2.741-4.074c0-.37.074-.667.148-1.037 0 0 .889-1.333 2.074-3.185 5.111-7.778 7.63-16.963 7.333-26.296l-8.666-.149s3.481-6.963 5.703-9.259c2.149-2.222 4.667-4 7.556-5.111a4.322 4.322 0 0 0 2.889-4.074v-.148h29.778c0 .222-.223 4.592-.593 9.926a118.106 118.106 0 0 1-8.741 37.037Z" fill="#FFE1CC"/></svg>