<svg class="sinch-icon" xmlns="http://www.w3.org/2000/svg" viewBox="0 0 348 400" fill="none" aria-hidden="true" focusable="false"><path d="m344.225 140.175-51.727 58.194a18.497 18.497 0 1 1-27.654-24.576c.332-.389.721-.778 1.076-1.145l56.443-53.604a15.226 15.226 0 0 1 21.009.149 15.225 15.225 0 0 1 .853 20.993v-.011ZM203.994 332.019 136.001 400h61.239a13.168 13.168 0 0 0 9.398-3.892l63.986-63.986-66.63-.103Zm-82.793-65.131 25.812-78.249a14.776 14.776 0 0 1 25.458-4.762 14.778 14.778 0 0 1 3.353 9.741l-1.923 82.416a27.05 27.05 0 0 1-8.234 19.201 27.038 27.038 0 0 1-44.14-9.996 27.033 27.033 0 0 1-1.677-10.522 27.642 27.642 0 0 1 1.351-7.829Z" fill="#894915"/><path d="m305.319 86.65-5.838-4.67v1.855a15.42 15.42 0 0 0-3.377-.378H205.23a18.385 18.385 0 0 0-17.765 15.876l-26.968 227.42a14.574 14.574 0 0 0 1.316 8.15l-1.854.218 5.918 4.716a14.317 14.317 0 0 0 8.596 2.747h90.76a18.316 18.316 0 0 0 17.742-15.831l27.185-227.42a14 14 0 0 0-4.841-12.683Z" fill="#666"/><path d="M259.509 338.005h-90.794a13.734 13.734 0 0 1-13.942-15.83l26.968-227.42a18.384 18.384 0 0 1 17.766-15.877h90.954a13.792 13.792 0 0 1 13.976 15.877l-27.185 227.42a18.316 18.316 0 0 1-17.743 15.83Z" fill="#CCC"/><path d="M225.982 90.634a2.295 2.295 0 0 0-.555-1.815 2.29 2.29 0 0 0-1.734-.772 2.985 2.985 0 0 0-2.884 2.587 2.295 2.295 0 0 0 .555 1.815 2.29 2.29 0 0 0 1.734.772 2.985 2.985 0 0 0 2.884-2.587Z" fill="#fff"/><path d="M254.439 93.496h-22.241a2.863 2.863 0 0 1-2.024-4.886 2.863 2.863 0 0 1 2.024-.838h22.241a2.86 2.86 0 0 1 0 5.724Z" fill="#F1F1F1"/><path d="m313.812 287.091-26.098 25.4a16.542 16.542 0 0 1-28.314-10.786 16.538 16.538 0 0 1 4.116-11.752l23.339-27.896a18.424 18.424 0 0 1 32.48 10.184 18.423 18.423 0 0 1-4.218 13.454 18.92 18.92 0 0 1-1.305 1.396Z" fill="#894915"/><path d="m316.227 250.485-26.384 25.011a16.527 16.527 0 0 1-22.852.06 16.526 16.526 0 0 1-1.071-22.827l23.682-27.621a18.439 18.439 0 0 1 27.964 24.038c-.435.389-.892.904-1.339 1.339Z" fill="#894915"/><path d="m317.566 212.608-26.395 25.034a16.53 16.53 0 0 1-23.935-22.756l23.66-27.632a18.429 18.429 0 0 1 27.987 23.969c-.413.486-.852.949-1.317 1.385ZM255.812 342.47l-54.497.125a11.712 11.712 0 0 1-11.309-8.539c-9.318-33.733-30.288-65.314-30.505-65.634l-.801-1.145-1.351.492a52.2 52.2 0 0 0-14.022 8.265c-9.341-10.153-16.689-16.861-16.769-16.93l-1.855-1.694-1.053 2.289c-.446.962-10.851 24.038-3.022 61.938 4.052 18.257-1.877 35.026-18.108 51.257l-14.514 14.457a7.408 7.408 0 0 0 1.122 11.404 7.406 7.406 0 0 0 4.12 1.245h70.683l14.022-14.011 33.962 4.796 48.338-48.327-4.441.012Z" fill="#894915"/></svg>