<svg class="sinch-icon" xmlns="http://www.w3.org/2000/svg" viewBox="0 0 662 800" fill="none" aria-hidden="true" focusable="false"><path d="M359.429 665.259H347.8c-42.963 0-84.148-.074-83.334-.148 47.63-6.741 72.889-32.666 83.334-46.666V475.037h11.629v143.408c10.371 13.925 35.704 39.851 83.334 46.666.815.148-40.371.148-83.334.148Z" fill="#081B2B"/><path d="M353.578 680.741c52.855 0 95.703-7.595 95.703-16.963 0-9.368-42.848-16.963-95.703-16.963-52.856 0-95.704 7.595-95.704 16.963 0 9.368 42.848 16.963 95.704 16.963Zm81.333-351.556H282.615v189.333h72.074c44.296 0 80.222-35.926 80.222-80.222V329.185Z" fill="#081B2B"/><path d="m118.17 583.926 29.704 16.593 16-28.593-31.185-17.407-12.296 26.148a31.669 31.669 0 0 1-2.223 3.259Z" fill="#894915"/><path d="m127.578 565.186-7.259 15.333c-.593 1.185-1.334 2.296-2.149 3.333l29.704 16.593 10.222-18.222-30.518-17.037Z" fill="#FFE1CC"/><path d="M115.874 573.333c-4.741 8.519-11.037 13.852-20.518 16.075-6.223 1.481-12.741 1.111-18.815-.889l-8.963-2.815c-4.37-1.408-9.111.518-11.334 4.518-2.592 4.667-.963 10.593 3.704 13.186l21.037 11.777c7.407 4.074 15.852 5.63 24.222 4.519.815-.074 1.482.444 1.63 1.259.074.296 0 .667-.222.889L104.318 626c-.518.889-.222 2 .667 2.519 0 0 .074 0 .074.074l18.963 10.592c.889.519 2 .223 2.519-.666 0 0 0-.074.074-.074l25.185-45.037-35.926-20.075Z" fill="#005F5F"/><path d="M399.948 288a20.225 20.225 0 0 0-12.592-18.74c-5.112-2.074-10.593-3.556-16.223-4.223-3.185-.37-5.629-3.111-5.629-6.296v-8.148a2.655 2.655 0 0 0-2.667-2.667h-28.741c.889.889.963 3.037.519 5.408-1.111 6.444-5.926 11.629-12.222 13.259a63.092 63.092 0 0 0-23.482 12.222c0 .667.074 1.333.074 2.074.222 6.148.222 12.297.297 18.445.074 6.148.222 12.444.148 18.592 0 5.778-.148 11.482-.297 17.26l2-3.334v82.889h98.741v-84.667l.074-42.074Z" fill="#059688"/><path d="M375.281 210.815h-32.963v-32.889c18.149 0 32.889 10.593 32.889 28.815l.074 4.074Z" fill="#FFE1CC"/><path d="M342.318 177.926v49.408h-41.185l6.371-12.815c1.185-2.445 1.852-5.111 1.852-7.778.074-18.222 14.814-28.815 32.962-28.815Z" fill="#F2F2F2"/><path d="M342.466 252c13.63 0 24.667-11.037 24.667-24.667v-24.666c0-13.63-11.037-24.667-24.667-24.667-13.629 0-24.666 11.037-24.666 24.667v24.666c0 13.63 11.037 24.667 24.666 24.667Z" fill="#894915"/><path d="M383.503 227.259h-37.037a13.366 13.366 0 0 0 5.852-7.481c2-6.074-2.741-12.297-9.111-12.297-4.963 0-8.963-4-8.963-8.963v-19.851c53.408-8.963 49.259 48.592 49.259 48.592Z" fill="#F2F2F2"/><path d="M338.244 231.408c-3.407 3.407-8.963 3.407-12.37 0" stroke="#0A273D" stroke-width="3" stroke-linecap="round" stroke-linejoin="round"/><path d="M369.726 227.259s-5.778 12.593-6.815 20.593h-13.778v-20.593h20.593Z" fill="#894915"/><path d="M399.948 414.741v24.667c0 27.259-22.074 49.333-49.333 49.333H212.244l-48.592 84.148-64.149-37.037 56.519-97.778c8.37-14.444 23.778-23.407 40.518-23.407l203.408.074Z" fill="#12364C"/><path d="M250.689 642.815h34.074V610h-35.778l2 28.815c.074 1.333 0 2.666-.296 4Z" fill="#894915"/><path d="m249.8 621.926 1.185 16.963c.074 1.334 0 2.667-.296 3.926h34.074v-20.889H249.8Z" fill="#FFE1CC"/><path d="M243.578 634.667c0 9.704-2.889 17.481-10.074 24-4.741 4.296-10.593 7.259-16.889 8.37l-9.185 1.926c-4.519.963-7.704 4.889-7.704 9.482 0 5.333 4.37 9.703 9.704 9.703h24.148a39.484 39.484 0 0 0 23.333-7.851c.667-.445 1.556-.371 2 .296.222.222.297.592.297.889v4.741c0 1.037.888 1.925 1.925 1.925h21.778c1.037 0 1.926-.888 1.926-1.925v-51.556h-41.259Z" fill="#005F5F"/><path d="M284.763 482.445h-74.074V610h74.074V482.445Z" fill="#12364C"/><path d="M298.911 278.815a65.685 65.685 0 0 0-13.407 15.555l-41.63 68.741 14.074 16.445c10.296 0 14.445 0 18.889-7.704l22.296-36.741a396.615 396.615 0 0 0-.222-56.296Z" fill="#059688"/><path d="M268.837 262.889c0 6-4.889 10.889-10.889 10.889-6 0-10.889-4.889-10.889-10.889V248.37c0-2 1.63-3.629 3.63-3.629h14.518c2 0 3.63 1.629 3.63 3.629.074 1.926-1.482 3.556-3.482 3.63h-11.037v.593c1.186-.371 2.371-.593 3.63-.593 6 0 10.889 4.815 10.889 10.889 0-.074 0 0 0 0Z" fill="#894915"/><path d="M250.096 226.741h19.408c1.481 0 2.74.963 3.185 2.371l11.704 36.074c.666 1.777-.297 3.777-2.149 4.37-.37.148-.74.222-1.037.222H261.8c-1.481 0-2.741-.963-3.185-2.37l-11.704-36.074a3.564 3.564 0 0 1 2.148-4.445c.371-.074.667-.148 1.037-.148Z" fill="#666"/><path d="M249.504 228h19.407c1.481 0 2.741.963 3.185 2.37l11.704 36.074c.667 1.778-.296 3.778-2.148 4.371a2.914 2.914 0 0 1-1.037.222h-19.408c-1.481 0-2.74-.963-3.185-2.37l-11.704-36.074a3.563 3.563 0 0 1 2.149-4.445c.37-.074.666-.148 1.037-.148Z" fill="#272727"/><path d="m284.689 262.296-8.223 11.926c-1.259 1.852-3.111 3.334-5.259 4.074l1.63 38.963h-25.111l1.703-39.852v-8.148c0-3.926 1.408-7.703 3.926-10.74l6.371-7.63c1.926-2.296 3.703-4.667 5.481-7.111l7.778-11.185c1.111-1.63 3.333-2.074 4.963-.889h.074c1.63 1.111 2.074 3.333.889 4.963v.074l-1.482 2.074c1.26-.815 2.889-.815 4.074.074 1.63 1.111 2.074 3.333.889 4.963v.074l-2.666 3.778a3.824 3.824 0 0 1 4.148 0 3.617 3.617 0 0 1 1.555 2.963c0 .74-.222 1.481-.666 2.074l-2.445 3.481 1.482 1.037c1.629 1.111 2.074 3.334.889 5.037Zm-3.63-27.185c-.074 0-.074.074-.148.074l-.074-.074h.222Z" fill="#894915"/><path d="M281.059 235.111c-.074 0-.074.074-.148.074l-.074-.074h.222Z" fill="#894915"/><path d="M276.541 365.63c0 7.704-7.408 13.926-16.445 13.926-9.037 0-16.444-6.222-16.444-13.926l2.222-52h28.519l2.148 52Zm70.963 49.852 75.185-22.741c7.333-2.296 11.037-11.185 8.296-19.852-2.741-8.667-10.889-13.778-18.222-11.481l-75.111 26.963 9.852 27.111Z" fill="#059688"/><path d="M274.689 415.481h72.814v-20l-33.481 2.963a51.885 51.885 0 0 0-16.296 4.223l-2.889 1.259c-3.926 1.704-8 2.963-12.222 3.704l-8.075 1.407c-1.555.222-2.74 1.407-3.037 2.963v.074c-.148 1.778 1.186 3.259 2.889 3.407h.297Z" fill="#894915"/><path d="M117.282 81.852h93.185c11.111 0 20.074 8.963 20.074 20.074v98.296H117.282c-11.112 0-20.075-8.963-20.075-20.074V102c-.074-11.11 8.889-20.074 20-20.148h.075Z" fill="#F2F2F2"/><path d="M139.133 149.408a8.297 8.297 0 1 0-.001-16.593 8.297 8.297 0 0 0 .001 16.593Zm24.741 0a8.297 8.297 0 1 0-.001-16.593 8.297 8.297 0 0 0 .001 16.593Zm32.935-6.967a8.297 8.297 0 1 0-16.379-2.659 8.297 8.297 0 0 0 16.379 2.659Z" fill="#007171"/><path d="M414.911 303.185c-1.852-6-7.703-17.185-13.185-23.407-16.667-19.037-31.926-7.334-29.926 4.518 2.963 17.704 17.556 49.778 17.556 49.778a16960.98 16960.98 0 0 0 10.963 35.111c2.889 8.963 18.592 12.593 26.444 13.926 2.593.445 4.963-1.555 5.037-4.148.37-15.556-9.259-50.593-16.889-75.778Z" fill="#059688"/></svg>