<svg class="sinch-icon" xmlns="http://www.w3.org/2000/svg" viewBox="0 0 591 400" fill="none" aria-hidden="true" focusable="false"><path d="M237.016 237.031c6.56-4.316 15.537-2.763 20.199 3.625 4.661 6.388 3.452 15.365-2.763 20.198l-50.755 47.13-71.299.518 104.618-71.471Z" fill="#842306"/><path d="m2.23 353.043 29.175-61.114 3.626-7.423c6.733-13.984 18.3-25.205 32.628-31.42l2.59-1.209 88.045-38.325c8.286-3.625 17.781-.345 22.27 7.251 4.488 7.768 2.417 17.609-4.661 22.961l-39.016 29.175c-3.28 2.417-1.554 7.769 2.589 7.769h149.677c7.768 0 14.156 5.869 14.674 13.638.518 7.769-5.007 14.502-12.603 15.71l-114.458 15.71a124.14 124.14 0 0 0-34.355 9.668l-25.55 11.049c-7.941 3.452-14.329 9.495-17.954 17.263L85.44 391.368c-2.59 5.179-7.769 8.287-13.293 8.287-2.072 0-4.144-.346-6.042-1.381L9.308 373.069c-5.18-2.417-8.805-7.596-8.632-13.639 0-2.244.69-4.316 1.554-6.387Z" fill="#894915"/><path d="M567.271 0H214.919c-12.43 0-22.616 10.186-22.616 22.615v227.363c0 2.072 1.727 3.798 3.798 3.798h371.17c12.43 0 22.615-10.185 22.615-22.615V22.615C590.059 10.185 579.873 0 567.271 0Z" fill="#fff"/><path d="M466.969 98.748c-2.245-18.817-17.609-34.182-36.254-36.599-15.192-2.071-30.384 4.316-39.534 16.573-9.15-12.257-24.169-18.472-39.534-16.573-18.645 2.417-34.01 17.782-36.254 36.6-1.554 12.084 2.072 23.823 9.841 32.8h-.173l56.107 56.107c2.762 2.763 6.215 4.144 9.84 4.144 3.626 0 7.078-1.381 9.841-4.144l53.517-53.517 2.59-2.59h-.173c8.114-8.804 11.567-20.716 10.186-32.8Z" fill="#E83452"/></svg>