<svg class="sinch-icon" xmlns="http://www.w3.org/2000/svg" viewBox="0 0 784 800" fill="none" aria-hidden="true" focusable="false"><path d="m257.14 217.121-16.33 2.003c-1.78.22-3.583.163-5.345-.171a40.994 40.994 0 0 1-48.794 20.984 17.212 17.212 0 0 1-4.043 4.111l-4.365 3.145a17.846 17.846 0 0 1-5.346 20.947l-18.311 14.499a14.231 14.231 0 0 1-9.845 3.033l-9.101 25.534-4.682 13.116 25.327 4.681 9.893 42.937 5.852 25.353a80.787 80.787 0 0 1 1.992 14.809l100.724-28.694a60.988 60.988 0 0 0-3.025-15.32 59.57 59.57 0 0 0-1.803-4.761l-4.156-9.624a67.584 67.584 0 0 1 15.823-76.106l7.729-7.243h-32.447l.253-53.233Z" fill="#A8D7E2"/><path d="M310.065 211.358Zm-17.211 55.701-3.508 3.288 3.508-3.288Z" fill="#6F3F18"/><path d="M534.848 191.06a1.775 1.775 0 1 0-2.895-2.049 9.495 9.495 0 0 1-2.443 2.165l3.764 1.566a11.19 11.19 0 0 0 1.574-1.682Zm-25.595-.672c.104.167 1.942 3.017 6.17 4.81-1.356-1.817-3.645-4.307-6.084-6.802a1.775 1.775 0 0 0-.086 1.992Z" fill="#272727"/><path d="M522.71 196.631a17.037 17.037 0 0 0 3.016-.266 15.247 15.247 0 0 0 7.549-3.625l-3.765-1.566c-1.587 1.014-3.972 1.987-7.225 1.898h-.409c-6.822-.368-9.495-4.365-9.616-4.555a1.773 1.773 0 0 0-2.435-.56 1.756 1.756 0 0 0-.486.451c2.44 2.499 4.728 4.985 6.085 6.802a18.423 18.423 0 0 0 6.264 1.404c.346.008.687.017 1.022.017Z" fill="#272727"/><path d="m721.331 727.26-7.213-1.521a19.247 19.247 0 0 1-16.73-18.736l-5.209-289.587-.168-9.316-.051-2.778-115.623-25.799 19.688 42.576 1.762 3.796a103.408 103.408 0 0 1 9.421 47.5l-4.124 99.154 16.674-78.901a6.57 6.57 0 0 1 7.146-5.172 6.572 6.572 0 0 1 5.859 6.594l-2.447 257.813h89.34a12.867 12.867 0 0 0 1.681-25.623h-.006ZM457.682 200.818a7.612 7.612 0 0 0 7.071-10.465 7.62 7.62 0 0 0-3.178-3.7 8.021 8.021 0 0 1-7.497 4.264 7.56 7.56 0 0 1-.795-.094 37.732 37.732 0 0 1-1.347 3.224l-1.141 2.392a7.622 7.622 0 0 0 6.887 4.379Z" fill="#007171"/><path d="m486.433 377.03.119-144.176.037-44.846.012-15.504H464.2l-1.777 11.601c-.016.093-.039.184-.057.277a9.98 9.98 0 0 1 4.954 11.471 9.984 9.984 0 0 1-5.73 6.545 9.982 9.982 0 0 1-12.025-3.396l-6.669 13.969a28.244 28.244 0 0 0 .932 26.128l1.507 2.652H402.83a18.531 18.531 0 0 1-11.665 10.924l-10.747 3.466 9.095 13.547a16.705 16.705 0 0 1 2.663 11.668 16.703 16.703 0 0 1-5.829 10.453 15.269 15.269 0 0 1-8.38 3.488 53.72 53.72 0 0 1 1.194 38.388l-10.318 29.697a53.88 53.88 0 0 0-1.396 4.698 54.856 54.856 0 0 0-.783 22.956l105.74-2.131 14.32-.29c-.043-.822-.064-1.647-.098-2.471a232.44 232.44 0 0 1-.193-9.114Z" fill="#007171"/><path d="m521.521 719.755-1.525-14.386-3.299-31.125-22.527-212.545-6.527-61.581a215.575 215.575 0 0 1-.91-11.497l-14.32.29-105.741 2.132a54.765 54.765 0 0 0 3.757 12.389l8.2 18.685a194.574 194.574 0 0 1 16.342 73.347l3.763 150.912a13.184 13.184 0 0 1-3.738 9.53 13.165 13.165 0 0 1-9.433 3.977h-4.921l-12.979 71.99h67.536l-1.432-23.62-11.043-182.11a7.064 7.064 0 0 1 14.071-1.192l19.877 182.54 3.207 29.458c.254 2.339.415 4.684.499 7.031h68.505a67.518 67.518 0 0 1-7.362-24.225Z" fill="#CCC"/><path d="M323.572 200.524a1.787 1.787 0 0 0-2.273 1.05c-.078.211-2.02 5.162-9.412 6.115-7.391.953-10.946-4.203-11.103-4.434a1.772 1.772 0 0 0-2.789-.217 1.763 1.763 0 0 0-.173 2.167c.151.233 3.085 4.579 9.031 5.816a15.613 15.613 0 0 0 4.283.301c.364-.023.794-.06 1.206-.113 9.629-1.243 12.189-8.138 12.295-8.432.078-.221.112-.456.1-.691a1.774 1.774 0 0 0-1.165-1.562Z" fill="#842306"/><path d="M607.03 461.916a102.975 102.975 0 0 0-9.25-36.02l-1.762-3.795-31.19 12.137-70.668 27.474 22.527 212.552h12.304l-.122-4.048-1.585-53.424-.366-12.333-2.86-96.364a9.404 9.404 0 0 1 5.65-8.781 9.412 9.412 0 0 1 7.192-.125 9.405 9.405 0 0 1 5.173 4.998 9.388 9.388 0 0 1 .777 3.583l.466 96.689.059 12.333.259 53.424.019 4.048h55.184l.169-4.048 2.221-53.424.513-12.333 1.327-31.909 4.125-99.153c.16-3.827.105-7.66-.162-11.481Zm-59.007-324.903.55-.587v.945c0 13.981 4.8 27.538 13.597 38.404l4.14-6.164a6.265 6.265 0 0 1 11.024 1.222 6.263 6.263 0 0 1 .048 4.441l-.448 1.214c.125-.206.243-.417.378-.621a17.831 17.831 0 0 0-.053-19.785l-.828-1.237a11.405 11.405 0 0 1-1.717-8.555l.587-2.966a11.393 11.393 0 0 0-7.926-13.131 11.41 11.41 0 0 1-7.476-7.083l-.115-.323a14.773 14.773 0 0 0-16.082-9.631 14.762 14.762 0 0 1-8.868-1.443l-2.135-1.086a16.298 16.298 0 0 0-17.26 1.566l-.881.671a16.292 16.292 0 0 1-11.245 3.279 16.294 16.294 0 0 0-15.942 8.947l-.73 1.46v11.55l-.018 21.987 4.947.167a74.152 74.152 0 0 0 56.453-23.241Zm23.421 54.327a6.225 6.225 0 0 1-1.268 2.049 5.388 5.388 0 0 1-1.783 6.393 5.385 5.385 0 0 1-6.634-.181 5.381 5.381 0 0 1-1.958-4.176 5.307 5.307 0 0 1 .689-2.586 6.226 6.226 0 0 1-.85-1.613l-.184-.532-.466 1.053a88.436 88.436 0 0 1-4.997 9.643 90.347 90.347 0 0 1-6.182 9.02c1.57.161 3.152.167 4.723.018l.865-.084a23.211 23.211 0 0 0 20.954-23.957c-.04-1.193.04-2.387.237-3.565l-3.146 8.518ZM435.198 731.861h-67.537l-.391 2.197a32.75 32.75 0 0 0 12.389 31.867h31.142a24.915 24.915 0 0 0 18.141-7.841 24.904 24.904 0 0 0 6.72-18.586l-.464-7.637Zm103.283 27.72-6.822-10.755-.012-.019c-.158-.253-.303-.511-.456-.764a67.79 67.79 0 0 1-2.308-4.073h-68.505a97.224 97.224 0 0 1-.885 17.076l-.979 6.9a20.943 20.943 0 0 0 12.056 21.998 20.965 20.965 0 0 0 8.694 1.885h41.483c14.136 0 23.515-13.312 20.441-25.909a21.168 21.168 0 0 0-2.707-6.339Zm-97.368-589.467c-.088-.123-.18-.242-.272-.36a11.323 11.323 0 0 0-12.243-3.981 11.32 11.32 0 0 0-8.046 10.05 11.215 11.215 0 0 0-12.072 4.441 11.328 11.328 0 0 0-14.129-4.879 11.324 11.324 0 0 0 5.761 21.706 11.32 11.32 0 0 0 9.85-11.244 10.896 10.896 0 0 0-.147-1.691c-.061-.382-.127-.76-.223-1.129a8.92 8.92 0 0 1 4.617-4.497 8.917 8.917 0 0 1 6.441-.215 11.356 11.356 0 0 0 11.201 9.656 11.227 11.227 0 0 0 4.043-.757 11.36 11.36 0 0 0 7.302-10.571 11.274 11.274 0 0 0-.793-4.138 11.378 11.378 0 0 0-1.29-2.391Zm-42.492 24.719a8.98 8.98 0 0 1-8.221-5.375 8.98 8.98 0 0 1 1.624-9.687 8.978 8.978 0 0 1 9.526-2.398 8.974 8.974 0 0 1 6.018 7.764c.019.239.037.475.037.72a8.986 8.986 0 0 1-8.984 8.976Zm33.23-9.215a8.958 8.958 0 0 1-1.736-17.746 8.955 8.955 0 0 1 10.712 8.771 8.99 8.99 0 0 1-8.976 8.975Z" fill="#272727"/><path d="m274.772 383.405-100.723 28.694a80.762 80.762 0 0 1-3.084 25.717L90.284 717.75a26.035 26.035 0 0 1-24.458 18.82l-6.026.129a19.536 19.536 0 0 0 .423 39.064h97.936l68.173-275.704c1.887-7.634 9.324-11.33 15.954-9.88a270.294 270.294 0 0 1 17.796-56.213l9.659-21.861a60.782 60.782 0 0 0 5.031-28.698v-.002Z" fill="#0A273D"/><path d="M301.11 135.003c-23.996-.356-43.671 18.938-43.785 42.937l-.196 39.181-.252 53.227h32.453l3.508-3.289a22.445 22.445 0 0 0 3.238-28.956l-9.162-13.537a53.442 53.442 0 0 1-4.066-7.147 10.492 10.492 0 0 1-10.518.495 15.361 15.361 0 0 1-7.047-7.576l-1.797-4.181a10.229 10.229 0 0 1 2.45-11.554 10.238 10.238 0 0 1 11.709-1.55 53.494 53.494 0 0 1 18.062-39.085l1.704 4.727a32.534 32.534 0 0 0 41.324 19.68l4.853-1.695c-.701-22.712-19.218-41.333-42.478-41.677Z" fill="#272727"/><path d="m767.1 303.425-34.227-32.418a15.36 15.36 0 0 1-2.828 3.784 14.073 14.073 0 0 1-17.685 1.584l-19.13-12.9a17.62 17.62 0 0 1-7.323-18.529l-7-1.685a14.968 14.968 0 0 1-9.201-6.597l-26.623 26.897-17.814-36.975a11.486 11.486 0 0 1-10.532.652l-49.861-21.271a23.104 23.104 0 0 1-11.48 4.375l-.865.084a24.121 24.121 0 0 1-4.723-.017 89.091 89.091 0 0 1-5.73 6.679 13.6 13.6 0 0 0-2.373 3.441c-3.071 6.29-.912 14.255 5.609 17.894l9.95 5.554a52.878 52.878 0 0 1 24.241 63.326l-7.093 20.668a65.082 65.082 0 0 0 2.488 48.436l1.439 3.113 115.623 25.799-1.684-93.614c-.107-5.974 6.852-9.306 11.442-5.481l37.253 31.136-20.431 40.86 34.796 27.171a37.438 37.438 0 0 1 1.73-3.371l20.966-35.778a51.015 51.015 0 0 0-8.934-62.817ZM516.697 674.251l3.298 31.125 1.525 14.387a67.521 67.521 0 0 0 7.363 24.215 71.084 71.084 0 0 0 2.308 4.074L529 674.251h-12.303Zm80.843 31.409 1.306-31.409h-55.184l.196 41.953a46.818 46.818 0 0 1-8.026 26.445l-4.176 6.178 6.822 10.755a21.157 21.157 0 0 1 2.706 6.342h51.374c16.765 0 25.752-19.714 14.761-32.37a39.989 39.989 0 0 1-9.779-27.894ZM394.159 217.026a7.644 7.644 0 0 1 .688 8.092 7.63 7.63 0 0 1-6.99 4.134 7.635 7.635 0 0 1-5.64-12.545 7.568 7.568 0 0 1 3.26-2.31 1.18 1.18 0 0 0 .107-2.181 1.182 1.182 0 0 0-.904-.044 9.985 9.985 0 0 0-5.774 13.392 9.983 9.983 0 0 0 19.133-3.996c0-.231-.02-.46-.038-.689l-3.842-3.853Zm68.208-32.643a9.927 9.927 0 0 0-4.699-1.175c-.313 0-.614.125-.836.346a1.187 1.187 0 0 0 0 1.672c.222.222.523.347.836.347a7.627 7.627 0 0 1 7.631 7.856 7.614 7.614 0 0 1-1.181 3.847 7.612 7.612 0 0 1-2.975 2.71 7.61 7.61 0 0 1-3.941.817 7.62 7.62 0 0 1-6.42-4.364l-1.224 2.563a9.988 9.988 0 0 0 12.025 3.396 9.984 9.984 0 0 0 .776-18.015h.008Zm-245.015-44.827a35.613 35.613 0 0 0-40.368-12.393c-.323.113-.65.196-.978.327a35.63 35.63 0 0 0-22.892 34.038 67.616 67.616 0 0 0 1.957 14.7 40.873 40.873 0 0 0 23.432-41.712 40.936 40.936 0 0 0 41.981 9.787 52.934 52.934 0 0 0-3.132-4.743v-.004Z" fill="#FFBE3C"/><path d="M665.868 195.391a1.772 1.772 0 0 0-2.507-.027 14.23 14.23 0 0 1-11.267 3.999 14.227 14.227 0 0 1-10.335-6.01 1.777 1.777 0 0 0-2.471-.434 1.772 1.772 0 0 0-.434 2.47 17.754 17.754 0 0 0 12.912 7.507 17.759 17.759 0 0 0 14.075-4.997 1.761 1.761 0 0 0 .534-1.248 1.778 1.778 0 0 0-.507-1.26Z" fill="#F2A068"/><path d="M208.266 175.539a1.713 1.713 0 0 0-.482-.195 1.775 1.775 0 0 0-2.071 1.174c-.018.051-.039.1-.053.155-.053.219-1.351 5.397-8.177 8.625-7.01 3.316-14.644.887-14.725.867a1.774 1.774 0 0 0-1.112 3.367 25.912 25.912 0 0 0 7.535 1.073c2.937 0 6.403-.484 9.819-2.099 8.471-4.007 10.057-10.766 10.119-11.052a1.767 1.767 0 0 0-.853-1.915Z" fill="#894915"/><path d="m692.011 408.101.168 9.316-.168-9.318v.002Z" fill="#E03E52"/><path d="M684.013 140.233a28.27 28.27 0 0 0-1.039-1.14 39.511 39.511 0 0 0-28.922-12.341 39.49 39.49 0 0 0-29.483 13.481 39.363 39.363 0 0 0-9.811 26.049c0 .725.027 1.443.066 2.154a39.362 39.362 0 0 0 4.409 16.113 39.551 39.551 0 0 0 7.488-42.051 39.496 39.496 0 0 0 54.783.342 39.495 39.495 0 0 0 8.811 39.724 39.497 39.497 0 0 0-6.302-42.333v.002ZM574.897 376.409a65.082 65.082 0 0 1-2.488-48.436l7.092-20.668a52.872 52.872 0 0 0-24.24-63.326l-9.951-5.546c-6.521-3.639-8.68-11.604-5.608-17.894l-27.784-2.76-10.632-1.055a11.337 11.337 0 0 1-7.27 13.566l-7.464 2.572-.12 144.176c0 3.042.076 6.082.196 9.12.033.824.055 1.648.098 2.47.201 3.841.504 7.673.91 11.497l6.527 61.582 70.668-27.475 31.19-12.137-19.687-42.575-1.437-3.111Z" fill="#E83452"/><path d="m574.592 182.822 2.349-6.331a17.888 17.888 0 0 0-2.349 6.331Z" fill="#E03E52"/><path d="M565.188 200.818a5.39 5.39 0 0 0 5.428-5.419 5.396 5.396 0 0 0-5.48-5.366 5.391 5.391 0 0 0-4.646 2.806 5.307 5.307 0 0 0-.689 2.586 5.388 5.388 0 0 0 5.387 5.393ZM378.629 422.116l-8.2-18.685a55.035 55.035 0 0 1-2.982-35.346h-95.7a60.988 60.988 0 0 1 3.025 15.32 60.787 60.787 0 0 1-5.031 28.698l-9.659 21.86a271.202 271.202 0 0 0-22.301 88.966l-9.245 122.776a13.169 13.169 0 0 0 3.478 9.949 13.18 13.18 0 0 0 9.659 4.216h143.882a13.179 13.179 0 0 0 12.265-8.364c.642-1.637.95-3.386.906-5.143l-3.755-150.9a194.593 194.593 0 0 0-16.342-73.347Zm6.149 347.711-3.015-2.296-2.11-1.607-10.823-8.242a30.147 30.147 0 0 0-40.082 3.207l-3.183 3.349-2.396 2.522c-11.918 12.528-3.034 33.238 14.261 33.238h37.167a16.806 16.806 0 0 0 16.065-21.726 16.81 16.81 0 0 0-5.886-8.447l.002.002Zm-85.659-5.587-3.187-3.352a30.128 30.128 0 0 0-40.076-3.204l-10.823 8.241-2.111 1.607-3.012 2.297a16.804 16.804 0 0 0 10.179 30.172h37.167c17.293 0 26.178-20.706 14.261-33.238l-2.398-2.523Zm132.205-560.781a1.775 1.775 0 0 0-2.349.859c-.027.059-2.805 5.873-9.549 6.435-1.058.092-2.123.05-3.169-.126-4.565-.761-6.897-3.879-7.024-4.054a1.777 1.777 0 0 0-2.474-.42 1.771 1.771 0 0 0-.419 2.474c.137.196 2.593 3.563 7.37 5.037 1.478.457 3.017.689 4.565.687.47 0 .953-.02 1.45-.063 8.77-.742 12.319-8.157 12.466-8.472a1.77 1.77 0 0 0-.306-1.95 1.776 1.776 0 0 0-.561-.407Z" fill="#E83452"/><path d="m718.539 378.228-2.519 5.038a18.63 18.63 0 0 1-10.951 9.397l-2.621.842a15.104 15.104 0 0 0-10.438 14.593l.168 9.318a15.04 15.04 0 0 0 6.934 12.404l20.191 12.92c12.984 8.31 30.068-.742 30.485-16.154l.182-6.738a37.218 37.218 0 0 1 3.365-14.449l-34.796-27.171Zm-18.17-197.181c1.294-3.082-.041-6.777-3.146-8.013a5.821 5.821 0 0 0-3.962-.115 39.49 39.49 0 0 1-2.946 9.647 39.499 39.499 0 0 1-8.811-39.723 39.497 39.497 0 0 1-54.783-.343 39.485 39.485 0 0 1-7.488 42.051 39.357 39.357 0 0 1-4.409-16.113 6.806 6.806 0 0 0-5.338.548c-2.858 1.586-4.078 5.076-3.132 8.206l4.502 14.96a8.055 8.055 0 0 0 6.868 5.677 5.341 5.341 0 0 0 5.385-3.05l7.098 17.158a11.497 11.497 0 0 1-.832 10.63 12.106 12.106 0 0 1-4.111 4.023l17.814 36.975 26.623-26.898a15.146 15.146 0 0 1-2.359-7.772 15.151 15.151 0 0 1 1.991-7.874l13.703-23.822.049.648c.147 1.936 1.316 3.719 3.132 4.416a4.958 4.958 0 0 0 6.386-2.688l7.766-18.528ZM665.841 197.9a17.759 17.759 0 0 1-21.359 2.667 17.773 17.773 0 0 1-5.628-5.177 1.776 1.776 0 0 1 .434-2.471 1.778 1.778 0 0 1 2.471.435 14.217 14.217 0 0 0 21.602 2.012 1.779 1.779 0 0 1 2.512.033 1.777 1.777 0 0 1-.032 2.512v-.011Z" fill="#FFE1CC"/><path d="M475.934.024 452.12 1.24c-13.391.684-21.791 14.759-16.036 26.87l5.497 11.57a41.99 41.99 0 0 1 4.027 19.83l-3.853 89.117a38.69 38.69 0 0 0-30.096-8.622 38.718 38.718 0 0 0-33.11 33.683 51.13 51.13 0 0 0 1.245 18.851 7.4 7.4 0 0 0-8.833 11.381l8.582 10.667c.225.269.468.523.726.76a9.924 9.924 0 0 1 4.397-3.175 1.182 1.182 0 1 1 .797 2.225 7.568 7.568 0 0 0-3.26 2.31 7.994 7.994 0 0 0 9.765-1.942c.356.38.699.768 1.067 1.136l1.118 1.125 3.834 3.861.717.72a18.657 18.657 0 0 1 5.093 9.456 18.657 18.657 0 0 1-.967 10.697h42.505l-1.507-2.652a28.246 28.246 0 0 1-.932-26.128l6.67-13.969 1.223-2.563 1.142-2.392a37.722 37.722 0 0 0 1.346-3.224c.263.045.529.077.795.094a8.024 8.024 0 0 0 7.498-4.264 7.578 7.578 0 0 0-3.888-1.084 1.185 1.185 0 0 1-1.182-1.183 1.182 1.182 0 0 1 1.182-1.182 9.923 9.923 0 0 1 4.698 1.175c.018-.094.041-.184.057-.278l1.777-11.601h22.401l.012-12.405.017-21.988v-11.549l.061-74.57a71.712 71.712 0 0 1 3.375-21.694l2.69-8.443C496.325 10.7 487.633-.575 475.934.024Zm-43.752 205.792c-.146.315-3.695 7.731-12.465 8.473-.498.043-.979.062-1.451.062a15.354 15.354 0 0 1-4.565-.687c-4.777-1.474-7.233-4.843-7.37-5.037a1.772 1.772 0 0 1 1.743-2.775c.464.078.878.338 1.15.722.127.174 2.459 3.293 7.024 4.054 1.047.176 2.112.218 3.169.125 6.744-.569 9.522-6.376 9.549-6.434a1.774 1.774 0 1 1 3.216 1.497Zm10.802-27.036a11.345 11.345 0 0 1-2.452 5.14 11.352 11.352 0 0 1-4.638 3.305c-1.289.5-2.66.756-4.042.758a11.352 11.352 0 0 1-11.202-9.657 8.93 8.93 0 0 0-6.44.213 8.928 8.928 0 0 0-4.618 4.495c.096.37.162.748.223 1.13.093.559.142 1.124.147 1.691a11.37 11.37 0 1 1-1.482-5.583 11.208 11.208 0 0 1 12.072-4.442 11.322 11.322 0 0 1 14.789-9.969 11.319 11.319 0 0 1 5.5 3.901c.092.117.184.236.272.36.522.741.954 1.542 1.286 2.386a11.17 11.17 0 0 1 .587 6.276l-.002-.004Z" fill="#F2A068"/><path d="M398.623 176.881a8.98 8.98 0 0 0-8.804 10.726 8.97 8.97 0 0 0 7.053 7.052 8.97 8.97 0 0 0 9.213-3.816 8.97 8.97 0 0 0 1.513-4.987c0-.244-.017-.481-.037-.72a8.98 8.98 0 0 0-8.938-8.255Zm33.229-9.215a9.001 9.001 0 0 0-8.798 6.935 9 9 0 0 0 10.651 10.875 9.008 9.008 0 0 0 7.116-8.653 9.007 9.007 0 0 0-8.969-9.157ZM130.962 324.33l-20.255 56.77-37.484 5.522a16.325 16.325 0 0 1-17.67-10.438l-11.78-31.544a8.72 8.72 0 0 0-4.392-4.829 8.72 8.72 0 0 0-11.501 3.783 8.724 8.724 0 0 0-.668 6.494l8.152 28.534-19.658-5.176c-9.173-2.418-17.593 5.859-15.334 15.073l6.069 24.764a23.167 23.167 0 0 0 23.015 17.645l84.685-1.875a38.23 38.23 0 0 0 19.353-5.76 38.232 38.232 0 0 0 13.716-14.818l18.989-36.535-9.902-42.929-25.335-4.681Zm99.406-176.573a8.621 8.621 0 0 0-6.763 2.779 53.18 53.18 0 0 0-3.133-6.234 40.93 40.93 0 0 1-41.98-9.788 40.869 40.869 0 0 1-23.432 41.712 72.996 72.996 0 0 0 1.329 4.686l-.266-.057a9.355 9.355 0 0 0-10.378 5.119 9.353 9.353 0 0 0 2.548 11.288l9.746 7.905.408.33a7.632 7.632 0 0 0 10.929-1.368 67.62 67.62 0 0 0 10.721 10.105l2.817 2.122c7.651 5.761 8.858 16.277 3.749 23.581a40.991 40.991 0 0 0 48.795-20.983c-9.639-1.829-16.278-11.777-13.212-21.89l3.226-10.647a52.946 52.946 0 0 0 1.533-6.589 7.64 7.64 0 0 0 2.77.501 7.679 7.679 0 0 0 7.582-7.083l1.196-16.22a8.658 8.658 0 0 0-2.14-6.359 8.64 8.64 0 0 0-6.045-2.91Zm-21.249 29.694c-.063.286-1.649 7.047-10.119 11.053-3.416 1.615-6.887 2.098-9.819 2.098a25.902 25.902 0 0 1-7.535-1.073 1.768 1.768 0 0 1-.994-.892 1.778 1.778 0 0 1-.09-1.332 1.778 1.778 0 0 1 2.196-1.143c.076.024 7.711 2.453 14.725-.867 6.826-3.228 8.124-8.406 8.176-8.625.014-.055.036-.104.053-.155a1.778 1.778 0 0 1 2.071-1.174c.17.041.332.107.482.196a1.764 1.764 0 0 1 .854 1.914Z" fill="#F2A068"/><path d="m380.418 256.141-7.108-10.592c-6.174-9.201-19.644-9.383-26.067-.355l-3.631 5.104a19.216 19.216 0 0 0-1.353 20.049 19.172 19.172 0 0 0 5.076 6.124l17.994 14.247 1.696 1.343c.215.17.438.319.659.475a15.293 15.293 0 0 0 18.666-.724 16.696 16.696 0 0 0 3.165-22.12l-9.097-13.551Z" fill="#FFE1CC"/><path d="M377.967 295.301a15.291 15.291 0 0 1-10.285-2.764c-.221-.157-.444-.306-.659-.476l-1.696-1.343-17.994-14.247a19.155 19.155 0 0 1-5.076-6.123H289.34l-7.729 7.243a67.585 67.585 0 0 0-15.823 76.106l4.162 9.63a59.957 59.957 0 0 1 1.803 4.761h95.7a53.519 53.519 0 0 1 1.396-4.699l10.318-29.696a53.715 53.715 0 0 0-1.2-38.392Zm-102.598-80.417a3.202 3.202 0 1 0-1.535-2.725 3.173 3.173 0 0 0 1.535 2.725Z" fill="#fff"/><path d="m731.391 254.305-16.537-20.975c-6.302-7.995-18.652-7.218-23.902 1.503l-2.97 4.932a17.678 17.678 0 0 0 5.248 23.712l19.13 12.9a14.069 14.069 0 0 0 17.684-1.584 15.382 15.382 0 0 0 1.347-20.488Zm-157.409-86.951a6.267 6.267 0 0 0-4.244-.254 6.27 6.27 0 0 0-3.428 2.515l-4.14 6.164a61.033 61.033 0 0 1-13.597-38.404v-.945l-.55.587a74.135 74.135 0 0 1-56.463 23.252l-4.947-.166-.011 12.405-.012 15.504a83.494 83.494 0 0 0 12.789 24.746 11.292 11.292 0 0 1 1.906 3.958l10.632 1.055 27.784 2.76a13.575 13.575 0 0 1 2.373-3.441 89.078 89.078 0 0 0 5.729-6.679 90.025 90.025 0 0 0 6.182-9.021 88.443 88.443 0 0 0 4.998-9.643l.466-1.053.184.532c.203.577.489 1.12.85 1.613a5.37 5.37 0 0 1 5.02-2.798 5.368 5.368 0 0 1 4.672 3.348 6.215 6.215 0 0 0 1.268-2.049l3.148-8.518a17.875 17.875 0 0 1 2.349-6.33l.448-1.214a6.261 6.261 0 0 0-3.406-7.924Zm-39.134 23.706c-.462.615-.987 1.18-1.566 1.687a15.245 15.245 0 0 1-7.548 3.626c-.996.178-2.006.267-3.017.266-.335 0-.675-.01-1.026-.029a18.429 18.429 0 0 1-6.264-1.404c-4.228-1.793-6.069-4.643-6.17-4.81a1.775 1.775 0 0 1 .571-2.443 1.777 1.777 0 0 1 2.432.562c.121.196 2.793 4.187 9.615 4.555h.409c3.254.088 5.638-.885 7.226-1.899a9.458 9.458 0 0 0 2.443-2.165 1.774 1.774 0 1 1 2.895 2.054Z" fill="#842306"/><path d="m263.502 206.157 1.797 4.181a15.37 15.37 0 0 0 7.047 7.576 10.489 10.489 0 0 0 10.518-.495 53.442 53.442 0 0 0 4.066 7.147l9.162 13.537a22.443 22.443 0 0 1-3.238 28.956l-3.508 3.289h52.917a19.227 19.227 0 0 1-1.272-14.819c-3.27-2.915-6.629-6.395-9.005-10.082-6.321-9.807-1.371-20.554 5.42-33.934 4.129-8.128 5.129-16.945 6.11-30.262.111-1.521.143-3.047.096-4.571l-4.853 1.695a32.536 32.536 0 0 1-41.325-19.68l-1.703-4.727a53.494 53.494 0 0 0-18.062 39.085 10.23 10.23 0 0 0-10.008.278 10.24 10.24 0 0 0-4.94 9.729c.096 1.067.36 2.112.781 3.097Zm34.833-3.408a1.773 1.773 0 0 1 2.451.507c.156.231 3.719 5.387 11.103 4.434 7.384-.954 9.334-5.904 9.412-6.116a1.776 1.776 0 0 1 3.438.513c.012.235-.022.469-.1.691-.106.294-2.666 7.188-12.296 8.431a18.034 18.034 0 0 1-2.276.149c-1.08 0-2.156-.113-3.213-.337-5.945-1.237-8.879-5.583-9.03-5.816a1.758 1.758 0 0 1 .014-1.973c.132-.192.301-.357.497-.483Zm-21.291 6.199a3.201 3.201 0 0 1 3.135 3.828 3.202 3.202 0 1 1-5.404-2.886 3.21 3.21 0 0 1 2.267-.942h.002Zm90.222 525.109.391-2.196 12.979-71.99h-59.967l11.852 82.569a26.237 26.237 0 0 1-6.956 21.799l3.185-3.351a30.152 30.152 0 0 1 19.428-9.262 30.151 30.151 0 0 1 20.654 6.056l10.823 8.241a32.753 32.753 0 0 1-12.389-31.866Zm-63.255-74.186h-59.974l13.376 74.192a32.75 32.75 0 0 1-12.387 31.868l10.823-8.242a30.123 30.123 0 0 1 40.08 3.207l3.189 3.343a26.222 26.222 0 0 1-6.956-21.801l11.849-82.567ZM176.377 243.803l-3.378-4.747c-5.973-8.396-18.499-8.222-24.241.329l-15.073 22.452a15.532 15.532 0 0 0 2.936 20.576 14.291 14.291 0 0 0 17.974.231l18.312-14.5a17.906 17.906 0 0 0 3.47-24.341Z" fill="#894915"/></svg>