<svg class="sinch-icon" xmlns="http://www.w3.org/2000/svg" viewBox="0 0 284 400" fill="none" aria-hidden="true" focusable="false"><path d="M78.985 234.972c-3.062 0-5.963.645-8.542 1.934-2.74-11.926-13.376-20.79-26.108-20.79a26.687 26.687 0 0 0-26.752 26.753c-1.128-.323-2.418-.484-3.707-.484-4.029 0-7.736 1.451-10.637 3.868-4.35 3.546-1.772 10.798 4.03 10.798h85.415c4.19 0 7.09-4.19 5.801-8.058-2.9-8.058-11.12-14.021-19.5-14.021Z" fill="#fff"/><path d="M95.262 218.05c-.483 0-.967-.161-1.289-.322-40.129-18.695-66.076-59.307-66.076-103.626C27.737 51.249 78.985 0 142 0s114.1 51.249 114.1 114.102c0 43.996-25.785 84.609-65.592 103.303-1.611.806-3.545 0-4.351-1.611-.806-1.612 0-3.546 1.611-4.352 37.551-17.727 61.886-55.922 61.886-97.502 0-59.145-48.348-107.494-107.655-107.494-59.468 0-107.816 48.349-107.816 107.656 0 41.74 24.496 80.096 62.369 97.663 1.611.806 2.256 2.739 1.611 4.351-.483 1.128-1.611 1.934-2.9 1.934Z" fill="#FFBE3C"/><path d="M98.324 176.954a3.096 3.096 0 0 1-1.934-.645c-19.178-14.504-30.137-36.583-30.137-60.596 0-41.74 34.005-75.745 75.746-75.745 41.74 0 75.745 34.004 75.745 75.745 0 23.852-10.798 45.77-29.815 60.274-1.45 1.128-3.384.806-4.512-.645-1.128-1.45-.806-3.384.645-4.512 17.244-13.215 27.236-33.36 27.236-55.117 0-38.195-31.104-69.299-69.299-69.299-38.195 0-69.3 31.104-69.3 69.299 0 21.918 9.993 42.224 27.559 55.439 1.451 1.128 1.773 3.062.645 4.513-.645.967-1.612 1.289-2.579 1.289Z" fill="#FFBE3C"/><path d="M160.371 150.685c13.376-7.091 22.24-21.757 20.951-38.195-1.612-19.34-17.406-34.81-36.745-35.939-22.885-1.45-41.901 16.76-41.901 39.323 0 15.149 8.541 28.365 21.112 34.972C113.796 255.117 67.059 391.62 64.158 400h27.397c7.253-10.959 22.885-28.042 50.444-28.042 27.397 0 43.191 17.083 50.443 28.042h27.397c-3.062-8.542-49.798-145.206-59.468-249.315Zm-18.372-50.443c8.702 0 15.632 6.93 15.632 15.632 0 8.703-6.93 15.633-15.632 15.633-8.703 0-15.633-6.93-15.633-15.633 0-8.702 6.93-15.632 15.633-15.632Zm10.959 169.863h-22.079c-2.095 0-3.546-1.934-3.062-3.868 4.512-19.017 8.219-36.906 11.442-53.828.483-3.062 4.835-3.062 5.479 0 3.062 16.922 6.93 34.972 11.443 53.989.322 1.934-1.128 3.707-3.223 3.707Zm24.818 85.576c-9.831-4.835-21.756-7.897-35.939-7.897-14.02 0-25.946 3.223-35.777 7.897-1.128.483-2.256-.484-1.934-1.612 4.351-14.504 9.186-31.104 13.86-48.992.806-2.74 1.45-5.641 2.256-8.381.322-1.45 1.612-2.417 3.062-2.417h37.228c1.451 0 2.74.967 3.062 2.417.645 2.74 1.451 5.48 2.095 8.219 4.835 17.889 9.509 34.65 13.86 49.154.484 1.128-.645 2.257-1.773 1.612Z" fill="#0A273D"/><path d="M220.967 289.122h57.051c4.19 0 7.091-4.029 5.802-8.058-2.74-7.897-10.798-13.699-19.34-13.699-3.062 0-5.962.645-8.541 1.934-2.74-11.926-13.376-20.79-25.947-20.79-14.665 0-26.591 11.926-26.591 26.592-.161 14.021 10.636 14.021 17.566 14.021Z" fill="#fff"/><path d="m250.943 396.777-22.724-67.688c-.805-2.256-3.867-2.256-4.512 0l-18.05 53.022-10.798-32.232c-.806-2.256-3.868-2.256-4.512 0l-15.149 44.803-10.798-32.071c-.806-2.257-3.868-2.257-4.513 0l-11.603 34.327c-.484 1.612.644 3.223 2.256 3.223h98.147c1.611-.161 2.739-1.773 2.256-3.384Zm-147.623 0-22.723-67.688c-.806-2.256-3.868-2.256-4.513 0l-16.76 49.799-9.831-29.009c-.806-2.256-3.868-2.256-4.513 0l-15.793 46.898c-.484 1.611.644 3.223 2.256 3.223h69.782c1.451 0 2.74-1.612 2.095-3.223Z" fill="#007171"/></svg>