<svg class="sinch-icon" xmlns="http://www.w3.org/2000/svg" viewBox="0 0 333 400" fill="none" aria-hidden="true" focusable="false"><path d="m230.795 130.749-44.1-6.259c-5.11-.746-8.957-5.11-8.957-10.278v-2.641c0-5.168 3.789-9.532 8.957-10.279l44.1-6.259c6.259-.861 11.829 3.962 11.829 10.279v15.101c0 6.317-5.57 11.198-11.829 10.336Zm-29.859-53.402-44.1-6.259c-5.111-.746-8.958-5.11-8.958-10.278v-2.642c0-5.168 3.79-9.532 8.958-10.278l44.1-6.26c6.259-.86 11.829 3.963 11.829 10.28v15.1c0 6.317-5.57 11.198-11.829 10.336Zm29.859 191.904-44.1 6.259c-5.11.746-8.957 5.11-8.957 10.278v2.642c0 5.168 3.789 9.532 8.957 10.278l44.1 6.259c6.259.861 11.829-3.962 11.829-10.278v-15.102c0-6.374-5.57-11.198-11.829-10.336Zm-29.859 53.402-44.1 6.259c-5.111.746-8.958 5.11-8.958 10.278v2.642c0 5.168 3.79 9.532 8.958 10.278l44.1 6.259c6.259.862 11.829-3.962 11.829-10.278v-15.102c0-6.374-5.57-11.197-11.829-10.336ZM20.172 188.516l33.707.229-31.582-33.878c-3.044-3.216-7.35-5.168-11.944-5.168H6.046c-2.124 0-4.02 1.263-3.1 3.445l17.226 35.372Zm-.402 22.911 33.764-.23-31.64 33.879c-3.043 3.216-7.35 5.168-11.943 5.168H5.644c-2.124 0-4.02-1.263-3.1-3.445l17.226-35.372Z" fill="#0A273D"/><path d="M278.57 166.408h-18.49c-6.201 0-11.943-3.388-14.929-8.785l-80.965-145.68C160.052 4.537 152.3 0 143.916 0h-8.785c-4.422 0-7.695 4.192-6.546 8.498l40.941 153.029c.632 2.47-1.206 4.881-3.732 4.881h-37.899a258.385 258.385 0 0 0-78.782 12.289l-4.651 1.492v39.966l5.512 1.723a259.236 259.236 0 0 0 77.003 11.714h38.874c2.527 0 4.422 2.411 3.733 4.881l-40.942 153.029c-1.148 4.306 2.067 8.498 6.546 8.498h8.786c8.441 0 16.193-4.536 20.269-11.944l80.965-145.679c3.044-5.455 8.728-8.785 14.93-8.785h18.49c18.547 0 54.206-15.045 54.206-33.592-.058-18.547-35.717-33.592-54.264-33.592Z" fill="#CCC"/><path d="M60.999 199.77c0 11.255 6.776 22.337-4.536 22.337s-36.29-11.082-36.29-22.337c0-11.254 22.05-18.949 33.304-18.949 11.254 0 7.522 7.695 7.522 18.949Z" fill="#CCC"/><path d="m46.988 179.386-20.901 6.661C19.942 188.056.304 193.741.304 200.23c0 6.488 19.638 12.288 25.897 14.24l20.787 6.489v-41.573Z" fill="#CCC"/><path d="M307.51 218.375c-4.191 0-7.292-3.962-6.259-8.039a41.982 41.982 0 0 0 0-20.672c-1.033-4.077 2.068-8.039 6.259-8.039a6.527 6.527 0 0 1 6.259 4.709l.575 2.067a43.024 43.024 0 0 1 0 23.198l-.575 2.067c-.861 2.757-3.387 4.709-6.259 4.709Z" fill="#0A273D"/></svg>