<svg class="sinch-icon" xmlns="http://www.w3.org/2000/svg" viewBox="0 0 538 400" fill="none" aria-hidden="true" focusable="false"><path d="m329.004 125.843 1.342-2.826c-4.875 2.191-10.599 1.272-14.556-2.261-3.956-3.604-5.44-9.115-3.815-14.202 5.017-15.333 11.093-33.917 15.757-48.12 4.381-13.354 16.675-22.54 30.736-22.893 18.442-.494 43.738-1.2 60.414-1.625 11.376-.282 22.469-3.603 32.22-9.539 11.164-6.783 26.215-16.04 36.531-22.328 6.501-3.957 15.05-1.978 19.078 4.593 8.055 12.93 20.844 33.634 28.899 46.705 1.979 3.18 2.544 6.996 1.696 10.67-.918 3.604-3.18 6.783-6.43 8.62-14.414 8.55-37.449 22.187-45.645 27.063-1.908 1.13-3.321 2.967-3.957 5.158-6.43 23.388-27.699 39.639-51.935 39.781-5.652 0-22.116-41.477-22.045-42.466.141-5.37-2.332-10.529-6.218-14.203-3.886-3.674-9.186-5.511-14.556-5.087a17.945 17.945 0 0 0-15.404 11.73c-2.19 5.935-5.016 13.495-7.489 20.349-4.311 11.659-9.751 22.964-16.323 33.563-1.483 2.402-2.967 4.805-4.31 6.995-3.462 5.653-10.316 8.126-16.605 6.077-4.239-1.413-7.631-4.734-9.044-9.045-1.413-4.239-.707-8.973 1.837-12.647l9.822-14.062Z" fill="#842306"/><path d="M420.507 123.088c0-6.289-2.473-12.224-6.925-16.676-4.451-4.451-10.387-6.924-16.675-6.924H80.85a23.594 23.594 0 0 0-16.676 6.924c-4.451 4.452-6.925 10.387-6.925 16.676v230.418h363.187V123.088h.071Z" fill="#F2F2F2"/><path d="M420.507 352.588H57.32V376.4a23.59 23.59 0 0 0 6.925 16.675C68.696 397.527 74.632 400 80.92 400h316.058a23.588 23.588 0 0 0 16.675-6.925c4.452-4.451 6.925-10.386 6.925-16.675-.071-11.871-.071-23.812-.071-23.812Z" fill="#CCC"/><path d="M202.595 389.684c7.137 0 13.001-5.794 13.001-13.001a12.967 12.967 0 0 0-13.001-13.002 12.967 12.967 0 0 0-13.001 13.002c0 7.207 5.864 13.001 13.001 13.001Z" fill="#272727"/><path d="M238.914 389.684c7.136 0 13.001-5.794 13.001-13.001a12.967 12.967 0 0 0-13.001-13.002c-7.137 0-13.002 5.794-13.002 13.002 0 7.207 5.865 13.001 13.002 13.001Z" fill="#007171"/><path d="M275.232 389.684c7.137 0 13.001-5.794 13.001-13.001a12.967 12.967 0 0 0-13.001-13.002c-7.136 0-13.001 5.794-13.001 13.002 0 7.207 5.865 13.001 13.001 13.001Z" fill="#E24751"/><path d="M327.944 58.576c4.381-13.354 16.675-22.54 30.736-22.893 18.442-.495 43.738-1.202 60.414-1.625 11.376-.283 22.469-3.604 32.22-9.54 11.094-6.853 26.215-16.039 36.531-22.328 6.501-3.956 15.05-1.978 19.078 4.593 7.984 12.93 20.774 33.634 28.899 46.706 1.979 3.18 2.544 6.995 1.696 10.67-.918 3.603-3.18 6.782-6.43 8.62-14.414 8.55-49.602 32.22-49.602 32.22s-.283.707-.778 1.979c-8.62 22.469-29.959 37.378-53.983 37.661-1.06 0-2.049 0-3.038.07-5.653.071-11.094 2.261-15.263 6.077-5.228 4.805-12.365 11.305-16.534 15.121-2.261 2.049-5.229 3.038-8.267 2.826-4.875-.424-9.327-3.109-11.941-7.277a15.402 15.402 0 0 1-1.272-13.92c.494-1.343.848-2.191.848-2.191s9.539-20.561 26.144-25.366c5.723-2.685 9.397-8.409 9.539-14.697 0-.919.777-10.952-5.795-17.17-3.886-3.675-9.185-5.512-14.555-5.088" fill="#842306"/><path d="M238.914 324.112c45.151 0 81.752-36.601 81.752-81.823 0-45.221-36.601-81.823-81.752-81.823-45.151 0-81.753 36.672-81.753 81.823 0 45.151 36.602 81.823 81.753 81.823Z" fill="#CCC"/><path d="M177.229 295.99c14.979-17.241 37.095-28.122 61.685-28.122 24.589 0 46.705 10.881 61.685 28.122-14.98 17.241-37.096 28.122-61.685 28.122-24.59 0-46.706-10.881-61.685-28.122Zm83.377-75.534c0-11.235-9.115-20.35-20.35-20.35-11.235 0-20.35 9.115-20.35 20.35v20.915c0 11.235 9.115 20.35 20.35 20.35 11.235 0 20.35-9.115 20.35-20.35v-20.915Z" fill="#059688"/><path d="m146.138 220.88-2.614 2.332c-10.599 11.022-23.812 18.371-38.014 22.116-44.516 11.941-90.727-14.768-102.668-59.354-5.723-21.268-2.685-44.373 8.48-63.663 11.093-19.29 29.04-33.351 50.803-39.145 44.515-11.942 90.797 14.767 102.314 59.989 4.098 15.192 3.462 31.09-.777 45.787l-1.201 3.604 16.11 27.698-32.433.636Z" fill="#007171"/><path d="m129.039 173.821-.141-19.361c0-2.614-2.12-4.663-4.735-4.663-2.614 0-4.663 2.12-4.663 4.734l.141 19.431c0 2.615 2.12 4.664 4.734 4.664 2.544-.071 4.664-2.191 4.664-4.805Zm-81.399.353-.141-19.36c0-2.615-2.12-4.664-4.734-4.664-2.615 0-4.664 2.12-4.664 4.734l.141 19.361c0 2.614 2.12 4.663 4.735 4.663 2.614 0 4.734-2.119 4.663-4.734Zm61.191 8.621-.283-37.167c0-2.614-2.12-4.664-4.734-4.664-2.615 0-4.664 2.12-4.664 4.735l.283 37.166c0 2.615 2.12 4.664 4.734 4.664 2.615 0 4.664-2.12 4.664-4.734Zm-40.841.212-.283-37.167c0-2.614-2.12-4.663-4.734-4.663s-4.663 2.119-4.663 4.734l.282 37.166c0 2.615 2.12 4.664 4.734 4.664 2.544 0 4.664-2.12 4.664-4.734Zm20.632 7.772-.353-52.994c0-2.615-2.12-4.664-4.734-4.664-2.615 0-4.664 2.12-4.664 4.734l.353 52.995c0 2.614 2.12 4.663 4.734 4.663 2.615 0 4.664-2.12 4.664-4.734Z" fill="#fff"/></svg>