<svg class="sinch-icon" xmlns="http://www.w3.org/2000/svg" viewBox="0 0 726 800" fill="none" aria-hidden="true" focusable="false"><path d="M564.711 673.681c45.826 0 82.975-37.149 82.975-82.974 0-45.826-37.149-82.975-82.975-82.975-45.825 0-82.974 37.149-82.974 82.975 0 45.825 37.149 82.974 82.974 82.974Z" fill="#FFBE3C"/><path d="m607.09 608.535-8.639-8.592a13.01 13.01 0 0 0-14.187-2.825 13.01 13.01 0 0 0-4.222 2.825 6.401 6.401 0 0 1-8.286.699 77.958 77.958 0 0 1-9.503-8.262 78.77 78.77 0 0 1-8.238-9.424 6.432 6.432 0 0 1 .722-8.302 13.037 13.037 0 0 0 0-18.401l-8.639-8.639a13.347 13.347 0 0 0-9.448-3.918 13.347 13.347 0 0 0-9.448 3.918l-2.356 2.356a21.702 21.702 0 0 0-2.23 28.179 239.168 239.168 0 0 0 53.845 53.908 21.697 21.697 0 0 0 28.202-2.191l2.395-2.356a13.378 13.378 0 0 0 3.957-9.481 13.379 13.379 0 0 0-3.925-9.494Z" fill="#fff"/><path d="M617.331 215.772c59.584 0 107.886-48.302 107.886-107.886C725.217 48.302 676.915 0 617.331 0c-59.584 0-107.886 48.302-107.886 107.886 0 59.584 48.302 107.886 107.886 107.886Z" fill="#FFBE3C"/><path d="M612.124 36.308a96.947 96.947 0 0 1-43.423 22.516 8.165 8.165 0 0 0-6.377 7.933v41.97c0 42.237 38.829 67.062 51.465 74.021a8.146 8.146 0 0 0 7.854 0c12.629-6.974 51.465-31.847 51.465-74.021v-41.9a8.176 8.176 0 0 0-6.464-7.924A96.86 96.86 0 0 1 622.97 36.33a8.112 8.112 0 0 0-10.846-.023Zm21.841 115.575a105.893 105.893 0 0 1-13.351 10.586 5.22 5.22 0 0 1-5.812 0 106.772 106.772 0 0 1-12.715-9.95c-14.537-13.352-21.912-28.077-21.912-43.792V78.066a5.217 5.217 0 0 1 3.582-4.932 114.387 114.387 0 0 0 17.278-7.414 116.036 116.036 0 0 0 13.43-8.388 5.251 5.251 0 0 1 6.173 0 115.328 115.328 0 0 0 13.61 8.45 108.997 108.997 0 0 0 8.317 3.975 4.108 4.108 0 0 1 1.272 6.675l-31.414 31.415-10.917-10.917a5.448 5.448 0 0 0-3.852-1.598 5.441 5.441 0 0 0-3.852 1.598l-4.917 4.917a5.44 5.44 0 0 0 0 7.704l18.676 18.684a6.874 6.874 0 0 0 9.723 0l32.098-32.098a3.435 3.435 0 0 1 3.74-.744 3.432 3.432 0 0 1 2.119 3.17v10.148c-.024 15.464-7.171 29.977-21.276 43.172Z" fill="#fff"/><path d="M103.331 664.979c37.363 0 67.651-30.289 67.651-67.652s-30.288-67.651-67.651-67.651-67.652 30.288-67.652 67.651 30.289 67.652 67.652 67.652Z" fill="#FFBE3C"/><path d="M103.669 563.203a22.834 22.834 0 0 0-17.39 8.025 22.84 22.84 0 0 0-5.166 18.442c1.853 12.566 12.29 30.072 18.291 39.331a5.082 5.082 0 0 0 8.521 0c6.008-9.259 16.438-26.781 18.299-39.331a22.828 22.828 0 0 0-5.166-18.442 22.83 22.83 0 0 0-17.389-8.025Zm0 32.271a9.43 9.43 0 0 1-8.707-5.818 9.423 9.423 0 1 1 8.707 5.818Z" fill="#fff"/><path d="M82.974 182.92c45.826 0 82.974-37.149 82.974-82.974S128.8 16.972 82.974 16.972C37.15 16.972 0 54.12 0 99.946c0 45.825 37.149 82.974 82.974 82.974Z" fill="#FFBE3C"/><path d="M112.308 70.11H53.641a17.121 17.121 0 0 0-17.098 17.066v40.603a2.49 2.49 0 0 0 2.482 2.482h73.283a17.115 17.115 0 0 0 17.097-17.097V87.176a17.113 17.113 0 0 0-17.097-17.066Zm-50.264 35.915a6.083 6.083 0 0 1-5.97-7.263 6.079 6.079 0 1 1 5.97 7.263Zm20.97 0a6.081 6.081 0 0 1-5.962-7.268 6.079 6.079 0 1 1 5.922 7.268h.04Zm20.969 0a6.08 6.08 0 0 1-4.296-10.38 6.078 6.078 0 0 1 10.375 4.309 6.074 6.074 0 0 1-6.118 6.071h.039Z" fill="#fff"/><circle cx="332.068" cy="338" r="212" fill="#A8D7E2"/><mask id="b" style="mask-type:alpha" maskUnits="userSpaceOnUse" x="115" y="120" width="430" height="430"><path d="M329.957 549.734c118.508 0 214.578-96.07 214.578-214.578 0-118.508-96.07-214.578-214.578-214.578-118.509 0-214.579 96.07-214.579 214.578 0 118.508 96.07 214.578 214.579 214.578Z" fill="#A8D7E2"/></mask><g mask="url(#b)"><path d="M544.818 491.499a61.354 61.354 0 0 1-29.381 8.42 14.341 14.341 0 0 1-11.474-5.255l-3.086-3.754a12.04 12.04 0 0 0-10.265-4.358 73.247 73.247 0 0 1-38.201-7.069 11.78 11.78 0 0 0-8.976-.652 36.207 36.207 0 0 1-22.046.385 6.414 6.414 0 0 0-6.416 1.618l-.212.204a4.89 4.89 0 0 1-5.584.974c-2.788-1.343-7.068-2.945-10.83-2.427-11.05 1.571-12.338 9.998-18.15 12.825a16.493 16.493 0 0 1-16.493-2.568c-9.66-7.547-4.1-18.943-12.919-26.765-4.367-3.88-9.699-4.013-13.988-3.142a4.376 4.376 0 0 1-4.111-1.394 4.365 4.365 0 0 1-.876-4.252l3.22-9.888a6.146 6.146 0 0 0-6.763-7.285 6.153 6.153 0 0 0-3.446 1.591 17.708 17.708 0 0 1-10.564 4.956 19.76 19.76 0 0 1-21.354-22.305 21.208 21.208 0 0 1 19.643-18.695 21.22 21.22 0 0 1 9.589 1.59 12.49 12.49 0 0 0 9.628 0 21.203 21.203 0 0 1 27.787 11.529 4.447 4.447 0 0 0 2.337 2.442 4.45 4.45 0 0 0 5.852-2.206 4.451 4.451 0 0 0 .143-3.377 25.478 25.478 0 0 1 15.087-32.004 9.266 9.266 0 0 0 5.945-9.652 24.349 24.349 0 0 1 3.22-14.969 29.244 29.244 0 0 1 5.294-6.228 15.042 15.042 0 0 0 4.312-6.888 45.53 45.53 0 0 1 4.374-9.527 4.851 4.851 0 0 1 3.211-2.3 4.855 4.855 0 0 1 3.857.847 5.443 5.443 0 0 0 6.283.118l12.064-8.215a3.598 3.598 0 0 0-2.718-6.534l-3.455.652a3.83 3.83 0 0 1-4.524-3.762 3.65 3.65 0 0 0-3.652-3.644 8.789 8.789 0 0 0-5.576 1.995l-5.883 4.845a2.446 2.446 0 0 1-3.283-.157 2.436 2.436 0 0 1-.164-3.275 33.487 33.487 0 0 1 10.728-8.733c7.39-3.542 16.846-2.804 19.359-8.27 2.513-5.466-1.775-12.723-8.576-18.919a131.428 131.428 0 0 0-13.273-10.344 5.552 5.552 0 0 0-4.484-.848 16.568 16.568 0 0 1-10.265-.722 13.086 13.086 0 0 1-7.281-7.249 5.763 5.763 0 0 0-2.866-2.993l-7.579-3.534a5.07 5.07 0 0 0-6.622 2.236 5.08 5.08 0 0 0-.58 2.476l-.282 39.685a2.786 2.786 0 0 1-1.792 2.488 2.782 2.782 0 0 1-2.991-.674 27.098 27.098 0 0 1-4.006-5.199c-3.063-5.317-1.61-9.346-6.448-13.351-4.837-4.006-12 .997-16.437-7.618-3.927-7.587 2.167-13.289 10.209-21.347 3.88-3.879 12.417-13.225 16.446-17.278 1.932-1.963 1.641-5.112-.919-6.11-3.141-1.233-6.715-2.654-8.207-3.385a12.294 12.294 0 0 1-7.359-10.995 3.197 3.197 0 0 0-6.283-.652l-1.987 7.917a3.016 3.016 0 0 1-5.945-.739v-9.306c0-3.927-3.495-7.218-6.283-9.228a15.656 15.656 0 0 1-5.301-6.77 6.286 6.286 0 0 0-8.406-3.735 6.304 6.304 0 0 0-2.102 1.464 6.289 6.289 0 0 0-1.021 7.187l.989 2.246a16.041 16.041 0 0 0 4.469 5.883l4.029 3.306a3.494 3.494 0 0 1 1.131 3.668 3.481 3.481 0 0 1-5.655 1.626l-29.428-26.137a7.674 7.674 0 0 1-2.167-8.113c1.468-4.555 1.57-10.815-4.587-14.844a13.114 13.114 0 0 0-13.194-.856 20.425 20.425 0 0 1-8.521 1.948h-.377a7.235 7.235 0 0 0-6.637 4.359l-.534 1.233a4.223 4.223 0 0 1-5.128 2.356c-3.267-.998-8.286-1.571-12.645 1.712a13.793 13.793 0 0 0-5.458 9.291 3.63 3.63 0 0 1-1.943 2.738 3.64 3.64 0 0 1-3.358-.021c-.354-.196-.691-.4-1.021-.612a2.97 2.97 0 0 0-3.864 4.421 13.21 13.21 0 0 0 2.552 2.356c8.553 6.032 22.517 3.189 28.973 19.368 5.497 13.704-6.888 25.548-8.765 40.839a63.872 63.872 0 0 0 .118 16.65 23.719 23.719 0 0 1-3.927 16.877 92.913 92.913 0 0 0-16.359 53.201c0 24.543 9.157 46.706 23.891 62.547a2.2 2.2 0 0 0 3.424-2.741 75.887 75.887 0 0 1-11.522-27.166 3.442 3.442 0 0 1 4.386-3.974 3.457 3.457 0 0 1 2.093 1.813c.204.431.317.899.331 1.376a62.394 62.394 0 0 0 5.246 22.139c5.411 12.268 10.21 20.027 4.853 26.436a5.053 5.053 0 0 0-.526 5.615 5.147 5.147 0 0 0 3.888 2.639c10.995 1.437 15.652 12.173 27.488 19.414 12.738 7.775 26.035 6.44 40.58 15.543 10.571 6.612 16.1 22.5 26.097 27.378 8.058 3.926 14.977 4.885 20.067 4.79h2.489a4.333 4.333 0 0 1 4.046 2.66 4.34 4.34 0 0 1 .337 1.668v7.068a8.722 8.722 0 0 1-8.71 8.71 7.18 7.18 0 0 0-6.197 3.55l-1.343 2.293a11.825 11.825 0 0 0-1.618 5.969v2.356a11.841 11.841 0 0 0 6.158 10.367 101.846 101.846 0 0 1 18.016 12.566c6.888 6.094 10.673 11.332 12.629 14.631a7.568 7.568 0 0 0 6.526 3.699 2.796 2.796 0 0 1 2.796 2.796v17.215h136.065l-.447-61.408c-.66-14.513 6.769-25.603 11.717-31.32a6.57 6.57 0 0 0 .058-8.497 6.569 6.569 0 0 0-8.375-1.438l-.039-.087Z" fill="#059688"/></g><path d="M355.772 209.254a5.891 5.891 0 0 0 .479 5.921c1.437 2.074 2.568 3.142 6.676 5.498 7.853 4.555 17.553 4.241 18.471 12.401a7.063 7.063 0 0 1-2.835 6.715 3.93 3.93 0 0 0-1.534 3.497 3.923 3.923 0 0 0 2.163 3.147l14.505 7.068a6.59 6.59 0 0 0 7.545-1.267 6.604 6.604 0 0 0 1.479-2.259l2.435-6.212a6.564 6.564 0 0 0-.786-6.283c-5.984-8.074-10.319-5.176-14.207-10.548-4.319-5.968-.078-9.275-9.825-13.83-5.922-2.772-11.937-4.422-16.807-6.621a5.88 5.88 0 0 0-7.759 2.773Zm81.325 90.372a4.904 4.904 0 0 0-.581 6.919l6.283 7.445a4.916 4.916 0 0 0 7.508-6.346l-6.283-7.437a4.915 4.915 0 0 0-6.927-.581Zm12.55-95.187a10.535 10.535 0 0 0 2.95-3.667 10.533 10.533 0 0 0 1.055-4.587c0-8.176-6.196-11.78-12.848-17.207-6.652-5.427-22.336-9.158-32.2-15.472-9.056-5.788-20.875-1.971-26.774 6.935a2.493 2.493 0 0 1-1.735 1.076l-.503.07a2.557 2.557 0 0 1-2.921-2.639 2.574 2.574 0 0 0-1.632-2.496 2.578 2.578 0 0 0-1.039-.174c-6.283.22-16.917 5.639-16.917 17.278 0 8.184 4.1 12.252 7.32 14.176a3.288 3.288 0 0 0 4.838-1.885l3.259-10.814a3.456 3.456 0 0 1 6.699.33 20.077 20.077 0 0 0 9.904 13.351c5.238 2.898 12.299 6.974 17.686 10.108a16.054 16.054 0 0 1 7.988 13.893v6.047a14.644 14.644 0 0 0 4.712 10.83c6.558 5.985 19.783 14.137 38.75 6.833a3.619 3.619 0 0 0 .947-6.189 3.62 3.62 0 0 0-2.337-.801c-4.194.079-11.828-1.021-11.828-10.013v-15.221a12.72 12.72 0 0 1 4.626-9.762Zm-61.542 235.807-32.702-6.825a3.38 3.38 0 0 0-4.034 2.267 3.377 3.377 0 0 0 2.015 4.165l30.763 12.959a6.601 6.601 0 0 0 5.303-.149 6.593 6.593 0 0 0 3.483-4.002 6.606 6.606 0 0 0-4.859-8.415h.031Zm15.574 3.589a5.634 5.634 0 0 0-4.526 1.244 5.629 5.629 0 0 0-2.011 4.242 5.644 5.644 0 0 0 1.903 4.292 5.64 5.64 0 0 0 4.493 1.359l16.697-2.239a3.139 3.139 0 0 0 3.185-3.098 3.144 3.144 0 0 0-3.099-3.185l-16.642-2.615Zm61.314-228.927a5.656 5.656 0 0 0 4.396.672 5.679 5.679 0 0 0 3.529-2.706l6.801-11.898a6.289 6.289 0 0 0-.776-7.473 6.283 6.283 0 0 0-7.384-1.386l-9.762 4.555a5.734 5.734 0 0 0-3.299 5.301c.157 7.194 3.401 10.972 6.495 12.935Z" fill="#059688"/><path d="M372.901 375.642a252.37 252.37 0 0 1-11.985-48.638 9.423 9.423 0 0 0 4.549-10.603 9.426 9.426 0 1 0-13.698 10.603 253.086 253.086 0 0 1-11.985 48.638c0 .102-.063.204-.087.314a3.224 3.224 0 0 0 2.22 3.799 3.223 3.223 0 0 0 3.938-1.961 10.99 10.99 0 0 1 10.484-7.296 10.991 10.991 0 0 1 10.493 7.343 3.229 3.229 0 0 0 1.664 1.819 3.225 3.225 0 0 0 4.282-1.555 3.21 3.21 0 0 0 .109-2.463h.016Zm-16.564-59.822a2.963 2.963 0 0 1 2.743 1.833 2.964 2.964 0 0 1-2.163 4.048 2.974 2.974 0 0 1-3.548-2.912 2.966 2.966 0 0 1 2.968-2.969ZM359 351.397h-5.317c1.107-4.641 1.979-12.055 2.654-15.644.676 3.581 1.555 11.003 2.663 15.644Zm-2.647 12.661a17.863 17.863 0 0 0-6.361 1.162c.785-2.529 1.445-5.003 2.081-7.39h8.568a294.512 294.512 0 0 0 2.081 7.39 17.815 17.815 0 0 0-6.369-1.162Zm-48.379 31.689a253.312 253.312 0 0 1-11.992-48.614 9.425 9.425 0 1 0-9.142 0 253.033 253.033 0 0 1-11.961 48.614c0 .102-.063.205-.086.307a3.219 3.219 0 0 0 6.157 1.83 10.99 10.99 0 0 1 10.484-7.289 11 11 0 0 1 10.493 7.343 3.219 3.219 0 0 0 5.202 1.277 3.207 3.207 0 0 0 1.043-2.233 3.208 3.208 0 0 0-.19-1.243l-.008.008Zm-16.563-59.821a2.969 2.969 0 1 1 0 5.938 2.969 2.969 0 0 1 0-5.938Zm2.662 35.553h-5.324c1.115-4.633 1.986-12.055 2.662-15.636.675 3.597 1.531 11.018 2.662 15.636Zm-2.646 12.668a17.666 17.666 0 0 0-6.362 1.163c.786-2.529 1.445-5.003 2.081-7.391h8.569a231.416 231.416 0 0 0 2.081 7.391 17.808 17.808 0 0 0-6.369-1.147v-.016Zm-12.794-71.665a253.046 253.046 0 0 1-11.985-48.598 9.424 9.424 0 1 0-9.149 0 252.223 252.223 0 0 1-11.985 48.638c-.039.099-.07.202-.094.306a3.219 3.219 0 0 0 4.985 3.38 3.232 3.232 0 0 0 1.18-1.542 10.996 10.996 0 0 1 10.492-7.296 10.99 10.99 0 0 1 10.501 7.343 3.22 3.22 0 0 0 6.047-2.199l.008-.032Zm-16.556-59.821a2.97 2.97 0 1 1-2.976 2.969 2.975 2.975 0 0 1 2.976-2.969Zm2.655 35.577h-5.317c1.107-4.634 1.979-12.055 2.662-15.645.676 3.59 1.548 11.011 2.655 15.637v.008Zm-2.639 12.66a17.881 17.881 0 0 0-6.369 1.163c.754-2.529 1.448-4.99 2.081-7.383h8.568a297.24 297.24 0 0 0 2.082 7.383 17.756 17.756 0 0 0-6.362-1.163Z" fill="#fff"/><path d="M375.155 317.179c8.733-2.482 2.199-14.686-4.712-8.812-3.621 3.605-.299 9.833 4.712 8.812Zm2.654-187.923c5.561 4.006 11.687-4.154 6.283-8.372-5.591-4.005-11.702 4.178-6.283 8.372Zm33.3 28.226c-5.969 3.44-.958 12.37 5.066 9.134 5.945-3.432.981-12.37-5.066-9.134Zm21.629 50.586c-.613-6.833-10.791-6.111-10.414.746.597 6.848 10.775 6.094 10.414-.746Zm-95.359-99.687c6.675 1.461 9.063-8.474 2.356-10.21-6.692-1.382-9.008 8.553-2.356 10.21Zm89.932 119.243c-6.801-.943-8.38 9.141-1.618 10.319 6.77.958 8.396-9.141 1.618-10.319Zm-30.7 65.146c-4.901-4.807-12.165 2.356-7.429 7.327 4.916 4.814 12.189-2.364 7.429-7.327Zm28.273-34.565c2.443-6.408-7.068-10.209-9.691-3.879-2.45 6.416 6.998 10.233 9.691 3.879Zm-62.688-150.743c-6.283-2.772-10.555 6.495-4.374 9.487 6.235 2.773 10.579-6.495 4.374-9.487Zm49.337 165.972c-5.741-3.77-11.482 4.673-5.874 8.639 5.678 3.754 11.45-4.673 5.874-8.639Zm-11.89-126.099c9.573-.926 4.406-14.749-3.44-9.141-3.652 2.968-1.163 9.322 3.44 9.141Zm18.464 38.656c2.112 6.558 11.867 3.573 10.005-3-2.081-6.542-11.867-3.613-10.005 3Zm-170.716 70.534c-3.636-7.429-14.011-.597-8.513 5.686 3.927 4.029 10.673-.518 8.513-5.686Zm-71.979 24.959c-5.168 4.539 1.437 12.307 6.746 7.971 5.168-4.523-1.437-12.314-6.746-7.971Zm-41.075 59.366c-2.356 6.424 7.171 10.116 9.755 3.723 2.348-6.464-7.21-10.108-9.755-3.723Zm61.22-73.244c-5.977 3.432-.982 12.37 5.042 9.142 5.953-3.44.989-12.354-5.042-9.142Zm-58.903 166.357c-1.421-6.722-11.45-4.712-10.21 2.011 1.414 6.73 11.404 4.72 10.21-2.011Zm-7.751-17.034c6.856-.479 6.282-10.689-.566-10.422-6.864.479-6.275 10.713.566 10.422Zm89.147-158.873c-6.542 2.144-3.472 11.906 3.071 9.974 6.526-2.112 3.494-11.882-3.071-9.974Zm-52.337 40.086c-5.396-4.249-11.851 3.66-6.613 8.089 5.38 4.257 11.859-3.652 6.613-8.089Zm-24.535 157.71c-2.356-6.44-12.008-3.079-9.856 3.447 2.403 6.425 12.016 3.048 9.856-3.447Zm-12.668-62.383c6.833.456 7.712-9.722.864-10.414-6.856-.416-7.689 9.763-.864 10.414Zm23.262-76.494c-6.023-3.299-11.073 5.576-5.167 9.071 5.992 3.306 11.089-5.56 5.167-9.071Zm-18.157 43.062c-6.731-1.383-8.953 8.568-2.286 10.209 6.692 1.375 8.977-8.576 2.286-10.209Zm173.598-4.155c6.722-1.571 4.759-11.388-2.042-10.21-6.731 1.524-4.768 11.364 2.042 10.21Zm54.371 80.917c4.421-5.246-3.275-11.961-7.854-6.864-4.437 5.246 3.252 11.961 7.854 6.864Zm20.427 13.775c3.448-5.937-5.309-11.215-8.945-5.387-3.44 5.921 5.285 11.215 8.945 5.387Zm-69.309-81.561c-6.283 2.898-2.049 12.244 4.226 9.55 6.228-2.874 2.104-12.228-4.226-9.55Zm24.433 42.685c-5.215 4.477 1.32 12.338 6.668 8.035 5.215-4.469-1.312-12.331-6.668-8.035Zm-6.495-18.77c-3.667-5.804-12.393-.495-8.929 5.435 3.722 5.803 12.401.479 8.929-5.435Zm190.059 45.135c-4.256-5.396-12.377.785-8.317 6.322 4.257 5.403 12.354-.801 8.317-6.322Zm-49.478 19.492c-6.652 1.822-4.068 11.71 2.576 10.124 6.582-1.815 4.06-11.694-2.576-10.124Zm22.069-8.112c-6.134 3.141-1.618 12.306 4.571 9.424 6.118-3.149 1.633-12.315-4.571-9.424Zm60.301-48.08a5.221 5.221 0 0 0-3.939-.692 5.22 5.22 0 0 0-3.271 2.302 5.253 5.253 0 0 0 4.398 8.026c5.081.118 7.218-6.958 2.812-9.636Zm-18.951 28.406c4.586.165 7.068-6.078 3.502-9.094-7.83-5.749-13.139 8.136-3.502 9.094Zm-130.018 30.598c2.277-6.479-7.304-10.013-9.794-3.62-2.269 6.456 7.281 10.045 9.794 3.62Zm24.079 5.271c.958-6.802-9.118-8.412-10.312-1.642-.974 6.77 9.095 8.411 10.312 1.642Zm19.65 5.795c6.849-.416 6.393-10.626-.463-10.429-6.864.416-6.393 10.634.463 10.429Zm117.625-90.231c-3.66-7.422-14.003-.589-8.514 5.686 3.896 4.021 10.736-.542 8.514-5.686Zm-18.527-132.57c8.294-.471 5.804-12.833-2.034-10.037-5.215 2.112-3.511 10.139 2.034 10.037ZM113.47 415.271c-2.497-6.401-12.071-2.851-9.794 3.629 2.529 6.424 12.064 2.843 9.794-3.629ZM509.1 186.753c9.534-.904 4.46-14.702-3.393-9.181-3.715 2.961-1.257 9.346 3.393 9.181ZM97.284 375.131c6.769-1.123 5.269-11.215-1.571-10.335-6.762 1.139-5.215 11.239 1.57 10.335Zm9.086 17.412c-1.806-6.621-11.694-4.092-10.115 2.591 1.845 6.645 11.71 4.061 10.115-2.591Zm459.574-62.609c-6.864.117-6.856 10.327 0 10.445 6.865-.118 6.865-10.328 0-10.445Zm-1.39-21.088c-6.832.73-5.913 10.901.919 10.406 6.825-.722 5.938-10.893-.919-10.406ZM142.851 191.229c5.403 4.226 11.819-3.73 6.55-8.136-5.412-4.21-11.828 3.738-6.55 8.136Zm413.638 99.703c1.445 6.738 11.45 4.712 10.257-1.987-1.422-6.723-11.443-4.775-10.257 1.987Zm-394.13-116.706c4.485.165 7.069-5.835 3.676-8.921a5.214 5.214 0 0 0-7.375 0c-3.314 3.141-.762 9.086 3.699 8.921Zm-45.08 58.4c6.134 3.024 10.822-6.063 4.712-9.298-6.133-3.016-10.775 6.078-4.712 9.298Zm375.037-63.512c4.524.165 7.068-5.953 3.589-9.009-7.799-5.968-13.328 7.964-3.589 9.009Zm-384.477 85.974c6.401 2.356 10.139-7.155 3.754-9.747-6.448-2.356-10.123 7.163-3.754 9.747Zm206.308-149.479c7.069-.142 6.747-10.744-.337-10.438-6.676.534-6.33 10.351.337 10.438Zm94.033 12.377c6.455 2.23 9.982-7.383 3.542-9.825-6.472-2.23-9.967 7.39-3.542 9.825ZM94.425 350.942c6.856-.416 6.401-10.618-.456-10.43-6.864.417-6.393 10.626.456 10.43Zm290.963-239.851c6.652 1.57 9.158-8.38 2.498-10.147-6.692-1.524-9.134 8.395-2.498 10.147Zm-284.61 167.314c6.613 1.689 9.354-8.16 2.718-10.076-6.644-1.689-9.315 8.168-2.718 10.076Zm-6.714 48.183a5.217 5.217 0 0 0 5.497-4.909c.283-6.864-9.911-7.445-10.422-.604a5.225 5.225 0 0 0 4.925 5.513Zm2.112-24.221c6.762.974 8.443-9.095 1.657-10.312-6.793-1.013-8.419 9.047-1.657 10.312Zm32.821-91.103c5.796 3.644 11.388-4.916 5.678-8.757-5.812-3.644-11.372 4.933-5.678 8.757Zm327.514-81.49c-5.906-3.51-11.27 5.184-5.497 8.883 5.882 3.495 11.285-5.144 5.497-8.883Zm-8.199 403.531c-5.843 3.644-.558 12.393 5.364 8.961 5.827-3.621.589-12.385-5.364-8.961Zm19.768-13.265c-5.427 4.225.714 12.37 6.283 8.364 5.403-4.209-.715-12.416-6.283-8.364Zm8.906-376.114c-5.498-4.099-11.734 3.99-6.37 8.27 5.49 4.092 11.75-3.989 6.37-8.27Zm-94.669 416.042c-6.691 1.688-4.311 11.631 2.356 10.21 6.66-1.705 4.359-11.648-2.356-10.21Zm104.077-55.156c-4.963 4.751 1.964 12.236 7.069 7.68 4.987-4.743-1.948-12.212-7.069-7.68Zm-51.716-387.007c-6.236-2.882-10.665 6.283-4.54 9.425 6.181 2.866 10.697-6.283 4.54-9.425Zm-7.398 426.668c-6.197 3.016-1.822 12.259 4.406 9.424 6.173-2.968 1.838-12.236-4.406-9.424Zm-22.077 8.905c-6.487 2.356-3.086 12.009 3.401 9.88 6.456-2.348 3.126-12-3.401-9.88Zm155.55-288.599c-2.113-6.534-11.883-3.55-9.99 3.047 2.136 6.558 11.859 3.527 9.99-3.047Zm-19.359-45.795c-3.409-5.961-12.346-1.029-9.15 5.034 3.44 5.977 12.362 1.013 9.15-5.034Zm23.851 135.303c-6.856-.596-7.853 9.574-1.068 10.383 6.786.597 7.901-9.574 1.068-10.383Zm-54.818 133.034c-5.223-4.453-11.985 3.196-6.919 7.853 5.222 4.438 11.984-3.227 6.919-7.853Zm14.733-19.406c-5.654-3.927-11.584 4.421-6.071 8.505 5.632 3.896 11.6-4.414 6.071-8.505Zm-384.273 8.592c-5.332 4.335.982 12.361 6.44 8.222 5.333-4.335-.966-12.361-6.44-8.222Zm380.126-279.992a5.224 5.224 0 0 0-1.311 7.264c4.029 5.577 12.385-.267 8.576-5.953a5.226 5.226 0 0 0-7.265-1.311Zm16.807 250.596c-6.023-3.299-11.073 5.576-5.16 9.078 6.001 3.252 11.09-5.568 5.16-9.078ZM197.128 133.803c-5.687 3.888 0 12.409 5.756 8.71 5.631-3.88-.008-12.401-5.756-8.71Zm23.443 404.607c-6.087-3.142-10.94 5.827-4.956 9.196 6.063 3.158 10.972-5.819 4.956-9.196Zm21.527 10.201c-6.393-2.497-10.281 6.935-3.982 9.66 6.353 2.521 10.304-6.943 3.982-9.66Zm-41.876-22.571c-5.733-3.762-11.49 4.665-5.883 8.639 5.718 3.762 11.506-4.673 5.883-8.639Zm18.307-404.873c-6.04 3.298-1.273 12.33 4.838 9.259 6.023-3.283 1.311-12.322-4.838-9.259Zm-37.274 390.462c-5.333-4.335-11.906 3.479-6.746 7.987 5.34 4.343 11.906-3.463 6.746-7.987Zm-4.194-363.053c-5.23 4.469 1.257 12.338 6.629 8.082 5.23-4.453-1.241-12.339-6.629-8.082Zm-20.592 346.653c-4.854 4.854 2.23 12.197 7.249 7.516 4.861-4.822-2.223-12.196-7.249-7.516ZM289.055 97.386c-6.778 1.288-4.987 11.356 1.759 10.288 6.739-1.241 5.019-11.325-1.759-10.288Zm46.07 468.488c-6.857.267-6.621 10.469.227 10.438 6.864-.267 6.637-10.477-.227-10.438Zm-23.805-.684c-6.856-.432-7.673 9.754-.832 10.414 6.801.432 7.673-9.754.832-10.414Zm47.593-1.06c-6.809.982-5.497 11.113 1.296 10.367 6.762-.974 5.49-11.097-1.296-10.367ZM241.179 110.808c-6.37 2.646-2.537 12.141 3.84 9.707 6.338-2.623 2.576-12.134-3.84-9.707Zm23.38 445.72c-6.628-1.83-9.503 7.972-2.961 10.022 6.574 1.845 9.535-7.956 2.961-10.022Zm23.153 5.545c-6.77-1.131-8.639 8.906-1.901 10.273 6.739 1.131 8.647-8.899 1.901-10.273Zm-22.948-459.19c-6.605 1.979-3.778 11.781 2.819 10.053 6.574-1.979 3.825-11.82-2.819-10.053Z" fill="#FFBE3C"/><path d="M335.352 426.636a32.795 32.795 0 0 1 23.212 9.598 32.8 32.8 0 0 1 9.609 23.207v16.492h-65.578v-16.492a32.79 32.79 0 0 1 32.757-32.805Zm83.249 116.195a59.058 59.058 0 0 0-48.237-31.359c-9.636-.637-21.283-1.1-34.87-1.1-13.587 0-25.03.463-34.556 1.1a59.038 59.038 0 0 0-48.175 31.352l-41.004 77.547 57.355 14.993v48.92h133.199v-47.907l56.971-16.611-40.683-76.935Z" fill="#0A273D"/><path d="M361.521 538.33h-51.882a2.204 2.204 0 0 1-2.206-2.269l1.036-36.913h54.191l1.036 36.913a2.206 2.206 0 0 1-2.175 2.269Z" fill="#fff"/><path d="M334.363 537.687c-11.993-10.995-31.376-25.187-31.415-41.923a29.96 29.96 0 0 0-2.395-11.977l-3.684-8.332a5.654 5.654 0 0 1 .442-5.357 5.646 5.646 0 0 1 4.726-2.56h15.652a26.033 26.033 0 0 0 26.02-25.132 26.078 26.078 0 0 0 26.042 25.132 5.643 5.643 0 0 1 4.734 2.575 5.648 5.648 0 0 1 .418 5.373c-2.505 5.859-6.754 14.05-6.754 20.608 0 15.974-19.265 30.724-31.328 41.625a1.852 1.852 0 0 1-2.458-.032Z" fill="#894915"/><path d="M319.896 492.143a12.364 12.364 0 0 1-11.434-7.632 12.37 12.37 0 1 1 23.796-4.729 12.385 12.385 0 0 1-12.362 12.361Zm0-21.283a8.916 8.916 0 0 0-8.242 5.508 8.916 8.916 0 0 0 1.934 9.722 8.914 8.914 0 0 0 9.723 1.934 8.92 8.92 0 0 0 2.894-14.551 8.921 8.921 0 0 0-6.309-2.613Zm30.873 21.283a12.361 12.361 0 0 1-11.434-7.632 12.37 12.37 0 1 1 23.796-4.729 12.377 12.377 0 0 1-12.362 12.361Zm0-21.283a8.918 8.918 0 0 0-8.237 5.513 8.92 8.92 0 1 0 8.237-5.513Zm-14.702 40.046a16.588 16.588 0 0 1-11.78-4.869 1.807 1.807 0 0 1 2.552-2.553 13.027 13.027 0 0 0 18.417 0 1.806 1.806 0 0 1 2.552 2.553 16.594 16.594 0 0 1-11.741 4.869Z" fill="#0A273D"/><path d="M451.461 659.497c-68.9 20.561-162.445 20.545-231.314-.039a31.928 31.928 0 0 0-37.36 15.707l-.15.283a31.995 31.995 0 0 0-1.497 26.656 31.998 31.998 0 0 0 7.6 11.356 31.996 31.996 0 0 0 11.647 7.147l79.691 27.731v38.734l55.431-19.445 54.442 18.943v-38.208l81.05-27.991a31.96 31.96 0 0 0 19.276-18.412 31.971 31.971 0 0 0-1.377-26.621 31.956 31.956 0 0 0-37.439-15.841Z" fill="#007171"/><path d="m422.018 793.222 32.71-41.852c8.027-10.273-2.238-24.684-14.568-20.459l-76.181 26.106s-5.019 18.668 14.089 25.406c6.77 2.356 12.346 6.88 16.713 11.694a17.793 17.793 0 0 0 13.827 5.902 17.784 17.784 0 0 0 13.41-6.797Zm-172.687 0-32.687-41.813c-8.034-10.273 2.23-24.684 14.561-20.459l76.18 26.106s5.019 18.668-14.089 25.406c-6.77 2.356-12.338 6.88-16.713 11.694a17.787 17.787 0 0 1-27.252-.934Z" fill="#0A273D"/><path d="M238.948 663.621c16.661 0 30.167-13.506 30.167-30.166s-13.506-30.166-30.167-30.166c-16.66 0-30.166 13.506-30.166 30.166s13.506 30.166 30.166 30.166Zm193.437 0c16.66 0 30.166-13.506 30.166-30.166s-13.506-30.166-30.166-30.166c-16.661 0-30.166 13.506-30.166 30.166s13.505 30.166 30.166 30.166Z" fill="#fff"/><path d="m341.266 552.9 26.546-8.443a15.2 15.2 0 0 1 18.167 7.631 15.197 15.197 0 0 1 1.632 6.89 25.172 25.172 0 0 0 9.636 19.878l48.057 37.658a21.205 21.205 0 0 1 4.076 29.193 21.216 21.216 0 0 1-16.69 8.774 21.203 21.203 0 0 1-17.081-7.989l-45.347-56.594a15.422 15.422 0 0 1-15.15-19.359l3.393-12.802-15.377 3.315-1.862-8.152Z" fill="#894915"/><path d="M348.397 538.3h-25.296a5.662 5.662 0 0 0-5.663 5.662v51.803a5.662 5.662 0 0 0 5.663 5.663h25.296a5.662 5.662 0 0 0 5.663-5.663v-51.803a5.662 5.662 0 0 0-5.663-5.662Z" fill="#4A5961"/><path d="M309.891 481.667h-5.553a1.572 1.572 0 0 1-1.571-1.571v-15.158h3.142v13.587h3.982v3.142Zm56.57 0h-5.639v-3.142h4.068v-13.587h3.141v15.158a1.57 1.57 0 0 1-1.57 1.571Z" fill="#0A273D"/><path d="M352.026 582.005a3.927 3.927 0 0 0-3.927-3.927h-18.315l17.938-9.314a3.919 3.919 0 0 0 1.688-5.341 3.924 3.924 0 0 0-5.159-1.782l-26.813 12.212v-4.186h-1.366a13.306 13.306 0 0 0-11.318 6.283l-2.968 4.799a10.493 10.493 0 0 1-4.799 4.123l-67.008 28.501a21.822 21.822 0 0 0-11.994 12.67 21.815 21.815 0 0 0 1.133 17.41 21.822 21.822 0 0 0 14.311 11.187 21.822 21.822 0 0 0 17.818-3.53l57.709-41.625c14.922 1.171 18.26-8.073 18.26-8.073h15.542a3.764 3.764 0 0 0 2.549-6.357 3.762 3.762 0 0 0-2.549-1.159h2.357a3.98 3.98 0 0 0 3.981-3.982 3.982 3.982 0 0 0-3.981-3.982h3.007a3.928 3.928 0 0 0 3.904-3.927Z" fill="#894915"/></svg>