<svg class="sinch-icon" xmlns="http://www.w3.org/2000/svg" viewBox="0 0 275 400" fill="none" aria-hidden="true" focusable="false"><path d="M161.148 325.188c-1.502 0-2.867-.956-3.276-2.458-23.618-84.641-74.267-162.593-74.813-163.276-1.092-1.638-.546-3.686.956-4.778 1.638-1.092 3.686-.546 4.778.955.546.82 51.741 79.454 75.631 165.188.547 1.775-.546 3.686-2.32 4.232-.41 0-.683.137-.956.137Z" fill="#007171"/><path d="M151.182 310.99c-1.775 0-3.276-1.366-3.413-3.14C139.715 207.645 94.39 68.26 93.844 66.894c-.546-1.775.41-3.686 2.184-4.369 1.775-.546 3.686.41 4.369 2.185.41 1.365 46.007 141.57 54.335 242.457.136 1.911-1.229 3.55-3.14 3.686-.137.137-.273.137-.41.137Zm5.051-27.44a3.38 3.38 0 0 1-3.413-3.413V132.014a3.38 3.38 0 0 1 3.413-3.413 3.379 3.379 0 0 1 3.413 3.413v148.123c0 1.911-1.638 3.413-3.413 3.413Z" fill="#007171"/><path d="M150.773 302.935h-.546c-1.912-.273-3.14-2.048-2.867-3.959 20.341-127.645 79.59-238.635 80.136-239.727.956-1.638 3.004-2.32 4.642-1.365 1.638.956 2.321 3.003 1.365 4.642-.546 1.092-59.386 110.989-79.454 237.542-.136 1.638-1.638 2.867-3.276 2.867Z" fill="#007171"/><path d="M157.598 282.048c-.273 0-.546 0-.955-.137-1.775-.546-2.867-2.321-2.321-4.232 14.334-51.467 57.474-99.931 59.386-101.979 1.228-1.365 3.413-1.502 4.778-.273 1.365 1.228 1.502 3.413.273 4.778-.41.546-43.959 49.42-57.884 99.249-.41 1.638-1.911 2.594-3.277 2.594Z" fill="#007171"/><path d="m247.292 53.925-1.775-18.567c-.273-2.73-3.413-4.095-5.597-2.457l-15.154 11.604-5.734-19.795c-.955-3.14-5.188-3.413-6.553-.546l-12.832 27.44c-7.099 15.427-1.502 34.13 13.515 41.911 15.973 8.328 35.495 1.502 43.003-14.607l13.243-28.396c1.365-2.867-1.639-6.007-4.642-4.642l-17.474 8.055Z" fill="#FFBE3C"/><path d="m252.206 155.768 3.413-17.884c.546-2.594-2.048-4.778-4.641-3.823l-17.338 6.826v-20.204c0-3.14-3.959-4.642-6.007-2.321l-19.522 22.389c-10.922 12.56-10.785 31.672 1.228 43.14 12.697 12.15 32.901 11.194 44.369-1.912l20.205-23.071c2.047-2.321.136-6.144-3.004-5.597l-18.703 2.457ZM75.96 119.454l-16.245-9.147c-2.458-1.365-5.325.41-5.188 3.277l.955 19.112-19.658-6.689c-3.14-1.092-5.734 2.321-4.096 5.051l15.29 26.212c8.6 14.744 27.304 20.75 42.321 12.832 15.973-8.464 21.57-28.396 12.56-43.822L86.063 99.386c-1.639-2.867-5.87-2.048-6.553 1.092l-3.55 18.976Z" fill="#E83452"/><path d="M91.933 20.75 77.053 9.42c-2.185-1.638-5.462-.273-5.598 2.457L69.817 30.99 51.25 21.843c-2.867-1.502-6.007 1.502-4.778 4.505l11.604 28.123c6.553 15.7 24.3 24.3 40.273 18.567 17.065-6.28 25.256-25.256 18.43-41.775L104.766 2.184c-1.229-3.003-5.598-2.867-6.553.273l-6.28 18.294Z" fill="#FFBE3C"/><path d="m168.52 86.007-9.283-15.836c-1.365-2.321-4.778-2.321-6.007.136l-8.601 16.656-13.379-15.29c-2.047-2.458-6.006-.956-6.006 2.32v29.761c0 16.656 12.832 31.127 29.488 31.809 17.747.819 32.355-13.379 32.355-30.853V73.857c0-3.14-3.959-4.642-6.007-2.321l-12.56 14.47Z" fill="#E83452"/><path d="M210.978 293.379c0-6.144-3.004-11.604-7.509-15.017 2.321-3.14 3.823-7.099 3.823-11.331a18.644 18.644 0 0 0-18.703-18.703h-17.065a14.695 14.695 0 0 0 1.911-7.236c0-8.055-6.553-14.471-14.608-14.471l-61.433.41h-.956c-8.19 0-15.972 3.822-21.024 10.648l-8.19 10.785h-.137L4.97 330.239c-3.277 4.232-4.642 9.556-3.823 14.88.683 5.325 3.55 9.966 7.782 13.243l50.512 37.679c3.55 2.594 7.645 3.959 11.877 3.959.956 0 1.911-.137 2.867-.273 5.324-.819 9.966-3.55 13.106-7.918l21.57-28.669h70.443a18.644 18.644 0 0 0 18.703-18.703c0-3.004-.819-6.007-2.047-8.464 6.416-3.004 10.784-9.42 10.784-16.929 0-3.959-1.228-7.645-3.412-10.648 4.641-3.413 7.645-8.874 7.645-15.017Z" fill="#894915"/><path d="M174.39 349.215h-28.942c-8.191 0-14.061-6.553-14.061-11.058v-32.082c4.368-6.553 6.826-14.471 6.826-22.662 0-9.01-3.14-16.246-5.461-20.614 6.826-.41 19.522-1.229 26.485-1.775 11.058-.819 15.972-8.191 16.109-8.464 1.502-2.185 2.048-4.369 2.048-4.369h-5.598s-.136.273-.955 1.365c-.137.273-3.686 5.324-12.014 6.007-9.693.819-30.853 2.048-30.99 2.048-.955 0-1.911.682-2.32 1.638a2.747 2.747 0 0 0 .409 2.867c.137.136 6.963 8.874 6.963 21.297 0 14.88-9.284 28.396-23.209 33.72-1.365.546-2.184 2.048-1.638 3.549.41 1.093 1.502 1.775 2.594 1.775.273 0 .683 0 .956-.136a38.574 38.574 0 0 0 14.471-9.42v25.256c0 7.645 8.6 16.519 19.522 16.519h28.942a2.739 2.739 0 0 0 2.73-2.731c0-1.501-1.365-2.73-2.867-2.73Z" fill="#842306"/></svg>