<svg class="sinch-icon" xmlns="http://www.w3.org/2000/svg" viewBox="0 0 478 400" fill="none" aria-hidden="true" focusable="false"><path d="M411.166 54.388a129.769 129.769 0 0 1 38.219 91.793 129.78 129.78 0 0 1-37.964 91.899c-50.712 50.759-133.179 50.879-184.042.255a129.787 129.787 0 0 1-38.217-91.793 129.792 129.792 0 0 1 37.961-91.899c50.72-50.767 133.179-50.879 184.043-.255Z" fill="#F2F2F2"/><path d="m240.393 52.235 171.371 171.61 40.903-40.672L281.296 11.548l-40.903 40.687Zm67.754-30.942 140.995 141.194 9.801-9.754L317.948 11.579l-9.801 9.714Z" fill="#fff"/><path d="M421.836 42.538c-57.076-56.829-149.647-56.701-206.547.287-56.9 56.988-56.805 149.384.295 206.212 57.099 56.828 149.671 56.701 206.603-.287 56.932-56.988 56.765-149.384-.351-206.212ZM399.323 65.09a113.853 113.853 0 0 1 33.533 80.539 113.856 113.856 0 0 1-33.309 80.632c-44.492 44.539-116.847 44.659-161.474.223a113.863 113.863 0 0 1-.223-161.17c44.499-44.54 116.854-44.643 161.473-.224Z" fill="#007171"/><path d="M102.485 268.902a34.085 34.085 0 0 0 23.566-9.522 28235.86 28235.86 0 0 0 39.371-39.634 18.139 18.139 0 0 1 23.781-1.635 18.502 18.502 0 0 1 3.645 25.814c-12.84 17.082-32.904 43.822-37.769 50.672a1.99 1.99 0 0 0 .108 2.443c.191.222.429.398.697.516a1.857 1.857 0 0 1 1.013 2.304c-1.164 3.406-4.075 11.692-7.512 19.746l-1.842 58.216-136.935-.925a9.958 9.958 0 0 1-7.074-3.038 9.864 9.864 0 0 1-2.76-7.178c.655-20.734 2.138-67.746 2.784-87.978a9.903 9.903 0 0 1 9.88-9.569l89.047-.232Z" fill="#F2A068"/><path d="M200.408 227.17 72.978 354.719a26.571 26.571 0 0 0-5.69 28.964 26.565 26.565 0 0 0 43.348 8.518l127.429-127.549a26.568 26.568 0 0 0-18.891-45.307 26.566 26.566 0 0 0-18.766 7.825Z" fill="#007171"/><path d="M152.806 296.296a15.952 15.952 0 0 1-2.025-11.962c1.945-8.637 9.202-12.497 19.195-12.13l28.215 2.432.056-.08 30.942 2.505a16.037 16.037 0 1 1 1.73 32.026h-1.658l-5.248-.223a16.027 16.027 0 0 1-3.713 23.045 16.032 16.032 0 0 1-9.828 2.738l-9.131-.447a16.031 16.031 0 0 1-6.567 20.166 16.018 16.018 0 0 1-8.992 2.203l-8.629-.43a16.067 16.067 0 0 1-7.337 18.821 16.068 16.068 0 0 1-6.914 2.081c-.55 0-1.124.039-1.666 0l-17.832-.519a872.584 872.584 0 0 1-20.009 1.117h-1.667a16.037 16.037 0 0 1-.223-32.019 15.96 15.96 0 0 1-2.528-12.76c1.436-6.38 5.806-10.192 12.05-11.563a15.954 15.954 0 0 1-3.014-13.398c1.945-8.637 9.202-12.496 19.195-12.13l5.598.527Z" fill="#F2A068"/><path d="M246.391 171.889v-9.897a3.645 3.645 0 0 0-7.289 0v9.897h-9.937a3.633 3.633 0 0 0-2.686 1.004 3.637 3.637 0 0 0-.835 4.07 3.641 3.641 0 0 0 3.521 2.207h9.921v9.897c0 .966.384 1.893 1.067 2.577a3.648 3.648 0 0 0 5.154 0 3.645 3.645 0 0 0 1.068-2.577v-9.897h9.92a3.653 3.653 0 0 0 3.645-3.637 3.645 3.645 0 0 0-3.645-3.644h-9.904ZM389.235 307.7v-7.895a2.913 2.913 0 0 0-4.911-1.959 2.908 2.908 0 0 0-.903 1.959v7.895h-7.911a2.905 2.905 0 0 0-2.903 2.903 2.915 2.915 0 0 0 .851 2.052 2.89 2.89 0 0 0 2.052.85h7.911v7.879a2.902 2.902 0 0 0 4.96 2.05 2.87 2.87 0 0 0 .854-2.05v-7.895h7.879a2.906 2.906 0 0 0 2.686-1.793 2.85 2.85 0 0 0 .217-1.109 2.901 2.901 0 0 0-2.903-2.903l-7.879.016Zm71.51-284.645V11.021a4.43 4.43 0 0 0-4.43-4.246 4.434 4.434 0 0 0-4.43 4.246v12.034h-12.058a4.422 4.422 0 0 0-4.258 2.685 4.415 4.415 0 0 0 0 3.474 4.421 4.421 0 0 0 4.258 2.685h12.058v12.034a4.439 4.439 0 0 0 4.43 4.246 4.432 4.432 0 0 0 4.43-4.246V31.9h12.058a4.432 4.432 0 0 0 3.25-1.226 4.431 4.431 0 0 0 1.009-4.932 4.439 4.439 0 0 0-2.508-2.405 4.43 4.43 0 0 0-1.751-.28h-12.058Z" fill="#EDB158"/></svg>