<svg class="sinch-icon" xmlns="http://www.w3.org/2000/svg" viewBox="0 0 464 800" fill="none" aria-hidden="true" focusable="false"><path d="M76.045 170.577a22.298 22.298 0 1 0-41.757-15.663 691963.99 691963.99 0 0 0-32.87 87.663 22.302 22.302 0 0 0 41.766 15.648l32.86-87.648Z" fill="#894915"/><path d="M444.169 0H253.943a19.65 19.65 0 0 0-19.631 19.63v78.955h209.857a19.651 19.651 0 0 0 19.627-19.63V19.63A19.651 19.651 0 0 0 444.169 0" fill="#007171"/><path d="M305.596 59.655c5.722 0 10.362-4.64 10.362-10.362 0-5.723-4.64-10.362-10.362-10.362-5.723 0-10.362 4.639-10.362 10.362 0 5.722 4.639 10.362 10.362 10.362Zm43.462 0c5.723 0 10.362-4.64 10.362-10.362 0-5.723-4.639-10.362-10.362-10.362s-10.362 4.639-10.362 10.362c0 5.722 4.639 10.362 10.362 10.362Zm43.46 0c5.723 0 10.362-4.64 10.362-10.362 0-5.723-4.639-10.362-10.362-10.362-5.722 0-10.362 4.639-10.362 10.362 0 5.722 4.64 10.362 10.362 10.362Z" fill="#fff"/><path d="M41.603 771.444c5.435-6.386 12.2-14.337 12.2-27.402v-2.086c0-.112.015-.216.02-.334v-24.14a5.022 5.022 0 0 1 5.022 5.063l-.024 7.475a20.942 20.942 0 0 1 31.359-10.385 20.942 20.942 0 0 1 7.848 9.72v-6.851a5.022 5.022 0 0 1 5.022-5.022h.684v47.934c.78 10.664 2.937 17.15 3.023 17.392.687 1.947.897 4.031.612 6.076a12.908 12.908 0 0 1-6.861 9.68A12.9 12.9 0 0 1 94.573 800H46.71a12.9 12.9 0 0 1-12.901-12.901c0-6.493 3.785-10.943 7.794-15.655Zm183.694-52.228h22.737c4.612 0 9.58 3.74 11.093 8.349 2.417-4.134 6.573-7.032 12.023-7.989 2.109-.373 4.711 1.402 5.445 3.671l1.197 3.863c4.182 12.879 13.626 25.178 25.998 33.856 8.158 5.724 17.179 9.578 26.043 11.129l13.002 2.517c6.363 1.233 12.362 6.478 14.361 12.567 2.328 7.086-1.529 12.832-8.615 12.832h-31.989c-11.042 0-23.295-3.815-34.331-10.41-1.567-.937-3.059-.034-2.543 1.536l2.079 6.326c.462 1.408-.305 2.548-1.71 2.548h-28.83c-1.405 0-2.919-1.14-3.383-2.548l-24.673-75.108c-.568-1.727.371-3.124 2.096-3.124" fill="#272727"/><path d="m47.656 285.39.162-.177h106.174l.127.358c.164.456 16.287 45.702 16.287 65.521 0 40.276-33.364 73.041-74.374 73.041S21.66 391.368 21.66 351.086c0-36.804 25.738-65.424 25.997-65.703" fill="#0A273D"/><path d="M131.404 347.199v380.729a12.622 12.622 0 0 1-12.607 12.608H34.331a12.627 12.627 0 0 1-12.61-12.608V347.199h109.683Z" fill="#0A273D"/><path d="m156.207 276.418.365-.019 153.735 447.863a12.608 12.608 0 0 1-11.925 16.701h-83.078a12.606 12.606 0 0 1-11.925-8.514L68.941 340.806l87.266-64.388Z" fill="#0A273D"/><path d="m266.261 150.876 2.894-7.952a5.644 5.644 0 0 0-10.578-3.93l-7.305 19.318a11.98 11.98 0 0 0 .905 10.354l2.556 4.305a4.416 4.416 0 0 1-.485 5.182l-8.531 9.66s23.818 29.901 23.449 28.798l21.656-31.002 9.667-13.819c.052-.067.108-.132.158-.201l4.234-6.046a6.494 6.494 0 0 0 .636-6.332 6.502 6.502 0 0 0-5.075-3.84 6.503 6.503 0 0 0-6.398-7.606 6.49 6.49 0 0 0-2.694-5.069 6.477 6.477 0 0 0-5.662-.938l8.701-13.154a5.404 5.404 0 0 0-1.526-7.488 5.4 5.4 0 0 0-7.458 1.479l-19.152 28.298.008-.017Z" fill="#894915"/><path d="M290.477 174.848a7.335 7.335 0 0 1-5.195-2.16l-8.689-8.729a7.34 7.34 0 0 1-.818-9.369l6.542-9.38 1.669 1.164-6.529 9.382a5.293 5.293 0 0 0 .591 6.767l8.687 8.727a5.288 5.288 0 0 0 4.084 1.551 5.292 5.292 0 0 0 3.86-2.045l5.75-7.43a1.017 1.017 0 0 1 1.401-.148 1.02 1.02 0 0 1 .209 1.394l-5.75 7.43a7.318 7.318 0 0 1-5.344 2.83 6.927 6.927 0 0 1-.468.016Z" fill="#842306"/><path d="M276.094 177.27a1.022 1.022 0 0 1-.963-1.35l1.222-3.545a12.113 12.113 0 0 0-3.842-13.376 12.122 12.122 0 0 0-4.362-2.248l-1.756-.49a1.026 1.026 0 0 1-.736-.859 1.02 1.02 0 0 1 1.285-1.102l1.753.49a14.162 14.162 0 0 1 10.31 12.564 14.157 14.157 0 0 1-.732 5.684l-1.222 3.545c-.068.2-.197.373-.369.496a1.01 1.01 0 0 1-.588.191Z" fill="#842306"/><path d="M279.953 200.635a11.47 11.47 0 0 0 1.815-8.672 11.463 11.463 0 0 0-4.911-7.373l-9.566-6.357a11.457 11.457 0 0 0-14.825 1.84l-47.359 52.138a21.982 21.982 0 0 0-5.617 16.772 21.976 21.976 0 0 0 16.508 19.308 21.957 21.957 0 0 0 23.435-8.833l40.52-58.823Z" fill="#894915"/><path d="M194.451 155.434a34.84 34.84 0 0 0-30.156-17.39 11.344 11.344 0 0 0-11.319 10.567c-.13 1.9.219 3.801 1.016 5.53 11.618 25.174 34.074 73.896 47.101 102.128a22.426 22.426 0 1 0 39.781-20.61c-13.046-22.546-34.036-58.821-46.423-80.225Z" fill="#894915"/><path d="M188.543 149.175a68.07 68.07 0 0 1-5.892-57.366l2.561-7.354-73.726-26.515-.119.345-12.955 18.302A92.431 92.431 0 0 1 83.965 92.63a58.592 58.592 0 0 0-19.055 54.11c.24 1.367.39 2.237.419 2.399a.036.036 0 0 0 .034.028h123.18v.007Z" fill="#272727"/><path d="M196.36 154.095a30.814 30.814 0 0 0-27.252-16.433H60.699a30.81 30.81 0 0 0-29.149 20.797l-18.204 52.993 46.051-.047-10.444 26.091 1.827 1.35-3.062 46.503h98.028a7.17 7.17 0 0 0 6.79-4.856l20.025-58.515.864 1.622 46.619-24.652-23.684-44.853Z" fill="#fff"/><path d="M178.35 235.89c4.513 0 6.154 3.671 3.67 8.173-2.483 4.502-8.168 8.172-12.678 8.172-4.511 0-6.156-3.67-3.671-8.172 2.485-4.502 8.168-8.173 12.679-8.173Z" fill="#fff"/><path d="M192.385 46.781c-3.211-14.466-14.163-25.547-28.582-28.903a38.001 38.001 0 0 0-44.641 24.658l-10.319 29.797a38.095 38.095 0 0 0 1.587 29.243 38.105 38.105 0 0 0 36.662 21.503 38.105 38.105 0 0 0 33.76-25.822l10.319-29.816a38.005 38.005 0 0 0 1.214-20.66Z" fill="#894915"/><path d="m126.22 72.154-11.444 38.358-.604-.6c-4.485-4.457-17.973-25.667-15.354-33.23l6.682-9.579a61.162 61.162 0 0 0 7.558-14.758c1.768-5.04 3.726-10.63 3.726-10.63 6.152-17.77 27.25-28.484 47.03-23.882 14.436 3.36 25.403 14.447 28.616 28.933 1.131 5.1 1.142 10.876.032 16.263l-.119.57s-59.349-11.761-60.377-12.091c-3.641-1.158-10.006.701-12.357 6.14a10.748 10.748 0 0 0 6.613 14.497l-.002.009Z" fill="#272727"/><path d="M83.293 137.727h-5.497v.496c0 20.117 16.084 36.491 35.853 36.491 19.77 0 35.843-16.365 35.843-36.491v-.496h-4.137c-4.616-.137-8.328-1.566-8.328-6.212 0-4.828 3.615-8.439 8.596-8.581l.49-.015-.773-53.697-19.649 6.045-13.428 42.673c-4.307 13.171-15.615 19.411-28.97 19.787Z" fill="#894915"/><path d="M133.723 52.06a10.74 10.74 0 0 1 4.572 15.96 10.74 10.74 0 0 1-16.545 1.368 10.734 10.734 0 0 1 3.758-17.453 10.744 10.744 0 0 1 8.215.125Z" fill="#007171"/><path d="M158.269 106.382c-.135 0-.269-.021-.397-.061-14.961-4.586-24.71-11.692-28.979-21.117-4.931-10.893-.611-20.741-.432-21.16a1.36 1.36 0 0 1 2.477 1.114c-.054.117-3.995 9.218.432 18.962 3.943 8.665 13.121 15.26 27.281 19.601a1.357 1.357 0 0 1-.397 2.656l.015.005Z" fill="#007171"/><path d="M125.391 254.569c-.935-6.585-4.081-11.227-3.863-11.858.57-1.63 4.103-6.603 6.718-10.148a5.061 5.061 0 0 0-1.151-6.856c.013-.017.013-.017 0-.019a5.88 5.88 0 0 0-6.809-.201 5.909 5.909 0 0 0-1.688 1.712l-6.603 10.233a13.349 13.349 0 0 1-12.05 6.089l-8.734-.542-3.023 14.369s38.125 3.723 37.203-2.779Z" fill="#894915"/><path d="M252.205 224.036a4.959 4.959 0 0 0 .747-5.296 4.96 4.96 0 0 0-4.504-2.887H141.3a5.62 5.62 0 0 0-4.254 1.943c-7.723 8.978-40.07 46.576-54.537 63.388a4.954 4.954 0 0 0 3.757 8.185h107.146a5.617 5.617 0 0 0 4.254-1.943l54.539-63.387v-.003Z" fill="#007171"/><path d="M176.45 243.378c4.447 0 6.069 3.611 3.614 8.061-2.455 4.45-8.054 8.06-12.504 8.06-4.45 0-6.067-3.612-3.614-8.06 2.452-4.448 8.053-8.061 12.504-8.061Z" fill="#fff"/><path d="M86.873 272.685s-56.502.071-67.388 0a19.657 19.657 0 0 1-14.221-6.346 19.652 19.652 0 0 1-5.137-14.702 19.235 19.235 0 0 1 13.917-17.093 19.238 19.238 0 0 1 7.749-.576l30.552 3.96 57.48 6.316c3.897.429 7.841.068 11.595-1.06l27.884-8.376a4.632 4.632 0 0 1 5.69 3.239 4.637 4.637 0 0 1-3.239 5.692l-18.748 5.143 3.022.702c4.319.842 6.022 1.237 10.883 2.522l10.493 2.478a4.636 4.636 0 0 1 3.332 5.64 4.63 4.63 0 0 1-5.64 3.33l-2.878-.741a4.635 4.635 0 0 1 2.68 5.42 4.642 4.642 0 0 1-2.13 2.833 4.635 4.635 0 0 1-3.51.496l-1.609-.412a5.778 5.778 0 0 1-.338 4.547 5.796 5.796 0 0 1-5.647 3.101h-26.213a34.86 34.86 0 0 1-14.289-3.062 34.86 34.86 0 0 0-14.29-3.051Z" fill="#894915"/></svg>