<svg class="sinch-icon" xmlns="http://www.w3.org/2000/svg" viewBox="0 0 1384 800" fill="none" aria-hidden="true" focusable="false"><path d="m973.075 549.098-7.218-8.575a13.612 13.612 0 0 0 5.652-15.705 13.59 13.59 0 0 0-3.025-5.112l-33.203-35.037-.434-.433c-34.906-33.767-76.512-42.443-116.933-24.441-40.119 17.757-238.834 178.851-261.383 197.156a13.594 13.594 0 0 0-4.862 12.507 13.593 13.593 0 0 0 8.24 10.591l97.141 40.119c1.107.453 2.266.764 3.451.923a13.569 13.569 0 0 0 11.939-4.518c.765-.852 75.819-86.358 90.125-102.858 16.847-19.417 48.824-12.055 73.077 3.854a28.877 28.877 0 0 1 10.105 11.549 13.599 13.599 0 0 0 26.129-7.117c-3.262-18.017-15.302-25.754-24.974-31.976-9.673-6.222-18.334-11.78-23.719-28.295a37.42 37.42 0 0 1 9.485-39.282 37.857 37.857 0 0 1 39.411-8.661c11.015 3.955 18.622 10.899 22.636 20.615 5.197 12.574 4.143 29.435-2.758 44.016a13.584 13.584 0 0 0 23.387 13.657c.245-.347 15.173-22.088 10.914-50.181l27.111 25.783a13.585 13.585 0 0 0 19.72-18.651l-.014.072Z" fill="#842306"/><path d="M501.196 298.816c80.623 0 145.98-65.357 145.98-145.979 0-80.622-65.357-145.98-145.98-145.98-80.622 0-145.979 65.358-145.979 145.98 0 80.622 65.357 145.979 145.979 145.979Z" fill="#272727"/><path d="m360.832 422.824-1.443-167.548V133.333c0-67.85 53.587-125.018 121.495-126.461a124.153 124.153 0 0 1 126.938 124.151v157.803a90.633 90.633 0 0 1-55.963 83.763 90.65 90.65 0 0 1-34.696 6.897c-13.469 0-26.173 7.723-31.168 20.211-4.995 12.487.909 30.027 9.946 38.978l57.745 58.048-43.785 81.262-149.069-155.161Z" fill="#842306"/><path d="M502.337 6.294c-51.408-3.681-90.775 15.663-115.346 44.897-24.57 29.233-25.581 68.846-70.737 107.68-41.101 35.34-68.847 29.017-107.118 63.693-12.602 11.404-19.922 26.692-29.031 47.639-12.227 27.992-40.421 41.476-73.769 55.306a171.083 171.083 0 0 0 52.779 328.67h196.102V417.424a77.162 77.162 0 0 0 77.162-77.147V186.04c0-16.876 12.848-31.514 29.695-32.438A31.484 31.484 0 0 1 494.7 179.01l84.149-138.415s-26.057-30.706-76.512-34.3Z" fill="#272727"/><path d="M460.414 256.114c6.283 0 11.376-5.093 11.376-11.376 0-6.283-5.093-11.376-11.376-11.376-6.283 0-11.376 5.093-11.376 11.376 0 6.283 5.093 11.376 11.376 11.376Zm595.456 543.294H884.653a28.4 28.4 0 0 1-25.384-15.652 28.404 28.404 0 0 1 2.603-29.707l2.887-3.912a86.157 86.157 0 0 1 96.925-30.157l59.186 20.109a105.542 105.542 0 0 1 47.53 32.915 16.249 16.249 0 0 1 3.55 8.282c.37 3.041-.13 6.126-1.44 8.894a16.214 16.214 0 0 1-5.98 6.74 16.19 16.19 0 0 1-8.66 2.488Z" fill="#CCC"/><path d="M630.675 799.38V653.285a193.79 193.79 0 0 0-58.986-139.209l-17.916-17.324a55.55 55.55 0 0 1-76.165-.173l-48.376-45.763c-51.177-47.914-93.836-36.091-124.499-15.36-30.662 20.73-59.188 70.117-29.58 125.754a341.994 341.994 0 0 1 4.923 9.571c28.468 57.024 59.752 150.744 66.681 228.613l283.918-.014Z" fill="#FFBE3C"/><path d="M1022.13 727.429a13.818 13.818 0 0 0 1.31-5.125c.1-1.782-.15-3.566-.74-5.251a13.594 13.594 0 0 0-12.08-9.069c-22.979-1.271-44.128-15.678-64.599-29.624a917.245 917.245 0 0 0-9.441-6.395 54.068 54.068 0 0 0-65.339 4.432l-.548.505-28.238 27.588-17.15-2.627-226.447-38.372L405.08 470.622a67.96 67.96 0 0 0-96.103.217 67.958 67.958 0 0 0 .217 96.102L508.27 765.498a116.181 116.181 0 0 0 82.07 33.939h122.708c.523.063 1.048.097 1.574.101h123.733c1.285 0 2.555 0 3.826-.101h19.345a63.093 63.093 0 0 0 58.25-38.545 23.125 23.125 0 0 1 8.532.462l49.473 12.213a13.6 13.6 0 0 0 16.414-9.816l4.215 1.213a13.585 13.585 0 0 0 17.32-11.983h.08a13.526 13.526 0 0 0 13.19-10.263 13.49 13.49 0 0 0-.78-8.81 13.508 13.508 0 0 0-6.05-6.45l-.04-.029Z" fill="#842306"/><path d="m1382.2 764.386-116.5-410.611a27.901 27.901 0 0 0-9.97-14.565 27.882 27.882 0 0 0-16.73-5.646h-22.5V20.297A20.415 20.415 0 0 0 1196.06 0v684.279a20.414 20.414 0 0 0 20.41-20.413V350.599h22.51a10.763 10.763 0 0 1 10.33 7.81l116.5 410.625a10.95 10.95 0 0 1-1.79 9.626 11.01 11.01 0 0 1-3.87 3.209 10.98 10.98 0 0 1-4.9 1.14H1164.3a8.502 8.502 0 0 0 0 16.991h190.97c4.33-.002 8.6-1.006 12.47-2.934a28.018 28.018 0 0 0 9.85-8.177 27.861 27.861 0 0 0 5.18-11.711c.8-4.251.61-8.63-.57-12.792Z" fill="#CCC"/><path d="M1196.06 684.279a20.436 20.436 0 0 1-14.43-5.984 20.432 20.432 0 0 1-5.97-14.429V20.398c0-5.41 2.15-10.598 5.97-14.423A20.42 20.42 0 0 1 1196.06 0" fill="#12364C"/><path d="M346.757 799.379c-9.571-115.244-79.399-283.355-141.475-345.806-30.316-30.46-85.405-8.532-77.812 38.444l49.661 307.362h169.626Z" fill="#CCC"/></svg>