<svg class="sinch-icon" xmlns="http://www.w3.org/2000/svg" viewBox="0 0 495 400" fill="none" aria-hidden="true" focusable="false"><path d="m273.129 133.333 1.407-2.943c-5.182 2.304-11.196 1.408-15.419-2.431-4.223-3.775-5.758-9.661-4.031-15.099 5.311-16.25 11.773-35.893 16.699-50.992 4.671-14.14 17.658-23.864 32.566-24.312 19.513-.512 46.321-1.28 63.979-1.727 12.092-.32 23.801-3.84 34.101-10.11 11.836-7.229 27.767-16.954 38.708-23.672C448.049-2.175 457.07 0 461.356 6.91c8.51 13.691 22.009 35.636 30.583 49.52 2.111 3.39 2.751 7.422 1.791 11.26-.96 3.84-3.391 7.166-6.782 9.15-15.291 9.02-39.667 23.544-48.368 28.662-2.048 1.216-3.519 3.199-4.159 5.502-6.846 24.825-29.367 42.035-55.022 42.099-5.95 0-23.417-43.954-23.353-44.978.128-5.694-2.495-11.132-6.59-15.035-4.158-3.903-9.725-5.886-15.419-5.374a19.107 19.107 0 0 0-16.315 12.476c-2.303 6.334-5.31 14.331-7.933 21.497-4.543 12.412-10.365 24.312-17.275 35.573-1.535 2.559-3.135 5.054-4.542 7.421-3.647 5.95-10.941 8.574-17.531 6.398-4.542-1.471-8.061-5.054-9.596-9.597-1.472-4.542-.768-9.469 1.983-13.371l10.301-14.78Z" fill="#842306"/><path d="M61.804 140.563s179.527-35.445 248.881-49.136a27.303 27.303 0 0 1 20.601 4.158 27.567 27.567 0 0 1 11.644 17.467c10.045 51.119 30.966 157.07 30.966 157.07.32 1.535-.703 3.007-2.239 3.326l-273 53.871a17.017 17.017 0 0 1-19.962-13.371L48.433 160.525c-1.792-9.213 4.158-18.171 13.371-19.962Z" fill="#007171"/><path d="M271.977 62.06c4.67-14.14 17.658-23.864 32.566-24.312 19.513-.512 46.321-1.28 63.979-1.728 12.092-.32 23.8-3.838 34.101-10.108 11.836-7.23 27.767-16.955 38.708-23.673 6.91-4.222 15.931-2.047 20.217 4.863 8.51 13.691 22.009 35.636 30.582 49.52 2.112 3.39 2.752 7.421 1.792 11.26-.96 3.839-3.391 7.166-6.782 9.15-15.291 9.02-52.591 34.164-52.591 34.164s-.256.64-.704 1.792c-9.213 23.992-32.054 39.923-57.709 40.243-1.472 0-2.879.064-4.159.064-5.118.064-10.045 2.047-13.82 5.502-5.694 5.246-14.203 13.052-18.874 17.275-2.111 1.919-4.99 2.943-7.869 2.687a16.886 16.886 0 0 1-12.924-7.934 17.008 17.008 0 0 1-1.407-15.099c.447-1.152.703-1.855.703-1.855s10.109-21.753 27.703-26.872c6.014-2.879 9.981-8.893 10.109-15.547 0-1.023.768-11.58-6.142-18.17-4.159-3.903-9.725-5.886-15.419-5.374" fill="#842306"/><path d="m132.118 205.182 148.304-29.238c3.263-.64 5.375-3.839 4.735-7.102-.64-3.263-3.839-5.374-7.102-4.735L129.75 193.346c-3.262.64-5.374 3.839-4.734 7.102.64 3.199 3.839 5.374 7.102 4.734Zm9.341 47.537 74.152-14.651c3.263-.64 5.374-3.839 4.734-7.102-.639-3.263-3.838-5.374-7.101-4.734l-74.153 14.651c-3.262.64-5.374 3.839-4.734 7.102.64 3.263 3.839 5.374 7.102 4.734Z" fill="#fff"/><path d="M115.739 343.57c36.404-75.048-23.609-98.976-23.928-103.327-.448-5.886-.704-24.888-.832-37.812-.128-7.357-5.438-13.563-12.732-14.715-7.998-1.344-15.547 3.839-17.275 11.772-3.007 13.756-7.23 32.822-7.23 32.822-2.11 9.725-1.599 19.769 1.6 29.174 5.439 16.059.896 30.391-12.923 49.329L4.925 349.84c-6.973 10.493-7.101 21.625 3.391 28.599l51.376 19.002c8.701 5.118 19.898 2.239 25.016-6.462" fill="#F2A068"/></svg>