<svg class="sinch-icon" xmlns="http://www.w3.org/2000/svg" viewBox="0 0 1236 800" fill="none" aria-hidden="true" focusable="false"><path d="M43.784 800H.12v-55.256a145.635 145.635 0 0 1 89.955-134.681 145.633 145.633 0 0 1 55.792-11.066h943.453A145.64 145.64 0 0 1 1224 688.953a145.706 145.706 0 0 1 11.07 55.791V800h-43.67v-55.256c0-27.074-10.75-53.039-29.9-72.184a102.058 102.058 0 0 0-72.18-29.899H145.867A102.084 102.084 0 0 0 43.784 744.744V800Z" fill="#A7D5C2"/><path d="M1140.44 88.844H589.03c-7.779 0-14.086 6.306-14.086 14.085v359.686c0 7.779 6.307 14.085 14.086 14.085h551.41c7.78 0 14.09-6.306 14.09-14.085V102.929c0-7.78-6.31-14.085-14.09-14.085Z" fill="#CCC"/><path d="M914.638 348.466h-94.61s-38.979 183.253-57.402 224.235c-10.175 22.623-53.152 26.604-53.152 26.604h208.353s28.702 2.098 30.826-26.602c4.009-54.109-34.015-224.237-34.015-224.237Zm-49.43 95.702a30.297 30.297 0 1 1-30.297 30.297 30.31 30.31 0 0 1 30.297-30.299v.002Z" fill="#CCC"/><path d="M1138.08 102.694H592.737a5.108 5.108 0 0 0-5.108 5.108V410.09a5.108 5.108 0 0 0 5.108 5.108h545.343a5.11 5.11 0 0 0 5.11-5.108V107.802a5.11 5.11 0 0 0-5.11-5.108ZM865.413 458.25c7.779 0 14.085-6.306 14.085-14.085 0-7.779-6.306-14.085-14.085-14.085-7.779 0-14.085 6.306-14.085 14.085 0 7.779 6.306 14.085 14.085 14.085Z" fill="#0A273D"/><path d="M884.402 592.743a20.053 20.053 0 0 0-20.043-20.043H594.793a19.85 19.85 0 0 0-19.837 19.84v6.761h309.446v-6.558Z" fill="#12273C"/><path d="M479.898 66.673c-18.978-13.052-43.044-16.539-65.701-9.437-31.57 9.893-53.43 39.218-53.185 71.22l1.329 110.106.657 56.38c.281 18.507-12.519 35.384-30.723 41.091l-3.873 1.215 63.921 11.217 52.94-46.216-.186-29.768 23.049-7.225c25.565-8.012 43.422-31.79 42.988-57.6l-1.15-84.42c.113-22.714-10.834-43.388-30.066-56.563Z" fill="#F2A068"/><path d="M481.448 507.878 411.89 350.291a60.356 60.356 0 0 0-57.641-34.381 60.358 60.358 0 0 0-22.847 5.794c-30.142 14.246-42.839 50.335-28.59 80.48l87.437 178.686a33.214 33.214 0 0 0 29.354 18.274l165.596.166c30.657.014 57.568-19.505 66.935-48.56l3.138-9.735-173.824-33.137Z" fill="#E58E63"/><path d="m699.938 511.909-46.793-6.198a41.499 41.499 0 0 0-34.993 11.587l-16.488 16.288c-4.305 4.315-4.403 11.124-.088 15.431 4.316 4.308 11.128 4.403 15.432.088l1.535-1.586 34.351 45.309a10.908 10.908 0 0 0 7.217 4.32 10.907 10.907 0 0 0 10.985-5.317 10.896 10.896 0 0 0-.83-12.176l-2.025-2.673a10.943 10.943 0 0 0 13.147-2.993 10.941 10.941 0 0 0 .254-13.481l-24.624-32.477 40.081 5.394a10.931 10.931 0 0 0 12.296-9.321c.707-6.009-3.448-11.488-9.457-12.195Z" fill="#E58E63"/><path d="m324.232 800 320.175-.811v-70a86.606 86.606 0 0 0-25.362-61.231 86.597 86.597 0 0 0-61.231-25.362H417.558a14.308 14.308 0 0 1-12.027-6.551 14.313 14.313 0 0 1-1.016-13.658l23.604-52.228 77.777-167.198s-8.8-17.531-9.814-42.303c-.47-11.446-.459-22.148-6.017-30.238-5.558-8.091-14.93-11.235-25.229-13.021-13.015-2.253-13.24-1.879-13.24-1.879l-87.765-.025c-6.042 0-16.803.806-22.863 2.285l-4.374-.22c-4.57.09-9.553 1.093-14.255 2.648-10.859 3.586-21.285 11.082-28.967 20.781-2.978 3.764-13.31 16.339-24.024 38.129L150.974 641.129a112.54 112.54 0 0 0 102.56 158.88l70.698-.009Z" fill="#007171"/><path d="M587.711 373.587a9.856 9.856 0 0 1-9.769-4.589l-17.184-26.595a10.094 10.094 0 0 1 10.598-15.343 10.097 10.097 0 0 1 6.355 4.39l17.184 26.596a10.116 10.116 0 0 1-3 13.952 9.776 9.776 0 0 1-4.184 1.589Zm10.063-30.215a9.858 9.858 0 0 1-9.77-4.589l-17.184-26.595a10.097 10.097 0 0 1 3.078-13.832 10.095 10.095 0 0 1 13.875 2.876l17.184 26.599a10.12 10.12 0 0 1-3 13.952 9.807 9.807 0 0 1-4.183 1.589Zm17.73-28.485a9.874 9.874 0 0 1-9.77-4.589l-17.184-26.596a10.094 10.094 0 0 1 16.948-10.955l17.183 26.598a10.117 10.117 0 0 1-3 13.953 9.804 9.804 0 0 1-4.177 1.589Zm49.591 26.339a9.852 9.852 0 0 1-5.933-9.014l-.755-31.655a10.094 10.094 0 0 1 20.178-.482l.755 31.655a10.12 10.12 0 0 1-9.859 10.33 9.797 9.797 0 0 1-4.386-.834Z" fill="#F2A068"/><path d="M410.681 0h59.318c34.036 0 61.665 27.63 61.665 61.665 0 33.22-26.325 60.34-59.236 61.616l2.521 161.331a31.944 31.944 0 0 1-9.355 22.585 31.952 31.952 0 0 1-22.585 9.354s-124.512 1.167-128.222 1.226c-31.455.484-57.397-25.255-57.895-57.451 5.839 4.105 13.113 7.843 21.341 10.733 3.192 1.127 4.226 3.155 6.978 1.198 2.752-1.958 6.93-7.654 6.93-11.04.104-38.129-2.431-140.254-2.431-140.254C289.71 54.157 343.876 0 410.681 0Z" fill="#000"/><path d="M509.086 355.684c-11.965-30.077-46.048-44.759-76.124-32.793-30.077 11.966-44.758 46.048-32.792 76.125l66.185 166.356c11.965 30.077 46.048 44.759 76.124 32.793 30.077-11.966 44.758-46.048 32.792-76.125l-66.185-166.356Z" fill="#F2A068"/><path d="M676.295 324.151a45.547 45.547 0 0 0-25.108-25.558l-43.768-17.976-21.59 101.061a46.277 46.277 0 0 1-7.936 17.693l-59.588 81.272 55.214 87.045 101.635-207.715a45.56 45.56 0 0 0 1.141-35.822Z" fill="#F2A068"/><path d="m682.552 255.988-55.583-2.298c-6.78-.282-13.164 3.42-16.057 9.527L557.454 369.34c-3.285 6.479 1.31 14.02 8.468 14.316l66.695 2.758 58.594-116.101a9.965 9.965 0 0 0-3.935-12.967 9.978 9.978 0 0 0-4.724-1.358Z" fill="#F2F2F2"/><path d="M556.445 375.526a9.747 9.747 0 0 0 9.296 8.121l66.696 2.758 58.594-116.101c2.254-4.248.758-9.217-2.535-11.994l-60.642 120.168-71.409-2.952Zm103.821-110.078-16.955-.701a1.89 1.89 0 0 1-1.741-1.96 1.888 1.888 0 0 1 1.896-1.809l16.955.701a1.79 1.79 0 0 1 1.35.578 1.785 1.785 0 0 1 .459 1.394 1.89 1.89 0 0 1-1.964 1.797Zm-24.116-.997a1.725 1.725 0 0 1-1.296-.62c-.18-.197-.361-.392-.352-.58.008-.189-.172-.386-.158-.764a1.7 1.7 0 0 1 .62-1.293c.197-.183.391-.363.58-.355.763-.158 1.516-.127 2.057.462a1.706 1.706 0 0 1 .512 1.344c.017.267-.061.531-.219.746-.198.184-.206.369-.4.564a1.723 1.723 0 0 1-1.344.496Z" fill="#12273C"/><path d="M597.799 303.111c-4.35 4.153-4.64 11.108-.623 15.463l16.846 18.336c5.761 6.234 7.411 15.539 4.158 23.663l-.203.51c-6.71 16.758-2.62 36.272 10.161 48.452l13.375 12.624 24.672-61.626-36.238-38.472-.167-.064-16.846-18.322c-4.112-4.606-10.786-4.724-15.135-.564Z" fill="#F2A068"/></svg>