<svg class="sinch-icon" xmlns="http://www.w3.org/2000/svg" viewBox="0 0 350 400" fill="none" aria-hidden="true" focusable="false"><path d="M328.534 62.793H210.378c-11.396 0-20.634 9.239-20.634 20.635v295.937c0 11.397 9.238 20.635 20.634 20.635h118.156c11.396 0 20.635-9.238 20.635-20.635V83.428c0-11.396-9.239-20.635-20.635-20.635Z" fill="#CCC"/><path d="M244.729 81.04a2.972 2.972 0 1 0 0-5.944 2.972 2.972 0 0 0 0 5.944Zm38.833.073h-28.894a3.045 3.045 0 0 1 0-6.09h28.894a3.046 3.046 0 0 1 0 6.09Z" fill="#fff"/><path d="M209.038 0H14.618A14.617 14.617 0 0 0 0 14.617V128.34a14.616 14.616 0 0 0 14.617 14.617H221.22a2.436 2.436 0 0 0 2.437-2.436V14.617A14.619 14.619 0 0 0 209.038 0Z" fill="#FFBE3C"/><path d="M66.533 83.976c6.902 0 12.497-5.596 12.497-12.498 0-6.902-5.595-12.497-12.497-12.497-6.903 0-12.498 5.595-12.498 12.497 0 6.903 5.595 12.498 12.498 12.498Zm45.289-24.996a12.5 12.5 0 0 0-11.547 7.715 12.5 12.5 0 0 0 9.109 17.04 12.495 12.495 0 0 0 11.271-21.09 12.51 12.51 0 0 0-8.833-3.665Zm45.301 24.996c6.902 0 12.498-5.596 12.498-12.498 0-6.902-5.596-12.497-12.498-12.497-6.902 0-12.498 5.595-12.498 12.497 0 6.903 5.596 12.498 12.498 12.498Z" fill="#fff"/></svg>