<svg class="sinch-icon" xmlns="http://www.w3.org/2000/svg" viewBox="0 0 871 950" fill="none" aria-hidden="true" focusable="false"><defs><path id="a" fill="#FFCF6E" fill-rule="evenodd" d="M589.331 111.001c23.865-3.232 44.845 11.02 48.076 35.134 2.217 16.539-7.687 29.568-16.306 44.189a42.601 42.601 0 0 1-19.962 8.058c-7 .948-13.84.153-20.093-2.053-13.417-12.348-27.098-21.918-29.382-38.959-3.232-24.114 16.087-43.447 37.667-46.369Z" clip-rule="evenodd"/></defs><path fill="#007171" d="M636.656 342.063H516.431l-5.937 430.194h126.162V342.063Z"/><path fill="#007171" fill-rule="evenodd" d="M827.45 805.453c0-18.396-14.916-33.311-33.312-33.311H326.282c-18.396 0-33.311 4.594-33.311 22.99v118.884a6.785 6.785 0 0 0 6.785 6.785H827.45V805.453Z" clip-rule="evenodd"/><path fill="#842306" fill-rule="evenodd" d="M128.933 773.133H63.926l-4.018 37.095h59.482l9.543-37.095Z" clip-rule="evenodd"/><path fill="#E0E0E0" stroke="#E0E0E0" stroke-miterlimit="10" stroke-width=".244" d="M44.043 860.155c-.243.506-.12.238 0 0Z"/><path fill="#E0E0E0" d="M63.618 800.864c-1.838-.429-3.979 1.02-4.18 2.945l-5.928 56.636h56.465s8.945-27.461 14.566-57.231c.331-1.748-1.076-3.13-2.854-2.854-32.093 4.984-50.67 2.235-58.069.504Z"/><path stroke="#FFBE3C" stroke-linecap="round" stroke-width="6.874" d="M123.303 814.084c-13.953 3.513-54.086 7.838-65.989 0"/><path fill="#000" d="M116.219 844.876c1.868-.342 3.348 1.15 2.954 2.986-8.703 40.509-1.854 37.65-5.967 64.452-1.755 11.438-5.117 20.418-5.779 23.389-.661 2.971-8.28 2.971-11.18 2.971-5.622 8.537-22.412 10.354-32.935 10.354 0 0-25.092 2.533-44.032-3.374-18.94-5.906-23.189-24.813-4.026-33.34 24.31-10.737 34.628-40.671 36.821-64.228.178-1.907 2.209-3.399 4.038-2.996 8.345 1.84 30.13 5.27 60.106-.214Z"/><path fill="#E0E0E0" d="M452.875 683.883s8.218-32.46 10.165-54.578c.156-1.77-1.566-2.756-3.415-2.083-26.746 9.744-57.558 5.372-68.52 3.306-1.92-.362-4.116 1.402-4.103 3.338l.364 54.226h68.904c-1.939-2.192-3.188-3.712-3.372-4.18l-.023-.029Z"/><path stroke="#FFBE3C" stroke-linecap="round" stroke-width="6.874" d="M460.025 642.799c-15.375 4.782-46.741 11.059-72.275 2.637"/><path fill="#000" d="M423.845 771.846c.937 0 1.86-.743 2.112-1.656 2.039-7.365 5.657-10.492 10.406-8.651 30.32 11.756 13.589 12.306 72.685 10.307 26.047-.881 46.04-33.767 21.208-33.767-33.064-7.448-75.587-23.363-70.465-65.014.203-1.648-1.103-2.857-2.842-2.549-11.086 1.959-47.784 7.604-76.524 2.244-1.985-.37-4.207 1.52-4.067 3.489 1.995 28.093 1.448 42.507-2.118 61.83-2.435 13.199.92 28.882 1.858 32.83.138.58.647.937 1.3.937h46.447Z"/><path fill="#007171" d="M545.926 288.942c2.128-11.827-13.897-47.307-22.176-63.568l-10.348 10.348 3.254 49.969 29.27 3.251Z"/><path fill="#703E29" fill-rule="evenodd" d="M443.919 247.549c20.282-1.692 116.494-24.836 119.155-31.932l32.348-7.795 37.29-4.474 2.983 39.402c-104.663 29.617-168.206 56.128-279.295 98.823l87.519-94.024Z" clip-rule="evenodd"/><path fill="#007171" fill-rule="evenodd" d="m618.79 175.381-39.278 5.22s3.729 27.719 6.339 47.482c1.491 10.814 11.435 18.396 22.249 17.029 10.814-1.492 18.396-11.436 17.029-22.25-2.61-19.763-6.339-47.481-6.339-47.481Z" clip-rule="evenodd"/><use xlink:href="#a" fill-rule="evenodd" clip-rule="evenodd"/><mask id="b" width="87" height="89" x="551" y="110" maskUnits="userSpaceOnUse" style="mask-type:alpha"><use xlink:href="#a" fill-rule="evenodd" clip-rule="evenodd"/></mask><g mask="url(#b)"><path fill="#E39A07" d="M617.921 202.782a2.789 2.789 0 0 1-2.337-1.268c-2.685-4.151-7.06-13.548-9.633-23.343-.124.038-.248.075-.36.125-2.374.745-10.454 1.752-12.927 1.615-.212 0-.423-.024-.622-.037-.31 9.211-2.212 17.862-2.846 20.534a2.784 2.784 0 0 1-5.419-1.28c1.553-6.538 2.61-13.859 2.734-20.459-3.878-1.492-7.035-4.276-9.273-8.229-3.741-6.6-2.2-12.206 1.256-14.331 2.573-1.591 6.637-1.38 9.447 2.846 2.684 4.002 3.815 9.571 4.089 15.351.311.037.621.062.945.074 1.988.112 9.359-.87 10.975-1.367.261-.087.534-.174.82-.286-1.081-5.904-1.255-11.622.237-16.096 1.678-4.836 5.556-6.091 8.452-5.221 3.878 1.169 6.836 6.178 4.959 13.499-1.094 4.537-3.629 8.241-7.346 10.776 2.287 9.223 6.513 18.633 9.223 22.821a2.79 2.79 0 0 1-.82 3.854 2.827 2.827 0 0 1-1.504.447l-.05-.025Zm-36.233-42.037a.495.495 0 0 0-.298.087c-.746.46-1.616 2.821.671 6.849 1.131 1.988 2.536 3.53 4.226 4.636-.397-4.226-1.342-7.831-2.983-10.292-.447-.671-1.094-1.28-1.603-1.28h-.013Zm29.956-4.04c-.572 0-1.106.821-1.417 1.703-.994 2.983-1.019 6.874-.435 11.075 1.392-1.442 2.56-3.356 3.17-5.917 1.155-4.512-.311-6.575-1.156-6.836-.063-.012-.112-.025-.174-.025h.012Z"/></g><path fill="#FFBE3C" d="M587.342 98.366a2.77 2.77 0 0 1-2.747-2.41l-2.486-18.273a2.783 2.783 0 0 1 2.386-3.132 2.777 2.777 0 0 1 3.132 2.387l2.486 18.271a2.783 2.783 0 0 1-2.759 3.157h-.012Zm67.244 51.959a2.772 2.772 0 0 1-2.747-2.399 2.784 2.784 0 0 1 2.374-3.132l18.148-2.486c1.504-.211 2.921.858 3.132 2.374a2.784 2.784 0 0 1-2.374 3.132l-18.148 2.486a3.827 3.827 0 0 1-.385.025Zm-22.993-40.011a2.803 2.803 0 0 1-1.678-.559 2.795 2.795 0 0 1-.547-3.916l11.062-14.667a2.795 2.795 0 1 1 4.462 3.369l-11.062 14.667a2.79 2.79 0 0 1-2.237 1.119v-.013Zm-113.608 58.407a2.77 2.77 0 0 1-2.747-2.399 2.784 2.784 0 0 1 2.374-3.133l18.147-2.486c1.504-.211 2.921.858 3.132 2.374a2.783 2.783 0 0 1-2.374 3.133l-18.147 2.486a4.146 4.146 0 0 1-.385.025Zm29.707-47.258a2.74 2.74 0 0 1-1.678-.571l-14.543-11.187a2.77 2.77 0 0 1-.509-3.878 2.769 2.769 0 0 1 3.878-.51l14.543 11.187a2.768 2.768 0 0 1 .509 3.878 2.763 2.763 0 0 1-2.187 1.081h-.013Zm.373 99.595a2.805 2.805 0 0 1-1.678-.559 2.796 2.796 0 0 1-.547-3.915l11.063-14.668a2.795 2.795 0 0 1 4.462 3.369l-11.062 14.667a2.793 2.793 0 0 1-2.238 1.119v-.013Zm111.866-19.799a2.744 2.744 0 0 1-1.679-.571l-14.542-11.187a2.769 2.769 0 0 1-.51-3.878 2.769 2.769 0 0 1 3.878-.51l14.543 11.187a2.769 2.769 0 0 1 .51 3.878 2.768 2.768 0 0 1-2.188 1.081h-.012Z"/><path fill="#703E29" d="M578.27 217.767c3.108 3.107 6.215 7.706 7.085 14.418.373 3.48.125 6.588-.745 9.447l-6.091-11.063-.249-12.802Zm18.808 7.706c-3.107-12.057-9.112-13.108-16.557-20.509-1.182-4.573.09-8.948 1.354-13.591.87-3.977 1.455-17.888-3.605-17.888-5.06.001-4.411 7.778-6.027 11.383-2.308 7.557-4.406 11.183-9.013 16.989-.372.994-.916 3.739-.916 4.733.388 4.91.699 7.686-1.306 12.132l2.098 13.96c0 1.243.373 2.486.994 3.605l12.803 15.698c.995 1.864 2.859 3.231 4.972 3.853 2.113.497 4.35.124 6.091-.995.621-.372 12.841-2.522 10.231-24.274-.373-1.74-.746-3.48-1.119-5.096Z"/><path fill="#703E29" d="M634.628 251.694c-21.297 6.32-38.322 11.974-58.543 10.196-18.036 3.056-30.088 8.713-45.421 14.707-3.604.879-7.333-1.099-8.328-4.287-.994-3.187 1.243-6.484 4.848-7.364l98.941-23.411c4.599-1.099 7.706-5.276 6.463-9.342-.994-3.188 1.243-6.485 4.848-7.365 3.604-.879 7.333 1.1 8.328 4.287 1.033 3.337.422 8.467 0 9.843-1.108 3.614-8.328 11.036-11.136 12.736Z"/><path fill="#703E29" d="m627.369 224.608 11.062-.249c3.729-.248 6.961 2.486 7.334 6.34.248 3.728-2.486 6.96-6.34 7.333l-12.056-.979c-3.729.249-7.148-2.501-7.521-6.354-.16-3.184 2.954-6.091 7.521-6.091Z"/><path fill="#703E29" d="M614.936 214.166c.994-.746 2.113-1.119 3.48-1.243l19.888-.497c3.729-.249 6.961 2.486 7.334 6.339.248 3.729-2.486 6.961-6.34 7.334l-20.882-.724c-3.729.248-6.182-2.757-6.554-6.61-.125-2.486 1.21-3.232 3.074-4.599Z"/><path fill="#703E29" d="m615.261 203.347 24.286-2.23c3.729-.248 6.96 2.486 7.333 6.339.249 3.729-2.486 6.961-6.339 7.334l-23.989.621c-3.729.249-6.831-1.706-7.203-5.559-.191-3.802 2.175-6.165 5.912-6.505Z"/><path fill="#703E29" d="m618.091 191.951 20.414-.678c3.074-.143 4.931 2.102 4.805 5.754-.151 3.773-2.788 6.793-5.764 6.955l-19.29-.46c-3.073.143-5.314-2.844-5.188-6.495.117-3.693 2.078-4.939 5.023-5.076Z"/><path fill="#63B9A4" fill-rule="evenodd" d="M545.175 287.966c.648.511.937 1.255.282 1.757-11.229 8.603-143.302 48.372-188.315 54.09a30.261 30.261 0 0 1-27.843-6.588c-26.862-23.779-63.247-66.022-61.03-68.941l-16.415-94.209c4.474.373 12.686 2.931 16.415 5.541 19.978 10.482 75.745 50.319 94.42 66.016 6.137 0 7.903 3.108 6.137 6.325 1.541-4.189 6.57-4.326 7.928-1.666 57.882-4.529 89.603-10.116 144.59-26.104 1.542-.448 3.129.628 3.275 2.227 3.416 37.499 6.733 50.644 20.556 61.552Z" clip-rule="evenodd"/><path fill="#FFBE3C" d="M54.322 175.456c-12.087 15.587-3.068 43.763 2.953 55.902l60.086-52.437c-15.977-7.65-63.218-6.853-63.039-3.465Z"/><path fill="#D13D42" d="m71.69 182.608 133.404-7.046 2.551 176.96-130.012 31.074c-9.347-.233-14.97-3.528-22.102-8.357-1.652-1.119-2.623-2.898-2.59-4.893.394-23.17 2.933-169.062 4.567-178.92 1.35-8.14 14.181-8.818 14.181-8.818Z"/><path fill="#EF5858" d="M102.852 185.634c-11.171 5.502-32.166 4.29-41.787 1.708-.53-.142-.753-.743-.35-1.116 7.683-7.108 56.105-7.472 42.137-.592Z"/><path fill="#FFDF9E" d="M69.282 177.214c-27.82-12.121-20.265 29.1-12.965 52.073-19.266-43.15-5.923-55.888 2.488-57.465l113.5-5.994c19.65-1.038 49.176 25.149 61.483 38.372l-128.884 17.627c.155-7.795-7.802-32.492-35.622-44.613Z"/><path fill="#FFBE3C" d="M141.078 185.738c-5.797-13.268-18.288-16.581-23.808-16.58l29.645-1.566c8.131-.429 15.308 11.083 17.88 16.893l-23.717 1.253Z"/><path fill="#FFBE3C" fill-rule="evenodd" d="M702.319 341.943c0-5.469-2.509-10.689-7.086-14.418-4.576-3.853-10.777-5.966-17.125-5.966H522.949c-6.495 0-12.696 2.113-17.125 5.966-4.576 3.853-7.086 9.074-7.086 14.418h203.581Z" clip-rule="evenodd"/><path fill="#059688" d="M673.635 342.063H559.348l-5.938 430.194h126.162l-5.937-430.194Z"/><path fill="#059688" fill-rule="evenodd" d="M299.041 400.707c-6.238 11.012-13.564-92.959-15.375-131.869 11.308 15.033-28.659-94.071-31.518-94.319l-70.139-6.719-11.559.248-64.884 192.413 193.475 40.246Z" clip-rule="evenodd"/><path fill="#FFCF6E" fill-rule="evenodd" d="M27.875 776.018c-.682 4.348 1.776 7.222 5.945 8.633 54.39 18.402 77.7 27.573 141.258 1.232 5.204-2.157 9.968-5.428 12.34-10.537 16.248-34.989 27.205-157.265 58.225-278.25 46.2 15.197 75.692 24.835 117.086 24.835-7.096 49.674-16.558 93.433-16.558 122.999 0 18.924 122.511 17.691 132.669-8.277 4.373-11.18 4.222-149.192 0-176.384-5.096-32.69-9.97-46.218-42.785-50.693-98.343-24.74-301.315-57.88-298.784-49.863-9.36-.549-43.067 68.457-49.855 152.041-4.158 23.618-53.43 225.287-59.541 264.264Z" clip-rule="evenodd"/><path fill="#059688" d="M118.521 425.543C168.77 448.605 263.39 371.14 292.972 380.6l-6.506-9.46-57.952-11.828L112.02 380.6c.001 5.716-4.749 13.011-4.749 27.794-7.738 6.082-7.688 12.418 11.25 17.149Z"/><path fill="#FFDF9E" d="M276.288 323.597c14.468-40.347 1.477-78.025-9.909-102.922-12.442-27.209-23.805-42.808-27.549-46.909-1.305-1.429-1.543-2.943 2.083-2.943 4.061.001 8.895-.542 10.2.888.684.746 11.104 17.21 24.031 45.376 15.408 45.574 15.903 76.533 3.958 110.036-1.349 3.782-4.095.027-2.814-3.526Z"/><path fill="#007171" d="M266.813 365.522c1.614-11.908-7.687-53.812-23.062-58.248l-8.05 10.926 5.411 49.781 25.701-2.459Z"/><path fill="#FFEDCD" d="M166.721 328.046a3.486 3.486 0 0 1-2.001-.622 3.511 3.511 0 0 1-.883-4.885c24.45-35.238 20.152-74.456 15.603-101.44-4.984-29.496-16.118-50.575-17.389-53.012-1.27-2.438 13.276-2.97 14.844-.001.472.895 8.235 20.747 13.43 51.274 6.911 40.633-3.144 75.735-23.591 105.218-.684.982 1.106 3.455 0 3.455l-.013.013Z"/><path fill="#703E29" d="m367.046 275.935-27.497 9.018c-12.88 2.705-19.266 3.734-26.405 3.29-3.899-2.848 3.82-10.853 6.003-12.308 4.848-3.232 7.688-10.791 4.142-13.158-2.525-1.685-4.054-.014-8.902 3.093l-10.192 6.712c-3.853 2.486-6.2 6.329-8.825 10.192-5.196 7.648-7.857 8.131-11.11 17.109-28.618 10.067-44.776 11.262-73.624 13.897-5.718 1.243-8.241.317-6.998 6.035l14.792 30.95a8.365 8.365 0 0 0 10.316 5.842c22.534-3.347 46.38-12.075 70.296-19.469 18.356 1.097 29.011 3.407 45.053-3.899 1.615-.497 2.983-1.367 3.977-2.61a8.34 8.34 0 0 0 1.74-7.955c-.373-1.119-.994-2.238-1.74-3.108a3.76 3.76 0 0 0 .994-.994 8.337 8.337 0 0 0 1.741-7.955 9.54 9.54 0 0 0-1.741-3.107c.373-.249.746-.622.995-.995a8.34 8.34 0 0 0 1.74-7.955c-.497-1.616-1.367-2.983-2.61-3.977l22.292-9.63c4.405-1.355 6.498-2.728 5.32-7.244-1.367-4.102-5.282-3.017-9.757-1.774Z"/><path fill="#FFDF9E" d="M166.72 328.047a3.486 3.486 0 0 1-2.001-.622 3.51 3.51 0 0 1-.882-4.885c24.449-35.238 20.152-74.455 15.602-101.44-4.984-29.496-16.85-52.272-18.12-54.71-1.271-2.437 13.276-2.97 14.843 0 .472.894 8.967 22.444 14.162 52.971 6.911 40.633-3.144 75.735-23.591 105.218-.684.982 1.106 3.455 0 3.455l-.013.013Z"/><path fill="#63B9A4" fill-rule="evenodd" d="M161.849 167.8h-3.707c-21.255 0-37.682 19.735-50.108 44.86-15.925 32.2-24.556 80.455-32.522 124.182-3.62 19.877-1.657 33.212 4.446 40.523 6.104 7.311 12.11 12.107 32.807 12.107 66.864-1.213 149.899-17.872 153.65-23.143.208-.291-.022-.646-.255-.916-9.731-11.313-14.493-29.271-23.041-61.453a3.389 3.389 0 0 0-4.061-2.426c-30.751 7.33-45.39 11.535-76.617 12.688 3.256-.133-2.513-5.912-6.785 0 5.011-4.138 5.159-6.799 3.237-8.573 10.656-30.351 14.353-46.123 20.105-85.597.261-5.569-10.632-45.052-17.149-52.252Z" clip-rule="evenodd"/><path fill="#059688" fill-rule="evenodd" d="M870.368 797.498c0-18.396-14.916-25.356-33.312-25.356H369.2c-18.396 0-33.311 6.96-33.311 25.356v123.303h527.693a6.786 6.786 0 0 0 6.786-6.785V797.498Z" clip-rule="evenodd"/><path fill="#FFBE3C" d="M101.615 503.873c28.817-3.187 54.223-38.535 65.926-61.733.461-.915-.719-1.541-1.319-.711-29.614 40.984-52.984 49.748-62.964 48.887-1.02-.088-2.018.584-2.146 1.601l-1.273 10.105c-.133 1.052.722 1.968 1.776 1.851Z"/><path fill="#000" d="M232.405 102.755c25.946-2.766 53.779-26.496 42.647-63.774-7.649-25.616-20.857-33.89-53.02-33.491-26.079.323-44.553 27.632-41.721 54.19 2.833 26.559 26.16 45.841 52.094 43.075Z"/><path fill="#000" d="M212.306 156.92c.417 3.915 32.341 12.949 39.275 3.728 10.919 5.548 24.562-7.584 42.567-3.832 2.778.578 5.712-1.074 5.51-3.905-.384-5.39-2.693-11.698-9.248-15.252-5.549-4.311-6.561-13.815-5.946-31.41.294-8.418 1.411-17.68-3.16-29.634-5.195-13.582-3.909-23.897-11.61-37.779-16.242 4.107-69.697 65.414-58.123 111.19.257 2.421-12.49-3.391.735 6.894Z"/><path fill="#703E29" d="m225.213 189.008 10.461-5.027v-23.358c0-6.8-4.62-8.706-3.321-13.22a11.69 11.69 0 0 1 3.82-5.672 11.782 11.782 0 0 1 6.339-2.571c4.174-.445 10.077.541 13.767-1.468 11.237-6.116 20.611-32.419 18.378-53.349-2.92-27.385-5.681-40.59-23.344-63.914-4.511-3.664-11.963-7.985-17.529-9.617-5.568-1.644-11.08 1.398-16.849 2.038-5.769.641-9.571 2.433-14.649 5.25-33.827 18.77-23.145 50.796-19.67 83.384.153 27.503.974 43.712-1.871 68.009l44.468 19.515Z"/><path fill="#fff" d="M266.231 104.404c-6.395 1.404-16.588-.778-21.348-1.975-1.166-.294-2.24.761-1.825 1.89 2.858 7.773 9.281 12.037 15.146 12.418 5.454.354 8.942-5.007 10.328-10.365.319-1.233-1.056-2.241-2.301-1.968Z"/><path fill="#000" d="M264.317 33.541c2.085 19.555-24.45 10.128-34.527 15.987-9.792 6.206-7.987 19.063-7.987 19.063a10.326 10.326 0 0 0-4.113-5.545 10.419 10.419 0 0 0-6.68-1.738c-9.177.9-9.193 11.138-5.367 16.091 0 0 5.701 14.581 5.345 28.229-.24 9.196-3.658 23.27-3.658 23.27-1.307 9.753 4.19 14.566 8.578 16.819 2.203 1.132 3.143 4 1.103 5.404-9.682 6.668-30.631 11.276-39.974 5.04-10.561 3.444-28.412 3.781-33.029-2.133-4.617-5.914.805-16.668 2.887-29.824-2.664-24.98-.127-26.361 9.729-41.577 11-16.983-1.258-23.3 15.827-48.568 11.631-17.2 28.389-27.927 45.374-28.5 24.626-2.627 46.492 27.982 46.492 27.982Z"/><path fill="#63B9A4" d="M235.733 174.815c-15.341 8.105-42.557-2.02-55.653-8.798a.86.86 0 0 0-1.256.758v4.064c0 .269.137.529.354.688 42.886 31.593 55.828 17.176 57.598 14.227 1.249-2.078.76-7.2.222-10.351-.099-.577-.748-.861-1.265-.588Z"/></svg>