<svg class="sinch-icon" xmlns="http://www.w3.org/2000/svg" viewBox="0 0 474 400" fill="none" aria-hidden="true" focusable="false"><path d="M312.742 288.826a10.09 10.09 0 0 0-13.725 2.506c-3.163 4.357-2.328 10.443 1.909 13.845l34.612 32.105 48.635.358-71.431-48.814Z" fill="#D78C59"/><path d="M335.06 291.213H89.797c-3.64 0-6.624-3.103-6.624-6.982V99.955c0-3.819 2.924-6.982 6.624-6.982H335.06c3.64 0 6.624 3.103 6.624 6.982v184.276c0 3.879-2.984 6.982-6.624 6.982Z" fill="#E8ECEF" stroke="#FFBD3A" stroke-width=".007" stroke-miterlimit="2" stroke-linejoin="round"/><path d="M331.062 288.647H93.974c-4.654 0-8.414-3.76-8.414-8.355V109.384h254.215v170.908c0 4.595-3.939 8.355-8.713 8.355Z" fill="#fff"/><path d="M248.89 121.02H103.82v9.429h145.07v-9.429Z" fill="#E8ECEF"/><path d="M103.403 102.82a3.591 3.591 0 0 1-3.58 3.58 3.59 3.59 0 0 1-3.581-3.58 3.59 3.59 0 0 1 3.58-3.58 3.59 3.59 0 0 1 3.581 3.58Z" fill="#E4485A"/><path d="M114.323 102.82a3.59 3.59 0 0 1-3.58 3.58 3.59 3.59 0 0 1-3.581-3.58 3.59 3.59 0 0 1 3.581-3.58 3.59 3.59 0 0 1 3.58 3.58Z" fill="#FFBE3C"/><path d="M125.184 102.82a3.59 3.59 0 0 1-3.581 3.58 3.59 3.59 0 0 1-3.58-3.58 3.59 3.59 0 0 1 3.58-3.58 3.59 3.59 0 0 1 3.581 3.58Z" fill="#007171"/><path d="M340.61 141.131H109.131a5.231 5.231 0 0 0-3.759 1.551 5.197 5.197 0 0 0-1.552 3.7v143.399h226.048a10.671 10.671 0 0 0 10.682-10.682c.06-34.015.06-137.968.06-137.968Z" fill="#E8ECEF"/><path d="M152.336 307.206c-4.297 0-7.817-3.521-7.817-7.818V181.292c0-4.297 3.52-7.817 7.817-7.817h198.657c4.297 0 7.818 3.52 7.818 7.817v118.096c0 4.297-3.521 7.818-7.818 7.818H152.336Z" fill="#0A273D"/><path d="M40.864 109.861c58.72 51.022 94.882 2.686 98.881 3.461 8.533 1.612 23.153 5.371 23.153 5.371 10.443 5.431 23.751 2.745 27.868-5.848 3.402-7.101-2.207-14.978-12.651-20.469l-22.02-11.397c-8.235-4.237-17.425-6.207-26.674-5.61-15.754 1.015-27.63-6.564-41.295-23.571L62.167 8.474C54.35-.418 44.384-3.222 35.552 4.535L5.954 46.248C-.79 52.812-.91 63.613 5.715 70.356" fill="#842306"/><path d="m472.909 368.074-19.871-41.653-2.447-5.072c-4.595-9.608-12.532-17.187-22.259-21.483l-1.79-.776-60.093-26.138c-5.609-2.446-12.114-.298-15.217 5.013-3.043 5.311-1.671 12.054 3.223 15.695l26.674 19.991c2.268 1.67 1.075 5.311-1.79 5.311H277.295c-5.251 0-9.607 4.058-10.025 9.309-.418 5.251 3.342 9.966 8.593 10.682l78.114 10.741a91.46 91.46 0 0 1 23.453 6.564l17.425 7.579a24.565 24.565 0 0 1 12.293 11.756l9.13 18.857a10.022 10.022 0 0 0 9.011 5.669 10.04 10.04 0 0 0 4.117-.895l38.55-17.425a10 10 0 0 0 5.908-9.309c.119-1.611-.298-3.103-.955-4.416Z" fill="#F2A068"/><path d="M222.752 214.292c.657-.716.955-1.79.716-2.745-.238-.955-.954-1.79-1.909-2.089-1.074-.358-2.208-.119-2.984.717-4.356 4.774-18.797 20.587-25.123 27.569-.656.716-.955 1.791-.716 2.745.239.955.955 1.791 1.91 2.089 1.074.358 2.207.119 2.983-.716 4.297-4.714 18.738-20.588 25.123-27.57Zm57.825 0c-.656-.716-.955-1.79-.716-2.745.239-.955.955-1.79 1.91-2.089 1.074-.358 2.207-.119 2.983.717 4.357 4.774 18.798 20.587 25.123 27.569.657.716.955 1.791.716 2.745-.238.955-.954 1.791-1.909 2.089-1.074.358-2.208.119-2.984-.716-4.356-4.714-18.797-20.588-25.123-27.57Z" fill="#FFBE3C" stroke="#E03E52" stroke-width=".009" stroke-miterlimit="1.5" stroke-linecap="round" stroke-linejoin="round"/><path d="M222.752 266.388c.657.716.955 1.79.716 2.745-.238.955-.954 1.79-1.909 2.089-1.074.358-2.208.119-2.984-.716-4.356-4.774-18.797-20.588-25.123-27.57-.656-.716-.955-1.79-.716-2.745.239-.955.955-1.79 1.91-2.089 1.074-.358 2.207-.119 2.983.716 4.297 4.774 18.738 20.648 25.123 27.57Zm57.825 0c-.656.716-.955 1.79-.716 2.745.239.955.955 1.79 1.91 2.089 1.074.358 2.207.119 2.983-.716 4.357-4.774 18.798-20.588 25.123-27.57.657-.716.955-1.79.716-2.745-.238-.955-.954-1.79-1.909-2.089-1.074-.358-2.208-.119-2.984.716-4.356 4.774-18.797 20.648-25.123 27.57Z" fill="#FFBE3C" stroke="#E03E52" stroke-width=".009" stroke-miterlimit="1.5" stroke-linecap="round" stroke-linejoin="round"/></svg>