<svg class="sinch-icon" xmlns="http://www.w3.org/2000/svg" viewBox="0 0 392 400" fill="none" aria-hidden="true" focusable="false"><path d="m326.945 214.628-77.929 76.246c-9.838 9.709-25.76 9.579-35.469-.388-9.709-9.839-9.579-25.761.388-35.47.777-.776 1.813-1.683 2.719-2.33l88.026-64.336c7.637-5.567 18.511-3.884 24.077 3.754 5.049 6.99 4.143 16.569-1.812 22.524Z" fill="#894915"/><path d="M374.453 246.473H192.317c-6.213 0-8.802-7.897-3.883-11.651l44.013-33.139a16.745 16.745 0 0 0 5.048-20.583c-3.883-8.155-13.721-11.65-22.135-8.155l-95.146 40.518a182.883 182.883 0 0 0-79.612 65.501l-37.67 55.405C-.95 340.194.343 348.091 6.04 352.104l62.783 45.307c5.825 4.142 13.851 2.848 18.123-2.977l56.052-77.67c2.718-3.884 6.99-6.343 11.651-6.99l222.006-30.162c8.155-1.036 14.498-8.026 14.498-16.57 0-9.061-7.508-16.569-16.699-16.569Z" fill="#F2A068"/><path d="M232.576 57.605c-64.984 0-117.929 52.945-117.929 117.929v17.735l27.185-10.745v-6.99c0-49.968 40.647-90.744 90.744-90.744s90.745 40.647 90.745 90.744v55.016h27.184v-55.016c0-65.113-52.945-117.929-117.929-117.929Z" fill="#FFBE3C"/><path d="M231.67 30.55c-79.482.39-143.171 66.15-143.171 145.761v8.285c0 9.19 9.19 15.404 17.734 12.038l9.45-3.754v-16.699c0-64.336 51.392-117.8 115.858-118.446 64.983-.648 118.058 52.038 118.058 116.893v55.793h14.239c7.12 0 12.945-5.825 12.945-12.945v-42.848C376.654 94.887 311.541 30.032 231.67 30.55Z" fill="#E83452"/><path d="M231.67 83.883c-49.967.518-89.967 40.777-89.967 90.745v7.896l15.663-6.213c6.602-2.589 11.392-8.544 12.816-15.534 5.825-28.868 31.326-50.745 61.877-51.003 35.469-.259 64.077 29.255 64.077 64.724v42.978c0 7.12 5.826 12.945 12.945 12.945h14.24v-56.958c.129-50.356-41.165-90.097-91.651-89.58Z" fill="#007171"/><path d="M151.282.906c-1.294-1.294-3.366-1.294-4.531 0l-2.459 2.46-2.46-2.46c-1.294-1.294-3.366-1.294-4.531 0-1.294 1.295-1.294 3.366 0 4.53l2.46 2.46-2.46 2.46c-1.294 1.294-1.294 3.366 0 4.53.648.648 1.424.907 2.331.907.906 0 1.682-.259 2.33-.906l2.459-2.46 2.46 2.46c.647.647 1.424.906 2.33.906.906 0 1.683-.259 2.33-.906 1.294-1.295 1.294-3.366 0-4.531l-2.46-2.46 2.46-2.46c1.036-1.164 1.036-3.235-.259-4.53Zm130.486 165.696c-1.295-1.295-3.366-1.295-4.531 0l-5.566 5.566-5.567-5.566c-1.294-1.295-3.366-1.295-4.531 0-1.294 1.294-1.294 3.366 0 4.531l5.567 5.566-5.567 5.566c-1.294 1.295-1.294 3.366 0 4.531.648.647 1.424.906 2.331.906.906 0 1.682-.259 2.33-.906l5.566-5.566 5.566 5.566c.648.647 1.424.906 2.33.906.907 0 1.683-.259 2.331-.906 1.294-1.294 1.294-3.366 0-4.531l-5.567-5.566 5.567-5.566c1.035-1.295 1.035-3.366-.259-4.531ZM355.813 46.99l6.213-6.213c1.295-1.295 1.295-3.366 0-4.531-1.294-1.295-3.365-1.295-4.53 0l-6.214 6.213-6.213-6.213c-1.295-1.295-3.366-1.295-4.531 0-1.295 1.294-1.295 3.366 0 4.53l6.213 6.214-6.213 6.214c-1.295 1.294-1.295 3.365 0 4.53.647.648 1.424.907 2.33.907.906 0 1.683-.26 2.33-.906l6.214-6.214 6.213 6.214c.647.647 1.424.906 2.33.906.906 0 1.683-.26 2.33-.906 1.295-1.295 1.295-3.366 0-4.531l-6.472-6.214Z" fill="#FFBE3C"/></svg>