<svg class="sinch-icon" xmlns="http://www.w3.org/2000/svg" viewBox="0 0 406 800" fill="none" aria-hidden="true" focusable="false"><path d="M357.142 113.881c26.54 0 48.056-21.515 48.056-48.056 0-26.54-21.516-48.056-48.056-48.056-26.541 0-48.057 21.515-48.057 48.056 0 26.54 21.516 48.056 48.057 48.056Z" fill="#0A273D"/><path d="M130.618 143.512c20.501 0 37.119-16.618 37.119-37.119 0-20.5-16.618-37.119-37.119-37.119-20.5 0-37.119 16.62-37.119 37.119 0 20.501 16.619 37.119 37.119 37.119Z" fill="#E83452"/><path d="M380.552 55.11a4.201 4.201 0 0 0-4.108-.197l-6.746 3.347v-.78a7.024 7.024 0 0 0-7.015-7.016h-18.788a7.023 7.023 0 0 0-7.015 7.015v13.326a7.022 7.022 0 0 0 7.013 7.006h18.788a7.024 7.024 0 0 0 7.015-7.014v-.774l6.746 3.347a4.227 4.227 0 0 0 6.107-3.79V58.703a4.207 4.207 0 0 0-1.997-3.594Zm-89.08 99.3c14.778 0 26.759-11.98 26.759-26.759 0-14.778-11.981-26.758-26.759-26.758-14.779 0-26.759 11.98-26.759 26.758 0 14.779 11.98 26.759 26.759 26.759Z" fill="#FFBE3C"/><path d="M66.237 74.238c20.5 0 37.119-16.619 37.119-37.119S86.737 0 66.237 0 29.118 16.619 29.118 37.119s16.619 37.119 37.12 37.119Z" fill="#0A273D"/><path d="M44.44 34.126h6.088a1.046 1.046 0 0 0 1.046-.97c.163-2.822.71-5.609 1.63-8.282a1.03 1.03 0 0 0-.534-1.28 32.514 32.514 0 0 1-3.508-1.907 1.046 1.046 0 0 0-1.397.276 22.864 22.864 0 0 0-4.37 11.012 1.047 1.047 0 0 0 1.044 1.15Zm19.127 13.75a29.155 29.155 0 0 0-4.547.789 1.047 1.047 0 0 0-.604 1.581 19.15 19.15 0 0 0 4.618 4.916 1.046 1.046 0 0 0 1.673-.837v-5.41a1.044 1.044 0 0 0-1.14-1.039Zm17.199 3.788a29.235 29.235 0 0 0-2.211-1.154 1.045 1.045 0 0 0-1.351.418 22.885 22.885 0 0 1-3.257 4.292 22.062 22.062 0 0 1-2.794 2.44.234.234 0 0 0 .19.418 22.889 22.889 0 0 0 9.552-4.709 1.044 1.044 0 0 0-.13-1.705Zm7.266-14.482h-6.09a1.046 1.046 0 0 0-1.045.972 31.028 31.028 0 0 1-1.621 8.281 1.033 1.033 0 0 0 .533 1.28c1.21.563 2.383 1.2 3.514 1.908a1.045 1.045 0 0 0 1.385-.268 22.873 22.873 0 0 0 4.368-11.012 1.044 1.044 0 0 0-1.044-1.161Zm-36.326-17.52c.721.418 1.458.803 2.211 1.156a1.045 1.045 0 0 0 1.351-.418 22.801 22.801 0 0 1 3.259-4.3 21.86 21.86 0 0 1 2.792-2.448.234.234 0 0 0-.19-.418 22.903 22.903 0 0 0-9.553 4.71 1.045 1.045 0 0 0 .13 1.718Zm1.498 26.774a30.955 30.955 0 0 1-1.628-8.279 1.045 1.045 0 0 0-1.045-.972H44.44a1.046 1.046 0 0 0-1.046 1.16 22.864 22.864 0 0 0 4.371 11.02 1.046 1.046 0 0 0 1.383.265 32.568 32.568 0 0 1 3.508-1.908 1.034 1.034 0 0 0 .548-1.286Zm10.458-9.254h-7.984a1.046 1.046 0 0 0-1.046 1.117c.16 2.388.625 4.745 1.385 7.015a1.033 1.033 0 0 0 1.255.657 32.154 32.154 0 0 1 6.471-1.18 1.046 1.046 0 0 0 .95-1.035v-5.533a1.046 1.046 0 0 0-1.031-1.041ZM58.526 55.22a22.798 22.798 0 0 1-3.258-4.3 1.046 1.046 0 0 0-1.352-.419 29.79 29.79 0 0 0-2.21 1.163 1.045 1.045 0 0 0-.13 1.707 22.892 22.892 0 0 0 9.553 4.71.235.235 0 0 0 .19-.418 22.04 22.04 0 0 1-2.793-2.443Zm15.421-39.13a22.833 22.833 0 0 1 3.257 4.302 1.046 1.046 0 0 0 1.35.419c.754-.353 1.49-.739 2.212-1.157a1.046 1.046 0 0 0 .13-1.707 22.89 22.89 0 0 0-9.553-4.71.234.234 0 0 0-.19.418 21.85 21.85 0 0 1 2.794 2.435ZM63.758 26.516a32.147 32.147 0 0 1-6.472-1.18 1.034 1.034 0 0 0-1.255.657 28.055 28.055 0 0 0-1.384 7.015 1.045 1.045 0 0 0 1.045 1.117h7.97a1.046 1.046 0 0 0 1.045-1.045v-5.527a1.046 1.046 0 0 0-.95-1.037Zm15.518-1.641a31.048 31.048 0 0 1 1.63 8.28 1.046 1.046 0 0 0 1.045.971h6.09a1.046 1.046 0 0 0 1.045-1.16 22.869 22.869 0 0 0-4.384-11.003 1.046 1.046 0 0 0-1.385-.266 32.303 32.303 0 0 1-3.507 1.908 1.033 1.033 0 0 0-.534 1.27ZM68.715 44.791c2.192.171 4.361.567 6.472 1.182a1.046 1.046 0 0 0 1.255-.659 27.974 27.974 0 0 0 1.383-7.015 1.048 1.048 0 0 0-1.046-1.117h-7.974a1.046 1.046 0 0 0-1.046 1.045v5.533a1.046 1.046 0 0 0 .956 1.031Zm.09-10.665h7.989a1.046 1.046 0 0 0 1.046-1.117 27.974 27.974 0 0 0-1.383-7.016 1.046 1.046 0 0 0-1.255-.657 32.178 32.178 0 0 1-6.472 1.18 1.046 1.046 0 0 0-.952 1.046v5.53a1.046 1.046 0 0 0 1.027 1.034Zm-5.771-17.98a19.15 19.15 0 0 0-4.627 4.915 1.047 1.047 0 0 0 .605 1.581c1.495.382 3.019.644 4.556.785a1.046 1.046 0 0 0 1.14-1.046v-5.399a1.046 1.046 0 0 0-1.674-.836Zm5.869 7.281a29.158 29.158 0 0 0 4.548-.789 1.046 1.046 0 0 0 .606-1.581 19.072 19.072 0 0 0-4.629-4.91 1.046 1.046 0 0 0-1.673.837v5.41a1.046 1.046 0 0 0 1.148 1.033Zm5.154 26.821a1.046 1.046 0 0 0-.606-1.583 29.159 29.159 0 0 0-4.548-.789 1.045 1.045 0 0 0-1.14 1.046v5.41a1.046 1.046 0 0 0 1.674.836 19.14 19.14 0 0 0 4.62-4.92Z" fill="#FFBE3C"/><path d="M335.018 242.828c20.501 0 37.119-16.619 37.119-37.119s-16.618-37.119-37.119-37.119c-20.5 0-37.119 16.619-37.119 37.119s16.619 37.119 37.119 37.119Z" fill="#E83452"/><path d="M212.987 75.29c17.097 0 30.957-13.86 30.957-30.957s-13.86-30.957-30.957-30.957-30.957 13.86-30.957 30.957 13.86 30.957 30.957 30.957Z" fill="#FFBE3C"/><path d="M211.385 43.271a3.409 3.409 0 0 0 4.459 0l12.705-11.059a.743.743 0 0 0-.487-1.303h-28.895a.741.741 0 0 0-.487 1.303l12.705 11.059Zm18.932-8.009-10.423 9.082 10.423 9.076a.746.746 0 0 0 1.232-.56V35.821a.752.752 0 0 0-.436-.675.747.747 0 0 0-.796.115Zm-33.405 0a.742.742 0 0 0-1.112.159.744.744 0 0 0-.12.401v17.03a.744.744 0 0 0 1.232.561l10.423-9.07-10.423-9.081Zm20.265 11.303a6.886 6.886 0 0 1-7.127 0l-10.402 9.06a.741.741 0 0 0 .064 1.17.743.743 0 0 0 .424.133h26.957a.741.741 0 0 0 .488-1.303l-10.404-9.06Z" fill="#0A273D"/><path d="M49.735 213.522c27.08 0 49.034-21.953 49.034-49.034 0-27.08-21.953-49.033-49.034-49.033-27.08 0-49.033 21.953-49.033 49.033 0 27.081 21.953 49.034 49.033 49.034Z" fill="#FFBE3C"/><path d="M347.686 198.367a12.435 12.435 0 1 0-24.714 1.975c1.013 6.829 6.694 16.365 9.959 21.408a2.763 2.763 0 0 0 4.637 0c3.269-5.043 8.948-14.579 9.959-21.408.103-.651.157-1.308.159-1.967v-.008ZM335.25 203.5a5.136 5.136 0 0 1-4.736-3.174 5.138 5.138 0 0 1 1.118-5.592 5.129 5.129 0 0 1 5.593-1.108 5.13 5.13 0 0 1-1.975 9.874Z" fill="#fff"/><path d="M303.082 123.365a6.48 6.48 0 0 0-1.584-3.49 6.48 6.48 0 0 0-10.144.562 6.483 6.483 0 0 0-11.832 3.242 6.498 6.498 0 0 0 .382 2.636 6.503 6.503 0 0 0 1.41 2.259l8.622 8.609a2.038 2.038 0 0 0 2.882 0l8.367-8.367.238-.24a6.463 6.463 0 0 0 1.659-5.211Z" fill="#0A273D"/><path d="M19.13 202.685a44.948 44.948 0 0 1 60.61.209 47.87 47.87 0 0 1-60.61-.209Z" fill="#0A273D"/><path d="M50.338 202.714a9.981 9.981 0 0 1-9.982-9.982v-2.46a5.2 5.2 0 0 0-2.092-4.129 19.964 19.964 0 0 1-7.513-12.033 64.121 64.121 0 0 0-2.874-10.444c-.437-1.154-.89-2.345-1.318-3.468a4.082 4.082 0 0 1 3.82-5.532v-4.01c0-10.917 8.611-20.093 19.526-20.325a19.97 19.97 0 0 1 20.402 19.959v4.376a4.083 4.083 0 0 1 3.813 5.534l-1.316 3.466a63.87 63.87 0 0 0-2.867 10.444 19.964 19.964 0 0 1-7.514 12.033 5.21 5.21 0 0 0-2.091 4.129v2.46a9.978 9.978 0 0 1-9.982 9.982" fill="#0A273D"/><path d="M54.714 139.154v.349a15.511 15.511 0 0 0 15.507 15.163h.073v-4.376a19.965 19.965 0 0 0-20.228-19.963c-10.969.144-19.698 9.287-19.698 20.26v4.079h8.825a15.524 15.524 0 0 0 10.97-4.543 15.5 15.5 0 0 0 4.544-10.969" fill="#0A273D"/><path d="M127.136 118.695a16.943 16.943 0 1 1 .016-33.886 16.943 16.943 0 0 1-.016 33.886ZM117.08 92.131a13.932 13.932 0 1 0 9.751-4.297 13.832 13.832 0 0 0-9.758 4.29l.007.007Z" fill="#fff"/><path d="m140.793 109.726-5.104 5.327 8.921 8.551a3.694 3.694 0 0 0 5.217-.113 3.692 3.692 0 0 0-.113-5.215l-8.927-8.548.006-.002Z" fill="#fff"/><path d="m266.898 738.731.419-2.347 13.88-76.924h-64.089l12.663 88.227c1.22 8.492 1.732 11.107-.151 13.408l-1.045 2.301c4.392-4.629 7.055-3.667 12.882-5.083a32.157 32.157 0 0 1 27.115 5.66l3.51-.159c-2.929-6.903-7.516-12.148-5.184-25.083Zm-67.589-79.271h-64.08l14.292 79.275c2.332 12.935-1.477 13.161-1.686 19.017l.013 6.225c13.06-9.946 26.951-15.612 38.265-3.715l1.464-1.046c-.418-2.3-2.148-3.032-.931-11.525l12.663-88.231Z" fill="#894915"/><path d="M281.159 774.461c-4.859-5.713-10.91-12.822-10.91-24.509v-1.865c0-.101-.013-.197-.017-.297v-21.593a4.49 4.49 0 0 0-4.16 2.799 4.497 4.497 0 0 0-.331 1.73l.021 6.693a18.721 18.721 0 0 0-35.056-.594v-6.129a4.494 4.494 0 0 0-4.491-4.493h-.613v42.88c-.697 9.536-2.627 15.336-2.7 15.554a11.528 11.528 0 0 0 5.575 14.085 11.53 11.53 0 0 0 5.301 1.291h42.817a11.539 11.539 0 0 0 11.54-11.538c-.002-5.821-3.382-9.802-6.976-14.014Zm-145.859 0c4.861-5.713 10.91-12.822 10.91-24.509v-1.865c0-.101.015-.197.017-.297v-21.593a4.49 4.49 0 0 1 3.189 1.329 4.493 4.493 0 0 1 1.304 3.2l-.021 6.693a18.724 18.724 0 0 1 35.054-.594v-6.129c0-1.191.474-2.334 1.316-3.177a4.496 4.496 0 0 1 3.177-1.315h.613v42.879c.697 9.536 2.625 15.336 2.698 15.554a11.538 11.538 0 0 1-10.876 15.376h-42.815a11.54 11.54 0 0 1-11.538-11.538c0-5.821 3.387-9.802 6.972-14.014Z" fill="#0A273D"/><path d="M204.974 114.556a44.046 44.046 0 0 1 16.85 3.351 44.042 44.042 0 0 1 23.828 23.829 44.028 44.028 0 0 1 3.352 16.85v88.593h-88.06v-88.591a44.023 44.023 0 0 1 12.895-31.136 44.052 44.052 0 0 1 14.285-9.545 44.046 44.046 0 0 1 16.85-3.351Z" fill="#F2A068"/><path d="M233.048 243.263a9.623 9.623 0 0 1-9.621-9.622c0-3.077 1.541-5.932 3.986-7.8a37.41 37.41 0 0 0 14.759-29.804 33.517 33.517 0 0 1 4.707-17.242c2.229-3.765-.356-8.509-4.707-8.576h-13.386a3.442 3.442 0 0 1-2.747-2.861l-2.301-15.144-1.527 14.991a3.441 3.441 0 0 1-2.761 3.027h-52.336c-4.428 0-7.111 4.863-4.76 8.619 2.602 4.171 4.846 9.884 4.846 17.2a37.419 37.419 0 0 0 14.703 29.761c2.459 1.882 4.053 4.767 4.045 7.867a9.622 9.622 0 0 1-9.622 9.588h-14.755l23.655 18.365c4.472 6.323 11.701 10.209 19.453 10.216h.642c7.497-.182 14.433-4.008 18.796-10.109l23.741-18.476h-14.81Z" fill="#894915"/><path d="M215.922 203.178a16.674 16.674 0 0 1-5.406 3.613 16.675 16.675 0 0 1-12.755 0 16.674 16.674 0 0 1-5.406-3.613" stroke="#F2A068" stroke-width="4" stroke-linecap="round" stroke-linejoin="round"/><path d="m160.664 304.227-11.505 31.028a28.63 28.63 0 0 1-26.844 18.677 29.715 29.715 0 0 1-29.208-24.23l-10.375-55.221h26.338l10.913 29.859 40.681-.113Z" fill="#894915"/><path d="M74.12 252.614a1.254 1.254 0 0 0 .945-2.186l-7.969-7.141a3.262 3.262 0 0 1-.646-4.06c.878-1.52 2.84-2.026 4.392-1.221l17.725 9.412c5.075 2.692 16.801 11.155 20.342 26.86" fill="#894915"/><path d="M57.178 250.535c8.617 1.123 19.184 2.24 27.652 3.085a26.775 26.775 0 0 1 21.544 15.27c1.728 3.679 3.121 6.651 3.121 6.651s-28.983-10.239-29.255-10.299l-23.184-6.98a18.556 18.556 0 0 1-10.841-8.704l-3.357-5.997a3.61 3.61 0 0 1 .822-4.524 2.921 2.921 0 0 1 2.146-.685 2.934 2.934 0 0 1 1.998 1.041l9.353 11.142Z" fill="#894915"/><path d="M62.543 251.488a7.972 7.972 0 0 1-11.626-3.15l-2.253-4.656a3.61 3.61 0 0 1 1.096-4.466 2.934 2.934 0 0 1 4.117.607l8.666 11.677" fill="#894915"/><path d="M52.367 249.488a10.283 10.283 0 0 0 4.834 3.211l11.314 3.512c1.402.435 2.851.7 4.317.788 2.458-.081 7.162-.265 12.15-.468a25.385 25.385 0 0 1 24.095 17.744 186.675 186.675 0 0 1 1.018 3.137l-23.13 8.292-3.25-8.819a14.149 14.149 0 0 0-13.065-9.256c-.031.067-.062.065-.094.065a31.16 31.16 0 0 1-25.884-15.173 2453.629 2453.629 0 0 1-4.63-7.739 3.497 3.497 0 0 1 .75-4.464c.296-.25.639-.439 1.009-.557a2.961 2.961 0 0 1 2.252.194c.344.179.65.424.899.721l7.404 8.808.011.004Z" fill="#894915"/><path d="m175.969 268.363-28.094 61.324-32.86-14.61 28.633-61.615" fill="#894915"/><path d="M161.486 284.401c11.379 0 20.603-9.225 20.603-20.604 0-11.378-9.224-20.603-20.603-20.603-11.379 0-20.603 9.225-20.603 20.603 0 11.379 9.224 20.604 20.603 20.604Z" fill="#894915"/><path d="m273.278 321.606-38.613-52.546 29.895-18.367s28.725 32.8 43.902 51.14a20.539 20.539 0 0 1 2.646 22.078l-39.815 81.826-16.142-22.477 18.129-61.654h-.002Z" fill="#894915"/><path d="m276.859 406.167-2.138-20.143c-.119-1.123-12.418-6.413-12.213-5.582 0 0 4.376 15.422 7.112 25.079a18.552 18.552 0 0 0 9.136 11.318l4.934 2.625a3.348 3.348 0 0 0 4.184-.855 2.786 2.786 0 0 0-.419-3.916l-10.6-8.526m-28.194-121.766c11.378 0 20.603-9.225 20.603-20.604 0-11.378-9.225-20.603-20.603-20.603-11.379 0-20.604 9.225-20.604 20.603 0 11.379 9.225 20.604 20.604 20.604Z" fill="#894915"/><path d="M236.68 241.799h-7.382s-4.022 19.628-24.343 19.634c-20.32.007-24.345-19.634-24.345-19.634h-7.379s-31.585 45.082-19.505 105.988h102.459c12.077-60.914-19.505-105.988-19.505-105.988Z" fill="#E83452"/><path d="m309.69 644.326-9.877-131.186a289.845 289.845 0 0 0-23.831-95.063l-10.32-23.356s-10.523-29.792-9.478-46.943l-14.223-.028v-.064h-68.398v.054l-19.8.038c1.046 17.151-9.477 46.943-9.477 46.943l-10.321 23.356a289.844 289.844 0 0 0-23.83 95.063l-9.869 131.186a14.06 14.06 0 0 0 .749 5.703 14.059 14.059 0 0 0 7.658 8.256 14.06 14.06 0 0 0 5.63 1.174h181.349a14.08 14.08 0 0 0 14.038-15.133Z" fill="#FFBE3C"/></svg>