<svg class="sinch-icon" xmlns="http://www.w3.org/2000/svg" viewBox="0 0 868 800"><path d="M743.029 800a65.073 65.073 0 0 1-53.216-27.573 65.073 65.073 0 0 1-8.106-59.384c5.049-14.202 10.693-26.125 17.244-36.43a16.512 16.512 0 0 1 10.349-7.26 16.52 16.52 0 0 1 17.112 6.636 16.528 16.528 0 0 1 2.747 12.34 16.528 16.528 0 0 1-2.331 6.009c-5.205 8.187-9.786 17.932-14.002 29.789a32.047 32.047 0 0 0 33.77 42.64c.093 0 .187-.02.281-.027a31.99 31.99 0 0 0 24.058-16.208l10.086-18.181a58.267 58.267 0 0 1 77.436-23.645 16.526 16.526 0 0 1 5.133 3.949 16.538 16.538 0 0 1 3.219 5.62 16.516 16.516 0 0 1-16.974 21.708 16.524 16.524 0 0 1-6.23-1.769 25.243 25.243 0 0 0-33.704 10.161l-10.088 18.184a65.081 65.081 0 0 1-49.516 33.037l-.404.041a65.03 65.03 0 0 1-6.864.363Z" fill="#F2A068"/><path d="M21.409 0h323.305a20.795 20.795 0 0 1 20.773 20.773V232.84H21.409A20.793 20.793 0 0 1 .636 212.063V20.773A20.793 20.793 0 0 1 21.409 0" fill="#007171"/><path d="M222.723 274.478H21.416a20.79 20.79 0 0 0-20.78 20.775v83.553h222.087a20.795 20.795 0 0 0 20.773-20.773v-62.78a20.796 20.796 0 0 0-20.773-20.775Z" fill="#FFBE3C"/><path d="M168.062 337.607c6.056 0 10.965-4.909 10.965-10.966 0-6.056-4.909-10.965-10.965-10.965-6.057 0-10.966 4.909-10.966 10.965 0 6.057 4.909 10.966 10.966 10.966Zm-45.997 0c6.056 0 10.965-4.909 10.965-10.966 0-6.056-4.909-10.965-10.965-10.965s-10.966 4.909-10.966 10.965c0 6.057 4.91 10.966 10.966 10.966Zm-45.992 0c6.056 0 10.965-4.909 10.965-10.966 0-6.056-4.91-10.965-10.965-10.965-6.057 0-10.966 4.909-10.966 10.965 0 6.057 4.91 10.966 10.966 10.966ZM275.57 92.165H90.555a5.386 5.386 0 0 1 0-10.771H275.57a5.386 5.386 0 1 1 0 10.771Zm-92.537 59.28H90.555a5.386 5.386 0 0 1 0-10.772h92.478a5.386 5.386 0 0 1 0 10.772Z" fill="#fff"/><path d="M615.675 402.718S506.567 240.893 512.588 287.271c10.022 77.194-28.652 55.324-28.549 143.141l131.636-27.694Z" fill="#FFD03C"/><path d="M277.401 386.038c3.642 5.698 6.05 11.584 6.768 17.594.717 6.009-.089 12.206-2.169 18.991l-1.732 5.513a59.046 59.046 0 0 0-1.677 6.901 63.145 63.145 0 0 0-1.008 14.117c.364 9.405 2.681 18.401 6.01 26.604l.286.701.42.72a16513.683 16513.683 0 0 0 38.013 64.194l19.116 32.031 19.213 31.974a10.593 10.593 0 0 0 14.477 3.621 10.592 10.592 0 0 0 3.738-14.447l-18.899-32.161-18.999-32.098a10513.726 10513.726 0 0 0-38.217-64.073l.709 1.419c-2.644-6.398-4.289-12.942-4.57-19.342a42.001 42.001 0 0 1 .612-9.467c.27-1.557.634-3.096 1.09-4.609l.818-2.742.882-3.08c2.308-8.338 3.82-18.177 2.031-27.827a53.554 53.554 0 0 0-4.341-13.764 61.473 61.473 0 0 0-7.372-11.782 9.387 9.387 0 0 0-12.851-1.906 9.391 9.391 0 0 0-2.458 12.758l.114.171-.004-.011Z" fill="#894915"/><path d="m413.954 576.288 29.177-60.157a30.487 30.487 0 0 1 19.292-16.079 38.811 38.811 0 0 1 45.387 54.136l-46.18 96.655 28.823 45.069h-71.817a47.175 47.175 0 0 1-42.602-26.915l-93.433-196.475a29.248 29.248 0 0 1 9.154-36.183l22.281-16.292 99.918 156.241Zm391.608-43.01a40.67 40.67 0 0 0-39.183-23.337l-9.69.564a40.68 40.68 0 0 0-38.301 41.27 40.68 40.68 0 0 0 5.493 19.756c19.347 33.317 43.264 74.49 60.566 104.293a40 40 0 0 0 27.069 19.203 40.01 40.01 0 0 0 32.249-7.837 39.705 39.705 0 0 0 11.425-48.074L805.571 533.28l-.009-.002Z" fill="#894915"/><path d="M377.824 344.949a12.204 12.204 0 0 0-11.115-7.168h-78.603a4.447 4.447 0 0 0-4.052 6.281l69.304 152.996a4.445 4.445 0 0 0 4.049 2.612h77.034a8.69 8.69 0 0 0 8.662-8.045 8.688 8.688 0 0 0-.751-4.223c-14.487-31.99-53.076-117.177-64.528-142.453Z" fill="#666"/><path d="M362.697 337.781h-74.443a12.207 12.207 0 0 0-10.253 5.589 12.196 12.196 0 0 0-.861 11.646l62.278 137.486a12.195 12.195 0 0 0 11.114 7.168h85.497l-73.332-161.889Z" fill="#CCC"/><path d="m306.957 436.433 69.078 1.008a9.722 9.722 0 0 0 .527-19.439l-69.027-2.755a10.6 10.6 0 0 0-.845 21.179h.267" fill="#894915"/><path d="m311.941 433.234 50.786-38.74a8.576 8.576 0 0 0-9.958-13.954l-53.145 35.442a10.605 10.605 0 1 0 12.317 17.252Z" fill="#894915"/><path d="m312.976 454.594 70.035.094a9.428 9.428 0 0 0 6.592-2.705 9.428 9.428 0 0 0 .24-13.192 9.429 9.429 0 0 0-6.49-2.943l-69.993-2.445a10.6 10.6 0 0 0-.741 21.187h.357" fill="#894915"/><path d="m318.832 472.223 69.075-.122a8.792 8.792 0 0 0 8.82-8.581 8.796 8.796 0 0 0-8.392-8.999l-68.986-3.485a10.604 10.604 0 0 0-11.189 10.048 10.594 10.594 0 0 0 2.745 7.668 10.596 10.596 0 0 0 7.374 3.457c.174 0 .38.014.553.014Z" fill="#894915"/><path d="m724.223 600.317-.616 95.556H418.485l69.064-149.989-46.043-26.175 46.507-100.311a50.8 50.8 0 0 1 45.514-29.433l169.531-1.917 22.393 22.361-.172 26.205 26.89-17.037 59.448 126.764-84.071 59.019-3.323-5.043Z" fill="#E83452"/><path d="M557.319 352.94a62.209 62.209 0 0 1-6.19-1.828 78.44 78.44 0 0 1-52.411-74.512l.299-65.106a78.392 78.392 0 0 1 11.777-41.066c16.146-25.985 45.044-40.056 75.404-36.729a78.44 78.44 0 0 1 70.058 78.517l-.285 65.113a78.75 78.75 0 0 1-15.324 46.262l8.24 43.835c4.301 14.496 9.597 21.436 21.433 21.436h6.444l-89.524 62.401a22.706 22.706 0 0 1-22.125 2.154 22.985 22.985 0 0 1-13.714-21.766 22.98 22.98 0 0 1 2.06-8.804c8.156-17.366 18.911-40.673 22.597-50.455 2.957-7.847-4.497-15.538-12.929-18.296a77.74 77.74 0 0 1-5.372-1.045c-.164 0-.331-.015-.498-.02l.057-.085.003-.006Z" fill="#894915"/><path d="M499.89 206.638c0-24.892 20.624-44.973 45.718-44.079 23.903.85 42.501 21.22 42.501 45.137v99.733c0 40.975 47.148 94.857 109.757 94.857 51.326 0 93.148-45.871 93.148-91.582 0-14.608-4.84-31.442-10.612-46.326a61.775 61.775 0 0 0-57.687-39.679v-.046a25.351 25.351 0 0 1-24.403-18.508c-5.425-19.304-13.939-47.59-18.822-53.627-13.175-16.298-29.999-19.136-42.958-18.19-12.567.925-25.066-3.231-34.731-11.318-12.074-10.093-31.682-20.741-59.108-18.081-54.897 5.331-81.467 68.801-42.803 102.806v-1.097Z" fill="#FFD03C"/><path d="m544.235 648.578 6.06-20.583c1.713-5.689 8.482-8.984 14.852-7.083 1.193.357 2.32.907 3.336 1.627a12.68 12.68 0 0 1 9.775-1.639c5.338 1.264 8.788 5.656 8.542 10.367a12.568 12.568 0 0 1 6.359 1.129c4.837 2.267 7.083 7.365 5.666 12.067l-.361 1.2c.08.018.16.027.229.046 6.156 1.457 9.809 7.083 8.164 12.546l-4.853 16.146-65.538-3.35s6.009-16.477 7.769-22.473Z" fill="#842306"/><path d="M794.51 319.469h.023s-3.59-16.909-6.663-31.407a6.855 6.855 0 0 0-12.933-1.417l-13.4 29.451-37.492-1.081-6.66-31.407a6.852 6.852 0 0 0-5.957-5.377 6.85 6.85 0 0 0-4.129.853 6.85 6.85 0 0 0-2.85 3.108l-36.989 81.247a28.247 28.247 0 0 0-1.444 19.494 28.259 28.259 0 0 0 11.557 15.766l3.581 2.371-121.276 262.123 194.176-24.87 16.098-41.198a493.41 493.41 0 0 0 30.635-235.66c-1.849-16.132-3.942-30.832-6.277-41.996Z" fill="#F2A068"/><path d="M297.328 363.199a6.942 6.942 0 1 0 0-13.884 6.942 6.942 0 0 0 0 13.884Z" fill="#666"/><path d="M789.707 625.226 663.321 642.93a49.191 49.191 0 0 1-16.109-.409l-11.708-2.251a49.199 49.199 0 0 0-32.134 4.744c-14.519 7.59-35.929 17.781-46.17 17.781h-17.535c-7.445 0-13.939 5.736-14.167 13.178a13.59 13.59 0 0 0 3.83 9.88 13.6 13.6 0 0 0 9.759 4.131h28.909c2.248 0 4.487.27 6.67.805l10.669 2.614a77.667 77.667 0 0 0 18.476 2.23h217.714l-31.832-70.407h.014Z" fill="#894915"/><path d="M532.62 303.419c1.787.351 3.608.504 5.429.457a25.29 25.29 0 0 0 17.014-7.209 2.774 2.774 0 0 0 .83-1.981 2.77 2.77 0 0 0-.83-1.981 2.853 2.853 0 0 0-4.005 0 19.426 19.426 0 0 1-26.552.644 2.857 2.857 0 0 0-4.001.192 2.773 2.773 0 0 0-.467 3.088 2.8 2.8 0 0 0 .661.877c3.375 3 7.492 5.041 11.923 5.909" fill="#842306"/></svg>