<svg class="sinch-icon" xmlns="http://www.w3.org/2000/svg" viewBox="0 0 887 800" fill="none" aria-hidden="true" focusable="false"><path d="M410.48 779.879c7.503 12.986 23.244 18.101 23.244 18.101s4.695 1.968 13.72 1.968h23.978c6.584-.027 12.277-5.064 12.88-11.753.578-6.27-3.462-12.041-9.549-13.668-.865-.236-1.784-.341-2.675-.367-.945-.053-1.863-.289-2.676-.761-5.693-3.358-18.18-10.913-21.433-15.347-4.277-5.85-37.489 21.827-37.489 21.827Z" fill="#00807D"/><path d="M410.48 779.878c-.708-.813-1.967-.918-2.781-.183-.314.288-.55.656-.629 1.049l-1.417 6.349a2.613 2.613 0 0 1-3.122 1.993l-28.935-6.453a2.613 2.613 0 0 1-1.994-3.122l16.842-75.396c.393-1.731 2.099-2.833 3.83-2.44l22.823 5.09c4.618 1.023 7.53 5.588 6.533 10.179 0 .026 0 .052-.027.078a26.281 26.281 0 0 1 16.501-4.748 3.758 3.758 0 0 1 3.516 3.987c0 .21-.053.42-.079.63l-.944 3.856a46.885 46.885 0 0 0 7.345 37.331" fill="#00807D"/><path d="m425.448 490.681-43.066 220.128 86.609 16.944 43.066-220.128-86.609-16.944Z" fill="#0A273D"/><path d="M304.181 119.075c-22.194.446-39.849 18.862-39.849 41.056v86.073c0 8.421-2.44 8.343-2.755 8.789l20.253 19.701c4.932 4.04 19.859 1.732 21.38 1.338l1.417-10.861a22.528 22.528 0 0 1 3.515-9.575c1.915-2.886 3.935-4.512 5.273-5.116.971-.445 9.418-3.541 18.469-7.161a22.06 22.06 0 0 0 13.851-20.463v-63.092c-.052-22.745-18.704-41.135-41.554-40.689Z" fill="#FF7F51"/><path d="M352.478 203.758a1.635 1.635 0 0 1-1.627-1.627V176.71c0-.891.735-1.626 1.627-1.626s1.626.735 1.626 1.626v25.421a1.67 1.67 0 0 1-1.626 1.627Z" fill="#0A273D"/><path d="M352.477 190.773h-62.725a1.635 1.635 0 0 1-1.626-1.627c0-.892.735-1.626 1.626-1.626h62.725c.892 0 1.627.734 1.627 1.626a1.671 1.671 0 0 1-1.627 1.627Z" fill="#0A273D"/><path d="M320.263 169.942c-8.422 0-15.269 6.821-15.269 15.268v5.51c-8.421 0-15.268 6.401-15.268 14.822s-6.82 15.268-15.268 15.268H264.28v-50.868h55.983Z" fill="#842306"/><path d="M374.934 593.619h55.825c14.035 0 26.313 9.969 29.198 23.689l36.859 174.455c1.102 5.483 6.427 9.051 11.91 7.949 5.483-1.102 9.051-6.427 7.949-11.91-.026-.079-.026-.158-.052-.236l-36.859-174.455c-4.853-23.06-25.499-39.797-49.057-39.797h-51.602v-3.515h-77.023v3.489h-54.618c-23.558 0-44.204 16.737-49.058 39.797l-36.753 174.507c-1.155 5.483 2.361 10.861 7.844 12.015.682.157 1.39.21 2.098.21 4.801 0 8.92-3.358 9.917-8.054l36.78-174.507c2.885-13.721 15.163-23.689 29.198-23.689h55.825l71.619.052Z" fill="#CCD4D9"/><path d="m201.869 552.405.026.078c3.017 14.114 17.682 22.247 29.959 22.247l210.92-.079c13.301.053 24.109-10.677 24.162-23.951v-.446a4.484 4.484 0 0 0-4.486-4.486H237.914" fill="#842306"/><path d="M505.42 716.839h23.401a8.565 8.565 0 0 1 8.578 8.578 26.378 26.378 0 0 1 15.059-8.237c2.046-.341 3.987 1.075 4.302 3.122.026.21.053.446.053.656l-.079 3.961a46.95 46.95 0 0 0 15.294 34.838 46.515 46.515 0 0 0 23.033 11.438l12.514 2.597c6.139 1.26 10.52 6.664 10.52 12.934 0 7.293-5.903 13.195-13.17 13.195h-32.923c-11.359 0-22.666-3.935-31.796-10.703a1.946 1.946 0 0 0-2.754.42c-.236.341-.394.734-.394 1.154v6.506a2.63 2.63 0 0 1-2.623 2.623h-29.644a2.631 2.631 0 0 1-2.624-2.623v-77.259a3.242 3.242 0 0 1 3.253-3.2Z" fill="#00807D"/><path d="M495.714 452.323H220.023l17.839 93.366h219.629l36.728 180.62h93.13l-29.382-214.356c-4.827-40.873-29.382-59.63-62.253-59.63Z" fill="#12364C"/><path d="M246.178 553.402c-6.663-80.197-27.126-194.13-66.949-240.669-6.637-7.765-16.947-5.929-11.647 26.759a814249.34 814249.34 0 0 1 34.34 213.123l44.256.787Z" fill="#842306"/><path d="m303.21 276.005-41.633-21.013-1.757 3.568c-3.857 7.844-10.389 13.825-17.813 18.469-7.582 4.722-12.278 10.703-16.895 19.885l-11.07 22.876-53.963 118.839c-8.448 18.626 5.168 39.744 25.604 39.744H306.07l33.553-25.053-17.052-126.185s-6.296-26.575-17.551-39.456c-.026 0-2.911-3.2-1.81-11.674Z" fill="#CCD4D9"/><path d="m401.509 488.867-16.816-13.615a9.24 9.24 0 0 0-10.205-.919l-11.753 6.428c-8.447 4.617-17.944 8.027-27.572 8.053l-154.255-.498c-22.771.079-37.75-23.742-27.781-44.23L213.911 320l50.001 50.972-40.059 68.366 99.767 4.8a30.835 30.835 0 0 0 16.187-3.148l14.245-7.083c6.532-3.253 14.428-1.81 19.413 3.515l37.96 40.82a7.288 7.288 0 0 1-.184 10.126 7.25 7.25 0 0 1-9.732.499Z" fill="#FF7F51"/><path d="m423.702 195.993 1.994 1.784c8.08 8.342 18.128 13.93 28.91 16.816 33.868 9.077 68.995-11.202 78.072-45.07a63.89 63.89 0 0 0-6.428-48.323c-8.447-14.638-22.089-25.315-38.642-29.749-33.868-9.077-68.995 11.202-77.783 45.568-3.096 11.543-2.624 23.637.577 34.786l.918 2.729-12.251 21.065 24.633.394Z" fill="#0A273D"/><path d="M440.308 164.46c-2.335 0-4.171-1.889-4.171-4.197l.105-14.717c.026-2.309 1.889-4.172 4.197-4.145 2.309.026 4.172 1.888 4.145 4.197l-.104 14.717a4.177 4.177 0 0 1-4.172 4.145Zm61.833.289c-2.334 0-4.171-1.889-4.171-4.197l.105-14.718c.026-2.282 1.889-4.145 4.171-4.145h.027c2.308 0 4.144 1.889 4.144 4.198l-.105 14.717a4.153 4.153 0 0 1-4.144 4.145h-.027Zm-46.486 6.532c-2.335 0-4.171-1.889-4.171-4.198l.21-28.227c.026-2.282 1.889-4.145 4.171-4.145h.026c2.309 0 4.145 1.889 4.145 4.197l-.21 28.228a4.176 4.176 0 0 1-4.171 4.145Zm31.061.131c-2.335 0-4.171-1.889-4.171-4.197l.21-28.228c.026-2.309 1.888-4.171 4.197-4.145 2.309.026 4.171 1.889 4.145 4.197l-.21 28.228c-.026 2.282-1.889 4.145-4.171 4.145Zm-15.714 5.955c-2.335 0-4.171-1.889-4.171-4.198l.288-40.243c.026-2.308 1.889-4.171 4.198-4.144 2.308.026 4.171 1.888 4.144 4.197l-.288 40.243a4.176 4.176 0 0 1-4.171 4.145Z" fill="#fff"/><path d="m383.932 160.787-25.788-.079c-5.535-.026-10.31-3.856-11.517-9.234-4.197-18.653-20.829-32.635-40.715-32.635-23.059 0-41.738 18.678-41.738 41.738v10.231h119.548c2.597 0 4.932-1.915 5.194-4.512a5.006 5.006 0 0 0-4.984-5.509Z" fill="#007171"/></svg>