<svg class="sinch-icon" xmlns="http://www.w3.org/2000/svg" viewBox="0 0 867 400" fill="none" aria-hidden="true" focusable="false"><path d="M392.955 0c-2.618 0-5.106 1.047-7.07 2.88-1.964 1.834-2.881 4.452-2.881 7.202 0 5.499 4.321 9.95 9.689 10.082h7.987c16.891.523 32.995 7.594 45.041 19.901 12.439 12.832 19.378 30.115 19.378 48.184v31.162c0 5.499 4.452 10.082 9.82 10.082 5.369 0 9.82-4.452 9.82-10.082V88.38c0-23.437-9.034-45.958-25.139-62.455C444.019 10.082 423.332.917 401.597.13c-.393 0-4.452-.131-8.642-.131Zm464.943 360.851c-18.985-129.1-126.874-224.419-253.879-224.419H29.486v247.856c0 4.19 1.57 8.249 4.451 11.129 2.88 3.012 6.809 4.583 10.868 4.583H845.72c4.452 0 8.773-1.964 11.653-5.499a16.407 16.407 0 0 0 3.536-12.701c-.786-5.761-1.834-12.962-3.012-20.949Z" fill="#272727"/><path d="M866.016 324.19c-17.807-124.386-121.637-216.694-243.928-216.825-209.231-.262-509.329-.524-596.53-.655-6.547 0-12.832 2.619-17.414 7.463C3.43 118.887.81 125.303.81 131.98v213.028c0 14.01 10.999 25.27 24.616 25.27H680.09c3.012 0 5.892-1.309 7.856-3.666a11.02 11.02 0 0 0 2.488-8.51c-1.571-11.261-3.535-26.449-3.535-26.449H859.73c1.833 0 3.666-.786 4.845-2.357 1.178-1.309 1.702-3.142 1.44-5.106Z" fill="#007171"/><path d="M146.54 369.624h209.754V161.309c0-2.095-.916-4.058-2.357-5.63-1.571-1.44-3.666-2.356-5.761-2.356H154.788c-2.226 0-4.19.785-5.761 2.356-1.571 1.441-2.357 3.535-2.357 5.63-.13 38.887-.13 208.315-.13 208.315Z" fill="#059688"/><path d="M219.993 187.234c0-2.619-1.048-5.106-2.75-6.939-1.833-1.833-4.189-2.881-6.677-2.881h-26.841c-2.488 0-4.976 1.048-6.678 2.881-1.833 1.833-2.75 4.32-2.75 6.939v62.848c0 2.618 1.048 5.106 2.75 6.939 1.833 1.833 4.19 2.881 6.678 2.881h26.841c2.488 0 4.975-1.048 6.677-2.881 1.833-1.833 2.75-4.321 2.75-6.939v-62.848Zm111.817 0c0-2.619-1.048-5.106-2.75-6.939-1.833-1.833-4.19-2.881-6.678-2.881h-26.841c-2.488 0-4.975 1.048-6.677 2.881-1.833 1.833-2.75 4.32-2.75 6.939v62.848c0 2.618 1.047 5.106 2.75 6.939 1.833 1.833 4.189 2.881 6.677 2.881h26.841c2.488 0 4.976-1.048 6.678-2.881 1.833-1.833 2.75-4.321 2.75-6.939v-62.848Zm148.478 0c0-2.619-1.048-5.106-2.75-6.939-1.833-1.833-4.19-2.881-6.678-2.881h-72.667c-2.488 0-4.976 1.048-6.678 2.881-1.833 1.833-2.75 4.32-2.75 6.939v62.848c0 2.618 1.048 5.106 2.75 6.939 1.833 1.833 4.19 2.881 6.678 2.881h72.667c2.488 0 4.976-1.048 6.678-2.881 1.833-1.833 2.75-4.321 2.75-6.939v-62.848Zm117.315 0c0-2.619-1.047-5.106-2.749-6.939-1.833-1.833-4.19-2.881-6.678-2.881h-72.668c-2.487 0-4.975 1.048-6.677 2.881-1.833 1.833-2.75 4.32-2.75 6.939v62.848c0 2.618 1.048 5.106 2.75 6.939 1.833 1.833 4.19 2.881 6.677 2.881h72.668c2.488 0 4.976-1.048 6.678-2.881 1.833-1.833 2.749-4.321 2.749-6.939v-62.848Zm-479.607 0c0-2.619-1.047-5.106-2.749-6.939-1.833-1.833-4.19-2.881-6.678-2.881H35.901c-2.487 0-4.975 1.048-6.677 2.881-1.833 1.833-2.75 4.32-2.75 6.939v62.848c0 2.618 1.048 5.106 2.75 6.939 1.833 1.833 4.19 2.881 6.677 2.881h72.668c2.488 0 4.975-1.048 6.678-2.881 1.833-1.833 2.749-4.321 2.749-6.939v-62.848Z" fill="#fff"/><path d="M716.883 323.797c8.642 0 15.581-7.201 15.581-16.105 0-8.903-6.939-16.104-15.581-16.104-8.641 0-15.581 7.201-15.581 16.104-.131 9.035 6.94 16.105 15.581 16.105Zm123.208 0c8.642 0 15.581-7.201 15.581-16.105 0-8.903-6.939-16.104-15.581-16.104-8.641 0-15.581 7.201-15.581 16.104 0 9.035 6.94 16.105 15.581 16.105Z" fill="#FFBE3C"/><path d="M763.495 153.323h-68.478c-5.499 0-10.867 2.487-14.402 6.808-3.535 4.321-5.107 10.082-4.321 15.712 3.273 21.211 8.118 52.111 10.868 69.787 1.178 7.856 7.855 13.617 15.58 13.617h145.205c-18.33-42.946-47.79-79.476-84.452-105.924Z" fill="#fff"/></svg>