<svg class="sinch-icon" xmlns="http://www.w3.org/2000/svg" viewBox="0 0 317 800" fill="none" aria-hidden="true" focusable="false"><path d="m247.819 711.243 5.695 17.085 44.808-10.423-5.372-17.3-45.131 10.638Zm-63.612 10.853h-47.709v18.16h47.709v-18.16Z" fill="#E83452"/><path d="M249.861 89.519v17.998h-89.509s-.107-17.944 0-17.944l89.509-.054Z" fill="#005F5F"/><path d="M184.207 393.934H88.681v328.377h95.526V393.934Z" fill="#A8D7E2"/><path d="m292.95 700.659-51.481-157.956a193.882 193.882 0 0 1-9.456-59.637v-88.971h-95.526v88.971a193.419 193.419 0 0 0 9.456 59.637l56.198 179.447 90.809-21.491Z" fill="#A8D7E2"/><path d="M203.334 286.481h-25.037V107.464h53.727v179.017h-28.69Z" fill="#005F5F"/><path d="M248.679 286.481h-16.655V107.464h35.782v179.017h-19.127Z" fill="#059688"/><path d="m112.643 107.518-15.258 39.113-11.283 34.062-34.062-13.324 11.175-29.979a5.6 5.6 0 0 0-1.505-6.555 11.735 11.735 0 0 1-3.438-13.324l7.63-20.201 46.741 10.208Z" fill="#FFE1CC"/><path d="M80.515 133.038a8.304 8.304 0 0 0 1.826 9.455" stroke="#F2A068" stroke-width="3" stroke-linecap="round" stroke-linejoin="round"/><path d="m63.86 117.779 23.854-62.967a5.738 5.738 0 0 1 7.307-3.331l23.854 9.026c3.761 1.397 5.91 7.951 4.728 10.96L99.749 134.22a5.737 5.737 0 0 1-7.307 3.331l-23.855-9.026c-2.9-1.182-6.662-5.588-4.728-10.746Z" fill="#666"/><path d="m63.86 117.565 23.854-62.753a5.739 5.739 0 0 1 7.307-3.331l23.854 9.026a5.738 5.738 0 0 1 3.332 7.307l-23.748 62.86a5.739 5.739 0 0 1-7.306 3.331l-23.855-9.026a5.856 5.856 0 0 1-3.439-7.414Z" fill="#272727"/><path d="m65.041 79.311 3.439-1.827 7.2 14.507a6.017 6.017 0 0 1-2.365 8.166 6.018 6.018 0 0 1-8.166-2.364l-3.654-6.447a8.897 8.897 0 0 1 3.547-12.035Z" fill="#FFE1CC"/><path d="m62.14 100.587 3.654-2.042 6.447 11.713a6.018 6.018 0 0 1-2.364 8.166 6.013 6.013 0 0 1-8.167-2.364l-2.686-4.835a7.877 7.877 0 0 1 3.116-10.638Zm10.745-31.591 3.01-1.612 9.455 17.192a6.017 6.017 0 0 1-2.364 8.167 6.018 6.018 0 0 1-8.166-2.364l-5.266-9.671a8.513 8.513 0 0 1 3.331-11.712Z" fill="#FFE1CC"/><path d="M75.572 59.97a4.577 4.577 0 0 1 6.232 1.826l3.116 4.513a5.867 5.867 0 0 1-2.364 8.06 6.017 6.017 0 0 1-8.166-2.365l-1.72-1.934a7.522 7.522 0 0 1 2.902-10.1Z" fill="#FFE1CC"/><path d="M232.024 143.031v251.011H88.681v-155.27l-20.523 21.813-17.193 17.192a29.84 29.84 0 0 1-47.494-35.03l34.063-91.979 40.51 15.258 40.509-40.725s12.357 7.952 19.342 7.952a27.35 27.35 0 0 0 17.837-6.555l22.565-19.342h18.16a35.7 35.7 0 0 1 35.567 35.675Z" fill="#081B2B"/><path d="m178.297 107.518-22.135 20.094a25.071 25.071 0 0 1-30.409 2.471l-7.092-4.621 3.868-3.868a7.713 7.713 0 0 0 2.149-5.158 8.887 8.887 0 0 0-2.61-6.316 8.888 8.888 0 0 0-6.319-2.602h-3.009c-13.54 2.471-18.912-9.349-18.912-9.349 9.778-3.975 9.993-10.208 9.993-10.208H88.885V36.6c0-19.557 15.366-35.997 34.923-36.534a35.791 35.791 0 0 1 36.749 35.782v53.726a17.658 17.658 0 0 0 10.882 16.596c2.17.9 4.498 1.359 6.847 1.349h.011Z" fill="#FFE1CC"/><path d="M124.571 53.737h-41.8" stroke="#E83452" stroke-width="3" stroke-miterlimit="10"/><path d="M82.771 41.81v23.855" stroke="#E83452" stroke-width="3" stroke-miterlimit="10" stroke-linecap="round"/><path d="M160.352 35.792V83.61a23.866 23.866 0 0 1-23.854-23.854V53.79a5.861 5.861 0 0 0-3.642-5.472 5.86 5.86 0 0 0-2.268-.438 6.008 6.008 0 0 0-6.018 6.017v11.928a12.12 12.12 0 0 1-8.488-3.439 11.492 11.492 0 0 1-3.439-8.489V35.954l47.709-.162Z" fill="#894915"/><path d="M160.352 35.793h-71.67A35.77 35.77 0 0 1 124.462.01a35.794 35.794 0 0 1 35.889 35.782Z" fill="#FFBE3C"/><path d="M160.352 23.865h-71.67V41.81h71.67V23.865Z" fill="#FA0"/><path d="M315.515 307.434v86.5h-59.744v-86.5a127.856 127.856 0 0 0-6.662-40.724l-53.082-159.192a82.736 82.736 0 0 1 78.656 56.628l34.17 102.617a124.937 124.937 0 0 1 6.662 40.671Z" fill="#081B2B"/><path d="M315.579 376.076h-59.744v17.944h59.744v-17.944Z" fill="#059688"/><path d="M178.297 107.518v125.397a53.73 53.73 0 0 0 53.727 53.727v-17.945a35.771 35.771 0 0 1-35.782-35.782V107.518h-17.945Z" fill="#007171"/><path d="M267.806 107.518h-35.782a17.976 17.976 0 0 1 17.945-17.945 17.957 17.957 0 0 1 17.837 17.945Z" fill="#081B2B"/><path d="M184.207 782.055v-41.799h-47.709c0 23.854-65.654 11.927-65.654 41.799h113.363Z" fill="#F2F2F2"/><path d="M166.37 799.892H88.789a17.976 17.976 0 0 1-17.945-17.944h113.471a17.977 17.977 0 0 1-17.945 17.944Z" fill="#081B2B"/><path d="m315.515 764.111-17.193-46.205-44.808 10.423 4.084 11.927c10.208 29.872-55.446 11.927-55.446 41.799h54.264l59.099-17.944Z" fill="#F2F2F2"/><path d="m303.48 787.428-39.543 10.423A64.923 64.923 0 0 1 247.604 800h-27.508a17.976 17.976 0 0 1-17.944-17.944h39.113a65.243 65.243 0 0 0 16.977-2.257l57.38-15.688a18.388 18.388 0 0 1-5.735 19.873 18.39 18.39 0 0 1-6.407 3.444Z" fill="#081B2B"/><path d="M231.594 467.217a6.337 6.337 0 0 0 6.752 4.372 6.343 6.343 0 0 0 5.605-5.769v-.43s-.107-15.365-.322-15.795a6.342 6.342 0 0 0-10.587-2.491 6.336 6.336 0 0 0-1.77 3.888l-.108 14.291v.43c.093.514.237 1.018.43 1.504Z" fill="#FFE1CC"/><path d="m210.211 555.007 10.53-75.433a35.839 35.839 0 0 1 3.009-10.53 37.212 37.212 0 0 1 33.74-21.491 37.049 37.049 0 0 1 35.46 26.111c.495 1.695.89 3.417 1.182 5.158l11.605 76.185" stroke="#E83452" stroke-width="3" stroke-miterlimit="10"/><path d="M315.622 501.28h-115.19v143.235h115.19V501.28Z" fill="#FFBE3C"/><path d="M299.075 393.934c0 .322-.323 6.662-.86 14.399a151.918 151.918 0 0 1-12.68 52.33 6.18 6.18 0 0 1-5.263 4.911 6.178 6.178 0 0 1-6.341-3.407c-1.72 2.901-5.051 10.96-11.82 9.241-2.687-.752-5.266-4.083-5.266-4.083a6.295 6.295 0 0 1-3.127 3.693 6.316 6.316 0 0 1-4.824.39c-2.686-.86-5.265-4.083-5.265-4.083a.816.816 0 0 1-.215.429 6.298 6.298 0 0 1-10.712 1.655 6.29 6.29 0 0 1-1.43-4.019 7.15 7.15 0 0 1 .215-1.504s1.289-1.934 3.008-4.62c6.77-10.423 10.316-17.623 10.423-29.98l-9.671 12.895a6.246 6.246 0 0 1-6.245 3.248 6.264 6.264 0 0 1-2.351-.777 6.326 6.326 0 0 1-3.331-5.588 5.97 5.97 0 0 1 .752-3.008s13.862-25.682 16.548-28.475a30.513 30.513 0 0 1 10.96-7.415 6.367 6.367 0 0 0 4.191-5.91v-.214h43.304v-.108Z" fill="#FFE1CC"/><path d="M231.916 376.097H88.681v17.945h143.235v-17.945Z" fill="#059688"/><path d="M116.512 95.536a3.222 3.222 0 0 1 1.826 4.084l-14.184 35.674c-.107.215-.214.537-.322.752-3.224 7.092-12.787 8.489-18.267 3.009l-2.794-2.794a2.344 2.344 0 0 1-.537-2.686 45.847 45.847 0 0 1 8.274-12.787 41.682 41.682 0 0 1 9.24-7.522l5.266-12.679a8.884 8.884 0 0 1 11.498-5.05Z" fill="#FFE1CC"/><path d="M178.297 107.518v125.397a53.73 53.73 0 0 0 53.727 53.727v-17.945a35.771 35.771 0 0 1-35.782-35.782V107.518h-17.945Z" fill="#007171"/></svg>