<svg class="sinch-icon" xmlns="http://www.w3.org/2000/svg" viewBox="0 0 988 800" fill="none" aria-hidden="true" focusable="false"><path d="M162.024 739.05s.354-91.023.528-136.843a4.49 4.49 0 0 0-6.747-3.991 4.487 4.487 0 0 0-1.976 2.404c-16.389 45.293-50.225 138.43-50.225 138.43H6.499s69.613-191.563 99.662-274.04a56.129 56.129 0 0 1 20.563-26.917 56.126 56.126 0 0 1 32.306-10.181h185.308a56.261 56.261 0 0 1 53.046 37.451c29.516 82.741 97.719 274.128 97.719 274.128l-70.491-.09s-44.147-119.396-51.372-138.958a4.16 4.16 0 0 0-3.878-2.731 4.313 4.313 0 0 0-3.503 1.82 4.313 4.313 0 0 0-.551 3.908c9.516 26.435 48.817 135.961 48.817 135.961l-252.101-.351Z" fill="#E83452"/><path d="M274.248 491.411a20.73 20.73 0 0 0 33.451-9.033 20.753 20.753 0 0 0-.117-13.317c-6.106-16.077-15.009-39.694-15.227-40.832-1.747-9.18 4.13-17.975 13.127-19.649 25.358-4.719 41.92-29.508 36.997-55.37l-15.245-80.061c-6.729-35.401-40.619-58.74-75.347-51.666-33.994 6.926-55.482 41.065-48.859 75.855l20.386 107.059c2.005 10.531-4.738 20.624-15.062 22.545l-5.608 1.043 71.504 63.426Z" fill="#F2A068"/><path d="M313.42 369.158a21.51 21.51 0 0 0 4.668.404 21.776 21.776 0 0 0 14.639-6.205 2.4 2.4 0 0 0 0-3.41 2.455 2.455 0 0 0-3.446 0 16.706 16.706 0 0 1-22.845.561 2.461 2.461 0 0 0-3.444.166 2.402 2.402 0 0 0-.396 2.65c.136.286.328.542.565.753a21.756 21.756 0 0 0 10.262 5.087" fill="#842306"/><path d="M931.743 12.244a12.2 12.2 0 0 0-7.538-11.32A12.196 12.196 0 0 0 919.518 0H504.91a12.202 12.202 0 0 0-12.23 12.244v293.037a12.287 12.287 0 0 0 12.23 12.242h410.201a16.622 16.622 0 0 0 11.771-4.877 16.623 16.623 0 0 0 4.853-11.781l.008-288.62Z" fill="#007171"/><path d="M526.214 40.02h378.991a2.241 2.241 0 0 0 2.206-2.244 2.177 2.177 0 0 0-1.366-2.009 2.167 2.167 0 0 0-.84-.153H526.214a2.164 2.164 0 0 0-2.039 1.325 2.17 2.17 0 0 0-.171.837 2.245 2.245 0 0 0 2.21 2.243Zm0 35.762h378.991a2.241 2.241 0 0 0 2.206-2.243 2.177 2.177 0 0 0-1.366-2.009 2.167 2.167 0 0 0-.84-.153H526.214a2.165 2.165 0 0 0-2.21 2.162 2.245 2.245 0 0 0 2.21 2.243Zm0 37.611h378.991a2.246 2.246 0 0 0 2.206-2.243 2.153 2.153 0 0 0-.65-1.544 2.168 2.168 0 0 0-1.556-.621H526.214a2.177 2.177 0 0 0-1.558.62 2.172 2.172 0 0 0-.652 1.545 2.245 2.245 0 0 0 2.21 2.243Zm0 37.61h378.991a2.24 2.24 0 0 0 2.206-2.243c0-.288-.058-.572-.17-.837a2.166 2.166 0 0 0-2.036-1.327H526.214a2.16 2.16 0 0 0-2.039 1.326c-.112.265-.17.55-.171.838a2.243 2.243 0 0 0 2.21 2.243Zm0 37.614h378.991a2.246 2.246 0 0 0 2.206-2.258c0-.287-.058-.572-.17-.836a2.173 2.173 0 0 0-2.036-1.325H526.214a2.158 2.158 0 0 0-1.558.617 2.175 2.175 0 0 0-.652 1.544 2.248 2.248 0 0 0 2.21 2.258Zm0 37.61h378.991a2.242 2.242 0 0 0 2.206-2.243 2.177 2.177 0 0 0-1.366-2.01 2.178 2.178 0 0 0-.84-.155H526.214a2.16 2.16 0 0 0-.841.154 2.16 2.16 0 0 0-1.198 1.173c-.112.265-.17.55-.171.838a2.243 2.243 0 0 0 2.21 2.243Zm0 37.7h378.991a2.24 2.24 0 0 0 2.206-2.243c0-.287-.058-.572-.17-.836a2.173 2.173 0 0 0-2.036-1.325H526.214a2.158 2.158 0 0 0-1.558.617 2.175 2.175 0 0 0-.652 1.544 2.246 2.246 0 0 0 2.21 2.243Z" fill="#059688"/><path d="M609.788 105.668a3.919 3.919 0 0 0-.286-1.532 3.91 3.91 0 0 0-.864-1.297 4.05 4.05 0 0 0-2.787-1.122h-45.1a4.01 4.01 0 0 0-2.778 1.122 3.871 3.871 0 0 0-1.158 2.829v172.789h52.973V105.668Zm64.449-38.542a3.955 3.955 0 0 0-1.153-2.829 3.893 3.893 0 0 0-2.787-1.107H625.2a3.87 3.87 0 0 0-2.778 1.107 3.917 3.917 0 0 0-1.161 2.83V278.44h52.976V67.126Zm64.445 152.055a3.921 3.921 0 0 0-1.149-2.782 3.871 3.871 0 0 0-2.787-1.155h-45.108a3.85 3.85 0 0 0-1.506.294 3.852 3.852 0 0 0-1.27.861 3.912 3.912 0 0 0-1.161 2.782v59.267h52.973l.008-59.267Zm64.449-187.529a3.835 3.835 0 0 0-1.152-2.72 4.027 4.027 0 0 0-2.787-1.146h-45.097a3.995 3.995 0 0 0-2.778 1.147 3.808 3.808 0 0 0-.854 1.243c-.2.467-.304.969-.307 1.476v246.855h52.975V31.652Zm64.446 106.016a3.769 3.769 0 0 0-1.149-2.725 3.939 3.939 0 0 0-1.278-.858 3.944 3.944 0 0 0-1.509-.3h-45.1a3.871 3.871 0 0 0-2.776 1.158 3.756 3.756 0 0 0-1.16 2.725v140.783h52.972V137.668Z" fill="#A7D5C2"/><path d="M82.847 732.854c-2.201.246-3.196-19.066-3.196-19.066l12.28-8.614a10.212 10.212 0 0 1 12.948 1.007c.3.28.598.58.906.872a10.209 10.209 0 0 1 1.492 12.886 10.21 10.21 0 0 1-3.34 3.227c-7.225 4.316-16.166 9.113-21.09 9.688Z" fill="#F2A068"/><path d="M101.439 748.149c0-25.235-20.69-45.672-46.207-45.672-25.515 0-46.21 20.448-46.21 45.672v.656h92.417v-.656Z" fill="#0A273D"/><path d="M69.916 701.927a9.472 9.472 0 0 0-13.402-7.289l-.477.221a9.475 9.475 0 0 0-5.15 10.969c1.354 5.19 3.142 12.056 4.516 17.322a8.693 8.693 0 0 0 10.203 6.3 8.656 8.656 0 0 0 6.777-9.645c-.71-5.148-1.654-11.975-2.467-17.878Z" fill="#F2A068"/><path d="M50.558 704.075a9.744 9.744 0 0 0-4.759-6.998 9.75 9.75 0 0 0-8.439-.639l-.179.07a9.745 9.745 0 0 0-5.818 11.748c1.48 5.187 3.365 11.753 4.767 16.764a8.69 8.69 0 0 0 9.933 6.168 8.732 8.732 0 0 0 7.05-9.872c-.74-5.072-1.717-11.616-2.555-17.241Z" fill="#F2A068"/><path d="M32.65 710.233a8.972 8.972 0 0 0-13.128-6.096 8.691 8.691 0 0 0-4.06 10.374c1.402 4.237 3.22 9.662 4.65 13.966a7.998 7.998 0 0 0 9.75 5.167 7.936 7.936 0 0 0 5.642-9.199l-2.854-14.212Z" fill="#F2A068"/><path d="M18.57 720.949a9.028 9.028 0 0 0-7.95-7.833 9.01 9.01 0 0 0-3.953.439 8.808 8.808 0 0 0-5.608 10.722c1.066 3.765 2.32 8.204 3.328 11.776a7.91 7.91 0 0 0 8.633 5.689 8.133 8.133 0 0 0 7.01-9.087c-.432-3.578-.973-7.843-1.46-11.706Z" fill="#F2A068"/><path d="M738.854 727.454H475.136v11.613h263.718v-11.613Z" fill="#0A273D"/><path d="M650.934 484.914h-87.881v254.125h87.881V484.914Z" fill="#0A273D"/><path d="M821.522 386.53a8.995 8.995 0 0 0-8.956-8.972H401.404a8.997 8.997 0 0 0-8.955 8.972v236.215a8.993 8.993 0 0 0 8.955 8.972h411.162a8.993 8.993 0 0 0 8.956-8.972V386.53Z" fill="#0A273D"/><path d="M607 528c7.732 0 14-6.268 14-14s-6.268-14-14-14-14 6.268-14 14 6.268 14 14 14Z" fill="#A7D5C2"/><path d="M987.158 683.978c-.381-38.219-21.161-73.427-54.655-92.541a110.147 110.147 0 0 0-55.71-14.456l.528 54.015a55.086 55.086 0 0 1 27.856 7.229 53.972 53.972 0 0 1 27.317 46.263l54.664-.51Z" fill="#E83452"/><path d="M869.804 583.903c-38.693.37-74.285 20.92-93.623 54.025-30.164 51.643-12.233 117.78 40.011 147.596 52.243 29.816 119.162 12.093 149.32-39.548a107.134 107.134 0 0 0 14.645-55.056l-54.675.51a53.395 53.395 0 0 1-7.312 27.534c-15.077 25.812-48.546 34.675-74.661 19.775-26.115-14.899-35.078-47.987-20.002-73.799 9.673-16.563 27.477-26.839 46.824-27.021l-.527-54.016Z" fill="#FFBE3C"/><path d="M320.373 241.794a38.41 38.41 0 0 1-29.961 45.801l-18.264 3.67 3.608 23.804-12.617 2.392-.331-1.738c-1.239-6.508-7.27-11.255-13.893-10.436a12.477 12.477 0 0 0-10.803 14.681l3.471 18.225c3.112 16.315-7.615 32.059-23.987 35.328l-16.946-83.367c-6.626-32.541 13.823-64.446 46.154-72.016l27.093-6.351a38.413 38.413 0 0 1 46.297 29.244l.179.763Z" fill="#FFBE3C"/></svg>