<svg class="sinch-icon" xmlns="http://www.w3.org/2000/svg" viewBox="0 0 435 400" fill="none" aria-hidden="true" focusable="false"><path d="M52.92 400c20.996 0 38.018-17.021 38.018-38.018s-17.022-38.018-38.018-38.018c-20.997 0-38.019 17.021-38.019 38.018S31.923 400 52.92 400Zm208.291 0c20.997 0 38.018-17.021 38.018-38.018s-17.021-38.018-38.018-38.018-38.018 17.021-38.018 38.018S240.214 400 261.211 400Z" fill="#0A273D"/><path d="M434.113 10.92C432.9 3.842 426.024-1.011 418.946.202l-69.565 11.931a13.352 13.352 0 0 0-10.718 10.718l-5.865 34.58-222.042 38.221h-.202l-81.092 13.953a13.353 13.353 0 0 0-10.718 10.718l-10.111 57.23c-2.63 15.369 1.617 31.345 11.729 43.276 10.11 12.133 24.873 19.009 40.647 19.009h240.445l-3.64 20.829c-2.225 12.942-13.347 22.245-26.492 22.245H13.284A13.118 13.118 0 0 0 .139 296.056a13.12 13.12 0 0 0 13.145 13.145H67.48l-25.885 46.107c-3.64 6.269-1.415 14.358 5.056 17.998 2.022 1.214 4.246 1.618 6.471 1.618 4.651 0 9.1-2.427 11.527-6.673l32.962-58.848H216.52l33.165 59.05c2.427 4.246 6.876 6.673 11.527 6.673 2.224 0 4.449-.606 6.471-1.618 6.269-3.64 8.494-11.526 5.056-17.998l-26.087-46.107h25.076c25.884 0 47.927-18.604 52.376-44.085l6.066-36.198 26.896-157.937 5.865-34.58 60.465-10.314c7.078-1.416 11.931-8.291 10.718-15.37ZM181.332 213.549l19.818-106.977 49.343-8.493-19.211 115.47h-49.95Zm-76.643 0 19.616-93.63 49.343-8.494-19.009 102.124h-49.95Zm-64.307-9.505c-5.056-6.066-7.28-14.155-5.865-21.84l8.494-48.129 53.387-9.1-18.605 88.776H61.01c-8.09-.202-15.572-3.64-20.627-9.707Zm265.723 9.505h-47.927l19.818-120.122 49.949-8.493-21.84 128.615Z" fill="#CCC"/><path d="M434.113 10.92c-1.214-7.078-8.089-11.931-15.167-10.718L367.581 9.1l-4.651 27.502 60.465-10.313c7.078-1.416 11.931-8.291 10.718-15.37Z" fill="#E83452"/></svg>