<svg class="sinch-icon" xmlns="http://www.w3.org/2000/svg" viewBox="0 0 673 800" fill="none" aria-hidden="true" focusable="false"><path d="M335.618 0a70.226 70.226 0 0 1 70.26 70.227v35.324H265.424V70.227A70.23 70.23 0 0 1 335.618 0Zm178.284 248.949a126.47 126.47 0 0 0-103.314-67.284c-20.639-1.379-45.584-2.354-74.684-2.354-29.1 0-53.608.975-74.012 2.354a126.395 126.395 0 0 0-103.28 67.284L70.824 414.937 193.7 447.048v104.794h285.282V449.117L601 413.575l-87.098-164.626Z" fill="#0A273D"/><path d="M391.614 239.226H280.479a4.696 4.696 0 0 1-1.838-.373 4.7 4.7 0 0 1-2.872-4.488l2.22-79.058h116.064l2.238 79.058a4.72 4.72 0 0 1-2.852 4.474 4.733 4.733 0 0 1-1.825.387Z" fill="#fff"/><path d="M333.448 237.847c-25.686-23.549-67.284-53.945-67.284-89.79a63.819 63.819 0 0 0-5.046-25.702l-7.822-17.797a12.081 12.081 0 0 1 .941-11.46 12.073 12.073 0 0 1 10.111-5.478h33.524a55.793 55.793 0 0 0 55.744-53.827 55.882 55.882 0 0 0 55.778 53.827 12.078 12.078 0 0 1 10.95 17.006c-5.382 12.548-14.466 30.092-14.466 44.154 0 34.214-41.261 65.804-67.081 89.151a3.969 3.969 0 0 1-5.349-.084Z" fill="#842306"/><path d="M302.464 140.303a26.476 26.476 0 1 1 26.476-26.476 26.51 26.51 0 0 1-26.476 26.476Zm0-45.568a19.093 19.093 0 0 0-18.725 22.816 19.091 19.091 0 0 0 37.816-3.724 19.107 19.107 0 0 0-19.091-19.092Zm66.122 45.568a26.478 26.478 0 0 1-25.967-31.642 26.48 26.48 0 0 1 20.802-20.802 26.475 26.475 0 0 1 31.641 25.968 26.51 26.51 0 0 1-26.476 26.476Zm0-45.568a19.088 19.088 0 0 0-17.638 11.786 19.086 19.086 0 0 0 4.139 20.805 19.086 19.086 0 0 0 29.374-2.893 19.094 19.094 0 0 0 3.217-10.606 19.107 19.107 0 0 0-19.092-19.092Zm-31.488 85.753a35.487 35.487 0 0 1-25.232-10.412 3.87 3.87 0 0 1 2.766-6.49 3.864 3.864 0 0 1 2.701 1.023 27.94 27.94 0 0 0 39.445 0 3.866 3.866 0 0 1 5.358.109 3.867 3.867 0 0 1 .109 5.358 35.515 35.515 0 0 1-25.147 10.412Z" fill="#0A273D"/><path d="M584.18 498.755c-147.57 44.02-347.923 44.004-495.425-.101a68.43 68.43 0 0 0-80.017 33.642l-.32.622a68.479 68.479 0 0 0 38.016 96.703l170.748 59.361v82.961l118.722-41.632 116.602 40.572v-81.817L626.08 629.1a68.505 68.505 0 0 0 41.287-39.434 68.493 68.493 0 0 0-2.935-57.017 68.413 68.413 0 0 0-80.252-33.894Z" fill="#007171"/><path d="m521.185 785.079 70.026-89.571c17.19-21.984-4.794-52.868-31.203-43.818l-163.162 55.913s-10.749 40 30.176 54.415c14.5 5.046 26.426 14.752 35.795 25.063a38.109 38.109 0 0 0 29.651 12.61 38.107 38.107 0 0 0 28.717-14.612Zm-371.539.337-70.093-89.571c-17.19-21.985 4.794-52.868 31.203-43.818l163.162 55.912s10.749 40-30.176 54.416c-14.5 5.046-26.426 14.752-35.795 25.063a38.111 38.111 0 0 1-29.616 12.57 38.124 38.124 0 0 1-28.685-14.572Z" fill="#0A273D"/><path d="M129.091 507.569c35.682 0 64.609-28.926 64.609-64.609 0-35.682-28.927-64.608-64.609-64.608-35.683 0-64.61 28.926-64.61 64.608 0 35.683 28.927 64.609 64.61 64.609Zm414.298 0c35.682 0 64.609-28.926 64.609-64.609 0-35.682-28.927-64.608-64.609-64.608-35.683 0-64.609 28.926-64.609 64.608 0 35.683 28.926 64.609 64.609 64.609Z" fill="#fff"/><path d="m348.233 270.496 56.855-18.082a32.53 32.53 0 0 1 42.405 31.085 53.834 53.834 0 0 0 20.623 42.573l102.859 80.74a45.419 45.419 0 0 1 8.747 62.49 45.412 45.412 0 0 1-35.747 18.792 45.424 45.424 0 0 1-36.583-17.11l-97.14-121.228a33.007 33.007 0 0 1-32.431-41.464l7.267-27.418-32.935 7.099-3.92-17.477Z" fill="#842306"/><path d="M363.507 239.176h-54.18c-6.698 0-12.128 5.43-12.128 12.128v110.95c0 6.698 5.43 12.128 12.128 12.128h54.18c6.698 0 12.127-5.43 12.127-12.128v-110.95c0-6.698-5.429-12.128-12.127-12.128Z" fill="#4A5961"/><path d="M281.034 117.864h-11.909a3.364 3.364 0 0 1-3.364-3.364V82.053h6.728v29.083h8.545v6.728Zm121.161 0h-12.078v-6.728h8.713V82.053h6.729V114.5a3.365 3.365 0 0 1-3.364 3.364Z" fill="#0A273D"/><path d="M369.627 330.3a8.412 8.412 0 0 0-8.41-8.41H321.99l38.402-19.899a8.414 8.414 0 0 0 4.577-8.256 8.42 8.42 0 0 0-.943-3.182 8.408 8.408 0 0 0-4.747-4.136 8.407 8.407 0 0 0-6.288.317l-57.443 26.19v-8.982h-2.927a28.588 28.588 0 0 0-24.239 13.457l-6.358 10.294a22.323 22.323 0 0 1-10.278 8.814L108.18 397.449a46.688 46.688 0 0 0-25.693 27.155 46.699 46.699 0 0 0 2.464 37.303 46.688 46.688 0 0 0 30.649 23.968 46.689 46.689 0 0 0 38.165-7.568l123.6-89.151c31.959 2.49 39.091-17.291 39.091-17.291h33.306a8.057 8.057 0 0 0 0-16.098h5.046a8.545 8.545 0 0 0 0-17.073h6.442a8.412 8.412 0 0 0 8.377-8.394Z" fill="#842306"/></svg>