<svg class="sinch-icon" xmlns="http://www.w3.org/2000/svg" viewBox="0 0 397 400" fill="none" aria-hidden="true" focusable="false"><path d="m270.947 171.135-39.822 44.789a14.24 14.24 0 0 1-23.451-3.248 14.23 14.23 0 0 1-.64-10.877 14.247 14.247 0 0 1 3.643-5.656l43.441-41.288a11.724 11.724 0 0 1 19.754 8.063 11.718 11.718 0 0 1-2.925 8.217Z" fill="#F2A068"/><path d="M338.744 23.37a57.814 57.814 0 0 0-53.421 35.691 57.818 57.818 0 0 0-4.402 22.128v45.814a12.014 12.014 0 0 0 12.014 12.013h45.819a57.82 57.82 0 1 0 0-115.636l-.01-.01Z" fill="#FFBE3C"/><path d="M108.315 121.545v-.525a53.937 53.937 0 0 0-64.58-52.386 53.94 53.94 0 0 0 10.15 106.816h42.446a12.015 12.015 0 0 0 12.014-12.014v-41.891h-.03Zm226.109 76.731h-25.229a12.014 12.014 0 0 0-12.013 12.014v25.229a37.262 37.262 0 0 0 22.988 34.448 37.264 37.264 0 0 0 50.828-27.144 37.265 37.265 0 0 0-36.549-44.547h-.025Z" fill="#0A273D"/><path d="M79.105 236.063A12.014 12.014 0 0 0 67.09 224.05H41.86a37.237 37.237 0 0 0-34.39 23.007 37.243 37.243 0 1 0 71.658 14.235l-.025-25.229Z" fill="#007171"/><path d="M290.174 310.686h-32.643a12.01 12.01 0 0 0-12.014 12.014v32.643a44.658 44.658 0 1 0 44.657-44.657Z" fill="#FFBE3C"/><path d="M224.04 42.323A44.662 44.662 0 0 0 195.454 2.96a44.656 44.656 0 1 0-18.347 86.284l-.063.059h35.036a12.014 12.014 0 0 0 12.014-12.014V42.264l-.054.059Z" fill="#007171"/><path d="M318.257 61.785h40.974A10.489 10.489 0 0 1 369.72 72.27v18.143a10.487 10.487 0 0 1-10.489 10.484h-51.178a.274.274 0 0 1-.201-.08.268.268 0 0 1-.062-.091.29.29 0 0 1-.022-.108V72.274a10.489 10.489 0 0 1 10.489-10.489Z" fill="#F1F1F1"/><path d="M359.232 102.343h-51.179a1.744 1.744 0 0 1-1.736-1.736V72.274a11.943 11.943 0 0 1 3.493-8.453 11.946 11.946 0 0 1 8.447-3.507h40.975a11.952 11.952 0 0 1 11.94 11.94v18.143a11.959 11.959 0 0 1-11.94 11.946Zm-50.017-2.908h50.017a9.04 9.04 0 0 0 9.032-9.033V72.26a9.039 9.039 0 0 0-9.032-9.003h-40.975a9.041 9.041 0 0 0-9.032 9.032l-.01 27.147Z" fill="#F1F1F1"/><path d="M353.391 85.41a4.242 4.242 0 1 0 0-8.483 4.242 4.242 0 0 0 0 8.484Zm-14.647 0a4.242 4.242 0 1 0 0-8.483 4.242 4.242 0 0 0 0 8.484Zm-14.647 0a4.242 4.242 0 1 0 0-8.483 4.242 4.242 0 0 0 0 8.484Z" fill="#FFBE3C"/><path d="M201.532 35.306 190.587 40.7v-4.06a6.483 6.483 0 0 0-6.477-6.478h-22.606a6.477 6.477 0 0 0-6.477 6.477v16.035a6.477 6.477 0 0 0 6.477 6.478h22.606a6.484 6.484 0 0 0 6.477-6.478v-4.09l10.945 5.395a3.13 3.13 0 0 0 4.516-2.805V38.115a3.131 3.131 0 0 0-2.976-3.13 3.13 3.13 0 0 0-1.54.32Z" fill="#0A273D"/><path d="M184.11 60.618h-22.606a7.953 7.953 0 0 1-7.943-7.944V36.64a7.951 7.951 0 0 1 7.943-7.944h22.606a7.953 7.953 0 0 1 7.944 7.944v1.726l8.826-4.37a4.595 4.595 0 0 1 6.64 4.12v13.082a4.606 4.606 0 0 1-2.173 3.91 4.593 4.593 0 0 1-4.467.21l-8.826-4.37v1.726a7.957 7.957 0 0 1-7.944 7.944Zm-22.606-28.99a5.02 5.02 0 0 0-5.011 5.012v16.034a5.02 5.02 0 0 0 5.011 5.011h22.606a5.017 5.017 0 0 0 5.006-5.01v-4.09a1.476 1.476 0 0 1 1.402-1.465c.249-.012.498.04.722.15l10.944 5.394a1.663 1.663 0 0 0 2.398-1.47V38.115a1.654 1.654 0 0 0-.793-1.398 1.659 1.659 0 0 0-1.605-.074L191.24 42.04a1.474 1.474 0 0 1-1.937-.601 1.484 1.484 0 0 1-.187-.714V36.64a5.017 5.017 0 0 0-5.006-5.012h-22.606Z" fill="#0A273D"/><path d="M24.67 244.066a8.978 8.978 0 0 0-.917 11.607 107.032 107.032 0 0 0 24.067 24.062 8.983 8.983 0 0 0 11.606-.912l1.074-1.079a5.178 5.178 0 0 0 0-7.326l-3.869-3.869a5.025 5.025 0 0 0-7.105 0 3.731 3.731 0 0 1-4.805.407 36.219 36.219 0 0 1-4.38-3.81 35.166 35.166 0 0 1-3.795-4.364 3.732 3.732 0 0 1 .402-4.801 5.031 5.031 0 0 0 0-7.105l-3.883-3.884a5.18 5.18 0 0 0-7.321 0l-1.074 1.074Z" fill="#DCEDE1"/><path d="M53.096 282.289a9.804 9.804 0 0 1-5.767-1.878 107.673 107.673 0 0 1-24.253-24.253 9.763 9.763 0 0 1 .98-12.68l1.075-1.079a6.025 6.025 0 0 1 8.507 0l3.88 3.883a5.884 5.884 0 0 1 0 8.283 2.882 2.882 0 0 0-.325 3.731 35.436 35.436 0 0 0 3.708 4.261 35.729 35.729 0 0 0 4.305 3.707 2.89 2.89 0 0 0 3.732-.318 5.848 5.848 0 0 1 4.14-1.716 5.844 5.844 0 0 1 4.142 1.716l3.869 3.869a6.013 6.013 0 0 1 0 8.503l-1.074 1.078a9.748 9.748 0 0 1-3.171 2.137 9.747 9.747 0 0 1-3.748.756Zm-23.69-39.983a4.312 4.312 0 0 0-3.069 1.274l-1.079 1.074a8.109 8.109 0 0 0-.828 10.528 105.984 105.984 0 0 0 23.875 23.881 8.122 8.122 0 0 0 10.533-.834l1.074-1.074a4.347 4.347 0 0 0 0-6.149l-3.87-3.869a4.2 4.2 0 0 0-5.928 0 4.546 4.546 0 0 1-5.884.491 42.273 42.273 0 0 1-8.365-8.366 4.544 4.544 0 0 1 .49-5.884 4.204 4.204 0 0 0 0-5.933l-3.884-3.879a4.33 4.33 0 0 0-3.064-1.26Z" fill="#DCEDE1"/><path d="M271.668 338.901a43.67 43.67 0 0 1-4.781-2.603 1.42 1.42 0 0 0-1.888.363 31.247 31.247 0 0 0-5.958 15.014 1.43 1.43 0 0 0 1.418 1.584h8.301a1.414 1.414 0 0 0 1.413-1.324 42.314 42.314 0 0 1 2.221-11.278 1.4 1.4 0 0 0-.726-1.756Zm16.422 41.896v-7.355a1.423 1.423 0 0 0-1.554-1.417 39.313 39.313 0 0 0-6.198 1.074 1.432 1.432 0 0 0-.829 2.157 26.144 26.144 0 0 0 6.316 6.679 1.414 1.414 0 0 0 1.481.126 1.427 1.427 0 0 0 .784-1.264Zm12.593 1.217a30.61 30.61 0 0 1-3.806 3.324.317.317 0 0 0-.119.176.316.316 0 0 0 .164.366.318.318 0 0 0 .21.027 31.285 31.285 0 0 0 13.024-6.424 1.414 1.414 0 0 0 .521-1.21 1.42 1.42 0 0 0-.697-1.119 36.645 36.645 0 0 0-3.011-1.574 1.433 1.433 0 0 0-1.844.569 31.122 31.122 0 0 1-4.442 5.865Zm7.992-10.234a44.982 44.982 0 0 1 4.786 2.604 1.41 1.41 0 0 0 1.883-.363 31.166 31.166 0 0 0 5.958-15.015 1.421 1.421 0 0 0-1.412-1.579h-8.307a1.419 1.419 0 0 0-1.412 1.324 42.353 42.353 0 0 1-2.221 11.278 1.405 1.405 0 0 0 .725 1.751Zm-29.014-43.107a29.743 29.743 0 0 1 3.81-3.325.32.32 0 0 0-.26-.569 31.24 31.24 0 0 0-13.024 6.419 1.42 1.42 0 0 0-.517 1.21 1.422 1.422 0 0 0 .694 1.119c.98.569 1.986 1.094 3.015 1.574.323.152.69.178 1.03.072a1.42 1.42 0 0 0 .809-.641 31.289 31.289 0 0 1 4.443-5.859Zm-10.901 28.754h-8.301a1.437 1.437 0 0 0-1.063.472 1.437 1.437 0 0 0-.355 1.107 31.193 31.193 0 0 0 5.958 15.015 1.42 1.42 0 0 0 1.888.363 43.847 43.847 0 0 1 4.781-2.604 1.4 1.4 0 0 0 .726-1.746 42.314 42.314 0 0 1-2.221-11.278 1.417 1.417 0 0 0-.442-.945 1.417 1.417 0 0 0-.971-.384Zm9.219 11.98a43.604 43.604 0 0 1 8.827-1.609 1.413 1.413 0 0 0 1.294-1.412v-7.542a1.425 1.425 0 0 0-.417-1.003 1.416 1.416 0 0 0-1.005-.414h-10.901a1.418 1.418 0 0 0-1.417 1.52 38.04 38.04 0 0 0 1.888 9.562 1.402 1.402 0 0 0 1.731.898Zm1.682 12.607a31.331 31.331 0 0 1-4.442-5.885 1.425 1.425 0 0 0-1.839-.568 39.068 39.068 0 0 0-3.016 1.574 1.41 1.41 0 0 0-.697 1.118 1.419 1.419 0 0 0 .52 1.211 31.288 31.288 0 0 0 13.024 6.448.316.316 0 0 0 .364-.178.315.315 0 0 0-.104-.391 30.603 30.603 0 0 1-3.81-3.329Zm21.022-53.341a31.059 31.059 0 0 1 4.442 5.884 1.433 1.433 0 0 0 1.844.569 39.118 39.118 0 0 0 3.011-1.574 1.431 1.431 0 0 0 .697-1.119 1.42 1.42 0 0 0-.521-1.211 31.214 31.214 0 0 0-13.024-6.418.314.314 0 0 0-.363.177.316.316 0 0 0 .104.391 29.558 29.558 0 0 1 3.81 3.301Zm-24.906 24.586h10.891a1.422 1.422 0 0 0 1.422-1.422v-7.542a1.418 1.418 0 0 0-1.294-1.412 43.577 43.577 0 0 1-8.817-1.594 1.405 1.405 0 0 0-1.721.898 38.04 38.04 0 0 0-1.888 9.562 1.425 1.425 0 0 0 1.407 1.51Zm35.806 0h8.307a1.418 1.418 0 0 0 1.061-.476 1.426 1.426 0 0 0 .351-1.108 31.193 31.193 0 0 0-5.958-15.015 1.417 1.417 0 0 0-1.883-.363 42.888 42.888 0 0 1-4.785 2.604 1.405 1.405 0 0 0-.726 1.746 42.353 42.353 0 0 1 2.221 11.278 1.416 1.416 0 0 0 1.412 1.334Zm-18.03 14.539c2.989.234 5.947.773 8.826 1.609a1.408 1.408 0 0 0 1.726-.898 37.945 37.945 0 0 0 1.883-9.562 1.418 1.418 0 0 0-.376-1.069 1.422 1.422 0 0 0-1.041-.451h-10.9a1.419 1.419 0 0 0-1.418 1.417v7.542a1.41 1.41 0 0 0 1.3 1.412Zm-1.295-23.503v7.542a1.433 1.433 0 0 0 .414 1.005 1.422 1.422 0 0 0 1.003.417h10.891a1.421 1.421 0 0 0 1.417-1.525 38.033 38.033 0 0 0-1.883-9.562 1.409 1.409 0 0 0-1.726-.897 43.592 43.592 0 0 1-8.826 1.608 1.411 1.411 0 0 0-1.29 1.412Zm-11.92-6.693c2.034.523 4.106.882 6.198 1.074a1.422 1.422 0 0 0 1.554-1.417v-7.356a1.422 1.422 0 0 0-2.27-1.137 26.15 26.15 0 0 0-6.311 6.698 1.42 1.42 0 0 0 .829 2.138Zm11.92-7.713v7.355a1.423 1.423 0 0 0 1.555 1.417 39.448 39.448 0 0 0 6.198-1.074 1.417 1.417 0 0 0 .962-.866 1.427 1.427 0 0 0-.138-1.287 26.202 26.202 0 0 0-6.306-6.703 1.418 1.418 0 0 0-1.494-.125 1.416 1.416 0 0 0-.777 1.283Zm2.271 52.046a26.216 26.216 0 0 0 6.306-6.698 1.43 1.43 0 0 0 .138-1.289 1.44 1.44 0 0 0-.962-.869 39.564 39.564 0 0 0-6.198-1.074 1.43 1.43 0 0 0-1.434.843c-.08.181-.121.377-.121.575v7.355a1.424 1.424 0 0 0 2.271 1.157Z" fill="#007171"/><path d="m337.107 234.744 15.289-13.313a.886.886 0 0 0 .248-.986.896.896 0 0 0-.837-.578h-34.761a.898.898 0 0 0-.509.158.898.898 0 0 0-.357.952.886.886 0 0 0 .278.454l15.289 13.313a4.097 4.097 0 0 0 5.36 0Zm18.898 11.529v-20.492a.896.896 0 0 0-.522-.805.897.897 0 0 0-.949.133l-12.544 10.915 12.534 10.92a.885.885 0 0 0 .957.142.897.897 0 0 0 .524-.813Zm-43.156-20.492v20.492a.895.895 0 0 0 .521.804.895.895 0 0 0 .95-.133l12.543-10.92-12.543-10.915a.904.904 0 0 0-.456-.205.902.902 0 0 0-.494.072.895.895 0 0 0-.521.805Zm21.575 14.122a8.268 8.268 0 0 1-4.285-1.197l-12.514 10.886a.887.887 0 0 0-.254.99.887.887 0 0 0 .842.579h32.427a.887.887 0 0 0 .843-.579.897.897 0 0 0-.254-.99l-12.514-10.886a8.289 8.289 0 0 1-4.291 1.197Z" fill="#E5E8ED"/><path d="M54.37 130.563c9.997 0 18.1-8.104 18.1-18.099 0-9.996-8.103-18.1-18.1-18.1-9.995 0-18.098 8.104-18.098 18.1 0 9.995 8.103 18.099 18.099 18.099Z" fill="#FFBE3C"/><path d="M36.272 112.464c0 9.949 9.488 25.954 14.71 34.03a4.017 4.017 0 0 0 5.294 1.346 4.019 4.019 0 0 0 1.454-1.346c5.237-8.076 14.71-24.081 14.71-34.03H36.273Z" fill="#FFBE3C"/><path d="M54.37 119.932a7.468 7.468 0 1 0 0-14.937 7.468 7.468 0 0 0 0 14.937Z" fill="#0A273D"/><path d="m162.392 319.606-52.576 52.576h39.797a28.325 28.325 0 0 0 20.169-8.336l44.132-44.132-51.522-.108Z" fill="#FF7F51"/><path d="m240.795 129.876-.064-.049-4.413-3.54h-72.896c-6.777 0-12.931 5.497-13.731 12.259l-21.345 183.458 4.051 3.231c.152.132.308.255.49.378l.054.044a11.073 11.073 0 0 0 6.639 2.118h70.195c6.772 0 12.916-5.482 13.73-12.259l21.022-175.852a10.853 10.853 0 0 0-3.732-9.788Z" fill="#8F969C"/><path d="m98.4 269.246 19.963-60.51a11.423 11.423 0 0 1 4.975-6.208 11.425 11.425 0 0 1 14.698 2.54 11.43 11.43 0 0 1 2.604 7.517l-1.472 63.698a20.894 20.894 0 0 1-6.378 14.802 20.9 20.9 0 0 1-23.034 4.06 20.918 20.918 0 0 1-11.055-11.731 20.906 20.906 0 0 1-1.326-8.112 21.31 21.31 0 0 1 1.025-6.056Z" fill="#F2A068"/><path d="M205.352 324.235h-70.214c-6.772 0-11.607-5.483-10.788-12.259l20.879-175.853c.804-6.781 6.953-12.258 13.73-12.258h70.318c6.781 0 11.621 5.496 10.812 12.258l-21.017 175.872c-.809 6.738-6.953 12.24-13.72 12.24Z" fill="#BFC7D1"/><path d="M179.417 132.956a1.728 1.728 0 0 0-1.018-1.852 1.73 1.73 0 0 0-.737-.144 2.317 2.317 0 0 0-2.236 1.996 1.729 1.729 0 0 0 .414 1.409 1.731 1.731 0 0 0 1.346.587 2.307 2.307 0 0 0 2.231-1.996Z" fill="#fff"/><path d="M201.424 135.167h-17.197a2.208 2.208 0 0 1-1.467-.696 2.205 2.205 0 0 1 0-3.021c.383-.41.908-.659 1.467-.696h17.197a2.215 2.215 0 0 1 2.176 1.326 2.207 2.207 0 0 1-.518 2.496 2.209 2.209 0 0 1-1.658.591Z" fill="#F1F1F1"/><path d="M160.352 327.79a9.068 9.068 0 0 1-8.758-6.605c-7.198-26.087-23.419-50.507-23.586-50.752l-.618-.922-1.045.377a40.506 40.506 0 0 0-10.871 6.429c-7.223-7.846-12.906-13.039-12.965-13.093l-1.432-1.304-.819 1.755c-.343.746-8.394 18.6-2.334 47.899 3.129 14.117-1.47 27.077-14 39.63l-11.19 11.171a5.649 5.649 0 0 0-1.294 6.124 5.885 5.885 0 0 0 5.522 3.683h72.803a28.179 28.179 0 0 0 19.918-8.248l36.15-36.154-45.481.01Zm90.103-72.313a14.26 14.26 0 0 0-5.884-22.64l5.884-5.575a16.7 16.7 0 0 0 1.02-1.069 14.248 14.248 0 0 0-21.639-18.536l-18.286 21.34a12.853 12.853 0 0 0 .432 17.119 12.703 12.703 0 0 0 5.913 3.54l-7.38 8.616a12.8 12.8 0 0 0-2.676 11.528 12.786 12.786 0 0 0 7.928 8.787l-7.09 8.474a12.786 12.786 0 0 0 9.95 20.978 12.787 12.787 0 0 0 8.762-3.595l20.183-19.614a14.225 14.225 0 0 0 1.299-19.018 14.222 14.222 0 0 0-5.001-4.019l5.57-5.277c.356-.328.695-.675 1.015-1.039Z" fill="#F2A068"/></svg>