<svg class="sinch-icon" xmlns="http://www.w3.org/2000/svg" viewBox="0 0 614 800" fill="none" aria-hidden="true" focusable="false"><path d="m538.058 271.847 25.412-3.841a11.026 11.026 0 0 0 9.456-10.342l1.477-22.753a6.087 6.087 0 0 1 5.91-5.614 5.913 5.913 0 0 1 5.91 5.91l.295 20.093 11.82-7.092a8.54 8.54 0 0 1 13.001 6.796l.886 17.434a15.66 15.66 0 0 1-11.524 15.956l-55.551 15.365M223.66 123.808a6.377 6.377 0 0 0-5.023 1.478 7.74 7.74 0 0 0-1.477 2.659l-2.955 15.366a5.7 5.7 0 0 0-2.66-1.478 6.053 6.053 0 0 0-5.023 1.478l-.591.591a4.398 4.398 0 0 0-2.068-.887 6.058 6.058 0 0 0-5.023 1.478l-.591.591a4.397 4.397 0 0 0-2.069-.887 6.053 6.053 0 0 0-5.023 1.477 5.714 5.714 0 0 0-1.478 2.66s-2.954 15.956-3.25 21.866c.078 2.078.275 4.15.591 6.205a47.6 47.6 0 0 1-.295 14.479c-2.069 11.819-6.206 32.503-6.206 32.503a5.363 5.363 0 0 0 .916 4.032 5.355 5.355 0 0 0 3.517 2.174l20.684 7.682a5.435 5.435 0 0 0 6.205-5.614l5.91-41.368c.591-6.796 2.364-10.933 6.796-13.592a13.331 13.331 0 0 0 5.91-6.206l3.841-6.796c1.773-3.25 1.773-6.205-.296-7.682a6.44 6.44 0 0 0-8.273 3.25s-5.91 7.387-5.614 6.205l7.091-35.458a5.145 5.145 0 0 0-3.546-6.206Z" fill="#832511"/><path d="m385.882 622.294-25.116 72.69-25.707-39.595 21.275-76.236 29.548 43.141Z" fill="#fff"/><path d="m340.082 621.703-22.161 61.462 47.573 56.142c11.82 13.888 33.686 0 26.003-16.547l-14.774-32.208a39.01 39.01 0 0 1-3.251-17.434l.296-6.205a8.86 8.86 0 0 0-1.478-5.614l-27.48-39.891a2.57 2.57 0 0 0-4.728.295Z" fill="#14374D"/><path d="M343.332 664.254a8.865 8.865 0 1 0 0-17.73 8.865 8.865 0 0 0 0 17.73Z" fill="#A8D7E2"/><path d="m269.1 507.717-33.967 10.726 17.818 56.423 33.966-10.726-17.817-56.423Z" fill="#fff"/><path d="m283.348 532.466 19.798 62.347-49.937 54.074c-12.115 13.297-33.686-1.477-25.412-17.729l15.956-31.617a34.689 34.689 0 0 0 3.841-17.138v-6.205a9.107 9.107 0 0 1 1.773-5.614l28.958-39.005a2.959 2.959 0 0 1 2.766-.997 2.96 2.96 0 0 1 2.257 1.884Z" fill="#14374D"/><path d="M278.62 574.721a8.863 8.863 0 0 0 8.864-8.864 8.865 8.865 0 1 0-8.864 8.864Zm-44.618 77.417a15.156 15.156 0 0 0 19.502-2.659l49.642-54.074-4.137-12.706-65.007 69.439Z" fill="#A8D7E2"/><path d="m430.501 500.259-46.982-98.397-.296-14.183s-170.496-23.048-180.542-23.048a26.122 26.122 0 0 0-25.412 27.776l1.477 7.682 39.3 125.287 4.432 3.545 61.757-2.364a4.134 4.134 0 0 0 3.546-4.136 1.773 1.773 0 0 0-.296-1.182l-.295-.591-28.367-78.895 92.783 34.867 21.275 28.662-38.413 97.215c0 .296-.296.296-.296.591v.296c0 .295-.295.886-.295 1.182a4.255 4.255 0 0 0 2.364 3.841 1.098 1.098 0 0 0 .886.296l57.62 23.343c.295 0 .295 0 .591.296l.591.295c.295 0 .591.296.886.296a4.26 4.26 0 0 0 3.842-2.364v-.296c0-.295 0-.295.295-.591 1.182-3.546 2.069-7.091 3.251-10.637 2.659-8.569 5.023-16.843 7.682-25.412 2.955-10.047 6.205-20.389 9.16-30.435l7.978-25.708c2.069-6.5 5.319-13.592 5.91-20.388v-.296a27.835 27.835 0 0 0-4.432-16.547Z" fill="#009687"/><path d="M384.701 742.971a14.775 14.775 0 0 1-19.207-3.546l-47.573-55.847 4.432-12.706 62.348 72.099Z" fill="#A8D7E2"/><path d="M203.272 416.931c14.524 0 26.298-11.775 26.298-26.299s-11.774-26.298-26.298-26.298-26.298 11.774-26.298 26.298 11.774 26.299 26.298 26.299Zm18.615 111.399a4.137 4.137 0 1 0 0-8.273 4.137 4.137 0 0 0 0 8.273Z" fill="#009687"/><path d="m551.651 263.868-84.214 17.729s-59.984-42.254-64.121-44.322a30.48 30.48 0 0 0-16.251-4.433h-76.531a32.777 32.777 0 0 0-5.615.591 5.022 5.022 0 0 0-2.068.296l-85.396 23.343 4.137-46.982-42.254-14.775s-2.955 51.711-5.024 87.76a27.573 27.573 0 0 0 11.82 24.23c7.683 5.614 17.434 5.319 26.594 2.955 7.091-1.773 77.417-20.684 77.417-20.684-2.659 10.046-27.185 82.145-27.185 82.145l120.263 30.139 11.229-108.443s38.413 26.889 51.119 34.572c4.728 2.955 9.751 5.023 15.07 3.546 25.707-7.092 100.17-27.185 100.17-27.185l-9.16-40.482Z" fill="#CCE8FA"/><path d="M359.289 258.55a8.564 8.564 0 0 0 9.053 1.381 8.567 8.567 0 0 0 5.13-7.586v-11.228a7.959 7.959 0 0 1 2.328-5.65 7.945 7.945 0 0 1 5.65-2.328 22.758 22.758 0 0 0 16.089-6.664 22.758 22.758 0 0 0 6.664-16.089v-39.3a30.89 30.89 0 0 0-19.199-28.436 30.878 30.878 0 0 0-42.558 28.732v52.006a9.225 9.225 0 0 1-2.7 6.46 9.225 9.225 0 0 1-6.46 2.7h-2.66l28.663 26.002Z" fill="#832511"/><path d="M352.493 148.334c13.887-15.661 44.913-7.092 48.164 8.569 1.477 19.502-25.412 16.843-25.412 19.207v9.455h-6.205v-.886a6.153 6.153 0 0 0-1.588-4.206 6.152 6.152 0 0 0-4.026-2 6.083 6.083 0 0 0-4.511 1.569 6.09 6.09 0 0 0-1.99 4.341v8.865a14.952 14.952 0 0 1-14.479 14.774v-36.345a32.127 32.127 0 0 1 10.047-23.343Z" fill="#FBBD3F"/></svg>