<svg class="sinch-icon" xmlns="http://www.w3.org/2000/svg" viewBox="0 0 964 800" fill="none" aria-hidden="true" focusable="false"><path d="M821.024 277.48a254.88 254.88 0 0 1-15.297 87.245l117.505-19.915a255.602 255.602 0 0 0 8.974-67.33c0-24.927-111.182-19.247-111.182 0Z" fill="#272727"/><path d="m948.986 290.225-21.07-86.989a64.81 64.81 0 0 0-52.982-48.81 64.802 64.802 0 0 0-25.276 1.041 90.22 90.22 0 0 0-66.451 108.893l16.183 60.488a45.531 45.531 0 0 0 41.412 33.691 24.48 24.48 0 0 1 22.644 19.64l10.772 53.712 57.857-13.173-18.184-75.096 4.179 1.968c25.058-6.048 36.984-30.3 30.916-55.365ZM785.641 507.072l-108.591-83.65a31.722 31.722 0 0 1-10.24-13.612l-7.55-19.364c-7.42-18.952-28.818-31.382-47.579-27.447l-61.662 12.923c-6.074 1.279-5.248 10.22.965 10.142h57.673l-6.212 29.434h-19.24c-9.839 0-10.495 11.886-1.548 13.336 3.365.544 15.744-1.017 22.271 1.01 11.998 3.726 18.118 12.155 35.541 18.367.538.19 1.226.479 2.027.84a69.53 69.53 0 0 1 22.355 16.117l89.456 109.208 32.334-67.304Z" fill="#FFE1CC"/><path d="m654.383 279.691-.005.004c-4.966 3.735-5.963 10.788-2.228 15.754l91.423 121.543c3.735 4.965 10.788 5.963 15.753 2.228l.005-.004c4.966-3.735 5.963-10.788 2.228-15.753l-91.423-121.544c-3.735-4.965-10.788-5.962-15.753-2.228Z" fill="#272727"/><path d="M744.93 613.465 656.537 771.74 502.192 480.229c-23.248-45.971 37.207-88.065 72.256-50.32L744.93 613.465Zm-152.928 36.388 58.461 121.887-242.752 1.004c-51.494-1.174-1.056-94.599 48.752-107.712l135.539-15.179Z" fill="#FFE1CC"/><path d="M900.299 652.772c.223-.656 2.034-2.361 2.25-3.037l27.388-85.973c16.399-51.553 14.103-106.878-1.181-160.406-2.034-7.124-7.111-28.758-7.111-28.758s-16.826 2.558-39.562 6.514c-47.126 8.199-90.112 67.132-103.409 105.553-9.374 27.059-29.092 80.987-29.092 80.987l150.717 85.12Z" fill="#007171"/><path d="M410.234 215.741a11.253 11.253 0 0 1 13.623 8.218l40.256 162.67-10.92 2.702a11.246 11.246 0 0 1-8.51-1.291 11.245 11.245 0 0 1-5.107-6.928l-37.554-151.749a11.25 11.25 0 0 1 8.218-13.623l-.006.001Z" fill="#272727"/><path d="M619.796 386.063H463.358c-8.126 0-14.714 6.588-14.714 14.714v.007c0 8.126 6.588 14.713 14.714 14.713h156.438c8.126 0 14.713-6.587 14.713-14.713v-.007c0-8.126-6.587-14.714-14.713-14.714Z" fill="#272727"/><path d="m325.871 742.575 103.822-13.906 150.633-228.616-77.583-61.583-176.872 304.105Z" fill="#FFE1CC"/><path d="m88.472 706.74 79.367 65.919 239.872.085 76.271-110.795-395.51 44.791Z" fill="#FFE1CC"/><path d="M246.333 688.864 82.726 706.759l85.113 65.9 99.243.033-20.749-83.828Zm164.999-93.228-85.461 146.939 103.822-13.906 96.383-146.277-114.744 13.244Z" fill="#fff"/><path d="M922.202 609.478c-20.387 76.828-58.316 137.054-99.23 179.856-20.079 20.992 20.775-84.234 45.873-197.961 23.392-105.987 31.894-214.762 43.045-214.807.984 0 9.532-2.067 10.181-.322 22.395 60.094 23.852 143.994.131 233.234Z" fill="#007171"/><path d="M190.149 772.744H36.866L1.082 629.484c-8.862-35.501 39.136-55.712 58.33-24.559l27.23 44.193a71.506 71.506 0 0 0 65.04 33.849 20.577 20.577 0 0 1 21.234 15.861l17.233 73.916ZM478.504 671.31l-70.878 126.421-162.893 1.436c-40.1.354-48.464-56.414-9.964-67.658l75.608-22.04a80.555 80.555 0 0 0 33.756-19.719l9.84-9.637a20.291 20.291 0 0 1 11.893-5.641l106.721-12.044a5.991 5.991 0 0 1 5.917 8.882Z" fill="#12364C"/><path d="M10.89 597.637c-8.338 7.097-13.173 18.367-9.808 31.848l35.784 143.259h17.37L10.89 597.637Zm104.274 162.387c10.832 0 19.614-8.781 19.614-19.613 0-10.833-8.782-19.614-19.614-19.614-10.833 0-19.614 8.781-19.614 19.614 0 10.832 8.781 19.613 19.614 19.613Zm302.347-25.943c10.833 0 19.614-8.781 19.614-19.614 0-10.832-8.781-19.613-19.614-19.613-10.832 0-19.613 8.781-19.613 19.613 0 10.833 8.781 19.614 19.613 19.614Zm-206.627 38.663c3.064 14.648 14.917 27.427 33.947 27.256l162.388-1.436 14.432-25.82H210.884Z" fill="#A8D7E2"/><path d="M910.769 376.309c-9.735 18.446-18.683 117.145-39.785 212.754-25.105 113.734-64.188 223.532-44.102 202.521 40.914-42.803 77.071-107.581 97.459-184.409 23.117-87.108 21.746-170.64.846-230.472a3.328 3.328 0 0 0-3.7-2.171l-10.718 1.777Z" fill="#007171"/><path d="M751.753 553.542s-9.473 22.237-12.543 26.987c-5.09 7.871-15.363 10.213-21.752 3.326L662.9 524.816 507.932 798.662l304.433 1.272c8.594 0 17.357-11.427 21.293-15.822l75.149-128.303-157.054-102.267Z" fill="#0A273D"/><path d="M931.93 574.376c14.865-75.031 11.519-145.398-6.743-197.673a3.328 3.328 0 0 0-3.7-2.171l-10.719 1.777c-7.904 14.983-15.29 82.883-29.092 159.075l50.254 38.992Z" fill="#007171"/><path d="M860.999 631.512c-24.008 96.822-51.678 178.426-34.111 160.059 31.96-33.455 61.007-80.286 81.926-135.788l-47.815-24.271Z" fill="#0A273D"/><path d="m748.814 424.327.866-20.198c.175-4.08.157-8.162-.053-12.247l-2.624-50.924c-.406-7.871-11.597-9.059-13.624-1.417l-11.152 38.231a4.152 4.152 0 0 1-7.294 1.312l-48.641-64.509c-4.822-6.403-14.74-.282-11.152 6.901l61.655 124.59a96.924 96.924 0 0 1 6.416 16.649l29.854 135.282c9.643 34.997 55.102 44.003 77.34 15.337 0 0-56.52-124.078-75.95-166.442-2.932-6.376-5.943-15.559-5.641-22.565Z" fill="#FFE1CC"/><path d="m777.887 561.991 52.445 51.455 59.15-90.787-67.376-40.704-44.219 80.036Z" fill="#FFE1CC"/><path d="M953.014 214.892v-.039c-.571-1.968-1.082-3.936-1.771-5.819-11.808-32.943-45.164-55.371-82.312-55.371a88.672 88.672 0 0 0-9.289.492h-.171a87.692 87.692 0 0 0-29.827 8.705c-12.464 5.333-26.239 13.775-35.528 27.072-21.037 30.057-11.106 73.312-11.106 73.312s41.176-5.123 62.915-32.635a256.293 256.293 0 0 1 4.592 27.598 17.52 17.52 0 0 1 21.431 16.303 17.519 17.519 0 0 1-12.336 17.501 17.515 17.515 0 0 1-7.593.608 254.66 254.66 0 0 1-15.225 81.342l115.197-19.916c5.851-21.45 11.282-44.023 11.282-67.33a255.424 255.424 0 0 0-10.259-71.823Z" fill="#272727"/><path d="M644.408 168.928c40.729 0 73.746-33.017 73.746-73.745 0-40.729-33.017-73.746-73.746-73.746-40.728 0-73.745 33.017-73.745 73.746 0 40.728 33.017 73.745 73.745 73.745Zm1.148 18.925a2.62 2.62 0 0 1 1.522-2.489 2.63 2.63 0 0 1 3.486 1.283c.145.313.226.652.24.996a2.63 2.63 0 0 1-.696 1.883 2.63 2.63 0 0 1-1.823.84h-.105a2.628 2.628 0 0 1-2.624-2.513Zm-13.402 1.811a2.633 2.633 0 0 1-1.744-.999 2.636 2.636 0 0 1-.525-1.94 2.622 2.622 0 1 1 2.578 2.952l-.309-.013Zm29.047-3.326a2.624 2.624 0 0 1 3.993-2.743 2.624 2.624 0 0 1-1.435 4.822 2.623 2.623 0 0 1-2.532-2.079h-.026Zm-44.843-.085a2.624 2.624 0 0 1-1.731-3.28 2.63 2.63 0 0 1 1.279-1.549 2.624 2.624 0 0 1 2-.19 2.626 2.626 0 0 1 1.732 3.28 2.62 2.62 0 0 1-2.506 1.85 2.668 2.668 0 0 1-.774-.111Zm60.009-4.054a2.631 2.631 0 0 1 .025-2.009c.136-.317.333-.604.58-.844a2.613 2.613 0 0 1 1.865-.746 2.617 2.617 0 0 1 2.404 1.65 2.629 2.629 0 0 1-.024 2.009 2.613 2.613 0 0 1-1.439 1.402 2.56 2.56 0 0 1-.97.191 2.63 2.63 0 0 1-2.441-1.653Zm-74.985-2.001a2.641 2.641 0 0 1-1.309-1.525 2.63 2.63 0 0 1 2.697-3.435 2.62 2.62 0 0 1 2.135 3.805c-.22.433-.555.796-.968 1.05a2.631 2.631 0 0 1-2.555.105Zm89.214-4.658a2.61 2.61 0 0 1-.321-1.985 2.612 2.612 0 0 1 1.18-1.629 2.625 2.625 0 0 1 3.614.859 2.621 2.621 0 0 1-.866 3.608 2.621 2.621 0 0 1-2.643.055 2.62 2.62 0 0 1-.951-.908h-.013Zm-102.989-3.844a2.621 2.621 0 0 1-.538-3.667 2.624 2.624 0 1 1 3.28 3.912 2.628 2.628 0 0 1-1.181.274 2.63 2.63 0 0 1-1.522-.519h-.039Zm115.865-5.123a2.621 2.621 0 0 1-.384-2.899 2.651 2.651 0 0 1 1.514-1.327 2.639 2.639 0 0 1 2.007.132 2.62 2.62 0 0 1 1.456 2.524 2.625 2.625 0 0 1-2.618 2.456 2.621 2.621 0 0 1-1.935-.886h-.04Zm-127.968-5.569a2.625 2.625 0 0 1 1.951-4.437 2.618 2.618 0 0 1 1.84.809 2.626 2.626 0 0 1 .505 2.875 2.633 2.633 0 0 1-2.4 1.566 2.626 2.626 0 0 1-1.857-.813h-.039Zm139.186-5.451a2.617 2.617 0 0 1-.865-2.787 2.628 2.628 0 0 1 2.247-1.859 2.64 2.64 0 0 1 1.924.579 2.623 2.623 0 0 1-.53 4.396 2.63 2.63 0 0 1-1.13.255 2.63 2.63 0 0 1-1.607-.584h-.039Zm-149.288-7.124a2.623 2.623 0 0 1 4.349-2.939 2.624 2.624 0 0 1-4.349 2.939Zm158.524-5.622a2.624 2.624 0 0 1-.338-4.347 2.61 2.61 0 0 1 .914-.464 2.617 2.617 0 0 1 2.774.905 2.622 2.622 0 0 1 .225 2.909 2.627 2.627 0 0 1-2.289 1.312 2.62 2.62 0 0 1-1.286-.315Zm-166.402-8.488a2.627 2.627 0 1 1 4.851-.158 2.625 2.625 0 0 1-1.375 1.463c-.338.152-.705.23-1.076.23a2.626 2.626 0 0 1-2.4-1.535Zm173.316-5.616a2.624 2.624 0 1 1 1.744-4.95 2.624 2.624 0 0 1-1.744 4.95Zm-178.676-9.636a2.627 2.627 0 0 1 1.883-3.195 2.627 2.627 0 0 1 3.194 1.883 2.622 2.622 0 0 1-1.882 3.195 2.623 2.623 0 0 1-3.195-1.883Zm183.084-5.445a2.621 2.621 0 0 1-.126-5.144 2.627 2.627 0 0 1 3.163 3.006 2.621 2.621 0 0 1-3.037 2.138Zm-185.78-10.495a2.626 2.626 0 0 1 2.401-2.834 2.625 2.625 0 0 1 2.712 3.419 2.61 2.61 0 0 1-2.286 1.816h-.216a2.623 2.623 0 0 1-2.611-2.388v-.013Zm187.571-5.13a2.623 2.623 0 0 1-2.624-2.624v-.203a2.623 2.623 0 1 1 5.248 0v.223a2.625 2.625 0 0 1-2.624 2.624v-.02ZM551.876 89.83a2.625 2.625 0 0 1-2.388-2.84 2.626 2.626 0 0 1 2.847-2.368 2.626 2.626 0 0 1 2.394 2.84 2.623 2.623 0 0 1-2.624 2.407l-.229-.039Zm181.273-9.84a2.625 2.625 0 0 1 2.145-3.024 2.625 2.625 0 0 1 .879 5.176 2.526 2.526 0 0 1-.44 0 2.623 2.623 0 0 1-2.584-2.178v.026Zm-179.082-5.694a2.626 2.626 0 1 1 2.926-3.872 2.63 2.63 0 0 1-2.264 3.958 2.578 2.578 0 0 1-.636-.112l-.026.026Zm175.218-9.078a2.624 2.624 0 0 1 3.605-3.238 2.622 2.622 0 0 1 1.489 2.507 2.617 2.617 0 0 1-.867 1.815 2.62 2.62 0 0 1-.881.523 2.705 2.705 0 0 1-.873.144 2.623 2.623 0 0 1-2.447-1.777l-.026.026Zm-170.39-5.898a2.618 2.618 0 0 1-1.378-1.466 2.626 2.626 0 0 1 3.536-3.322 2.623 2.623 0 0 1-1.083 5.012 2.535 2.535 0 0 1-1.075-.223Zm164.093-8.035a2.61 2.61 0 0 1-.317-.975 2.613 2.613 0 0 1 .546-1.936 2.623 2.623 0 0 1 4.35.345 2.624 2.624 0 0 1-2.316 3.91 2.627 2.627 0 0 1-2.237-1.344h-.026ZM566.209 45.38a2.622 2.622 0 0 1 .977-4.751 2.625 2.625 0 1 1 .492 5.203 2.623 2.623 0 0 1-1.463-.432l-.006-.02Zm148.251-6.763a2.624 2.624 0 0 1 .394-3.687 2.622 2.622 0 1 1 1.646 4.664 2.623 2.623 0 0 1-2.04-.958v-.02Zm-138.707-5.7a2.615 2.615 0 0 1-.806-1.842 2.636 2.636 0 0 1 .734-1.872 2.623 2.623 0 1 1 1.889 4.441 2.622 2.622 0 0 1-1.817-.728Zm128.113-5.301a2.61 2.61 0 0 1-.883-1.806 2.632 2.632 0 0 1 .653-1.9 2.626 2.626 0 0 1 3.7-.23 2.62 2.62 0 0 1 .883 1.801 2.62 2.62 0 0 1-1.535 2.553c-.34.153-.708.232-1.08.231a2.623 2.623 0 0 1-1.738-.649Zm-116.633-5.412a2.622 2.622 0 0 1 1.477-4.106 2.629 2.629 0 0 1 1.988.295 2.617 2.617 0 0 1 1.197 1.616 2.636 2.636 0 0 1-.298 1.988 2.622 2.622 0 0 1-2.252 1.27 2.624 2.624 0 0 1-2.086-1.063h-.026Zm104.373-3.68a2.625 2.625 0 0 1 2.755-4.467 2.633 2.633 0 0 1 1.176 1.63 2.636 2.636 0 0 1-.323 1.984 2.633 2.633 0 0 1-2.237 1.247 2.623 2.623 0 0 1-1.345-.394h-.026Zm-91.201-4.94a2.617 2.617 0 0 1-.146-2.003 2.625 2.625 0 0 1 3.315-1.668 2.621 2.621 0 0 1 .36 4.833 2.622 2.622 0 0 1-2.56-.107 2.628 2.628 0 0 1-.969-1.054Zm77.609-1.967a2.624 2.624 0 1 1 .977.19 2.72 2.72 0 0 1-.977-.164v-.026ZM614.83 7.295a2.627 2.627 0 0 1 1.745-3.28 2.623 2.623 0 0 1 3.383 2.752 2.626 2.626 0 0 1-1.848 2.26c-.25.072-.508.11-.768.111a2.625 2.625 0 0 1-2.512-1.817v-.026Zm48.595-.151a2.623 2.623 0 0 1-2.014-3.116 2.623 2.623 0 0 1 3.096-1.988 2.623 2.623 0 0 1-1.082 5.13v-.026Zm-33.33-3.549a2.612 2.612 0 0 1 .525-1.94 2.631 2.631 0 0 1 1.744-.999 2.626 2.626 0 0 1 2.932 2.276 2.61 2.61 0 0 1-.515 1.964 2.62 2.62 0 0 1-1.761 1.009 2.85 2.85 0 0 1-.334 0 2.624 2.624 0 0 1-2.591-2.31Zm18.19 1.653a2.624 2.624 0 0 1-2.506-2.735A2.626 2.626 0 0 1 648.508 0a2.623 2.623 0 0 1 2.512 2.73 2.62 2.62 0 0 1-2.624 2.512h-.111v.006Z" fill="#fff"/><path d="M645.34 55.903a2.676 2.676 0 0 0-1.863 0l-31.835 11.932a2.671 2.671 0 0 0-1.719 2.486v27.853c0 13.12 8.705 23.74 16.82 30.831a88.37 88.37 0 0 0 11.283 8.338 80.696 80.696 0 0 0 4.788 2.774l.289.151.079.04a2.609 2.609 0 0 0 1.18.275 2.611 2.611 0 0 0 1.181-.275l.079-.04.288-.151a81.236 81.236 0 0 0 4.789-2.774 88.37 88.37 0 0 0 11.283-8.338c8.115-7.098 16.819-17.711 16.819-30.831V68.452l-5.32 7.366v22.356c0 10.752-7.215 20.027-15.008 26.849a82.879 82.879 0 0 1-10.601 7.826c-1.443.905-2.624 1.601-3.483 2.06l-.079.046-.085-.046a73.426 73.426 0 0 1-3.484-2.06 83.2 83.2 0 0 1-10.6-7.826c-7.8-6.822-15.009-16.097-15.009-26.849V72.158l29.178-10.942 22.165 8.318 2.69-4.658-23.825-8.973Z" fill="#272727"/><path d="M675.062 58.75a2.622 2.622 0 0 0-.984-.335 2.751 2.751 0 0 0-1.036.065 2.67 2.67 0 0 0-1.614 1.253l-28.981 40.356-9.84-5.68-5.3-2.999-3.772-2.197a2.676 2.676 0 0 0-2.96.188 2.62 2.62 0 0 0-.923 2.823c.185.67.629 1.238 1.233 1.58l6.448 3.687 5.3 2.998 11.808 6.796 31.599-44.921a2.637 2.637 0 0 0 .277-2.003 2.613 2.613 0 0 0-1.229-1.605l-.026-.007Z" fill="#017171"/></svg>