<svg class="sinch-icon" xmlns="http://www.w3.org/2000/svg" viewBox="0 0 498 400" fill="none" aria-hidden="true" focusable="false"><path d="m292.751 126.515 1.323-2.827c-4.752 2.226-10.347 1.323-14.257-2.286-3.911-3.61-5.355-9.205-3.73-14.318 4.933-15.461 10.888-34.11 15.461-48.368 4.271-13.416 16.363-22.68 30.079-23.041 18.048-.482 42.834-1.204 59.137-1.625 11.13-.3 22.018-3.61 31.524-9.565a13704.895 13704.895 0 0 1 35.794-22.44c6.377-4.03 14.739-1.985 18.65 4.573 7.821 12.994 20.394 33.87 28.275 46.984a14.175 14.175 0 0 1 1.624 10.708c-.902 3.67-3.128 6.798-6.257 8.724-14.137 8.602-36.697 22.319-44.698 27.192-1.865 1.143-3.309 3.008-3.85 5.173-6.317 23.523-27.132 39.886-50.895 40.006-5.535 0-21.657-41.69-21.597-42.713.12-5.414-2.286-10.588-6.076-14.318-3.79-3.73-8.964-5.534-14.198-5.113-6.858.601-12.694 5.173-15.1 11.79-2.166 6.017-4.873 13.597-7.339 20.455-4.212 11.791-9.566 23.041-15.943 33.75a2123.171 2123.171 0 0 0-4.211 7.038c-3.369 5.655-10.107 8.182-16.243 6.076-4.151-1.444-7.46-4.812-8.843-9.084-1.384-4.271-.722-9.024 1.804-12.693l9.566-14.078Z" fill="#F2A068"/><path d="M386.058 115.025c0-11.19-8.844-20.274-19.732-20.274H97.172c-10.888 0-19.732 9.084-19.732 20.274v214.588h308.678c-.06 0-.06-157.557-.06-214.588Z" fill="#CCC"/><path d="M99.158 128.741v-6.076c0-3.429 2.707-6.196 6.016-6.196h254.294c3.308 0 6.015 2.767 6.015 6.196v173.68c0 4.572-3.609 8.302-8.061 8.302H107.159c-4.452 0-8.062-3.73-8.062-8.302V128.741h.06Z" fill="#272727"/><path d="M416.258 342.668c0-13.476-10.648-24.425-23.763-24.425H72.327c-13.175 0-23.824 10.949-23.824 24.425h367.755Z" fill="#666"/><path d="M231.749 108.708c1.925 0 3.429-1.564 3.429-3.549 0-1.925-1.564-3.55-3.429-3.55-1.925 0-3.429 1.564-3.429 3.55 0 1.925 1.504 3.549 3.429 3.549Z" fill="#272727"/><path d="M106.979 346.939c33.388-70.567-21.598-93.066-21.959-97.157-.42-5.535-.661-23.402-.722-35.554-.12-6.919-4.993-12.754-11.61-13.837-7.28-1.263-14.258 3.61-15.822 11.069a22392.71 22392.71 0 0 1-6.618 30.922c-1.925 9.145-1.444 18.59 1.444 27.433 4.933 15.1.842 28.576-11.791 46.383L5.49 352.835c-6.377 9.866-6.498 20.334 3.128 26.891l47.044 17.868c7.942 4.812 18.229 2.105 22.921-6.077" fill="#F2A068"/><path d="M291.668 58.896c4.271-13.416 16.363-22.68 30.08-23.041 18.047-.481 42.833-1.203 59.136-1.624 11.13-.301 22.019-3.61 31.524-9.566a13701.673 13701.673 0 0 1 35.795-22.44c6.377-4.03 14.739-1.984 18.649 4.573 7.821 12.994 20.394 33.87 28.275 46.985a14.17 14.17 0 0 1 1.624 10.708c-.902 3.67-3.128 6.798-6.256 8.723-12.092 7.34-39.104 25.929-46.624 31.042-1.263.903-2.226 2.166-2.827 3.61-8.363 22.379-29.178 37.299-52.52 37.599-1.624 0-3.188.061-4.572.061-4.692.06-9.204 1.925-12.633 5.173-5.294 4.994-13.235 12.453-17.506 16.484-1.986 1.865-4.573 2.767-7.22 2.527-4.933-.421-9.385-3.189-11.971-7.52a16.57 16.57 0 0 1-1.264-14.378c.421-1.083.662-1.745.662-1.745s9.325-20.695 25.628-25.508c5.595-2.707 9.204-8.422 9.385-14.739 0-.962.722-11.009-5.715-17.265-3.851-3.73-8.964-5.535-14.198-5.114" fill="#F2A068"/></svg>