<svg class="sinch-icon" xmlns="http://www.w3.org/2000/svg" viewBox="0 0 75 100" fill="none" aria-hidden="true" focusable="false"><path d="M73.906 44.108c-.674-1.347-2.189-2.357-4.21-2.357H40.068c-1.178 0-2.188-.337-2.693-1.179-.337-.505-.505-1.01-.337-1.683L47.811 1.684c.169-.674 0-1.179-.673-1.516-.673-.336-1.515-.336-2.188.505L1.01 52.02C0 53.2-.168 54.714.337 55.892c.673 1.515 2.188 2.357 4.208 2.357h29.462c1.178 0 2.188.337 2.693 1.179.337.505.505 1.01.337 1.683L26.263 98.317c-.169.673 0 1.178.673 1.515.168.168.505.168.842.168.505 0 1.01-.168 1.347-.673L73.231 47.98c1.01-1.179 1.179-2.694.674-3.872Z" fill="#FFBE3C"/></svg>