<svg class="sinch-icon" xmlns="http://www.w3.org/2000/svg" viewBox="0 0 40 58" fill="none" aria-hidden="true" focusable="false"><path fill-rule="evenodd" clip-rule="evenodd" d="M29.1 38.19H10.91v9.84a9.09 9.09 0 0 0 18.19 0c-.02-4.85-.02-9.84-.02-9.84Z" fill="#0A273D"/><path d="M20 40.88a20 20 0 1 0 0-40 20 20 0 0 0 0 40Z" fill="#FFBE3C"/><path d="M12.43 42.64c1.58-3.25 5.47-14.46 2.84-19.72-1.47-2.94-5.07-.95-3.25 3.5a7.18 7.18 0 0 0 5.5 4.45c1 .2 4.6.2 5.52.03a7.15 7.15 0 0 0 5.7-4.48c1.8-4.43-1.79-6.44-3.26-3.5-2.62 5.26.5 16.47 2.09 19.72" stroke="#0A273D" stroke-width="2.08" stroke-miterlimit="1.06" stroke-linecap="round" stroke-linejoin="bevel"/></svg>