<svg class="sinch-icon" xmlns="http://www.w3.org/2000/svg" viewBox="0 0 338 400" fill="none" aria-hidden="true" focusable="false"><path d="M274.501 70.416a131.84 131.84 0 0 1-88.136-44.453c-5.701-6.934-11.248-13.713-15.793-19.26-6.395-7.55-17.489-8.937-25.501-3.16-7.935 5.702-9.784 16.796-4.083 24.731 12.789 17.874 33.59 47.073 38.52 54.392.309.539.463 1.155.232 1.772-.154.616-.617 1.078-1.156 1.31-.925.384-1.387 1.386-1.079 2.388 1.156 3.544 3.93 12.172 7.319 20.647l.771 59.399s103.544 2.311 139.522 3.081c3.159.078 6.24-1.155 8.552-3.389 2.234-2.235 3.544-5.316 3.467-8.475-.155-18.952-.54-55.085-.694-73.112-.077-6.087-4.776-11.094-10.786-11.634-11.941-.924-31.818-2.62-51.155-4.237Z" fill="#F2A068"/><path d="M200.618 116.487c0-44.684-36.21-80.894-80.894-80.894h-4.391c-44.684 0-80.894 36.21-80.894 80.894v161.094c0 8.474 6.857 15.408 15.408 15.408H185.21c8.474 0 15.408-6.856 15.408-15.408V116.487Zm-30.817 0v145.686H65.256V116.487c0-27.658 22.419-50.077 50.077-50.077h4.391c27.658-.077 50.077 22.342 50.077 50.077Z" fill="#0A273D"/><path d="M117.567 400c64.792 0 117.334-52.542 117.334-117.334s-52.542-117.335-117.334-117.335S.233 217.874.233 282.666 52.775 400 117.567 400Z" fill="#FFBE3C"/><path d="M107.166 277.273c-5.084-3.39-8.474-9.168-8.474-15.717 0-10.4 8.474-18.875 18.875-18.875s18.875 8.475 18.875 18.875c0 6.549-3.39 12.404-8.474 15.717 0 0 9.399 24.422 14.406 37.442.694 1.772.463 3.775-.616 5.393-1.078 1.541-2.85 2.542-4.776 2.542H98.23c-1.926 0-3.698-.924-4.777-2.542-1.079-1.541-1.31-3.621-.616-5.393 4.93-13.02 14.329-37.442 14.329-37.442Z" fill="#0A273D"/><path d="M253.006 168.567c3.236 0 6.24-1.695 7.935-4.545 1.618-2.774 1.695-6.318.077-9.091a2421496.33 2421496.33 0 0 1-51.617-91.834l-61.326.385 29.199 105.162c0-.077 49.615-.077 75.732-.077Z" fill="#F2A068"/><path d="M224.578 159.784c1.078 1.31-15.794-2.08-32.435-5.701-2.927-.616-5.161-2.003-6.702-3.775-3.698-4.16-4.623-10.092-2.312-15.1 2.235-5.085 7.319-8.32 12.866-8.32 12.327-.078 28.814-.078 28.814-.078 9.168-.693 17.103 6.087 17.797 15.255.693 9.168-6.164 17.103-15.255 17.796-.539.077-1.155.077-1.695.077l-1.078-.154Z" fill="#F2A068"/><path d="M200.618 165.177V116.41c0-44.684-36.21-80.894-80.894-80.894h-6.394c-8.475 0-15.409 6.934-15.409 15.409 0 8.474 6.934 15.408 15.409 15.408h6.394c27.658 0 50.077 22.419 50.077 50.077v48.767c0 8.475 6.934 15.409 15.409 15.409 8.551 0 15.408-6.934 15.408-15.409Z" fill="#0A273D"/><path d="m172.729 63.482-31.125-.308c-8.398 0-15.794 5.162-16.641 13.56-.616 6.086 2.388 11.71 7.319 14.637l-2.234-.077c-8.321-.847-15.794 5.393-16.718 13.714-.694 6.548 2.927 12.557 8.551 15.254-2.08 2.311-3.544 5.316-3.852 8.629-.847 8.32 5.162 15.793 13.56 16.641.231 0 .385.077.616.077a14.662 14.662 0 0 0-2.157 6.394c-.848 8.321 5.162 15.794 13.559 16.641.539.077 1.079.077 1.541.077l25.501-.077" fill="#F2A068"/><path d="M157.089 63.328h34.515c10.863 0 17.951 3.467 19.877 11.71 1.386 6.01-1.233 11.942-6.318 15.332l2.466-.154c9.014-1.772 17.95 3.467 19.876 11.71 1.541 6.472-1.695 12.866-7.55 16.102 2.543 2.08 4.469 4.853 5.239 8.166 1.926 8.244-3.775 16.333-12.866 18.105-.231.077-.462.077-.693.154 1.464 1.772 2.619 3.852 3.158 6.086 1.927 8.244-3.775 16.333-12.865 18.105-.54.077-1.156.231-1.695.231h-39.831" fill="#F2A068"/></svg>