<svg class="sinch-icon" xmlns="http://www.w3.org/2000/svg" viewBox="0 0 1234 800" fill="none" aria-hidden="true" focusable="false"><path d="M1083.22 371.193c5.5-10.243 9.54-16.866 10.02-17.318 0 0 30.31-5.955 46.29 4.495 16.36 10.645 23.78 25.455 24.52 39.906.67 13.881-16.36 67.398 6.55 102.718a42.881 42.881 0 0 1 6.92 22.617c.21 18.196-9.89 35.608-24.86 46.414-.3.18-3.63 1.364-8.13 2.973a45.858 45.858 0 0 1-26.55 1.1 45.868 45.868 0 0 1-22.71-13.809c-15.16-16.914-34-43.115-43.7-76.305-32.23 2.206-61.179-21.01-65.63-53.517-4.678-33.927 19.1-65.309 53.13-69.984 16.11-2.284 31.69 2.011 44.15 10.71Z" fill="#0A273D"/><path d="M616.85 800c340.677 0 616.85-42.8 616.85-95.595 0-52.796-276.173-95.595-616.85-95.595S0 651.609 0 704.405C0 757.2 276.173 800 616.85 800Z" fill="#F2F2F2"/><path d="M99.737 572.138a31.624 31.624 0 0 0 17.525 28.308l46.852 23.339a55.173 55.173 0 0 0 28.422 5.655l90.662-1.262v62.52H130.535a31.918 31.918 0 0 1-29.453-19.629l-20.378-48.881a56.781 56.781 0 0 1-4.375-21.859v-28.191a11.706 11.706 0 0 1 23.41 0" fill="#FF7F51"/><path d="M99.737 572.15v6.548a59.853 59.853 0 0 0 17.402 42.192l69.388 69.825H79.116a2.839 2.839 0 0 1-2.838-2.838v-9.709a2.837 2.837 0 0 1 2.838-2.838h19.551a2.55 2.55 0 0 0 2.12-1.138 2.545 2.545 0 0 0 .223-2.396L81.184 624.98a61.246 61.246 0 0 1-4.852-23.884v-31.703a11.745 11.745 0 0 1 7.336-10.953 11.73 11.73 0 0 1 9.087.116 11.744 11.744 0 0 1 7.054 11.136l-.072 2.458Z" fill="#A8D7E2"/><path d="m842.902 566.471-613.476 44.385a10.878 10.878 0 0 0-10.09 10.849v68.998h623.566V566.471Z" fill="#12364C"/><path d="M389.5 676.029c9.524-4.445 27.394-16.86 42.45-27.826a175.687 175.687 0 0 0 42.255-43.777c21.247-31.466 55.396-82.047 55.396-82.047l80.512-17.291-116.45 150.08s-32.779 39.669-38.832 39.669h-9.251l-59.987 1.531h-.333c-4.846 0-7.582-3.189-6.686-7.861.917-4.78 5.394-9.907 10.923-12.481" fill="#FF7F51"/><path d="m1029.47 454.034-76.006 81.84-71.888-70.296 33.744-33.825a64.969 64.969 0 0 1 70.963-14.096 64.935 64.935 0 0 1 21.097 14.165l22.09 22.212Z" fill="#FFBE3C"/><path d="m1076.21 605.118 50.87-50.868 79.66 79.655c6.12 6.128 9.65 14.415 9.56 23.045 0 4.316-.86 8.59-2.54 12.565a32.13 32.13 0 0 1-7.25 10.571c-12.01 11.789-31.23 12.403-43.85 1.174-31.86-28.095-86.45-76.142-86.45-76.142Z" fill="#F2A068"/><path d="M844.392 610.689s-87.118-138.072-129.307-204.748a79.026 79.026 0 0 0-63.948-36.735 79.049 79.049 0 0 0-69.601 36.729c-29.006 45.866-75.819 119.89-92.673 146.451a6.588 6.588 0 0 0-.186 6.593 6.376 6.376 0 0 0 5.649 3.296h80.524a6.464 6.464 0 0 0 5.181-2.547c8.946-11.864 45.393-60.649 45.393-60.649l104.634 159.352 114.334-47.742Z" fill="#12364C"/><path d="M1051.97 609.691s-15.17 15.445-32.31 32.776a161.354 161.354 0 0 1-115.179 48.218H801.346V561.85l206.444-129.687L1142 569.093l-63.29 65.738-26.74-25.14Z" fill="#FFBE3C"/><path d="m1040.62 647.456 139.39-18.457a32.297 32.297 0 0 1 25.44 7.73 32.394 32.394 0 0 1 8.11 10.911 32.38 32.38 0 0 1 2.9 13.284c0 4.144-.81 8.249-2.39 12.079a31.516 31.516 0 0 1-29.16 19.471h-151.82v-.093h-22.98c-6.41 0-12.716-.566-18.368-3.485l-11.864-6.123a21.66 21.66 0 0 0-22.324 1.499l-11.687 8.091a9.585 9.585 0 0 1-8.193 1.885 6.574 6.574 0 0 1-4.238-2.922l-3.86 2.452a8.195 8.195 0 0 1-3.845 1.058 8.812 8.812 0 0 1-2.73-.471l-.189-.093c-1.885-.851-3.2-2.733-3.578-4.992-.377-2.542.564-4.993 2.634-6.779l13.657-13.093-20.624 5.837a7.444 7.444 0 0 1-9.23-4.925 7.446 7.446 0 0 1 4.804-9.294l56.507-18.553a33.987 33.987 0 0 1 24.394-.567l13.374 4.795a44.55 44.55 0 0 0 19.87 2.356l15.73-1.697c.08.003.18.096.27.096Z" fill="#F2A068"/><path d="m1067.32 545.85-37.16-18.325c-2.78-1.37-6.48-.845-9.21 1.3l-69.096 54.243c-4.354 3.419-4.282 9.224.144 11.405l37.16 18.326c2.775 1.366 6.485.845 9.219-1.301l69.083-54.242c4.36-3.422 4.29-9.224-.14-11.406" fill="#272727"/><path d="m546.467 587.896-72.319 99.676c-.701 1.448-2.445 2.625-3.896 2.625h-6.539c-9.176 6.947-17.145 10.96-26.207 10.96h-57.395c-6.829 0-9.694-5.538-6.392-12.368 3.303-6.83 11.514-12.371 18.344-12.371h29.161c9.797 0 29.669-5.286 38.587-13.827l86.656-74.695Z" fill="#A8D7E2"/><path d="M875.322 295.73H627.165a25.635 25.635 0 0 0-25.607 25.608v103.009h273.764a25.633 25.633 0 0 0 25.607-25.607v-77.402a25.635 25.635 0 0 0-25.607-25.608Z" fill="#007171"/><path d="M776.901 149.241h248.159a25.633 25.633 0 0 1 25.62 25.616v102.998H776.901a25.637 25.637 0 0 1-25.602-25.608v-77.39a25.635 25.635 0 0 1 25.602-25.616Z" fill="#FFBE3C"/><path d="M875.322 0H627.165a25.635 25.635 0 0 0-25.607 25.608v102.997h273.764a25.637 25.637 0 0 0 25.607-25.608v-77.39A25.633 25.633 0 0 0 875.322 0" fill="#007171"/><path d="M694.489 373.573c7.464 0 13.515-6.051 13.515-13.516 0-7.464-6.051-13.515-13.515-13.515-7.465 0-13.516 6.051-13.516 13.515 0 7.465 6.051 13.516 13.516 13.516Zm56.697 0c7.464 0 13.515-6.051 13.515-13.516 0-7.464-6.051-13.515-13.515-13.515-7.465 0-13.516 6.051-13.516 13.515 0 7.465 6.051 13.516 13.516 13.516Zm56.692 0c7.465 0 13.516-6.051 13.516-13.516 0-7.464-6.051-13.515-13.516-13.515-7.464 0-13.515 6.051-13.515 13.515 0 7.465 6.051 13.516 13.515 13.516Z" fill="#fff"/><path d="M666.324 52.387h169.742a4.693 4.693 0 1 0 0-9.383H666.324a4.694 4.694 0 0 0-3.395 8.052 4.701 4.701 0 0 0 3.395 1.33Zm.063 33.196h113.22a4.693 4.693 0 1 0 0-9.383h-113.22a4.694 4.694 0 0 0-3.395 8.051 4.701 4.701 0 0 0 3.395 1.332Zm149.682 113.842h169.745a4.683 4.683 0 0 0 3.395-1.331 4.693 4.693 0 0 0-3.395-8.051H816.069a4.683 4.683 0 0 0-3.395 1.331 4.693 4.693 0 0 0 3.395 8.051Zm.018 33.196h113.222a4.684 4.684 0 0 0 3.395-1.332 4.69 4.69 0 0 0 0-6.72 4.699 4.699 0 0 0-3.395-1.331H816.09a4.701 4.701 0 0 0-3.395 1.331 4.693 4.693 0 0 0 3.395 8.052h-.003Z" fill="#fff"/><path d="M509.007 109.219H185.085a20.835 20.835 0 0 0-20.813 20.813v191.78a20.68 20.68 0 0 0 20.678 20.678h324.057a20.835 20.835 0 0 0 20.813-20.813V130.032a20.838 20.838 0 0 0-20.813-20.813Z" fill="#F2F2F2"/><path d="M392.785 221.695a7.297 7.297 0 0 1 9.645-2.467 7.297 7.297 0 0 1 2.642 2.467c9.332 14.81 27.037 42.854 36.861 58.438a7.242 7.242 0 0 1-2.444 10.117 7.248 7.248 0 0 1-3.691 1.004h-73.742a7.255 7.255 0 0 1-7.256-7.464 7.244 7.244 0 0 1 1.116-3.657c9.832-15.59 27.537-43.628 36.869-58.438Z" fill="#FFBE3C"/><path d="M309.762 170.156a7.271 7.271 0 0 1 6.136-3.366c1.223 0 2.427.308 3.499.897a7.263 7.263 0 0 1 2.637 2.469c15.02 23.785 53.52 84.824 69.409 110.018a7.197 7.197 0 0 1-2.433 10.116 7.186 7.186 0 0 1-3.704.972H246.497a7.186 7.186 0 0 1-7.29-7.43 7.191 7.191 0 0 1 1.143-3.658c15.901-25.194 54.389-86.233 69.412-110.018Z" fill="#FFD03C"/><path d="M428.216 201.853c11.44 0 20.714-9.274 20.714-20.714s-9.274-20.714-20.714-20.714-20.714 9.274-20.714 20.714 9.274 20.714 20.714 20.714Z" fill="#FFD03C"/><path d="M801.07 604.471a26.702 26.702 0 0 1-6.686-5.095 32.29 32.29 0 0 1-9.799-23.035 32.3 32.3 0 0 1 9.61-23.116l88.433-88.42 50.859 50.945-35.507 31.647 54.342 2.166a35.423 35.423 0 0 0 17.423-4.618c12.434-7.153 33.815-19.305 33.815-19.305 3.39-1.885 7.91-.755 10.08 2.637 2.16 3.297 1.22 7.348-1.89 9.515l-2.82 2.352c.09 0-3.68 3.39-5.85 5.368l38.43 12.149a6.78 6.78 0 0 1 3.96 3.225 6.783 6.783 0 0 1 .57 5.071 6.758 6.758 0 0 1-8.2 4.701l-41.253-10.171 21.193 24.573c2.35 2.731 1.98 7.064-.85 9.59-1.98 1.798-4.62 2.356-6.78 1.696a6.919 6.919 0 0 1 .89 4.907 6.92 6.92 0 0 1-2.66 4.222 6.88 6.88 0 0 1-4.8 1.327 6.886 6.886 0 0 1-4.448-2.262l-3.486-3.767a6.445 6.445 0 0 1-1.129 8.004 6.33 6.33 0 0 1-4.581 1.767 6.322 6.322 0 0 1-4.461-2.049s-11.585-12.244-17.423-18.553a9.477 9.477 0 0 0-8.197-2.826l-33.902 5.275-102.845 16.29a32.54 32.54 0 0 1-22.038-4.21Z" fill="#F2A068"/><path d="m1097.51 523.649-14.81-15.056a11.177 11.177 0 0 1-3.22-7.72 11.222 11.222 0 0 1 3.01-7.803 9.566 9.566 0 0 1 6.65-3.03c6.86-.317 21.74-3.371 33.94-21.697l31.68-47.508a48.99 48.99 0 0 0 7.32-17.787 49.022 49.022 0 0 0-.12-19.233 48.784 48.784 0 0 0-7.52-17.701 48.733 48.733 0 0 0-13.77-13.429c-22.54-14.616-52.74-7.843-67.65 14.51l-26.72 40.071a48.833 48.833 0 0 0-7.7 19.96 48.878 48.878 0 0 0 1.59 21.332 7.914 7.914 0 0 1-.27 5.425c-.28.647-.7 1.219-1.24 1.671a4.48 4.48 0 0 1-1.87.93 4.513 4.513 0 0 1-3.94-.959l-12.23-10.405-2.44 9.797a58.82 58.82 0 0 0 18.58 58.657 58.855 58.855 0 0 0 28.96 13.561 58.785 58.785 0 0 0 31.76-3.592l.01.006Z" fill="#F2A068"/><path d="M1103.96 329.205a45.557 45.557 0 0 1-1.67-10.039c-1.19-24.553 17.8-45.513 42.35-46.703 24.55-1.189 45.5 17.697 46.69 42.255 1.2 23.975-16.88 44.53-40.55 46.646 14.39 16.182 16.83 40.756 4.2 59.597l-24.41 36.157s.22.161.21.065c-26.27-17.489-35.22-51.434-22.12-79.19.16-.344.2-.728.13-1.098a1.83 1.83 0 0 0-.55-.964 1.749 1.749 0 0 0-1-.464c-.37-.046-.75.027-1.08.209a38.581 38.581 0 0 1-19.65 5.095c-4.76.284-9.52-.597-13.87-2.567a29.432 29.432 0 0 1-11.07-8.737c-9.94-12.799-7.62-31.167 5.17-41.209a29.255 29.255 0 0 1 37.22.947Z" fill="#0A273D"/></svg>