<svg class="sinch-icon" xmlns="http://www.w3.org/2000/svg" viewBox="0 0 842 800" fill="none" aria-hidden="true" focusable="false"><path d="M740.589 32.093a4.753 4.753 0 0 0-4.763-4.759H37.588a4.753 4.753 0 0 0-4.755 4.752v405.992a4.755 4.755 0 0 0 4.755 4.752h698.238c1.26 0 2.468-.5 3.36-1.391a4.754 4.754 0 0 0 1.391-3.361V32.093h.012Z" fill="#F2F2F2"/><path d="M210.245 111.757a5.525 5.525 0 0 0-5.53-5.528h-46.528a5.528 5.528 0 0 0-5.528 5.528v46.531a5.53 5.53 0 0 0 5.528 5.527h46.528a5.527 5.527 0 0 0 5.53-5.527v-46.531Z" fill="#FFBE3C"/><path d="M380.228 325.609a5.523 5.523 0 0 0-5.527-5.525H328.17a5.527 5.527 0 0 0-5.528 5.525v46.531a5.528 5.528 0 0 0 5.528 5.528h46.531a5.527 5.527 0 0 0 5.527-5.528v-46.531Z" fill="#007171"/><path d="M108.136 111.757a5.526 5.526 0 0 0-5.526-5.528H56.07a5.524 5.524 0 0 0-5.107 3.412 5.534 5.534 0 0 0-.42 2.116v46.531a5.527 5.527 0 0 0 5.527 5.527h46.54a5.52 5.52 0 0 0 3.908-1.619 5.537 5.537 0 0 0 1.618-3.908v-46.531Z" fill="#E83452"/><path d="M598.611 123.447a5.525 5.525 0 0 0-5.527-5.527h-46.531a5.52 5.52 0 0 0-3.908 1.619 5.537 5.537 0 0 0-1.618 3.908v46.531a5.527 5.527 0 0 0 5.526 5.528h46.531a5.525 5.525 0 0 0 5.527-5.528v-46.531Z" fill="#007171"/><path d="M611.299 234.624a5.524 5.524 0 0 0-5.527-5.527h-46.531a5.528 5.528 0 0 0-5.528 5.527v46.529a5.529 5.529 0 0 0 5.528 5.53h46.531a5.53 5.53 0 0 0 5.527-5.53v-46.529Z" fill="#FFBE3C"/><path d="M270.771 408.114a5.507 5.507 0 0 1-5.506-5.507V76.862a5.509 5.509 0 0 1 5.506-5.506 5.507 5.507 0 0 1 5.507 5.507v325.744a5.519 5.519 0 0 1-1.613 3.894 5.506 5.506 0 0 1-3.894 1.613Zm232.274 0a5.506 5.506 0 0 1-5.507-5.507V76.862a5.505 5.505 0 1 1 11.013 0v325.745a5.506 5.506 0 0 1-5.506 5.507Z" fill="#fff"/><path d="m700.322 153.099-59.408 11.006c5.917 19.554 7.721 38.109 4.352 58.247l58.406-9.777c4.93-19.48 3.215-39.016-3.343-59.476h-.007Z" fill="#FFBE3C"/><path d="M37.749 774.932c4.773-5.607 10.714-12.593 10.714-24.064v-1.831c0-.101.014-.194.016-.292v-21.216a4.414 4.414 0 0 1 4.41 4.439l-.02 6.565a18.387 18.387 0 0 1 17.009-12.22 18.39 18.39 0 0 1 17.413 11.636v-6.004a4.413 4.413 0 0 1 4.411-4.413h.603v42.099c.684 9.363 2.57 15.059 2.649 15.274a11.326 11.326 0 0 1-10.684 15.097H42.232a11.33 11.33 0 0 1-11.328-11.329c0-5.705 3.324-9.611 6.845-13.749m161.799-45.866h19.968c4.051 0 8.411 3.284 9.763 7.333 2.103-3.633 5.757-6.177 10.539-7.025 1.853-.327 4.14 1.231 4.792 3.219l1.058 3.39c3.703 11.312 12.025 22.115 22.909 29.736 7.18 5.025 15.109 8.41 22.895 9.772l11.425 2.21c5.59 1.084 10.87 5.694 12.641 11.039 2.061 6.222-1.315 11.268-7.539 11.268H279.91c-9.697 0-20.467-3.35-30.177-9.142-1.378-.822-2.686-.03-2.229 1.348l1.839 5.556c.409 1.238-.259 2.238-1.495 2.238h-25.316c-1.236 0-2.57-1-2.978-2.238l-21.84-65.959c-.502-1.517.32-2.745 1.834-2.745Z" fill="#E03E52"/><path d="m132.122 344.808 6.275-4.628.32-.018 135.016 393.323a11.067 11.067 0 0 1-5.405 13.441 11.073 11.073 0 0 1-5.068 1.228h-72.963a11.072 11.072 0 0 1-10.471-7.476l-63.212-184.143v180.169a11.086 11.086 0 0 1-11.072 11.074H31.36a11.085 11.085 0 0 1-11.074-11.074V405.256a63.795 63.795 0 0 1-.054-2.591c0-32.319 22.603-57.45 22.832-57.705l.143-.156 88.915.004Z" fill="#0A273D"/><path d="m241.222 248.016 20.685 12.013s-22.895 36.989-41.889 67.653a27.591 27.591 0 0 1-24.193 13.054 27.605 27.605 0 0 1-13.643-4.029 27.605 27.605 0 0 1-9.823-10.289l-40.698-74.251a23.115 23.115 0 0 1 2.401-25.789 23.12 23.12 0 0 1 15.782-8.346 23.1 23.1 0 0 1 17.019 5.391 23.126 23.126 0 0 1 5.648 7.141l29.808 56.378 38.903-38.926Z" fill="#842306"/><path d="M172.338 230.354a22.705 22.705 0 0 0-20.073-12.095H51.283a22.704 22.704 0 0 0-21.379 15.071L1.558 312.589l48.564-.89L40.742 347v.439l88.406.589h.046a6.299 6.299 0 0 0 5.965-4.264l17.585-51.379 4.301 8.133 45.393-13.228-30.1-56.936Z" fill="#E83452"/><path d="m108.869 331.534-75.414 16.38a27.596 27.596 0 0 1-31.971-35.89l.046-.14 49.326-2.184 56.896.131a10.927 10.927 0 0 1 1.122 21.703h-.005Z" fill="#842306"/><path d="M114.425 311.982c-1.101-5.025-3.794-8.432-3.661-8.922.338-1.257 2.663-5.121 4.457-7.995a4.201 4.201 0 0 0-1.39-5.607c.012-.016 0-.016 0-.016a4.323 4.323 0 0 0-3.392-.563 4.325 4.325 0 0 0-2.736 2.084l-4.555 8.113a14.454 14.454 0 0 1-11.53 7.336l-6.453.467.718 9.357s29.616.701 28.532-4.266l.01.012Z" fill="#842306"/><path d="M194.399 270.161a5.364 5.364 0 0 0-2.618-6.507 5.371 5.371 0 0 0-2.454-.593h-62.523a5.375 5.375 0 0 0-5.058 3.586c-4.864 13.873-22.51 64.181-29.095 82.96a5.361 5.361 0 0 0 5.058 7.137h63.258a5.357 5.357 0 0 0 5.072-3.625c4.761-13.938 21.956-64.228 28.36-82.958Z" fill="#FFBE3C"/><path d="M148.543 303.193c3.972 0 5.406 3.217 3.222 7.18-2.185 3.962-7.175 7.177-11.135 7.177s-5.406-3.215-3.222-7.177c2.185-3.963 7.175-7.18 11.135-7.18Z" fill="#fff"/><path d="M72.952 109.004a10.836 10.836 0 0 1 4.205 11.934 12.417 12.417 0 0 0-.528 2.978 14.46 14.46 0 0 1-3.012 8.715 14.442 14.442 0 0 0-1.635 14.991 14.444 14.444 0 0 1 1.068 9.156 14.445 14.445 0 0 0 5.034 14.214 14.439 14.439 0 0 1 4.934 7.786 14.437 14.437 0 0 0 10.705 10.621c3.07.727 5.819 2.44 7.824 4.876a14.442 14.442 0 0 0 14.251 4.927 14.445 14.445 0 0 1 9.165.997 14.445 14.445 0 0 0 14.978-1.747 14.45 14.45 0 0 1 8.689-3.077 14.442 14.442 0 0 0 12.737-8.072 14.444 14.444 0 0 1 6.494-6.541 14.449 14.449 0 0 0 7.974-12.798 14.44 14.44 0 0 1 3.014-8.712 14.447 14.447 0 0 0 2.927-7.266 14.449 14.449 0 0 0-1.292-7.726 14.457 14.457 0 0 1-1.07-9.158 14.442 14.442 0 0 0-5.034-14.213 14.47 14.47 0 0 1-4.935-7.787 14.428 14.428 0 0 0-10.702-10.621 14.446 14.446 0 0 1-7.822-4.878 14.446 14.446 0 0 0-14.251-4.927c-3.081.68-6.301.33-9.165-.995a10.397 10.397 0 0 1-6.027-9.081c-.068-2.853-1.115-5.74-4.245-7.71a12.058 12.058 0 0 1-4.717-5.361 11.596 11.596 0 0 0-13.501-6.63 11.57 11.57 0 0 1-7.126-.456 11.595 11.595 0 0 0-14.235 4.86 11.581 11.581 0 0 1-5.361 4.716 11.597 11.597 0 0 0-6.645 13.504 11.578 11.578 0 0 1-.453 7.127 11.594 11.594 0 0 0 4.857 14.235 31.45 31.45 0 0 1 2.893 2.119h.007Z" fill="#0A273D"/><path d="M82.236 217.296c15.146-5.756 22.605-43.494 34.025-76.769a8.52 8.52 0 1 1 15.886 6.161 1.9 1.9 0 0 0 .369 1.963 1.89 1.89 0 0 0 1.923.539l42.803-12.441s2.249 6.878-2.122 18.144l-12.307 31.67c-4.99 12.849-17.115 17.234-31.687 16.162h-.436c-4.439.128-7.841 3.645-7.841 7.943a7.649 7.649 0 0 0 7.415 7.64h3.694v.444c0 17.914-14.323 32.487-31.929 32.487-17.606 0-31.93-14.559-31.93-32.473v-.444h4.906a24.383 24.383 0 0 0 7.23-1.026Z" fill="#842306"/><path d="M304.116 221.693a5.524 5.524 0 0 0-5.528-5.527h-46.531a5.52 5.52 0 0 0-5.105 3.412 5.541 5.541 0 0 0-.42 2.115v46.531a5.515 5.515 0 0 0 1.619 3.907 5.533 5.533 0 0 0 3.906 1.618h46.531a5.519 5.519 0 0 0 5.528-5.525v-46.531Z" fill="#FFBE3C"/><path d="M253.123 274.041c13.125-20.056-3.194-33.616-3.061-34.908.285-2.752 1.117-7.52 1.117-7.52 1.467-3.469.259-7.635-2.593-8.731-2.357-.908-4.719 1.098-6.186 4.563l-3.075 7.31a16.31 16.31 0 0 0-1.103 8.644c.725 4.995-1.373 8.971-6.452 13.784l-29.024 30.624c-2.616 2.703-3.256 5.957-.549 8.574l19.132 11.379a5.451 5.451 0 0 0 7.691-.546" fill="#842306"/><path d="m466.781 237.468 12.943 5.501 5.523-1.869a9.245 9.245 0 0 1 11.382 4.885l3.675 7.974 10.649 4.525 5.357 34.556-24.507-10.413s-4.872 3.119-16.438-1.796l-10.06-4.276a9.454 9.454 0 0 1-5.603-10.457l3.316-18.08-.617-.262a5.587 5.587 0 1 1 4.371-10.279" fill="#F2A068"/><path d="M487.079 228.784a5.523 5.523 0 0 0-5.528-5.525h-46.528a5.523 5.523 0 0 0-5.528 5.525v46.531a5.528 5.528 0 0 0 5.528 5.528h46.528a5.532 5.532 0 0 0 5.528-5.528v-46.531Z" fill="#E83452"/><path d="M271.193 258.08a5.264 5.264 0 0 1-3.717-1.539L260 249.065a5.264 5.264 0 0 1-1.138-5.73 5.236 5.236 0 0 1 1.14-1.705 5.247 5.247 0 0 1 3.717-1.54 5.26 5.26 0 0 1 3.718 1.541l3.752 3.754 12.013-12.013a5.256 5.256 0 0 1 7.434 7.434l-15.73 15.73a5.252 5.252 0 0 1-3.713 1.544Z" fill="#fff"/><path d="M145.919 189.235c.805.16 1.624.231 2.444.213a11.391 11.391 0 0 0 7.654-3.25 1.248 1.248 0 0 0 0-1.782 1.288 1.288 0 0 0-1.802 0 8.737 8.737 0 0 1-11.938.294 1.277 1.277 0 0 0-2.129.995 1.24 1.24 0 0 0 .417.872 11.344 11.344 0 0 0 5.373 2.656M776.1 739.421c3.584 8.721 9.66 16.718 17.522 22.846 7.088 5.53 15.27 9.254 23.619 10.747l12.214 2.434c5.979 1.189 11.046 6.261 12.132 12.149 1.267 6.847-3.27 12.398-10.106 12.398h-95.877a3.1 3.1 0 0 1-2.916-2.46l-8.371-55.177m-147.812-2.937c-3.654 8.721-9.798 16.718-17.704 22.846-7.135 5.53-15.347 9.254-23.708 10.747l-12.242 2.441c-5.988 1.189-11.097 6.261-12.232 12.148-1.323 6.848 3.156 12.399 10.003 12.399h95.868a3.129 3.129 0 0 0 2.934-2.46l8.829-55.177" fill="#0A273D"/><path d="m659.552 389.685-.042-.278 89.586-6.373 54.532 369.884a7.166 7.166 0 0 1-7.055 8.212l-75.461.355a7.165 7.165 0 0 1-7.121-6.112L675.572 497.3l-37.983 258.475a7.164 7.164 0 0 1-7.091 6.126h-76.072a7.183 7.183 0 0 1-5.429-2.488 7.174 7.174 0 0 1-1.662-5.736l53.897-362.237 58.318-1.766.002.011Z" fill="#FFBE3C"/><path d="M456.198 243.747c-.738-.539-1.483-1.266-1.836-2.126a5.002 5.002 0 0 1 0-3.826 5.001 5.001 0 0 1 6.541-2.687l21.868 9.053 4.756 1.85 12.77 7.943 10.649 4.528 5.364 34.558-22.225-9.443a6.427 6.427 0 0 0-4.018-.335c-2.316.554-7.042.823-14.702-2.432l-22.601-9.529a4.99 4.99 0 0 1-3.074-4.629 5.006 5.006 0 0 1 2.107-4.062l-2.874-1.198a5.001 5.001 0 0 1 .026-9.238c.934-.18 1.082-.049 1.371-.11-1.168-.521-2.464-1.803-2.955-2.997a5 5 0 0 1 0-3.825 4.995 4.995 0 0 1 2.714-2.698 5.011 5.011 0 0 1 3.827.012l2.292 1.191Z" fill="#F2A068"/><path d="m750.255 391.62-5.855-38.571a28.23 28.23 0 0 0 21.381-10.032 28.224 28.224 0 0 0 6.282-22.767c-3.583-21.893-8.319-50.818-12.064-73.704a44.906 44.906 0 0 0-44.316-37.65h-84.822a44.91 44.91 0 0 0-39.513 23.561l-26.304 48.72-56.848-23.907v46.138l57.339 26.79a37.617 37.617 0 0 0 46.914-12.786l-11.044 74.292 148.85-.088v.004Z" fill="#007171"/><path d="M647.14 122.973c8.254-10.763 21.047-15.782 33.389-13.1 16.312 3.547 30.839 21.641 28.299 39.364l-4.088 28.581c-1.402 9.768-10.789 16.66-18.545 22.498-7.757 5.839-17.784 8.927-26.769 6.974a30.347 30.347 0 0 1-7.046-2.467c-12.148-6.03-19.26-19.83-17.113-34.838l4.507-29.448a37.66 37.66 0 0 1 7.366-17.564Z" fill="#F2A068"/><path d="m662.559 168.84.084-.425.491.112c2.78.631 5.84.234 8.111-1.373 2.271-1.608 3.834-4.206 4.404-7.308 1.43-7.792-2.755-11.63-17.66-16.417-2.747-.881-13.038-2.254-12.569-18.012-.054.088-.086-.042 0 0 9.21-14.375 24.848-18.767 38.265-15.847 18.361 4.004 34.042 17.891 30.217 43.05a2.163 2.163 0 0 1-.051.252c-7.476 27.495 9.917 45.111 13.354 49.295 13.489 16.393 16.038 40.499 7.121 58.453-11.261 22.675-42.952 35.305-68.41 22.661-31.06-15.419-35.118-50.759-25.026-71.087l21.645-43.587c0 .079.017.156.026.233h-.002Z" fill="#0A273D"/><path d="M410.057 0h193.458a19.985 19.985 0 0 1 19.963 19.963v76.968a3.326 3.326 0 0 1-3.327 3.327H410.057a19.988 19.988 0 0 1-19.963-19.964v-60.33A19.986 19.986 0 0 1 410.057 0Z" fill="#007171"/><path d="M572.954 41.227H440.615a5.504 5.504 0 0 1-5.506-5.506 5.505 5.505 0 0 1 5.506-5.507h132.337a5.508 5.508 0 0 1 5.506 5.507 5.509 5.509 0 0 1-5.506 5.506h.002Zm-44.068 30.286h-88.271a5.504 5.504 0 0 1-5.506-5.507 5.505 5.505 0 0 1 5.506-5.507h88.269a5.505 5.505 0 0 1 3.893 9.4 5.504 5.504 0 0 1-3.893 1.614h.002Z" fill="#A7D5C2"/><path d="M397.274 111.757a5.528 5.528 0 0 0-5.528-5.528h-46.531a5.528 5.528 0 0 0-5.525 5.528v46.531a5.526 5.526 0 0 0 5.525 5.527h46.531a5.528 5.528 0 0 0 5.528-5.527v-46.531Z" fill="#E83452"/><path d="M414.377 128.86a5.533 5.533 0 0 0-1.621-3.911 5.53 5.53 0 0 0-3.913-1.616h-46.524a5.528 5.528 0 0 0-5.528 5.527v46.531a5.52 5.52 0 0 0 1.619 3.908 5.519 5.519 0 0 0 3.909 1.617h46.524a5.526 5.526 0 0 0 5.527-5.525V128.86h.007Z" fill="#A7D5C2"/><path d="m134.294 330.948-101.86 15.087a19.395 19.395 0 0 1-22.18-11.792 19.392 19.392 0 0 1-1.283-8.933c.701-7.539 1.266-13.753 1.266-13.753l40.417-2.119 35.703-2.652.124 1.689a75.321 75.321 0 0 0 21.22-5.551l28.268-12.699a4.217 4.217 0 0 1 3.237-.019 4.22 4.22 0 0 1 2.318 5.51 4.212 4.212 0 0 1-2.275 2.3l-16.353 6.88 2.824.274c4.007.247 5.607.404 10.151.988l9.228.897a4.23 4.23 0 0 1 2.096 7.525 4.224 4.224 0 0 1-3.116.867l-2.131-.234a4.229 4.229 0 0 1 .005 8.147 4.21 4.21 0 0 1-1.645.123l-1.505-.182a5.271 5.271 0 0 1 .236 4.16 5.279 5.279 0 0 1-4.742 3.477l-.003.01Z" fill="#842306"/></svg>