<svg class="sinch-icon" xmlns="http://www.w3.org/2000/svg" viewBox="0 0 872 800" fill="none" aria-hidden="true" focusable="false"><path d="M766.796 4.923A4.923 4.923 0 0 0 761.863 0H38.918a4.923 4.923 0 0 0-4.923 4.923v420.356a4.925 4.925 0 0 0 4.923 4.922h722.945a4.92 4.92 0 0 0 4.92-4.922V4.923h.013Z" fill="#FCECCB"/><path d="M725.278 206.619c-5.753 5.102-45.188-4.226-45.191-11.915v-11.87a8.51 8.51 0 0 0-8.509-8.512 23.985 23.985 0 0 1-22.163-14.807 23.993 23.993 0 0 1-1.826-9.179v-41.001c0-18.142-.019-32.8 18.183-32.498 17.818.298 46.814 15.213 46.814 33.035v54.837a9.761 9.761 0 0 0 9.765 9.765h2.931l-.004 32.145Z" fill="#FFE1CC"/><path d="M647.707 106.981c0-10.295.741-18.599 11.127-18.229 9.886.351 9.884 8.776 9.884 18.667v41.245c0 31.422 29.934 39.23 55.829 39.23 21.223 0 38.219-18.969 38.219-37.875 0-14.969-9.708-30.237-24.175-36.727-6.79-3.043-11.563-9.504-12.022-16.932a20.37 20.37 0 0 0-4.579-11.76c-5.45-6.74-12.409-7.916-17.767-7.521a20.178 20.178 0 0 1-14.368-4.683c-4.993-4.173-13.101-8.578-24.446-7.477-22.694 2.201-33.688 28.451-17.697 42.512l-.005-.45Z" fill="#272727"/><path d="M217.685 87.405a5.719 5.719 0 0 0-3.535-5.288 5.72 5.72 0 0 0-2.191-.435h-48.175a5.724 5.724 0 0 0-5.723 5.723v48.175a5.725 5.725 0 0 0 5.723 5.723h48.175a5.717 5.717 0 0 0 4.049-1.675 5.721 5.721 0 0 0 1.677-4.048V87.405Z" fill="#FFBE3C"/><path d="M393.683 308.825a5.725 5.725 0 0 0-5.723-5.723h-48.178a5.716 5.716 0 0 0-4.047 1.676 5.73 5.73 0 0 0-1.676 4.047V357c0 .752.148 1.496.436 2.19a5.708 5.708 0 0 0 3.097 3.098 5.734 5.734 0 0 0 2.19.435h48.178a5.734 5.734 0 0 0 4.047-1.676 5.708 5.708 0 0 0 1.24-1.857 5.713 5.713 0 0 0 .436-2.19v-48.175Z" fill="#007171"/><path d="M111.962 87.405a5.734 5.734 0 0 0-1.675-4.047 5.72 5.72 0 0 0-4.046-1.676H58.054a5.724 5.724 0 0 0-5.723 5.723v48.175a5.724 5.724 0 0 0 5.723 5.723h48.187a5.713 5.713 0 0 0 4.046-1.676 5.73 5.73 0 0 0 1.675-4.047V87.405Z" fill="#E83452"/><path d="M619.794 99.507a5.733 5.733 0 0 0-1.677-4.046 5.711 5.711 0 0 0-4.047-1.675h-48.177a5.72 5.72 0 0 0-5.721 5.72v48.178a5.73 5.73 0 0 0 1.675 4.047 5.718 5.718 0 0 0 4.046 1.676h48.177a5.72 5.72 0 0 0 5.724-5.723V99.507Z" fill="#007171"/><path d="M632.931 214.618a5.725 5.725 0 0 0-5.723-5.723H579.03a5.725 5.725 0 0 0-5.723 5.723v48.178a5.725 5.725 0 0 0 5.723 5.723h48.178a5.728 5.728 0 0 0 5.723-5.723v-48.178Z" fill="#FFBE3C"/><path d="M280.352 394.246a5.7 5.7 0 0 1-5.701-5.701V51.261a5.702 5.702 0 0 1 11.403 0v337.284a5.712 5.712 0 0 1-1.67 4.032 5.702 5.702 0 0 1-4.032 1.669Zm240.493 0c-1.512 0-2.962-.6-4.032-1.669a5.704 5.704 0 0 1-1.669-4.032V51.261a5.701 5.701 0 1 1 11.402 0v337.284a5.7 5.7 0 0 1-5.701 5.701Z" fill="#fff"/><path d="M39.084 774.036c4.942-5.806 11.094-13.036 11.094-24.915v-1.897c0-.101.014-.2.017-.302V724.97a4.574 4.574 0 0 1 4.227 2.84c.228.557.343 1.154.34 1.756l-.022 6.798a19.036 19.036 0 0 1 35.64-.603v-6.216a4.568 4.568 0 0 1 4.567-4.567h.624v43.586c.709 9.697 2.66 15.592 2.743 15.815a11.726 11.726 0 0 1-11.062 15.631H43.726a11.74 11.74 0 0 1-8.294-3.435 11.718 11.718 0 0 1-3.435-8.295c0-5.904 3.442-9.951 7.087-14.235m167.525-47.498h20.675c4.194 0 8.708 3.401 10.109 7.593 2.177-3.762 5.96-6.393 10.911-7.271 1.918-.342 4.287 1.272 4.961 3.33l1.096 3.513c3.834 11.712 12.45 22.895 23.72 30.785 7.433 5.206 15.643 8.708 23.705 10.121l11.829 2.288c5.788 1.12 11.255 5.893 13.089 11.427 2.133 6.444-1.362 11.666-7.806 11.666h-29.083c-10.041 0-21.192-3.468-31.245-9.465-1.427-.851-2.782-.031-2.308 1.398l1.904 5.752c.423 1.28-.268 2.315-1.548 2.315h-26.211c-1.28 0-2.661-1.035-3.084-2.315l-22.612-68.295c-.521-1.57.331-2.842 1.898-2.842Z" fill="#272727"/><path d="m136.797 328.704 6.497-4.795.332-.016 139.793 407.241a11.46 11.46 0 0 1-10.844 15.186H197.03a11.459 11.459 0 0 1-10.841-7.741L120.74 547.92v186.544a11.475 11.475 0 0 1-11.463 11.466H32.469a11.475 11.475 0 0 1-11.465-11.466V391.288a70.643 70.643 0 0 1-.056-2.682c0-33.463 23.403-59.484 23.64-59.747l.148-.16 92.061.005Z" fill="#007171"/><path d="m249.646 228.551 21.415 12.436-43.369 70.047a28.58 28.58 0 0 1-25.048 13.516 28.57 28.57 0 0 1-24.298-14.825l-42.144-76.878a23.925 23.925 0 0 1 9.968-32.333c11.908-3.435 25.055-.833 32.334 9.968l30.865 58.371 40.277-40.302Z" fill="#842306"/><path d="M178.436 210.203a23.509 23.509 0 0 0-20.783-12.52H53.098a23.514 23.514 0 0 0-22.136 15.597 641182.47 641182.47 0 0 0-29.348 82.069l50.282-.924-9.712 36.55v.457l91.534.61h.048a6.536 6.536 0 0 0 6.176-4.417l18.207-53.197 4.453 8.42 46.999-13.696-31.165-58.949Z" fill="#A8D7E2"/><path d="m112.721 314.957-78.082 16.961a28.575 28.575 0 0 1-33.103-37.162l.048-.142 51.07-2.264 58.911.135a11.32 11.32 0 0 1 10.673 10.714 11.318 11.318 0 0 1-9.512 11.758h-.005Z" fill="#842306"/><path d="M118.473 294.716c-1.139-5.204-3.928-8.73-3.79-9.241.351-1.301 2.758-5.302 4.615-8.275a4.352 4.352 0 0 0-1.439-5.805c.012-.015 0-.015 0-.015a4.499 4.499 0 0 0-3.513-.585 4.49 4.49 0 0 0-2.832 2.16l-4.717 8.398a14.949 14.949 0 0 1-5.014 5.298 14.953 14.953 0 0 1-6.923 2.298l-6.681.484.743 9.687s30.664.726 29.542-4.414l.009.01Z" fill="#842306"/><path d="M201.277 251.412a5.544 5.544 0 0 0-2.713-6.729 5.546 5.546 0 0 0-2.538-.615h-64.735a5.564 5.564 0 0 0-5.237 3.713c-5.036 14.366-23.306 66.453-30.125 85.896a5.55 5.55 0 0 0 5.237 7.39h65.497a5.554 5.554 0 0 0 5.251-3.754c4.93-14.436 22.733-66.508 29.363-85.901Z" fill="#FFBE3C"/><path d="M153.799 285.616c4.113 0 5.598 3.331 3.336 7.431s-7.428 7.433-11.529 7.433c-4.1 0-5.597-3.331-3.335-7.433 2.261-4.103 7.428-7.431 11.528-7.431Z" fill="#fff"/><path d="M314.877 201.229a5.724 5.724 0 0 0-5.723-5.723h-48.177a5.713 5.713 0 0 0-4.046 1.676 5.714 5.714 0 0 0-1.675 4.047v48.178a5.71 5.71 0 0 0 1.675 4.046 5.718 5.718 0 0 0 4.046 1.677h48.177a5.713 5.713 0 0 0 4.047-1.677 5.734 5.734 0 0 0 1.241-1.856 5.738 5.738 0 0 0 .435-2.19v-48.178Z" fill="#FFBE3C"/><path d="M262.08 255.42c13.589-20.766-3.307-34.806-3.169-36.143.295-2.85 1.156-7.787 1.156-7.787 1.519-3.589.269-7.905-2.685-9.039-2.44-.939-4.886 1.137-6.405 4.724l-3.183 7.569a16.89 16.89 0 0 0-1.142 8.95c.75 5.171-1.422 9.288-6.681 14.271l-30.05 31.717c-2.709 2.801-3.372 6.171-.569 8.88l19.809 11.78a5.634 5.634 0 0 0 4.099 1.367 5.645 5.645 0 0 0 3.864-1.933" fill="#842306"/><path d="m483.299 217.564 13.401 5.702 5.718-1.935a9.574 9.574 0 0 1 11.785 5.058l3.805 8.246 11.025 4.685 5.547 35.781-25.375-10.781s-5.043 3.229-17.019-1.861l-10.416-4.426a9.791 9.791 0 0 1-5.8-10.82l3.432-18.72-.639-.271a5.788 5.788 0 0 1-3.613-5.39 5.778 5.778 0 0 1 1.751-4.116 5.775 5.775 0 0 1 4.162-1.637 5.774 5.774 0 0 1 2.226.5" fill="#FFE1CC"/><path d="M504.314 208.573a5.725 5.725 0 0 0-5.723-5.723h-48.175a5.724 5.724 0 0 0-5.723 5.723v48.175a5.724 5.724 0 0 0 5.723 5.723h48.175a5.72 5.72 0 0 0 5.723-5.723v-48.175Z" fill="#E83452"/><path d="M280.79 238.904a5.458 5.458 0 0 1-2.083-.414 5.453 5.453 0 0 1-1.765-1.18l-7.741-7.741a5.445 5.445 0 0 1 .003-7.697 5.44 5.44 0 0 1 7.697.003l3.884 3.885 12.439-12.438a5.422 5.422 0 0 1 3.848-1.594 5.436 5.436 0 0 1 5.028 3.359 5.437 5.437 0 0 1-1.179 5.932l-16.287 16.286a5.438 5.438 0 0 1-3.844 1.599Z" fill="#fff"/><path d="M803.564 737.285c3.71 9.028 10.002 17.307 18.141 23.652 7.339 5.726 15.81 9.582 24.456 11.127l12.646 2.518c6.19 1.234 11.436 6.483 12.561 12.579 1.311 7.09-3.386 12.837-10.464 12.837h-99.27a3.206 3.206 0 0 1-3.019-2.547l-8.667-57.128m-153.043-3.038c-3.783 9.028-10.144 17.308-18.33 23.652-7.387 5.726-15.89 9.582-24.547 11.127l-12.675 2.523c-6.2 1.234-11.49 6.483-12.666 12.579-1.369 7.09 3.268 12.837 10.358 12.837h99.26a3.24 3.24 0 0 0 3.038-2.547l9.141-57.128" fill="#0A273D"/><path d="m682.891 375.157-.044-.288 92.756-6.599s48.054 325.958 56.462 382.982a7.413 7.413 0 0 1-1.713 5.917 7.417 7.417 0 0 1-5.592 2.585l-78.131.37a7.416 7.416 0 0 1-7.372-6.328l-39.78-267.207-39.326 267.628a7.423 7.423 0 0 1-7.342 6.343h-78.764a7.417 7.417 0 0 1-5.624-2.577 7.428 7.428 0 0 1-1.718-5.943l55.805-375.057 60.381-1.829.002.003Z" fill="#A7D5C2"/><path d="M472.341 224.064c-.764-.559-1.536-1.311-1.901-2.201a5.175 5.175 0 0 1 0-3.96 5.178 5.178 0 0 1 6.773-2.784l22.641 9.373 4.925 1.916L518 234.632l11.026 4.686 5.554 35.783-23.011-9.777a6.653 6.653 0 0 0-4.161-.346c-2.397.573-7.291.854-15.222-2.518l-23.401-9.865a5.178 5.178 0 0 1-1.001-8.998l-2.975-1.243a5.174 5.174 0 0 1-2.782-6.773 5.181 5.181 0 0 1 2.808-2.794c.968-.187 1.12-.051 1.42-.114-1.209-.539-2.552-1.867-3.06-3.101a5.18 5.18 0 0 1 0-3.962 5.18 5.18 0 0 1 6.773-2.782l2.373 1.236Z" fill="#FFE1CC"/><path d="m776.803 377.169-6.062-39.936a29.243 29.243 0 0 0 27.973-21.46 29.248 29.248 0 0 0 .67-12.499l-12.492-76.31a46.497 46.497 0 0 0-45.884-38.985h-87.823a46.503 46.503 0 0 0-40.912 24.402l-27.234 50.434-58.86-24.748v47.769l59.368 27.737a38.929 38.929 0 0 0 48.574-13.236l-11.434 76.921 154.116-.091v.002Z" fill="#12364C"/><path d="M411.331 87.405a5.723 5.723 0 0 0-5.723-5.723h-48.177a5.72 5.72 0 0 0-5.721 5.723v48.175a5.719 5.719 0 0 0 5.721 5.723h48.177a5.724 5.724 0 0 0 5.723-5.723V87.405Z" fill="#E83452"/><path d="M429.04 105.111a5.718 5.718 0 0 0-3.538-5.29 5.72 5.72 0 0 0-2.192-.433h-48.171a5.724 5.724 0 0 0-5.723 5.723v48.178a5.722 5.722 0 0 0 5.723 5.723h48.171a5.725 5.725 0 0 0 5.723-5.723v-48.178h.007Z" fill="#A7D5C2"/><path d="M139.047 314.352 33.582 329.973a20.073 20.073 0 0 1-22.965-12.21 20.077 20.077 0 0 1-1.328-9.25l1.31-14.238 41.848-2.194 36.966-2.748.128 1.749a78.022 78.022 0 0 0 21.971-5.745l29.269-13.151a4.373 4.373 0 0 1 6.075 4.011 4.373 4.373 0 0 1-2.689 4.058l-16.932 7.124 2.924.285c4.149.257 5.806.416 10.511 1.021l9.554.931a4.383 4.383 0 0 1 3.689 3.171c.155.554.198 1.133.128 1.703a4.362 4.362 0 0 1-1.646 2.917 4.367 4.367 0 0 1-3.228.898l-2.206-.242a4.375 4.375 0 0 1 1.529 7.663 4.38 4.38 0 0 1-3.227.9l-1.558-.191a5.465 5.465 0 0 1-.185 5.222 5.465 5.465 0 0 1-4.481 2.688l.008.007Zm-24.921-94.473c7.035 4.207 15.738-1.867 14.221-9.917-1.159-6.147-2.177-11.502-2.344-12.436a9.071 9.071 0 0 1 7.233-10.597 25.578 25.578 0 0 0 16.377-10.714 25.572 25.572 0 0 0 4.005-19.157l-8.111-42.96a34.64 34.64 0 0 0-27.389-27.572 34.639 34.639 0 0 0-13.662.071c-18.607 3.837-30.452 22.254-26.928 40.914l6.323 33.482 4.524 23.962a10.402 10.402 0 0 1-8.297 12.16l-3.07.581 37.118 22.183Z" fill="#842306"/><path d="M83.758 99.967a19.928 19.928 0 0 1 1.884-2.361 34.404 34.404 0 0 0-1.884 2.36Zm2.178-2.688c-.062.068-.128.135-.188.203.012 0 .02-.024.031-.034l.157-.17Zm.207-.223-.206.223.206-.223Zm-.501.55.106-.124c-.036.041-.068.083-.106.124Z" fill="#272727"/><path d="M83.757 99.966c-4.24 6.251-3.616 13.401.397 18.164 5.053 6.001 13.045 5.67 17.085 4.908.225-.044 3.768-.706 7.329-1.367a5.137 5.137 0 0 1 5.98 4.098l1.935 10.275-6.805 1.287-.179-.946c-.667-3.534-3.916-6.117-7.486-5.679a6.759 6.759 0 0 0-5.778 5.213 6.755 6.755 0 0 0-.05 2.745l1.868 9.891a16.419 16.419 0 0 1-12.939 19.151l-7.586-40.193a35.485 35.485 0 0 1 6.23-27.547Zm72.654 41.299a1.887 1.887 0 0 0 1.215-.795 1.903 1.903 0 0 0 .295-1.421l-3.87-20.452a1.896 1.896 0 0 0-3.726.704l3.871 20.452a1.9 1.9 0 0 0 2.215 1.512Z" fill="#272727"/><path d="m153.772 127.311-44.404 8.382.703 3.725 44.404-8.383-.703-3.724ZM110.15 85.91a34.668 34.668 0 0 1 28.749 13.464A22.852 22.852 0 0 1 110.15 85.91Z" fill="#272727"/><path d="M669.812 116.894h-.003a6.06 6.06 0 0 0-6.059 6.059v6.737a6.059 6.059 0 0 0 6.059 6.059h.003a6.059 6.059 0 0 0 6.059-6.059v-6.737a6.06 6.06 0 0 0-6.059-6.059Z" fill="#FFE1CC"/></svg>