<svg class="sinch-icon" xmlns="http://www.w3.org/2000/svg" viewBox="0 0 364 400" fill="none" aria-hidden="true" focusable="false"><path d="M77.37 289.991a28.536 28.536 0 0 0 1.428-16.594 18569.848 18569.848 0 0 0-9.504-40.971c-1.477-6.401 2.019-12.852 8.125-15.166 7.09-2.709 15.068.837 17.826 7.928 5.663 14.674 14.477 37.424 16.89 43.137.148.393.493.689.936.837.443.147.886.049 1.231-.197.591-.394 1.379-.296 1.822.246 1.674 2.068 5.712 7.091 9.405 12.409l38.016 24.228s-25.705 65.049-35.16 88.932a8.465 8.465 0 0 1-4.875 4.777 8.21 8.21 0 0 1-6.795-.443c-15.315-8.027-47.963-25.065-61.997-32.451-3.792-1.97-5.466-6.55-3.89-10.538 6.057-15.019 20.09-50.08 26.542-66.134Z" fill="#894915"/><path d="m113.514 196.775-36.686 14.576s35.11 88.39 50.671 127.588c4.038 10.144 15.512 15.068 25.656 11.079 10.144-4.037 15.068-15.511 11.079-25.655-15.61-39.197-50.72-127.588-50.72-127.588Z" fill="#272727"/><path d="M254.447 105.429c-2.56 1.034-3.841 3.939-2.806 6.5 1.034 2.561 3.939 3.841 6.5 2.807 15.659-6.205 66.182-26.296 81.792-32.5 2.561-1.034 3.841-3.94 2.807-6.5-1.034-2.561-3.94-3.841-6.5-2.807-15.659 6.204-66.183 26.295-81.793 32.5Zm16.447 44.811c-2.757-.394-4.628-2.954-4.234-5.712.393-2.758 2.954-4.629 5.712-4.235a53288.797 53288.797 0 0 0 87.11 12.754c2.758.394 4.629 2.955 4.235 5.712-.394 2.758-2.954 4.629-5.712 4.235a53289.982 53289.982 0 0 1-87.111-12.754Zm-31.121-79.281c-1.724 2.167-1.33 5.318.837 7.042 2.167 1.723 5.318 1.33 7.042-.837l54.61-69.039c1.724-2.167 1.33-5.318-.837-7.042-2.167-1.723-5.318-1.33-7.042.837l-54.61 69.039Z" fill="#FFBE3C"/><path d="M250.705 200.271c-43.334-14.773-90.509-13.64-133.054 3.25a48697.472 48697.472 0 0 1-70.22 27.871c-17.728 7.042-37.869-1.625-44.91-19.352 0-.049-.05-.099-.05-.148-7.041-17.727 1.625-37.868 19.353-44.909 19.845-7.879 46.091-18.319 70.22-27.872 42.595-16.841 77.706-48.356 99.077-88.883l59.584 150.043Z" fill="#272727"/><path d="M200.625 46.042c-.739-1.92-2.265-3.447-4.137-4.235-1.871-.837-4.038-.837-5.909-.098-1.92.738-3.447 2.265-4.235 4.136-.837 1.871-.837 4.038-.098 5.91 10.784 27.181 48.997 123.451 59.781 150.633.738 1.921 2.265 3.447 4.136 4.235 1.871.837 4.038.837 5.909.099 1.921-.739 3.447-2.266 4.235-4.137.837-1.871.837-4.038.099-5.909-10.785-27.182-48.997-123.452-59.781-150.634Zm-86.569 83.664a7.645 7.645 0 0 0-9.898-4.284A35983.181 35983.181 0 0 0 38.37 151.57c-3.94 1.575-5.811 6.007-4.284 9.947a36538.794 36538.794 0 0 0 26.147 65.788 7.644 7.644 0 0 0 9.898 4.284 36012.091 36012.091 0 0 0 65.789-26.148 7.645 7.645 0 0 0 4.284-9.897 26139.162 26139.162 0 0 0-26.148-65.838Z" fill="#007171"/><path d="M116.173 277.287c-3.201.098-6.451-.985-8.962-3.349-5.121-4.727-4.924-11.178-.739-17.875l12.754-18.22-.049-.049 13.887-20.091c3.151-6.205 10.784-8.716 16.988-5.565 6.205 3.152 8.716 10.785 5.565 16.989-.197.394-.443.788-.64 1.133l-2.216 3.496a12.224 12.224 0 0 1 7.386 1.28c6.205 3.152 8.716 10.785 5.565 16.989-.197.394-.444.788-.641 1.133l-3.89 6.057c1.428.147 2.906.591 4.284 1.28 6.205 3.151 8.716 10.784 5.565 16.989-.197.394-.443.788-.64 1.132l-3.694 5.712c.985.197 1.97.542 2.906 1.035 6.254 3.102 8.863 10.685 5.761 16.939-.197.394-.394.788-.64 1.133l-7.386 11.966c-3.891 7.879-7.091 14.083-7.091 14.083-.197.394-.444.788-.641 1.133-3.791 5.86-11.67 7.485-17.481 3.693-5.417-3.545-7.238-10.489-4.432-16.152-3.447.296-6.943-.788-9.701-3.299-3.791-3.496-4.678-7.977-3.151-12.754-3.644.493-7.436-.542-10.341-3.201-5.121-4.727-4.924-11.178-.739-17.875l2.413-3.742Z" fill="#894915"/></svg>