<svg class="sinch-icon" xmlns="http://www.w3.org/2000/svg" viewBox="0 0 63 100" fill="none" aria-hidden="true" focusable="false"><path d="m49.818 87.273-42.424-.606L0 11.273 44 .12c2.91-.848 5.818 1.334 5.818 4.364v82.788Z" fill="#666"/><path d="M56.242 100H2.182A2.173 2.173 0 0 1 0 97.818V11.273h56.242c3.273 0 6.061 2.666 6.061 6.06V93.94c0 3.394-2.667 6.061-6.06 6.061Z" fill="#CCC"/><path d="M52.97 61.576H9.333c-.848 0-1.454.727-1.454 1.454v.606c0 .849.727 1.455 1.454 1.455H52.97c.848 0 1.454-.727 1.454-1.455v-.606c0-.727-.606-1.454-1.454-1.454Z" fill="#F2F2F2"/><path d="M33.576 41.455c.484-.728.727-1.576.363-2.546-.242-.97-1.09-1.697-2.06-1.94a3.007 3.007 0 0 0-3.758 2.91c0 .606.242 1.212.485 1.697.242.242 0 .606-.243.727A20.023 20.023 0 0 0 11.03 62.182h40.243a20.023 20.023 0 0 0-17.334-19.879c-.363-.242-.606-.606-.363-.848Z" fill="#F2F2F2"/></svg>