<svg class="sinch-icon" xmlns="http://www.w3.org/2000/svg" viewBox="0 0 588 800" fill="none" aria-hidden="true" focusable="false"><path d="M416.443 187.186a4.526 4.526 0 0 0-5.836 1.248 29.021 29.021 0 0 0-3.312 5.34 25.339 25.339 0 0 0-2.037 6.423 29.495 29.495 0 0 0 .917 13.048l.413 1.441.386 1.294c.213.707.382 1.427.504 2.156.268 1.464.367 2.954.294 4.441 0 .487-.064.973-.119 1.459a11.327 11.327 0 0 0-13.324 3.294l-69.644 86.656a24.7 24.7 0 0 0-2.688 4.203 23.287 23.287 0 0 0 10.093 31.042c11.58 6.056 26.059.972 31.886-10.718l48.017-96.226a90.162 90.162 0 0 0 2.496-5.561l.486-1.202a37.28 37.28 0 0 0 2.817-12.479 29.257 29.257 0 0 0-.477-6.625 27.766 27.766 0 0 0-.78-3.23l-.817-2.587a21.73 21.73 0 0 1-1.018-8.91 19.873 19.873 0 0 1 3.174-8.258l.056-.073c.318-.501.532-1.06.63-1.644a4.42 4.42 0 0 0-2.117-4.532Z" fill="#FFE1CC"/><path d="m317.161 775.299-11.46-2.377a42.437 42.437 0 0 1-34.712-41.896l.073-3.671a3.93 3.93 0 0 0-1.386-3 3.735 3.735 0 0 0-3.018-.863l-43.026-.33a3.358 3.358 0 0 0-3.349 3.349v70.654c0 .745.296 1.459.823 1.985.526.527 1.24.823 1.985.823h27.114a2.808 2.808 0 0 0 2.808-2.808v-5.946a1.356 1.356 0 0 1 .762-1.239 1.383 1.383 0 0 1 1.45.119 49.55 49.55 0 0 0 29.362 9.874h30.088a12.478 12.478 0 0 0 2.532-24.702l-.046.028Zm-195.738-51.165a2.505 2.505 0 0 0-2.028-.917l-41.566.312c-2.028-.349-4.46 1.294-5.102 3.459l-.917 3.368c-3.377 11.442-11.608 22.581-22.591 30.573-7.166 5.212-13.14 8.58-22.462 10.351l-4.304.798c-5.505 1-7.13 1.303-10.635 2.945-6.579 3.084-8.717 5.304-10.9 11.47-1.377 3.826-1.129 7.497.679 10.094A8.466 8.466 0 0 0 8.8 800h30.307c10.424 0 21.967-3.762 32.528-10.607a1.364 1.364 0 0 1 1.541-.129 1.083 1.083 0 0 1 .285 1.239l-1.835 6.423a2.598 2.598 0 0 0 .33 2.285 2.108 2.108 0 0 0 1.743.816h27.345a3.845 3.845 0 0 0 3.441-2.899l17.314-70.654a2.568 2.568 0 0 0-.376-2.34Z" fill="#0A273D"/><path d="M304.581 182.305c-2.092-5.368-3.9-10.011-2.817-13.461l3.23-9.341-67.644-26.656-.147.413c-6.753 19.682-15.782 26.821-23.04 32.565-5.221 4.129-11.011 7.827-16.517 11.405a1348.22 1348.22 0 0 0-5.358 3.469c-8.69 5.707-14.581 12.341-17.499 19.728-2.477 6.249-1.569 16.847 6.277 25.353l.119.128 119.285 5.056h.303l6.836-19.407c4.056-11.011.128-21.123-3.028-29.252Z" fill="#842306"/><path d="M342.339 352.075a23.948 23.948 0 0 1-21.186-12.764l-50.651-95.795a23.968 23.968 0 1 1 42.392-22.379l50.651 95.786a23.977 23.977 0 0 1-21.178 35.18l-.028-.028Z" fill="#FFE1CC"/><path d="M312.894 221.137a24.022 24.022 0 0 0-42.465 22.453l29.17 55.174 42.465-22.453-29.17-55.174Z" fill="#059688"/><path d="M291.909 208.291H187.526l-11.296 61.294v73.479l91.703-.201h.046a6.549 6.549 0 0 0 6.194-4.423l23.352-68.25-5.616-61.899Z" fill="#059688"/><path d="M312.546 122.121a34.969 34.969 0 0 0-26.408-26.693 35.114 35.114 0 0 0-41.236 22.774l-9.534 27.528a35.183 35.183 0 0 0 2.442 28.527 35.199 35.199 0 0 0 22.837 17.269 35.62 35.62 0 0 0 8.048.918 35.118 35.118 0 0 0 33.188-23.692l9.534-27.527a35.072 35.072 0 0 0 1.129-19.104Z" fill="#FFE1CC"/><path d="m271.126 342.624-.138-.156h-91.023L48.632 721.492a10.809 10.809 0 0 0 10.221 14.323h71.223a10.814 10.814 0 0 0 10.222-7.34l59.028-171.945v168.476a10.817 10.817 0 0 0 10.8 10.809h72.415a10.829 10.829 0 0 0 10.809-10.809V400.982c0-.67.055-1.331.055-2.01.009-31.574-22.059-56.11-22.279-56.348Z" fill="#FFBE3C"/><path d="M126.892 344.854a24.023 24.023 0 0 1-19.866-37.465l59.973-88.546a24.012 24.012 0 0 1 15.377-10.38 24.01 24.01 0 0 1 18.186 3.67 24.019 24.019 0 0 1 9.997 24.99 24.029 24.029 0 0 1-3.792 8.669l-59.954 88.519a23.995 23.995 0 0 1-19.921 10.543Z" fill="#FFE1CC"/><path d="M312.591 122.112a35.008 35.008 0 0 0-26.435-26.684c-18.278-4.248-37.768 5.643-43.447 22.022l-11.865 33.831c-2.413 6.992-3.936 17.737-3.872 27.381.083 11.681 2.404 20.379 6.552 24.49l.55.56 17.434-58.468-.495-.11a9.595 9.595 0 0 1-6.341-4.478 9.813 9.813 0 0 1-.688-7.882c2.184-7.056 9.882-8.442 24.949-4.496 14.259 3.725 23.407 3.211 29.996-10.094.468 4.432 2.679 15.599 13.048 19.269l.514.184.11-.532a36.813 36.813 0 0 0-.01-14.993Z" fill="#842306"/><path d="M286.752 170.495c-1.077 0-2.151-.12-3.202-.358a14.846 14.846 0 0 1-9.01-6.193 1.668 1.668 0 0 1 1.717-2.383c.4.051.768.246 1.035.548a11.378 11.378 0 0 0 15.296 3.45 1.686 1.686 0 0 1 1.312-.267 1.67 1.67 0 0 1 1.09.778 1.673 1.673 0 0 1 .175 1.328 1.686 1.686 0 0 1-.852 1.033 14.88 14.88 0 0 1-7.561 2.064Z" fill="#842306"/><path d="M132.315 344.863 91.024 465.066a15.69 15.69 0 0 0 14.828 20.783h.147l88.858-.78a25.743 25.743 0 0 0 24.077-17.342l42.071-122.295.193-.551-128.883-.018Zm174.294-131.37a23.3 23.3 0 0 0-3.67-2.404l-.422-.211-43.595 123.928 5.02.743 42.795-121.597.092-.275-.22-.184Z" fill="#0A273D"/><path d="M410.717 165.687h-34.51a6.021 6.021 0 0 0-5.698 4.092l-20.911 61.864a5.999 5.999 0 0 0 .81 5.432 6.02 6.02 0 0 0 4.888 2.505h34.556a6.035 6.035 0 0 0 5.707-4.093l20.866-61.863a6.015 6.015 0 0 0-.819-5.432 6.028 6.028 0 0 0-4.889-2.505Z" fill="#12364C"/><path d="M200.399 212.447a24.015 24.015 0 0 0-18.022-3.738 24.02 24.02 0 0 0-15.378 10.115l-35.648 52.587 39.741 26.986 35.657-52.587a24.024 24.024 0 0 0-6.35-33.363Z" fill="#059688"/><path d="m407.451 207.492-24.922-16.636a4.022 4.022 0 0 0-5.606.936 4.02 4.02 0 0 0 .936 5.607l13.415 10.231-19.902.798a4.591 4.591 0 0 0-4.138 3.336 4.585 4.585 0 0 0 1.789 5.005h-.835a4.41 4.41 0 0 0-4.225 3.947 4.409 4.409 0 0 0 3.307 4.742l-1.413.065a4.127 4.127 0 0 0-4.028 4.23 4.13 4.13 0 0 0 4.23 4.028h19.939a5.333 5.333 0 0 1 4.331 2.218 5.337 5.337 0 0 1 .734 4.81h17.434l1.083-30.28a4.968 4.968 0 0 0-2.129-3.037ZM128.03 303.517l109.669 14.396a13.563 13.563 0 0 1-1.78 27.014l-110.605-.119a20.738 20.738 0 0 1 0-41.475c.908.004 1.815.065 2.716.184Zm141.234-95.227a7.93 7.93 0 0 1-7.855-7.918 7.82 7.82 0 0 1 2.295-5.64 7.826 7.826 0 0 1 5.642-2.288h.459L250.93 148.4l-12.396 39.456c-4.038 12.341-14.681 20.333-27.298 20.462h-4.588v.459c0 18.59 14.856 33.702 33.115 33.702 18.26 0 33.125-15.112 33.125-33.702v-.487h-3.624Z" fill="#FFE1CC"/><path d="M281.44 307.884a7.158 7.158 0 0 0-5.873-3.019h-10.029l-4.184-2.826a8.6 8.6 0 0 0-10.947 1.101l-15.094 15.351-3.166 25.821a.392.392 0 0 0 .056.376c.037.055.088.1.147.13.06.03.125.046.192.045h34.299a7.22 7.22 0 0 0 6.827-4.882l8.744-25.564a7.154 7.154 0 0 0-.972-6.533Z" fill="#FFE1CC"/><path d="M506.503 354.186v-37.961a24.9 24.9 0 0 0-24.903-24.903h-73.121v62.864a24.904 24.904 0 0 0 24.903 24.903h48.255a24.904 24.904 0 0 0 24.866-24.903Z" fill="#fff"/><path d="M481.307 327.667a13.69 13.69 0 0 0-24.729-6.193 13.662 13.662 0 1 0-21.187 17.158l18.186 18.15a4.315 4.315 0 0 0 6.084 0l17.663-17.636.496-.504a13.624 13.624 0 0 0 3.487-10.975Z" fill="#E83452"/><path d="M562.604 166.183H438.006v82.04a24.903 24.903 0 0 0 24.903 24.903h99.695a24.913 24.913 0 0 0 24.912-24.903v-57.137a24.912 24.912 0 0 0-24.912-24.903Z" fill="#fff"/><path d="M474.663 246.269h71.81a6.321 6.321 0 0 0 6.322-6.322V197.38a6.322 6.322 0 0 0-6.322-6.322h-71.81a6.323 6.323 0 0 0-6.322 6.322v42.567a6.322 6.322 0 0 0 6.322 6.322Z" fill="#059688"/><path d="M531.828 210.529h9.938a2.734 2.734 0 0 0 2.734-2.734v-5.313a2.734 2.734 0 0 0-2.734-2.734h-9.938a2.734 2.734 0 0 0-2.734 2.734v5.313a2.734 2.734 0 0 0 2.734 2.734Z" fill="#FFBE3C"/><path d="M504.733 199.784h-26.161c-.75 0-1.358.608-1.358 1.358v1.294c0 .75.608 1.358 1.358 1.358h26.161c.75 0 1.358-.608 1.358-1.358v-1.294c0-.75-.608-1.358-1.358-1.358Zm-13.415 6.836h-12.746c-.75 0-1.358.608-1.358 1.358v1.294c0 .75.608 1.358 1.358 1.358h12.746c.75 0 1.358-.608 1.358-1.358v-1.294c0-.75-.608-1.358-1.358-1.358Zm61.477 18.169h-84.454v11.983h84.454v-11.983Z" fill="#007171"/><path d="M550.584 261.079c8.716 0 15.782-7.066 15.782-15.783 0-8.716-7.066-15.782-15.782-15.782-8.717 0-15.782 7.066-15.782 15.782 0 8.717 7.065 15.783 15.782 15.783Z" fill="#007171"/><path d="M548.308 252.71a1.834 1.834 0 0 1-1.303-.541l-6.028-6.028a1.836 1.836 0 1 1 2.597-2.597l4.734 4.734 9.644-9.643a1.836 1.836 0 0 1 2.588 2.596l-10.91 10.938a1.832 1.832 0 0 1-1.322.541Z" fill="#F2F2F2"/><path d="M543.592 0H426.39a25.288 25.288 0 0 0-25.289 25.288v123.617h142.491a25.293 25.293 0 0 0 25.307-25.289V25.288A25.289 25.289 0 0 0 543.592 0Z" fill="#fff"/><path d="m537.701 21.875 2.184-2.184a1.967 1.967 0 0 0-.171-2.581 1.965 1.965 0 0 0-2.582-.171l-2.184 2.165-2.183-2.193a1.966 1.966 0 0 0-2.582.171 1.96 1.96 0 0 0-.171 2.582l2.193 2.184-2.193 2.193a1.965 1.965 0 0 0-.645 2.25 1.97 1.97 0 0 0 1.968 1.268 1.96 1.96 0 0 0 1.43-.766l2.183-2.138 2.193 2.184a1.965 1.965 0 0 0 2.137.43c.238-.1.454-.246.634-.43a1.946 1.946 0 0 0 0-2.752l-2.211-2.212ZM433.354 66.451l2.184-2.22a1.967 1.967 0 0 0-.171-2.582 1.965 1.965 0 0 0-2.582-.171l-2.193 2.193-2.202-2.193a1.964 1.964 0 0 0-2.753 2.753l2.193 2.193-2.193 2.193a1.962 1.962 0 0 0-.195 2.948 1.97 1.97 0 0 0 1.518.57 1.966 1.966 0 0 0 1.43-.766l2.184-2.193 2.193 2.193a1.963 1.963 0 0 0 2.753-2.752l-2.166-2.166Zm85.408 39.245 2.184-2.193a1.968 1.968 0 0 0 .645-2.251 1.968 1.968 0 0 0-1.968-1.268 1.96 1.96 0 0 0-1.43.766L516 102.943l-2.156-2.211a1.971 1.971 0 0 0-1.43-.766 1.966 1.966 0 0 0-2.089 2.089 1.958 1.958 0 0 0 .766 1.429l2.193 2.193-2.193 2.193a1.961 1.961 0 0 0-.766 1.43 1.96 1.96 0 0 0 1.268 1.968 1.964 1.964 0 0 0 2.251-.645l2.184-2.193 2.193 2.193a1.96 1.96 0 0 0 3.397-.502c.099-.262.14-.542.121-.821a1.952 1.952 0 0 0-.766-1.43l-2.211-2.174Zm13.131-61.12-2.221-2.22c-16.002-15.994-29.059-18.747-35.418-18.967a4.798 4.798 0 0 0-4.873 5.69l1.331 6.9.238 1.367a14.813 14.813 0 0 1-3.572 11.948 14.82 14.82 0 0 1-11.43 4.99l-11.433-.147c-2.276 0-4.588.248-5.9 1.68-.918.917-1.276 2.358-1.165 4.275.825 14.397-7.13 34.08-21.839 54a9.77 9.77 0 0 0 1.66 13.171 9.773 9.773 0 0 0 13.26-.637l81.371-81.37a.489.489 0 0 0 0-.68h-.009Z" fill="#FFBE3C"/><path d="M507.036 54.247a2.302 2.302 0 0 1-2.243-2.742 2.3 2.3 0 0 1 .618-1.176l8.956-8.955a2.293 2.293 0 1 1 3.239 3.248l-8.946 8.946a2.298 2.298 0 0 1-1.624.68Z" fill="#FCECCB"/><path d="m472.232 69.387-14.507-.22a2.292 2.292 0 0 1-1.622-3.916 2.292 2.292 0 0 1 1.622-.672l14.516.22a2.294 2.294 0 0 1 0 4.588h-.009Zm-5.396 10.818-11.405-.229a2.303 2.303 0 0 1-1.609-.704 2.29 2.29 0 0 1-.639-1.636 2.265 2.265 0 0 1 .699-1.614 2.271 2.271 0 0 1 1.641-.634l11.405.23a2.29 2.29 0 0 1 2.271 2.316 2.291 2.291 0 0 1-2.317 2.271h-.046Zm-5.294 10.635-10.093-.284a2.294 2.294 0 1 1 .064-4.588h.073l10.094.294a2.293 2.293 0 1 1-.065 4.588l-.073-.01Z" fill="#fff"/><path d="m537.609 50.31-8.313-8.322-87.363 87.39.991.101c.327.023.655.023.982 0 4.276 0 22.022-1.835 48.705-28.536l44.961-44.962a3.996 3.996 0 0 0 .037-5.67Z" fill="#CCC"/><path d="m490.657 73.865-5.827-5.047a2.89 2.89 0 0 0-3.808 0l-5.836 5.084a2.884 2.884 0 0 0-.991 2.183v17.05a2.9 2.9 0 0 0 2.9 2.899h11.662a2.908 2.908 0 0 0 2.9-2.9V76.05a2.889 2.889 0 0 0-1-2.184Z" fill="#fff"/><path d="M482.922 70.819a1.212 1.212 0 0 1-1.193-1.212v-6.734a1.218 1.218 0 0 1 2.04-.794c.225.206.365.49.391.794v6.735a1.217 1.217 0 0 1-1.238 1.21Z" fill="#005454"/><path d="M488.152 78.334h-10.47a1.219 1.219 0 0 1-.93-2.116 1.224 1.224 0 0 1 .93-.316h10.47a1.223 1.223 0 0 1 1.115 1.216 1.222 1.222 0 0 1-1.115 1.216Zm0 4.726h-10.47a1.21 1.21 0 0 1 0-2.423h10.47a1.21 1.21 0 0 1 0 2.422Z" fill="#FCECCB"/></svg>