<svg class="sinch-icon" xmlns="http://www.w3.org/2000/svg" viewBox="0 0 1019 800" fill="none" aria-hidden="true" focusable="false"><path d="M473.524 252.933 354.07 495.201l-61.593-199.713 181.047-42.555Z" fill="#272727"/><path d="M518.057 136.41a96.184 96.184 0 0 0-58.49-85.49 96.174 96.174 0 0 0-102.15 17.173 91.325 91.325 0 0 1-51.42 23.68 96.189 96.189 0 0 0-72.035 46.466 86.117 86.117 0 0 1-47.597 37.542 148.315 148.315 0 0 0-74.028 54.454 145.767 145.767 0 0 0-27.22 90.137c0 27.71 14.25 63.095 36.308 90.151 27.324 33.526 64.182 52.059 103.747 52.059 2.35.105 4.7.149 7.035.149A147.147 147.147 0 0 0 370.923 266.87a96.18 96.18 0 0 0 30.268-33.526 97.157 97.157 0 0 0 20.824 2.276 96.19 96.19 0 0 0 96.042-99.21Z" fill="#272727"/><path d="M622.963 361.826a149.807 149.807 0 0 0 10.412-18.147 16.689 16.689 0 0 0-5.474-21.403 16.253 16.253 0 0 0-23.486 6.589 102.922 102.922 0 0 1-29.331 37.334 45.294 45.294 0 0 0-15.886 44.324 31.784 31.784 0 0 1-1.19 17.329l-66.784 134.386-104.818-132.631-58.574-72.794-85.882 131.635 216.834 232.734a50.356 50.356 0 0 0 46.158 15.163 50.368 50.368 0 0 0 37.493-30.899l1.577-3.957 97.068-243.607-18.117-96.056Z" fill="#842306"/><path d="M606.825 419.865a16.078 16.078 0 0 1-6.947-1.488 16.262 16.262 0 0 1-9.314-15.545c.11-2.14.642-4.237 1.565-6.171l76.408-161.651a16.26 16.26 0 0 1 21.513-7.478 16.257 16.257 0 0 1 7.878 21.37l-76.393 161.622a16.275 16.275 0 0 1-14.71 9.341Z" fill="#0A273D"/><path d="m694.522 348.231-18.087-36.367a12.883 12.883 0 0 0-15.885-6.604 12.497 12.497 0 0 0-4.354 2.809 12.51 12.51 0 0 0-3.693 9.442 12.533 12.533 0 0 0 1.294 5.018l4.299 8.641a12.43 12.43 0 0 0-10.978-.223c-6.306 2.975-8.716 11.052-5.667 17.314l3.957 8.151a12.482 12.482 0 0 0-10.843-.164c-6.232 2.975-8.687 10.947-5.742 17.194l3.868 8.196a12.426 12.426 0 0 0-11.9.565 12.871 12.871 0 0 0-4.7 16.228l11.617 26.119-5.266 16.777 11.751 32.396a27.23 27.23 0 0 1 16.123-15.945 59.06 59.06 0 0 0 20.868-13.083 59.064 59.064 0 0 0 13.715-20.458l11.616-28.974a57.223 57.223 0 0 0-1.993-47.032Z" fill="#842306"/><path d="m327.818 356.843 58.588 72.793-67.572 133.896-25.628-192.336 34.612-14.353Z" fill="#FFD03C"/><path d="M412.674 719.115V569.839a145.639 145.639 0 0 0-12.762-59.585L337.53 371.285c-10.412-12.97-9.846-28.082-6.113-35.697l-88.56-47.865-3.793 7.75c-8.359 17.045-22.623 30.09-38.672 40.159-16.481 10.293-26.774 23.293-36.769 43.269l-24.17 49.709L22.126 687.18a61.165 61.165 0 0 0 26.417 78.987 61.16 61.16 0 0 0 29.287 7.461h261.872l72.972-54.513Z" fill="#FFD03C"/><path d="M331.417 335.588a25.46 25.46 0 0 1 28.038-13.654c60.611 12.3 78.088 4.373 105.784-52.06l42.108-86.016-172.539-86.314-21.567 43.982-70.354 146.197 88.56 47.865h-.03Z" fill="#842306"/><path d="m507.347 183.858-40.725-86.27H334.808l-80.662 108.373 1.488 56.045c27.383 14.874 59.377 3.704 72.526-24.557l14.532-29.629c6.633-14.264 35.043-8.136 49.203-1.264a28.173 28.173 0 0 0 37.185-12.257 44.372 44.372 0 0 1 58.544-19.827l19.723 9.386Z" fill="#272727"/><path d="m392.139 167.49-3.882-1.914c-11.022-5.435-24.363-.907-29.798 10.115l-15.815 32.07c-5.436 11.022-.907 24.363 10.115 29.798l3.882 1.915c11.022 5.435 24.363.906 29.798-10.116l15.815-32.069c5.436-11.022.907-24.363-10.115-29.799Z" fill="#842306"/><path d="M747.548 0h223.869a46.915 46.915 0 0 1 46.913 46.913v110.335a46.905 46.905 0 0 1-13.74 33.173 46.918 46.918 0 0 1-33.173 13.74H700.71V46.913A46.912 46.912 0 0 1 747.548 0Z" fill="#007171"/><path d="m455.943 796.46-36.591-29.629a20.036 20.036 0 0 0-22.192-2.008l-25.583 13.982c-18.399 10.055-39 17.447-59.972 17.536l-244.202-1.1c-49.56.208-82.134-51.673-60.418-96.161L139.23 429.116l108.788 110.812-87.147 148.74 125.716 10.412a66.934 66.934 0 0 0 35.177-6.827l30.983-15.44a35.823 35.823 0 0 1 22.374-3.177 35.823 35.823 0 0 1 19.823 10.852l82.655 88.843a15.87 15.87 0 0 1-.387 22.014 15.868 15.868 0 0 1-21.269 1.115Z" fill="#842306"/><path d="M806.805 118.611c9.098-2.148 14.733-11.264 12.586-20.363-2.148-9.098-11.264-14.733-20.363-12.585-9.098 2.147-14.733 11.264-12.585 20.362 2.147 9.098 11.263 14.733 20.362 12.586Zm56.28-.004c9.099-2.147 14.734-11.264 12.586-20.362-2.147-9.098-11.264-14.733-20.362-12.586-9.098 2.147-14.733 11.264-12.586 20.362 2.147 9.099 11.264 14.734 20.362 12.586Zm64.363-4.544c6.61-6.61 6.61-17.328 0-23.938-6.61-6.61-17.327-6.61-23.938 0-6.61 6.61-6.61 17.328 0 23.938 6.61 6.61 17.328 6.61 23.938 0Z" fill="#F2F1F2"/></svg>