<svg class="sinch-icon" xmlns="http://www.w3.org/2000/svg" viewBox="0 0 464 800" fill="none" aria-hidden="true" focusable="false"><path d="M363.195 783.099c0 8.712-7.426 15.615-16.139 15.615h-54.627a31.384 31.384 0 0 1-27.089-15.5 1.92 1.92 0 0 0-.926-.806 1.92 1.92 0 0 0-2.641 1.768v11.965a2.603 2.603 0 0 1-2.604 2.604h-34.515a2.601 2.601 0 0 1-2.604-2.604v-50.162h74.416l4.184 7.228a28.644 28.644 0 0 0 24.725 14.182h22.058a15.688 15.688 0 0 1 15.688 15.689l.074.021Zm-226.48 4.811c-1.945 8.492-10.668 13.596-19.172 11.703l-33.531-7.551a54.395 54.395 0 0 1-36.795-28.24c-1.862-3.692-3.075-7.206-2.98-9.988a1.913 1.913 0 0 0-3.526-1.046l-6.38 10.124a2.595 2.595 0 0 1-1.631 1.149 2.6 2.6 0 0 1-1.966-.343L1.553 745.247a2.597 2.597 0 0 1-1.155-1.629 2.605 2.605 0 0 1 .34-1.969l33.646-51.406 62.085 41.292-4.257 9.414a23.07 23.07 0 0 0-1.255 3.284 18.75 18.75 0 0 0-.638 7.708c.868 6.997 4.758 10.459 13.032 12.342l21.514 4.832a15.686 15.686 0 0 1 11.85 18.826v-.031Z" fill="#A7D5C2"/><path d="M183.592 327.126v159.908c0 36.712-67.241 63.236-67.241 63.236 8.88-13.252 12.687-29.861 12.687-45.8v-71.54c0-27.664 4.884-56.207 13.178-82.626l4.738-10.459 5.763-12.74 30.875.021Z" fill="#0A273D"/><path d="M438.531 148.978 391.57 213.73l-35.226-18.764 38.562-68.015 43.625 22.027Zm4.874-14.841a4.435 4.435 0 0 1-2.343-.659 4.5 4.5 0 0 1-2.04-2.788 4.5 4.5 0 0 1 .534-3.414l9.361-15.364a4.508 4.508 0 0 1 6.197-1.512 4.513 4.513 0 0 1 1.511 6.197l-9.413 15.375a4.541 4.541 0 0 1-3.807 2.165Z" fill="#842306"/><path d="M369.219 168.934a6.592 6.592 0 0 1-5.686-3.278 6.595 6.595 0 0 1-.046-6.563l15.762-27.853a6.607 6.607 0 0 1 11.505 6.495l-15.762 27.853a6.567 6.567 0 0 1-5.773 3.346Z" fill="#842306"/><path d="M364.24 157.575c-7.677 14.946.471 22.079-4.821 32.674l21.964-25.698-17.143-6.976Z" fill="#842306"/><path d="M291.584 329.757a35.309 35.309 0 0 1-14.821-22.637 35.32 35.32 0 0 1 5.547-26.482l67.383-98.595 58.364 39.888-67.383 98.595a35.32 35.32 0 0 1-49.09 9.231Z" fill="#059688"/><path d="M233.984 170.199a35.31 35.31 0 0 1 48.237 12.907l57.88 100.166a35.323 35.323 0 0 1-12.917 48.247 35.315 35.315 0 0 1-48.247-12.917l-57.912-100.176a35.31 35.31 0 0 1 12.959-48.227Z" fill="#059688"/><path d="M257.13 482.024a47.065 47.065 0 0 1 47.065 47.066v217.297h-94.131V529.069a47.068 47.068 0 0 1 47.066-47.045Z" fill="#0A273D"/><path d="M304.195 392.192c0-25.988-21.067-47.055-47.055-47.055s-47.055 21.067-47.055 47.055v154.574c0 25.988 21.067 47.055 47.055 47.055s47.055-21.067 47.055-47.055V392.192Z" fill="#0A273D"/><path d="m145.009 378.656-15.458 153.028c-2.599 25.728 16.151 48.691 41.879 51.29 25.728 2.599 48.692-16.151 51.29-41.879l15.458-153.028c2.599-25.728-16.151-48.691-41.879-51.29-25.728-2.599-48.692 16.151-51.29 41.879Z" fill="#0A273D"/><path d="M209.654 494.916a47.064 47.064 0 0 1 13.053 65.268L102.173 740.986l-78.322-52.215 120.54-180.81a47.066 47.066 0 0 1 65.263-13.045Zm94.322-167.789v57.441a74.996 74.996 0 0 1-21.644 53.591 74.99 74.99 0 0 1-82.23 16.483 74.983 74.983 0 0 1-46.077-70.074v-57.441h149.951Z" fill="#0A273D"/><path d="M254.546 112.968c0-13.736-11.135-24.871-24.871-24.871-13.737 0-24.872 11.135-24.872 24.871v28.731c0 13.736 11.135 24.872 24.872 24.872 13.736 0 24.871-11.136 24.871-24.872v-28.731Z" fill="#842306"/><path d="M257.485 141.354a70.263 70.263 0 0 1 7.07 3.597h-71.56a48.178 48.178 0 0 0 4.058-5.313 48.872 48.872 0 0 0 3.211-5.679h54.387s-.262 3.744 1.15 5.711c.523.742.743 1.317 1.611 1.704l.073-.02Z" fill="#842306"/><path d="M293.046 52.703v43.991c0 .743 0 1.485-.073 2.217.005.063.005.126 0 .189 0 .71-.126 1.422-.22 2.091v.189a32.147 32.147 0 0 1-10.803 19.618 32.146 32.146 0 0 1-20.992 7.805 6.286 6.286 0 0 0-4.738 1.966 5.014 5.014 0 0 0-1.465 3.232h-54.523a52.092 52.092 0 0 0 4.665-20.363V52.703A44.049 44.049 0 0 1 217.8 21.532a44.05 44.05 0 0 1 31.172-12.903c1.705-.005 3.41.097 5.104.303a44.045 44.045 0 0 1 38.97 43.771Z" fill="#842306"/><path d="M291.644 41.669h-29.201a8.368 8.368 0 0 0-8.367 8.367v18.167a6.7 6.7 0 0 1-6.914 6.715 6.913 6.913 0 0 1-6.526-6.997v-1.339a11.369 11.369 0 0 0-22.707.93v21.316a24.332 24.332 0 0 1-12.99 21.536V52.692a44.048 44.048 0 0 1 27.205-40.724 44.05 44.05 0 0 1 16.869-3.35h2.144l1.046.073c.638 0 1.266.105 1.893.178a44.074 44.074 0 0 1 37.548 32.8Z" fill="#0A273D"/><path d="M283.8 102.393a3.682 3.682 0 1 0 0-7.364 3.682 3.682 0 0 0 0 7.364Z" fill="#272727"/><path d="m307.94 235.851-3.755 92.719H154.924c.188-17.895-3.933-99.758-.376-115.781 3.367-22.863 13.042-45.695 30.99-60.84.324-.293.659-.565.983-.837 1.046-.847 2.092-1.694 3.012-2.604h80.534a76.714 76.714 0 0 1 13.775 12.446c17.895 20.427 24.15 48.31 24.098 74.897Z" fill="#005F5F"/><path d="M270.12 148.508h-80.535a48.663 48.663 0 0 0 6.14-6.924h62.294a71.64 71.64 0 0 1 12.101 6.924Z" fill="#059688"/><path d="m216.831 349.227-25.154 44.231-20.625-25.363 36.805-29.903 8.974 11.035Z" fill="#842306"/><path d="M92.476 236.045a35.325 35.325 0 0 1 25.852-7.952 35.317 35.317 0 0 1 23.897 12.668l76.064 92.076-54.485 45.01L87.74 285.77a35.32 35.32 0 0 1 4.736-49.725Z" fill="#059688"/><path d="M230.532 165.597a35.29 35.29 0 0 1 8.171 25.764 35.295 35.295 0 0 1-12.448 23.99l-88.452 74.552a35.304 35.304 0 0 1-25.764 8.181 35.302 35.302 0 0 1-24-12.438 35.31 35.31 0 0 1 4.34-49.764l88.442-74.541a35.305 35.305 0 0 1 49.711 4.256Z" fill="#059688"/><path d="m463.047 90.345-43.039 74.521a3.566 3.566 0 0 1-3.138 1.788h-39.744a3.555 3.555 0 0 1-3.138-1.851v-.073l-1.82-3.211-.062-.105a3.546 3.546 0 0 1 0-3.64l43.038-74.51a3.586 3.586 0 0 1 3.138-1.788h39.744a3.513 3.513 0 0 1 3.034 1.684c.049.07.094.144.136.22l1.872 3.284v.073a3.56 3.56 0 0 1-.021 3.608Z" fill="#272727"/><path d="M414.433 159.982h-37.924a1.052 1.052 0 0 1-.957-.522 1.042 1.042 0 0 1 .026-1.089l42.139-73.213a1.049 1.049 0 0 1 .931-.534h37.925a1.042 1.042 0 0 1 .957.522 1.053 1.053 0 0 1-.026 1.089l-42.14 73.213a1.05 1.05 0 0 1-.931.534Z" fill="#F2F2F2"/><path d="M438.939 88.044h-5.345a1.045 1.045 0 0 1 0-2.092h5.345a1.045 1.045 0 0 1 0 2.092Zm-8.033-.574a.48.48 0 1 0 0-.963.48.48 0 0 0 0 .962Z" fill="#272727"/><path d="M430.896 88.002a1.047 1.047 0 0 1-.557-1.644 1.047 1.047 0 0 1 1.769 1.099 1.053 1.053 0 0 1-.737.563c-.157.03-.32.025-.475-.017Z" fill="#272727"/><path d="M434.839 150.202a5.902 5.902 0 0 1-3.765-1.349l-8.88-7.238a5.956 5.956 0 0 1-2.129-4.013 5.964 5.964 0 0 1 9.67-5.222l8.869 7.248a5.961 5.961 0 0 1-3.765 10.574Z" fill="#842306"/><path d="M439.42 143.917a5.968 5.968 0 0 1-3.305-1.046l-14.277-9.518a5.96 5.96 0 0 1-.15-10.076 5.963 5.963 0 0 1 6.771.171l14.297 9.549a5.963 5.963 0 0 1-3.315 10.92h-.021Z" fill="#842306"/><path d="M441.815 135.403a5.918 5.918 0 0 1-3.305-1.046l-14.298-9.56a5.959 5.959 0 0 1-1.446-8.132 5.957 5.957 0 0 1 3.677-2.509 5.955 5.955 0 0 1 4.39.737l14.298 9.559a5.964 5.964 0 0 1 .227 9.733 5.958 5.958 0 0 1-3.543 1.176v.042Z" fill="#842306"/><path d="m317.852 23.397-19.677 5.862 1.195 4.01 19.676-5.863-1.194-4.01ZM304.356.014l-12.702 16.13 3.287 2.588 12.702-16.13-3.287-2.588Zm-1.972 43.765-1.334 3.965 19.458 6.549 1.335-3.965-19.459-6.549Z" fill="#CCC"/></svg>