<svg class="sinch-icon" xmlns="http://www.w3.org/2000/svg" viewBox="0 0 726 800" fill="none" aria-hidden="true" focusable="false"><path d="M.316 437.129a362.872 362.872 0 0 0 45.253 175.62A362.614 362.614 0 0 0 170.14 744.492a344.297 344.297 0 0 0 25.667 14.703 362.501 362.501 0 0 0 228.495 35.644A362.632 362.632 0 0 0 627.88 685.071a362.997 362.997 0 0 0 95.899-210.555 363.074 363.074 0 0 0-50.768-225.744A362.748 362.748 0 0 0 496.217 99.613a362.503 362.503 0 0 0-230.949-11.935A362.689 362.689 0 0 0 74.056 217.82 363.042 363.042 0 0 0 .316 437.13Z" fill="#666"/><path d="m159.212 290.207 141.765 45.515-76.5 238.548a74.474 74.474 0 0 1-36.843 43.485 74.403 74.403 0 0 1-56.784 4.681 74.45 74.45 0 0 1-43.46-36.865 74.522 74.522 0 0 1-4.678-56.815l76.5-238.549Z" fill="#A7D5C2"/><path d="m274.263 380.811-36.865-8.323 19.582-88.961 10.163 2.3a27.376 27.376 0 0 1 17.128 12.098 27.425 27.425 0 0 1 3.554 20.675l-13.562 62.211Z" fill="#F2A068"/><path d="m219.206 255.735 23.607 4.917a28.288 28.288 0 0 1 17.894 12.195 28.322 28.322 0 0 1 4.035 21.284l-20.621 99.11-78.964-16.448 20.608-99.047a28.297 28.297 0 0 1 33.441-22.011Z" fill="#F2A068"/><path d="M249.794 316.172a12.404 12.404 0 0 1-2.201-.194 12.95 12.95 0 0 1-10.454-14.865l7.121-41.063a15.544 15.544 0 0 0-14.281-18.17 15.525 15.525 0 0 0-8.376 1.815 12.939 12.939 0 0 1-16.307-5.828 12.957 12.957 0 0 1 4.073-16.841 41.22 41.22 0 0 1 43.718 2.779 41.25 41.25 0 0 1 14.106 17.911 41.288 41.288 0 0 1 2.442 22.673l-7.347 40.999a12.957 12.957 0 0 1-4.308 7.642 12.942 12.942 0 0 1-8.186 3.142Zm-45.571 66.875h-63.05v-63.183h31.719a31.32 31.32 0 0 1 22.154 9.182 31.357 31.357 0 0 1 9.177 22.167v31.834Z" fill="#F2A068"/><path d="M394.601 267.984h39.389c76.805 0 137.362-52.981 86.418-149.779l-19.711-34.134-19.679-34.133a99.808 99.808 0 0 0-36.526-36.567 99.742 99.742 0 0 0-99.815 0 99.818 99.818 0 0 0-36.527 36.567L288.472 84.07l-19.711 34.134a99.875 99.875 0 0 0-13.378 49.934 99.879 99.879 0 0 0 13.375 49.935 99.817 99.817 0 0 0 36.541 36.548 99.741 99.741 0 0 0 49.912 13.362h39.39Z" fill="#CCC"/><path d="M236.135 401.182H136.48a7.41 7.41 0 0 1-6.894-5.117L58.768 191.329a7.455 7.455 0 0 1 .972-6.747 7.444 7.444 0 0 1 6.052-3.131h99.655a7.415 7.415 0 0 1 7.024 5.02l70.688 204.833a7.457 7.457 0 0 1-3.619 9.046 7.459 7.459 0 0 1-3.405.832Z" fill="#0A273D"/><path d="M227.947 410.25v244.667h385.546V410.25c0-76.655-49.941-140.971-117.359-158.685a148.238 148.238 0 0 0-37.642-4.858h-75.543c-7.378.008-14.745.56-22.041 1.652l-1.166.194a136.348 136.348 0 0 0-14.467 3.012 150.911 150.911 0 0 0-14.63 4.696C270.8 278.865 227.947 339.263 227.947 410.25Z" fill="#A7D5C2"/><path d="M410.104 330.939c43.338 0 78.585-37.76 79.589-80.962-4.014-.842-8.027-1.619-12.138-2.137a148.544 148.544 0 0 0-19.063-1.231h-75.543c-7.378.008-14.745.56-22.042 1.652h-1.165a136.348 136.348 0 0 0-14.467 3.012 150.911 150.911 0 0 0-14.63 4.696 79.69 79.69 0 0 0 24.858 53.265 79.596 79.596 0 0 0 54.601 21.705Z" fill="#F2A068"/><path d="M296.563 102.206v65.967c0 39.154 30.425 73.643 64.344 79.634 22.657 3.984 64.571.616 77.938-4.177 11.069-3.951 20.488-18.589 20.488-31.834V103.663a83.015 83.015 0 0 0-4.758-27.56 84.202 84.202 0 0 0-18.74-30.247 80.07 80.07 0 0 0-26.637-18.57 80.033 80.033 0 0 0-31.816-6.463 81.343 81.343 0 0 0-57.232 23.994 81.442 81.442 0 0 0-23.684 57.389h.097Z" fill="#F2A068"/><path d="M360.907 248.424c0 14.865 6.894 49.354 49.197 49.354 43.37 0 49.229-20.855 49.229-85.981v-55.378c0-30.701-22.495-55.993-45.313-55.993-25.051 0-53.534 8.906-53.534 53.629-.032 49.678.421 79.504.421 94.369Zm-81.433 183.944a38.34 38.34 0 0 1-53.663-5.7l-49.1-60.915a38.393 38.393 0 0 1 5.599-53.889 38.332 38.332 0 0 1 42.562-3.931 38.347 38.347 0 0 1 11.522 9.631l48.841 60.592a38.422 38.422 0 0 1-5.761 54.212Z" fill="#F2A068"/><path d="m152.632 358.111 91.337 37.761v-59.815a49.174 49.174 0 0 0-8.315-27.272 49.136 49.136 0 0 0-22.045-18.067l-68.551-28.336c-16.442-6.769-28.838 3.238-25.893 20.532l7.574 43.233a45.347 45.347 0 0 0 9.114 19.09 45.31 45.31 0 0 0 16.779 12.874Z" fill="#F2A068"/><path d="M209.596 310.214a11.253 11.253 0 0 1-4.176-.81L95.699 265.166a11.152 11.152 0 0 1-6.512-5.931 11.18 11.18 0 0 1 2.297-12.556 11.156 11.156 0 0 1 8.19-3.239c1.514.044 3.002.395 4.375 1.033l109.69 44.205a11.17 11.17 0 0 1 6.788 12.491 11.172 11.172 0 0 1-10.964 9.045h.033Z" fill="#F2A068"/><path d="M195.807 759.195a362.32 362.32 0 0 0 231.642 35.099 362.44 362.44 0 0 0 204.72-113.989l-18.676-72.93-385.158 21.73-32.528 130.09Z" fill="#0A273D"/><path d="M329.304 561.48c-21.639 34.893-10.911 80.733 23.963 102.384 34.873 21.652 80.686 10.918 102.326-23.976l123.074-198.457c21.639-34.893 10.911-80.732-23.963-102.384s-80.686-10.917-102.326 23.976L329.304 561.48Z" fill="#A7D5C2"/><path d="m167.005 466.732 115.064-94.535 158.893 193.619a74.514 74.514 0 0 1-10.291 104.833 74.415 74.415 0 0 1-104.773-10.297l-158.893-193.62Z" fill="#A7D5C2"/><path d="M362.267 178.797a22.657 22.657 0 0 1-17.574 8.363 22.654 22.654 0 0 1-17.575-8.363" stroke="#0A273D" stroke-width="1.2" stroke-miterlimit="10" stroke-linecap="round"/><path d="m295.204 81.059-.874 1.813.259-1.813h.615Z" fill="#CCC"/><path d="M498.723 252.277c-25.537 20.046-91.856-.809-91.856-62.243 0-10.299.292-63.669.292-63.669 0-17.779-5.503-37.34-37.578-37.34h-44.309c-24.145 0-28.709 4.891-28.709 25.617l-5.146-11.464 2.104-15.156.712-5.15.874-1.813a175.28 175.28 0 0 1 25.44-37.987 81.053 81.053 0 0 1 56.932-23.835 80.232 80.232 0 0 1 58.485 25.033l1.522 1.652a136.283 136.283 0 0 1 2.848 3.238l1.133 1.393.55.745c.356.42.68.874 1.036 1.327.356.454 1.262 1.75 1.877 2.688.615.94.809 1.199 1.165 1.781l.971 1.523a58.976 58.976 0 0 1 1.974 3.432c.227.389.421.778.648 1.134.226.356.841 1.62 1.23 2.461l1.165 2.429c0 .227.194.518.323.777.13.26.583 1.36.874 2.073.292.712.907 2.267 1.295 3.238a82.529 82.529 0 0 1 4.758 27.592v62.632c8.447 5.052 14.5 8.971 14.5 8.971l8.965 31.478 15.925 47.443Z" fill="#CCC"/><path d="M313.912 131.547h93.279" stroke="#fff" stroke-width="1.59" stroke-miterlimit="10"/><path d="M370.326 156.289c13.657 0 24.728-11.078 24.728-24.742 0-13.665-11.071-24.742-24.728-24.742-13.656 0-24.727 11.077-24.727 24.742 0 13.664 11.071 24.742 24.727 24.742Zm-56.414 0c13.657 0 24.728-11.078 24.728-24.742 0-13.665-11.071-24.742-24.728-24.742-13.657 0-24.728 11.077-24.728 24.742 0 13.664 11.071 24.742 24.728 24.742Z" fill="#F2A068" stroke="#fff" stroke-width="1.59" stroke-miterlimit="10"/></svg>