<svg class="sinch-icon" xmlns="http://www.w3.org/2000/svg" viewBox="0 0 600 800" fill="none" aria-hidden="true" focusable="false"><path d="M520.743 408.915c43.445 0 78.664-35.219 78.664-78.664 0-43.446-35.219-78.665-78.664-78.665-43.446 0-78.665 35.219-78.665 78.665 0 43.445 35.219 78.664 78.665 78.664Z" fill="#A8D7E2"/><path d="M548.619 301.179h-55.753a16.94 16.94 0 0 0-16.938 16.938v38.548a3.058 3.058 0 0 0 3.049 3.058h69.642a16.938 16.938 0 0 0 16.939-16.938v-24.668a16.938 16.938 0 0 0-16.939-16.938Z" fill="#0A273D"/><path d="M540.667 336a5.776 5.776 0 1 0 .002-11.552 5.776 5.776 0 0 0-.002 11.552Zm-19.924 0a5.776 5.776 0 1 0 0-11.553 5.776 5.776 0 1 0 0 11.553Zm-14.593-3.57a5.777 5.777 0 1 0-10.675-4.42 5.777 5.777 0 0 0 10.675 4.42Z" fill="#A8D7E2"/><path d="M398.85 121.527c33.559 0 60.764-27.205 60.764-60.763C459.614 27.204 432.409 0 398.85 0c-33.559 0-60.764 27.205-60.764 60.764 0 33.558 27.205 60.763 60.764 60.763Z" fill="#007171"/><path d="M435.793 45.974a6.875 6.875 0 0 0-6.722-.32l-11.045 5.464v-1.266a11.515 11.515 0 0 0-3.365-8.147 11.506 11.506 0 0 0-8.144-3.371h-30.756a11.5 11.5 0 0 0-11.483 11.482v21.85a11.5 11.5 0 0 0 11.483 11.483h30.756a11.5 11.5 0 0 0 11.482-11.482v-1.24l11.072 5.438a6.918 6.918 0 0 0 9.994-6.24v-17.83a6.889 6.889 0 0 0-3.272-5.821Z" fill="#FFBE3C"/><path d="M357.244 410.359c24.19 0 43.799-19.609 43.799-43.799 0-24.189-19.609-43.798-43.799-43.798-24.189 0-43.798 19.609-43.798 43.798 0 24.19 19.609 43.799 43.798 43.799Z" fill="#007171"/><path d="m380.432 376.028-4.556-4.546a7.675 7.675 0 0 0-5.438-2.255 7.68 7.68 0 0 0-5.438 2.255 2.6 2.6 0 0 1-3.352.285 46.893 46.893 0 0 1-9.2-9.2 2.566 2.566 0 0 1 .223-3.29l.071-.062a7.708 7.708 0 0 0 0-10.876l-4.564-4.565a7.875 7.875 0 0 0-2.553-1.71 7.875 7.875 0 0 0-6.028 0 7.89 7.89 0 0 0-2.554 1.71l-1.274 1.231a12.28 12.28 0 0 0-1.266 15.957 127.24 127.24 0 0 0 28.705 28.697 12.283 12.283 0 0 0 15.949-1.257l1.275-1.266a7.9 7.9 0 0 0 0-11.108Zm0-93.303c33.559 0 60.764-27.204 60.764-60.763s-27.205-60.764-60.764-60.764c-33.559 0-60.764 27.205-60.764 60.764 0 33.559 27.205 60.763 60.764 60.763Z" fill="#FFBE3C"/><path d="M340.003 219.136h11.295a1.936 1.936 0 0 0 1.926-1.783 57.3 57.3 0 0 1 3.022-15.352 1.926 1.926 0 0 0-.99-2.38 59.08 59.08 0 0 1-6.508-3.566 1.923 1.923 0 0 0-2.567.499 42.385 42.385 0 0 0-8.104 20.424 1.933 1.933 0 0 0 .479 1.511c.182.204.405.367.654.479.25.111.52.168.793.168Zm35.481 25.505a52.495 52.495 0 0 0-8.433 1.462 1.928 1.928 0 0 0-1.314 1.179 1.943 1.943 0 0 0 .19 1.754 35.293 35.293 0 0 0 8.585 9.111 1.926 1.926 0 0 0 3.085-1.542v-10.038a1.944 1.944 0 0 0-.632-1.429 1.924 1.924 0 0 0-1.481-.497Zm31.924 7.007a53.54 53.54 0 0 0-4.101-2.139 1.945 1.945 0 0 0-2.505.766 42.19 42.19 0 0 1-6.044 7.979 39.91 39.91 0 0 1-5.18 4.52.436.436 0 0 0 .069.74.434.434 0 0 0 .288.035 42.396 42.396 0 0 0 17.714-8.727 1.952 1.952 0 0 0 .705-1.65 1.942 1.942 0 0 0-.946-1.524Zm13.453-26.842h-11.295a1.928 1.928 0 0 0-1.926 1.783 57.332 57.332 0 0 1-3.022 15.351 1.926 1.926 0 0 0 .99 2.38 58.976 58.976 0 0 1 6.507 3.566 1.925 1.925 0 0 0 2.568-.499 42.381 42.381 0 0 0 8.104-20.424 1.938 1.938 0 0 0-.475-1.514 1.937 1.937 0 0 0-1.451-.643Zm-67.378-32.522a49.736 49.736 0 0 0 4.1 2.14 1.945 1.945 0 0 0 2.505-.767 42.153 42.153 0 0 1 6.045-7.979 39.901 39.901 0 0 1 5.179-4.52.432.432 0 0 0 .134-.531.436.436 0 0 0-.49-.244 42.407 42.407 0 0 0-17.714 8.736 1.934 1.934 0 0 0 .241 3.165Zm2.763 49.674a57.34 57.34 0 0 1-3.022-15.352 1.928 1.928 0 0 0-1.926-1.783h-11.295a1.926 1.926 0 0 0-1.926 2.149 42.385 42.385 0 0 0 8.104 20.424 1.938 1.938 0 0 0 2.567.499 59.08 59.08 0 0 1 6.508-3.566c.428-.204.766-.559.948-.997a1.92 1.92 0 0 0 .042-1.374Zm19.417-17.152h-14.817a1.918 1.918 0 0 0-1.925 2.068 52.152 52.152 0 0 0 2.558 13.016 1.927 1.927 0 0 0 2.354 1.212 59.218 59.218 0 0 1 11.999-2.184 1.932 1.932 0 0 0 1.783-1.926v-10.261a1.926 1.926 0 0 0-.576-1.368 1.929 1.929 0 0 0-1.376-.557Zm-9.53 33.448a42.122 42.122 0 0 1-6.045-7.979 1.946 1.946 0 0 0-2.505-.775 53.91 53.91 0 0 0-4.101 2.148 1.925 1.925 0 0 0-.24 3.165 42.411 42.411 0 0 0 17.713 8.737c.098.021.2.008.289-.036a.436.436 0 0 0 .068-.74 39.901 39.901 0 0 1-5.179-4.52Zm28.599-72.576a42.19 42.19 0 0 1 6.044 7.979 1.944 1.944 0 0 0 2.505.767 47.903 47.903 0 0 0 4.101-2.14 1.925 1.925 0 0 0 .24-3.165 42.384 42.384 0 0 0-17.722-8.736.427.427 0 0 0-.348.767 40.694 40.694 0 0 1 5.18 4.528Zm-18.9 19.364a59.289 59.289 0 0 1-11.999-2.185 1.93 1.93 0 0 0-2.354 1.213 52.107 52.107 0 0 0-2.558 13.016 1.928 1.928 0 0 0 1.151 1.917c.245.106.508.161.774.16h14.817a1.935 1.935 0 0 0 1.934-1.935V206.94a1.932 1.932 0 0 0-1.765-1.898Zm28.786-3.067a57.324 57.324 0 0 1 3.022 15.351c.038.485.258.937.614 1.268.357.33.826.514 1.312.515h11.295c.273 0 .543-.057.793-.168a1.927 1.927 0 0 0 1.055-1.183c.083-.26.109-.535.078-.807a42.378 42.378 0 0 0-8.104-20.423 1.926 1.926 0 0 0-2.568-.5 58.646 58.646 0 0 1-6.507 3.566 1.929 1.929 0 0 0-.99 2.381Zm-19.586 36.943a59.218 59.218 0 0 1 11.999 2.184 1.925 1.925 0 0 0 2.354-1.212 52.152 52.152 0 0 0 2.558-13.016 1.923 1.923 0 0 0-.508-1.458 1.918 1.918 0 0 0-1.417-.61h-14.817a1.936 1.936 0 0 0-1.934 1.925v10.261a1.93 1.93 0 0 0 1.765 1.926Zm.169-19.782h14.817a1.93 1.93 0 0 0 1.825-1.294c.087-.251.121-.518.1-.783a52.107 52.107 0 0 0-2.558-13.016 1.926 1.926 0 0 0-2.354-1.212 59.17 59.17 0 0 1-11.999 2.21 1.938 1.938 0 0 0-1.783 1.926v10.261a1.934 1.934 0 0 0 1.952 1.908Zm-10.689-33.351a35.293 35.293 0 0 0-8.585 9.111 1.941 1.941 0 0 0-.19 1.755 1.933 1.933 0 0 0 1.314 1.178 52.495 52.495 0 0 0 8.433 1.462 1.922 1.922 0 0 0 1.481-.496 1.936 1.936 0 0 0 .632-1.429v-10.038a1.924 1.924 0 0 0-1.065-1.727 1.923 1.923 0 0 0-2.02.184Zm10.867 13.506a52.507 52.507 0 0 0 8.434-1.462 1.934 1.934 0 0 0 1.123-2.933 35.293 35.293 0 0 0-8.585-9.111 1.947 1.947 0 0 0-.985-.372 1.938 1.938 0 0 0-2.099 1.923v10.03a1.927 1.927 0 0 0 .631 1.429 1.93 1.93 0 0 0 1.481.496Zm9.548 49.745a1.926 1.926 0 0 0 .19-1.754 1.938 1.938 0 0 0-1.313-1.179 52.514 52.514 0 0 0-8.433-1.462 1.939 1.939 0 0 0-1.948 1.145 1.927 1.927 0 0 0-.165.781v10.029a1.933 1.933 0 0 0 3.084 1.551 35.276 35.276 0 0 0 8.585-9.111Z" fill="#007171"/><path d="M523.756 210.488c27.985 0 50.672-22.686 50.672-50.672 0-27.985-22.687-50.671-50.672-50.671-27.985 0-50.672 22.686-50.672 50.671 0 27.986 22.687 50.672 50.672 50.672Z" fill="#0A273D"/><path d="M520.11 158.764a5.588 5.588 0 0 0 7.301 0l20.798-18.115a1.209 1.209 0 0 0 .343-1.345 1.21 1.21 0 0 0-1.145-.785h-47.284a1.21 1.21 0 0 0-.803 2.13l20.79 18.115Zm30.988-13.113-17.099 14.861 17.063 14.852a1.213 1.213 0 0 0 2.015-.892v-27.903a1.21 1.21 0 0 0-1.364-1.182c-.226.028-.439.12-.615.264Zm-54.684 0a1.214 1.214 0 0 0-1.293-.2 1.211 1.211 0 0 0-.722 1.091v27.877a1.215 1.215 0 0 0 1.398 1.181c.229-.036.443-.136.617-.29l17.081-14.798-17.081-14.861Zm33.181 18.507a11.306 11.306 0 0 1-11.669 0l-17.028 14.825a1.212 1.212 0 0 0 .794 2.131h44.128a1.21 1.21 0 0 0 1.145-.785 1.212 1.212 0 0 0-.343-1.346l-17.027-14.825Zm-303.069 40.027c44.332 0 80.269-35.937 80.269-80.269 0-44.331-35.937-80.269-80.269-80.269-44.331 0-80.269 35.938-80.269 80.269 0 44.332 35.938 80.269 80.269 80.269Z" fill="#A8D7E2"/><path d="M253.458 110.41a26.926 26.926 0 0 0-29.074-27.047 26.927 26.927 0 0 0-19.097 10.288 26.936 26.936 0 0 0-5.318 21.029c2.193 14.79 14.487 35.446 21.565 46.358a5.995 5.995 0 0 0 10.047 0c7.078-10.921 19.381-31.577 21.574-46.358.226-1.409.339-2.834.339-4.261l-.036-.009Zm-26.932 11.117a11.114 11.114 0 0 1-10.27-6.863 11.11 11.11 0 0 1 2.409-12.115 11.113 11.113 0 0 1 17.104 1.685 11.112 11.112 0 0 1-1.382 14.037 11.116 11.116 0 0 1-7.861 3.256Z" fill="#0A273D"/><path d="m85.788 542.111-14.656-5.562a43.616 43.616 0 0 1-28.127-40.777v-11.981h42.792l-.01 58.32Z" fill="#842306"/><path d="M85.788 483.791H43.005v11.963h42.783v-11.963Z" fill="#FFBE3C"/><path d="M68.644 771.535c-6.954-8.024-10.698-17.883-3.682-33.262l7.925-16.724-40.268-18.364L.26 772.818a2.735 2.735 0 0 0 .454 3.033c.246.266.543.481.874.631l22.215 10.279a2.668 2.668 0 0 0 2.951-.46c.26-.24.468-.529.615-.85l2.158-4.654a1.891 1.891 0 0 1 3.44.054l4.307 10.056a7.537 7.537 0 0 0 3.753 3.869l5.331 2.442a27.16 27.16 0 0 0 11.161 2.514l37.06.268a2.745 2.745 0 0 0 2.755-2.906c-1.053-18.062-14.746-21.583-28.689-25.559Z" fill="#0A273D"/><path d="m139.018 287.486 5.126-2.327a29.35 29.35 0 0 0 15.345-16.408 29.355 29.355 0 0 0-.76-22.452l-12-26.343a29.38 29.38 0 0 0-38.913-14.576 29.381 29.381 0 0 0-14.576 38.913l11.973 26.308c.062.134.134.258.196.383l14.086 30.935h26.058l-6.535-14.433Z" fill="#842306"/><path d="M136.005 229.557a7.592 7.592 0 0 1 10.065 3.771l2.674 5.777 5.59-2.541-7.56-16.608a29.382 29.382 0 0 0-53.49 24.337l11.973 26.308h10.992a19.38 19.38 0 0 0 16.285-8.885 19.362 19.362 0 0 0 1.349-18.501l-1.631-3.566a7.593 7.593 0 0 1 3.753-10.092Z" fill="#272727"/><path d="M149.377 297.711h-42.809l5.349-12.489h32.111l5.349 12.489Z" fill="#FFBE3C"/><path d="M226.562 309.933a5.352 5.352 0 0 1-4.85-3.084l-5.973-12.837a5.35 5.35 0 0 1 9.69-4.529l6 12.837a5.351 5.351 0 0 1-2.585 7.132 5.224 5.224 0 0 1-2.282.481Zm10.51-29.936a5.348 5.348 0 0 1-4.849-3.084l-7.132-15.253a5.338 5.338 0 0 1-.292-4.164 5.352 5.352 0 0 1 4.858-3.608 5.345 5.345 0 0 1 5.115 3.234l7.132 15.253a5.343 5.343 0 0 1 .194 4.102 5.354 5.354 0 0 1-2.77 3.03 5.264 5.264 0 0 1-2.256.49Z" fill="#842306"/><path d="m220.821 306.1-7.008 15.28h43.683l4.458-9.806a11.496 11.496 0 0 0-.809-10.97 11.491 11.491 0 0 0-9.657-5.264h-13.934a18.407 18.407 0 0 0-16.733 10.76Z" fill="#842306"/><path d="M167.448 744.915v-14.611h-44.637v66.219a3.146 3.146 0 0 0 3.147 3.147h27.19a2.674 2.674 0 0 0 2.675-2.674v-5.59a1.775 1.775 0 0 1 1.042-1.529 1.78 1.78 0 0 1 1.837.219l6.686 5.83a15.158 15.158 0 0 0 9.905 3.735h47.828a3.145 3.145 0 0 0 3.138-3.388c-3.138-37.103-58.811-12.614-58.811-51.358Z" fill="#0A273D"/><path d="m79.859 739.611-64.9-29.571 49.513-108.698a114.775 114.775 0 0 0 10.332-47.606V445.448h71.319v127.865a95.956 95.956 0 0 1-8.63 39.778l-57.634 126.52Z" fill="#E83452"/><path d="M180.311 445.448h-71.318v295.714h71.318V445.448Z" fill="#E83452"/><path d="M274.693 250.364h-26.281a8.158 8.158 0 0 0-7.435 4.788l-23.223 51.18a4.687 4.687 0 0 0 4.27 6.614h31.541l25.389-55.967a4.677 4.677 0 0 0-4.261-6.615Z" fill="#CCC"/><path d="M217.451 309.345a4.69 4.69 0 0 0 4.573 3.646h31.541l25.389-55.967a4.671 4.671 0 0 0-1.391-5.634l-26.289 57.946-33.823.009Z" fill="#666"/><path d="M264.307 255.294h-8.023a.892.892 0 0 1 0-1.783h8.023a.892.892 0 1 1 0 1.783Zm-11.393 0a.877.877 0 0 1-.633-.267.89.89 0 0 1 .294-1.453.892.892 0 0 1 .682 1.65.877.877 0 0 1-.343.07Z" fill="#fff"/><path d="M271.011 279.034a5.35 5.35 0 0 0-7.132 2.595l-5.242 11.232a11.017 11.017 0 0 1-9.913 6.321h-.25a21.836 21.836 0 0 0-20.192 13.729l-3.289 8.513h32.485l10.859-24.007v-.063l5.242-11.188a5.348 5.348 0 0 0-2.568-7.132Zm-29.223-10.795h-12.48a5.35 5.35 0 0 0-3.834 9.075h-.677a5.35 5.35 0 0 0-5.349 5.349 5.294 5.294 0 0 0 1.524 3.735h-.392a5.348 5.348 0 0 0 0 10.698h6.855a5.352 5.352 0 0 0 4.933-3.269 5.341 5.341 0 0 0-1.099-5.815h4.252a5.353 5.353 0 0 0 4.924-3.268 5.346 5.346 0 0 0-1.09-5.807h2.46a5.348 5.348 0 0 0 0-10.698h-.027Z" fill="#842306"/><path d="M74.814 371.25v124.504H93.33a5.028 5.028 0 0 0 3.566-1.47l8.843-8.853a5.626 5.626 0 0 1 7.934 0l8.853 8.853a5.005 5.005 0 0 0 3.566 1.47h54.229V371.25a52.748 52.748 0 0 0-52.598-52.749 52.735 52.735 0 0 0-37.403 15.393 52.74 52.74 0 0 0-15.506 37.356Z" fill="#0A273D"/><path d="m208.393 333.299-9.146 20.13-14.416-32.093a40.872 40.872 0 0 0-37.255-24.124h-38.449a40.461 40.461 0 0 0-37.041 24.07l-17.162 38.209a136.14 136.14 0 0 0-11.946 55.825v68.475H85.77l.17-67.209a96.05 96.05 0 0 1 8.361-38.896l9.477-21.19a27.06 27.06 0 0 1 24.685-16.047 27.051 27.051 0 0 1 24.596 15.708l23.874 51.59c8.915 19.425 36.702 18.98 45.011-.731l30.569-73.744-44.12.027Z" fill="#0A273D"/><path d="M213.814 321.38h43.665l-4.939 11.919h-44.146l5.42-11.919Z" fill="#FFBE3C"/></svg>