<svg class="sinch-icon" xmlns="http://www.w3.org/2000/svg" viewBox="0 0 845 800" fill="none" aria-hidden="true" focusable="false"><path d="M48.916 152.174h506.647a48.899 48.899 0 0 1 47.009 35.567 7068.37 7068.37 0 0 1 6.468 22.632l35.815 132.985s106.453 49.581 158.685 73.954a48.913 48.913 0 0 1 28.189 44.357v149.647H445.461v-.329H48.916A48.973 48.973 0 0 1 0 562.068V201.174a48.973 48.973 0 0 1 48.916-49Z" fill="#A7D5C2"/><path d="M459.216 208.593h149.489l36.897 135.232H459.216V208.593Z" fill="#DCEDE1"/><path d="M461.826 152.135h-33.214v459.142h33.214V152.135Z" fill="#059688"/><path d="M665.166 693.12c44.368 0 80.336-35.968 80.336-80.336 0-44.368-35.968-80.336-80.336-80.336-44.368 0-80.336 35.968-80.336 80.336 0 44.368 35.968 80.336 80.336 80.336Zm-532.746 0c44.369 0 80.336-35.968 80.336-80.336 0-44.368-35.967-80.336-80.336-80.336-44.368 0-80.335 35.968-80.335 80.336 0 44.368 35.967 80.336 80.335 80.336Z" fill="#007171"/><path d="M665.166 648.895c19.944 0 36.111-16.167 36.111-36.111 0-19.943-16.167-36.11-36.111-36.11-19.943 0-36.11 16.167-36.11 36.11 0 19.944 16.167 36.111 36.11 36.111Zm-532.738 0c19.943 0 36.11-16.167 36.11-36.111 0-19.943-16.167-36.11-36.11-36.11-19.943 0-36.11 16.167-36.11 36.11 0 19.944 16.167 36.111 36.11 36.111Z" fill="#059688"/><path d="M779.784 474.882a8.682 8.682 0 0 1 2.537-6.13 8.68 8.68 0 0 1 6.129-2.539h43.308v50.733H788.45a8.663 8.663 0 0 1-8.008-5.353 8.666 8.666 0 0 1-.658-3.318v-33.393Z" fill="#FFD03C"/><path d="M782.079 566.717a6.167 6.167 0 0 1 1.805-4.363 6.165 6.165 0 0 1 4.36-1.81h49.721a6.168 6.168 0 0 1 5.708 3.809c.311.75.47 1.553.47 2.364v38.387a6.166 6.166 0 0 1-3.814 5.705c-.75.31-1.553.469-2.364.469h-49.721a6.17 6.17 0 0 1-6.165-6.174v-38.387Z" fill="#007171"/><path d="M126.06 771.682c5.39-6.332 12.098-14.22 12.098-27.173v-2.068c0-.111.016-.219.019-.33V718.17a4.993 4.993 0 0 1 3.533 1.47 4.973 4.973 0 0 1 1.447 3.543l-.023 7.416a20.757 20.757 0 0 1 31.092-10.303 20.756 20.756 0 0 1 7.778 9.643v-6.796a4.98 4.98 0 0 1 4.98-4.981h.678v47.539c.776 10.574 2.902 17.006 2.995 17.246A12.79 12.79 0 0 1 178.601 800h-47.487a12.796 12.796 0 0 1-11.819-7.899 12.814 12.814 0 0 1-.973-4.896c0-6.44 3.754-10.854 7.73-15.523m140.292-51.793h22.548c4.574 0 8.801 3.693 9.442 8.281 3.166-4.103 7.832-6.976 13.417-7.933 2.161-.37 4.409 1.39 4.715 3.635l.464 3.828c1.744 12.774 8.811 24.972 19.456 33.578 7.023 5.674 15.248 9.497 23.743 11.035l12.423 2.496c6.083 1.224 11.051 6.429 11.895 12.462.984 7.028-3.915 12.726-10.943 12.726h-31.715c-10.951 0-24.047-3.783-33.768-10.323-1.377-.928-3.026-.034-2.807 1.523l.879 6.273a2.155 2.155 0 0 1-.486 1.781 2.147 2.147 0 0 1-1.688.746h-28.582a3.006 3.006 0 0 1-2.878-2.527l-8.779-74.482a2.633 2.633 0 0 1 1.527-2.874 2.645 2.645 0 0 1 1.137-.225Z" fill="#0A273D"/><path d="m217.302 380.582 82.573 2.409s29.433 295.395 34.904 350.869a8.188 8.188 0 0 1-1.991 6.218 8.361 8.361 0 0 1-6.052 2.651h-69.224a8.08 8.08 0 0 1-8.044-7.223l-23.875-208.015-20.231 203.121a8.096 8.096 0 0 1-8.031 7.303h-68.575a8.345 8.345 0 0 1-6.052-2.652 8.168 8.168 0 0 1-1.989-6.218c5.638-55.88 35.897-355.354 35.897-355.354l60.69 6.891Z" fill="#E83452"/><path d="M365.115 153.702a3.218 3.218 0 0 1 2.783-1.583l38.253.053-41.487 69.57-34.433-.051a3.248 3.248 0 0 1-2.786-4.854l37.67-63.135Z" fill="#666"/><path d="M406.064 178.421c-2.045 2.232-3.562 4.64-4.342 7.233-.781 2.594-.903 5.39-.51 8.543l.338 2.564c.132 1.05.2 2.107.206 3.166a28.167 28.167 0 0 1-.644 6.302c-.905 4-2.496 7.812-4.704 11.267l-.182.288-.24.285a6580.175 6580.175 0 0 1-21.719 25.373l-10.904 12.663a4.747 4.747 0 0 1-7.196-6.181l-.124-.108 10.858-12.687a4601.428 4601.428 0 0 1 21.799-25.304l-.422.569a25.941 25.941 0 0 0 3.511-8.178c.313-1.385.468-2.801.462-4.221.001-.705-.042-1.41-.127-2.11l-.148-1.274-.15-1.428c-.375-3.854-.282-8.31 1.25-12.428a24.062 24.062 0 0 1 2.982-5.735 27.685 27.685 0 0 1 4.16-4.625 4.205 4.205 0 0 1 5.909 5.965l-.063.061Z" fill="#842306"/><path d="m371.198 152.135 34.196.05a4.704 4.704 0 0 1 4.052 2.353 4.64 4.64 0 0 1-.056 4.664l-36.435 61.08a3.032 3.032 0 0 1-2.595 1.48l-40.662-.058 41.5-69.569Z" fill="#CCC"/><path d="M402.098 162.137c1.105-1.303 1.132-3.097.059-4.007-1.072-.909-2.837-.589-3.943.715-1.105 1.303-1.131 3.097-.059 4.006 1.073.91 2.838.59 3.943-.714Z" fill="#666"/><path d="m308.87 276.72 70.702-72.316a10.812 10.812 0 0 1 14.503.118 10.812 10.812 0 0 1 1.346 14.441l-53.978 87.686a22.245 22.245 0 0 1-35.794-26.421 23.22 23.22 0 0 1 3.221-3.506" fill="#842306"/><path d="m378.722 187.493-10.943-11.856a3.907 3.907 0 0 1 .238-5.479 3.842 3.842 0 0 1 5.223.084l20.725 19.733a5.087 5.087 0 0 1 1.493 3.232l2.488-1.493-4.809 21.226-19.564 5.72a5.117 5.117 0 0 0-.911-6.047 5.102 5.102 0 0 0-1.828-1.166l-3.15-.58-1.076-.085.082-.082-15.993-2.817a3.842 3.842 0 0 1-3.15-3.022 3.843 3.843 0 0 1 .001-1.537 3.882 3.882 0 0 1 4.31-3.232l1.319.164a4.12 4.12 0 0 1-2.403-4.559 4.169 4.169 0 0 1 4.725-3.397l.746.081a4.38 4.38 0 0 1-.836-5.032 4.384 4.384 0 0 1 4.493-2.418l18.82 2.562Z" fill="#842306"/><path d="M177.258 213.194a53.17 53.17 0 0 1 45.433-25.452h58.698a33.305 33.305 0 0 1 29.427 17.408 33.31 33.31 0 0 1-1.405 34.161c-10.025 15.586-18.488 28.603-18.488 28.603l2.24 28.932 41.701-61.262 33.826 26.945s-18.655 30.51-33.33 54.554a33.503 33.503 0 0 1-39.464 14.095l4.395 56.208-145.17.992 3.068-32.251h-18.654c-.994.082-1.992.082-2.986 0a22.099 22.099 0 0 1-13.845-5.226 26.606 26.606 0 0 1-6.891-35.15l61.204-102.391.241-.166Z" fill="#12364C"/><path d="M263.84 219.987c6.448 4.809 20.05-11.08 20.05-11.08V191.17a8.707 8.707 0 0 1 7.885-8.679c13.647-1.271 23.611-13.594 22.253-27.518l-4.205-43.104c-1.847-19.06-18.66-33.048-37.382-30.98-18.325 2.024-31.344 19.053-29.518 37.786l5.622 57.643c.554 5.669-3.504 10.684-9.06 11.204l-3.018.28 27.373 32.185Z" fill="#842306"/><path d="M243.018 119.103c-2.195-20.485 10.151-35.575 28.188-38.253 17.754-2.638 35.351 10.35 38.345 28.861 0 0-6.21 12.948-21.277 13.489-15.158.546-19.289-12.175-30.866-12.122-9.523.042-12.602 10.478-13.428 17.939l-.962-9.914Zm53.242 44.059a12.719 12.719 0 0 0 10.706-5.205 1.43 1.43 0 0 0 .255-1.061 1.415 1.415 0 0 0-.577-.926 1.454 1.454 0 0 0-2.011.325 9.867 9.867 0 0 1-13.261 2.482 1.448 1.448 0 0 0-2.199.938 1.406 1.406 0 0 0 .629 1.452 12.827 12.827 0 0 0 6.458 1.995Z" fill="#12364C"/><path d="M318.178 212.001a10.992 10.992 0 0 0-3.237-7.778 10.994 10.994 0 0 0-7.796-3.197H192.303a11.022 11.022 0 0 0-11.035 10.975v125.878h136.918l-.008-125.878Z" fill="#FFBE3C"/><path d="M241.706 200.979h-44.705v40.25a2.542 2.542 0 0 0 1.283 2.213 2.538 2.538 0 0 0 2.558-.015 6411.97 6411.97 0 0 0 16.57-9.682 2.53 2.53 0 0 1 2.514-.019 7824.277 7824.277 0 0 1 17.997 9.877 2.568 2.568 0 0 0 2.536-.058 2.54 2.54 0 0 0 1.247-2.179v-40.387Z" fill="#007171"/><path d="M294.224 310.651a5.215 5.215 0 0 1 6.628 2.15 5.21 5.21 0 0 1-1.431 6.819l-11.55 8.653a1.28 1.28 0 0 0 .019 2.056c.218.157.478.242.746.242h38.424a4.346 4.346 0 0 1 3.388 7.083 4.348 4.348 0 0 1-2.776 1.57l-35.53 7.651a4.816 4.816 0 0 1-.432.076c-4.659.451-48.935.156-48.935.156l-.921-22.395 52.37-14.061Z" fill="#842306"/><path d="M242.722 356.105h-84.583l-.306 4.148h84.889v-4.148Z" fill="#0A273D"/><path d="M549.841 0H368.544a11.66 11.66 0 0 0-11.649 11.65v116.982a1.941 1.941 0 0 0 1.941 1.941h191a11.665 11.665 0 0 0 11.65-11.649V11.65A11.666 11.666 0 0 0 549.841 0Z" fill="#FFBE3C"/><path d="M407.325 54.872h103.757a6.209 6.209 0 0 0 5.855-3.804 6.218 6.218 0 0 0-1.38-6.845 6.202 6.202 0 0 0-4.475-1.773H407.325a6.214 6.214 0 1 0 0 12.422Zm0 33.254h51.86a6.214 6.214 0 0 0 0-12.426h-51.86a6.212 6.212 0 1 0 0 12.426Z" fill="#fff"/><path d="m242.875 324.52-75.882-7.997v39.258h75.882V324.52Z" fill="#12364C"/></svg>