<svg class="sinch-icon" xmlns="http://www.w3.org/2000/svg" viewBox="0 0 490 800" fill="none" aria-hidden="true" focusable="false"><path d="m256.598 283.644 12.596 33.975a31.35 31.35 0 0 0 29.389 20.449 32.542 32.542 0 0 0 31.98-26.529l11.36-60.461h-28.838l-11.948 32.674-44.539-.108Z" fill="#842306"/><path d="m274.41 283.912-7.786 76.18h-96.579l-30.574-79.982h-4.931s-5.469-16.374-11.469-34.352a34.995 34.995 0 0 1 33.194-46.071h89.74a34.036 34.036 0 0 1 32.021 22.48c9.005 24.951 22.288 61.745 22.288 61.745H274.41Z" fill="#A8D7E2"/><path d="M128.105 718.672a3.813 3.813 0 0 1 2.519-.987l44.459.334a3.554 3.554 0 0 1 2.991.838 3.549 3.549 0 0 1 1.182 2.872l-.247 3.612a42.627 42.627 0 0 0 2.859 17.771 42.629 42.629 0 0 0 9.941 15.005c5.741 5.598 10.889 9.207 20.22 11.101 1.669.339 3.087.616 4.312.854 5.496 1.076 7.161 1.402 10.306 3.158 5.874 3.282 7.328 5.696 7.406 12.305a14.703 14.703 0 0 1-4.493 10.801 13.035 13.035 0 0 1-8.996 3.664h-32.541c-11.172 0-22.148-4.04-30.917-11.373a1.379 1.379 0 0 0-1.603-.147 1.634 1.634 0 0 0-.775 1.329l-.471 6.87a3.686 3.686 0 0 1-1.21 2.453 3.256 3.256 0 0 1-2.168.877h-29.315c-1.603 0-2.778-1.397-2.601-3.112l7.841-75.775a3.797 3.797 0 0 1 1.301-2.441" fill="#0A273D"/><path d="M235.416 684.436a3.823 3.823 0 0 1 2.643-.573l44.903 7.439a3.537 3.537 0 0 1 2.817 1.305 3.544 3.544 0 0 1 .708 3.023l-.82 3.527a42.619 42.619 0 0 0 7.392 34.403c4.773 6.44 9.278 10.828 18.184 14.199a455.54 455.54 0 0 0 4.123 1.534c5.267 1.942 6.843 2.52 9.673 4.766 5.268 4.18 6.324 6.795 5.343 13.331a14.855 14.855 0 0 1-.687 2.748 6.911 6.911 0 0 1-6.538 4.627c-34.582-.06-39.65.052-40.396.084a.38.38 0 0 1-.126 0c-11.03-1.777-21.221-8.077-28.696-16.718a1.378 1.378 0 0 0-1.56-.401 1.622 1.622 0 0 0-.975 1.187l-.775 3.318a3.678 3.678 0 0 1-1.587 2.228 3.259 3.259 0 0 1-2.29.52l-28.987-.066c-1.603-.259-2.519-1.832-2.061-3.49l18.047-74.795a3.798 3.798 0 0 1 1.672-2.201" fill="#0A273D"/><path d="M208.463 229.228c7.7 3.698 16.157-3.435 13.819-11.641-1.782-6.268-1.516-10.427-1.786-11.378-1.429-5.022.687-10.202 5.702-11.634a26.643 26.643 0 0 0 18.322-32.921l-12.477-43.809a36.099 36.099 0 0 0-45.19-24.656c-18.944 5.746-29.495 25.964-24.074 45l16.226 56.498a4.26 4.26 0 0 1-.693 3.747 4.261 4.261 0 0 1-3.409 1.702h-7.07l40.63 29.092Z" fill="#842306"/><path d="M187.938 92.6a36.347 36.347 0 0 1 39.936 16.032l-11.059 2.519a12.363 12.363 0 0 0-7.713 5.479 12.35 12.35 0 0 0-1.571 9.33l9.918 43.38a1.757 1.757 0 0 0 1.72 1.399 1.704 1.704 0 0 0 1.587-1.227 1.71 1.71 0 0 0 .051-.708 15.11 15.11 0 0 1 11.806-16.615l8.411-2.806 6.005 19.815a19.678 19.678 0 0 1-12.861 24.459l-2.137.687-9.933 2.274a9.028 9.028 0 0 1-10.812-6.77 120740.82 120740.82 0 0 0-11.627-50.376c-.939-4.109-4.859-6.988-9.018-6.314a7.901 7.901 0 0 0-5.312 3.384 7.92 7.92 0 0 0-1.156 6.191l5.842 25.553c2.52 11.037-.405 22.075-11.45 24.601l-16.84-56.356c-4.413-19.297 7.042-39.006 26.213-43.93Z" fill="#0A273D"/><path d="M351.36 227.134a1.37 1.37 0 0 1-1.378-.824 1.376 1.376 0 0 1 .345-1.569l8.726-7.816a3.575 3.575 0 0 0 .708-4.445c-.962-1.665-3.11-2.22-4.81-1.338l-19.407 10.294c-5.556 2.946-18.397 12.214-22.272 29.408" fill="#842306"/><path d="M369.896 224.861c-9.435 1.227-21.005 2.452-30.276 3.375a29.33 29.33 0 0 0-23.588 16.73c-1.892 4.028-3.417 7.283-3.417 7.283s31.732-11.208 32.032-11.275l25.382-7.644a20.33 20.33 0 0 0 11.873-9.527l3.675-6.566a3.953 3.953 0 0 0-.902-4.956 3.215 3.215 0 0 0-4.539.389l-10.244 12.191" fill="#842306"/><path d="M364.027 225.902a8.727 8.727 0 0 0 10.442-.531 8.724 8.724 0 0 0 2.285-2.92l2.466-5.107a3.95 3.95 0 0 0-1.197-4.892 3.209 3.209 0 0 0-4.505.664l-9.491 12.786Z" fill="#842306"/><path d="M375.18 223.71a11.273 11.273 0 0 1-5.295 3.518l-12.389 3.85a20.127 20.127 0 0 1-4.73.863c-2.688-.091-7.839-.291-13.301-.515a27.805 27.805 0 0 0-26.383 19.43c-.687 2.061-1.113 3.435-1.113 3.435l25.32 9.078 3.559-9.655a15.497 15.497 0 0 1 14.305-10.134c.034.071.068.071.1.071a34.128 34.128 0 0 0 28.35-16.62 2237.06 2237.06 0 0 0 5.069-8.473 3.834 3.834 0 0 0-.82-4.888 3.247 3.247 0 0 0-3.572-.397 3.251 3.251 0 0 0-.986.789c-2.253 2.684-5.83 6.939-8.105 9.644l-.009.004Z" fill="#842306"/><path d="M180.557 133.025a4.114 4.114 0 0 0-1.478-.617 4.113 4.113 0 0 0-3.083.606 4.114 4.114 0 0 0-1.135 1.131l-13.651 20.336a4.108 4.108 0 0 0 1.119 5.694l46.058 30.917 18.227-27.152-46.057-30.918v.003Z" fill="#CCC"/><path d="m147.798 279.069 14.449 35.655a23.298 23.298 0 0 0 7.388 9.721 23.297 23.297 0 0 0 11.288 4.652l.179.023a23.303 23.303 0 0 0 25.81-18.763l23.937-125.655-5.167-14.657c-10.106-3.989-23.359-3.316-23.359-3.316l-5.497 14.84 7.956 12.34-34.098 82.904-22.879 2.256h-.007Z" fill="#842306"/><path d="m201.812 360.015 64.842-.77 65.975 161.54a73.49 73.49 0 0 1 3.339 45.274l-32.103 131.108a4.208 4.208 0 0 1-4.091 3.206h-67.78a4.216 4.216 0 0 1-4.116-3.31 4.219 4.219 0 0 1 .022-1.887l33.065-137.433a12.395 12.395 0 0 0-.655-7.775l-35.083-82.006-27.34 270.883a4.215 4.215 0 0 1-4.255 3.791l-73.806-1.123a4.193 4.193 0 0 1-1.685-.383 4.21 4.21 0 0 1-2.437-4.245C119.29 700.874 142.9 463.7 142.9 463.7l4.647-48.359c1.491-31.147 22.869-54.919 23.094-55.164l.144-.156 31.027-.006Z" fill="#FFBE3C"/><path d="M195.214 151.909a5.44 5.44 0 0 0-8.918-1.491 5.441 5.441 0 0 0-.996 5.959c4.212 9.344 12.908 28.627 12.908 28.627l9.096-6.277s-8.059-17.884-12.09-26.818Z" fill="#842306"/><path d="M223.521 182.297a6.119 6.119 0 0 0 6.314 5.921 6.09 6.09 0 0 0 5.89-6.216c-.06-2.631-.126-5.737-.186-8.474a13.48 13.48 0 0 0-5.926-10.878c-4.182-2.817-8.967-6.023-13.283-8.916a8.94 8.94 0 0 0-8.915-.604 8.927 8.927 0 0 0-4.978 7.42l-.556 8.006 21.358 5.343s.144 4.43.282 8.398Z" fill="#842306"/><path d="M224.469 176.545a.86.86 0 0 1-.257-1.681l5.039-1.562a.863.863 0 0 1 .915.272.851.851 0 0 1 .099.949.846.846 0 0 1-.506.421l-5.038 1.562a.901.901 0 0 1-.252.039Zm-30.075 42.608-1.889-1.351 7.571-18.266a8.708 8.708 0 0 0-.433-7.343l-5.207-10.464 3.288 2.208 3.811 7.23a10.845 10.845 0 0 1 .538 9.161l-7.679 18.825Z" fill="#0A273D"/><path d="M121.982 640.288a13.216 13.216 0 0 0-7.893-6.316 13.19 13.19 0 0 0-10.046 1.115l-.326.179a13.208 13.208 0 0 0-5.2 17.939l22.001 39.97 23.465-12.919-22.001-39.968ZM40.536 759.56h20.167l2.88 28.829h.15a11.549 11.549 0 0 1 10.883 8.015c.64 1.977 1.145 3.548 1.145 3.548H44.27l-3.733-40.392Zm63.259-12.831 22.393-13.709-6.206 55.367a7.738 7.738 0 0 1 7.477 5.767 7.733 7.733 0 0 1 .126 3.357l-.458 2.43H97.76l6.035-53.212Z" fill="#842306"/><path d="m57.119 762.288-5.82 5.432a21.636 21.636 0 0 1-26.245 2.542l-1.784 18.127a10.64 10.64 0 0 1 10.416 8.474l.657 3.144-34.352-.055s5.748-44.017 5.748-49.305c0-14.824-.426-35.06-.55-40.57a34.347 34.347 0 0 0-.183-2.854l-2.895-27.198a3.97 3.97 0 0 1 6.11-3.748 3.98 3.98 0 0 1 1.698 2.399c.297 1.23.65 2.682 1.026 4.223a18.416 18.416 0 0 0 17.911 14.057h113.757v17.064c0 26.658-21.607 48.268-48.265 48.268H57.119Z" fill="#894915"/><path d="M121.461 670.983h.021c.774-.336 3.144-.458 5.977-.458a18.852 18.852 0 0 1 17.793 12.596 12.054 12.054 0 0 0 8.728 7.771l17.906 4.035a10.189 10.189 0 0 1 7.934 9.39 11.168 11.168 0 0 1-3.039 8.281 11.156 11.156 0 0 1-8.103 3.488h-20.566a6.05 6.05 0 0 0-5.892 4.66c-1.457 6.209-3.843 16.405-3.843 16.405s-55.503-16.114-43.743-36.476c7.972-13.805 18.255-26.208 26.83-29.692h-.003Z" fill="#894915"/><path d="M125.751 744.864s.458 3.997 1.026 9.06a14.411 14.411 0 0 0 14.161 12.79 14.405 14.405 0 0 0 6.702-1.568l12.924-6.582 1.516 7.454 1.106-.4a11.84 11.84 0 0 0 7.363-14.273 10.39 10.39 0 0 0-14.909-6.398l-10.734 5.725-3.174-27.5-15.981 21.692Z" fill="#894915"/><path d="M92.552 737.906a14.306 14.306 0 0 1-8.1-2.519h-.016a14.418 14.418 0 0 1-6.05-9.242 14.428 14.428 0 0 1 2.26-10.813c6.449-9.454 18.223-25.668 26.964-37.607a27.189 27.189 0 0 1 17.6-10.848c.464-.063.935.057 1.312.334a1.805 1.805 0 0 1 .411 2.474 1.8 1.8 0 0 1-1.132.742 23.614 23.614 0 0 0-15.285 9.421c-8.727 11.909-20.476 28.099-26.898 37.513a10.835 10.835 0 0 0 2.84 15.049l.025.018a10.832 10.832 0 0 0 15.051-2.846l13.512-19.817a1.802 1.802 0 1 1 2.978 2.029l-13.512 19.815a14.328 14.328 0 0 1-9.241 6.041c-.896.171-1.806.257-2.719.256Z" fill="#842306"/><path d="m315.721 166.88 3.126 2.774c12.625 13.054 28.347 21.784 45.196 26.3 52.958 14.199 107.897-17.529 122.085-70.487 6.774-25.274 3.153-52.688-10.061-75.576-13.214-22.887-34.547-39.574-60.424-46.508-52.956-14.2-107.895 17.529-121.645 71.25-4.837 18.053-4.097 36.956.898 54.418l1.441 4.255-19.142 32.926 38.526.648Z" fill="#007171"/><path d="M341.71 116.426h-.039a5.401 5.401 0 0 1-5.359-5.437l.162-23.035a5.397 5.397 0 0 1 5.396-5.359h.039a5.389 5.389 0 0 1 3.805 1.607 5.398 5.398 0 0 1 1.554 3.828l-.16 23.037a5.402 5.402 0 0 1-5.398 5.359Zm96.704.476h-.039a5.404 5.404 0 0 1-5.359-5.437l.161-23.035a5.396 5.396 0 0 1 5.398-5.359h.038a5.393 5.393 0 0 1 5.359 5.435l-.16 23.025a5.404 5.404 0 0 1-1.591 3.799 5.405 5.405 0 0 1-3.807 1.572Zm-72.706 10.203h-.039a5.414 5.414 0 0 1-3.806-1.607 5.402 5.402 0 0 1-1.555-3.828l.309-44.134a5.404 5.404 0 0 1 5.398-5.361h.039a5.399 5.399 0 0 1 5.359 5.437l-.309 44.134a5.4 5.4 0 0 1-5.396 5.359Zm48.559.229h-.037a5.415 5.415 0 0 1-2.063-.425 5.386 5.386 0 0 1-2.901-2.942 5.386 5.386 0 0 1-.397-2.068l.309-44.134a5.4 5.4 0 0 1 5.398-5.361h.039a5.4 5.4 0 0 1 5.359 5.434l-.309 44.134a5.398 5.398 0 0 1-5.398 5.362Zm-24.555 9.282h-.039a5.396 5.396 0 0 1-5.359-5.435l.435-62.934a5.392 5.392 0 0 1 5.395-5.359h.039a5.398 5.398 0 0 1 5.359 5.435l-.439 62.945a5.4 5.4 0 0 1-5.391 5.348Z" fill="#fff"/><path d="M230.181 188.202a1.828 1.828 0 0 1-1.145-.431 1.743 1.743 0 0 1-.669-1.326l-.106-3.618-.272-7.72a.861.861 0 0 0-.897-.822.858.858 0 0 0-.821.897l.273 7.707.103 3.607a3.458 3.458 0 0 0 3.222 3.359l.312-1.653Z" fill="#0A273D"/><path d="M36.698 773.539c13.665 0 24.743-11.078 24.743-24.743s-11.078-24.743-24.743-24.743c-13.666 0-24.743 11.078-24.743 24.743s11.077 24.743 24.743 24.743Z" fill="#894915"/><path d="M46.42 773.21a1.602 1.602 0 0 1 .826-2.032 23.172 23.172 0 0 0 12.367-27.912 1.602 1.602 0 1 1 3.058-.962 26.386 26.386 0 0 1-14.09 31.787 1.61 1.61 0 0 1-1.27.027 1.611 1.611 0 0 1-.891-.908Z" fill="#842306"/></svg>