<svg class="sinch-icon" xmlns="http://www.w3.org/2000/svg" viewBox="0 0 413 800" fill="none" aria-hidden="true" focusable="false"><path d="M105.242 483.542 87.3 476.76a53.518 53.518 0 0 1-34.57-49.996v-14.659h52.512v71.437Z" fill="#842306"/><path d="M105.242 411.963H52.73v14.659h52.512v-14.659Z" fill="#FFBE3C"/><path d="M84.237 765.102c-8.533-9.846-13.128-21.989-4.485-40.806l9.736-20.567-49.448-22.536-39.712 85.44a3.446 3.446 0 0 0 1.641 4.486l27.24 12.69a3.28 3.28 0 0 0 4.376-1.641l2.626-5.689a2.329 2.329 0 0 1 4.267.11l5.25 12.362a8.753 8.753 0 0 0 4.595 4.704l6.455 2.954a32.821 32.821 0 0 0 13.675 3.096l45.51.328a3.388 3.388 0 0 0 3.198-2.245 3.39 3.39 0 0 0 .193-1.365c-1.203-22.132-18.051-26.508-35.117-31.321Z" fill="#0A273D"/><path d="m170.553 171.067 6.345-2.845a36.006 36.006 0 0 0 21.146-34.005 36.013 36.013 0 0 0-3.205-13.693L180.07 88.142a36.005 36.005 0 0 0-47.698-17.832 36.009 36.009 0 0 0-17.832 47.698l14.66 32.273c.109.219.109.328.219.437l17.285 37.962h31.944l-8.095-17.613Z" fill="#842306"/><path d="M166.942 99.957a9.377 9.377 0 0 1 12.362 4.595l3.282 7.111 6.893-3.172-9.299-20.349a36.013 36.013 0 0 0-20.156-18.794 36.008 36.008 0 0 0-45.374 48.66l14.659 32.273h13.456a23.79 23.79 0 0 0 19.979-10.893 23.788 23.788 0 0 0 1.682-22.693l-1.969-4.376a9.146 9.146 0 0 1 4.485-12.362Z" fill="#272727"/><path d="M183.352 183.549h-52.621l6.564-15.316h39.493l6.564 15.316Z" fill="#FFBE3C"/><path d="M277.982 198.635a6.432 6.432 0 0 1-5.907-3.829l-7.33-15.753a6.572 6.572 0 0 1-.226-5.033 6.582 6.582 0 0 1 12.15-.546l7.33 15.753a6.564 6.564 0 0 1-3.172 8.752 6.379 6.379 0 0 1-2.845.656Zm12.909-36.725a6.432 6.432 0 0 1-5.907-3.829l-8.752-18.707a6.582 6.582 0 1 1 11.924-5.579l8.752 18.707a6.561 6.561 0 0 1-3.172 8.752 6.736 6.736 0 0 1-2.845.656Z" fill="#842306"/><path d="m270.981 193.931-8.643 18.707h53.605l5.47-12.034a14.085 14.085 0 0 0-6.066-18.179 14.073 14.073 0 0 0-6.733-1.731h-17.066a22.588 22.588 0 0 0-20.567 13.237Z" fill="#842306"/><path d="M205.451 732.392V714.45h-54.809v81.283a3.868 3.868 0 0 0 3.829 3.829h33.367a3.28 3.28 0 0 0 3.282-3.282v-6.892a2.12 2.12 0 0 1 3.5-1.641l8.205 7.111a18.43 18.43 0 0 0 12.143 4.595h58.748a3.811 3.811 0 0 0 2.834-1.231 3.825 3.825 0 0 0 .995-2.926c-3.72-45.401-72.094-15.283-72.094-62.904Z" fill="#0A273D"/><path d="M98.021 725.828 18.38 689.507 79.095 556.15a141.8 141.8 0 0 0 12.69-58.386V364.921h87.519v156.911a117.293 117.293 0 0 1-10.611 48.792L98.021 725.828Z" fill="#E83452"/><path d="M221.314 364.921h-87.519v362.876h87.519V364.921Z" fill="#E83452"/><path d="M337.057 125.447h-32.272a9.846 9.846 0 0 0-9.08 5.908l-28.444 62.795a5.736 5.736 0 0 0 2.499 7.407 5.732 5.732 0 0 0 2.752.688h38.727l31.179-68.702a5.807 5.807 0 0 0-2.6-7.409 5.817 5.817 0 0 0-2.761-.687Z" fill="#CCC"/><path d="M266.823 197.76a5.66 5.66 0 0 0 5.58 4.485h38.727l31.179-68.702a5.702 5.702 0 0 0-1.751-6.892l-32.272 71.109h-41.463Z" fill="#666"/><path d="M324.367 131.574h-9.846a1.093 1.093 0 1 1 0-2.188h9.846c.146-.01.293.012.43.064a1.034 1.034 0 0 1 .664 1.03 1.095 1.095 0 0 1-1.094 1.094Zm-14.003 0a1.003 1.003 0 0 1-.766-.328c-.109-.11-.218-.219-.218-.329 0-.109-.11-.218-.11-.437a1.003 1.003 0 0 1 .328-.766c.11-.109.219-.219.329-.219a1.19 1.19 0 0 1 1.203.219.996.996 0 0 1 .328.766.65.65 0 0 1-.109.437c-.11.11-.11.219-.219.329a1.009 1.009 0 0 1-.766.328Z" fill="#fff"/><path d="M332.572 160.674a6.575 6.575 0 0 0-5.036-.234 6.58 6.58 0 0 0-2.198 1.332 6.597 6.597 0 0 0-1.518 2.074l-6.454 13.785a13.558 13.558 0 0 1-12.253 7.767h-.328a26.748 26.748 0 0 0-24.724 16.847l-4.048 10.503h39.821l13.347-29.429v-.109l6.454-13.784a6.48 6.48 0 0 0 .318-5.023 6.464 6.464 0 0 0-3.381-3.729Zm-35.883-13.237h-15.315A6.565 6.565 0 0 0 274.81 154a6.946 6.946 0 0 0 1.859 4.595h-.875a6.563 6.563 0 0 0-6.564 6.564 6.949 6.949 0 0 0 1.86 4.595h-.438a6.564 6.564 0 1 0 0 13.128h8.424a6.565 6.565 0 0 0 6.564-6.564 6.949 6.949 0 0 0-1.86-4.595h5.251a6.565 6.565 0 0 0 6.564-6.564 6.948 6.948 0 0 0-1.859-4.595h3.063a6.562 6.562 0 0 0 6.564-6.564 6.671 6.671 0 0 0-6.674-6.563Z" fill="#842306"/><path d="M91.785 273.792v152.863h22.755a6.122 6.122 0 0 0 4.376-1.86l10.831-10.83a6.806 6.806 0 0 1 9.736 0l10.831 10.83a6.126 6.126 0 0 0 4.376 1.86h66.514V273.792a64.787 64.787 0 0 0-64.545-64.764 64.854 64.854 0 0 0-64.873 64.764Z" fill="#0A273D"/><path d="m255.774 227.298-11.268 24.724-17.722-39.384a50.05 50.05 0 0 0-45.729-29.647h-47.151a49.55 49.55 0 0 0-45.4 29.538l-21.005 46.932a167.85 167.85 0 0 0-14.66 68.484v84.018h52.512l.219-82.487a115.825 115.825 0 0 1 10.283-47.698l11.596-26.037a33.254 33.254 0 0 1 30.304-19.691 33.417 33.417 0 0 1 30.194 19.254l29.319 63.342c10.94 23.849 45.072 23.302 55.246-.876l37.524-90.472h-54.262Z" fill="#0A273D"/><path d="M262.338 212.649h53.605l-6.016 14.66h-54.153l6.564-14.66Z" fill="#FFBE3C"/></svg>