<svg class="sinch-icon" xmlns="http://www.w3.org/2000/svg" viewBox="0 0 461 800" fill="none" aria-hidden="true" focusable="false"><path d="M303.044 237.383c7.641 2.883 16.198-.503 19.812-7.824l13.453-27.545a12.775 12.775 0 0 1 6.177-6.04c9.975-4.805 14.184-16.747 9.426-26.722-1.648-3.432-5.079-5.628-8.923-5.719l-25.669-.412a10.162 10.162 0 0 0-9.197 5.628l-3.203 6.634c-1.327 2.746-1.373 5.995 0 8.74l.412.869c1.327 2.791 1.327 6.04-.046 8.785l-10.753 21.826c-4.209 8.373-.228 18.486 8.511 21.78Z" fill="#F2A068"/><path d="M308.031 204.438a5.721 5.721 0 0 1-4.484-2.15c-4.438-5.628-7.412-14.139-8.831-25.303-1.006-8.008-.869-14.459-.869-14.734.092-3.111 2.608-5.582 5.72-5.582h.137c3.157.091 5.628 2.7 5.582 5.857-.137 6.314.824 24.525 7.23 32.624a5.74 5.74 0 0 1-.916 8.053 5.727 5.727 0 0 1-3.569 1.235Z" fill="#F2A068"/><path d="M299.887 195.973c2.105 4.21.137 8.191-1.556 11.714l6.909-.549 4.805-11.851-10.158.686Z" fill="#F0A06C"/><path d="M321.438 201.327a5.604 5.604 0 0 1-3.66-1.373 5.507 5.507 0 0 1-.504-7.778l37.52-42.736a5.508 5.508 0 0 1 7.779-.504 5.508 5.508 0 0 1 .503 7.779l-37.52 42.736a5.509 5.509 0 0 1-4.118 1.876Z" fill="#F2A068"/><path d="m299.338 193.685 33.859 2.288c1.83.138 3.569-.869 4.347-2.471l25.486-52.07c1.464-3.02-.686-6.726-4.118-6.955l-33.859-2.288c-1.831-.137-3.569.87-4.347 2.471l-25.486 52.071c-1.465 3.065.732 6.726 4.118 6.954Z" fill="#272727"/><path d="M337.682 152.917a2.242 2.242 0 1 0 0-4.485 2.242 2.242 0 0 0 0 4.485Z" fill="#CCC"/><path d="M345.46 175.612a5.193 5.193 0 0 1-1.648-.275l-22.283-7.046c-2.928-.915-4.53-4.027-3.615-6.909.916-2.929 4.027-4.53 6.91-3.615l22.283 7.046c2.928.916 4.53 4.027 3.615 6.91-.778 2.379-2.929 3.889-5.262 3.889Z" fill="#F2A068"/><path d="M344.728 185.129a5.18 5.18 0 0 1-1.647-.274l-22.284-7.047c-2.928-.915-4.53-4.026-3.614-6.909.915-2.928 4.026-4.53 6.909-3.614l22.283 7.046c2.928.915 4.53 4.027 3.615 6.909a5.517 5.517 0 0 1-5.262 3.889Z" fill="#F2A068"/><path d="M342.486 194.509a5.727 5.727 0 0 1-2.105-.412l-16.289-6.772c-2.837-1.189-4.164-4.392-2.974-7.229 1.189-2.837 4.392-4.164 7.229-2.974l16.289 6.772c2.837 1.189 4.164 4.392 2.974 7.229-.869 2.105-2.928 3.386-5.124 3.386Z" fill="#F2A068"/><path d="M150.539 559.734c-23.473 0-42.508-19.034-42.508-42.507V341.34c0-23.472 19.035-42.507 42.508-42.507 23.473 0 42.507 19.035 42.507 42.507v175.887c.046 23.473-19.034 42.507-42.507 42.507Z" fill="#FFBE3C"/><path d="M432.991 674.628c3.112 5.628.778 12.766-4.85 15.878l-35.324 19.538c-7.229 3.98-16.014 3.843-23.061-.367-1.235-.732-2.654.641-1.967 1.876l4.255 7.733c.503.915.183 2.105-.732 2.608l-22.283 12.309c-.915.503-2.105.183-2.608-.732l-23.382-42.279 45.253-26.493 10.524 9.929c6.314 5.994 15.74 7.596 23.473 3.661.229-.137.457-.229.732-.366l14.276-7.87a11.439 11.439 0 0 1 8.785-1.007 11.658 11.658 0 0 1 6.909 5.582ZM74.172 723.267c.046 6.452 5.49 11.531 11.942 11.531h40.357c8.236 0 15.877-4.347 20.041-11.485.732-1.235 2.654-.732 2.654.732v8.831c0 1.052.869 1.922 1.922 1.922h25.486c1.052 0 1.922-.87 1.922-1.922v-48.318l-54.999 11.256-3.112 5.353a21.147 21.147 0 0 1-18.256 10.478h-16.29a11.512 11.512 0 0 0-8.19 3.386c-2.196 2.105-3.477 4.988-3.477 8.236Z" fill="#12364C"/><path d="M287.121 555.159c-21.323 9.884-46.58.641-56.463-20.682l-80.165-172.958c-9.883-21.322-.595-46.579 20.682-56.463 21.322-9.883 46.625-.64 56.509 20.682l80.119 172.958c9.883 21.277.64 46.58-20.682 56.463Zm-179.09 142.393V521.666c0-23.473 19.035-42.508 42.508-42.508 23.473 0 42.507 19.035 42.507 42.508v175.886h-85.015Z" fill="#FFBE3C"/><path d="m314.346 697.872-82.911-161.244c-10.203-19.858-1.555-44.658 19.309-55.411 20.911-10.753 46.123-3.386 56.326 16.518l82.91 161.199-75.634 38.938ZM170.031 416.701c-33.219 0-60.124-26.905-60.124-60.124v-26.95H230.2v26.95c-.046 33.173-26.996 60.124-60.169 60.124Z" fill="#FFBE3C"/><path d="M216.199 103.912v26.493c0 13.681-8.42 25.394-20.362 30.29-.549.229-1.098.504-1.601.778-1.876.686-3.524 2.105-4.53 3.844-.503.869-.87 1.83-1.007 2.837a13.128 13.128 0 0 0-.778 4.438v7.458c0 10.249-8.327 18.531-18.531 18.531-10.249 0-18.531-8.327-18.531-18.531v-75.635c0-3.386.503-6.68 1.464-9.792.046-.091.046-.137.046-.228a34.275 34.275 0 0 1 2.882-6.635c.183-.32.367-.595.55-.915.183-.275.32-.55.503-.824.732-1.144 1.556-2.196 2.425-3.203a.996.996 0 0 1 .183-.228c.366-.412.778-.87 1.19-1.282.137-.137.274-.274.411-.457l.687-.686c.183-.184.412-.412.64-.595.183-.183.412-.366.641-.55.32-.274.641-.548 1.007-.823.274-.229.549-.412.777-.595.229-.183.458-.366.733-.503.183-.092.32-.229.503-.32.229-.138.412-.275.64-.412l.687-.412.412-.275c.183-.091.366-.228.594-.32.183-.091.412-.229.595-.32.183-.092.321-.183.504-.275.64-.32 1.326-.64 1.967-.915.183-.091.366-.137.549-.229.686-.274 1.373-.549 2.059-.777a3.37 3.37 0 0 1 .641-.183c.274-.092.503-.138.778-.23a3.39 3.39 0 0 0 .64-.182c.229-.046.458-.092.687-.183.274-.046.503-.138.777-.183.412-.092.824-.138 1.236-.23.503-.09 1.006-.136 1.556-.228.228-.046.457-.046.686-.091.412-.046.823-.092 1.235-.092.138 0 .321 0 .458-.046h1.189c2.014 0 4.027.183 5.949.504.229.045.503.091.732.137.32.046.595.137.915.183 1.784.412 3.523.96 5.17 1.693a32.78 32.78 0 0 1 10.479 7.046c5.079 5.08 8.51 11.805 9.334 19.309.091.732.137 1.51.183 2.288.046.549.046 1.053.046 1.556Z" fill="#F2A068"/><path d="M196.158 73.759a26.303 26.303 0 0 1-3.066 11.805 27.289 27.289 0 0 1-16.518 13.544c-4.484 1.281-7.687 5.307-7.824 9.974v.321c-.138 6.772-5.674 12.217-12.492 12.217h-5.49v-17.205c0-3.386.503-6.68 1.464-9.792.046-.091.046-.137.046-.228a34.275 34.275 0 0 1 2.882-6.635c.183-.32.366-.595.549-.915.183-.275.321-.55.504-.824.732-1.144 1.555-2.196 2.425-3.203a.97.97 0 0 1 .183-.228c.366-.412.778-.87 1.189-1.282a4 4 0 0 0 .412-.457l.686-.686c.229-.184.412-.412.641-.595.229-.183.412-.366.641-.55.32-.274.686-.548 1.006-.823a8.96 8.96 0 0 1 .778-.595c.229-.183.458-.366.732-.503.183-.092.321-.229.504-.32.228-.138.411-.275.64-.412l.686-.412c.138-.092.275-.183.458-.275.183-.091.366-.228.595-.32.183-.091.412-.229.595-.32.183-.092.32-.183.503-.275.641-.32 1.327-.64 1.968-.915.183-.091.366-.137.549-.229a37.39 37.39 0 0 1 2.059-.777c.228-.046.411-.138.64-.183.229-.092.504-.138.778-.23.229-.045.412-.09.641-.182.228-.046.457-.092.686-.183.275-.046.503-.138.778-.183.412-.092.823-.183 1.235-.23.504-.09 1.007-.136 1.556-.228.229-.046.458-.046.686-.091.412-.046.824-.046 1.236-.092.137 0 .32 0 .457-.046h1.19a36.4 36.4 0 0 1 5.948.504c.229.045.504.091.732.137.321.046.595.137.915.183 1.831.503 3.569 1.052 5.217 1.739Z" fill="#842306"/><path d="M215.97 100.16c-9.975-.412-18.531-6.223-22.878-14.55a26.837 26.837 0 0 1-3.066-12.492c0-.411 0-.777.046-1.19.32.047.595.138.915.184 1.785.412 3.523.96 5.171 1.693a32.764 32.764 0 0 1 10.478 7.046c5.079 5.033 8.465 11.76 9.334 19.309Z" fill="#842306"/><path d="M158.089 135.803h-8.099c-3.844 0-7.001-3.111-7.001-7v-10.57c0-3.843 3.111-7.001 7.001-7.001a8.085 8.085 0 0 1 8.099 8.099v16.472Z" fill="#F2A068"/><path d="M196.249 142.027c-3.02 0-5.903-1.373-7.824-3.706a.79.79 0 0 1 .091-1.098.79.79 0 0 1 1.098.091c1.648 1.968 4.027 3.112 6.589 3.112a8.491 8.491 0 0 0 6.589-3.112c.275-.32.778-.412 1.098-.091.321.274.412.778.092 1.098-1.831 2.379-4.713 3.706-7.733 3.706Z" fill="#842306"/><path d="M238.848 214.047c0 .915-.046 1.876-.091 2.837l-8.42 113.932-120.796-.183-5.994-88.355-2.104-28.186c-1.51-20.361 14.596-37.657 34.957-37.657h3.34c6.132 0 11.119-4.987 11.119-11.119h38.939c-.504.87-.87 1.831-1.007 2.837-.046.183-.046.366-.092.549v.046c-.411 4.255 2.7 7.733 6.955 7.733h7.184c20.133.778 36.01 17.479 36.01 37.566Z" fill="#0A273D"/><path d="M134.478 321.62c-5.216 9.014-16.746 12.125-25.76 6.909l-30.886-19.492c-8.556-5.4-11.301-16.61-6.268-25.349 5.353-9.243 17.296-12.217 26.355-6.498l29.65 18.715c9.014 5.17 12.126 16.701 6.909 25.715Z" fill="#F2A068"/><path d="M105.652 335.942c-6.863 0-12.217-1.236-12.491-1.281-2.883-.687-4.713-3.569-4.027-6.452.687-2.883 3.57-4.713 6.452-4.026.137.045 6.36 1.418 13.361.869 8.281-.641 13.726-3.615 16.243-8.877 1.281-2.699 4.484-3.797 7.184-2.516 2.699 1.281 3.797 4.53 2.516 7.183-4.301 8.923-13.086 14.093-25.394 15.008-1.327.046-2.608.092-3.844.092Z" fill="#F2A068"/><path d="M31.939 282.819c-7.504 0-14.916-3.432-19.72-9.975-8.008-10.89-5.72-26.218 5.17-34.226l69.915-51.521c10.89-8.007 26.218-5.72 34.225 5.17 8.008 10.89 5.72 26.219-5.17 34.226L46.444 278.06c-4.393 3.203-9.472 4.759-14.505 4.759Zm164.676-73.256c-.229-7.504 2.974-15.008 9.334-20.041 10.616-8.374 26.036-6.498 34.363 4.118l53.718 68.268c8.373 10.615 6.497 26.035-4.118 34.363-10.615 8.373-26.035 6.497-34.363-4.118l-53.718-68.223c-3.34-4.301-5.079-9.334-5.216-14.367Z" fill="#0A273D"/><path d="m105.011 286.616-16.655 27.729c-2.379 3.98-7.55 5.216-11.484 2.791l-57.47-35.324c-11.53-7.092-15.1-22.146-8.053-33.677 7.092-11.53 22.146-15.099 33.676-8.007l57.195 35.187c3.89 2.333 5.125 7.412 2.791 11.301Zm194.693-82.269 28.003 16.198c3.98 2.333 5.353 7.458 2.974 11.439l-34.409 58.018c-6.909 11.622-21.917 15.466-33.539 8.557-11.622-6.909-15.466-21.917-8.557-33.54l34.226-57.744c2.334-3.935 7.367-5.216 11.302-2.928ZM92.749 183.94c18.988-10.158 32.029-7.825 43.285-7.504 7.961.228 9.838-1.785 11.805-3.432l.458 10.707c1.143 28.048-16.747 53.397-43.606 61.679l-11.942-61.45Zm111.828-7.367c12.903.504 26.31 7.504 31.983 13.178 5.674 5.674 9.106 10.661 9.106 10.661l-11.942 63.876-1.465-.641c-17.433-7.55-37.474-17.707-41.546-46.305-3.157-22.146 13.864-40.769 13.864-40.769Z" fill="#0A273D"/></svg>