<svg class="sinch-icon" xmlns="http://www.w3.org/2000/svg" viewBox="0 0 58 100" fill="none" aria-hidden="true" focusable="false"><path d="M57.61 12.289v-.451h-.451c-.451-.113-9.696-1.015-17.475 2.705C36.866 6.426 29.651.563 29.312.338L28.862 0l-.339.338c-.338.338-7.666 6.088-10.372 14.205C10.372 10.71 1.127 11.725.676 11.838h-.45v.45c-.113.564-1.579 14.657 6.313 22.548 5.637 5.638 14.205 6.427 19.053 6.427h6.764c4.848 0 13.529-.902 19.053-6.426 7.892-7.892 6.314-21.872 6.2-22.548Z" fill="#007171"/><path d="M28.861 28.861C13.078 28.861.338 41.714.338 57.497v13.867C.338 87.148 13.191 100 28.974 100c15.784 0 28.636-12.852 28.636-28.636V57.497c-.113-15.783-12.852-28.636-28.749-28.636Z" fill="#FFD03C"/><path d="M4.284 55.58c1.578 2.255 3.495 5.074 7.44 5.074 3.947 0 5.863-2.819 7.442-5.073 1.465-2.143 2.367-3.27 3.946-3.27 1.69 0 2.593 1.24 3.946 3.27 1.578 2.254 3.494 5.073 7.44 5.073s5.863-2.819 7.441-5.073c1.466-2.143 2.368-3.27 3.946-3.27 1.691 0 2.593 1.24 3.946 3.27 1.578 2.254 3.495 5.073 7.44 5.073v-4.171c-1.69 0-2.592-1.24-3.945-3.27-1.578-2.255-3.495-5.073-7.441-5.073-3.946 0-5.862 2.818-7.44 5.073-1.466 2.142-2.368 3.27-3.947 3.27-1.69 0-2.593-1.24-3.946-3.27-1.578-2.255-3.494-5.073-7.44-5.073s-5.863 2.818-7.441 5.073c-1.466 2.142-2.368 3.27-3.946 3.27-1.691 0-2.593-1.24-3.946-3.27-1.353-1.916-2.931-4.397-5.975-4.96A26.711 26.711 0 0 0 .789 52.31c1.353.226 2.142 1.353 3.495 3.27Zm49.38 22.323c-1.578-2.255-3.495-5.073-7.44-5.073-3.947 0-5.863 2.818-7.441 5.073-1.466 2.142-2.368 3.27-3.946 3.27-1.692 0-2.593-1.24-3.946-3.27-1.579-2.255-3.495-5.073-7.441-5.073-3.946 0-5.863 2.818-7.44 5.073-1.58 2.03-2.481 3.27-4.172 3.27-1.691 0-2.48-1.24-3.946-3.27C6.313 75.648 4.397 72.83.45 72.83v1.578c.113.902.225 1.804.451 2.593 1.466.226 2.255 1.353 3.608 3.27 1.578 2.254 3.495 5.073 7.44 5.073 3.946 0 5.863-2.819 7.441-5.073C20.857 78.129 21.76 77 23.337 77c1.691 0 2.593 1.24 3.946 3.27 1.578 2.254 3.495 5.073 7.44 5.073 3.947 0 5.863-2.819 7.442-5.073C43.63 78.129 44.532 77 46.11 77c1.69 0 2.593 1.24 3.945 3.27 1.015 1.578 2.255 3.269 4.172 4.284a24.463 24.463 0 0 0 1.69-3.946c-.676-.564-1.352-1.466-2.254-2.706Z" fill="#FFBE3C"/></svg>