<svg class="sinch-icon" xmlns="http://www.w3.org/2000/svg" viewBox="0 0 107 100" fill="none" aria-hidden="true" focusable="false"><path d="M98.405 78.365C91.226 46.46 69.093 19.64 39.182 6.58l-.797-.299L.399 93.221c-.698 1.694-.499 3.588.698 4.984C1.994 99.302 3.39 100 4.786 100c.398 0 .698 0 1.096-.1l92.622-20.738-.1-.797Z" fill="#FFBE3C"/><path d="m99.601 78.963-8.873 1.994c-6.381-28.614-25.723-53.04-52.144-65.802-.797-.4-3.29-1.695-3.29-1.695s.997-2.493 1.595-3.69l1.994-4.685C40.778.698 46.261-1.196 50.648.798c26.221 11.665 48.754 36.69 55.733 67.597.997 4.686-1.994 9.471-6.78 10.568Z" fill="#842306"/><path d="M58.824 41.974c-.898-3.888-3.19-7.178-6.58-9.372a15.423 15.423 0 0 0-11.267-1.994c-3.888.898-7.178 3.19-9.372 6.58a15.423 15.423 0 0 0-1.994 11.267c.798 3.888 3.19 7.178 6.58 9.372a15.127 15.127 0 0 0 7.976 2.293c1.097 0 2.194-.1 3.29-.4 8.076-1.694 13.161-9.67 11.367-17.746Zm-3.889 46.162c-1.794-8.076-9.87-13.26-18.046-11.466-3.888.897-7.278 3.19-9.471 6.68a14.766 14.766 0 0 0-1.994 11.366l.2.997 29.41-6.58-.099-.997Z" fill="#E83452"/><path d="M71.286 70.389c-1.794 0-3.19 1.396-3.19 3.19 0 1.795 1.395 3.19 3.19 3.19s3.19-1.395 3.19-3.19c0-1.695-1.395-3.19-3.19-3.19ZM29.312 63.61c-1.795 0-3.19 1.395-3.19 3.19 0 1.794 1.395 3.19 3.19 3.19s3.19-1.396 3.19-3.19c.1-1.695-1.395-3.19-3.19-3.19ZM3.689 86.44h-.3l-2.292 5.185c.598.798 1.495 1.197 2.492 1.197 1.795 0 3.19-1.396 3.19-3.19.1-1.796-1.395-3.191-3.09-3.191Z" fill="#007171"/></svg>