<svg class="sinch-icon" xmlns="http://www.w3.org/2000/svg" viewBox="0 0 566 800" fill="none" aria-hidden="true" focusable="false"><path d="M420.02 18.337c-.632 12.932-10.091 23.907-22.789 26.44l30.367 17.731 1.36-10.284a45.962 45.962 0 0 0-8.938-33.887Z" fill="#842306"/><path d="m320.126 101.947-.059-.005.405.809-.346-.804Z" fill="#2B9B47"/><path d="M408.461 92.695a2.166 2.166 0 0 0-2.769-1.232 2.162 2.162 0 0 0-1.285 2.744c.052.14 4.514 11.651 17.307 12.826l.565-4.288c-10.171-.845-13.645-9.594-13.818-10.05ZM557.98 706.186a21.171 21.171 0 0 0-25.31-11.849l-17.969 5.226a27.83 27.83 0 0 1-21.328-2.412l-87.4 68.81 10.962 34.035 131.212-66.437a21.172 21.172 0 0 0 9.833-27.373Zm-390.872 43.823-7.975-6.066a43.146 43.146 0 0 1-16.698-28.933l-106.47-28.649-11.904 24.262 118.316 74.968a21.69 21.69 0 0 0 32.989-21.707 21.687 21.687 0 0 0-8.258-13.875ZM437.873 73.507l-4.62 7.147a2.165 2.165 0 0 0 3.634 2.348l10.498-16.245a2.164 2.164 0 0 0-3.633-2.347l-3.527 5.459-12.62-7.368-30.369-17.73c12.695-2.54 22.157-13.51 22.789-26.441C412.044 7.78 399.593.674 385.214.045c-24.403-1.068-45.413 17.055-47.938 41.349l-5.36 51.626a46.69 46.69 0 0 1-1.995 9.462c14.811.329 27.52-10.737 29.066-25.596l.761-7.31a27.162 27.162 0 0 1 27.71-24.342l2.075.053 37.459 21.87 10.881 6.35Z" fill="#272727"/><path d="M480.328 681.298 375.005 353.083l-39.309-35.131a13.944 13.944 0 0 0-11.197-3.411 13.935 13.935 0 0 0-9.847 6.328l-38.737 60.968c-15.596 24.544-45.995 35.02-73.315 25.502l-1.065 1.767a18.247 18.247 0 0 1-18.413 8.608 18.251 18.251 0 0 1-6.705-2.455l-1.761-1.073-3.968-2.419L35.964 686.362l106.47 28.648a43.086 43.086 0 0 1 4.74-25.783L279.042 456.16c4.7-8.307 17.002-7.194 20.129 1.833l106.801 307.978 87.397-68.815a27.807 27.807 0 0 1-13.041-15.858Z" fill="#0A273D"/><path d="m69.498 272.297 3.172 1.927 25.097 15.245a52.942 52.942 0 0 1 3.606-6.046l54.946-79.217-18.713-11.436a18.235 18.235 0 0 0-25.116 6.127l-42.74 70.722-1.251 2.07.712.433.287.175Zm194.601-2.21-11.684-7.14-43.474-26.572-45.161 71.16-6.05 9.532 13.993 4.347a60.783 60.783 0 0 0 39.089-1.029 60.766 60.766 0 0 1 32.129-2.749l3.063.564a22.626 22.626 0 0 1 8.277 3.303l15.93-26.452a18.236 18.236 0 0 0-6.112-24.964Zm-30.891 37.765-31.626-19.333-2.984-1.824 14.227-23.274 17.45 10.667 17.162 10.49-14.229 23.274Zm-60.082 71.795-44.393-16.885-3.157-1.202c-27.888-10.609-40.403-41.87-29.634-68.13L69.04 277.083l-1.636-.987-.105-.062-1.045-.637-.186.309-.17.282-.495.817-21.843 36.139a18.233 18.233 0 0 0 6.11 24.999l121.017 73.821 3.968 2.421 1.762 1.073a18.237 18.237 0 0 0 20.308-.882 18.245 18.245 0 0 0 4.81-5.278l1.065-1.767 8.04-13.341a31.94 31.94 0 0 1-4.352-1.329l-33.163-13.014Zm380.93-302.913a7.651 7.651 0 0 0-10.721 1.446l-52.54 68.914-16.48 21.616-1.702 2.232a7.647 7.647 0 0 0 12.163 9.273l1.797-2.357 3.153-4.135a32.304 32.304 0 0 1 2.155-3.253l1.927-2.539 51.062-67.284c-.01.043-.018.091-.03.132l5.542-7.36a8.128 8.128 0 0 1 1.975-1.834l3.14-4.12a7.644 7.644 0 0 0 .537-8.49 7.655 7.655 0 0 0-1.978-2.24Z" fill="#E83452"/><path d="M376.281 147.506a17.052 17.052 0 0 1 4.918-8.419l-28.641 23.094-4.462-22.215a13.898 13.898 0 0 0-6.938-9.45l-20.735-11.382a46.908 46.908 0 0 1-11.791 9.592l19.245 91.745 50.834-59.265a17.16 17.16 0 0 1-2.445-13.645l.015-.055ZM212.825 263.418l-14.226 23.278 2.983 1.823 31.629 19.333 14.227-23.277-17.163-10.49-17.45-10.667Z" fill="#fff"/><path d="m533.525 238.384-51.528 2.046-.24 3.911-2.917 47.828-55.536-88.706a106.266 106.266 0 0 0-32.849-33.067l-1.628-1.036-5.087-3.234a17.122 17.122 0 0 1-5.031-4.913l-50.833 59.264-19.246-91.744a46.516 46.516 0 0 1-23.176 6.159h-24.225a108.596 108.596 0 0 0-89.231 46.702l-15.685 22.613-54.945 79.216a52.962 52.962 0 0 0-3.607 6.046 51.7 51.7 0 0 0-1.82 3.956c-10.768 26.266 1.747 57.527 29.635 68.13l3.156 1.202 28.999-45.695 6.05-9.532 45.16-71.16 43.475 26.572 11.683 7.14a18.234 18.234 0 0 1 6.113 24.967l-15.932 26.458c9.674 6.318 13.492 19.537 7.179 30.379l-15.762 27.067c-7.183 12.335-21.515 18.247-35.065 15.038l-8.04 13.341c27.32 9.518 57.718-.956 73.315-25.501l38.745-60.962a13.941 13.941 0 0 1 9.848-6.329 13.93 13.93 0 0 1 11.199 3.412l39.309 35.131-14.246-44.416c-1.5-4.672-.893-9.874 2.007-13.831 5.521-7.538 16.464-8.197 22.851-1.477l3.216 3.386 65.647 69.042c31.398 33.022 87.059 12.046 88.854-33.485l3.722-94.451-13.534.533Z" fill="#007171"/><path d="M387.454 45.228a27.163 27.163 0 0 0-27.711 24.344l-.76 7.31c-1.551 14.86-14.246 25.925-29.066 25.597a46.55 46.55 0 0 1-9.496 16.658l20.736 11.382a13.904 13.904 0 0 1 6.937 9.451l4.46 22.213 28.644-23.102a17.068 17.068 0 0 1 10.861-4.607c14.952-.716 27.52-11.38 29.481-26.223l.162-1.225c-12.792-1.175-17.255-12.688-17.307-12.826a2.16 2.16 0 0 1 1.285-2.744 2.164 2.164 0 0 1 2.768 1.232c.174.457 3.648 9.205 13.824 10.05l4.706-35.592-37.449-21.867-2.075-.05ZM254.28 321.506a22.616 22.616 0 0 0-8.277-3.303l-3.064-.564a60.763 60.763 0 0 0-32.128 2.749 60.783 60.783 0 0 1-39.089 1.029l-13.993-4.347-28.997 45.692 44.393 16.886 33.157 13.014a32.21 32.21 0 0 0 4.351 1.329c13.55 3.209 27.883-2.703 35.065-15.038l15.762-27.068c6.314-10.841 2.495-24.061-7.18-30.379ZM561.445 91.61a8.18 8.18 0 0 0-11.058 1.808l-5.542 7.36c.011-.041.019-.089.029-.131l-51.062 67.283-1.927 2.539a32.59 32.59 0 0 0-2.155 3.253c-.198.337-.412.666-.598 1.009l-3.253 4.31a33.415 33.415 0 0 0-4.772 31.424c.05.142.09.283.141.424a33.398 33.398 0 0 1 1.769 12.92l-1.016 16.622 51.528-2.045v-32.537a194.554 194.554 0 0 1 6.247-48.93l5.194-19.983a63.441 63.441 0 0 1 10.09-21.347l8.402-12.431a8.145 8.145 0 0 0 1.44-6.201 8.147 8.147 0 0 0-3.457-5.346ZM65.898 275.982l.17-.282.187-.309 1.045.636.105.062 1.636.988 26.9 16.341a53.12 53.12 0 0 1 1.82-3.956l-25.096-15.239-3.167-1.927-.282-.174-.713-.433 1.252-2.07 3.128-33.406A14.464 14.464 0 0 0 62.09 220.84a14.478 14.478 0 0 0-6.75-.112 14.466 14.466 0 0 0-9.322 21.464l12.676 21.545-6.488-5.573A60.424 60.424 0 0 0 2.6 244.362a2.155 2.155 0 0 0-1.403.879 2.166 2.166 0 0 0 .51 3.017 2.162 2.162 0 0 0 1.614.369 56.122 56.122 0 0 1 46.063 12.817l9.77 8.395-27.03-6.133a12.725 12.725 0 0 0-13.757 5.951 12.718 12.718 0 0 0 10.92 19.178 12.815 12.815 0 0 0 4.275-.74l31.844-11.296.491-.817ZM49.75 240a10.138 10.138 0 0 1 3.14-13.596 10.134 10.134 0 0 1 13.101 1.629 10.143 10.143 0 0 1 2.596 7.775l-2.944 31.21L49.75 240Zm-17.632 44.018a8.387 8.387 0 0 1-9.694-3.125 8.395 8.395 0 0 1 3.328-12.384 8.389 8.389 0 0 1 3.531-.795c.635 0 1.268.072 1.887.213l28.242 6.408-27.294 9.683Z" fill="#842306"/></svg>