<svg class="sinch-icon" xmlns="http://www.w3.org/2000/svg" viewBox="0 0 333 800" fill="none" aria-hidden="true" focusable="false"><path d="M171.014 194.231a3.079 3.079 0 0 0-2.176 5.253 3.078 3.078 0 1 0 2.176-5.253Z" fill="#E9F0FF"/><path d="M172.163 100.957a1.856 1.856 0 0 0-2.602.334 12.66 12.66 0 0 1-2.717 2.598 12.436 12.436 0 0 1-4.934 2.097 12.72 12.72 0 0 1-2.36.239c-.195 0-.388-.008-.586-.016-.06 0-.121 0-.181-.009a12.754 12.754 0 0 1-6.53-2.311 12.705 12.705 0 0 1-2.508-2.327 1.854 1.854 0 0 0-2.886 2.327c0 .004.006.009.009.014a16.482 16.482 0 0 0 2.218 2.241c.28.234.573.448.867.661a15.675 15.675 0 0 0 8.048 3.036c.107.01.212.034.319.042.365.028.732.045 1.101.048h.12c.299 0 .595-.016.891-.033a16.177 16.177 0 0 0 6.525-1.74c.06-.031.116-.07.177-.102a16.351 16.351 0 0 0 5.069-4.17c.093-.116.197-.218.289-.335a1.857 1.857 0 0 0-.329-2.594Z" fill="#842306"/><path d="m229.035 93.626-15.958-19.01c-6.811-9.802-10.104-18.816-12.413-28.997l-3.732-16.466h-.011C192.901 12.428 177.854 0 159.901 0c-17.629 0-32.454 11.982-36.795 28.244h-.006l-6.05 20.78c-1.994 6.85-5.677 12.66-11.022 22.948L87.38 95.89h.007a40.943 40.943 0 0 0-9.66 26.468c0 14.679 7.698 27.553 19.272 34.827l5.822-2.011 4.157-1.436 7.078-2.445 11.29-3.9c11.099-3.834 18.023-15.326 15.576-27.43a22.372 22.372 0 0 0-.895-3.084c-.525-1.17-1.728-3.789-2.697-5.406a663.08 663.08 0 0 1-2.288-3.853c-.041-.072-.083-.139-.127-.211-.043-.072-.084-.137-.119-.207-.053-.097-.103-.195-.157-.291a179.674 179.674 0 0 1-3.037-5.768 172.737 172.737 0 0 1-4.231-9.057 181.68 181.68 0 0 1-3.679-9.177l1.961-1.087 8.669-4.812.269-.15 4.09-2.27 3.479-1.931.819-.455 11.457-6.355 20.399-11.323 10.651 11.764.216.24 3.236 3.576 4.069 4.496 3.469 3.839-1.077 3.024-.586 1.655a119.21 119.21 0 0 1-3.316 9.254 120.93 120.93 0 0 1-4.331 9.515c-.294.576-.598 1.147-.901 1.719a123.583 123.583 0 0 1-1.715 3.137c-.167.298-.34.595-.509.892v.005l-.07.113c-.133.235-.265.47-.402.703-.021.035-.044.069-.066.104-.014.023-.029.043-.043.065-.28.492-.628 1.128-.991 1.855-.812 1.622-1.81 3.727-2.384 5.283l-.173.45a23.663 23.663 0 0 0-1.125 3.748c-2.447 12.109 4.478 23.6 15.576 27.435l11.279 3.897a53.372 53.372 0 0 1-.001 0l16.265 5.618c11.332-7.321 18.84-20.055 18.84-34.55 0-11.184-4.473-21.319-11.717-28.732l.006-.005Zm-103.702 5.721a4.945 4.945 0 0 1 1.855 3.492c.01.128.023.255.023.386a4.953 4.953 0 0 1-9.905 0 5.006 5.006 0 0 1 4.392-4.919 4.904 4.904 0 0 1 3.635 1.041Zm75.53 3.878a4.995 4.995 0 1 1-9.99.066 4.995 4.995 0 0 1 9.99-.069v.003Z" fill="#842306"/><path d="m92.74 243.154 9.534-83.167.551-4.811-5.822 2.011-6.356 2.197a64.456 64.456 0 0 0-38.4 35.336l-37.184 85.483L3.29 307.275c-15.195 34.938 25.445 67.588 56.29 45.222l22.506-16.322 3.671-2.663-1.915-12.667-4.32-28.574-16.956 9.848 11.215-21.916 18.96-37.049Zm122.68-1.774-5.52-2.713-1.225-.603-.084-.042-.007-.014a22.207 22.207 0 0 1-11.391-19.344c0-.697.042-1.383.104-2.063l-.007-.014.016-.15.009-.078 1.195-11.405-9.488 8.56-3.146 2.843v55.3a7.154 7.154 0 0 1-3.052 5.86l-11.638-7.985a5.342 5.342 0 0 1-3.704 8.162l1.64 1.125 2.017 1.384 22.096 15.162.92-1.338a7.192 7.192 0 0 0 .099-7.998 7.207 7.207 0 0 0-1.962-2.01l-5.553-3.811h24.586a28.95 28.95 0 0 1 4.403-7.777l.151-.193c3.733-4.788 7.259-12.223 8.286-23.569a24.34 24.34 0 0 0-8.745-7.289Z" fill="#FFBE3C"/><path d="m293.102 287.407-6.93-12.908a40.166 40.166 0 0 1 18.889 1.975l-28.652-61.232-.232-.502-8.71-20.025a64.47 64.47 0 0 0-38.399-35.336l-7.162-2.474-16.265-5.619a53.4 53.4 0 0 1-9.663 12.013c-9.477 8.807-22.171 14.197-36.126 14.197a52.944 52.944 0 0 1-36.253-14.305 53.428 53.428 0 0 1-9.539-11.897l-7.078 2.446-.884 7.709-10.28 89.711c1.287 9.951 4.561 16.647 8.013 21.074a22.58 22.58 0 0 0 .539-1.539c.017-.06.043-.117.061-.176 1.265-4.119 3.837-7.77 7.468-10.092.236-.151.46-.317.688-.478.191-.135.385-.265.57-.406.186-.142.372-.301.557-.453.185-.152.36-.288.532-.441.172-.153.349-.329.522-.494.173-.166.334-.313.495-.477.161-.164.324-.356.486-.535.161-.178.308-.334.455-.507.155-.187.298-.382.447-.575.138-.178.282-.352.413-.535.144-.2.274-.41.41-.615.122-.186.251-.367.366-.556.134-.219.251-.447.377-.669.104-.187.215-.369.312-.56.146-.284.275-.578.407-.87.061-.138.131-.27.189-.409l1.133-2.691c2.249-5.352 8.53-7.542 13.563-4.99V191.77a7.164 7.164 0 0 1 7.162-7.162h37.731a7.163 7.163 0 0 1 7.162 7.162v5.146l9.552-10.004h.008a27.062 27.062 0 0 1 19.599-8.371c14.258 0 25.94 10.989 27.062 24.958h.008l.739 9.085.04.489a49.42 49.42 0 0 0 6.647 20.863l6.797 11.451-20.059 26.919 10.359 21.809.205.43c.089.19.215.453.358.753l.397.836c.162.342.334.712.534 1.125l.189.398.931 1.959.018.04 2.776 5.842 1.935 4.084.21.442 2.206 4.645 1.192 2.508.444.937.748 1.574.151.318.401.843.084.168c.28.589.525 1.104.716 1.509 1.807 3.804 3.345 6.401 4.079 7.582v.066c.118.172.241.339.363.508.065.099.101.151.101.151l.004-.005c8.491 11.585 24.355 15.767 37.692 9.115 8.994-4.488 14.77-12.887 16.274-22.13a27.6 27.6 0 0 0 .186-3.148c-.001-14.522-11.399-26.43-25.72-27.258Z" fill="#FFBE3C"/><path d="M164.563 209.463a5.606 5.606 0 0 0-9.565-3.962 5.6 5.6 0 0 0-1.215 6.106 5.608 5.608 0 0 0 9.139 1.818 5.603 5.603 0 0 0 1.641-3.962Zm.765 82.737a5.904 5.904 0 0 1-7.599 1.594l-.26-.149-.203-.116 12.002 8.234-2.867 4.182-22.29-15.293a28.718 28.718 0 0 1-2.571 8.592l27.403 18.8a7.195 7.195 0 0 0 10.016-1.866l7.901-11.516-20.661-14.175a5.847 5.847 0 0 1-.871 1.713Z" fill="#FFBE3C"/><path d="M218.325 773.759a53.47 53.47 0 0 1-8.976-43.122l7.867-35.3H171.04c.733 7.642 1.433 15.45 2.039 22.495a88.742 88.742 0 0 1-9.522 48.262l-3.801 7.38C153.519 785.583 162.31 800 175.931 800h34.918c11.064 0 17.45-12.556 10.934-21.498l-3.458-4.743Z" fill="#0A273D"/><path d="M151.637 766.094a88.742 88.742 0 0 1-9.522-48.262c.607-7.044 1.306-14.852 2.039-22.495H97.978l7.867 35.3a53.45 53.45 0 0 1-8.976 43.12l-3.46 4.746c-6.516 8.941-.13 21.498 10.934 21.498h34.918c13.622 0 22.412-14.417 16.176-26.526l-3.8-7.381ZM305.06 276.473a40.152 40.152 0 0 0-18.889-1.974l6.93 12.907c14.321.828 25.719 12.736 25.719 27.262a27.831 27.831 0 0 1-.187 3.148 28.582 28.582 0 0 1-.286 1.946 6.604 6.604 0 0 0 2.88 6.757 6.612 6.612 0 0 0 10.113-4.31c.466-2.487.7-5.011.7-7.541 0-17.599-11.276-32.605-26.98-38.195Zm-23.706 87.601c.925-5.331-3.178-10.209-8.591-10.209H264.2V330.11c-.735-1.181-2.271-3.777-4.078-7.581l-.015-.03-.702-1.48-.084-.167-.4-.843-.152-.319a987.32 987.32 0 0 0-.747-1.573l-.444-.937-1.193-2.509-2.206-4.644-.208-.445-1.936-4.076a40.49 40.49 0 0 0-1.057 9.163v39.197h-8.563c-5.412 0-9.516 4.878-8.591 10.209l4.412 25.422 6.573 37.882a174.115 174.115 0 0 1-3.072 73.703 187.298 187.298 0 0 0-3.128 80.298l12.602 70.347.888 4.953a97.193 97.193 0 0 1 1.522 17.135v29.252a3.972 3.972 0 0 0 2.449 3.665 3.972 3.972 0 0 0 3.036 0 3.962 3.962 0 0 0 2.146-2.147c.2-.481.302-.997.302-1.518v-29.252c0-5.746.51-11.481 1.523-17.137l.887-4.951 12.603-70.35a187.267 187.267 0 0 0 .538-62.803 192.94 192.94 0 0 0-3.664-17.497 174.094 174.094 0 0 1-3.073-73.702l10.986-63.301ZM86.44 333.017l-.682.495-3.67 2.662-3.313 28.935c-33.718 5.207-59.533 34.351-59.533 69.528 0 24.305 12.324 45.731 31.064 58.371l38.755-128.714a71.155 71.155 0 0 0-6.242.319l3.622-31.596Zm6.05-52.813 3.328-29.044 10.277-89.71.884-7.71-4.157 1.436-.551 4.811-9.528 83.167-4.244 37.05-.84 7.343 4.276-2.485.556-4.858Zm60.726-23.196 4.253 2.835 4.767 3.177 7.41 4.941c.616.41 1.139.945 1.536 1.569l11.638 7.984a7.142 7.142 0 0 0 3.053-5.859v-79.886a7.167 7.167 0 0 0-7.163-7.162h-37.728a7.16 7.16 0 0 0-5.064 2.098 7.17 7.17 0 0 0-2.097 5.064v52.396c.354.179.697.378 1.028.597l18.367 12.246Zm17.796-62.778a3.077 3.077 0 1 1-.003 6.154 3.077 3.077 0 0 1 .005-6.154h-.002Zm-12.056 9.625a5.6 5.6 0 0 1 5.177 3.459 5.597 5.597 0 0 1 .318 3.237 5.608 5.608 0 0 1-7.639 4.084 5.601 5.601 0 0 1-1.818-9.139 5.607 5.607 0 0 1 3.962-1.641Zm27.9 100.808 6.38-9.297-22.097-15.161-2.017-1.384-1.64-1.124a5.34 5.34 0 0 1-3.583-.722l-1.659-1.014-4.767-2.913-16.451-10.049a1.701 1.701 0 0 0-1.89 2.828l17.813 12.994.526.385 1.37 1.004 3.4 2.48 1.833 1.338a5.831 5.831 0 0 1 2.122 6.467l20.66 14.168Z" fill="#0A273D"/><path d="M125.333 99.347a4.947 4.947 0 0 0-6.169.02 4.952 4.952 0 1 0 6.97 6.943 4.952 4.952 0 0 0 1.077-3.085c0-.131-.013-.258-.023-.386a4.942 4.942 0 0 0-1.855-3.492Zm72.084-.843a4.994 4.994 0 1 0 2.555 1.901 4.95 4.95 0 0 0-2.555-1.901Zm-40.15 195.021-4.003-2.298-8.899-5.11a28.679 28.679 0 0 1-.251 4.528l22.291 15.293 2.866-4.181-12.002-8.235-.002.003Z" fill="#fff"/><path d="M241.736 501.079a174.116 174.116 0 0 0 3.072-73.703l-6.573-37.882-20.331-67.513-7.24-24.045c-1.78-5.91-1.461-12.113.659-17.736h-24.588l5.553 3.811a7.207 7.207 0 0 1 3.005 4.618 7.197 7.197 0 0 1-1.142 5.39l-.92 1.338-6.379 9.299-7.894 11.522a7.203 7.203 0 0 1-7.427 2.97 7.2 7.2 0 0 1-2.581-1.107l-27.403-18.8a28.676 28.676 0 0 1-5.482 7.791l-.268.271c-4.379 4.432-10.077 7.369-16.253 8.206-.454.062-.903.146-1.354.222-.358.06-.718.11-1.074.179-.44.084-.874.19-1.311.288-.334.075-.669.14-1.003.223-.449.111-.892.243-1.338.369-.315.088-.633.167-.945.264-.462.141-.92.303-1.374.46-.287.099-.579.187-.865.292-.479.175-.95.371-1.422.563-.257.105-.519.199-.775.308-.513.219-1.016.46-1.52.699-.208.098-.418.187-.626.288-.603.298-1.196.615-1.785.939-.101.056-.207.106-.309.163-.689.388-1.369.793-2.039 1.218l-12.742 42.314-38.76 128.713-36.795 122.177c-5.48 18.204 8.152 36.539 27.156 36.539h210.548l-12.603-70.35a187.298 187.298 0 0 1 3.128-80.298Zm35.371 17.497a187.293 187.293 0 0 1-.538 62.803l-12.603 70.348h15.08c19.009 0 32.636-18.335 27.154-36.537l-29.093-96.614Z" fill="#007171"/><path d="M170.261 687.413c.263 2.593.524 5.25.782 7.925h46.176l9.721-43.611h-59.133c.516 11.142 1.302 24.367 2.454 35.686Zm-72.283 7.925h46.177c.257-2.676.518-5.331.782-7.925 1.149-11.319 1.933-24.544 2.451-35.686h-59.13l9.72 43.611Zm25.621-532.146a52.948 52.948 0 0 0 36.252 14.309c13.96 0 26.653-5.391 36.127-14.197a53.423 53.423 0 0 0 9.663-12.013l-11.279-3.897c-11.098-3.834-18.023-15.326-15.575-27.434.27-1.279.646-2.533 1.124-3.749l.173-.449c.574-1.557 1.572-3.661 2.384-5.284.363-.726.711-1.363.991-1.855.014-.021.029-.042.043-.065.022-.035.045-.068.066-.104.137-.233.269-.468.403-.703l.069-.113v-.005c.167-.297.34-.593.509-.892a130.21 130.21 0 0 0 1.715-3.137c.303-.572.608-1.143.901-1.719a120.691 120.691 0 0 0 4.331-9.515 124.059 124.059 0 0 0 3.317-9.254l.585-1.655 1.079-3.02-3.469-3.839-4.068-4.496-3.236-3.576-.216-.24-10.652-11.771-20.399 11.322-11.457 6.356-.82.455-3.479 1.932-4.086 2.268-.27.15-8.669 4.815-1.961 1.087a167.954 167.954 0 0 0 3.679 9.178 177.656 177.656 0 0 0 4.231 9.056c.457.907.922 1.811 1.395 2.71a179.765 179.765 0 0 0 1.642 3.059c.054.096.104.194.158.291.038.069.079.137.118.206.04.07.084.14.127.212.43.728 1.363 2.307 2.288 3.852.969 1.618 2.175 4.237 2.697 5.407.372 1.005.671 2.036.895 3.084 2.447 12.107-4.477 23.6-15.576 27.429l-11.289 3.9a53.424 53.424 0 0 0 6.844 9.192 51.44 51.44 0 0 0 2.695 2.712Zm25.501-57.043a16.488 16.488 0 0 1-2.219-2.241c0-.005-.006-.01-.009-.014a1.855 1.855 0 0 1 2.886-2.328 12.68 12.68 0 0 0 2.508 2.328 12.766 12.766 0 0 0 6.522 2.311c.061 0 .122.005.182.008.193.009.386.016.585.016a12.646 12.646 0 0 0 2.361-.238 12.462 12.462 0 0 0 4.934-2.097 12.731 12.731 0 0 0 2.717-2.598 1.856 1.856 0 0 1 2.94 2.258c-.091.118-.196.22-.288.335a16.344 16.344 0 0 1-5.07 4.17c-.06.032-.116.071-.176.102a16.184 16.184 0 0 1-6.525 1.74c-.297.017-.593.033-.891.033h-.12c-.369 0-.736-.02-1.101-.048-.108-.008-.212-.032-.319-.042a15.678 15.678 0 0 1-8.049-3.036 13.827 13.827 0 0 1-.872-.659h.004Zm97.497 121.953a48.604 48.604 0 0 1-3.713-15.024l-.039-.489-.74-9.085h-.008c-1.121-13.965-12.804-24.957-27.062-24.957a27.063 27.063 0 0 0-19.602 8.368h-.007l-9.552 10.004v19.434l3.146-2.843 9.487-8.56-1.195 11.405-.008.078-.016.15.007.013c-.062.68-.104 1.367-.104 2.064a22.206 22.206 0 0 0 11.391 19.344l.007.014.084.042 1.227.607 5.52 2.717a24.805 24.805 0 0 1 11.493 11.917l9.329 19.042.024-.032 20.059-26.918-6.797-11.452a48.554 48.554 0 0 1-2.931-5.839Zm-75.412 41.43a5.302 5.302 0 0 0-1.536-1.568l-7.41-4.941-4.767-3.178-4.253-2.835-18.37-12.247a10.123 10.123 0 0 0-1.029-.597c-5.029-2.553-11.313-.361-13.563 4.989l-1.133 2.692c-.058.138-.128.27-.189.408-.132.292-.261.585-.406.87-.097.191-.208.373-.312.56-.125.224-.244.452-.377.669-.116.189-.245.37-.367.556-.136.205-.266.418-.409.615-.132.183-.276.357-.413.535-.149.193-.292.388-.448.575-.146.174-.303.334-.455.508-.152.173-.318.361-.486.534-.168.173-.329.318-.495.477-.165.158-.342.334-.522.494-.179.159-.353.295-.531.441-.179.147-.367.308-.557.453-.191.144-.38.272-.571.406-.167.116-.323.239-.491.35a18.861 18.861 0 0 0-7.665 10.22c-.018.059-.043.116-.061.176-.155.524-.347 1.032-.538 1.539a22.752 22.752 0 0 1-9.815 11.617l-2.082 1.209-4.276 2.485-8.136 4.727 4.32 28.575 1.916 12.667.682-.495 13.074-9.484a45.036 45.036 0 0 1 4.328-2.768c.102-.056.207-.107.308-.163a45.186 45.186 0 0 1 1.786-.939c.205-.101.418-.19.625-.287.502-.24 1.004-.48 1.52-.699.256-.11.518-.204.776-.308.471-.193.942-.388 1.421-.564.286-.104.578-.193.866-.292.456-.157.911-.318 1.373-.46.313-.096.63-.175.945-.264.444-.125.887-.257 1.338-.369.334-.083.669-.148 1.003-.223.437-.098.872-.202 1.312-.288.355-.068.715-.118 1.073-.179.394-.066.786-.142 1.182-.198 6.229-.87 12-3.761 16.426-8.229l.267-.271a28.788 28.788 0 0 0 8.304-20.913l12.9 7.405.202.117.26.149a5.833 5.833 0 0 0 7.777-1.895 5.831 5.831 0 0 0-1.433-7.875l-1.833-1.338-3.4-2.481-1.37-1.003-.526-.385-17.812-12.995a1.703 1.703 0 0 1 1.889-2.828l16.445 10.055 4.767 2.913 1.659 1.014a5.345 5.345 0 0 0 7.287-7.443l.006.002Z" fill="#F2A068"/></svg>