<svg class="sinch-icon" xmlns="http://www.w3.org/2000/svg" viewBox="0 0 530 400" fill="none" aria-hidden="true" focusable="false"><path d="M122.323 0H17.418C9.116 0 2.323 6.792 2.323 15.094v101.887c0 8.302 6.793 15.094 15.095 15.094h104.905c8.302 0 15.095-6.792 15.095-15.094V15.094C137.418 6.792 130.625 0 122.323 0Z" fill="#FFBE3C"/><path d="M228.738 132.075H32.512c-16.604 0-30.189 13.585-30.189 30.189v10.944h256.604v-10.944c0-16.792-13.585-30.189-30.189-30.189Zm-92.264 268.114c40.119 0 72.641-32.523 72.641-72.642 0-40.119-32.522-72.641-72.641-72.641-40.119 0-72.642 32.522-72.642 72.641 0 40.119 32.523 72.642 72.642 72.642Z" fill="#0A273D"/><path d="M136.474 366.415c21.466 0 38.868-17.402 38.868-38.868s-17.402-38.868-38.868-38.868-38.868 17.402-38.868 38.868 17.402 38.868 38.868 38.868Z" fill="#E5E8ED"/><path d="M444.776 67.736v41.509a20.695 20.695 0 0 0 20.755-20.755c0-11.509-9.434-20.754-20.755-20.754Z" fill="#FFBE3C"/><path d="M134.776 6.604c-1.132-1.51-2.453-3.02-3.962-3.963L69.87 62.075 9.116 2.641c-1.699.944-3.02 2.265-4.151 3.963l60.754 59.434-60.754 59.434c1.132 1.509 2.452 3.018 3.962 3.962L69.87 70l60.755 59.434c1.509-1.132 3.019-2.453 3.962-3.962L74.021 66.038l60.755-59.434Z" fill="#F2A068"/><path d="M445.531 400.189c40.118 0 72.641-32.523 72.641-72.642 0-40.119-32.523-72.641-72.641-72.641-40.119 0-72.642 32.522-72.642 72.641 0 40.119 32.523 72.642 72.642 72.642Z" fill="#0A273D"/><path d="M445.531 366.415c21.466 0 38.867-17.402 38.867-38.868s-17.401-38.868-38.867-38.868c-21.467 0-38.868 17.402-38.868 38.868s17.401 38.868 38.868 38.868Z" fill="#E5E8ED"/><path d="M445.531 243.396c-3.963 0-7.736.378-11.51.755l-31.509-113.208c-.566-2.264-.189-4.717 1.321-6.603 1.509-1.887 3.584-3.019 6.037-3.019h25.095c6.037 0 10.943-4.906 10.943-10.944V66.981c0-6.038-4.906-10.943-10.943-10.943h-23.208c-19.623 0-35.66 16.038-35.66 35.66v146.038c0 32.264-26.227 58.679-58.68 58.679h-.754c-31.887-.377-57.736-26.604-57.736-58.491v-64.905H2.323v1.132c0 16.604 13.585 30.189 30.189 30.189h33.585a142.887 142.887 0 0 0-25.85 20.943C16.664 249.811 1.947 283.208.06 317.358c-.189 3.019.943 6.038 3.019 8.114 2.075 2.264 5.094 3.585 8.302 3.585H520.06a9.133 9.133 0 0 0 6.792-3.019c1.699-1.887 2.642-4.529 2.265-6.981-4.34-43.208-40.378-75.661-83.585-75.661Z" fill="#059688"/><path d="M240.813 218.491h-34.339c-1.51 0-2.83-1.321-2.83-2.831 0-1.509 1.32-2.83 2.83-2.83h34.339c1.51 0 2.831 1.321 2.831 2.83 0 1.51-1.133 2.831-2.831 2.831Zm0-12.076h-34.339c-1.51 0-2.83-1.321-2.83-2.83 0-1.51 1.32-2.83 2.83-2.83h34.339c1.51 0 2.831 1.32 2.831 2.83 0 1.509-1.133 2.83-2.831 2.83Zm0-12.264h-34.339c-1.51 0-2.83-1.321-2.83-2.83 0-1.51 1.32-2.831 2.83-2.831h34.339c1.51 0 2.831 1.321 2.831 2.831 0 1.509-1.133 2.83-2.831 2.83Z" fill="#007171"/><path d="M386.663 79.056h-47.17c-5.283 0-9.434 4.151-9.434 9.434 0 5.284 4.151 9.434 9.434 9.434h47.17c5.283 0 9.434-4.15 9.434-9.434 0-5.282-4.151-9.433-9.434-9.433Z" fill="#0A273D"/><path d="M198.738 259.434c-16.981-16.038-39.057-24.717-62.453-24.717-40 0-74.905 25.66-86.792 63.773-2.642 8.68-4.151 17.736-4.151 26.982v3.396h5.66v-3.396c0-8.68 1.32-17.17 3.774-25.283 11.132-35.849 43.773-59.812 81.321-59.812 21.886 0 42.641 8.302 58.49 23.208 17.17 16.226 26.793 38.302 26.793 61.887v3.396h5.66v-3.396c.189-25.095-9.811-48.68-28.302-66.038Z" fill="#007171"/></svg>