<svg class="sinch-icon" xmlns="http://www.w3.org/2000/svg" viewBox="0 0 446 800" fill="none" aria-hidden="true" focusable="false"><path d="m282.172 276.841-38.489-66.084 35.746-22.424s30.839 46.562 46.245 69.83a24.088 24.088 0 0 1 .343 26.091c-17.464 27.884-56.639 90.486-56.639 90.486l-16.04-28.227 28.834-69.672Z" fill="#FFE1CC"/><path d="m272.543 374.477.026-23.769c0-1.319-13.691-9.023-13.559-8.047 0 0 3.192 18.546 5.17 30.127a21.829 21.829 0 0 0 9.26 14.352c1.952 1.319 3.931 2.664 5.434 3.667a3.922 3.922 0 0 0 4.986-.475c.607-.607.95-1.451.95-2.322a3.34 3.34 0 0 0-.95-2.321c-3.904-3.799-11.317-11.212-11.317-11.212ZM99.854 726.081c-.106.343-.053.158 0 0Z" fill="#FFE1CC"/><path d="M79.356 761.088c10.79-3.561 17.886-15.354 21.157-26.46 3.166-10.737 3.351-29.309 3.139-38.384l.027-18.282h46.404v67.746s-17.438 29.256-21.896 29.256h-6.833l-37.566 1.135h-.238a8.104 8.104 0 0 1-7.756-5.804c-1.055-3.509.08-8.046 3.562-9.207Z" fill="#FFE1CC"/><path d="m133.252 746.632 4.036-6.094a16.443 16.443 0 0 1 12.927-7.308v39.598a1.92 1.92 0 0 1-1.926 1.926h-4.828c-2.902 5.461-7.386 8.073-14.061 8.073H83.471c-6.832 0-12.346-5.54-12.346-12.347 0-6.832 5.54-12.346 12.346-12.346h28.281a25.7 25.7 0 0 0 21.5-11.502Z" fill="#842306"/><path d="M319.791 758.107a31.493 31.493 0 0 1-19.232-6.542l-21.078-16.277a19.447 19.447 0 0 1-7.466-16.699l2.691-38.965h-48.303v83.126l77.692 11.792 21.5-16.435h-5.804Z" fill="#FFE1CC"/><path d="M228.909 782.905h26.645a2.505 2.505 0 0 0 2.506-2.506v-4.696c0-1.319 1.398-2.163 2.585-1.53l2.902 1.556a60.005 60.005 0 0 0 28.412 7.176h33.61c6.859 0 12.399-5.54 12.399-12.399 0-6.859-5.54-12.399-12.399-12.399h-16.515l-16.198-.106a58.872 58.872 0 0 1-38.12-14.351l-2.902-2.506a36.07 36.07 0 0 0-23.057-8.336h-2.374v47.617a2.483 2.483 0 0 0 2.506 2.48Z" fill="#842306"/><path d="M225.031 53.526c-1.715-6.384-5.277-12.346-10.711-17.068-12.848-11.133-32.264-11.106-45.059.053-5.513 4.828-9.101 10.948-10.763 17.464-2.322 9.18-6.463 17.807-11.66 25.721-6.015 9.234-9.313 20.419-8.653 32.396 1.477 27.436 23.822 49.596 51.258 50.862 30.918 1.425 56.428-23.215 56.428-53.817 0-10.895-3.218-21.025-8.784-29.493-5.277-8.073-9.577-16.805-12.056-26.118Z" fill="#FA0"/><path d="M181.001 349.15h80.461s30.681 316.808 36.142 372.287c.238 2.243-.501 4.485-1.978 6.226-1.583 1.662-3.72 2.665-6.042 2.665h-69.223c-4.142 0-7.545-3.061-8.046-7.202L188.44 515.112l-20.234 203.133c-.422 4.142-3.904 7.308-8.046 7.308H91.596c-2.322 0-4.485-1.003-6.041-2.665-1.504-1.741-2.243-3.983-1.979-6.226 5.646-55.874 37.303-367.485 37.303-367.485h60.122v-.027Z" fill="#081B2B"/><path d="m113.255 350.127 14.509-107.634-11.554-1.557-25.695-29.731s19.891-32.079 33.029-53.263a38.54 38.54 0 0 1 32.765-18.229h71.333a38.5 38.5 0 0 1 32.37 17.622c16.567 25.59 45.296 69.989 45.296 69.989l-52.129-.343 19.759 124.227-1.846.291a472.484 472.484 0 0 1-157.837-1.372Z" fill="#007171"/><path d="m105.288 228.247-14.51-17.042s-13.77 21.817-26.961 42.684a24.456 24.456 0 0 0-.739 24.851 24.42 24.42 0 0 0 21.395 12.637h.501a22.788 22.788 0 0 0 16.066-6.622 162821.57 162821.57 0 0 0 51.549-51.153l-7.466-26.275-39.835 20.92Z" fill="#FFE1CC"/><path d="m220.836 139.686-.501.027c-3.931 0-7.545-2.454-8.706-6.2-1.134-3.719.264-7.466 3.166-9.655 8.152-6.2 13.454-15.961 13.586-26.961 2.401-.106 4.591-1.108 6.173-2.718l-6.595-3.957-52.023-31.13-8.363 9.577c-3.482 3.984-7.492 7.545-12.161 10.051a9.642 9.642 0 0 0-5.118 8.547c0 5.277 4.247 9.577 9.497 9.682.132 10.922 5.355 20.63 13.428 26.83 2.242 1.714 3.72 4.353 3.693 7.202 0 4.854-3.957 8.784-8.785 8.784l-.079-.026-1.952.026c9.313 13.244 19.627 21.87 27.542 21.87 12.135 0 19.627-7.307 29.836-21.87l-2.638-.079Z" fill="#FFE1CC"/><path d="M155.993 107a1.852 1.852 0 0 1-1.847-1.846V93.071c0-1.029.844-1.846 1.847-1.846a1.87 1.87 0 0 1 1.846 1.846v12.083a1.834 1.834 0 0 1-1.846 1.846Z" fill="#007171"/><path d="M209.915 92.781a13.07 13.07 0 0 1-6.807-1.9 13.2 13.2 0 0 1-6.094-8.177 13.206 13.206 0 0 1 1.478-10.078l3.192 1.9a9.513 9.513 0 0 0-1.056 7.28 9.654 9.654 0 0 0 4.38 5.91c2.189 1.319 4.775 1.688 7.281 1.055a9.65 9.65 0 0 0 5.909-4.38l3.192 1.9a13.198 13.198 0 0 1-8.178 6.094 14.254 14.254 0 0 1-3.297.396Zm-31.288 0c-7.334 0-13.323-5.962-13.323-13.322 0-7.334 5.962-13.322 13.323-13.322 7.333 0 13.322 5.962 13.322 13.322 0 7.334-5.962 13.322-13.322 13.322Zm0-22.925c-5.303 0-9.603 4.3-9.603 9.603s4.3 9.603 9.603 9.603c5.302 0 9.602-4.3 9.602-9.603.027-5.303-4.3-9.603-9.602-9.603Z" fill="#842306"/><path d="M193.638 114.255c-4.379 0-8.758-1.662-12.082-5.012-.713-.713-.713-1.9 0-2.638.712-.713 1.899-.713 2.638 0 5.223 5.223 13.718 5.223 18.941 0 .713-.713 1.9-.713 2.638 0 .713.712.713 1.899 0 2.638a17.161 17.161 0 0 1-12.135 5.012Z" fill="#F2A068"/><path d="M230.94 92.016v13.137c0 1.029.844 1.847 1.847 1.847a1.87 1.87 0 0 0 1.846-1.847V94.232l-3.693-2.216Z" fill="#007171"/><path d="M169.789 199.096c-3.509-4.115-7.703-5.936-7.809-6.437-.316-1.345-.079-6.173.159-9.734.052-2.269-1.689-4.195-3.931-4.38v-.026a4.46 4.46 0 0 0-3.43 1.214 4.464 4.464 0 0 0-1.398 3.35c.053 2.955.158 6.78.211 10.209a15.206 15.206 0 0 1-7.044 13.138c.159 0 4.38 2.902 4.38 2.902l-5.435 7.861c0 .027 27.753-14.034 24.297-18.097Z" fill="#F2A068"/><path d="M208.174 161.847a4.566 4.566 0 0 0-4.564-4.564h-39.387a4.566 4.566 0 0 0-4.564 4.564v71.993a4.565 4.565 0 0 0 4.564 4.564h39.387a4.565 4.565 0 0 0 4.564-4.564v-71.993Z" fill="#081B2B"/><path d="M199.177 170.157a3.087 3.087 0 1 0 0-6.174 3.087 3.087 0 0 0 0 6.174Z" fill="#fff"/><path d="M197.199 198.041a5.069 5.069 0 0 1 1.503 1.742 5.52 5.52 0 0 1-2.163 7.544s-18.862 13.217-26.829 18.573c-2.322 1.556-4.854 2.743-7.545 3.482-.264.079-.501.158-.765.211a28.706 28.706 0 0 0-10.157 5.25l-7.465 6.015-22.925-20.894c12.9-7.202 29.414-11.951 36.854-25.194.58-1.029 1.266-1.978 2.005-2.902l19.284-23.584a4.354 4.354 0 0 1 3.034-1.53c1.161-.079 2.348.29 3.218 1.055l.185.185c.528.527.95 1.16 1.161 1.846a4.454 4.454 0 0 1-.871 4.195l-12.135 14.14 2.796-1.055c3.878-1.636 5.461-2.243 9.999-3.826l9.312-4.062a4.367 4.367 0 0 1 3.403.184 4.395 4.395 0 0 1 2.269 2.533 4.48 4.48 0 0 1-.158 3.403 4.474 4.474 0 0 1-2.533 2.269l-2.321 1.345a4.375 4.375 0 0 1 3.139.554c.712.422 1.266 1.082 1.662 1.847l.237.475a4.482 4.482 0 0 1-1.055 4.643 4.292 4.292 0 0 1-1.688 1.029l-1.451.527Z" fill="#FFE1CC"/></svg>