<svg class="sinch-icon" xmlns="http://www.w3.org/2000/svg" viewBox="0 0 409 400" fill="none" aria-hidden="true" focusable="false"><path d="m398.531 19.465 7.786-7.786c2.595-2.595 2.595-7.137 0-9.733-2.596-2.595-7.137-2.595-9.733 0l-8.11 7.786-7.786-7.786c-2.595-2.595-7.137-2.595-9.732 0-2.596 2.596-2.596 7.138 0 9.733l7.786 7.786-7.786 7.786c-2.596 2.595-2.596 7.137 0 9.732 1.297 1.298 3.244 1.946 4.866 1.946 1.622 0 3.568-.648 4.866-1.946l7.786-7.786 7.786 7.786c1.298 1.298 3.244 1.946 4.866 1.946 1.622 0 3.569-.648 4.866-1.946 2.596-2.595 2.596-7.137 0-9.732l-7.461-7.786ZM29.674 177.129l7.786-7.786c2.595-2.595 2.595-7.137 0-9.732-2.596-2.596-7.137-2.596-9.733 0l-8.11 7.786-7.786-7.786c-2.595-2.596-7.137-2.596-9.732 0-2.595 2.595-2.595 7.137 0 9.732l7.786 7.786-7.786 7.786c-2.595 2.595-2.595 7.137 0 9.732 1.297 1.298 3.244 1.947 4.866 1.947 1.622 0 3.569-.649 4.866-1.947l7.786-7.786 7.786 7.786c1.298 1.298 3.244 1.947 4.866 1.947 1.622 0 3.569-.649 4.866-1.947 2.596-2.595 2.596-7.137 0-9.732l-7.461-7.786Zm301.702 138.848 7.786-7.786c2.595-2.595 2.595-7.137 0-9.732-2.595-2.595-7.137-2.595-9.732 0l-7.786 7.786-7.786-7.786c-2.595-2.595-7.137-2.595-9.732 0-2.596 2.595-2.596 7.137 0 9.732l7.786 7.786-7.786 7.786c-2.596 2.595-2.596 7.137 0 9.733 1.297 1.297 3.244 1.946 4.866 1.946 1.622 0 3.568-.649 4.866-1.946l7.786-7.786 7.786 7.786c1.297 1.297 3.244 1.946 4.866 1.946 1.622 0 3.569-.649 4.866-1.946 2.595-2.596 2.595-7.138 0-9.733l-7.786-7.786Zm46.392-216.058-7.786-7.786C313.534 35.361 267.467 25.629 244.759 24.98c-5.191-.325-10.057 1.946-13.626 5.84-3.244 3.892-4.866 9.083-3.893 14.273l4.542 24.331.973 4.866c2.271 16.87-3.244 32.766-14.598 44.445-10.381 10.381-23.682 15.896-38.281 15.572l-40.227-.649c-8.11 0-16.22.973-20.762 5.839-3.244 3.244-4.542 8.435-4.218 15.248 2.92 50.932-25.304 120.356-77.21 191.078-9.732 13.626-8.11 32.117 3.893 44.12C48.165 396.756 56.924 400 65.683 400c8.76 0 17.843-3.244 24.331-10.057L377.768 102.19c.324-.325.648-.649.648-1.298s-.324-.649-.648-.973Z" fill="#FFBE3C"/><path d="M290.176 133.982c-1.947 0-4.218-.649-5.84-2.271-3.244-3.244-3.244-8.434 0-11.354l31.793-31.793c3.244-3.244 8.435-3.244 11.354 0 3.244 3.245 3.244 8.435 0 11.355l-31.792 31.792c-1.622 1.622-3.569 2.271-5.515 2.271Z" fill="#FCECCB"/><path d="m166.9 187.51-51.581-.649c-4.542 0-8.111-3.893-8.111-8.11 0-4.542 3.569-8.11 8.111-8.11l51.257.649c4.542 0 8.11 3.893 8.11 8.11.325 4.542-3.244 8.11-7.786 8.11Zm-18.817 38.281c-.324 0-.324 0 0 0l-40.551-.974c-4.542 0-8.11-3.892-7.786-8.434 0-4.542 3.893-8.111 8.11-7.786l40.227.973c4.542 0 8.111 3.893 7.786 8.435 0 4.217-3.568 7.786-7.786 7.786Zm-18.815 37.307-35.685-.973c-4.542 0-8.11-3.893-7.786-8.435 0-4.542 3.893-7.786 8.11-7.786h.325l35.685.974c4.542 0 8.11 3.892 7.786 8.434-.325 4.542-3.893 7.786-8.435 7.786Z" fill="#fff"/><path d="m398.207 120.032-29.522-29.521-308.84 308.84 3.569.325h3.568c15.248 0 77.859-6.489 172.263-100.893l158.962-158.961c5.515-5.191 5.515-14.275 0-19.79Z" fill="#CCC"/><path d="m232.107 203.406-20.762-17.842c-3.893-3.244-9.733-3.244-13.301 0l-20.763 17.842c-2.27 1.947-3.568 4.867-3.568 7.786v60.341c0 5.515 4.542 10.381 10.381 10.381h41.2c5.515 0 10.382-4.542 10.382-10.381v-60.341c0-2.919-1.298-5.839-3.569-7.786Z" fill="#F2F2F2"/><path d="M204.856 192.701c-2.271 0-4.217-1.947-4.217-4.218v-23.682c0-2.271 1.946-4.217 4.217-4.217s4.217 1.946 4.217 4.217v23.682c0 2.271-1.946 4.218-4.217 4.218Z" fill="#007171"/><path d="M223.347 219.303h-36.983c-2.271 0-4.218-1.947-4.218-4.218s1.947-4.217 4.218-4.217h36.983c2.271 0 4.217 1.946 4.217 4.217s-1.946 4.218-4.217 4.218Zm0 16.545h-36.983c-2.271 0-4.218-1.947-4.218-4.218s1.947-4.217 4.218-4.217h36.983c2.271 0 4.217 1.946 4.217 4.217s-1.946 4.218-4.217 4.218Z" fill="#CCC"/></svg>