<svg class="sinch-icon" xmlns="http://www.w3.org/2000/svg" viewBox="0 0 446 800" fill="none" aria-hidden="true" focusable="false"><path d="M259.445 0C156.661 0 73.578 83.084 73.578 185.867v439.401h371.734V185.867C445.312 83.084 361.8 0 259.445 0Z" fill="#F2A068"/><path d="m327.539 637.687 95.504-77.944c-11.992-11.135-28.266-17.559-45.825-17.559H141.672c-17.987 0-33.833 6.852-46.253 17.987l93.362 77.516c40.257 33.405 98.501 33.405 138.758 0Z" fill="#FFE1CC"/><path d="M416.189 233.833h-56.531c-5.996-1.285-10.706-5.996-11.563-11.991l-9.422-63.812-6.424 63.383c-.856 6.424-5.567 11.563-11.563 12.848H99.273c-18.844 0-29.979 20.557-20.129 36.403 11.135 17.559 20.557 41.542 20.557 72.805 0 51.392 24.411 96.788 62.098 125.482 10.279 8.137 17.131 20.128 17.131 33.405 0 22.269-18.415 40.685-40.685 40.685h-.428 243.254-2.997c-22.27 0-40.686-17.987-40.686-40.685 0-13.277 6.853-25.268 17.131-33.405 37.687-29.122 62.098-74.518 62.098-125.482 0-30.407 9.422-54.818 19.701-72.805 9.422-16.274-1.713-36.403-20.129-36.831Z" fill="#FFE1CC"/><path d="m422.614 559.743-95.503 77.944c-40.257 33.405-98.501 33.405-138.758 0l-93.362-77.516C81.715 572.591 73.15 590.15 73.15 609.85l-2.142 120.771c-.856 37.687 29.979 68.951 67.666 68.951h236.403c36.831 0 66.809-29.55 67.666-66.381l2.141-123.341c.428-19.7-8.565-37.687-22.27-50.107Z" fill="#A7D5C2"/><path d="M125.825 318.201a8.564 8.564 0 0 0 8.565-8.565 8.565 8.565 0 1 0-17.13 0 8.565 8.565 0 0 0 8.565 8.565Zm32.977-17.13a8.565 8.565 0 0 0 8.565-8.566 8.565 8.565 0 1 0-17.13 0 8.566 8.566 0 0 0 8.565 8.566Zm0 37.688a8.565 8.565 0 0 0 8.565-8.566 8.565 8.565 0 1 0-17.13 0 8.566 8.566 0 0 0 8.565 8.566Zm221.414-17.131a8.565 8.565 0 0 0 8.565-8.566 8.565 8.565 0 1 0-17.13 0 8.566 8.566 0 0 0 8.565 8.566Zm-32.977 17.131a8.565 8.565 0 0 0 8.565-8.566 8.565 8.565 0 1 0-17.13 0 8.566 8.566 0 0 0 8.565 8.566Zm0-37.688a8.565 8.565 0 0 0 8.565-8.566 8.565 8.565 0 1 0-17.13 0 8.566 8.566 0 0 0 8.565 8.566Z" fill="#F2A068"/><path d="M305.269 405.996h-99.358c-4.711 0-8.565-3.855-8.565-8.565 0-4.711 3.854-8.566 8.565-8.566h99.358c4.711 0 8.565 3.855 8.565 8.566 0 4.71-3.854 8.565-8.565 8.565Z" fill="#842306"/><path d="m130.965 581.156 98.501-98.501c2.57-2.569 2.57-6.424 0-8.993-2.57-2.57-2.57-6.424 0-8.994l47.109-47.109c5.139-5.139 5.139-13.276 0-17.987-5.139-5.14-13.276-5.14-17.987 0l-47.109 47.109c-2.57 2.569-6.424 2.569-8.994 0-2.569-2.57-6.424-2.57-8.993 0l-98.501 98.501c-9.85 9.85-9.85 26.124 0 36.403 9.85 9.421 26.124 9.421 35.974-.429Z" fill="#fff"/><path d="M128.824 559.315c-3.426 3.426-8.565 3.426-11.991 0-3.427-3.426-3.427-8.566 0-11.992l82.655-82.655c-3.426 0-7.281.857-9.85 3.854l-84.369 84.369c-5.139 5.139-5.139 13.276 0 17.987 5.14 4.711 13.277 5.139 17.988 0l84.368-84.368c2.569-2.57 3.854-6.424 3.854-9.851l-82.655 82.656Z" fill="#CCC"/><path d="M116.832 559.315c3.426 3.426 8.566 3.426 11.992 0l82.655-82.656c0-2.997-1.285-5.995-3.854-8.565-2.57-2.569-5.568-3.426-8.566-3.854l-82.655 82.655c-2.998 3.426-2.998 8.994.428 12.42Z" fill="#E83452"/><path d="M109.123 552.89c-1.285 0-2.141-.428-2.998-1.285l-1.713-1.713c-1.713-1.713-1.713-4.282 0-5.995s4.283-1.713 5.996 0l1.713 1.713c1.713 1.713 1.713 4.282 0 5.995-.857.857-2.141 1.285-2.998 1.285Zm15.847-15.846c-1.285 0-2.141-.428-2.998-1.284l-1.713-1.713c-1.713-1.713-1.713-4.283 0-5.996s4.283-1.713 5.996 0l1.713 1.713c1.713 1.713 1.713 4.283 0 5.996-.857.856-2.142 1.284-2.998 1.284Zm15.845-15.845c-1.285 0-2.142-.429-2.998-1.285l-1.713-1.713c-1.713-1.713-1.713-4.283 0-5.996s4.282-1.713 5.995 0l1.713 1.713c1.713 1.713 1.713 4.283 0 5.996-.856.856-1.713 1.285-2.997 1.285Zm15.846-16.274c-1.285 0-2.142-.428-2.998-1.285l-1.713-1.713c-1.713-1.713-1.713-4.283 0-5.996s4.282-1.713 5.996 0l1.713 1.713c1.713 1.713 1.713 4.283 0 5.996-.857 1.285-1.713 1.285-2.998 1.285Zm16.273-15.846c-1.285 0-2.141-.429-2.998-1.285l-1.713-1.713c-1.713-1.713-1.713-4.283 0-5.996s4.283-1.713 5.996 0l1.713 1.713c1.713 1.713 1.713 4.283 0 5.996-.856.856-2.141 1.285-2.998 1.285Zm15.847-15.846c-1.285 0-2.141-.428-2.998-1.285l-1.713-1.713c-1.713-1.713-1.713-4.283 0-5.996s4.283-1.713 5.996 0l1.713 1.713c1.713 1.714 1.713 4.283 0 5.996-.857.857-2.142 1.285-2.998 1.285Z" fill="#CCC"/><path d="M244.027 405.995h7.28c8.137 0 7.709-3.854 14.99-3.854 7.28 0 6.424 3.854 13.704 3.854 7.709 0 11.563-5.139 11.563-5.139l-8.137-8.137h-29.122l-10.278 13.276Z" fill="#842306"/><path d="M57.303 565.739H8.91c-4.71 0-8.565-3.855-8.565-8.566s3.854-8.565 8.565-8.565h48.394c4.711 0 8.565 3.854 8.565 8.565 0 4.711-3.426 8.566-8.565 8.566Zm171.306 0h-48.822c-4.711 0-8.566-3.855-8.566-8.566s3.855-8.565 8.566-8.565h48.393c4.711 0 8.566 3.854 8.566 8.565 0 4.711-3.426 8.566-8.137 8.566ZM41.03 643.255c-2.142 0-4.284-.857-5.997-2.57-3.426-3.426-3.426-8.565 0-11.991l34.262-34.262c3.426-3.426 8.565-3.426 11.991 0 3.426 3.427 3.426 8.566 0 11.992l-34.261 34.261c-1.713 1.713-3.855 2.57-5.996 2.57Zm77.515 32.12c-4.711 0-8.565-3.855-8.565-8.566v-48.394c0-4.711 3.854-8.565 8.565-8.565 4.711 0 8.566 3.854 8.566 8.565v48.394c0 4.711-3.855 8.566-8.566 8.566Zm77.517-32.12c-2.141 0-4.283-.857-5.996-2.57l-34.261-34.261c-3.426-3.426-3.426-8.565 0-11.992 3.426-3.426 8.565-3.426 11.991 0l34.262 34.262c3.426 3.426 3.426 8.565 0 11.991-1.285 1.713-3.426 2.57-5.996 2.57ZM75.29 522.484c-2.14 0-4.282-.856-5.995-2.569l-34.262-34.262c-3.426-3.426-3.426-8.565 0-11.991 3.427-3.426 8.566-3.426 11.992 0l34.261 34.261c3.426 3.426 3.426 8.565 0 11.992-1.285 1.713-3.854 2.569-5.996 2.569Z" fill="#E83452"/></svg>