<svg class="sinch-icon" xmlns="http://www.w3.org/2000/svg" viewBox="0 0 887 800" fill="none" aria-hidden="true" focusable="false"><path d="M487.687 709.572c4.145 8.447 5.876 22.115 2.387 30.851l21.249 4.984 33.606-6.506-23.899-49.345-33.343 20.016Z" fill="#FF7F51"/><path d="M480.63 799.974h-21.722c-6.584-.027-12.277-5.063-12.881-11.753a12.9 12.9 0 0 1 11.701-14.035l14.9-1.259c5.142-.551 8.212-7.713 8.212-7.713l4.8-17.551c4.093-14.979 15.741-16.501 30.195-11.91.132.053.289.079.42.132l.131.052a2.099 2.099 0 0 0 2.545-.997 35.853 35.853 0 0 1 15.714-14.953 2.27 2.27 0 0 1 3.017 1.023l21.249 43.601a2.221 2.221 0 0 1-.329 2.462 2.23 2.23 0 0 1-.694.528l-30.379 14.796a2.228 2.228 0 0 1-2.99-1.023l-3.227-6.585a2.261 2.261 0 0 0-3.405-.806 2.254 2.254 0 0 0-.766 1.069l-.918 2.675a30.879 30.879 0 0 1-15.741 17.839c-.026.027-10.651 4.408-19.832 4.408Z" fill="#00807D"/><path d="m441.658 484.973-79.715 37.851 96.205 202.608 79.715-37.852-96.205-202.607Z" fill="#0A273D"/><path d="M472.077 593.619h-55.825c-14.035 0-26.313 9.969-29.198 23.689l-36.859 174.455a10.139 10.139 0 0 1-11.99 7.701 10.137 10.137 0 0 1-7.843-11.898l36.859-174.455c4.853-23.06 25.499-39.797 49.057-39.797h51.602v-3.515h77.023v3.489h54.645c23.558 0 44.204 16.737 49.057 39.797l36.78 174.507a10.147 10.147 0 0 1-7.844 12.015 9.677 9.677 0 0 1-2.099.21 10.142 10.142 0 0 1-9.916-8.054l-36.78-174.507c-2.886-13.721-15.163-23.689-29.198-23.689h-55.826l-71.645.052Z" fill="#CCD4D9"/><path d="M376.088 720.013a33.252 33.252 0 0 1-10.861 24.712l49.582 26.653V716.55l-38.721 3.463Z" fill="#FF7F51"/><path d="m313.31 773.005 16.632-1.075a23.185 23.185 0 0 0 16.056-7.897l11.988-13.667c10.232-11.674 21.381-7.923 32.347 2.518l.314.315.079.079a2.144 2.144 0 0 0 2.729.236 35.814 35.814 0 0 1 20.672-6.559 2.256 2.256 0 0 1 2.256 2.256v48.507a2.256 2.256 0 0 1-2.256 2.256h-33.763a2.255 2.255 0 0 1-2.256-2.256v-7.346a2.264 2.264 0 0 0-1.405-2.102 2.266 2.266 0 0 0-2.478.502l-1.994 2.02a30.914 30.914 0 0 1-21.957 9.129h-36.387a13.446 13.446 0 0 1-12.457-8.361 13.443 13.443 0 0 1-1.001-5.175c.027-7.136 5.772-12.934 12.881-13.38Z" fill="#00807D"/><path d="M572.107 217.924c31.281 0 56.639-25.358 56.639-56.639 0-31.28-25.358-56.639-56.639-56.639-31.281 0-56.639 25.359-56.639 56.639 0 31.281 25.358 56.639 56.639 56.639Z" fill="#0A273D"/><path d="m617.177 261.63 9.942-60.6v-47.772c0-26.732-21.564-48.664-48.296-48.611-26.575.052-48.087 21.616-48.087 48.191v61.23a35.182 35.182 0 0 0 35.18 35.179c5.22 0 10.152 2.991 12.093 7.844 1.942 4.853-.341 11.648-3.856 15.111l-22.43 22.535 17.026 31.507 48.428-64.614Z" fill="#FF7F51"/><path d="M571.661 104.437c19.938-1.417 35.206 6.086 44.755 17.419s9.916 26.706 27.44 41.791c15.951 13.72 26.706 11.254 41.555 24.712 4.879 4.433 7.713 10.362 11.254 18.469 4.748 10.86 15.688 16.081 28.621 21.459a66.393 66.393 0 0 1 40.925 63.984c-1.312 33.947-27.519 61.099-61.387 63.538h-76.078l-2.23-68.286v-13.117l-3.988-8.369v.263c-2.544-2.152-5.509-4.801-8.657-5.903-7.45-2.623-15.058-12.199-15.058-26.365v-60.023c0-6.899-5.614-12.592-12.487-12.435a12.203 12.203 0 0 0-11.701 9.864l-32.634-53.674c.131-.184 10.257-11.937 29.67-13.327Z" fill="#0A273D"/><path d="M587.926 201.371a4.407 4.407 0 1 0 0-8.814 4.407 4.407 0 0 0 0 8.814Z" fill="#CCD4D9"/><path d="M616.888 261.893c37.252 21.538 28.228 93.681 28.228 93.681-8.579 26.26-15.478 66.607-18.154 96.802h-86.834l-9.549-89.011a132.106 132.106 0 0 1-.708-19.597c.367-9.89 1.757-18.101 7.004-28.752a73.419 73.419 0 0 1 14.822-20.305 21.56 21.56 0 0 0 29.539-.052l35.652-32.766Z" fill="#00807D"/><path d="m645.168 552.405-.026.078c-3.017 14.114-17.682 22.247-29.959 22.247l-210.92-.079a24.06 24.06 0 0 1-24.161-24.056v-.341a4.462 4.462 0 0 1 .341-1.718 4.489 4.489 0 0 1 4.145-2.768h224.535" fill="#842306"/><path d="M611.668 345.709c14.198 0 25.709-11.51 25.709-25.709s-11.511-25.709-25.709-25.709c-14.199 0-25.71 11.51-25.71 25.709s11.511 25.709 25.71 25.709Z" fill="#F4865F"/><path d="m450.041 195.993-1.994 1.784c-8.08 8.342-18.128 13.93-28.91 16.816-33.867 9.077-68.994-11.202-78.071-45.07a63.984 63.984 0 0 1 6.427-48.323c8.447-14.638 22.089-25.315 38.642-29.749 33.868-9.077 68.995 11.202 77.783 45.568 3.096 11.543 2.624 23.637-.577 34.786l-.918 2.729 12.251 21.065-24.633.394Z" fill="#00807D"/><path d="M433.409 164.46h.026a4.172 4.172 0 0 0 4.145-4.197l-.105-14.718a4.181 4.181 0 0 0-1.24-2.941 4.17 4.17 0 0 0-7.102 2.994l.104 14.691a4.199 4.199 0 0 0 4.172 4.171Zm-61.833.289h.026a4.172 4.172 0 0 0 4.145-4.197l-.105-14.718a4.174 4.174 0 0 0-4.171-4.145h-.027a4.163 4.163 0 0 0-2.943 1.239 4.18 4.18 0 0 0-1.202 2.959l.105 14.717a4.155 4.155 0 0 0 2.579 3.833 4.145 4.145 0 0 0 1.593.312Zm46.486 6.532h.026a4.18 4.18 0 0 0 2.944-1.239 4.168 4.168 0 0 0 1.201-2.959l-.21-28.227a4.176 4.176 0 0 0-4.171-4.145h-.026a4.172 4.172 0 0 0-4.145 4.197l.21 28.228a4.2 4.2 0 0 0 4.171 4.145Zm-31.061.131h.027a4.172 4.172 0 0 0 4.144-4.198l-.209-28.227a4.173 4.173 0 0 0-7.14-2.905 4.168 4.168 0 0 0-1.203 2.957l.21 28.228a4.179 4.179 0 0 0 4.171 4.145Zm15.714 5.955h.026a4.152 4.152 0 0 0 2.944-1.238 4.161 4.161 0 0 0 1.201-2.959l-.288-40.243a4.177 4.177 0 0 0-1.24-2.942 4.174 4.174 0 0 0-5.899.038 4.167 4.167 0 0 0-1.204 2.957l.289 40.242a4.174 4.174 0 0 0 4.171 4.145Z" fill="#fff"/><path d="M550.567 203.65a2 2 0 0 0-2.83-2.827l2.83 2.827Zm-18.021 4.221h-2v4h2v-4Zm15.191-7.048a24.033 24.033 0 0 1-7.799 5.216l1.532 3.695a28.032 28.032 0 0 0 9.097-6.084l-2.83-2.827Zm-7.799 5.216c-3.034 1.258-5.527 1.832-7.392 1.832v4c2.595 0 5.638-.775 8.924-2.137l-1.532-3.695Z" fill="#842306"/><path d="M406.965 452.376h217.898l-5.247 93.366H440.492l-13.117 180.62h-93.13l13.117-214.357c1.364-29.854 26.732-59.629 59.603-59.629Z" fill="#12364C"/><path d="M416.357 434.878c-3.017.105-5.772-1.967-6.165-4.958a6.467 6.467 0 0 1-.053-.708 5.82 5.82 0 0 1 5.378-5.929l30.432-2.23c.226-.021.454-.03.682-.026a25.553 25.553 0 0 1 15.399 4.276c1.915 1.285 3.935 2.466 5.955 3.594l10.467 6.112s2.86 1.81 4.617 2.335c4.04 1.207 13.616.971 17.656-.63l13.012-5.194 44.728-17.839a9.877 9.877 0 0 0 5.719-6.165l7.582-24.214.315-.996 14.219-66.687 26.496 3.096 23.61 8.158-29.119 96.672-2.152 5.614-1.442 3.725a40.239 40.239 0 0 1-31.035 25.263l-57.321 9.392-43.679 6.296a37.953 37.953 0 0 1-14.088-.367 39.335 39.335 0 0 1-3.568-.971 34.988 34.988 0 0 1-4.512-1.783c-.577-.289-1.18-.551-1.757-.84-.578-.289-1.233-.63-1.837-.918a37.517 37.517 0 0 0-10.336-3.201l-20.384-3.174c-2.754-.42-4.958-2.702-5.01-5.457a5.587 5.587 0 0 1 .615-2.75 5.59 5.59 0 0 1 1.877-2.103 5.158 5.158 0 0 1-2.742-4.173 5.155 5.155 0 0 1 2.086-4.537 4.886 4.886 0 0 1-2.02-4.433c.236-2.518 2.466-4.381 4.985-4.434" fill="#F4865F"/><path d="M600.859 553.402c6.664-80.197 27.126-194.13 66.949-240.669 6.637-7.765 16.947-5.929 11.648 26.759a814249.34 814249.34 0 0 0-34.34 213.123l-44.257.787Z" fill="#842306"/></svg>