<svg class="sinch-icon" xmlns="http://www.w3.org/2000/svg" viewBox="0 0 1561 800" fill="none" aria-hidden="true" focusable="false"><path d="M780.495 800c431.055 0 780.495-63.149 780.495-141.048s-349.44-141.049-780.495-141.049S0 581.053 0 658.952 349.44 800 780.495 800Z" fill="#F2F2F2"/><path d="M1053.84 222.118h14.7c2.44 0 4.77-.968 6.5-2.693a9.21 9.21 0 0 0 2.69-6.502 9.396 9.396 0 0 0-.99-4.131 9.309 9.309 0 0 0-2.73-3.255 35.747 35.747 0 0 1-14.19-28.572V141.11c0-4.749.94-9.451 2.77-13.832a35.894 35.894 0 0 1 19.69-19.432 35.874 35.874 0 0 1 13.87-2.592c19.72.258 35.38 16.684 35.38 36.402v35.309a35.632 35.632 0 0 1-3.74 15.956 35.701 35.701 0 0 1-10.46 12.616 9.12 9.12 0 0 0-3.29 4.605 9.133 9.133 0 0 0 .03 5.663 9.184 9.184 0 0 0 8.73 6.313h14.71a65.535 65.535 0 0 1-83.67 0" fill="#842306"/><path d="M1115.13 158.635c0 2.412.72 4.769 2.06 6.774a12.185 12.185 0 0 0 12.51 5.182 12.224 12.224 0 0 0 6.25-3.34 12.223 12.223 0 0 0 3.33-6.245c.47-2.365.23-4.817-.7-7.044a12.194 12.194 0 0 0-4.49-5.469 12.22 12.22 0 0 0-11.44-1.121 12.174 12.174 0 0 0-6.6 6.598 12.241 12.241 0 0 0-.93 4.665" fill="#842306"/><path d="M1059.82 141.11c0-4.749.94-9.451 2.77-13.833a35.894 35.894 0 0 1 19.69-19.432 35.892 35.892 0 0 1 13.87-2.591c19.72.258 35.38 16.684 35.38 36.402 0 0-7.89 12.388-24.32 10.416-16.52-1.983-18.77-15.877-31.31-17.769-10.33-1.558-16.08 8.778-16.08 16.927v-10.12Z" fill="#0A273D"/><path d="M1051.4 158.635c0 2.411.71 4.768 2.05 6.773a12.225 12.225 0 0 0 5.47 4.49c2.23.923 4.68 1.164 7.05.693 2.36-.47 4.54-1.632 6.24-3.337a12.16 12.16 0 0 0 3.34-6.243 12.202 12.202 0 0 0-5.19-12.514 12.2 12.2 0 0 0-11.44-1.125 12.145 12.145 0 0 0-3.95 2.643 12.017 12.017 0 0 0-2.64 3.955 12.055 12.055 0 0 0-.93 4.665Z" fill="#842306"/><path d="M415.983 309.86c0-45.547 36.924-82.468 82.472-82.468H1103.7c45.55 0 82.47 36.921 82.47 82.468h93.38c17.87.001 35.01 7.1 47.64 19.737a67.367 67.367 0 0 1 19.74 47.644v233.622H282.635V377.245a67.386 67.386 0 0 1 67.381-67.381h65.978l-.011-.004Z" fill="#007171"/><path d="m1193.83 543.816 44.2 166.985a8.943 8.943 0 0 0 16.29 2.145 9.012 9.012 0 0 0 1-6.696l-44.21-167.007a8.922 8.922 0 0 0-4.14-5.485 8.92 8.92 0 0 0-6.8-.929 8.97 8.97 0 0 0-3.15 1.542 9.036 9.036 0 0 0-2.31 2.632 8.953 8.953 0 0 0-.88 6.813Zm-738.632-11.045-45.882 173.457a8.94 8.94 0 0 0 17.284 4.573l45.881-173.457a8.942 8.942 0 0 0-9.836-11.146 8.946 8.946 0 0 0-5.915 3.44 8.939 8.939 0 0 0-1.532 3.133Z" fill="#007171"/><path d="M1347.65 555.7a67.83 67.83 0 0 0-5.16-25.924 67.66 67.66 0 0 0-14.68-21.977 67.74 67.74 0 0 0-47.9-19.84H352.086a67.73 67.73 0 0 0-62.585 41.817 67.75 67.75 0 0 0-5.156 25.924v55.164H1347.65v-55.172.008Z" fill="#059688"/><path d="M417.257 377.795a67.742 67.742 0 0 0-67.738-67.741h-.352a67.745 67.745 0 0 0-67.741 67.741v233.068h135.831V377.795Zm930.393 0a67.76 67.76 0 0 0-67.74-67.741h-.35c-17.97 0-35.2 7.137-47.9 19.841a67.714 67.714 0 0 0-19.84 47.9v233.068h135.83V377.795Z" fill="#059688"/><path d="M412.305 442.15H1292.2c.4.015.8-.052 1.18-.195.37-.143.71-.361 1-.638.29-.278.52-.612.67-.98.16-.369.24-.765.24-1.165 0-.401-.08-.797-.24-1.165a2.845 2.845 0 0 0-.67-.98 3.02 3.02 0 0 0-1-.638c-.38-.143-.78-.21-1.18-.196H412.305a2.982 2.982 0 0 0 0 5.957Z" fill="#059688"/><path d="M1016.83 220.938h42.09c2.03 0 3.98-.807 5.41-2.242a7.646 7.646 0 0 0 2.25-5.414l47.06.163c0 1.988.79 3.894 2.2 5.3a7.485 7.485 0 0 0 5.29 2.197h29.89c6.35 0 12.52 2.146 17.5 6.089 17.19 13.605 60.11 48.775 97.27 78.192a28.102 28.102 0 0 1 9.55 14.19 28.119 28.119 0 0 1-.45 17.096c-3.93 11.307-36.09 11.929-40.95 8.342l-67.33-50.048-27.3 103.517-181.001-56.119 30.069-100.105a29.709 29.709 0 0 1 28.442-21.162l.01.004Z" fill="#FFD03C"/><path d="M1073.98 261.522c-4.63-4.929-9.97-6.965-10.16-7.61-.47-1.672-.44-7.754-.35-12.228a5.31 5.31 0 0 0-1.54-3.625 5.306 5.306 0 0 0-3.6-1.582v-.022a5.824 5.824 0 0 0-4.34 1.718c-.56.57-1 1.251-1.29 1.999a5.712 5.712 0 0 0-.38 2.35c.13 3.344.31 7.583.47 11.455.14 3.488-.5 6.964-1.87 10.175a23.423 23.423 0 0 1-6.06 8.382l-5.41 4.766 5.18 8.308s33.93-19.202 29.36-24.074l-.01-.012Z" fill="#842306"/><path d="M1061.51 215.376c.01-.872.2-1.733.54-2.534a6.655 6.655 0 0 1 6.21-3.999l33.85.561a6.649 6.649 0 0 1 6.54 6.757c-.26 15.812-.92 55.543-1.19 71.355a6.628 6.628 0 0 1-2.02 4.664 6.66 6.66 0 0 1-4.73 1.869l-33.86-.561a6.63 6.63 0 0 1-4.66-2.026 6.626 6.626 0 0 1-1.87-4.731c.26-15.812.93-55.543 1.19-71.355Z" fill="#0A273D"/><path d="M1069.73 217.651c.4-.482.94-.833 1.55-1.007a3.178 3.178 0 0 1 3.37 1.073c.4.492.63 1.091.69 1.718a3.17 3.17 0 0 1-.39 1.809c-.3.552-.77 1.001-1.33 1.29a3.172 3.172 0 0 1-3.51-.398 3.16 3.16 0 0 1-1.12-2.164c-.07-.841.19-1.676.74-2.321Z" fill="#fff"/><path d="M1019.24 293.154c14.45-11.994 29.17-20.946 41.05-37.331l23.35-33.417a5.569 5.569 0 0 1 9.25.415 5.656 5.656 0 0 1 .64 4.21 5.547 5.547 0 0 1-.93 1.965l-14.03 19.058c9.19-4.778 26.85-14.553 26.85-14.553l6.15 9.297-3.7 2.211 4.72 8.911-3.18 2.248 5.91 8.593-38.3 30.05a41.21 41.21 0 0 1-8.95 5.343l-3.04 1.323a37.352 37.352 0 0 0-8.22 4.929l-11.44 9.044-26.13-22.296Z" fill="#842306"/><path d="m1098.58 249.503-5.13-9.499 12.3-6.711a5.583 5.583 0 0 1 4.25-.354c1.4.45 2.57 1.439 3.25 2.75.33.65.53 1.359.59 2.087.06.728-.02 1.461-.24 2.157a5.546 5.546 0 0 1-2.75 3.249l-12.27 6.321Zm2.29 11.508-5.13-9.499 12.3-6.711a5.558 5.558 0 0 1 4.24-.354 5.531 5.531 0 0 1 3.25 2.75c.34.65.54 1.359.6 2.087.06.728-.02 1.461-.24 2.156a5.747 5.747 0 0 1-1.06 1.899 5.553 5.553 0 0 1-1.7 1.351l-12.27 6.317.01.004Z" fill="#842306"/><path d="m1103.96 273.118-6.55-8.573 11.09-8.566a5.578 5.578 0 0 1 4.14-1.016 5.548 5.548 0 0 1 3.64 2.207 5.55 5.55 0 0 1 1.01 4.136 5.538 5.538 0 0 1-2.2 3.641l-11.13 8.168v.003Z" fill="#842306"/><path d="M998.813 366.67a24.307 24.307 0 0 1-37.452-3.526 24.231 24.231 0 0 1 5.855-33.133l71.634-52.07 20.31 27.745-60.347 60.984Z" fill="#FFD03C"/><path d="m1000.5 307.699 37.92-27.255 18.35 25.083-16.02 16.202c-.31.342-.48.791-.46 1.253a1.787 1.787 0 0 0 3.01 1.261l17.08-17.283c.3-.302.49-.701.52-1.124.03-.424-.09-.845-.34-1.189l-20.3-27.745c-.28-.377-.7-.629-1.17-.7a1.79 1.79 0 0 0-1.32.321l-39.374 28.291a1.79 1.79 0 0 0-.72 1.162 1.786 1.786 0 0 0 2.804 1.739l.02-.016Z" fill="#FFBE3C"/><path d="M1109.77 185.109a2.1 2.1 0 0 0-2.94.379 14.421 14.421 0 0 1-3.07 2.931 14.062 14.062 0 0 1-5.56 2.366c-.88.172-1.77.262-2.66.27-.22 0-.44 0-.65-.019h-.21c-.87-.058-1.74-.195-2.59-.41a14.119 14.119 0 0 1-4.78-2.199 14.56 14.56 0 0 1-2.85-2.628 2.076 2.076 0 0 0-1.4-.731 2.1 2.1 0 0 0-1.51.455c-.42.343-.7.839-.76 1.381-.07.543.08 1.09.42 1.523.75.921 1.59 1.768 2.5 2.529.31.266.65.504.98.758.54.404 1.11.777 1.7 1.115a18.227 18.227 0 0 0 7.38 2.313c.12 0 .24.038.38.046.41.034.83.053 1.24.057h.14c.34 0 .67 0 1.01-.034a18.301 18.301 0 0 0 7.36-1.965l.2-.117a18.356 18.356 0 0 0 5.72-4.706c.11-.133.23-.246.33-.379a2.095 2.095 0 0 0-.38-2.939" fill="#6D1B0B"/><path d="m1047.11 371.629-32.78-35.886-46.936 35.128 28.981 38.726 50.735-37.968Z" fill="#FFBE3C"/><path d="M746.304 0h258.606c2.52 0 5.01.496 7.34 1.46a19.164 19.164 0 0 1 10.39 10.386 19.276 19.276 0 0 1 1.46 7.344v165.995c0 .741-.3 1.452-.82 1.976-.53.524-1.24.819-1.98.819H746.304a16.79 16.79 0 0 1-16.756-16.771V16.771A16.79 16.79 0 0 1 746.304 0Z" fill="#0A273D"/><path d="M802.127 76.018h149.371a5.958 5.958 0 0 0 2.28-11.46 5.958 5.958 0 0 0-2.28-.454H802.127a5.956 5.956 0 1 0 0 11.914Zm0 47.857h74.661a5.964 5.964 0 0 0 4.309-1.69 5.96 5.96 0 0 0 1.331-6.579 5.96 5.96 0 0 0-5.64-3.641h-74.661a5.962 5.962 0 0 0-4.309 1.69 5.957 5.957 0 0 0 4.309 10.22Z" fill="#fff"/><path d="M1087 693.95c-6.18-2.233-11.38-8.342-16.34-19.202l-.83-2.275a72.731 72.731 0 0 1-4.06-25.826v-.262l-.05-4.049v-23.961h-43.11v47.967l-.23 30.243a11.879 11.879 0 0 0 3.44 8.434 11.818 11.818 0 0 0 8.41 3.499h50.21a7.493 7.493 0 0 0 4.83-1.758 7.55 7.55 0 0 0 2.57-4.452 7.512 7.512 0 0 0-4.84-8.358Z" fill="#842306"/><path d="M989.531 443.09a51.459 51.459 0 0 1 30.789-50.855 51.47 51.47 0 0 1 20.54-4.278c6.91 0 13.75 1.394 20.12 4.099a51.482 51.482 0 0 1 16.91 11.643 51.59 51.59 0 0 1 11.01 17.333 51.476 51.476 0 0 1 3.34 20.257c-2.27 61.462-5.85 157.695-6.92 186.338a8.643 8.643 0 0 1-2.63 5.893 8.646 8.646 0 0 1-5.99 2.415h-65.33a8.631 8.631 0 0 1-8.61-8.012c-2-27.999-8.808-123.094-13.229-184.833Z" fill="#CDE9FB"/><path d="M821.253 450.78a43.082 43.082 0 0 0 26.27 9.441l34.081 2.837c6.548.098 15.103-3.076 18.834-8.46l28.461-32.481 40.194 39.348-66.638 54.663a17.067 17.067 0 0 1-18.078 5.723 17.065 17.065 0 0 1-5.909-3.069l-68.029-54.473a8.66 8.66 0 0 1-2.904-9.179 8.656 8.656 0 0 1 4.145-5.176 8.673 8.673 0 0 1 6.592-.729 8.686 8.686 0 0 1 3 1.558" fill="#842306"/><path d="M1154.71 407.109a45.598 45.598 0 0 1 14.79 23.104 45.504 45.504 0 0 1-1.15 27.411 45.534 45.534 0 0 1-16.68 21.782 45.545 45.545 0 0 1-26.16 8.257h-33.84l-69.87-57.962-62.426 51.232a8.632 8.632 0 0 1-10.568.295l-55.944-40.932a8.632 8.632 0 0 1-3.529-6.709 8.649 8.649 0 0 1 3.119-6.908l123.778-102.512a30.719 30.719 0 0 1 39.29.087l72.3 60.419c16.15 2.723 20.95 9.389 21.15 17.647l5.74 4.789Z" fill="#CDE9FB"/><path d="m1091.29 482.321-68.42-51.926a1.79 1.79 0 0 0-1.1-.364c-.4.004-.78.14-1.09.387l-29.117 23.062a1.798 1.798 0 0 0-.722 1.205 1.802 1.802 0 0 0 .371 1.355 1.796 1.796 0 0 0 1.235.67 1.776 1.776 0 0 0 1.338-.428l28.035-22.205 67.31 51.087c.19.142.4.246.63.306.23.059.47.073.7.041.23-.031.45-.109.66-.227.2-.119.38-.276.52-.463s.24-.4.3-.627c.06-.227.08-.464.05-.696a1.91 1.91 0 0 0-.23-.659c-.12-.203-.28-.38-.46-.522l-.01.004Z" fill="#A8D7E2"/><path d="M1146.61 402.578c-4.07-5.403-5.17-10.996-5.77-11.303-1.57-.759-7.59-1.756-11.99-2.427a5.309 5.309 0 0 1-3.31-2.131 5.312 5.312 0 0 1-.95-3.822h-.02c.11-.794.38-1.556.8-2.24a5.78 5.78 0 0 1 3.81-2.671 5.818 5.818 0 0 1 2.38.016l11.21 2.411c3.41.733 6.94.696 10.34-.11 3.4-.805 6.57-2.358 9.29-4.546l5.62-4.535 7.31 6.506s-24.7 30.183-28.72 24.852Z" fill="#842306"/><path d="M1187.09 354.001c-14.27 12.194-25.6 25.181-43.76 34.107l-36.9 17.337a5.5 5.5 0 0 0-2.79 3.215 5.428 5.428 0 0 0-.27 2.153c.05.729.24 1.44.57 2.094.32.654.78 1.236 1.33 1.715a5.546 5.546 0 0 0 6.13.776l21.16-10.575c-6.27 8.243-18.9 23.979-18.9 23.979l8.11 7.645 2.82-3.276 7.96 6.169 2.76-2.753 7.46 7.288 36.12-32.636a41.211 41.211 0 0 0 6.79-7.918l1.82-2.764a37.138 37.138 0 0 1 6.25-7.265l10.86-9.745-17.53-29.546h.01Z" fill="#842306"/><path d="m1130.58 424.765-8.49-6.666-8.73 10.996a5.491 5.491 0 0 0-.94 1.955 5.654 5.654 0 0 0-.13 2.167c.11.724.35 1.421.72 2.051.37.629.86 1.18 1.45 1.619.58.441 1.24.762 1.95.946a5.576 5.576 0 0 0 5.84-2.038l8.31-10.996.02-.034Zm10.96 4.224-8.49-6.666-8.72 10.997a5.517 5.517 0 0 0-.95 1.954 5.656 5.656 0 0 0-.12 2.168c.1.724.34 1.421.71 2.05.37.63.86 1.18 1.45 1.62a5.566 5.566 0 0 0 7.79-1.092l8.31-11.019.02-.012Z" fill="#842306"/><path d="m1152.94 434.092-7.33-7.917-10.33 9.479a5.584 5.584 0 0 0-1.7 3.904 5.565 5.565 0 0 0 1.55 3.964 5.579 5.579 0 0 0 3.9 1.703c1.48.028 2.9-.532 3.97-1.555l9.94-9.574v-.004Z" fill="#842306"/><path d="M1266.78 347.976a24.418 24.418 0 0 0 7.55-7.547 24.438 24.438 0 0 0 3.59-10.051c.44-3.575.08-7.203-1.06-10.622a24.372 24.372 0 0 0-5.49-9.148 24.29 24.29 0 0 0-16.53-7.482 24.253 24.253 0 0 0-17.09 6.064l-68.59 60.669 22.63 25.579 74.99-47.462Z" fill="#FFD03C"/></svg>