<svg class="sinch-icon" xmlns="http://www.w3.org/2000/svg" viewBox="0 0 960 800" fill="none" aria-hidden="true" focusable="false"><path d="m593.499 790.798-84.888-291.149c-9.499-32.744-10.042-64.357 22.699-73.856 32.741-9.499 82.363 9.049 91.862 41.784l74.417 308.272" fill="#FFE1CC"/><path d="M23.469 251.517h386.103v257.389a3.89 3.89 0 0 1-3.886 3.886H23.469a23.337 23.337 0 0 1-23.31-23.311V274.828a23.34 23.34 0 0 1 23.31-23.311Z" fill="#E83452"/><path d="M308.67 357.174H101.049a8.281 8.281 0 0 1-8.131-8.278 8.278 8.278 0 0 1 8.131-8.278h207.613a8.274 8.274 0 0 1 7.782 5.075 8.27 8.27 0 0 1 0 6.405 8.271 8.271 0 0 1-4.569 4.488 8.275 8.275 0 0 1-3.213.588h.008Zm-103.832 66.52H101.049a8.278 8.278 0 0 1-5.854-14.134 8.282 8.282 0 0 1 5.854-2.425h103.789a8.28 8.28 0 1 1 0 16.559Z" fill="#fff"/><path d="M934.523 0H547.076a24.922 24.922 0 0 0-24.896 24.896V279.03h412.343a24.925 24.925 0 0 0 24.896-24.893V24.896A24.924 24.924 0 0 0 934.523 0" fill="#FFBE3C"/><path d="M811.543 131.475a6.384 6.384 0 0 1 10.801 0l48.272 76.514a6.377 6.377 0 0 1 .189 6.486 6.376 6.376 0 0 1-5.586 3.3h-96.558a6.377 6.377 0 0 1-6.38-6.568 6.378 6.378 0 0 1 .982-3.218l48.28-76.514Z" fill="#fff"/><path d="M698.177 69.807a6.377 6.377 0 0 1 8.484-2.187 6.38 6.38 0 0 1 2.316 2.187L796.17 207.99a6.383 6.383 0 0 1-5.397 9.786H616.386a6.384 6.384 0 0 1-5.398-9.786l87.194-138.182h-.005Z" fill="#FCECCB"/><path d="M852.008 110.809c13.684 0 24.777-11.093 24.777-24.777 0-13.684-11.093-24.778-24.777-24.778-13.685 0-24.778 11.093-24.778 24.778 0 13.684 11.093 24.777 24.778 24.777Z" fill="#FCECCB"/><path d="m479.487 510.755-145.025 38.858a82.703 82.703 0 0 1-62.752-8.264 82.703 82.703 0 0 1-38.527-50.216c-12.302-45.918 14.947-93.118 60.867-105.42l15.033-4.03-3.951-14.783c-12.099-45.159 14.07-91.719 58.936-104.859l25.128-7.36 19.059-56.344a90.174 90.174 0 0 1 41.647-49.945l26.948-14.968a32.725 32.725 0 0 1 43.631 11.259l29.767 47.614-74.67 20.02-3.382 74.813 7.281 223.646.01-.021Z" fill="#272727"/><path d="M360.67 421.167h-.559l-.016.016a61.785 61.785 0 0 0-27.779 7.656 61.78 61.78 0 0 0-21.283 19.424l-91.825 135.434 102.351 69.502 13.906-20.51.872 137.844 320.69 5.332-44.472-174.695h42.104l-32.644-135.173a58.57 58.57 0 0 0-56.931-44.819H363.867a60.848 60.848 0 0 0-3.197 0v-.011Z" fill="#007171"/><path d="M208.548 773.01a62.37 62.37 0 0 1-52.048-96.743l68.67-101.318 104.366 66.536-27.339 40.335 169.4 28.587L474 772.989l-265.452.021Zm219.545-432.024-5.329 80.263 44.34 90.112a31.265 31.265 0 0 0 28.059 17.465 32.634 32.634 0 0 0 25.535-12.286 32.643 32.643 0 0 0 6.308-27.625c-6.978-30.597-15.829-69.402-18.353-80.463a19.794 19.794 0 0 1-.413-6.201c.089-.988.197-2.152.311-3.425a19.8 19.8 0 0 1 4.072-10.339 19.8 19.8 0 0 1 8.999-6.52 78.095 78.095 0 0 0 13.65-3.387 90.434 90.434 0 0 0 60.425-85.903l-.348-75.057a90.393 90.393 0 0 0-13.577-47.343c-18.614-29.956-51.926-46.178-86.93-42.343a90.435 90.435 0 0 0-80.763 90.518l.345 75.055a90.731 90.731 0 0 0 13.698 47.461l-.029.018Z" fill="#FFE1CC"/><path d="M841.213 773.044H482.59a26.963 26.963 0 0 0-19.061 7.894 26.96 26.96 0 0 0-7.895 19.06h351.655a34.825 34.825 0 0 0 33.926-26.956l-.002.002Z" fill="#0A273D"/><path d="M830.734 785.298a8.274 8.274 0 0 1-3.825-.941 8.279 8.279 0 0 1-3.946-10.188L931.96 476.65a8.278 8.278 0 0 1 7.436-5.503 8.276 8.276 0 0 1 8.106 11.198L838.497 779.864a8.282 8.282 0 0 1-7.763 5.434Z" fill="#0A273D"/><path d="m656.261 374.362-64.426-18.531 19.309 66.883c-11.657 20.81-17.123 43.831-17.123 66.857 0 76.324 62.448 138.774 138.772 138.774 36.429 0 71.991-14.751 98.01-40.765 26.018-26.013 40.764-60.713 40.764-98.009 0-76.325-62.447-138.774-139.641-137.908-26.018 0-51.172 7.808-72.855 20.811l-2.821 1.881.011.007Z" fill="#A7D5C2"/><path d="M663.742 514.828a8.282 8.282 0 0 1-8.277-8.221l-.229-32.433a8.286 8.286 0 0 1 5.059-7.684 8.273 8.273 0 0 1 3.165-.651h.058a8.279 8.279 0 0 1 8.276 8.221l.23 32.433a8.289 8.289 0 0 1-2.384 5.872 8.283 8.283 0 0 1-5.838 2.466l-.06-.003Zm136.156-.669a8.276 8.276 0 0 1-8.277-8.222l-.227-32.432a8.287 8.287 0 0 1 2.383-5.87 8.29 8.29 0 0 1 5.836-2.465h.061a8.277 8.277 0 0 1 8.277 8.219l.226 32.432a8.279 8.279 0 0 1-8.219 8.338h-.06Zm-102.164 15.355a8.275 8.275 0 0 1-8.277-8.219l-.445-62.147a8.277 8.277 0 0 1 8.221-8.337h.058a8.272 8.272 0 0 1 8.277 8.221l.437 62.139a8.28 8.28 0 0 1-8.221 8.335l-.05.008Zm68.379-.338a8.278 8.278 0 0 1-8.276-8.218l-.435-62.14a8.28 8.28 0 0 1 8.219-8.337h.06a8.276 8.276 0 0 1 8.277 8.221l.438 62.14a8.28 8.28 0 0 1-8.222 8.334h-.061ZM731.72 542.59a8.277 8.277 0 0 1-8.276-8.219l-.622-88.626a8.269 8.269 0 0 1 2.383-5.87 8.268 8.268 0 0 1 5.836-2.465h.06a8.28 8.28 0 0 1 8.277 8.222l.622 88.623a8.289 8.289 0 0 1-2.384 5.872 8.283 8.283 0 0 1-5.838 2.466l-.058-.003Z" fill="#fff"/><path d="m443.748 278.658 15.087-1.465c5.268 16.859 14.103 26.751 23.924 34.698l-3.77 74.813a36.947 36.947 0 0 1-37.272 35.088l-78.887-.79 80.918-142.344Z" fill="#272727"/><path d="m402.001 771.537 29.527-68.119a.994.994 0 0 1 1.001-.582l23.972 2.571a68.385 68.385 0 0 0 30.217-3.601l20.481-7.342a51.907 51.907 0 0 1 27.364-2.099 51.883 51.883 0 0 1 24.607 12.149l54.055 51.852c3.087 2.74 4.526 6.536 3.951 10.414-.511 3.4-2.565 6.303-5.426 7.605l-.224.087a11.728 11.728 0 0 1-10.068-.854l-5.98-3.759c-1.072 1.731-2.84 3.572-6.414 4.449-4.273 1.054-8.841.021-12.545-2.816l-17.802-12.381a32.967 32.967 0 0 0-33.937-2.278l-18.139 9.301a61.769 61.769 0 0 1-28.052 6.776h-75.69a.981.981 0 0 1-.976-.894.988.988 0 0 1 .078-.474" fill="#FFE1CC"/><path d="m534.303 719.78 89.564 25.576a11.405 11.405 0 0 0 14.034-7.626 11.407 11.407 0 0 0-7.348-14.181l-88.511-29.021a13.203 13.203 0 0 0-10.08.766 13.222 13.222 0 0 0-6.585 7.67 13.205 13.205 0 0 0 8.923 16.816" fill="#FFE1CC"/><path d="M458.068 281.002c13.35 0 24.172-10.822 24.172-24.172 0-13.349-10.822-24.171-24.172-24.171-13.35 0-24.172 10.822-24.172 24.171 0 13.35 10.822 24.172 24.172 24.172Z" fill="#007171"/><path d="M459.669 280.886c.293 5.743 6.294.287 5.814 6.091-2.455 29.619-48.997 59.578-61.904 37.082-14.544-25.321 4.507-105.528 4.507-105.528-.203-44.737 38.702-85.418 86.727-90.686 35.056-3.844 68.408 12.399 87.046 42.39.234-.082.108.227 0 0-4.695 37.87-76.312 60.379-123.762 62.368-13.329.556-24.172 10.832-24.172 24.172a24.183 24.183 0 0 0 24.172 24.172c.527 0 1.054-.019 1.58-.05l-.008-.011Z" fill="#272727"/><path d="M534.579 330.818c-25.665 0-45.712-6.425-59.752-19.185-20.284-18.44-20.144-43.109-20.128-44.152a4.141 4.141 0 0 1 8.279.113c0 .058-.031 5.645 2.147 13.129 2.877 9.884 8.048 18.25 15.368 24.872 6.999 6.323 15.943 10.948 26.585 13.73 12.939 3.38 28.558 4.091 46.418 2.107a4.146 4.146 0 0 1 4.481 3.668 4.14 4.14 0 0 1-3.567 4.562 180.502 180.502 0 0 1-19.831 1.156Z" fill="#007171"/></svg>