<svg class="sinch-icon" xmlns="http://www.w3.org/2000/svg" viewBox="0 0 413 400" fill="none" aria-hidden="true" focusable="false"><path d="M396.621 221.298H148.498a15.943 15.943 0 0 0-15.944 15.944v146.814A15.943 15.943 0 0 0 148.498 400h261.41a2.657 2.657 0 0 0 2.657-2.657V237.242a15.943 15.943 0 0 0-15.944-15.944Z" fill="#007171"/><path d="M264.236 0H16.112A15.944 15.944 0 0 0 .17 15.944v160.101a2.66 2.66 0 0 0 2.657 2.657h261.41a15.943 15.943 0 0 0 15.943-15.944V15.944A15.944 15.944 0 0 0 264.236 0Z" fill="#FFBE3C"/><path d="M90.769 75.148A13.632 13.632 0 1 0 104.4 88.78a13.645 13.645 0 0 0-13.632-13.632Zm49.412 0a13.63 13.63 0 0 0-13.385 16.283 13.634 13.634 0 0 0 10.707 10.717 13.627 13.627 0 0 0 13.998-5.794 13.636 13.636 0 0 0 2.298-7.575 13.642 13.642 0 0 0-13.618-13.631Zm49.398 0a13.631 13.631 0 1 0 13.632 13.632 13.645 13.645 0 0 0-13.632-13.632Zm33.575 248.561c7.529 0 13.632-6.103 13.632-13.631 0-7.529-6.103-13.632-13.632-13.632s-13.632 6.103-13.632 13.632c0 7.528 6.103 13.631 13.632 13.631Zm49.399 0c7.529 0 13.632-6.103 13.632-13.631 0-7.529-6.103-13.632-13.632-13.632s-13.632 6.103-13.632 13.632c0 7.528 6.103 13.631 13.632 13.631Zm49.412 0c7.529 0 13.632-6.103 13.632-13.631 0-7.529-6.103-13.632-13.632-13.632s-13.632 6.103-13.632 13.632c0 7.528 6.103 13.631 13.632 13.631Z" fill="#fff"/></svg>