<svg class="sinch-icon" xmlns="http://www.w3.org/2000/svg" viewBox="0 0 305 400" fill="none" aria-hidden="true" focusable="false"><path d="m301.075 140.175-45.19 58.194c-2.847 3.667-6.85 5.89-11.129 6.178-4.279.289-8.482-1.38-11.686-4.639-3.204-3.259-5.146-7.841-5.398-12.738-.252-4.898 1.206-9.71 4.053-13.377.29-.389.63-.778.94-1.145l49.31-53.604c2.49-2.679 5.786-4.158 9.203-4.131 3.418.028 6.695 1.561 9.151 4.28 2.457 2.719 3.905 6.417 4.044 10.326.139 3.909-1.042 7.728-3.298 10.667v-.011Zm-122.51 191.844L119.165 400h53.5a10.25 10.25 0 0 0 4.446-1.002 11.535 11.535 0 0 0 3.764-2.89l55.9-63.986-58.21-.103Zm-72.33-65.131 22.55-78.249c.967-3.368 2.96-6.225 5.615-8.051 2.655-1.826 5.795-2.498 8.847-1.894 3.052.604 5.813 2.443 7.779 5.183 1.965 2.74 3.005 6.197 2.929 9.741l-1.68 82.416a30.438 30.438 0 0 1-1.911 10.428c-1.235 3.296-3.031 6.278-5.282 8.773-2.252 2.494-4.915 4.451-7.834 5.755a20.98 20.98 0 0 1-9.167 1.845c-3.133-.087-6.219-.887-9.079-2.353-2.86-1.466-5.436-3.569-7.579-6.186-2.143-2.616-3.81-5.695-4.903-9.057a30.617 30.617 0 0 1-1.465-10.522 31.265 31.265 0 0 1 1.18-7.829Z" fill="#842306"/><path d="m267.085 86.65-5.1-4.67v1.855a11.848 11.848 0 0 0-2.95-.378h-79.39c-3.813.106-7.468 1.762-10.311 4.67-2.844 2.91-4.69 6.882-5.209 11.206l-23.56 227.42a16.46 16.46 0 0 0 1.15 8.15l-1.62.218 5.17 4.716c2.179 1.818 4.813 2.782 7.51 2.747h79.29c3.806-.096 7.458-1.743 10.299-4.644 2.841-2.902 4.685-6.868 5.201-11.187l23.75-227.42a15.904 15.904 0 0 0-.682-6.967c-.74-2.22-1.961-4.186-3.548-5.716Z" fill="#666"/><path d="M227.065 338.005h-79.32a10.69 10.69 0 0 1-5.115-1.139c-1.612-.804-3.05-2.003-4.212-3.513-1.162-1.51-2.019-3.294-2.512-5.226a15.629 15.629 0 0 1-.341-5.952l23.56-227.42c.519-4.325 2.365-8.297 5.209-11.206 2.843-2.909 6.498-4.565 10.311-4.67h79.46a10.74 10.74 0 0 1 5.125 1.15c1.614.807 3.054 2.01 4.218 3.524 1.164 1.514 2.024 3.301 2.52 5.237.495 1.935.613 3.971.347 5.965l-23.75 227.42c-.516 4.318-2.36 8.284-5.201 11.186-2.841 2.902-6.493 4.548-10.299 4.644Z" fill="#CCC"/><path d="M197.775 90.634a2.605 2.605 0 0 0-.071-.968 2.395 2.395 0 0 0-.415-.847 2.028 2.028 0 0 0-.684-.574 1.784 1.784 0 0 0-.83-.198c-.62.018-1.214.288-1.676.762a3.14 3.14 0 0 0-.844 1.825c-.037.325-.013.654.07.968.084.313.225.602.415.847.19.245.423.44.684.574.262.133.545.2.831.198.62-.018 1.214-.289 1.676-.763a3.14 3.14 0 0 0 .844-1.824Z" fill="#fff"/><path d="M222.635 93.496h-19.43c-.663 0-1.299-.302-1.768-.839-.469-.536-.732-1.264-.732-2.023 0-.76.263-1.487.732-2.024.469-.536 1.105-.838 1.768-.838h19.43c.663 0 1.299.302 1.768.838.468.537.732 1.265.732 2.024 0 .759-.264 1.487-.732 2.023-.469.537-1.105.839-1.768.839Z" fill="#F1F1F1"/><path d="m274.505 287.091-22.8 25.4c-2.64 3.072-6.223 4.844-9.986 4.939-3.764.094-7.411-1.496-10.166-4.433-2.754-2.937-4.399-6.988-4.584-11.292-.184-4.304 1.106-8.521 3.596-11.752l20.39-27.896c2.738-3.747 6.665-6.096 10.916-6.53 4.252-.434 8.48 1.084 11.754 4.218 3.274 3.135 5.326 7.63 5.705 12.496.379 4.867-.947 9.706-3.685 13.454-.359.487-.74.953-1.14 1.396Z" fill="#842306"/><path d="m276.615 250.485-23.05 25.011c-2.681 2.951-6.253 4.604-9.972 4.615-3.719.012-7.298-1.62-9.992-4.555-2.695-2.935-4.296-6.946-4.47-11.199-.174-4.252 1.092-8.418 3.534-11.628l20.69-27.621c2.785-3.708 6.742-5.998 11.002-6.366 4.26-.369 8.473 1.215 11.713 4.403 3.239 3.188 5.24 7.718 5.562 12.594.321 4.876-1.062 9.699-3.847 13.407-.38.389-.78.904-1.17 1.339Z" fill="#842306"/><path d="m277.785 212.608-23.06 25.034c-2.679 2.954-6.251 4.61-9.971 4.624-3.72.014-7.301-1.616-9.996-4.55-2.696-2.933-4.299-6.945-4.475-11.198-.175-4.253 1.09-8.42 3.532-11.632l20.67-27.632c2.809-3.583 6.731-5.765 10.927-6.081 4.197-.316 8.334 1.261 11.529 4.392 3.194 3.131 5.191 7.569 5.563 12.364.373 4.795-.908 9.567-3.569 13.294-.36.486-.744.949-1.15 1.385Zm-53.95 129.862-47.61.125c-2.236.008-4.412-.822-6.197-2.364-1.784-1.542-3.078-3.711-3.683-6.175-8.14-33.733-26.46-65.314-26.65-65.634l-.7-1.145-1.18.492c-4.436 2.005-8.57 4.794-12.25 8.265-8.16-10.153-14.58-16.861-14.65-16.93l-1.62-1.694-.92 2.289c-.39.962-9.48 24.038-2.64 61.938 3.54 18.257-1.64 35.026-15.82 51.257l-12.68 14.457c-.907 1.036-1.525 2.357-1.775 3.795a8.407 8.407 0 0 0 .368 4.284c.49 1.354 1.321 2.512 2.387 3.325 1.066.814 2.319 1.247 3.6 1.245h61.75l12.25-14.011 29.67 4.796 42.23-48.327-3.88.012Z" fill="#842306"/><path d="M172.175 0H12.565C9.382 0 6.33 1.447 4.08 4.023 1.83 6.6.565 10.093.565 13.736V120.6c0 3.643 1.264 7.137 3.515 9.713 2.25 2.576 5.302 4.023 8.485 4.023h169.61c.53 0 1.039-.241 1.414-.671a2.466 2.466 0 0 0 .586-1.618V13.736c0-3.643-1.264-7.137-3.515-9.713C178.41 1.447 175.357 0 172.175 0Z" fill="#FFBE3C"/><path d="M55.185 78.913c5.666 0 10.26-5.258 10.26-11.745 0-6.486-4.594-11.744-10.26-11.744-5.667 0-10.26 5.258-10.26 11.744 0 6.487 4.593 11.745 10.26 11.745Zm37.18 0c5.666 0 10.26-5.258 10.26-11.745 0-6.486-4.594-11.744-10.26-11.744-5.667 0-10.26 5.258-10.26 11.744 0 6.487 4.593 11.745 10.26 11.745Zm37.19 0c5.666 0 10.26-5.258 10.26-11.745 0-6.486-4.594-11.744-10.26-11.744-5.667 0-10.26 5.258-10.26 11.744 0 6.487 4.593 11.745 10.26 11.745Z" fill="#fff"/></svg>