<svg class="sinch-icon" xmlns="http://www.w3.org/2000/svg" viewBox="0 0 892 800" fill="none" aria-hidden="true" focusable="false"><path d="m627.124 332.588-111.039-14.382-6.617 51.091 111.039 14.382 6.617-51.091Z" fill="#760D00"/><path d="M491.263 329.05 383.384 476.502l41.578 30.419 107.88-147.452-41.579-30.419Z" fill="#760D00"/><path d="M512.394 369.494c14.227 0 25.76-11.534 25.76-25.761 0-14.227-11.533-25.76-25.76-25.76-14.227 0-25.761 11.533-25.761 25.76 0 14.227 11.534 25.761 25.761 25.761Z" fill="#760D00"/><path d="m811.175 325.389 8.082-11.911 33.313 22.606a7.196 7.196 0 0 1-8.082 11.91l-33.313-22.605Z" fill="#AD1900"/><path d="m606.25 353.784 17.91-39.402 34.029 50.745-51.939-11.343Z" fill="#0A273D"/><path d="M418.555 276.159c-6.069-.424-12.979 2.573-16.418 7.131l-1.588 2.089a1.362 1.362 0 0 1-.074.096l-8.866 11.155a5.315 5.315 0 0 1-3.567 1.978 5.316 5.316 0 0 1-3.922-1.125 5.263 5.263 0 0 1-1.394-1.671 5.332 5.332 0 0 1 .537-5.818l8.824-11.104 1.552-2.048c5.648-7.462 15.964-12.005 25.671-11.343l3.54.248" fill="#AD1900"/><path d="m405.394 305.164.2-8.179 6.722-7.851 13.134.917-1.093-17.373-15.796-1.101a5.324 5.324 0 0 0-4.421 1.85l-9.701 11.343a5.344 5.344 0 0 0-1.263 3.908s1.516 14.029 1.899 16.698c.414 2.88 2.57 4.946 4.871 5.003a5.337 5.337 0 0 0 5.448-5.215Z" fill="#AD1900"/><path d="M413.026 284.603a5.348 5.348 0 0 0-4.352 1.791l-10.197 11.594a5.341 5.341 0 0 0-.934 5.54l3.675 8.985c.068.167.143.328.227.487a5.335 5.335 0 0 0 9.644-4.523l-2.424-5.928 6.269-7.14m184.618 58.599h-57.04v57.04h57.04v-57.04Z" fill="#AD1900"/><path d="m635.451 496.538-66.817-128.572-50.613 26.303 66.816 128.572 50.614-26.303Z" fill="#AD1900"/><path d="M527.942 298.573c9.274 0 16.791-7.517 16.791-16.79s-7.517-16.791-16.791-16.791c-9.273 0-16.79 7.518-16.79 16.791s7.517 16.79 16.79 16.79Z" fill="#007171"/><path d="M542.512 409.284c15.264 0 27.638-12.374 27.638-27.638 0-15.264-12.374-27.638-27.638-27.638-15.264 0-27.638 12.374-27.638 27.638 0 15.264 12.374 27.638 27.638 27.638Z" fill="#AD1900"/><path d="M692.675 415.039c26.675 0 48.3-21.625 48.3-48.3 0-26.676-21.625-48.301-48.3-48.301-26.675 0-48.3 21.625-48.3 48.301 0 26.675 21.625 48.3 48.3 48.3Z" fill="#12364C"/><path d="M769.885 256.441c9.273 0 16.79-7.518 16.79-16.791s-7.517-16.791-16.79-16.791-16.791 7.518-16.791 16.791 7.518 16.791 16.791 16.791Z" fill="#059688"/><path d="M263.29 476.92s368.297-71.404 540.489 52.616c0 0-154.769 119.919-442.094 58.763l-136.319-57.398 37.924-53.981Z" fill="#FFBE3C"/><path d="m446.67 265.939-30.073-.487-4.558 24.065 2.91 5.901 31.721 1.257v-30.736Z" fill="#AD1900"/><path d="M528.026 265.452h-93.922v33.119h93.922v-33.119Z" fill="#007171"/><path d="M803.824 329.718c9.255 0 16.757-7.502 16.757-16.757 0-9.255-7.502-16.758-16.757-16.758-9.255 0-16.758 7.503-16.758 16.758 0 9.255 7.503 16.757 16.758 16.757Z" fill="#AD1900"/><path d="m787.255 310.484 14.325 1.402-3.921 40.065a7.197 7.197 0 0 1-14.325-1.403l3.921-40.064Zm18.891 17.582 11.121-9.138 25.558 31.105a7.196 7.196 0 1 1-11.12 9.138l-25.559-31.105Z" fill="#AD1900"/><path d="m806.699 313.208 11.121-9.138 35.477 43.176a7.194 7.194 0 0 1-.991 10.129 7.197 7.197 0 0 1-10.13-.991l-35.477-43.176Zm-7.601 23.738s.896-4.227 5.236-4.988c4.34-.761 7.241 2.764 7.241 2.764l1.576-8.979-13.82.379-.233 10.824Z" fill="#AD1900"/><path d="M478.684 800c289.016 0 412.824-221.348 412.824-221.348-19.916-2.152-46.1-7.627-77.422-20.047 0 0-80.672 42.939-189.97 7.164 0 0-11.101 5.074-30.298 10.175-151.718 40.253-307.125-50.353-347.995-201.895-20.489-75.971-19.982-167.732 68.896-223.641.809-.511 1.627-1.009 2.436-1.523 7.686-4.898 72.236-42.634 169.759 3.108 0 0 8.295 5.042 14.626 2.116 6.331-2.925.245-10.979-5.856-17.313-6.102-6.334-10.746-9.761-5.854-14.883 4.893-5.122 24.152 2.928 31.716 7.319s61.49 42.208 75.63 59.527c0 0 15.612 15.373 22.444 1.71 6.833-13.662-16.835-64.896-36.351-88.057-19.516-23.16-119.044-135.67-303.483-92.731 0 0-45.865 11.71-78.07 32.691 0 0 1.953-20.495-17.566-18.543-19.519 1.953-101 45.868-132.235 131.256 0 0-6.883-10.325-16.89-4.674a16.151 16.151 0 0 0-7.375 9.253c-11.044 34.898-81.953 260.5 58.524 448.942C86.18 608.597 213.409 800 478.684 800Z" fill="#A8D7E2"/><path d="M577.033 56.366a12.084 12.084 0 0 0-10.337 7.223 12.073 12.073 0 0 1-5.182 5.714 12.089 12.089 0 0 0-4.638 4.626 12.09 12.09 0 0 0-1.541 6.367 12.076 12.076 0 0 1-2.188 7.394 12.087 12.087 0 0 0-.8 12.588 12.08 12.08 0 0 1 1.239 7.609 12.079 12.079 0 0 0 4.74 11.689 12.093 12.093 0 0 1 4.418 6.319 12.064 12.064 0 0 0 3.478 5.552 12.062 12.062 0 0 0 5.865 2.919 12.085 12.085 0 0 1 6.719 3.779 12.08 12.08 0 0 0 12.095 3.582 12.09 12.09 0 0 1 7.696.487 12.078 12.078 0 0 0 12.447-2.021 12.062 12.062 0 0 1 7.146-2.898 12.086 12.086 0 0 0 10.34-7.224 12.054 12.054 0 0 1 5.182-5.716 12.08 12.08 0 0 0 6.179-10.994c-.1-2.636.665-5.233 2.179-7.394a12.093 12.093 0 0 0 .8-12.587 12.08 12.08 0 0 1-1.239-7.61 12.065 12.065 0 0 0-4.74-11.685 12.102 12.102 0 0 1-4.418-6.323 12.078 12.078 0 0 0-9.343-8.471 12.08 12.08 0 0 1-6.713-3.77 12.087 12.087 0 0 0-12.095-3.582 12.08 12.08 0 0 1-7.695-.486 12.076 12.076 0 0 0-12.448 2.02 12.064 12.064 0 0 1-7.146 2.893Z" fill="#0A273D"/><path d="M615.695 197.657c8.955 6.513 19.363-8.543 15.196-18.806l-3.02-7.444a6.704 6.704 0 0 1 3.689-8.725l2.358-.956a28.55 28.55 0 0 0 15.559-15.335 28.551 28.551 0 0 0 .157-21.846l-13.871-34.187c-4.931-12.157-11.833-15.916-11.833-15.916l-24.563 41.704a2.067 2.067 0 0 1-.817.776 2.064 2.064 0 0 1-2.162-.158 2.062 2.062 0 0 1-.696-.887 9.254 9.254 0 0 0-12.047-5.092 9.25 9.25 0 0 0-5.092 12.047l27.975 68.852 9.167 5.973Z" fill="#AD1900"/><path d="M624.874 136.115a14.678 14.678 0 0 0 19.226-7.803" stroke="#760D00" stroke-width="4" stroke-linecap="round" stroke-linejoin="round"/><path d="m776.225 224.17-108.906-54.56-14.834 29.611 108.906 54.56 14.834-29.611Z" fill="#059688"/><path d="m585.758 200.846-69.282 69.282 23.418 23.418 69.282-69.282-23.418-23.418Z" fill="#007171"/><path d="M657.294 215.471c13.279 0 24.044-10.765 24.044-24.044s-10.765-24.044-24.044-24.044c-13.28 0-24.044 10.765-24.044 24.044s10.764 24.044 24.044 24.044Z" fill="#059688"/><path d="M609.179 259.147c18.701 0 33.861-15.16 33.861-33.862 0-18.701-15.16-33.861-33.861-33.861-18.702 0-33.862 15.16-33.862 33.861 0 18.702 15.16 33.862 33.862 33.862Z" fill="#059688"/><path d="m595.403 194.571 52.002-24.898 22.065 29.551 64.744 142.682-88.206 24.08-59.458-88.457c-8.263-14.781-11.51-32.59-11.096-49.521l19.949-33.437Z" fill="#059688"/><path d="M605.743 350.972h84.89v64.063h-88.397a5.31 5.31 0 0 1-5.31-5.31v-49.939a8.819 8.819 0 0 1 2.583-6.234 8.822 8.822 0 0 1 6.234-2.58Z" fill="#12364C"/><path d="M721.318 314.382s-36.593 35.727-80.994 36.59l35.652 30.674 59.942-36.441-14.6-30.823Z" fill="#12364C"/><path d="m817.141 302.735-31.639-69.105-30.112 13.786 31.638 69.106 30.113-13.787Z" fill="#059688"/></svg>