<svg class="sinch-icon" xmlns="http://www.w3.org/2000/svg" viewBox="0 0 487 400" fill="none" aria-hidden="true" focusable="false"><path d="M300.831 32.088C300.831 14.348 286.484 0 268.743 0h-48.757c-17.741 0-32.088 14.347-32.088 32.088v20.539h112.933V32.088Z" fill="#FFBE3C"/><path d="M104.909 300.461H39.304v66.796c0 18.098 14.705 32.802 32.803 32.802s32.802-14.704 32.802-32.802v-66.796Zm338.146 0H377.45v66.796c0 18.098 14.704 32.802 32.802 32.802s32.803-14.704 32.803-32.802v-66.796Z" fill="#272727"/><path d="M414.598 117.637c0-35.958-29.111-65.07-65.069-65.07H137.652c-35.958 0-65.069 29.112-65.069 65.07v191.635h341.956c.059.06.059-115.553.059-191.635Z" fill="#F2F2F2" stroke="#FFBE3C" stroke-width=".02" stroke-miterlimit="1.5" stroke-linecap="round" stroke-linejoin="round"/><path d="M386.975 190.743v-58.402a36.23 36.23 0 0 0-10.597-25.599 36.232 36.232 0 0 0-25.599-10.597h-55.008c-20.003 0-36.196 16.193-36.196 36.196v64.772l127.4-6.37Zm-151.094 0v-58.402a36.23 36.23 0 0 0-10.597-25.599 36.23 36.23 0 0 0-25.599-10.597h-55.008c-20.003 0-36.196 16.193-36.196 36.196v64.772l127.4-6.37Z" fill="#CCC"/><path d="M324.704 234.202c-25.063 0-45.424-20.361-45.424-45.424s20.361-45.423 45.424-45.423 45.423 20.36 45.423 45.423c0 25.063-20.36 45.424-45.423 45.424Zm0-78.941c-18.455 0-33.517 15.062-33.517 33.517 0 18.455 15.062 33.517 33.517 33.517 18.455 0 33.517-15.062 33.517-33.517 0-18.514-15.062-33.517-33.517-33.517Z" fill="#272727"/><path d="M486.811 241.107c0-26.73-20.181-49.233-46.792-52.091a663390.257 663390.257 0 0 0-184.73-19.884 110.451 110.451 0 0 0-24.29 0c-33.1 3.572-126.209 13.693-183.36 19.884C21.028 191.933.906 214.377.906 241.107v97.872H486.81v-97.872Z" fill="#FFBE3C"/><path d="M384.832 279.327c0-3.393-1.369-6.667-3.751-9.108a12.881 12.881 0 0 0-9.108-3.751H116.22c-3.393 0-6.667 1.37-9.108 3.751a12.881 12.881 0 0 0-3.751 9.108v29.231c0 3.393 1.37 6.668 3.751 9.108a12.877 12.877 0 0 0 9.108 3.751h255.753c3.393 0 6.667-1.369 9.108-3.751a12.877 12.877 0 0 0 3.751-9.108v-29.231Z" fill="#F2F2F2"/><path d="M51.985 270.635c16.907 0 30.54-13.692 30.54-30.54s-13.693-30.54-30.54-30.54c-16.848 0-30.54 13.692-30.54 30.54s13.632 30.54 30.54 30.54Zm386.783 0c16.908 0 30.541-13.692 30.541-30.54s-13.693-30.54-30.541-30.54c-16.847 0-30.54 13.692-30.54 30.54s13.633 30.54 30.54 30.54Z" fill="#F2F2F2"/></svg>