<svg class="sinch-icon" xmlns="http://www.w3.org/2000/svg" viewBox="0 0 486 400" fill="none" aria-hidden="true" focusable="false"><path d="M104.004 300.461H38.399v66.796c0 18.098 14.704 32.803 32.802 32.803s32.803-14.705 32.803-32.803v-66.796Zm338.145 0h-65.605v66.796c0 18.098 14.705 32.803 32.803 32.803s32.802-14.705 32.802-32.803v-66.796Z" fill="#272727"/><path d="M413.693 117.637c0-35.958-29.112-65.07-65.07-65.07H136.747c-35.958 0-65.07 29.112-65.07 65.07v191.635h341.956c.06.06.06-115.553.06-191.635Z" fill="#F2F2F2" stroke="#FFBE3C" stroke-width=".02" stroke-miterlimit="1.5" stroke-linecap="round" stroke-linejoin="round"/><path d="M386.069 190.743v-58.402c0-9.585-3.81-18.812-10.596-25.599a36.234 36.234 0 0 0-25.6-10.597h-55.008c-20.003 0-36.196 16.193-36.196 36.196v64.772l127.4-6.37Zm-151.094 0v-58.402c0-9.585-3.81-18.812-10.596-25.599a36.234 36.234 0 0 0-25.599-10.597h-55.009c-20.003 0-36.195 16.193-36.195 36.196v64.772l127.399-6.37Z" fill="#CCC"/><path d="M323.798 234.202c-25.063 0-45.423-20.361-45.423-45.424s20.36-45.423 45.423-45.423c25.063 0 45.424 20.36 45.424 45.423 0 25.063-20.361 45.424-45.424 45.424Zm0-78.941c-18.455 0-33.517 15.062-33.517 33.517 0 18.455 15.062 33.517 33.517 33.517 18.455 0 33.517-15.062 33.517-33.517 0-18.514-15.062-33.517-33.517-33.517Z" fill="#272727"/><path d="M439.113 183.063c26.611 2.858 46.793 25.361 46.793 52.091v103.825H0V235.154c0-26.73 20.122-49.174 46.733-52.091h392.38Z" fill="#007171"/><path d="M383.926 279.327c0-3.393-1.369-6.667-3.75-9.108a12.885 12.885 0 0 0-9.109-3.751H115.315c-3.394 0-6.668 1.37-9.109 3.751a12.88 12.88 0 0 0-3.75 9.108v29.231c0 3.393 1.369 6.668 3.75 9.108a12.881 12.881 0 0 0 9.109 3.751h255.752c3.393 0 6.668-1.369 9.109-3.751a12.88 12.88 0 0 0 3.75-9.108v-29.231Z" fill="#F2F2F2"/><path d="M51.079 264.682c16.907 0 30.54-13.692 30.54-30.54s-13.692-30.54-30.54-30.54-30.54 13.692-30.54 30.54 13.633 30.54 30.54 30.54Zm386.784 0c16.907 0 30.54-13.692 30.54-30.54s-13.693-30.54-30.54-30.54c-16.848 0-30.541 13.692-30.541 30.54s13.633 30.54 30.541 30.54Z" fill="#F2F2F2"/></svg>