<svg class="sinch-icon" xmlns="http://www.w3.org/2000/svg" viewBox="0 0 1759 800" fill="none" aria-hidden="true" focusable="false"><path d="M1582.96 62.29v489.479c.01 20.37-3.99 40.541-11.78 59.361a155.128 155.128 0 0 1-83.93 83.958 155.105 155.105 0 0 1-59.36 11.809H291.114a155.07 155.07 0 0 1-143.278-95.769 155.065 155.065 0 0 1-11.789-59.359V62.289A62.302 62.302 0 0 1 198.346 0H1520.68a62.285 62.285 0 0 1 62.28 62.29Z" fill="#005F5F"/><path d="M193.279 799.502a8.854 8.854 0 0 1-8.732-7.408l-24.219-146.397h65.901L202.02 792.094a8.861 8.861 0 0 1-8.741 7.408Zm1372.151 0a8.863 8.863 0 0 1-8.74-7.408l-24.21-146.397h65.9l-24.22 146.397a8.876 8.876 0 0 1-3 5.305 8.864 8.864 0 0 1-5.73 2.103Z" fill="#12364C" stroke="#1B364A" stroke-width="1.07" stroke-miterlimit="10"/><path d="M155.891 495.76H1602.77v134.093a76.597 76.597 0 0 1-22.43 54.155 76.614 76.614 0 0 1-54.16 22.432H232.478a76.585 76.585 0 0 1-76.587-76.587V495.76Z" fill="#059688"/><path d="M219.33 706.44h-12.008A142.327 142.327 0 0 1 65.607 577.363l-18.45-197.125H219.33V706.44Zm1320.05 0h12.01a142.323 142.323 0 0 0 141.71-129.077l18.45-197.125h-172.17V706.44Z" fill="#059688"/><path d="M129.107 531.854c71.303 0 129.107-57.803 129.107-129.107 0-71.303-57.804-129.106-129.107-129.106C57.803 273.641 0 331.444 0 402.747c0 71.304 57.803 129.107 129.107 129.107Z" fill="#059688"/><path d="M129.107 436.716c18.76 0 33.968-15.208 33.968-33.968 0-18.761-15.208-33.969-33.968-33.969-18.76 0-33.969 15.208-33.969 33.969 0 18.76 15.209 33.968 33.969 33.968Z" fill="#005F5F"/><path d="M1758.7 402.758c0 25.534-7.58 50.495-21.76 71.725a129.141 129.141 0 0 1-57.95 47.546 129.1 129.1 0 0 1-140.69-27.993 129.06 129.06 0 0 1-35.33-66.105 129.128 129.128 0 0 1 7.34-74.593 129.119 129.119 0 0 1 47.56-57.94A129.092 129.092 0 0 1 1679 283.469a129.077 129.077 0 0 1 69.87 69.878 129.098 129.098 0 0 1 9.83 49.411Z" fill="#059688"/><path d="M1629.59 368.789a33.964 33.964 0 0 0-33.31 40.595 33.958 33.958 0 0 0 9.29 17.393 33.977 33.977 0 0 0 52.27-5.148 33.982 33.982 0 0 0-4.23-42.891 33.969 33.969 0 0 0-24.02-9.949Z" fill="#005F5F"/><path d="M1486.48 403.329c-54.95 88.462-130.39 95.24-135.82 95.657-2.04-5.037-29.37-75.661 25.6-164.124 54.98-88.462 130.39-95.25 135.82-95.657 2.06 5.037 29.38 75.661-25.6 164.124Z" fill="#FA0"/><path d="m1360.16 479.774 140.68-219.055" stroke="#FFBE3C" stroke-width="3.81" stroke-miterlimit="10" stroke-linecap="round"/><path d="m1442.91 233.086-14.97 23.599-39.69 62.605-15.48 24.423c-5.51 8.7-14.52 26.458-22.97 44.562a46.47 46.47 0 0 1-28.73 24.843 46.454 46.454 0 0 1-19.35 1.584 46.563 46.563 0 0 1-18.32-6.461 46.494 46.494 0 0 1-16.2-62.462l25.84-45.794c2-3.141 2.99-6.822 2.82-10.542a19.056 19.056 0 0 0-2.8-9.159 70.306 70.306 0 0 1-10.24-33.094 70.376 70.376 0 0 1 6.8-33.968c.55-1.16 1.14-2.29 1.76-3.429a82.187 82.187 0 0 1 2.28-3.847l8.14-12.781 22.39-35.343a69.704 69.704 0 0 1 21.06-21.309 70.291 70.291 0 0 1 87.76 8.951 70.347 70.347 0 0 1 20.43 42.081 70.338 70.338 0 0 1-10.5 45.582l-.03-.041Z" fill="#F2A068"/><path d="m1442.91 233.077-14.97 23.619-39.69 62.605a39.028 39.028 0 0 1-14.49-24.768 39.019 39.019 0 0 1 6.35-27.986l5.57-8.141c.22-.305.43-.621.65-.946l14.66-22.938c1.25-1.94 2.1-4.107 2.5-6.377a17.54 17.54 0 0 0-.13-6.848 17.617 17.617 0 0 0-2.76-6.271c-1.32-1.889-3-3.497-4.95-4.734a17.487 17.487 0 0 0-10.95-2.694 17.474 17.474 0 0 0-10.32 4.547l-.06.061a17.3 17.3 0 0 0-2.84 3.409l-.74 1.16a54.223 54.223 0 0 0-2.14 3.307c-.53.885-1.02 1.791-1.51 2.707-10.07 19.437-31.87 62.259-47.61 69.697-9.49 4.488-17.3 2.036-23.62-2.89a18.933 18.933 0 0 0-2.81-9.158 70.372 70.372 0 0 1-10.25-33.109 70.328 70.328 0 0 1 6.81-33.984c.55-1.15 1.14-2.289 1.76-3.419a82.315 82.315 0 0 1 2.27-3.857l8.14-12.781c6.76 3.226 18.87 11.092 17.3 27.73-2.25 23.874 12.33 26.082 19.69 19.559 10.18-8.996 4.54-33.582 23.25-53.782.14-.224.29-.447.44-.661l4.08-5.75a24.034 24.034 0 0 0 3.87-8.703c.7-3.131.76-6.37.18-9.525a24.021 24.021 0 0 0-3.54-8.843 24.187 24.187 0 0 0-6.71-6.765l-15.1-10.095a70.29 70.29 0 0 1 45.45-10.996 70.293 70.293 0 0 1 42.3 19.952 70.255 70.255 0 0 1 20.42 42.071 70.315 70.315 0 0 1-10.48 45.577l-.02.02Z" fill="#12364C"/><path d="m1370.73 216.795-2.12 3.317a41.349 41.349 0 0 1 2.12-3.317Zm3.58-4.568a51.776 51.776 0 0 0-3.58 4.569l.74-1.16a17.3 17.3 0 0 1 2.84-3.409Zm-22.17 165.823a117.557 117.557 0 0 1-34.42 83.079 117.522 117.522 0 0 1-83.08 34.417H1072.5v.142h-78.204V298.41h278.184a79.622 79.622 0 0 1 56.32 23.319 79.545 79.545 0 0 1 17.27 25.839 79.529 79.529 0 0 1 6.07 30.482Z" fill="#12364C"/><path d="m1162.09 47.301-6.82-4.043a6.638 6.638 0 0 0-9.1 2.326l-59.64 100.565a6.644 6.644 0 0 0 2.33 9.104l6.81 4.043c3.16 1.871 7.24.83 9.11-2.326l59.63-100.565c1.88-3.156.83-7.232-2.32-9.104Z" fill="#14374B"/><path d="m1158.21 107.31-3.69-4.732a10.026 10.026 0 0 0-13.44-2.391 9.976 9.976 0 0 0-2.79 2.856 9.812 9.812 0 0 0-1.41 3.729 9.82 9.82 0 0 0 1.93 7.57l3.88 5.007a18.619 18.619 0 0 1 3.67 8.501c.48 3.099.17 6.27-.9 9.216l-.81 2.208-2.62-2.463-43.94-51.33a9.835 9.835 0 0 0-3.15-2.44 9.846 9.846 0 0 0-3.87-.983 9.784 9.784 0 0 0-3.94.639 9.77 9.77 0 0 0-3.36 2.154 10.065 10.065 0 0 0-2.86 6.757c-.07 2.531.82 4.996 2.49 6.9l1.84 2.147a9.779 9.779 0 0 0-5.53 2.188 9.964 9.964 0 0 0-3.39 5.836 9.962 9.962 0 0 0 1.09 6.66l2.29 4.213a9.671 9.671 0 0 0-5.01 2.32 10.117 10.117 0 0 0-3.17 5.828c-.37 2.245.03 4.548 1.13 6.537l3.93 7.255a24.794 24.794 0 0 0-4.05 13.092 24.872 24.872 0 0 0 3.52 13.245l7.03 11.712a16.978 16.978 0 0 1 2.26 6.432c.3 2.274.14 4.587-.47 6.798l-6.73 24.148a29.171 29.171 0 0 0-.66 12.707 29.073 29.073 0 0 0 4.81 11.778 29.167 29.167 0 0 0 21.51 12.404 29.167 29.167 0 0 0 20.98-6.569 29.152 29.152 0 0 0 10.43-19.35l.46-4.274a135.702 135.702 0 0 1 7.61-32.961 104.46 104.46 0 0 1 8.81-18.399c6.19-10.013 10.27-23.1 11.46-27.17.27-.947.59-1.883.88-2.819a38.029 38.029 0 0 0 1.23-18.251 38.112 38.112 0 0 0-7.45-16.705Z" fill="#F2A068" stroke="#F2A068" stroke-miterlimit="10"/><path d="M461.75 397.538v98.181H292.386a34.275 34.275 0 0 1-34.264-34.274V286.413a17.412 17.412 0 0 1 34.813 0 86.5 86.5 0 0 0 18.165 53.028l37.581 48.389a39.494 39.494 0 0 0 33.907 15.173l79.162-5.465Z" fill="#F2F2F2"/><path d="M995.365 298.41H887.954a98.354 98.354 0 1 0 0 196.708h107.411s3.908-200.606 0-196.708Z" fill="#0A273D"/><path d="m1236.69 328.373-188.4 65.572c-27.04 9.408-41.32 38.95-31.91 65.984 9.4 27.033 38.95 41.32 65.98 31.912l188.4-65.572c27.03-9.409 41.32-38.951 31.91-65.984-9.41-27.033-38.95-41.321-65.98-31.912Z" fill="#F2A068" stroke="#F2A068" stroke-miterlimit="10"/><path d="m1139.45 194.683-23.26 252.912a52.194 52.194 0 0 1-5.78 19.511 52.113 52.113 0 0 1-12.81 15.814 52.147 52.147 0 0 1-38.12 11.837 52.187 52.187 0 0 1-35.33-18.586 52.152 52.152 0 0 1-11.83-38.122c.33-3.422.99-6.805 1.95-10.105l72.47-243.427a26.95 26.95 0 0 1 11.86-15.346 26.988 26.988 0 0 1 19.1-3.416 26.97 26.97 0 0 1 16.45 10.279 26.96 26.96 0 0 1 5.3 18.659v-.01Z" fill="#F2A068" stroke="#F2A068" stroke-miterlimit="10"/><path d="m1271.09 430.631-62.38 21.858-35.26-102.831 61.76-21.605a54.358 54.358 0 0 1 41.3 2.213 54.36 54.36 0 0 1 27.78 30.637 54.488 54.488 0 0 1 3.15 21.099 54.227 54.227 0 0 1-5.21 20.687 54.456 54.456 0 0 1-12.77 17.088 54.4 54.4 0 0 1-18.37 10.854Z" fill="#12364C" stroke="#1B364A" stroke-width="1.07" stroke-miterlimit="10"/><path d="M896.186 272.918c11.194 14.44 16.598 25.573 47.422 25.573l-11.387 43.371-45.437-24.545 9.402-44.399Zm-203.79 222.881h-280.52V353.941h280.52a70.932 70.932 0 0 1 70.898 70.929 70.931 70.931 0 0 1-70.898 70.929Z" fill="#0A273D"/><path d="M810.848 241.717 643.712 467.011l-113.974-84.464 167.176-225.344a70.928 70.928 0 0 1 46.564-27.904 70.923 70.923 0 0 1 52.655 13.199 70.93 70.93 0 0 1 14.715 99.219Z" fill="#0A273D"/><path d="m810.929 156.502 125.535 167.827a70.907 70.907 0 0 1 13.411 52.604 70.902 70.902 0 0 1-27.719 46.676 70.927 70.927 0 0 1-99.28-14.308L697.331 241.474a70.94 70.94 0 0 1 14.308-99.28 70.94 70.94 0 0 1 99.29 14.308Z" fill="#0A273D"/><path d="M692.477 353.941h209.632a70.94 70.94 0 0 1 70.929 70.929 70.939 70.939 0 0 1-70.929 70.929H692.477a70.937 70.937 0 0 1-50.154-20.774 70.942 70.942 0 0 1-15.376-77.298 70.935 70.935 0 0 1 65.53-43.786Z" fill="#0A273D"/></svg>