<svg class="sinch-icon" xmlns="http://www.w3.org/2000/svg" viewBox="0 0 1141 800" fill="none" aria-hidden="true" focusable="false"><path d="M565.038 452.249h-402.05V312.584c0-40.269 32.616-72.885 72.885-72.885h329.165v212.55Z" fill="#12364C"/><path d="M565.038 452.249h412.801V312.584c0-40.269-32.616-72.885-72.885-72.885H565.038v212.55Z" fill="#081B2B"/><path d="M977.839 620.248H162.988v49.562h814.851v-49.562Z" fill="#A7D5C2"/><path d="M977.839 452.249H162.988v167.999h814.851V452.249Z" fill="#059688"/><path d="M162.988 669.901h-51.657c-27.332 0-49.561-22.139-49.561-49.562V467.464c-.091-55.848 45.188-101.128 101.036-101.219h.182v303.656Zm814.851 0h51.661c27.33 0 49.56-22.139 49.56-49.562V467.464c.09-55.848-45.19-101.128-101.039-101.219h-.182v303.656Z" fill="#007171"/><path d="m665.255 270.037-5.193-.273c-13.211 0-25.328-7.197-31.705-18.677l-53.753-96.572c-3.371-1.366-5.648-4.646-5.922-8.29l-.455-7.38c-3.553-16.854-3.371-17.31-2.733-18.768a4.584 4.584 0 0 1 6.013-2.368c1.731.728 2.824 2.459 2.733 4.282.182 1.548 1.457 8.199 2.551 13.21l1.184-.182s-1.093-13.211 3.918-21.319c1.457-2.46 4.008-4.009 4.646-6.742a120.066 120.066 0 0 1 6.195-20.408c1.002-2.277 3.736-3.37 6.013-2.368 2.278 1.002 3.371 3.735 2.369 6.013a86.398 86.398 0 0 0-6.742 24.689c.456 11.662 1.913 23.323 4.282 34.803l66.781 74.706-.182 45.644Zm91.288-44.368c16.763 0 30.338-13.575 30.338-30.338v-30.338c0-16.764-13.575-30.339-30.338-30.339-16.764 0-30.339 13.575-30.339 30.339v30.338c0 16.672 13.484 30.338 30.156 30.338h.183Z" fill="#894915"/><path d="M873.34 286.436h-40.086l-16.673-27.787c-6.286-10.933-2.551-24.872 8.382-31.158 3.462-2.004 7.38-3.007 11.388-3.007h1.185l35.804 61.952Z" fill="#A8D7E2"/><path d="m670.265 451.611.365.547-.365-.547Z" fill="#081B2B"/><path d="m592.512 535.553-8.372 14.524 38.125 21.976 8.372-14.524-38.125-21.976Z" fill="#E83452"/><path d="m603.029 605.489 19.224-33.345-38.174-22.048c-11.024 19.041-57.943-20.681-71.7 3.098l90.65 52.295Z" fill="#F2F2F2"/><path d="m580.435 611.502-61.952-35.713c-7.926-4.556-10.659-14.668-6.104-22.595l90.65 52.204c-4.464 7.926-14.577 10.659-22.503 6.195 0-.091-.091-.091-.091-.091Z" fill="#081B2B"/><path d="m797.358 365.79.182.364H688.578c-32.525 0-62.59 17.402-78.898 45.553l-59.765 103.497 78.897 45.552 57.761-108.507h170.095c16.763 0 33.891-1.731 44.915-12.754a60.607 60.607 0 0 0 17.766-42.911c0-10.386-1.458-20.681-4.282-30.703H797.358v-.091Z" fill="#12364C"/><path d="M797.267 365.698h117.891c-2.551-9.019-6.195-17.674-10.933-25.783l-30.976-53.479h-40.086l-16.673-27.787c-6.286-10.933-2.551-24.872 8.382-31.158 3.462-2.004 7.38-3.007 11.388-3.007H665.346v45.28l76.984.182 54.937 95.752ZM458.991 614.053h-41.909v-60.221h44.004l-2.459 55.392c-.091 1.64 0 3.189.364 4.829Z" fill="#CDE9FB"/><path d="M467.737 604.123c0 11.935 3.553 21.501 12.391 29.518 5.83 5.285 13.028 8.929 20.772 10.295l11.297 2.369c5.557 1.184 9.475 6.013 9.475 11.662 0 6.559-5.375 11.934-11.935 11.934h-29.701c-10.386-.091-20.407-3.462-28.698-9.657-.82-.546-1.913-.455-2.46.365-.273.273-.364.729-.364 1.093v5.831c0 1.275-1.093 2.368-2.369 2.368H419.36c-1.275 0-2.369-1.093-2.369-2.368v-63.41h50.746Z" fill="#007171"/><path d="M403.963 614.053h-41.909v-60.221h44.005l-2.46 55.392c-.091 1.64 0 3.189.364 4.829Z" fill="#CDE9FB"/><path d="M412.709 604.123c0 11.935 3.553 21.501 12.391 29.518 5.83 5.285 13.028 8.929 20.772 10.295l11.297 2.369c5.557 1.184 9.475 6.013 9.475 11.662 0 6.559-5.375 11.934-11.935 11.934h-29.7c-10.386-.091-20.408-3.462-28.699-9.657-.82-.546-1.913-.455-2.46.365-.273.273-.364.729-.364 1.093v5.831c0 1.275-1.093 2.368-2.369 2.368h-26.785c-1.275 0-2.369-1.093-2.369-2.368v-63.41h50.746Z" fill="#007171"/><path d="M777.679 598.109h-44.004v16.764h44.004v-16.764Z" fill="#E83452"/><path d="M777.77 653.411v-38.538h-44.004c0 22.048-60.585 11.024-60.585 38.538H777.77Z" fill="#F2F2F2"/><path d="M761.189 669.901H689.58c-9.111 0-16.49-7.379-16.49-16.49h104.589c.091 9.02-7.288 16.399-16.308 16.49h-.182Z" fill="#081B2B"/><path d="M777.679 452.249h-91.106v154.06h91.106v-154.06Z" fill="#12364C"/><path d="m366.336 179.296 5.922 9.748c-.729 0-1.457.274-2.004.82-11.479 12.3-10.751 31.523 1.458 42.911 12.299 11.48 31.522 10.751 42.91-1.457 11.48-12.3 10.751-31.523-1.457-42.911l-.456-.456c-6.377-5.557-10.112-13.666-10.204-22.139v-.819c0-16.4-12.937-29.792-29.336-30.339h-1.093c-16.763 0-30.338 13.575-30.338 30.339h10.75c2.734 0 5.102 1.548 6.378 3.917 1.913 3.827 4.464 7.289 7.47 10.386Z" fill="#081B2B"/><path d="M227.036 439.494a60.6 60.6 0 0 1-17.766-42.911c0-19.861 5.284-39.449 15.215-56.668l66.78-115.431h121.444L331.17 366.245s-93.111 84.273-104.134 73.249Z" fill="#FFD03C"/><path d="M468.466 402.687v151.236H350.94V452.249h-80.994c-16.763 0-31.978-1.731-42.91-12.755a60.6 60.6 0 0 1-17.766-42.911c0-5.01.364-9.93 1.002-14.85s1.64-9.748 2.916-14.486l118.073-1.002h100.945c20.043.091 36.26 16.399 36.26 36.442Zm387.837 49.198H740.69c-5.011 0-9.11-4.1-9.11-9.111v-67.509c0-5.011 4.099-9.111 9.11-9.111h115.613c5.011 0 9.111 4.1 9.111 9.111v67.509c.091 5.011-3.918 9.02-8.928 9.111h-.183Z" fill="#E83452"/><path d="M803.371 431.569c.273.091.638.091.911.091 2.095 0 3.553 0 4.92-2.916 0 0 4.191-9.475 7.015-12.39 1.184 5.011 4.464 7.562 9.475 8.017 7.379.729 14.212-4.464 14.668-11.935.455-7.106-4.92-13.21-12.026-13.665h-.82c-12.846 0-24.872 13.756-26.694 23.049l-.911 4.373c-.547 2.369.82 4.738 3.189 5.285.091 0 .182.091.273.091Zm29.792-145.132 29.336 49.015 40.177 18.768c7.289-11.571 7.562-26.239.638-37.992l-17.583-29.882" fill="#894915"/><path d="M885.731 286.436h-52.569l-16.672-27.787c-6.286-10.933-2.551-24.872 8.382-31.158 3.462-2.004 7.379-3.007 11.388-3.007h1.184c7.744.365 14.668 4.647 18.495 11.389l29.792 50.563Z" fill="#CDE9FB"/><path d="M908.325 335.634c-.182 6.651-2.096 13.119-5.649 18.676l-50.017 59.948-30.065-10.204 39.905-68.42h45.826ZM756.542 224.485l30.339-30.339v15.215c0 8.382 6.833 15.215 15.214 15.215 1.003 2.277-.091 4.92-2.368 5.922-.547.273-1.185.364-1.731.364l-31.705.091c-4.282-.091-8.018-2.642-9.749-6.468Z" fill="#894915"/><path d="M786.881 195.149v-30.338c0-16.764-13.575-30.338-30.338-30.338-9.931 0-19.224 4.828-24.872 12.937l9.384 8.108c3.006 2.642 6.924 4.1 10.932 4.191 2.46 0 4.556 2.095 4.556 4.555v20.499c0 2.642 1.002 5.193 2.824 7.197 7.197 7.653 18.768 8.929 27.514 3.189Z" fill="#272727"/><path d="M761.553 179.934v40.451a5.093 5.093 0 0 1-5.102 5.101h-12.117c-10.021 0-18.221-8.199-18.221-18.221v-14.941c9.02 0 17.766 2.551 25.419 7.288l.182.092a3.41 3.41 0 0 0 1.64.455c1.731 0 3.097-1.367 3.097-3.006v-17.219h5.102Z" fill="#272727"/><path d="M756.543 188.771a5.91 5.91 0 0 0 5.921-5.921v-5.922a5.91 5.91 0 0 0-5.921-5.922 5.91 5.91 0 0 0-5.922 5.922v5.922a5.91 5.91 0 0 0 5.922 5.921Zm96.116 225.487s-20.316-16.399-30.065-10.204c-10.295 6.56-10.386 22.868-13.666 31.796-4.008 10.933-6.833 11.298-17.036 16.399 0 0 22.229 1.458 35.44 0 1.64-.273 3.28-.911 4.737-1.822 6.287-3.644 11.024-9.475 13.393-16.308l7.197-19.861Z" fill="#894915"/><path d="m372.167 224.485 14.304 45.553 82.177-.274c13.211 0 25.328-7.197 31.705-18.676l45.735-82.178-30.611-.364-52.204 56.03h-91.106" fill="#FFD03C"/><path d="m458.444 451.611-.364.547.364-.547Z" fill="#081B2B"/><path d="M325.339 431.569c-.273.091-.638.091-.911.091-2.187 0-4.009-1.549-4.464-3.645l-.911-4.373c-.547-2.642-2.643-6.104-5.467-9.019-1.64 6.924-8.564 11.115-15.488 9.475-6.924-1.64-11.115-8.564-9.475-15.488 1.367-5.74 6.56-9.839 12.482-9.839h.091c12.846 0 24.872 13.756 26.694 23.049l.911 4.373c.546 2.369-.82 4.738-3.189 5.285-.091 0-.182.091-.273.091Z" fill="#FEE1CC"/><path d="M347.477 414.258h-64.594c-3.006 0-5.466 2.46-5.466 5.466v24.508c0 3.826 5.193 8.017 8.2 8.017h64.411c3.007 0 5.467-2.46 5.467-5.466v-24.508c0-3.097-2.733-8.017-8.018-8.017Z" fill="#666"/><path d="M347.295 414.258h-64.412c-3.006 0-5.466 2.46-5.466 5.466v24.508c0 3.006 2.46 5.466 5.466 5.466h64.412c3.007 0 5.467-2.46 5.467-5.466v-24.508c0-3.006-2.46-5.466-5.467-5.466Z" fill="#272727"/><path d="m266.12 335.451-40.087 18.859c-7.288-11.57-7.561-26.238-.637-37.991l47.284-80.446c6.286-10.933 20.225-14.577 31.158-8.291s14.577 20.225 8.29 31.158l-46.008 76.711Z" fill="#FFD03C"/><path d="M220.385 335.634c.182 6.651 2.095 13.119 5.649 18.676l50.017 59.948 30.064-10.204-39.904-68.42h-45.826Zm151.782-111.149-30.338-30.339v15.215c0 8.382-6.833 15.215-15.215 15.215l-2.642 6.286c-4.555 10.568.365 22.868 10.933 27.423 2.642 1.093 5.466 1.731 8.291 1.731a20.93 20.93 0 0 0 19.223-12.664l9.748-22.867Z" fill="#FFE1CC"/><path d="M372.167 225.669c-16.763 0-30.338-13.575-30.338-30.338v-30.338c0-16.764 13.575-30.339 30.338-30.339 16.764 0 30.338 13.575 30.338 30.339v30.338c.092 16.672-13.392 30.247-30.065 30.338h-.273Z" fill="#FFE1CC"/><path d="M392.393 193.873c0-.728.637-1.366 1.366-1.366.729 0 1.367.638 1.367 1.366-.091 3.918 2.915 7.107 6.833 7.289-.182.911-.365 1.822-.638 2.733-5.102-.547-8.928-4.92-8.928-10.022Z" fill="#F2A068"/><path d="m378.089 179.296-5.922 9.748c.729 0 1.458.274 2.005.82 11.479 12.3 10.75 31.523-1.458 42.911-12.299 11.48-31.523 10.751-42.911-1.457-11.479-12.3-10.75-31.523 1.458-42.911l.455-.456c6.378-5.557 10.113-13.666 10.204-22.139v-.819c0-16.4 12.937-29.792 29.336-30.339h1.093c16.764 0 30.339 13.575 30.339 30.339h-10.751c-2.733 0-5.102 1.548-6.377 3.917-1.913 3.827-4.464 7.289-7.471 10.386Z" fill="#081B2B"/><path d="M372.167 188.953a5.91 5.91 0 0 1-5.922-5.922v-5.922a5.91 5.91 0 0 1 5.922-5.921 5.91 5.91 0 0 1 5.922 5.921v5.922a5.91 5.91 0 0 1-5.922 5.922Zm188.407-50.017-.456 7.38a9.836 9.836 0 0 1-5.921 8.291l-8.018 14.303-30.611-.273 14.668-18.677c2.369-11.479 3.826-23.141 4.282-34.802a86.402 86.402 0 0 0-6.742-24.69c-1.002-2.278.091-5.01 2.369-6.013 2.277-1.002 5.01.091 6.013 2.369a120.064 120.064 0 0 1 6.195 20.407c.638 2.734 3.097 4.374 4.646 6.742 5.011 8.109 3.918 21.319 3.918 21.319l1.184.182c1.002-5.011 2.369-11.661 2.551-13.21 0-1.822 1.093-3.553 2.733-4.282 2.278-1.002 5.011 0 6.013 2.369.456 1.184.729 1.731-2.824 18.585ZM276.051 414.258s20.316-16.399 30.064-10.204c10.295 6.56 10.387 22.868 13.666 31.796 4.009 10.933 6.833 11.298 17.037 16.399 0 0-22.23 1.458-35.44 0-1.64-.273-3.28-.911-4.738-1.822-6.286-3.644-11.023-9.475-13.392-16.308l-7.197-19.861Z" fill="#FFE1CC"/></svg>