<svg class="sinch-icon" xmlns="http://www.w3.org/2000/svg" viewBox="0 0 928 800" fill="none" aria-hidden="true" focusable="false"><path d="M402.37 206.741c0 10.444-8.444 18.889-18.889 18.889h-73.703c-10.445 0-18.889-8.445-18.889-18.889 0-9.778 7.926-17.704 17.704-17.704v-6.444a11.096 11.096 0 0 1 11.111-11.111c.963 0 1.852-.371 2.518-1.037a3.528 3.528 0 0 0 1.037-2.519s-.074-.889-.074-2.37c0-9.778 2.667-44.815 42.074-38.148v16c0 2-.815 3.926-2.222 5.407a7.573 7.573 0 0 1-5.333 2.222c-5.482.074-9.556 5.334-7.852 10.519v.074c0 .074.074.222.074.296 1.333 3.852 9.407 8.296 15.63 12.37a11.897 11.897 0 0 1 8.074-2.888c6.148.074 11.111 5.037 11.037 11.185v6.37c9.777.148 17.629 8 17.703 17.778Z" fill="#272727"/><path d="m245.704 287.703-36.593 56.741h31.778l27.555-43.111-22.74-13.63Z" fill="#894915"/><path d="m485.333 242.889-2.222.593c-16.889 4.296-34.592 3.926-51.259-1.186l-21.037-6.444c-.148-.074-.37-.074-.593-.148-9.185-2.445-18.666 3.037-21.111 12.222-.222.889-.37 1.778-.518 2.741l-5.482 52.444-82.889.519v-36.963a4.995 4.995 0 0 0-5.037-5.037c-1.777 0-3.407.963-4.37 2.444-7.63 12.741-15.926 26.593-22.815 38.222l-27.185-16.148c.148-.222 11.778-19.852 23.481-39.259 6.889-11.407 12.445-20.593 16.519-27.111 2.518-4 4.37-7.037 5.778-9.185 2.889-4.445 6.815-10.445 15.481-10.519l80.519.222c9.629 0 19.259.741 28.815 2.371 2.888.444 5.777 1.111 8.666 1.852l21.037 6.444c10.371 3.185 21.408 3.63 32.074 1.333l12.148 30.593Z" fill="#CDE8F9"/><path d="M358.222 189.111c-11.629 0-21.037-9.407-21.037-21.037v-21.037c0-11.63 9.408-21.037 21.037-21.037 11.63 0 21.037 9.407 21.037 21.037v21.037c0 11.63-9.407 21.037-21.037 21.037Z" fill="#894915"/><path d="M379.259 148.592v-1.629c0-11.63-9.333-21.037-20.963-21.037 0 22.592 20.667 22.222 20.963 22.666Z" fill="#272727"/><path d="M361.852 171.556c2.889 2.889 7.629 2.889 10.518 0" stroke="#0A273D" stroke-width="3" stroke-linecap="round" stroke-linejoin="round"/><path d="M383.185 302.963s29.63 72.518 42.445 103.926A47.24 47.24 0 0 1 427.778 436c-6.148 25.037-18.074 73.778-20.667 84.37a2.778 2.778 0 0 1-2.667 2.074h-43.629c-.815 0-1.63-.37-2.148-1.037-.519-.666-.667-1.481-.519-2.296 3.556-14.889 18.074-75.185 21.259-88.445a8.387 8.387 0 0 0-.444-5.037c-4.593-10.666-22.593-52.74-22.593-52.74s-15.407 152.889-17.629 174.296a2.735 2.735 0 0 1-2.741 2.444c-8.741-.148-38.074-.592-47.482-.74-.74 0-1.481-.371-2-.889a2.713 2.713 0 0 1-.666-2.074c2.296-23.185-3.111-176.371-3.111-176.371l5.852-29.852c.963-20.074 11.481-36.666 11.629-36.814h82.963v.074Z" fill="#059688"/><path d="M373.037 200c-.074 14-11.407 25.333-25.407 25.259-14-.074-25.334-11.407-25.26-25.407h7.112c4.148.074 7.629-3.259 7.703-7.408v-20.963h21.111v20.963a7.213 7.213 0 0 0 6.963 7.482h.297l7.481.074Z" fill="#894915"/><path d="M359.037 125.851c3.482.222 6.222 3.111 6.222 6.593v11.037c0 2-.814 3.926-2.222 5.407a7.569 7.569 0 0 1-5.333 2.222c-5.482.075-9.556 5.334-7.852 10.519v.074c0 .074.074.222.074.296 4.889 14.519-6.074 29.482-21.407 29.408l-5.334-.074v-23.408c0 .074-3.185-44.444 35.852-42.074Z" fill="#272727"/><path d="m671.852 288.592 34.815 55.852h-31.778l-25.778-42.223 22.741-13.629Z" fill="#FFE1CC"/><path d="M434.222 244.222c16.889 4.296 34.593 3.926 51.259-1.185l21.037-6.445c.149-.074.371-.074.593-.148 9.185-2.444 18.667 3.037 21.111 12.222.222.889.371 1.778.519 2.741l5.481 52.444 82.889.519-2.148-39.556c-.148-2.074 1.407-3.852 3.407-4 1.408-.074 2.741.593 3.482 1.852a5421.756 5421.756 0 0 1 24.592 41.111l30.074-16.963c-.148-.222-11.777-19.852-23.481-39.259-6.889-11.407-12.444-20.593-16.519-27.111-2.518-4-4.37-7.037-5.777-9.185-2.889-4.445-6.815-10.445-15.482-10.519l-80.518.222c-9.63 0-19.26.741-28.815 2.371-2.889.444-5.778 1.111-8.667 1.852l-21.037 6.444c-10.37 3.185-21.407 3.63-32.074 1.333l-9.926 31.26Z" fill="#E83452"/><path d="M559.185 168.814h-21.037v10.963c0 6.889 5.556 12.445 12.371 12.445h8.666v-23.408Z" fill="#FFD03C"/><path d="M544.371 200.814c.074 14 11.407 25.334 25.407 25.26 14-.074 25.333-11.408 25.259-25.408h-7.111c-4.148.074-7.629-3.259-7.704-7.407v-20.963h-21.111v20.963a7.212 7.212 0 0 1-6.963 7.481h-.296l-7.481.074Z" fill="#FFE1CC"/><path d="M559.185 189.851c11.63 0 21.037-9.407 21.037-21.037v-21.037c0-11.629-9.407-21.037-21.037-21.037-11.629 0-21.037 9.408-21.037 21.037v21.037c0 11.556 9.334 21.037 20.889 21.037h.148Z" fill="#FFE1CC"/><path d="M594.148 168.814v23.407l-5.333.074c-15.334.075-26.296-14.888-21.408-29.407 0-.074.074-.222.074-.296v-.074c1.334-4.297-1.037-8.889-5.333-10.223-.815-.222-1.704-.37-2.518-.37-2 0-3.926-.815-5.334-2.222l-.074-.074a7.986 7.986 0 0 0-8.444-2.074c-2.519.889-5.111 1.407-7.778 1.703v-1.629c0-10.963 8.444-20.148 19.407-20.963.297-.074.519-.074.815-.074 39.111-2.297 35.926 42.222 35.926 42.222Z" fill="#FFD03C"/><path d="M555.556 172.296c-2.889 2.889-7.63 2.889-10.519 0" stroke="#F2A068" stroke-width="3" stroke-linecap="round" stroke-linejoin="round"/><path d="M534.148 303.777s-29.629 72.519-42.444 103.926a47.225 47.225 0 0 0-2.148 29.111c6.148 25.037 18.074 73.778 20.666 84.37a2.78 2.78 0 0 0 2.667 2.075h43.63a2.74 2.74 0 0 0 2.148-1.038c.518-.666.666-1.481.518-2.296-3.555-14.889-18.074-75.185-21.259-88.444a8.4 8.4 0 0 1 .444-5.037c4.593-10.667 22.593-52.741 22.593-52.741s15.407 152.889 17.63 174.296a2.734 2.734 0 0 0 2.74 2.445c8.741-.148 38.075-.593 47.482-.741.741 0 1.481-.37 2-.889a2.71 2.71 0 0 0 .667-2.074c-2.297-23.185 3.111-176.37 3.111-176.37l-5.482-30.815c-.963-20.074-11.852-35.704-12-35.926h-82.963v.148Z" fill="#059688"/><path d="m531.333 276.888-25.629-28.741v96.297h-93.63v-94.741L386 276.518l2.148-19.778c1.556-15.185 8.074-30.148 16.445-42.889 2.518-3.778 5.851-6.963 9.777-9.185a27.041 27.041 0 0 1 12.815-3.704h1.185l49.334-.37h12.815c11.703 0 16.148 3.778 21.925 11.407.741.963 14.741 22.074 17.186 44.741l1.703 20.148Z" fill="#059688"/><path d="M459.556 210.518c-14 0-18.149-9.704-18.149-9.704 4.223 0 7.556-3.704 7.556-7.926v-20.815h21.111v20.963a7.54 7.54 0 0 0 7.556 7.556c.074 0-4.074 9.926-18.074 9.926Z" fill="#F2A068"/><path d="M449.037 192.444c11.63 0 21.037-9.407 21.037-21.037V150.37c0-11.63-9.407-21.037-21.037-21.037-11.63 0-21.037 9.407-21.037 21.037v21.037c0 11.63 9.407 21.037 21.037 21.037Z" fill="#F2A068"/><path d="M445.482 174.889c-2.889 2.889-7.63 2.889-10.519 0" stroke="#894915" stroke-width="3" stroke-linecap="round" stroke-linejoin="round"/><path d="M470.222 150.518c0-11.408-9.333-21.333-20.741-21.556-8.296-.148-15.925 4.593-19.481 12.148l8 .149c1.778 0 3.259-1.408 3.259-3.186v-.074c4.593.074 8.297 3.852 8.222 8.445l-.148 14.37h2.074a2.655 2.655 0 0 0 2.667-2.666 5.47 5.47 0 0 1 5.482-5.482 5.469 5.469 0 0 1 5.481 5.482v5.185c0 3.703 2 7.185 5.259 9.037l-.074-21.852Z" fill="#894915"/><path d="M470.148 143.333h-42c.889-10.889 10-19.259 20.963-19.259h.074c10.963-.074 20.074 8.37 20.963 19.259Z" fill="#081B2B"/><path d="M470.296 145.037v3.481h-42.222v-3.481c0-.593 0-1.186.074-1.778h42c.074.592.148 1.185.148 1.778Z" fill="#12364C"/><path d="M512.741 344.444H406.815l5.111-12.371h92.667l8.148 12.371Z" fill="#005F5F"/><path d="M459.407 517.259H132.519V403.704c0-32.741 26.518-59.26 59.259-59.26h267.629v172.815Z" fill="#12364C"/><path d="M459.407 517.259h335.63V403.704c0-32.741-26.518-59.26-59.259-59.26H459.407v172.815Z" fill="#081B2B"/><path d="M795.037 653.852H132.519v40.296h662.518v-40.296Z" fill="#A7D5C2"/><path d="M795.037 517.259H132.519v136.592h662.518V517.259Z" fill="#059688"/><path d="M132.519 694.222h-42c-22.223 0-40.297-18-40.297-40.296V529.629c-.074-45.407 36.741-82.222 82.148-82.296h.149v246.889Zm662.518 0h42c22.222 0 40.296-18 40.296-40.296V529.629c.074-45.407-36.74-82.222-82.148-82.296h-.148v246.889Z" fill="#007171"/><path d="m540.889 369.111-4.222-.223c-10.741 0-20.593-5.851-25.778-15.185l-43.704-78.518c-2.74-1.111-4.592-3.778-4.815-6.741l-.37-6c-2.889-13.704-2.741-14.074-2.222-15.259a3.728 3.728 0 0 1 4.889-1.926c1.407.592 2.296 2 2.222 3.481.148 1.26 1.185 6.667 2.074 10.741l.963-.148s-.889-10.741 3.185-17.333c1.185-2 3.259-3.26 3.778-5.482a97.566 97.566 0 0 1 5.037-16.592c.815-1.852 3.037-2.741 4.889-1.926 1.852.814 2.741 3.037 1.926 4.888a70.264 70.264 0 0 0-5.482 20.075c.371 9.481 1.556 18.963 3.482 28.296L541.037 332l-.148 37.111Zm74.222-36.074c13.63 0 24.667-11.037 24.667-24.667v-24.666c0-13.63-11.037-24.667-24.667-24.667-13.629 0-24.666 11.037-24.666 24.667v24.666c0 13.556 10.963 24.667 24.518 24.667h.148Z" fill="#894915"/><path d="M710.074 382.444h-32.592l-13.556-22.593c-5.111-8.889-2.074-20.222 6.815-25.333 2.815-1.63 6-2.445 9.259-2.445h.963l29.111 50.371Z" fill="#A8D7E2"/><path d="m544.963 516.74.296.445-.296-.445Z" fill="#081B2B"/><path d="m481.804 585.032-6.806 11.809 30.998 17.867 6.806-11.808-30.998-17.868Z" fill="#E83452"/><path d="m490.296 641.851 15.63-27.111-31.037-17.926c-8.963 15.482-47.111-16.815-58.296 2.519l73.703 42.518Z" fill="#F2F2F2"/><path d="m471.926 646.74-50.37-29.037c-6.445-3.703-8.667-11.926-4.963-18.37l73.703 42.444c-3.629 6.445-11.851 8.667-18.296 5.038l-.074-.075Z" fill="#081B2B"/><path d="m648.297 446.963.148.296h-88.593c-26.444 0-50.889 14.148-64.148 37.037l-48.593 84.148 64.148 37.037 46.963-88.222h138.297c13.629 0 27.555-1.407 36.518-10.37A49.272 49.272 0 0 0 747.482 472c0-8.445-1.185-16.815-3.482-24.963h-95.703v-.074Z" fill="#12364C"/><path d="M648.222 446.888h95.852c-2.074-7.333-5.037-14.37-8.889-20.963L710 382.444h-32.592l-13.556-22.593c-5.111-8.889-2.074-20.222 6.815-25.333 2.815-1.63 6-2.445 9.259-2.445H540.963v36.815l62.593.148 44.666 77.852ZM373.185 648.815h-34.074v-48.963h35.778l-2 45.037c-.074 1.333 0 2.666.296 3.926Z" fill="#CDE9FB"/><path d="M380.296 640.74c0 9.704 2.889 17.482 10.074 24 4.741 4.297 10.593 7.26 16.889 8.371l9.186 1.926c4.518.962 7.703 4.888 7.703 9.481 0 5.333-4.37 9.704-9.703 9.704h-24.149a39.488 39.488 0 0 1-23.333-7.852c-.667-.445-1.556-.37-2 .296-.222.222-.296.593-.296.889v4.741c0 1.037-.889 1.926-1.926 1.926h-21.778c-1.037 0-1.926-.889-1.926-1.926V640.74h41.259Z" fill="#007171"/><path d="M328.444 648.815H294.37v-48.963h35.778l-2 45.037c-.074 1.333 0 2.666.296 3.926Z" fill="#CDE9FB"/><path d="M335.556 640.74c0 9.704 2.889 17.482 10.074 24 4.74 4.297 10.592 7.26 16.889 8.371l9.185 1.926c4.518.962 7.703 4.888 7.703 9.481 0 5.333-4.37 9.704-9.703 9.704h-24.148a39.488 39.488 0 0 1-23.334-7.852c-.666-.445-1.555-.37-2 .296-.222.222-.296.593-.296.889v4.741c0 1.037-.889 1.926-1.926 1.926h-21.778c-1.037 0-1.926-.889-1.926-1.926V640.74h41.26Z" fill="#007171"/><path d="M632.296 635.852h-35.777v13.629h35.777v-13.629Z" fill="#E83452"/><path d="M632.371 680.815v-31.334h-35.778c0 17.926-49.26 8.963-49.26 31.334h85.038Z" fill="#F2F2F2"/><path d="M618.889 694.222h-58.222c-7.408 0-13.408-6-13.408-13.408h85.037c.074 7.334-5.926 13.334-13.259 13.408h-.148Z" fill="#081B2B"/><path d="M632.296 517.259h-74.074v125.259h74.074V517.259Z" fill="#12364C"/><path d="m297.852 295.333 4.815 7.926a2.3 2.3 0 0 0-1.63.667c-9.333 10-8.741 25.63 1.185 34.889 9.926 9.259 25.63 8.741 34.889-1.185 9.333-10 8.741-25.63-1.185-34.889l-.37-.371c-5.186-4.518-8.223-11.111-8.297-18v-.666c0-13.334-10.518-24.222-23.852-24.667h-.889c-13.629 0-24.666 11.037-24.666 24.667h8.741c2.222 0 4.148 1.259 5.185 3.185 1.555 3.111 3.629 5.926 6.074 8.444Z" fill="#081B2B"/><path d="M184.593 506.888a49.272 49.272 0 0 1-14.445-34.889c0-16.148 4.296-32.074 12.371-46.074l54.296-93.852h98.741l-66.297 115.26s-75.703 68.518-84.666 59.555Z" fill="#FFD03C"/><path d="M380.889 476.963v122.963h-95.556v-82.667h-65.851c-13.63 0-26-1.408-34.889-10.37A49.274 49.274 0 0 1 170.148 472c0-4.074.296-8.074.815-12.074.519-4 1.333-7.926 2.37-11.778l96-.815h82.074c16.297.074 29.482 13.333 29.482 29.63Zm315.333 40h-94c-4.074 0-7.407-3.334-7.407-7.408v-54.889c0-4.074 3.333-7.407 7.407-7.407h94c4.074 0 7.408 3.333 7.408 7.407v54.889c.074 4.074-3.185 7.334-7.26 7.408h-.148Z" fill="#E83452"/><path d="M653.185 500.444c.222.074.519.074.741.074 1.704 0 2.889 0 4-2.37 0 0 3.407-7.704 5.704-10.074.963 4.074 3.629 6.148 7.703 6.518 6 .593 11.556-3.629 11.926-9.704.371-5.777-4-10.74-9.777-11.111h-.667c-10.445 0-20.222 11.186-21.704 18.741l-.741 3.556c-.444 1.926.667 3.852 2.593 4.296.074.074.148.074.222.074Zm24.222-118 23.852 39.852 32.667 15.259c5.926-9.407 6.148-21.333.518-30.889l-14.296-24.296" fill="#894915"/><path d="M720.148 382.444h-42.741l-13.555-22.593c-5.111-8.889-2.074-20.222 6.815-25.333 2.815-1.63 6-2.445 9.259-2.445h.963c6.296.297 11.926 3.778 15.037 9.26l24.222 41.111Z" fill="#CDE9FB"/><path d="M738.519 422.444c-.149 5.408-1.704 10.667-4.593 15.186l-40.667 48.74-24.444-8.296 32.444-55.63h37.26Zm-123.408-90.37 24.667-24.667v12.371c0 6.814 5.556 12.37 12.37 12.37.815 1.852-.074 4-1.926 4.815-.444.222-.963.296-1.407.296l-25.778.074c-3.481-.074-6.518-2.074-7.926-5.259Z" fill="#894915"/><path d="M639.778 308.222v-24.667c0-13.629-11.037-24.666-24.667-24.666-8.074 0-15.629 3.926-20.222 10.518l7.63 6.593c2.444 2.148 5.629 3.333 8.889 3.407 2 0 3.703 1.704 3.703 3.704v16.667c0 2.148.815 4.222 2.297 5.851 5.852 6.223 15.259 7.26 22.37 2.593Z" fill="#272727"/><path d="M619.185 295.852v32.888a4.141 4.141 0 0 1-4.148 4.149h-9.852c-8.148 0-14.814-6.667-14.814-14.815v-12.148c7.333 0 14.444 2.074 20.666 5.926l.148.074c.371.222.889.37 1.334.37 1.407 0 2.518-1.111 2.518-2.444v-14h4.148Z" fill="#272727"/><path d="M615.111 303.036a4.805 4.805 0 0 0 4.815-4.815v-4.814a4.805 4.805 0 0 0-4.815-4.815 4.806 4.806 0 0 0-4.815 4.815v4.814a4.806 4.806 0 0 0 4.815 4.815ZM693.26 486.37s-16.519-13.334-24.445-8.297c-8.37 5.334-8.444 18.593-11.111 25.852-3.259 8.889-5.556 9.185-13.852 13.334 0 0 18.074 1.185 28.815 0a10.681 10.681 0 0 0 3.852-1.482c5.111-2.963 8.963-7.704 10.889-13.259l5.852-16.148Z" fill="#894915"/><path d="m302.593 332.074 11.629 37.037 66.815-.222c10.741 0 20.593-5.852 25.778-15.185L444 286.889l-24.889-.296-42.444 45.555h-74.074" fill="#FFD03C"/><path d="m372.741 516.74-.296.445.296-.445Z" fill="#081B2B"/><path d="M264.518 500.444c-.222.074-.518.074-.74.074-1.778 0-3.26-1.259-3.63-2.963l-.741-3.555c-.444-2.149-2.148-4.963-4.444-7.334-1.333 5.63-6.963 9.037-12.593 7.704-5.629-1.333-9.037-6.963-7.703-12.593 1.111-4.666 5.333-8 10.148-8h.074c10.444 0 20.222 11.186 21.704 18.741l.74 3.556c.445 1.926-.666 3.852-2.592 4.296-.074.074-.148.074-.223.074Z" fill="#FEE1CC"/><path d="M282.519 486.37H230c-2.444 0-4.444 2-4.444 4.445v19.925c0 3.112 4.222 6.519 6.666 6.519h52.371c2.444 0 4.444-2 4.444-4.444v-19.926c0-2.519-2.222-6.519-6.518-6.519Z" fill="#666"/><path d="M282.371 486.37H230c-2.444 0-4.444 2-4.444 4.445v19.925c0 2.445 2 4.445 4.444 4.445h52.371c2.444 0 4.444-2 4.444-4.445v-19.925c0-2.445-2-4.445-4.444-4.445Z" fill="#272727"/><path d="m216.371 422.296-32.593 15.333c-5.926-9.407-6.148-21.333-.519-30.889l38.445-65.407c5.111-8.889 16.444-11.852 25.333-6.741 8.889 5.111 11.852 16.445 6.741 25.334l-37.407 62.37Z" fill="#FFD03C"/><path d="M179.185 422.444c.148 5.408 1.704 10.667 4.593 15.186l40.667 48.74 24.444-8.296-32.444-55.63h-37.26Zm123.408-90.37-24.667-24.667v12.371c0 6.814-5.555 12.37-12.37 12.37l-2.148 5.111c-3.704 8.593.296 18.593 8.888 22.296 2.149.889 4.445 1.408 6.741 1.408a17.017 17.017 0 0 0 15.63-10.297l7.926-18.592Z" fill="#FFE1CC"/><path d="M302.593 333.037c-13.63 0-24.667-11.037-24.667-24.667v-24.666c0-13.63 11.037-24.667 24.667-24.667 13.629 0 24.666 11.037 24.666 24.667v24.666c.074 13.556-10.889 24.593-24.444 24.667h-.222Z" fill="#FFE1CC"/><path d="M319.037 307.185a1.14 1.14 0 0 1 1.111-1.111 1.14 1.14 0 0 1 1.111 1.111c-.074 3.186 2.371 5.778 5.556 5.926-.148.741-.296 1.482-.519 2.222-4.148-.444-7.259-4-7.259-8.148Z" fill="#F2A068"/><path d="m307.407 295.333-4.814 7.926c.592 0 1.185.223 1.629.667 9.334 10 8.741 25.63-1.185 34.889-9.926 9.259-25.63 8.741-34.889-1.185-9.333-10-8.741-25.63 1.185-34.889l.371-.371c5.185-4.518 8.222-11.111 8.296-18v-.666c0-13.334 10.519-24.222 23.852-24.667h.889c13.629 0 24.666 11.037 24.666 24.667h-8.74c-2.223 0-4.148 1.259-5.186 3.185-1.555 3.111-3.629 5.926-6.074 8.444Z" fill="#081B2B"/><path d="M302.593 303.185a4.805 4.805 0 0 1-4.815-4.815v-4.815a4.805 4.805 0 0 1 4.815-4.815 4.805 4.805 0 0 1 4.814 4.815v4.815a4.805 4.805 0 0 1-4.814 4.815Zm153.185-40.667-.371 6.001a7.998 7.998 0 0 1-4.814 6.74l-6.519 11.63-24.889-.222 11.926-15.186c1.926-9.333 3.111-18.814 3.482-28.296a70.249 70.249 0 0 0-5.482-20.074c-.815-1.852.074-4.074 1.926-4.889 1.852-.815 4.074.074 4.889 1.926a97.577 97.577 0 0 1 5.037 16.593c.519 2.222 2.519 3.555 3.778 5.481 4.074 6.593 3.185 17.334 3.185 17.334l.963.148c.815-4.074 1.926-9.482 2.074-10.741 0-1.482.889-2.889 2.222-3.482 1.852-.814 4.074 0 4.889 1.926.371.963.593 1.408-2.296 15.111ZM224.445 486.37s16.518-13.334 24.444-8.297c8.37 5.334 8.444 18.593 11.111 25.852 3.259 8.889 5.556 9.185 13.852 13.334 0 0-18.074 1.185-28.815 0a10.688 10.688 0 0 1-3.852-1.482c-5.111-2.963-8.963-7.704-10.889-13.259l-5.851-16.148Z" fill="#FFE1CC"/></svg>