<svg class="sinch-icon" xmlns="http://www.w3.org/2000/svg" viewBox="0 0 887 800" fill="none" aria-hidden="true" focusable="false"><path d="M679.346 779.881c7.49 12.976 23.241 18.102 23.241 18.102s4.704 1.978 13.71 1.978h23.984a12.931 12.931 0 0 0 12.815-11.252 12.931 12.931 0 0 0-9.492-14.169 12.807 12.807 0 0 0-2.678-.378 6 6 0 0 1-2.676-.75c-5.695-3.348-18.17-10.906-21.423-15.35-4.284-5.85-37.481 21.819-37.481 21.819Z" fill="#00807D"/><path d="M679.346 779.881a1.964 1.964 0 0 0-3.41.857l-1.417 6.354a2.625 2.625 0 0 1-3.13 1.986l-28.941-6.461a2.626 2.626 0 0 1-1.989-3.13l16.84-75.41a3.23 3.23 0 0 1 .506-1.149 3.225 3.225 0 0 1 2.078-1.319 3.209 3.209 0 0 1 1.254.031l22.824 5.097a8.591 8.591 0 0 1 6.524 10.244 26.29 26.29 0 0 1 16.502-4.745 3.77 3.77 0 0 1 3.456 3.003 3.768 3.768 0 0 1-.02 1.627l-.939 3.862a46.893 46.893 0 0 0 7.346 37.328" fill="#00807D"/><path d="m694.319 490.717-43.067 220.122 86.613 16.945 43.066-220.121-86.612-16.946Z" fill="#0A273D"/><path d="M573.024 119.104c-22.205.444-39.847 18.855-39.847 41.062v86.048c0 8.427-2.453 8.332-2.755 8.781l20.261 19.676c4.942 4.045 19.846 1.731 21.383 1.327l1.407-10.866a22.642 22.642 0 0 1 3.502-9.589c1.902-2.885 3.935-4.509 5.265-5.118.971-.446 9.416-3.534 18.464-7.17a22.054 22.054 0 0 0 13.838-20.463v-63.025a40.679 40.679 0 0 0-25.697-37.811 40.696 40.696 0 0 0-15.821-2.852Z" fill="#FF7F51"/><path d="M621.321 203.76a1.619 1.619 0 0 1-1.616-1.617v-25.428a1.621 1.621 0 0 1 2.739-1.103c.301.29.479.685.496 1.103v25.428a1.61 1.61 0 0 1-.475 1.144 1.605 1.605 0 0 1-1.144.473Z" fill="#0A273D"/><path d="M621.321 190.765h-62.718c-.429 0-.841-.171-1.145-.474a1.623 1.623 0 0 1 0-2.29 1.623 1.623 0 0 1 1.145-.474h62.718c.429 0 .841.171 1.145.474a1.623 1.623 0 0 1 0 2.29 1.623 1.623 0 0 1-1.145.474Z" fill="#0A273D"/><path d="M589.116 169.936a15.258 15.258 0 0 0-10.789 4.467 15.262 15.262 0 0 0-4.469 10.788v5.509c-8.424 0-15.255 6.398-15.255 14.825a15.255 15.255 0 0 1-15.255 15.255h-10.171v-50.844h55.939Z" fill="#842306"/><path d="M630.852 155.74 514.76 172.304a4.984 4.984 0 0 0 1.408 9.869l116.092-16.564a4.984 4.984 0 0 0-1.408-9.869Z" fill="#00807D"/><path d="M624.934 156.87 549.271 0l-28.823 171.509 52.224-7.448.037.26 52.225-7.451Z" fill="#0A273D"/><path d="M187.26 709.594c4.132 8.45 5.877 22.129 2.385 30.862l21.25 4.985 33.608-6.496-23.91-49.354-33.333 20.003Z" fill="#FF7F51"/><path d="M180.2 799.999h-21.722a12.925 12.925 0 0 1-1.167-25.799l14.912-1.248c5.139-.557 8.203-7.706 8.203-7.706l4.788-17.545c4.095-14.972 15.74-16.493 30.187-11.918.14.042.279.089.415.136l.118.04a2.12 2.12 0 0 0 2.54-.987 35.799 35.799 0 0 1 15.709-14.953 2.25 2.25 0 0 1 3.011 1.031l21.25 43.601a2.261 2.261 0 0 1 .098 1.718 2.25 2.25 0 0 1-1.147 1.283l-30.338 14.804a2.247 2.247 0 0 1-1.715.105 2.257 2.257 0 0 1-1.286-1.139l-3.214-6.595a2.266 2.266 0 0 0-2.177-1.268 2.263 2.263 0 0 0-2.002 1.531l-.915 2.686a30.932 30.932 0 0 1-15.741 17.839s-10.625 4.384-19.807 4.384Z" fill="#00807D"/><path d="m141.246 485.001-79.723 37.855L157.73 725.47l79.723-37.856-96.208-202.613Z" fill="#0A273D"/><path d="M171.661 593.634h-55.827a29.982 29.982 0 0 0-29.2 23.695l-36.87 174.458a10.139 10.139 0 0 1-4.392 6.404 10.154 10.154 0 0 1-11.272-.136 10.148 10.148 0 0 1-4.188-10.466l36.87-174.458c4.86-23.057 25.489-39.792 49.058-39.792h51.592v-3.526h77.024v3.479h54.653c23.564 0 44.195 16.735 49.059 39.792l36.79 174.508a10.14 10.14 0 0 1-4.189 10.467 10.16 10.16 0 0 1-3.639 1.559 10.165 10.165 0 0 1-7.634-1.424 10.151 10.151 0 0 1-4.392-6.405l-36.791-174.507a29.97 29.97 0 0 0-29.198-23.687h-55.832l-71.622.039Z" fill="#CCD4D9"/><path d="M75.66 720.014a33.273 33.273 0 0 1-10.861 24.72l49.582 26.649v-54.829l-38.721 3.46Z" fill="#FF7F51"/><path d="m12.873 773.008 16.635-1.081a23.2 23.2 0 0 0 16.042-7.899l12.003-13.668c10.231-11.667 21.383-7.926 32.357 2.513.108.097.21.199.312.302l.09.089a2.11 2.11 0 0 0 2.715.225 35.806 35.806 0 0 1 20.67-6.558 2.252 2.252 0 0 1 2.256 2.246v48.504a2.246 2.246 0 0 1-2.246 2.246h-33.78a2.246 2.246 0 0 1-2.245-2.246v-7.346a2.261 2.261 0 0 0-1.401-2.092 2.267 2.267 0 0 0-2.468.497l-2 2.012a30.952 30.952 0 0 1-21.968 9.156H13.469A13.465 13.465 0 0 1 0 786.371c.034-7.114 5.771-12.902 12.873-13.363Z" fill="#00807D"/><path d="M271.677 217.937c31.279 0 56.637-25.357 56.637-56.637s-25.358-56.637-56.637-56.637c-31.28 0-56.637 25.357-56.637 56.637s25.357 56.637 56.637 56.637Z" fill="#0A273D"/><path d="m316.76 261.634 9.93-60.601v-47.762c0-26.722-21.567-48.667-48.29-48.615-26.57.053-48.095 21.609-48.095 48.193v61.222a35.17 35.17 0 0 0 35.186 35.154c5.228 0 10.157 2.996 12.096 7.852s-.354 11.648-3.864 15.114l-22.43 22.524 17.023 31.521 48.444-64.602Z" fill="#FF7F51"/><path d="M271.236 104.443c19.938-1.425 35.219 6.078 44.753 17.419 9.533 11.341 9.922 26.715 27.443 41.778 15.946 13.713 26.712 11.257 41.561 24.713 4.885 4.426 7.726 10.357 11.265 18.464 4.738 10.858 15.675 16.089 28.619 21.454 24.815 10.286 42.037 35.191 40.925 63.975-1.312 33.942-27.52 61.099-61.388 63.539h-76.079l-2.243-68.259v-13.117l-3.983-8.358v.262c-2.55-2.159-5.509-4.798-8.657-5.902-7.456-2.624-15.045-12.21-15.045-26.371v-60.016c0-6.895-5.607-12.593-12.498-12.446a12.221 12.221 0 0 0-11.701 9.864l-32.656-53.68c.152-.186 10.26-11.934 29.684-13.319Z" fill="#0A273D"/><path d="M287.504 201.371a4.415 4.415 0 1 0 0-8.83 4.415 4.415 0 0 0 0 8.83Z" fill="#CCD4D9"/><path d="M316.469 261.898c37.252 21.544 28.231 93.691 28.231 93.691-8.584 26.263-15.479 66.601-18.157 96.804h-86.835l-9.542-88.997c-.71-6.507-.95-13.058-.716-19.6.375-9.882 1.771-18.101 7.002-28.755a73.238 73.238 0 0 1 14.827-20.316 21.543 21.543 0 0 0 29.548-.065l35.642-32.762Z" fill="#00807D"/><path d="m344.739 552.428-.021.083c-3.006 14.104-17.682 22.239-29.957 22.239l-210.923-.086a24.077 24.077 0 0 1-17.072-7.018 24.072 24.072 0 0 1-7.08-17.047v-.344a4.496 4.496 0 0 1 4.497-4.496h224.531" fill="#842306"/><path d="M643.801 593.634h55.824c14.028 0 26.308 9.969 29.204 23.695l36.87 174.458a10.137 10.137 0 0 0 8.06 7.999 10.155 10.155 0 0 0 7.657-1.62 10.145 10.145 0 0 0 4.131-10.577l-36.866-174.458c-4.862-23.057-25.492-39.792-49.059-39.792H648.03v-3.526h-77.026v3.479h-54.651c-23.564 0-44.194 16.735-49.058 39.792L430.504 787.6a10.14 10.14 0 0 0 4.188 10.465 10.142 10.142 0 0 0 11.272.136 10.148 10.148 0 0 0 4.391-6.404l36.791-174.507a29.974 29.974 0 0 1 29.202-23.687h55.821l71.632.031Z" fill="#CCD4D9"/><path d="m470.724 552.428.018.083c3.006 14.104 17.684 22.239 29.959 22.239l210.924-.086a24.081 24.081 0 0 0 17.073-7.018 24.064 24.064 0 0 0 7.081-17.047v-.344a4.502 4.502 0 0 0-2.778-4.155 4.48 4.48 0 0 0-1.721-.341H506.759" fill="#842306"/><path d="M774.275 716.861h23.39a8.596 8.596 0 0 1 8.592 8.592 26.282 26.282 0 0 1 15.069-8.23 3.793 3.793 0 0 1 3.055.875 3.785 3.785 0 0 1 1.31 2.895l-.076 3.975a46.876 46.876 0 0 0 15.303 34.828 46.881 46.881 0 0 0 23.031 11.452l12.524 2.589a13.198 13.198 0 0 1 6.661 22.263 13.201 13.201 0 0 1-9.334 3.866h-32.906c-11.359 0-22.677-3.935-31.804-10.711a1.955 1.955 0 0 0-1.001-.379 1.955 1.955 0 0 0-1.84.924 1.967 1.967 0 0 0-.294 1.029v6.509a2.624 2.624 0 0 1-2.623 2.623h-29.645a2.623 2.623 0 0 1-2.623-2.623v-77.26a3.204 3.204 0 0 1 .939-2.274 3.221 3.221 0 0 1 2.272-.943Z" fill="#00807D"/><path d="M764.571 452.341H488.865l17.839 93.354h219.628l36.728 180.631h93.131l-29.382-214.363c-4.809-40.875-29.362-59.622-62.238-59.622Z" fill="#12364C"/><path d="M515.039 553.406c-6.661-80.208-27.119-194.133-66.958-240.678-6.645-7.76-16.945-5.936-11.661 26.759 9.085 56.223 34.346 213.13 34.346 213.13l44.273.789Z" fill="#842306"/><path d="M311.232 345.707c14.199 0 25.71-11.51 25.71-25.709s-11.511-25.71-25.71-25.71c-14.198 0-25.709 11.511-25.709 25.71 0 14.199 11.511 25.709 25.709 25.709Z" fill="#F4865F"/><path d="m572.066 276.011-41.644-21.014-1.747 3.563c-3.843 7.838-10.397 13.83-17.803 18.455-7.581 4.723-12.285 10.707-16.905 19.891l-11.084 22.863-53.953 118.868c-8.448 18.626 5.165 39.742 25.61 39.742h120.394l33.553-25.051-17.065-126.187s-6.296-26.586-17.564-39.451c0 .003-2.886-3.216-1.792-11.679Z" fill="#CCD4D9"/><path d="m670.359 488.878-16.827-13.623a9.203 9.203 0 0 0-10.2-.921l-11.761 6.425c-8.455 4.622-17.931 8.025-27.569 8.062l-154.258-.501c-22.781.089-37.751-23.756-27.769-44.234l60.796-124.088 50.013 50.971-40.065 68.361 99.776 4.816c5.578.438 11.17-.65 16.176-3.148l14.24-7.083a16.482 16.482 0 0 1 10.293-1.465 16.483 16.483 0 0 1 9.121 4.991l37.961 40.81a7.294 7.294 0 0 1-.179 10.118 7.285 7.285 0 0 1-9.748.509Z" fill="#FF7F51"/><path d="m545.52 132.641 2.592 5.247a.142.142 0 0 0 .05.061.14.14 0 0 0 .073.028l5.795.842a1.013 1.013 0 0 1 .835 1.243c-.045.183-.141.35-.276.481l-4.197 4.087a.154.154 0 0 0-.04.067.159.159 0 0 0-.005.078l.989 5.771a1.009 1.009 0 0 1-1.464 1.05l-5.184-2.724a.165.165 0 0 0-.152 0l-5.184 2.724a1.003 1.003 0 0 1-1.055-.073 1.006 1.006 0 0 1-.409-.977l.99-5.771a.171.171 0 0 0-.005-.078.176.176 0 0 0-.04-.067l-4.198-4.087a1.014 1.014 0 0 1-.256-1.036 1.011 1.011 0 0 1 .815-.688l5.795-.842a.143.143 0 0 0 .074-.028.142.142 0 0 0 .05-.061l2.592-5.247a1.01 1.01 0 0 1 1.815 0Zm39.218-16.733 3.52 4.678a.161.161 0 0 0 .06.05c.024.012.05.017.077.015l5.853-.249a1.007 1.007 0 0 1 .926.525 1.003 1.003 0 0 1-.058 1.062l-3.361 4.796a.169.169 0 0 0-.029.072.16.16 0 0 0 .011.078l2.044 5.488c.065.176.079.367.042.551a1.014 1.014 0 0 1-.731.772 1.006 1.006 0 0 1-.552-.012l-5.599-1.713a.171.171 0 0 0-.078-.004.171.171 0 0 0-.071.033l-4.586 3.639a1.003 1.003 0 0 1-1.059.125 1.004 1.004 0 0 1-.578-.896l-.1-5.856a.16.16 0 0 0-.02-.076.173.173 0 0 0-.053-.058l-4.88-3.237a1.014 1.014 0 0 1-.445-.968 1.012 1.012 0 0 1 .674-.826l5.538-1.905a.176.176 0 0 0 .105-.11l1.574-5.643a1.003 1.003 0 0 1 .786-.714 1.009 1.009 0 0 1 .99.383Zm-30.264-35.873 3.321 4.408c.015.02.034.036.056.047a.18.18 0 0 0 .072.016l5.51-.236a.952.952 0 0 1 .99 1.002.952.952 0 0 1-.172.493l-3.166 4.52a.152.152 0 0 0-.019.142l1.928 5.173a.953.953 0 0 1-1.17 1.24l-5.273-1.61a.153.153 0 0 0-.141.026l-4.321 3.432a.95.95 0 0 1-1.543-.73l-.094-5.509a.16.16 0 0 0-.02-.07.154.154 0 0 0-.048-.056l-4.602-3.05a.96.96 0 0 1-.416-.914.955.955 0 0 1 .634-.779l5.218-1.794a.151.151 0 0 0 .1-.105l1.479-5.318a.953.953 0 0 1 .736-.688.95.95 0 0 1 .941.36Zm12.508-43.308-1.574 1.685a.151.151 0 0 1-.134.044l-5.456-.826a.952.952 0 0 0-1.094.89.952.952 0 0 0 .118.508l2.663 4.835a.163.163 0 0 1 .016.072c0 .025-.005.05-.016.072l-2.474 4.933a.948.948 0 0 0 .092 1 .953.953 0 0 0 .936.361l5.42-1.05a.167.167 0 0 1 .139.043l3.935 3.877a.95.95 0 0 0 1.611-.559l.69-5.475a.156.156 0 0 1 .081-.118h.024l-4.977-10.291Z" fill="#fff"/><path d="m692.55 195.988 1.999 1.773c8.075 8.35 18.128 13.93 28.902 16.819 33.866 9.072 68.996-11.21 78.071-45.073a63.97 63.97 0 0 0-6.436-48.332c-8.45-14.638-22.092-25.305-38.637-29.739-33.866-9.074-68.996 11.21-77.79 45.561-3.093 11.543-2.624 23.632.574 34.8l.921 2.72-12.23 21.056 24.636.415h-.01Z" fill="#0A273D"/><path d="M709.169 164.449h-.029a4.175 4.175 0 0 1-4.147-4.197l.102-14.731a4.181 4.181 0 0 1 4.206-4.049 4.18 4.18 0 0 1 4.15 4.107l-.105 14.731a4.18 4.18 0 0 1-4.177 4.139Zm61.839.302h-.028a4.171 4.171 0 0 1-4.153-4.197l.102-14.731a4.182 4.182 0 0 1 4.182-4.158h.029a4.178 4.178 0 0 1 4.147 4.198l-.102 14.73a4.18 4.18 0 0 1-4.177 4.158Zm-46.492 6.518h-.031a4.176 4.176 0 0 1-4.148-4.197l.197-28.223a4.178 4.178 0 0 1 4.176-4.148h.032a4.18 4.18 0 0 1 4.147 4.198l-.196 28.212a4.183 4.183 0 0 1-4.177 4.158Zm31.054.156h-.024a4.182 4.182 0 0 1-4.148-4.197l.2-28.223a4.184 4.184 0 0 1 1.244-2.945 4.18 4.18 0 0 1 5.907.043 4.17 4.17 0 0 1 1.202 2.962l-.207 28.21a4.18 4.18 0 0 1-4.174 4.15Zm-15.704 5.938h-.032a4.182 4.182 0 0 1-4.147-4.198l.283-40.251a4.17 4.17 0 0 1 1.245-2.944 4.168 4.168 0 0 1 2.962-1.202 4.188 4.188 0 0 1 2.944 1.244 4.183 4.183 0 0 1 1.202 2.962l-.281 40.252a4.18 4.18 0 0 1-4.176 4.137Z" fill="#fff"/><path d="m149.603 195.988-1.999 1.773c-8.072 8.35-18.128 13.93-28.902 16.819-33.863 9.072-68.996-11.21-78.068-45.073a63.981 63.981 0 0 1 6.433-48.332c8.453-14.638 22.092-25.305 38.64-29.739 33.863-9.074 68.996 11.21 77.787 45.561 3.093 11.543 2.624 23.632-.574 34.8l-.921 2.72 12.241 21.056-24.637.415Z" fill="#00807D"/><path d="M132.984 164.449h.023a4.176 4.176 0 0 0 4.148-4.198l-.105-14.73a4.166 4.166 0 0 0-1.244-2.945 4.168 4.168 0 0 0-2.961-1.203 4.184 4.184 0 0 0-2.945 1.244 4.168 4.168 0 0 0-1.203 2.961l.113 14.713a4.182 4.182 0 0 0 4.174 4.158Zm-61.839.302h.031a4.174 4.174 0 0 0 4.148-4.197l-.103-14.731a4.178 4.178 0 0 0-4.176-4.158h-.032a4.184 4.184 0 0 0-4.147 4.198l.102 14.73a4.18 4.18 0 0 0 4.177 4.158Zm46.494 6.518h.029a4.175 4.175 0 0 0 4.148-4.197l-.197-28.223a4.176 4.176 0 0 0-4.176-4.148h-.029a4.175 4.175 0 0 0-4.148 4.198l.197 28.212a4.176 4.176 0 0 0 4.176 4.158Zm-31.053.156h.029a4.178 4.178 0 0 0 4.148-4.197l-.197-28.223a4.177 4.177 0 0 0-4.207-4.049 4.179 4.179 0 0 0-4.149 4.109l.2 28.22a4.18 4.18 0 0 0 4.176 4.14Zm15.704 5.936h.024a4.178 4.178 0 0 0 2.942-1.24 4.178 4.178 0 0 0 1.205-2.957l-.275-40.262a4.182 4.182 0 0 0-4.208-4.048 4.181 4.181 0 0 0-4.148 4.109l.286 40.251a4.18 4.18 0 0 0 4.174 4.147Z" fill="#fff"/><path d="M250.131 203.649a2 2 0 0 0-2.829-2.829l2.829 2.829Zm-2.829-2.829a24.038 24.038 0 0 1-16.998 7.041v4a28.043 28.043 0 0 0 19.827-8.212l-2.829-2.829Z" fill="#842306"/><path d="M106.537 452.383h217.907l-5.247 93.354H140.054l-13.117 180.631H33.806l13.117-214.363c1.382-29.838 26.738-59.622 59.614-59.622Z" fill="#12364C"/><path d="M115.921 434.877c-3.004.118-5.771-1.976-6.178-4.956a6.232 6.232 0 0 1-.052-.695 5.796 5.796 0 0 1 5.37-5.916l30.431-2.222c.231-.018.462-.024.69-.034a25.642 25.642 0 0 1 15.421 4.294c1.926 1.288 3.935 2.461 5.947 3.589l10.478 6.108s2.868 1.797 4.625 2.321c4.046 1.204 13.621.968 17.656-.64l13.017-5.192 44.732-17.839a9.788 9.788 0 0 0 5.714-6.165l7.592-24.214.315-1.002 14.209-66.693 26.496 3.09 23.611 8.149-29.12 96.681-2.156 5.619-1.435 3.736a40.273 40.273 0 0 1-31.051 25.277l-57.314 9.386-43.688 6.296a37.59 37.59 0 0 1-14.075-.377 37.652 37.652 0 0 1-3.581-.974 38.623 38.623 0 0 1-4.52-1.781c-.585-.278-1.173-.543-1.744-.847a46.925 46.925 0 0 0-1.837-.916 38.234 38.234 0 0 0-10.331-3.198l-20.381-3.177c-2.744-.427-4.948-2.691-5.022-5.467a5.673 5.673 0 0 1 2.482-4.866 5.172 5.172 0 0 1-2.744-4.181 5.16 5.16 0 0 1 2.086-4.545 4.893 4.893 0 0 1-2.015-4.436c.236-2.516 2.469-4.381 4.998-4.439" fill="#F4865F"/><path d="M300.424 553.406c6.661-80.208 27.118-194.133 66.957-240.678 6.646-7.76 16.942-5.936 11.659 26.759-9.082 56.223-34.343 213.13-34.343 213.13l-44.273.789Z" fill="#842306"/></svg>