<svg class="sinch-icon" xmlns="http://www.w3.org/2000/svg" viewBox="0 0 525 800" fill="none" aria-hidden="true" focusable="false"><path d="M.035 570.082H524.45v-78.701H.035v78.701Zm187.689 200.602v.721c.131 5.575 2.426 10.625 6.099 14.363 3.804 3.804 9.051 6.165 14.822 6.165h29.251c15.215 0 28.529-8.067 35.875-20.2v20.2h37.252a269.307 269.307 0 0 0 4.131-20.462 213.338 213.338 0 0 0 1.771-12.789c1.312-11.215 1.902-22.43 1.902-33.71v-52.534h-67.683v41.253c0 20.069-11.346 36.334-31.35 36.334h-10.559c-11.608-.066-21.38 9.116-21.511 20.659Z" fill="#12364C"/><path d="M94.79 770.684v.721c.132 5.575 2.427 10.625 6.1 14.363 3.804 3.804 9.051 6.165 14.822 6.165h29.251c15.215 0 28.529-8.067 35.874-20.2v20.2h37.252a268.823 268.823 0 0 0 4.132-20.462 213.338 213.338 0 0 0 1.771-12.789c1.312-11.215 1.902-22.43 1.902-33.71v-52.534h-67.683v41.253c0 20.069-11.346 36.334-31.35 36.334h-10.559c-11.608-.066-21.38 9.116-21.512 20.659Z" fill="#12364C"/><path d="m295.807 229.612-75.553 233.48-24.332-7.87c-33.841-10.952-52.402-47.286-41.449-81.128l27.545-85.194 8.33-25.775c6.624-20.397 22.429-35.219 41.318-41.449 12.461-4.066 26.299-4.394 39.744 0l24.397 7.936Z" fill="#059688"/><path d="M385.527 118.643c-4.066-47.811-47.024-86.572-96.016-86.572-48.991 0-85.391 38.76-81.39 86.572 1.18 13.773 5.575 26.824 12.395 38.367 6.887 11.674 10.756 24.66 11.937 37.711l.197 1.771c4.394 38.432 39.088 69.126 77.455 68.601 38.629-.525 67.158-32.005 63.879-70.766-.065-.459-.065-.918-.131-1.377-1.312-12.395.853-24.594 5.575-35.612 4.984-11.674 7.28-24.791 6.099-38.695Z" fill="#832307"/><path d="M191.79 497.066h208.297V274.603c0-31.218-25.316-56.534-56.534-56.534h-95.229c-31.218 0-56.534 25.316-56.534 56.534v222.463Z" fill="#059688"/><path d="M400.087 288.9v222.463c0 1.705-.066 3.41-.263 5.116-2.557 28.463-26.299 50.893-55.287 51.352h-.984c-.656 0-1.312.263-1.771.722a2.421 2.421 0 0 0-.721 1.771v105.722H132.764V508.084c0-6.034.984-11.871 2.689-17.314.525-1.575 1.049-3.083 1.705-4.526 8.264-19.675 27.349-33.71 49.845-34.628h4.787l.066-.722.131-1.246.525-5.116 3.672-36.202 1.443-14.363 7.608-75.291 3.017-29.71h191.835v-.066Z" fill="#059688"/><path d="M247.012 116.15v54.567c0 15.543 11.805 28.267 26.89 29.775 1.967.197 3.869 1.115 5.115 2.689 2.493 3.017 2.165 7.542-.721 10.166l-6.427 5.968c-8.592 7.935-9.117 21.249-1.246 29.841 7.87 8.591 21.249 9.116 29.841 1.246l35.874-32.333s-4.525.656-4.853-19.282v-30.3c9.772-2.033 17.118-10.691 17.118-20.987 0-10.363-7.346-19.02-17.118-20.987v-9.182c0-23.348-18.495-43.155-41.908-43.286-9.182-.066-17.708 2.755-24.66 7.674a41.921 41.921 0 0 0-5.575 4.656c-7.608 7.542-12.33 18.101-12.33 29.775Z" fill="#F2A068"/><path d="M276.788 176.095c-4.526 0-8.723-1.967-11.543-5.509-.394-.525-.328-1.246.196-1.64.525-.393 1.247-.328 1.64.197 2.427 2.951 5.968 4.591 9.772 4.591 3.804 0 7.346-1.705 9.772-4.591.394-.525 1.181-.59 1.64-.131.524.393.59 1.18.131 1.64-2.886 3.476-7.083 5.443-11.608 5.443Z" fill="#832207"/><path d="M348.472 151.828c-.263-.524-.394-1.115-.591-1.705.066.721.131 1.508.066 2.361l.525-.656Z" fill="#F2A068"/><path d="M318.369 139.434h-64.077v2.557h64.077v-2.557Z" fill="#DCEDE1"/><path d="m372.476 462.502 24.332-7.87c33.841-10.953 52.402-47.286 41.449-81.128l-27.545-85.194-8.33-25.775c-6.624-20.397-22.43-35.219-41.318-41.45-12.461-4 11.412 241.417 11.412 241.417Z" fill="#059688"/><path d="M332.6 160.879h-1.967v290.998h1.967V160.879Z" fill="#FFD03C"/><path d="M231.666 221.742v67.159h-49.648l8.329-25.775c6.624-20.331 22.43-35.219 41.319-41.384Z" fill="#059688"/><path d="M341.061 582.391H132.764v93.72h208.297v-93.72Z" fill="#A7D5C2"/><path d="M288.527 158.518c-6.952 0-12.657-5.64-12.657-12.658v-7.411a5.43 5.43 0 0 1 5.443-5.443h14.363a5.43 5.43 0 0 1 5.444 5.443v7.411c.065 7.018-5.641 12.658-12.593 12.658Z" fill="#F2A068"/><path d="M295.742 131.76h-14.363c-3.411 0-6.296 2.623-6.69 5.902v.066c0 .131-.065.328-.065.459v7.673c0 7.674 6.23 13.904 13.903 13.904 7.674 0 13.904-6.23 13.904-13.904v-7.411c0-3.672-3.017-6.689-6.689-6.689Zm4.132 14.166c0 3.148-1.247 5.968-3.345 8.001-2.099 2.033-4.919 3.345-8.002 3.345-6.296 0-11.346-5.115-11.346-11.346v-7.411c0-2.295 1.837-4.197 4.132-4.197h14.363c2.296 0 4.198 1.902 4.198 4.197v7.411Z" fill="#DCEDE1"/><path d="m351.226 106.838 3.935 46.368h-14.953c-15.74 0-29.972-12.592-31.152-28.332-.46-5.575-3.149-10.691-7.084-14.363-3.935-3.608-9.181-5.903-14.691-5.903h-31.283c-8.592 0-15.019 6.952-14.232 15.609l4.853 57.649h-15.281l-6.821-80.997h7.936l3.673-37.974h99.688l3.87 45.713h-6.428l17.97 2.23Z" fill="#842306"/><path d="M341.651 150.452c-.459 1.574-1.508 2.754-2.886 3.344-1.18.525-2.098 1.378-2.623 2.493l-2.23 5.181c-.459.984-1.508 1.639-2.558 1.377-1.443-.328-2.23-1.836-1.639-3.148l2.229-5.116c.525-1.18.46-2.557.066-3.803-.393-1.181-.393-2.493.131-3.673 1.181-2.755 4.526-3.935 7.215-2.427 1.901 1.181 2.885 3.542 2.295 5.772Z" fill="#FFD03C"/><path d="M256.916 158.518c-6.952 0-12.658-5.64-12.658-12.658v-7.411a5.43 5.43 0 0 1 5.443-5.443h14.363a5.43 5.43 0 0 1 5.444 5.443v7.411c.065 7.018-5.575 12.658-12.592 12.658Z" fill="#F2A068"/><path d="M270.82 138.252c0-.065 0-.065 0 0 0-.196 0-.327-.066-.459v-.065c-.197-1.64-.984-3.148-2.164-4.198a6.73 6.73 0 0 0-4.46-1.705h-14.363c-.984 0-1.902.197-2.755.59a6.714 6.714 0 0 0-3.935 5.182c-.065.262-.065.59-.065.918v7.411c0 2.033.459 4.001 1.246 5.706.656 1.508 1.574 2.82 2.754 4 2.493 2.558 6.034 4.198 9.904 4.198 7.673 0 13.904-6.231 13.904-13.904v-7.674Zm-2.493 7.674c0 6.23-5.115 11.346-11.346 11.346a11.287 11.287 0 0 1-9.903-5.837 11.127 11.127 0 0 1-1.443-5.509v-7.411a4.09 4.09 0 0 1 1.443-3.148 4.104 4.104 0 0 1 2.755-1.05h14.363c2.295 0 4.131 1.902 4.131 4.198v7.411Z" fill="#DCEDE1"/><path d="M270.82 137.662c0 1.312.656 1.771 1.902 1.771l-.984.656-1.246.131-.066-1.443.394-1.115Zm3.869 0c0 1.312-.656 1.771-1.902 1.771l.984.656 1.246.131.066-1.443-.394-1.115Zm0 6.1c0-1.312-.656-1.771-1.902-1.771l.984-.656 1.246-.131.066 1.443-.394 1.115Zm-3.869 0c0-1.312.656-1.771 1.902-1.771l-.984-.656-1.246-.131-.066 1.443.394 1.115Z" fill="#DCEDE1"/><path d="M236.256 500.345v175.766h-12.461V500.345c0-1.246.328-2.361.919-3.279 1.115-1.771 3.082-2.952 5.312-2.952 2.23 0 4.197 1.181 5.247 2.952.656.918.983 2.033.983 3.279Z" fill="#12364C"/><path d="M262.359 288.9h-72.798v119.364h9.772L262.359 288.9Z" fill="#059688"/><path d="M189.298 453.189c-.328 0-.656-.131-.984-.328-.721-.524-.853-1.574-.328-2.295l49.516-66.896c.525-.722 1.574-.853 2.296-.328.721.524.852 1.574.328 2.295l-49.516 66.896c-.328.459-.853.656-1.312.656Z" fill="#12364C"/><path d="M309.908 436.465h-1.968l.197-50.828c.197-11.871-6.624-22.43-17.249-26.955a47.601 47.601 0 0 1-29.054-43.876v-115.56h1.968v115.56c0 18.364 10.953 34.891 27.873 42.105 11.412 4.854 18.626 16.134 18.495 28.792l-.262 50.762Z" fill="#FFD03C"/><path d="m289.183 395.213 35.678 48.008a30.984 30.984 0 0 0 .394-37.58c-8.526-11.477-23.414-15.413-36.072-10.428Z" fill="#F2A068"/><path d="m361.261 488.146-74.373-103.034 1.115 121.791 88.08 10.69-14.822-29.447Z" fill="#059688"/><path d="M336.142 455.42c-.525 0-.984-.197-1.312-.656l-51.746-69.913c-.525-.722-.394-1.771.328-2.296.721-.524 1.77-.393 2.295.328l51.746 69.913c.525.722.394 1.771-.328 2.296-.327.197-.655.328-.983.328Z" fill="#12364C"/><path d="m228.452 395.475-35.678 48.008a30.984 30.984 0 0 1-.394-37.58c8.461-11.478 23.348-15.413 36.072-10.428Z" fill="#F2A068"/></svg>