<svg class="sinch-icon" xmlns="http://www.w3.org/2000/svg" viewBox="0 0 1091 800" fill="none" aria-hidden="true" focusable="false"><path d="M957.941 368.151a4.232 4.232 0 0 1-2.552-.757 4.236 4.236 0 0 1-1.597-4.795 4.222 4.222 0 0 1 1.587-2.137l30.75-23.066a12.816 12.816 0 0 0 3.844-14.096 13.58 13.58 0 0 0-15.375-6.407l-66.626 28.192a133.773 133.773 0 0 0-55.094 44.85" fill="#EB5C2A"/><path d="M1025.85 363.024h-76.875c-3.843 0-29.468 44.85-25.625 43.569 0 0 84.56-14.096 116.59-20.503a24.852 24.852 0 0 0 17.94-11.533c6.41-10.252 16.66-24.348 23.06-34.599a11.522 11.522 0 0 0-1.28-14.096 11.662 11.662 0 0 0-8.97-3.844 9.082 9.082 0 0 0-4.32.957 9.052 9.052 0 0 0-3.36 2.887l-37.16 37.162Z" fill="#EB5C2A"/><path d="M1005.35 365.588a26.985 26.985 0 0 0 10.78 5.895c4 1.111 8.2 1.286 12.28.512a32.29 32.29 0 0 0 19.22-12.814c3.84-6.408 7.69-12.815 10.25-17.941a11.658 11.658 0 0 0-2.56-14.095 10.794 10.794 0 0 0-4.19-2.304 10.78 10.78 0 0 0-4.78-.259 9.096 9.096 0 0 0-7.69 3.844c-11.53 11.533-33.31 37.162-33.31 37.162Z" fill="#EB5C2A"/><path d="M709.379 753.861a72.9 72.9 0 0 1-64.063-38.443L506.941 451.442a72.157 72.157 0 0 1-5.356-54.775 72.14 72.14 0 0 1 34.825-42.614 70.716 70.716 0 0 1 96.094 29.473l48.687 88.419 92.251 175.556a72.155 72.155 0 0 1-29.469 97.39 86.734 86.734 0 0 1-34.594 8.97Z" fill="#FF7F51"/><path d="m656.848 638.536 179.376-224.251s93.532-14.095 87.125 0L774.724 714.141a69.952 69.952 0 0 1-127.38-9.2 69.971 69.971 0 0 1 1.817-52.309 139.872 139.872 0 0 1 7.687-14.096Z" fill="#FF7F51"/><path d="M1034.82 368.149H901.569a64.047 64.047 0 0 0-53.813 29.473c-10.25 15.377-21.782 32.035-21.782 32.035a10.254 10.254 0 0 0 2.563 12.815l43.563 32.036a8.709 8.709 0 0 0 12.812-2.563l38.438-53.82c1.281-2.563 5.125-3.845 7.687-5.126 0 0 84.563-14.096 116.593-20.503 3.66-.471 7.17-1.75 10.27-3.745a24.92 24.92 0 0 0 7.67-7.788c6.41-10.252 16.66-24.347 23.06-34.599a11.568 11.568 0 0 0 1.78-7.267 11.525 11.525 0 0 0-3.06-6.829 11.645 11.645 0 0 0-8.97-3.844 9.068 9.068 0 0 0-4.32.957 9.101 9.101 0 0 0-3.37 2.887l-35.87 35.881Z" fill="#FF7F51"/><path d="M382.653 402.749c89.868 0 162.72-72.862 162.72-162.742S472.521 77.265 382.653 77.265c-89.867 0-162.719 72.862-162.719 162.742s72.852 162.742 162.719 162.742Z" fill="#272727"/><path d="M528.714 375.837c42.457 0 76.875-34.423 76.875-76.886 0-42.463-34.418-76.887-76.875-76.887s-76.876 34.424-76.876 76.887 34.419 76.886 76.876 76.886Z" fill="#272727"/><path d="M221.222 527.054v217.844l275.469 21.784a21.012 21.012 0 0 0 19.219-12.814l70.469-226.814H221.222Z" fill="#E03E52"/><path d="M399.313 345.089c-92.25 0-167.844 69.197-167.844 155.054 0 85.856 75.594 155.053 167.844 155.053s167.844-69.197 167.844-155.053c0-85.857-75.594-155.054-167.844-155.054Z" fill="#E03E52"/><path d="M294.253 355.334a71.875 71.875 0 0 0-99.938 19.222L86.69 533.454l119.156 80.73 107.626-157.616a73.686 73.686 0 0 0-19.219-101.234Zm239.599-3.838a71.746 71.746 0 0 1 97.375 29.473l89.688 167.868-126.844 67.916-89.688-167.868a73.307 73.307 0 0 1 29.469-97.389Z" fill="#E03E52"/><path d="M568.444 343.811h-316.47v35.88h316.47v-35.88Z" fill="#E03E52"/><path d="M72.591 753.869a70.46 70.46 0 0 1-41-12.814 72.147 72.147 0 0 1-19.219-99.952l80.72-117.892 121.718 78.168-82 121.736a75.842 75.842 0 0 1-60.219 30.754Z" fill="#FF7F51"/><path d="M76.433 629.572 389.06 673.14l-5.125 80.731H68.746a62.779 62.779 0 0 1-44.393-18.391 62.797 62.797 0 0 1 0-88.799 62.775 62.775 0 0 1 44.393-18.391c2.562 0 5.125 1.282 7.687 1.282Z" fill="#FF7F51"/><path d="m348.059 752.59 34.594-79.449 1.281-1.282 28.188 2.563a86.092 86.092 0 0 0 35.875-3.844l24.344-8.97a60.85 60.85 0 0 1 60.219 11.533l62.781 60.227a13.953 13.953 0 0 1 3.939 5.155 13.954 13.954 0 0 1 1.186 6.378 9.607 9.607 0 0 1-6.406 8.97c-1.281 0-2.563 1.281-5.125 1.281a9.604 9.604 0 0 1-6.406-1.281l-6.407-3.844a11.786 11.786 0 0 1-7.687 5.125 14.473 14.473 0 0 1-14.094-3.844l-20.5-14.096a39.97 39.97 0 0 0-39.719-2.563l-21.781 10.252a74.697 74.697 0 0 1-33.313 7.689h-88.406c-2.563 1.281-2.563 1.281-2.563 0Z" fill="#FF7F51"/><path d="m503.091 692.364 105.063 29.473a13.452 13.452 0 0 0 16.656-8.97 12.81 12.81 0 0 0-4.222-14.342 12.803 12.803 0 0 0-4.747-2.317L512.06 662.891a14.866 14.866 0 0 0-11.844.935 14.86 14.86 0 0 0-7.375 9.316c-3.844 7.689 1.281 15.378 10.25 19.222-1.281 0-1.281-1.281 0 0Zm128.123-608.69a108.412 108.412 0 0 0-28.339-51.567 108.388 108.388 0 0 0-51.099-29.164 105.433 105.433 0 0 0-75.237 9.986 105.458 105.458 0 0 0-49.045 57.93l-28.187 83.294a101.376 101.376 0 0 0 7.687 85.856 110.061 110.061 0 0 0 69.188 52.539 156.885 156.885 0 0 0 24.344 2.563 106.98 106.98 0 0 0 99.938-71.761l28.187-83.293a118.556 118.556 0 0 0 2.563-56.383Z" fill="#FF7F51"/><path d="M551.776 243.853a21.78 21.78 0 0 1-8.968-1.281 48.05 48.05 0 0 1-26.907-17.94c-1.281-2.563-1.281-5.126 1.281-6.407 2.563-1.282 5.125-1.282 6.407 1.281a31.92 31.92 0 0 0 8.819 9.129 31.92 31.92 0 0 0 11.681 4.967 40.862 40.862 0 0 0 24.344-3.845 4.622 4.622 0 0 1 6.406 1.282 4.62 4.62 0 0 1-1.281 6.407 43.172 43.172 0 0 1-21.782 6.407Z" fill="#DE4300"/><path d="M631.212 83.674a108.412 108.412 0 0 0-28.339-51.566 108.388 108.388 0 0 0-51.099-29.164C496.68-9.87 437.742 19.603 421.086 69.58l-35.875 102.515a264.005 264.005 0 0 0-11.531 82.011c0 34.599 7.687 61.509 19.218 73.042l1.282 1.282 52.531-175.557h-1.281a24.596 24.596 0 0 1-19.219-14.096 28.826 28.826 0 0 1-2.563-23.066c6.407-21.784 29.469-25.628 75.595-14.095 43.562 11.533 112.75 21.784 131.969-17.94Z" fill="#272727"/><path d="M501.811 343.806a24.347 24.347 0 0 1-24.344-24.347 25.628 25.628 0 0 1 24.344-24.348h1.281l-2.562-148.646-55.094 16.658-37.156 119.174a87.658 87.658 0 0 1-31.589 44.368 87.63 87.63 0 0 1-51.693 17.141h-6.406l76.875 35.88 114.032-35.88h-7.688Z" fill="#FF7F51"/><path d="M313.464 343.81v1.281a99.96 99.96 0 0 0 29.271 70.677 99.932 99.932 0 0 0 141.333 0 99.96 99.96 0 0 0 29.271-70.677v-1.281H313.464Z" fill="#FF7F51"/><path d="M458.248 147.745a5.125 5.125 0 0 0 5.125-5.126 5.125 5.125 0 1 0-10.25 0 5.126 5.126 0 0 0 5.125 5.126Z" fill="#fff"/><path d="M1063 752.591H62.34v47.413H1063v-47.413Z" fill="#00A8A6"/></svg>