<svg class="sinch-icon" viewBox="0 0 62 49" fill="currentColor" xmlns="http://www.w3.org/2000/svg"><path d="M60.9937 8.56632V36.0434C60.9937 42.6578 55.6213 48.045 49.0111 48.045H11.9826C5.37866 48.045 0 42.6641 0 36.0434V13.9409C0 13.9409 0.0251339 13.9661 0.0377008 13.9787L6.53482 20.4861V36.0371C6.53482 39.0454 8.97909 41.4936 11.9826 41.4936H49.0111C52.0146 41.4936 54.4589 39.0454 54.4589 36.0371V11.2159L30.5 35.2127L4.68119 9.353C3.1166 7.78593 2.65163 5.45736 3.4999 3.412C4.34188 1.37293 6.30861 0.0513069 8.51411 0.0450134H19.9815C22.0173 0.0450134 23.9338 0.837986 25.3727 2.27918L30.5 7.41462L35.6273 2.27918C37.0662 0.837986 38.9827 0.0450134 41.0185 0.0450134H47.1198C47.1198 0.0450134 47.0947 0.0701874 47.0821 0.0827743L40.3713 6.80416C40.3274 6.83563 40.2897 6.87339 40.252 6.91115L30.5063 16.6723L20.7606 6.91115C20.5533 6.70346 20.2831 6.59018 19.9877 6.59018H11.1657L30.5063 25.9614L51.7067 4.72733C53.2713 3.16026 55.5962 2.69455 57.6383 3.54416C59.6742 4.38748 60.9937 6.36362 61 8.56632H60.9937Z"/></svg>