<svg viewBox="0 0 245 48" fill="currentColor" xmlns="http://www.w3.org/2000/svg"><path d="M53.1476 39.7241V16.5517H68.2759V19.9614H57.3848V26.3172H67.2828V29.6276H57.3848V36.3145H68.2759V39.7241H53.1476Z"/><path d="M70.5269 39.7241V23.3048H74.2676L74.6317 25.5228C75.1614 24.7283 75.8607 24.0952 76.7338 23.6193C77.6069 23.1434 78.6165 22.9076 79.7627 22.9076C82.2993 22.9076 84.0993 23.8883 85.1586 25.8538C85.7545 24.9476 86.5531 24.2317 87.5586 23.7021C88.5641 23.1724 89.6607 22.9076 90.8524 22.9076C92.9917 22.9076 94.6386 23.549 95.7848 24.8276C96.931 26.1062 97.5062 27.9848 97.5062 30.4552V39.7241H93.269V30.8524C93.269 29.4414 93 28.3572 92.4579 27.6083C91.9159 26.8593 91.0841 26.4828 89.9586 26.4828C88.8331 26.4828 87.8896 26.9007 87.1945 27.7407C86.4993 28.5807 86.1517 29.7476 86.1517 31.2496V39.7241H81.9145V30.8524C81.9145 29.4414 81.6372 28.3572 81.0869 27.6083C80.5365 26.8593 79.6841 26.4828 78.5379 26.4828C77.3917 26.4828 76.5021 26.9007 75.8069 27.7407C75.1117 28.5807 74.7641 29.7476 74.7641 31.2496V39.7241H70.5269Z"/><path d="M105.55 40.1214C104.139 40.1214 102.981 39.8938 102.074 39.4428C101.168 38.9917 100.498 38.3876 100.055 37.6386C99.6124 36.8896 99.3931 36.0621 99.3931 35.1559C99.3931 33.6331 99.989 32.3959 101.181 31.4483C102.372 30.5007 104.16 30.0248 106.543 30.0248H110.714V29.6276C110.714 28.5021 110.396 27.6745 109.754 27.1448C109.113 26.6152 108.319 26.3503 107.371 26.3503C106.51 26.3503 105.761 26.5531 105.12 26.9628C104.479 27.3724 104.081 27.9724 103.928 28.7669H99.7903C99.9021 27.5752 100.303 26.5365 100.999 25.6552C101.694 24.7738 102.592 24.0952 103.697 23.6193C104.801 23.1434 106.034 22.9076 107.404 22.9076C109.742 22.9076 111.588 23.491 112.932 24.6621C114.277 25.8331 114.952 27.4883 114.952 29.6276V39.7241H111.343L110.946 37.0759C110.462 37.9572 109.783 38.6855 108.91 39.2607C108.037 39.8359 106.92 40.1214 105.55 40.1214ZM106.51 36.811C107.723 36.811 108.666 36.4138 109.341 35.6193C110.015 34.8248 110.437 33.8441 110.615 32.6731H107.007C105.881 32.6731 105.074 32.8759 104.59 33.2855C104.106 33.6952 103.862 34.1959 103.862 34.7917C103.862 35.4331 104.106 35.9296 104.59 36.2814C105.074 36.6331 105.716 36.811 106.51 36.811Z"/><path d="M119.619 20.7559C118.845 20.7559 118.212 20.5241 117.716 20.0607C117.219 19.5972 116.971 19.0138 116.971 18.3062C116.971 17.5986 117.219 17.0193 117.716 16.5683C118.212 16.1172 118.845 15.8896 119.619 15.8896C120.393 15.8896 121.026 16.1172 121.523 16.5683C122.019 17.0193 122.268 17.5986 122.268 18.3062C122.268 19.0138 122.019 19.5972 121.523 20.0607C121.026 20.5241 120.393 20.7559 119.619 20.7559ZM117.501 39.7241V23.3048H121.738V39.7241H117.501Z"/><path d="M124.519 39.7241V15.8896H128.756V39.7241H124.519Z"/><path d="M145.539 40.1214C143.95 40.1214 142.523 39.7572 141.252 39.029C139.982 38.3007 138.981 37.291 138.24 36C137.499 34.709 137.131 33.2152 137.131 31.5145C137.131 29.8138 137.508 28.32 138.257 27.029C139.006 25.7379 140.015 24.7283 141.286 24C142.556 23.2717 143.983 22.9076 145.572 22.9076C147.161 22.9076 148.556 23.2717 149.826 24C151.097 24.7283 152.098 25.7379 152.839 27.029C153.579 28.32 153.948 29.8138 153.948 31.5145C153.948 33.2152 153.579 34.709 152.839 36C152.098 37.291 151.088 38.3007 149.81 39.029C148.531 39.7572 147.108 40.1214 145.539 40.1214ZM145.539 36.4469C146.644 36.4469 147.604 36.0331 148.419 35.2055C149.234 34.3779 149.644 33.149 149.644 31.5145C149.644 29.88 149.234 28.651 148.419 27.8234C147.604 26.9959 146.652 26.5821 145.572 26.5821C144.492 26.5821 143.483 26.9959 142.676 27.8234C141.869 28.651 141.468 29.88 141.468 31.5145C141.468 33.149 141.869 34.3779 142.676 35.2055C143.483 36.0331 144.434 36.4469 145.539 36.4469Z"/><path d="M156.066 39.7241V23.3048H159.807L160.138 26.0855C160.647 25.1131 161.379 24.3434 162.339 23.7683C163.299 23.1931 164.429 22.9076 165.732 22.9076C167.764 22.9076 169.341 23.549 170.466 24.8276C171.592 26.1062 172.154 27.9848 172.154 30.4552V39.7241H167.917V30.8524C167.917 29.4414 167.632 28.3572 167.057 27.6083C166.481 26.8593 165.588 26.4828 164.375 26.4828C163.163 26.4828 162.207 26.9007 161.446 27.7407C160.684 28.5807 160.303 29.7476 160.303 31.2496V39.7241H156.066Z"/><path d="M179.367 39.7241L187.841 16.5517H192.608L201.083 39.7241H196.581L194.727 34.3614H185.69L183.803 39.7241H179.367ZM186.848 31.051H193.568L190.192 21.4179L186.848 31.051Z"/><path d="M209.59 40.1214C207.914 40.1214 206.433 39.7572 205.154 39.029C203.876 38.3007 202.866 37.2869 202.126 35.9834C201.385 34.68 201.017 33.1903 201.017 31.5145C201.017 29.8386 201.385 28.349 202.126 27.0455C202.866 25.7421 203.876 24.7283 205.154 24C206.433 23.2717 207.914 22.9076 209.59 22.9076C211.688 22.9076 213.451 23.4538 214.887 24.5462C216.323 25.6386 217.237 27.1448 217.634 29.0648H213.166C212.946 28.2703 212.508 27.6455 211.858 27.1945C211.208 26.7434 210.439 26.5159 209.557 26.5159C208.386 26.5159 207.393 26.9586 206.578 27.84C205.763 28.7214 205.353 29.9462 205.353 31.5145C205.353 33.0828 205.763 34.3076 206.578 35.189C207.393 36.0703 208.386 36.5131 209.557 36.5131C210.439 36.5131 211.208 36.2938 211.858 35.851C212.508 35.4083 212.946 34.7793 213.166 33.9641H217.634C217.237 35.8179 216.323 37.3076 214.887 38.4331C213.451 39.5586 211.688 40.1214 209.59 40.1214Z"/><path d="M222.037 20.7559C221.263 20.7559 220.63 20.5241 220.134 20.0607C219.637 19.5972 219.389 19.0138 219.389 18.3062C219.389 17.5986 219.637 17.0193 220.134 16.5683C220.63 16.1172 221.263 15.8896 222.037 15.8896C222.811 15.8896 223.444 16.1172 223.941 16.5683C224.437 17.0193 224.685 17.5986 224.685 18.3062C224.685 19.0138 224.437 19.5972 223.941 20.0607C223.444 20.5241 222.811 20.7559 222.037 20.7559ZM219.919 39.7241V23.3048H224.156V39.7241H219.919Z"/><path d="M234.484 40.1214C232.941 40.1214 231.559 39.7448 230.346 38.9959C229.134 38.2469 228.174 37.2207 227.466 35.9172C226.759 34.6138 226.407 33.1365 226.407 31.4814C226.407 29.8262 226.759 28.3531 227.466 27.0621C228.174 25.771 229.134 24.7572 230.346 24.0165C231.559 23.2759 232.941 22.9076 234.484 22.9076C235.721 22.9076 236.801 23.1393 237.728 23.6028C238.655 24.0662 239.404 24.7159 239.979 25.5559V15.8896H244.217V39.7241H240.443L239.979 37.3738C239.45 38.1021 238.75 38.7434 237.877 39.2938C237.004 39.8441 235.874 40.1214 234.484 40.1214ZM235.378 36.4138C236.748 36.4138 237.865 35.9545 238.738 35.04C239.611 34.1255 240.045 32.9503 240.045 31.5145C240.045 30.0786 239.611 28.9034 238.738 27.989C237.865 27.0745 236.748 26.6152 235.378 26.6152C234.008 26.6152 232.916 27.0662 232.034 27.9724C231.153 28.8786 230.71 30.0455 230.71 31.4814C230.71 32.9172 231.153 34.0965 232.034 35.0234C232.916 35.9503 234.033 36.4138 235.378 36.4138Z"/><path d="M56.1104 11.6442C55.5145 11.6442 54.989 11.5407 54.5338 11.338C54.0786 11.1352 53.7186 10.8414 53.4579 10.4566C53.1973 10.0718 53.0607 9.6083 53.0524 9.0621H54.6166C54.6331 9.44279 54.7697 9.75727 55.0262 10.018C55.2828 10.2786 55.6428 10.4069 56.0979 10.4069C56.491 10.4069 56.8055 10.3118 57.0373 10.1214C57.269 9.93106 57.3848 9.67865 57.3848 9.36417C57.3848 9.04968 57.2814 8.77244 57.0786 8.58623C56.8759 8.40003 56.6028 8.25106 56.2635 8.1352C55.9242 8.01934 55.56 7.8952 55.1752 7.76279C54.5504 7.54761 54.0704 7.27037 53.7435 6.92692C53.4166 6.58761 53.251 6.13658 53.251 5.56968C53.2428 5.08968 53.3586 4.68003 53.5945 4.33658C53.8304 3.99313 54.1531 3.7283 54.5628 3.53796C54.9724 3.34761 55.4441 3.25244 55.9779 3.25244C56.5117 3.25244 56.9959 3.34761 57.4097 3.5421C57.8235 3.73658 58.1462 4.00555 58.3821 4.35313C58.6179 4.70072 58.7421 5.11451 58.7586 5.59451H57.1697C57.1614 5.30899 57.0538 5.05658 56.8386 4.83727C56.6235 4.61796 56.3297 4.50623 55.9531 4.50623C55.6304 4.49796 55.3573 4.57658 55.1379 4.7421C54.9186 4.90761 54.8069 5.14761 54.8069 5.46623C54.8069 5.7352 54.8938 5.95037 55.0635 6.10761C55.2331 6.26486 55.4648 6.40141 55.7586 6.50899C56.0524 6.61658 56.3876 6.73244 56.7683 6.85658C57.1697 6.99727 57.5379 7.15865 57.869 7.34486C58.2 7.53106 58.469 7.7752 58.6676 8.08141C58.8704 8.38761 58.9697 8.77658 58.9697 9.25658C58.9697 9.68279 58.8621 10.0759 58.6469 10.44C58.4317 10.8042 58.109 11.0938 57.6869 11.3131C57.2607 11.5324 56.7393 11.6442 56.1228 11.6442H56.1104Z"/><path d="M62.5738 11.5035V3.39313H64.0552V11.5035H62.5738Z"/><path d="M67.949 11.5035V3.39313H69.4304L73.2414 9.10348V3.39313H74.7228V11.5035H73.2414L69.4304 5.80141V11.5035H67.949Z"/><path d="M82.2952 11.6442C81.4759 11.6442 80.7724 11.4704 80.1848 11.1186C79.5972 10.7669 79.1462 10.2786 78.8276 9.64554C78.509 9.01658 78.3517 8.2883 78.3517 7.46072C78.3517 6.63313 78.509 5.90486 78.8276 5.27175C79.1421 4.63865 79.5972 4.14623 80.1848 3.79037C80.7724 3.43451 81.4759 3.25658 82.2952 3.25658C83.2676 3.25658 84.0662 3.49658 84.6869 3.98072C85.3076 4.46486 85.6966 5.13934 85.8497 6.01244H84.2152C84.1159 5.57382 83.9007 5.22623 83.5738 4.97382C83.2469 4.72141 82.8124 4.59727 82.2704 4.59727C81.5214 4.59727 80.9338 4.85382 80.5076 5.36279C80.0814 5.87175 79.8704 6.57106 79.8704 7.46072C79.8704 8.35037 80.0814 9.04554 80.5076 9.55037C80.9338 10.0552 81.5214 10.3076 82.2704 10.3076C82.8124 10.3076 83.2469 10.1876 83.5738 9.95589C83.9007 9.72003 84.1159 9.39313 84.2152 8.9752H85.8497C85.6966 9.81106 85.3076 10.4607 84.6869 10.9324C84.0662 11.4042 83.2676 11.64 82.2952 11.64V11.6442Z"/><path d="M89.4786 11.5035V3.39313H90.96V6.76554H94.5972V3.39313H96.0786V11.5035H94.5972V7.96968H90.96V11.5035H89.4786Z"/><path d="M41.5986 11.3421V29.4083C41.5986 33.7573 38.0607 37.2994 33.7076 37.2994H9.32273C4.97377 37.2994 1.4317 33.7614 1.4317 29.4083V14.8759C1.4317 14.8759 1.44825 14.8925 1.45653 14.9008L5.73515 19.1794V29.4042C5.73515 31.3821 7.3448 32.9918 9.32273 32.9918H33.7076C35.6855 32.9918 37.2951 31.3821 37.2951 29.4042V13.0842L21.5172 28.8621L4.51446 11.8594C3.48411 10.829 3.17791 9.298 3.73653 7.95317C4.29101 6.61248 5.58618 5.74352 7.0386 5.73938H14.5903C15.931 5.73938 17.1931 6.26076 18.1407 7.20835L21.5172 10.5849L24.8938 7.20835C25.8414 6.26076 27.1034 5.73938 28.4441 5.73938H32.462C32.462 5.73938 32.4455 5.75593 32.4372 5.76421L28.0179 10.1835C27.9889 10.2042 27.9641 10.229 27.9393 10.2539L21.5214 16.6718L15.1034 10.2539C14.9669 10.1173 14.7889 10.0428 14.5945 10.0428H8.7848L21.5214 22.7794L35.4827 8.818C36.5131 7.78766 38.0441 7.48145 39.3889 8.04007C40.7296 8.59455 41.5986 9.89386 41.6027 11.3421H41.5986Z" class="logo"/></svg>