<svg viewBox="0 0 271 48" fill="currentColor" xmlns="http://www.w3.org/2000/svg"><path d="M53.1476 39.7242V16.5518H58.1794L65.5614 31.2497L72.8442 16.5518H77.8759V39.7242H73.6387V23.7352L67.1835 36.4138H63.8401L57.3849 23.7352V39.7242H53.1476Z"/><path d="M88.6014 40.1214C86.9463 40.1214 85.4773 39.7697 84.1987 39.0621C82.92 38.3545 81.9145 37.3614 81.1863 36.0828C80.458 34.8042 80.0938 33.3228 80.0938 31.647C80.0938 29.9711 80.4538 28.4359 81.1697 27.1118C81.8856 25.7876 82.8787 24.7573 84.149 24.0166C85.4194 23.2759 86.9131 22.9076 88.6345 22.9076C90.2442 22.9076 91.6676 23.2594 92.9049 23.967C94.1421 24.6745 95.1063 25.6387 95.8014 26.8635C96.4966 28.0883 96.8442 29.4497 96.8442 30.9518C96.8442 31.1959 96.84 31.4483 96.8276 31.7132C96.8152 31.978 96.7987 32.2552 96.778 32.5407H84.298C84.3849 33.8194 84.8318 34.8249 85.6387 35.5532C86.4456 36.2814 87.4221 36.6456 88.5683 36.6456C89.429 36.6456 90.1531 36.4511 90.7366 36.0663C91.32 35.6814 91.7587 35.1766 92.0442 34.5601H96.3476C96.0373 35.5987 95.5242 36.5421 94.8083 37.3904C94.0925 38.2387 93.2069 38.909 92.16 39.3932C91.1131 39.8773 89.9256 40.1214 88.6014 40.1214ZM88.6345 26.3504C87.5959 26.3504 86.6814 26.6442 85.8869 27.2276C85.0925 27.8111 84.5835 28.7007 84.3642 29.8925H92.5407C92.4745 28.8125 92.0773 27.9518 91.349 27.3104C90.6207 26.669 89.7145 26.3504 88.6345 26.3504Z"/><path d="M105.55 40.1214C104.094 40.1214 102.815 39.8856 101.71 39.4097C100.606 38.9338 99.7242 38.2801 99.0621 37.4401C98.4 36.6001 98.0028 35.6318 97.8704 34.527H102.141C102.273 35.1683 102.633 35.7145 103.217 36.1656C103.8 36.6166 104.557 36.8442 105.484 36.8442C106.411 36.8442 107.09 36.658 107.52 36.2814C107.95 35.9049 108.166 35.4745 108.166 34.9904C108.166 34.2828 107.855 33.8028 107.239 33.5504C106.622 33.298 105.761 33.0497 104.657 32.8056C103.949 32.6525 103.233 32.4621 102.505 32.2428C101.777 32.0235 101.11 31.7421 100.502 31.3987C99.8938 31.0552 99.4056 30.6166 99.029 30.0745C98.6525 29.5325 98.4663 28.8663 98.4663 28.0718C98.4663 26.6152 99.0456 25.3904 100.204 24.3973C101.363 23.4042 102.989 22.9076 105.087 22.9076C107.028 22.9076 108.579 23.3587 109.738 24.2649C110.897 25.1711 111.588 26.4166 111.807 28.0056H107.801C107.557 26.7932 106.643 26.1849 105.054 26.1849C104.259 26.1849 103.647 26.338 103.217 26.6483C102.786 26.9587 102.571 27.3435 102.571 27.807C102.571 28.2704 102.89 28.6801 103.531 28.9656C104.172 29.2511 105.021 29.5159 106.08 29.7601C107.226 30.0249 108.281 30.3187 109.241 30.6373C110.201 30.9559 110.967 31.4318 111.542 32.0607C112.117 32.6897 112.403 33.5876 112.403 34.7587C112.424 35.7725 112.159 36.6911 111.608 37.5063C111.058 38.3214 110.263 38.9628 109.225 39.4263C108.186 39.8897 106.961 40.1214 105.55 40.1214Z"/><path d="M121.275 40.1214C119.818 40.1214 118.539 39.8856 117.435 39.4097C116.33 38.9338 115.448 38.2801 114.786 37.4401C114.124 36.6001 113.727 35.6318 113.595 34.527H117.865C117.997 35.1683 118.357 35.7145 118.941 36.1656C119.524 36.6166 120.281 36.8442 121.208 36.8442C122.135 36.8442 122.814 36.658 123.244 36.2814C123.675 35.9049 123.89 35.4745 123.89 34.9904C123.89 34.2828 123.579 33.8028 122.963 33.5504C122.346 33.298 121.486 33.0497 120.381 32.8056C119.673 32.6525 118.957 32.4621 118.229 32.2428C117.501 32.0235 116.835 31.7421 116.226 31.3987C115.618 31.0552 115.13 30.6166 114.753 30.0745C114.377 29.5325 114.19 28.8663 114.19 28.0718C114.19 26.6152 114.77 25.3904 115.928 24.3973C117.087 23.4042 118.713 22.9076 120.811 22.9076C122.752 22.9076 124.303 23.3587 125.462 24.2649C126.621 25.1711 127.312 26.4166 127.531 28.0056H123.526C123.281 26.7932 122.367 26.1849 120.778 26.1849C119.983 26.1849 119.371 26.338 118.941 26.6483C118.51 26.9587 118.295 27.3435 118.295 27.807C118.295 28.2704 118.614 28.6801 119.255 28.9656C119.897 29.2511 120.745 29.5159 121.804 29.7601C122.95 30.0249 124.006 30.3187 124.966 30.6373C125.926 30.9559 126.691 31.4318 127.266 32.0607C127.841 32.6897 128.127 33.5876 128.127 34.7587C128.148 35.7725 127.883 36.6911 127.332 37.5063C126.782 38.3214 125.988 38.9628 124.949 39.4263C123.91 39.8897 122.686 40.1214 121.275 40.1214Z"/><path d="M135.873 40.1214C134.462 40.1214 133.303 39.8938 132.397 39.4428C131.491 38.9918 130.821 38.3876 130.378 37.6387C129.935 36.8897 129.716 36.0621 129.716 35.1559C129.716 33.6332 130.312 32.3959 131.503 31.4483C132.695 30.5007 134.483 30.0249 136.866 30.0249H141.037V29.6276C141.037 28.5021 140.719 27.6745 140.077 27.1449C139.436 26.6152 138.641 26.3504 137.694 26.3504C136.833 26.3504 136.084 26.5532 135.443 26.9628C134.801 27.3725 134.404 27.9725 134.251 28.767H130.113C130.225 27.5752 130.626 26.5366 131.321 25.6552C132.017 24.7738 132.915 24.0952 134.019 23.6194C135.124 23.1435 136.357 22.9076 137.727 22.9076C140.065 22.9076 141.91 23.4911 143.255 24.6621C144.6 25.8332 145.275 27.4883 145.275 29.6276V39.7242H141.666L141.269 37.0759C140.785 37.9573 140.106 38.6856 139.233 39.2607C138.36 39.8359 137.243 40.1214 135.873 40.1214ZM136.833 36.8111C138.046 36.8111 138.989 36.4138 139.663 35.6194C140.338 34.8249 140.76 33.8442 140.938 32.6732H137.33C136.204 32.6732 135.397 32.8759 134.913 33.2856C134.429 33.6952 134.185 34.1959 134.185 34.7918C134.185 35.4332 134.429 35.9297 134.913 36.2814C135.397 36.6332 136.039 36.8111 136.833 36.8111Z"/><path d="M154.61 34.8249C153.815 34.8249 153.075 34.738 152.392 34.5601L151.167 35.7849C151.543 35.9835 152.048 36.149 152.69 36.2814C153.331 36.4138 154.366 36.5463 155.801 36.6787C157.986 36.8773 159.575 37.3945 160.568 38.2345C161.561 39.0745 162.058 40.2332 162.058 41.7104C162.058 42.6828 161.793 43.6014 161.263 44.4745C160.734 45.3476 159.919 46.0511 158.814 46.5932C157.709 47.1352 156.298 47.4042 154.577 47.4042C152.239 47.4042 150.352 46.9697 148.916 46.0966C147.48 45.2235 146.764 43.9159 146.764 42.1739C146.764 40.6966 147.48 39.4138 148.916 38.3338C148.473 38.1352 148.092 37.9242 147.774 37.7049C147.455 37.4856 147.174 37.2538 146.93 37.0097V36.2483L149.81 33.2028C148.531 32.0773 147.89 30.6332 147.89 28.8663C147.89 27.7614 148.159 26.7601 148.701 25.8538C149.243 24.9476 150.008 24.2318 151.001 23.7021C151.995 23.1725 153.199 22.9076 154.61 22.9076C155.537 22.9076 156.397 23.0401 157.192 23.3049H163.415V25.887L160.601 26.0856C161.044 26.9256 161.263 27.8525 161.263 28.8663C161.263 29.9711 160.999 30.9725 160.469 31.8787C159.939 32.7849 159.174 33.5007 158.168 34.0304C157.163 34.5601 155.979 34.8249 154.61 34.8249ZM150.637 41.7435C150.637 42.5587 151.018 43.1711 151.779 43.5807C152.541 43.9904 153.472 44.1932 154.577 44.1932C155.681 44.1932 156.497 43.978 157.159 43.5476C157.821 43.1173 158.152 42.538 158.152 41.8097C158.152 41.2139 157.937 40.7173 157.506 40.3201C157.076 39.9228 156.219 39.6787 154.941 39.5918C154.035 39.5256 153.199 39.4263 152.425 39.2938C151.783 39.6456 151.328 40.0345 151.051 40.4525C150.774 40.8704 150.637 41.3007 150.637 41.7435ZM154.61 31.5807C155.47 31.5807 156.182 31.349 156.745 30.8856C157.308 30.4221 157.589 29.7601 157.589 28.8994C157.589 28.0387 157.308 27.3766 156.745 26.9132C156.182 26.4497 155.47 26.218 154.61 26.218C153.703 26.218 152.975 26.4497 152.425 26.9132C151.875 27.3766 151.597 28.0387 151.597 28.8994C151.597 29.7601 151.875 30.4221 152.425 30.8856C152.975 31.349 153.703 31.5807 154.61 31.5807Z"/><path d="M172.155 40.1214C170.499 40.1214 169.03 39.7697 167.752 39.0621C166.473 38.3545 165.468 37.3614 164.739 36.0828C164.011 34.8042 163.647 33.3228 163.647 31.647C163.647 29.9711 164.007 28.4359 164.723 27.1118C165.439 25.7876 166.432 24.7573 167.702 24.0166C168.972 23.2759 170.466 22.9076 172.188 22.9076C173.797 22.9076 175.221 23.2594 176.458 23.967C177.695 24.6745 178.659 25.6387 179.355 26.8635C180.05 28.0883 180.397 29.4497 180.397 30.9518C180.397 31.1959 180.393 31.4483 180.381 31.7132C180.368 31.978 180.352 32.2552 180.331 32.5407H167.851C167.938 33.8194 168.385 34.8249 169.192 35.5532C169.999 36.2814 170.975 36.6456 172.121 36.6456C172.982 36.6456 173.706 36.4511 174.29 36.0663C174.873 35.6814 175.312 35.1766 175.597 34.5601H179.901C179.59 35.5987 179.077 36.5421 178.361 37.3904C177.646 38.2387 176.76 38.909 175.713 39.3932C174.666 39.8773 173.479 40.1214 172.155 40.1214ZM172.188 26.3504C171.149 26.3504 170.235 26.6442 169.44 27.2276C168.646 27.8111 168.137 28.7007 167.917 29.8925H176.094C176.028 28.8125 175.63 27.9518 174.902 27.3104C174.174 26.669 173.268 26.3504 172.188 26.3504Z"/><path d="M182.417 39.7242V16.5518H187.448L194.83 31.2497L202.113 16.5518H207.145V39.7242H202.908V23.7352L196.452 36.4138H193.109L186.654 23.7352V39.7242H182.417Z"/><path d="M217.87 40.1214C216.215 40.1214 214.746 39.7697 213.468 39.0621C212.189 38.3545 211.183 37.3614 210.455 36.0828C209.727 34.8042 209.363 33.3228 209.363 31.647C209.363 29.9711 209.723 28.4359 210.439 27.1118C211.155 25.7876 212.148 24.7573 213.418 24.0166C214.688 23.2759 216.182 22.9076 217.903 22.9076C219.513 22.9076 220.937 23.2594 222.174 23.967C223.411 24.6745 224.375 25.6387 225.07 26.8635C225.766 28.0883 226.113 29.4497 226.113 30.9518C226.113 31.1959 226.109 31.4483 226.097 31.7132C226.084 31.978 226.068 32.2552 226.047 32.5407H213.567C213.654 33.8194 214.101 34.8249 214.908 35.5532C215.715 36.2814 216.691 36.6456 217.837 36.6456C218.698 36.6456 219.422 36.4511 220.006 36.0663C220.589 35.6814 221.028 35.1766 221.313 34.5601H225.617C225.306 35.5987 224.793 36.5421 224.077 37.3904C223.361 38.2387 222.476 38.909 221.429 39.3932C220.382 39.8773 219.195 40.1214 217.87 40.1214ZM217.903 26.3504C216.865 26.3504 215.95 26.6442 215.156 27.2276C214.361 27.8111 213.852 28.7007 213.633 29.8925H221.81C221.743 28.8125 221.346 27.9518 220.618 27.3104C219.89 26.669 218.983 26.3504 217.903 26.3504Z"/><path d="M235.581 40.1214C234.037 40.1214 232.655 39.7449 231.443 38.9959C230.23 38.247 229.27 37.2207 228.563 35.9173C227.855 34.6138 227.503 33.1366 227.503 31.4814C227.503 29.8263 227.855 28.3532 228.563 27.0621C229.27 25.7711 230.23 24.7573 231.443 24.0166C232.655 23.2759 234.037 22.9076 235.581 22.9076C236.818 22.9076 237.898 23.1394 238.825 23.6028C239.752 24.0663 240.501 24.7159 241.076 25.5559V15.8897H245.313V39.7242H241.539L241.076 37.3738C240.546 38.1021 239.847 38.7435 238.974 39.2938C238.101 39.8442 236.971 40.1214 235.581 40.1214ZM236.475 36.4138C237.844 36.4138 238.961 35.9545 239.835 35.0401C240.708 34.1256 241.142 32.9504 241.142 31.5145C241.142 30.0787 240.708 28.9035 239.835 27.989C238.961 27.0745 237.844 26.6152 236.475 26.6152C235.105 26.6152 234.012 27.0663 233.131 27.9725C232.25 28.8787 231.807 30.0456 231.807 31.4814C231.807 32.9173 232.25 34.0966 233.131 35.0235C234.012 35.9504 235.13 36.4138 236.475 36.4138Z"/><path d="M250.241 20.7559C249.468 20.7559 248.835 20.5242 248.338 20.0607C247.841 19.5973 247.593 19.0138 247.593 18.3063C247.593 17.5987 247.841 17.0194 248.338 16.5683C248.835 16.1173 249.468 15.8897 250.241 15.8897C251.015 15.8897 251.648 16.1173 252.145 16.5683C252.641 17.0194 252.89 17.5987 252.89 18.3063C252.89 19.0138 252.641 19.5973 252.145 20.0607C251.648 20.5242 251.015 20.7559 250.241 20.7559ZM248.123 39.7242V23.3049H252.36V39.7242H248.123Z"/><path d="M260.806 40.1214C259.395 40.1214 258.236 39.8938 257.33 39.4428C256.423 38.9918 255.753 38.3876 255.31 37.6387C254.868 36.8897 254.648 36.0621 254.648 35.1559C254.648 33.6332 255.244 32.3959 256.436 31.4483C257.628 30.5007 259.415 30.0249 261.799 30.0249H265.97V29.6276C265.97 28.5021 265.651 27.6745 265.01 27.1449C264.368 26.6152 263.574 26.3504 262.626 26.3504C261.766 26.3504 261.017 26.5532 260.375 26.9628C259.734 27.3725 259.337 27.9725 259.183 28.767H255.046C255.157 27.5752 255.559 26.5366 256.254 25.6552C256.949 24.7738 257.847 24.0952 258.952 23.6194C260.057 23.1435 261.29 22.9076 262.659 22.9076C264.997 22.9076 266.843 23.4911 268.188 24.6621C269.532 25.8332 270.207 27.4883 270.207 29.6276V39.7242H266.599L266.201 37.0759C265.717 37.9573 265.039 38.6856 264.166 39.2607C263.292 39.8359 262.175 40.1214 260.806 40.1214ZM261.766 36.8111C262.978 36.8111 263.921 36.4138 264.596 35.6194C265.27 34.8249 265.692 33.8442 265.87 32.6732H262.262C261.137 32.6732 260.33 32.8759 259.846 33.2856C259.361 33.6952 259.117 34.1959 259.117 34.7918C259.117 35.4332 259.361 35.9297 259.846 36.2814C260.33 36.6332 260.971 36.8111 261.766 36.8111Z"/><path d="M56.1104 11.6442C55.5145 11.6442 54.989 11.5407 54.5338 11.338C54.0786 11.1352 53.7186 10.8414 53.4579 10.4566C53.1973 10.0718 53.0607 9.6083 53.0524 9.0621H54.6166C54.6331 9.44279 54.7697 9.75727 55.0262 10.018C55.2828 10.2786 55.6428 10.4069 56.0979 10.4069C56.491 10.4069 56.8055 10.3118 57.0373 10.1214C57.269 9.93106 57.3848 9.67865 57.3848 9.36416C57.3848 9.04968 57.2814 8.77244 57.0786 8.58623C56.8759 8.40003 56.6028 8.25106 56.2635 8.1352C55.9242 8.01934 55.56 7.8952 55.1752 7.76279C54.5504 7.54761 54.0704 7.27037 53.7435 6.92692C53.4166 6.58761 53.251 6.13658 53.251 5.56968C53.2428 5.08968 53.3586 4.68003 53.5945 4.33658C53.8304 3.99313 54.1531 3.7283 54.5628 3.53796C54.9724 3.34761 55.4441 3.25244 55.9779 3.25244C56.5117 3.25244 56.9959 3.34761 57.4097 3.5421C57.8235 3.73658 58.1462 4.00555 58.3821 4.35313C58.6179 4.70072 58.7421 5.11451 58.7586 5.59451H57.1697C57.1614 5.30899 57.0538 5.05658 56.8386 4.83727C56.6235 4.61796 56.3297 4.50623 55.9531 4.50623C55.6304 4.49796 55.3573 4.57658 55.1379 4.7421C54.9186 4.90761 54.8069 5.14761 54.8069 5.46623C54.8069 5.7352 54.8938 5.95037 55.0635 6.10761C55.2331 6.26486 55.4648 6.40141 55.7586 6.50899C56.0524 6.61658 56.3876 6.73244 56.7683 6.85658C57.1697 6.99727 57.5379 7.15865 57.869 7.34485C58.2 7.53106 58.469 7.7752 58.6676 8.08141C58.8704 8.38761 58.9697 8.77658 58.9697 9.25658C58.9697 9.68279 58.8621 10.0759 58.6469 10.44C58.4317 10.8042 58.109 11.0938 57.6869 11.3131C57.2607 11.5324 56.7393 11.6442 56.1228 11.6442H56.1104Z"/><path d="M62.5738 11.5035V3.39313H64.0552V11.5035H62.5738Z"/><path d="M67.949 11.5035V3.39313H69.4304L73.2414 9.10348V3.39313H74.7228V11.5035H73.2414L69.4304 5.80141V11.5035H67.949Z"/><path d="M82.2952 11.6442C81.4759 11.6442 80.7724 11.4704 80.1848 11.1186C79.5972 10.7669 79.1462 10.2786 78.8276 9.64554C78.509 9.01658 78.3517 8.2883 78.3517 7.46072C78.3517 6.63313 78.509 5.90486 78.8276 5.27175C79.1421 4.63865 79.5972 4.14623 80.1848 3.79037C80.7724 3.43451 81.4759 3.25658 82.2952 3.25658C83.2676 3.25658 84.0662 3.49658 84.6869 3.98072C85.3076 4.46486 85.6966 5.13934 85.8497 6.01244H84.2152C84.1159 5.57382 83.9007 5.22623 83.5738 4.97382C83.2469 4.72141 82.8124 4.59727 82.2704 4.59727C81.5214 4.59727 80.9338 4.85382 80.5076 5.36279C80.0814 5.87175 79.8704 6.57106 79.8704 7.46072C79.8704 8.35037 80.0814 9.04555 80.5076 9.55037C80.9338 10.0552 81.5214 10.3076 82.2704 10.3076C82.8124 10.3076 83.2469 10.1876 83.5738 9.95589C83.9007 9.72003 84.1159 9.39313 84.2152 8.9752H85.8497C85.6966 9.81106 85.3076 10.4607 84.6869 10.9324C84.0662 11.4042 83.2676 11.64 82.2952 11.64V11.6442Z"/><path d="M89.4786 11.5035V3.39313H90.96V6.76554H94.5972V3.39313H96.0786V11.5035H94.5972V7.96968H90.96V11.5035H89.4786Z"/><path d="M21.5171 21.5173H17.2137C17.2137 16.8662 14.9461 13.6262 12.9102 13.6262C10.8744 13.6262 8.60679 16.8662 8.60679 21.5173C8.60679 21.5917 8.60679 21.6621 8.60679 21.7324C8.63162 25.9531 9.41783 29.9876 10.8537 33.3724C7.05093 32.0979 4.30334 27.3476 4.30334 21.5173C4.30334 14.6814 8.08541 9.32277 12.9102 9.32277C17.7351 9.32277 21.5171 14.6772 21.5171 21.5173Z" class="logo"/><path d="M17.2137 21.5173H12.9102C12.9102 25.6469 13.6509 29.5614 14.9916 32.5448C16.7999 36.5669 19.1296 37.6966 20.7227 37.9531C20.6771 37.8704 20.6358 37.7835 20.5902 37.6966C18.4137 33.3393 17.2137 27.5959 17.2137 21.5173Z" class="logo"/><path d="M38.7309 21.5173C38.7309 16.6676 38.0109 12.0745 36.7033 8.59035C36.0164 6.76139 35.193 5.29656 34.2454 4.22897C32.7227 2.51173 31.1627 2.15173 30.124 2.15173C29.4164 2.15173 28.4647 2.31725 27.4509 2.96691C28.6509 3.94346 29.7351 5.2138 30.6868 6.74897C31.1958 7.17104 31.9364 8.13104 32.673 10.1007C33.7613 13.0014 34.3778 16.8579 34.4233 21.0166C34.4233 21.0662 34.4233 21.1159 34.4233 21.1697C34.4233 21.2855 34.4233 21.4014 34.4233 21.5214C34.4233 25.8662 33.7985 29.9214 32.6689 32.9379C31.5516 35.9131 30.4261 36.5835 30.1199 36.5835C29.8137 36.5835 28.684 35.9131 27.5709 32.9379C26.4413 29.9214 25.8164 25.8662 25.8164 21.5214H30.1199C30.1199 17.3917 29.3792 13.4773 28.0385 10.4938C25.8951 5.73518 23.0316 5.02346 21.513 5.02346C20.6482 5.02346 19.3447 5.25518 17.9833 6.33518C18.0371 6.36415 18.0951 6.39725 18.1489 6.42622C19.4358 7.15035 20.6027 8.12691 21.633 9.33518C22.4937 9.45932 23.4868 10.8662 24.1116 12.2607C25.1502 14.5697 25.7668 17.7807 25.8082 21.12C25.8082 21.1614 25.8082 21.2028 25.8082 21.24C25.8082 21.3352 25.8082 21.4262 25.8082 21.5214H21.5047C21.5047 26.371 22.2247 30.96 23.5323 34.4483C24.2192 36.2773 25.0427 37.7462 25.9902 38.8097C27.513 40.5269 29.073 40.8869 30.1116 40.8869C31.1502 40.8869 32.7144 40.5269 34.233 38.8097C35.1764 37.7462 36.004 36.2773 36.6909 34.4483C37.9985 30.96 38.7185 26.371 38.7185 21.5214L38.7309 21.5173Z" class="logo"/></svg>