<svg class="sinch-icon" viewBox="0 0 48 48" fill="currentColor" xmlns="http://www.w3.org/2000/svg"><path fill-rule="evenodd" clip-rule="evenodd" d="M42 0C45.3137 0 48 2.68629 48 6V42C48 45.3137 45.3137 48 42 48H6C2.68629 48 0 45.3137 0 42V6C0 2.68629 2.68629 0 6 0H42ZM32 6C31.3423 6 30.4579 6.15408 29.5156 6.75781C30.6309 7.66538 31.6389 8.84579 32.5234 10.2725C32.9965 10.6648 33.6846 11.5573 34.3691 13.3877C35.3807 16.0836 35.9538 19.6682 35.9961 23.5332V24.002C35.9961 28.04 35.4152 31.8088 34.3652 34.6123C33.3268 37.3774 32.2807 38 31.9961 38C31.7114 37.9999 30.6615 37.3772 29.627 34.6123C28.577 31.8088 27.9961 28.04 27.9961 24.002H31.9961C31.9961 20.1639 31.3077 16.5257 30.0615 13.7529C28.0692 9.3304 25.4076 8.66895 23.9961 8.66895C23.1923 8.66896 21.981 8.88428 20.7158 9.8877C20.7407 9.90111 20.7661 9.9163 20.792 9.93066C20.8179 9.94507 20.8442 9.95921 20.8691 9.97266C22.0652 10.6456 23.1498 11.553 24.1074 12.6758C24.9074 12.7912 25.8304 14.0995 26.4111 15.3955C27.3765 17.5414 27.9498 20.5255 27.9883 23.6289V24.002H23.9883C23.9883 28.509 24.6577 32.7737 25.873 36.0156C26.5114 37.7153 27.2766 39.081 28.1572 40.0693C29.5725 41.6652 31.0229 42 31.9883 42C32.9537 42 34.4078 41.6653 35.8193 40.0693C36.6962 39.081 37.4651 37.7154 38.1035 36.0156C39.3188 32.7737 39.9883 28.509 39.9883 24.002L40 23.998C40 19.491 39.3305 15.2224 38.1152 11.9844C37.4768 10.2847 36.7118 8.92285 35.8311 7.93066C34.4157 6.33468 32.9654 6 32 6ZM16 23.998C16 27.8361 16.6884 31.4743 17.9346 34.2471C19.6153 37.9851 21.781 39.035 23.2617 39.2734C23.2363 39.2273 23.2118 39.1799 23.1875 39.1318C23.1714 39.0999 23.1555 39.0673 23.1387 39.0352C21.1156 34.9856 20 29.6474 20 23.998H16ZM16 12.665C11.5154 12.665 8.00001 17.6449 8 23.998C8 29.4167 10.5543 33.8321 14.0889 35.0166C12.7543 31.8708 12.0231 28.1208 12 24.1982V23.998C12 19.6754 14.1077 16.6641 16 16.6641C17.8923 16.6641 20 19.6754 20 23.998H24C24 17.641 20.4846 12.665 16 12.665Z"/></svg>