<svg width="279" height="48" viewBox="0 0 279 48" fill="currentColor" xmlns="http://www.w3.org/2000/svg"><g clip-path="url(#clip0_59370_41003)"><path d="M57.4365 8.20169C57.847 8.38256 58.32 8.47299 58.8556 8.47299C59.4122 8.47299 59.8817 8.3756 60.2643 8.18082C60.6469 7.97908 60.9356 7.71473 61.1304 7.38777C61.3252 7.06082 61.4226 6.70604 61.4226 6.32343C61.4226 5.89212 61.3322 5.54082 61.1513 5.26951C60.9704 4.99125 60.7304 4.76864 60.4313 4.60169C60.1322 4.43473 59.8017 4.28864 59.44 4.16343C59.0991 4.05212 58.7965 3.94777 58.5322 3.85038C58.2678 3.75299 58.0591 3.63473 57.9061 3.4956C57.753 3.34952 57.6765 3.15473 57.6765 2.91126C57.6765 2.62604 57.7739 2.41039 57.9687 2.2643C58.1704 2.11126 58.4174 2.03821 58.7096 2.04517C59.0504 2.04517 59.3148 2.14604 59.5026 2.34778C59.6974 2.54256 59.7983 2.76865 59.8052 3.02604H61.2348C61.2209 2.59473 61.1061 2.22256 60.8904 1.90952C60.6817 1.59647 60.3896 1.353 60.0139 1.17908C59.6452 1.00517 59.2104 0.918213 58.7304 0.918213C58.2504 0.918213 57.8261 1.00517 57.4574 1.17908C57.0887 1.34604 56.7965 1.58604 56.5809 1.89908C56.3722 2.20517 56.2713 2.57387 56.2783 3.00517C56.2783 3.51299 56.4243 3.91995 56.7165 4.22604C57.0156 4.53212 57.4469 4.78256 58.0104 4.97734C58.3583 5.0956 58.6852 5.20691 58.9913 5.31125C59.2974 5.4156 59.5409 5.55125 59.7217 5.71821C59.9096 5.88517 60.0035 6.13212 60.0035 6.41734C60.0035 6.70256 59.8991 6.93212 59.6904 7.10604C59.4817 7.27299 59.2 7.35647 58.8452 7.35647C58.4348 7.35647 58.1113 7.24169 57.8748 7.01212C57.6452 6.7756 57.5235 6.48691 57.5096 6.14604H56.1009C56.1078 6.63995 56.2296 7.06082 56.4661 7.40864C56.7026 7.74951 57.0261 8.01386 57.4365 8.20169Z" class="logo"/><path d="M63.5269 1.04691V8.34777H64.8626V1.04691H63.5269Z" class="logo"/><path d="M67.2174 1.04691V8.34777H68.553V3.21734L71.9861 8.34777H73.3217V1.04691H71.9861V6.18778L68.553 1.04691H67.2174Z" class="logo"/><path d="M77.0817 8.00343C77.6104 8.31647 78.2435 8.47299 78.9809 8.47299C79.8574 8.47299 80.5739 8.26082 81.1304 7.83647C81.6939 7.41212 82.0452 6.8243 82.1843 6.07299H80.713C80.6226 6.44864 80.4278 6.7443 80.1287 6.95995C79.8365 7.16864 79.4469 7.27299 78.96 7.27299C78.2852 7.27299 77.7565 7.0469 77.3739 6.59473C76.9913 6.1356 76.8 5.50604 76.8 4.70604C76.8 3.90604 76.9913 3.27647 77.3739 2.81734C77.7565 2.35821 78.2852 2.12865 78.96 2.12865C79.4469 2.12865 79.8365 2.24343 80.1287 2.473C80.4278 2.6956 80.6226 3.00517 80.713 3.40169H82.1843C82.0452 2.6156 81.6939 2.00691 81.1304 1.5756C80.5739 1.13734 79.8574 0.918213 78.9809 0.918213C78.2435 0.918213 77.6104 1.07821 77.0817 1.39821C76.553 1.71821 76.1461 2.16343 75.8609 2.73387C75.5756 3.3043 75.433 3.96169 75.433 4.70604C75.433 5.45038 75.5756 6.10777 75.8609 6.67821C76.1461 7.24169 76.553 7.68343 77.0817 8.00343Z" class="logo"/><path d="M84.3026 1.04691V8.34777H85.6383V5.16517H88.9148V8.34777H90.2504V1.04691H88.9148V4.07995H85.6383V1.04691H84.3026Z" class="logo"/><path d="M66.9843 41.0295C60.4626 41.0295 56.4035 37.5269 56 32.0591H61.5478C61.687 34.9113 63.5304 36.7374 66.8765 36.7374C69.6487 36.7374 71.6313 35.513 71.6313 33.4226C71.6313 31.7948 70.3757 30.8348 68.1774 30.4L63.9339 29.5617C60.0139 28.8035 56.9774 26.6817 56.9774 22.3895C56.9774 17.7878 61.0504 14.473 66.6296 14.473C72.2087 14.473 76.6852 17.8643 77.04 23.2556H71.4922C71.3043 20.56 69.433 18.7165 66.7061 18.7165C63.9791 18.7165 62.5217 20.233 62.5217 22.0313C62.5217 23.8295 64.1496 24.5565 66.0244 24.9113L70.4557 25.8087C74.9948 26.7061 77.4435 28.8 77.4435 32.6261C77.4435 37.5687 73.4783 41.0226 67.0017 41.0226H66.9843V41.0295Z" class="logo"/><path d="M87.1652 40.6713V40.6678H92.167V29.9304C92.167 27.0469 93.7635 25.4991 95.7774 25.4991C97.9756 25.4991 99.1235 27.1269 99.1235 29.8226V40.6678H104.097V29.9304C104.097 27.0469 105.725 25.4991 107.708 25.4991C109.906 25.4991 111.054 27.1269 111.054 29.8226V40.6678H116.028V28.2435C116.028 23.6278 113.395 21.0713 109.506 21.0713C106.623 21.0713 104.685 22.3722 103.169 24.4939C102.191 22.2956 100.101 21.0713 97.5443 21.0713C94.9878 21.0713 93.1896 22.2191 91.7809 24.1704V21.4296H87.1652V40.6678H87.1617L87.1652 40.6713Z" class="logo"/><path fill-rule="evenodd" clip-rule="evenodd" d="M123.391 38.1808C124.835 40.0522 126.786 41.0295 129.047 41.0295L129.043 41.0226L129.061 41.0087C134.25 41.0087 137.597 36.6852 137.597 31.033C137.597 25.3809 134.25 21.0574 129.061 21.0574C126.612 21.0574 124.473 22.1739 123.002 24.233V21.4295H118.386V47.6139H123.391V38.1808ZM123.423 31.0539C123.423 27.4122 125.482 25.5061 127.93 25.5061C130.379 25.5061 132.438 27.3808 132.438 31.0539C132.438 34.7269 130.379 36.5704 127.93 36.5704C125.482 36.5704 123.423 34.6956 123.423 31.0539Z" class="logo"/><path d="M139.614 40.6714V14.8H144.664V40.6714H139.614Z" class="logo"/><path fill-rule="evenodd" clip-rule="evenodd" d="M156.157 21.0574C150.609 21.0574 146.612 25.2417 146.612 30.9739C146.612 36.9843 150.47 40.9809 156.233 40.9809C160.911 40.9809 164.257 38.4869 165.343 34.1322H160.369C159.798 36.0382 158.327 37.1235 156.125 37.1235C153.569 37.1235 152.052 35.3878 151.725 32.2574H165.374C166.289 26 162.247 21.0574 156.157 21.0574ZM160.09 29.0991H151.819C152.25 26.2609 153.69 24.7443 156.063 24.7443C158.435 24.7443 159.951 26.4348 160.09 29.0991Z" class="logo"/><path d="M170.706 40.6714V19.7427H162.574V14.8H184.372V19.7427H176.191V40.6714H170.706Z" class="logo"/><path fill-rule="evenodd" clip-rule="evenodd" d="M190.553 21.0574C185.005 21.0574 181.009 25.2417 181.009 30.9739C181.009 36.9843 184.866 40.9809 190.63 40.9809C195.308 40.9809 198.654 38.4869 199.739 34.1322H194.765C194.195 36.0382 192.72 37.1235 190.522 37.1235C187.965 37.1235 186.445 35.3878 186.122 32.2574H199.77C200.685 26 196.64 21.0574 190.553 21.0574ZM194.487 29.0991H186.216C186.647 26.2609 188.09 24.7443 190.459 24.7443C192.828 24.7443 194.348 26.4348 194.487 29.0991Z" class="logo"/><path d="M245.837 40.6713H240.831V21.4296H245.447V24.1704C246.856 22.2643 248.838 21.0713 251.35 21.0713C255.207 21.0713 257.871 23.5965 257.871 28.2435V40.6678H252.897V29.9304C252.897 27.0782 251.781 25.4991 249.503 25.4991C247.52 25.4991 245.83 27.0782 245.83 30.1774V40.6643L245.837 40.6713Z" class="logo"/><path fill-rule="evenodd" clip-rule="evenodd" d="M265.37 40.7339H260.536L260.532 40.7374V40.7513C260.751 45.1826 264.205 47.9861 269.395 47.9861C275.096 47.9861 278.55 44.8869 278.55 39.7739V21.4296H273.979V24.0626C272.57 22.08 270.619 21.0713 268.031 21.0713C263.277 21.0713 259.962 25.0678 259.962 30.5078C259.962 35.9478 263.492 39.9443 268.219 39.9443C270.557 39.9443 272.543 38.8765 273.579 37.033V39.8365C273.579 42.6087 272.139 44.08 269.367 44.08C266.998 44.08 265.586 42.9322 265.37 40.7339ZM273.534 30.5391C273.534 33.5617 271.812 35.6209 269.179 35.6209V35.6069C266.595 35.6069 264.967 33.6243 264.967 30.4939C264.967 27.3635 266.56 25.3809 269.179 25.3809C271.798 25.3809 273.534 27.5165 273.534 30.5391Z" class="logo"/><path d="M231.569 25.7217V21.4295H226.052V15.7286H221.078V21.4156H213.176L209.21 28.0452L205.29 21.4156H199.527L205.583 30.8521L199.092 40.6573H204.668L208.88 33.7495L213.203 40.6573H218.89L212.445 31.0365L215.76 25.7078H221.061V34.4312C221.061 38.7547 223.541 41.0295 227.506 41.0295C228.977 41.0295 230.139 40.7826 231.363 40.1634V35.8086C230.65 36.2121 229.784 36.4278 228.838 36.4278C227.04 36.4278 226.035 35.5304 226.035 33.2973V25.7217H231.569Z" class="logo"/><path d="M78.8626 18.5009C78.8626 20.2052 80.2261 21.4609 82.1774 21.4609C84.16 21.4609 85.5235 20.2678 85.5235 18.5009C85.5235 16.7339 84.1287 15.4783 82.1774 15.4783C80.2261 15.4783 78.8626 16.7965 78.8626 18.5009Z" class="logo"/><path d="M82.2852 22.9495C81.3704 22.9495 80.5044 22.7339 79.7287 22.3617V40.6747H84.7339V22.4243C83.9896 22.7513 83.1548 22.9495 82.2852 22.9495Z" class="logo"/><path d="M232.835 18.5009C232.835 20.2052 234.198 21.4609 236.15 21.4609C238.132 21.4609 239.496 20.2678 239.496 18.5009C239.496 16.7339 238.101 15.4783 236.15 15.4783C234.198 15.4783 232.835 16.7965 232.835 18.5009Z" class="logo"/><path d="M236.257 22.9495C235.343 22.9495 234.477 22.7339 233.701 22.3617V40.6747H238.706V22.4243C237.962 22.7513 237.127 22.9495 236.257 22.9495Z" class="logo"/><path d="M23.6522 47.3044C36.7165 47.3044 47.3043 36.7165 47.3043 23.6522C47.3043 10.5878 36.7165 0 23.6522 0C10.5878 0 0 10.5878 0 23.6522C0 36.7165 10.5878 47.3044 23.6522 47.3044Z" class="logo"/><path fill-rule="evenodd" clip-rule="evenodd" d="M31.9026 11.6869C33.4609 12.5113 34.6852 13.7495 35.527 15.3113L35.5305 15.3078H35.5444C36.3826 16.8661 36.8278 18.6713 36.8278 21.4574V23.0469C36.8278 23.6591 36.8105 24.2261 36.7652 24.7617C36.4278 29.8434 34.8696 33.1304 32.9252 35.273C29.3267 39.2281 24.4325 39.2069 23.6728 39.2036C23.6541 39.2035 23.638 39.2034 23.6244 39.2034H23.5339C23.5248 39.2034 23.5117 39.1996 23.4994 39.1959C23.4883 39.1926 23.4779 39.1895 23.4713 39.1895C23.3183 39.1269 23.2278 39.0052 23.1652 38.8521C23.0609 38.5774 23.12 38.3304 23.3809 38.1321C23.5613 37.9895 23.7494 37.8503 23.9379 37.7107C24.1311 37.5677 24.3248 37.4243 24.5113 37.2765C24.6052 37.2 24.6818 37.1374 24.7722 37.0608C24.7722 37.0608 25.0957 36.7721 25.3705 36.48C25.6452 36.1913 26.1357 35.4852 26.6087 34.4765C26.6539 34.3687 26.64 34.2608 26.5635 34.1843C26.4731 34.0765 26.32 34.1078 26.32 34.1078H20.8731C18.0905 34.1078 16.2852 33.6661 14.7235 32.8243C13.1652 32 11.9409 30.7617 11.0992 29.2C10.2609 27.6417 9.81567 25.8365 9.81567 23.0504V21.4608C9.81567 18.6782 10.2574 16.873 11.0992 15.3113C11.9235 13.753 13.1618 12.5287 14.7235 11.6869C16.2818 10.8487 18.087 10.4034 20.8731 10.4034H25.7531C28.5357 10.4034 30.3409 10.8452 31.9026 11.6869ZM31.7218 17.3009H14.9078C14.5705 17.3009 14.3096 17.5757 14.3096 17.8992V20.3026C14.3096 20.64 14.5844 20.9009 14.9078 20.9009H31.7218C32.0591 20.9009 32.32 20.6261 32.32 20.3026V17.8992C32.32 17.5618 32.0452 17.3009 31.7218 17.3009ZM23.6139 23.6035H14.9078C14.5705 23.6035 14.3096 23.8783 14.3096 24.2018V26.6053C14.3096 26.9426 14.5844 27.2035 14.9078 27.2035H23.6139C23.9513 27.2035 24.2122 26.9287 24.2122 26.6053V24.2018C24.2122 23.8644 23.9374 23.6035 23.6139 23.6035Z" fill="white"/></g><defs><clipPath id="clip0_59370_41003"><rect width="278.609" height="48" fill="white"/></clipPath></defs></svg>