<svg class="sinch-icon" xmlns="http://www.w3.org/2000/svg" viewBox="0 0 93 48" aria-hidden="true"><path d="M92.298 25.271a17.167 17.167 0 0 1-.814 5.312c-1.51 4.734-5.27 8.678-10.06 10.549-5.64 2.202-12.252 1.416-18.624-2.21l-4.649-2.67a16.424 16.424 0 0 1-3.563 3.064l-14.817 8.679-.027.015v-7.501l.027-.014 22.29-13.057a16.017 16.017 0 0 1-.713 3.206l4.656 2.65c5.95 3.386 10.388 2.85 13.065 1.806 2.991-1.167 5.323-3.59 6.245-6.483.692-2.15.679-4.467-.04-6.609-.955-2.88-3.319-5.275-6.324-6.41-2.688-1.014-7.132-1.494-13.04 1.962L29.7 38.747l-.043.028c-4.017 2.35-8.14 3.556-12.065 3.58a18.162 18.162 0 0 1-6.53-1.145C6.247 39.396 2.44 35.498.874 30.783A17.116 17.116 0 0 1 .81 20.166c1.51-4.733 5.272-8.676 10.063-10.548 5.64-2.202 12.252-1.416 18.623 2.212l4.649 2.67a16.377 16.377 0 0 1 3.563-3.067l.281-.163 1.726-1.011-7.37-4.197A3.238 3.238 0 0 1 35.551.437l10.591 6.06L56.52.457a3.238 3.238 0 0 1 3.27 5.588l-29.528 17.05c.132-1.017.36-2.019.683-2.992l-4.656-2.65c-5.946-3.383-10.384-2.847-13.061-1.803-2.991 1.167-5.325 3.59-6.247 6.481a10.623 10.623 0 0 0 .039 6.608c.956 2.882 3.321 5.277 6.324 6.41 2.689 1.012 7.136 1.495 13.042-1.966l36.256-21.208c4.017-2.349 8.14-3.555 12.067-3.579a18.112 18.112 0 0 1 6.53 1.145c4.812 1.813 8.62 5.712 10.187 10.426a17.23 17.23 0 0 1 .872 5.304Z"/></svg>