<svg xmlns="http://www.w3.org/2000/svg" viewBox="0 0 48 48" aria-hidden="true"><path fill-rule="evenodd" clip-rule="evenodd" d="M7 10a3 3 0 0 1 3-3h10a3 3 0 0 1 3 3v10a3 3 0 0 1-3 3H10a3 3 0 0 1-3-3V10Zm3-1h10a1 1 0 0 1 1 1v10a1 1 0 0 1-1 1H10a1 1 0 0 1-1-1V10a1 1 0 0 1 1-1ZM7 28a3 3 0 0 1 3-3h10a3 3 0 0 1 3 3v10a3 3 0 0 1-3 3H10a3 3 0 0 1-3-3V28Zm3-1h10a1 1 0 0 1 1 1v10a1 1 0 0 1-1 1H10a1 1 0 0 1-1-1V28a1 1 0 0 1 1-1Zm18-2a3 3 0 0 0-3 3v10a3 3 0 0 0 3 3h10a3 3 0 0 0 3-3V28a3 3 0 0 0-3-3H28Zm10 2H28a1 1 0 0 0-1 1v10a1 1 0 0 0 1 1h10a1 1 0 0 0 1-1V28a1 1 0 0 0-1-1ZM25 10a3 3 0 0 1 3-3h10a3 3 0 0 1 3 3v10a3 3 0 0 1-3 3H28a3 3 0 0 1-3-3V10Zm3-1h10a1 1 0 0 1 1 1v10a1 1 0 0 1-1 1H28a1 1 0 0 1-1-1V10a1 1 0 0 1 1-1Z"/><path fill-rule="evenodd" clip-rule="evenodd" d="M30.754 10.228a1 1 0 0 0-.754.97l.005 7.845a1 1 0 0 0 .806.981l.218.037-.217-.037h.002l.005.002.014.003a3.211 3.211 0 0 0 .196.032c.125.018.302.04.512.058a7.03 7.03 0 0 0 1.592-.045c.589-.09 1.29-.298 1.863-.78.611-.514.986-1.264 1.009-2.228.023-.971-.329-1.74-.945-2.267a2.84 2.84 0 0 0 .88-2.101c0-.936-.394-1.656-1.044-2.11-.587-.41-1.293-.54-1.863-.576a7.627 7.627 0 0 0-1.564.08 8.813 8.813 0 0 0-.651.12l-.043.011-.014.003-.004.001-.003.001Zm2.152 1.78a5.277 5.277 0 0 0-.905.03l.003 1.906a7.72 7.72 0 0 1 .27-.002 4.83 4.83 0 0 0 .43-.098c.414-.115.739-.274.946-.463.177-.162.29-.36.29-.684 0-.313-.1-.407-.188-.468-.152-.106-.43-.195-.846-.221Zm-.078 6.09a4.619 4.619 0 0 1-.823.044v-2.143c.13-.014.267-.03.411-.053.154.006.31.02.464.043.415.063.707.182.878.328.127.109.257.285.247.702-.01.426-.151.622-.296.744-.183.153-.478.272-.88.334Zm-17.022-7.935a1.168 1.168 0 0 0-1.596.427l-4.07 7.689a1.169 1.169 0 0 0 2.024 1.168L13 18h4.153l.652 1.379a1.168 1.168 0 1 0 2.112-.999l-3.53-7.469a1.174 1.174 0 0 0-.056-.104 1.164 1.164 0 0 0-.525-.644ZM16.207 16h-2.422l1.332-2.307L16.207 16Z" class="accent"/><path d="M17.24 28.18c-1.938-.45-3.54-.034-4.654.977-1.085.984-1.586 2.42-1.586 3.8 0 1.379.501 2.819 1.577 3.819 1.104 1.027 2.7 1.483 4.643 1.076a.988.988 0 0 0 .76-1.168.978.978 0 0 0-1.157-.768c-1.418.297-2.345-.059-2.922-.595-.605-.563-.945-1.439-.945-2.365 0-.926.34-1.786.936-2.328.567-.513 1.487-.851 2.91-.52a.978.978 0 0 0 1.173-.743.989.989 0 0 0-.735-1.185Z" class="accent"/><path fill-rule="evenodd" clip-rule="evenodd" d="M35.429 29.205c-1.11-1.027-2.712-1.46-4.65-1.02a1 1 0 0 0-.779.975V37a1 1 0 0 0 .8.98c1.943.397 3.538-.075 4.638-1.117C36.506 35.852 37 34.406 37 33.024c0-1.381-.494-2.824-1.571-3.82ZM32 36.119V30.02c.962-.058 1.626.242 2.071.653.59.546.93 1.413.93 2.351s-.34 1.82-.938 2.387c-.45.426-1.114.739-2.063.708Z" class="accent"/></svg>