<svg xmlns="http://www.w3.org/2000/svg" viewBox="0 0 48 48" aria-hidden="true"><path fill-rule="evenodd" clip-rule="evenodd" d="M11.2 37h25.6c.59 0 1.2-.448 1.2-1V12c0-.552-.61-1-1.2-1H11.2c-.59 0-1.2.448-1.2 1v24c0 .552.61 1 1.2 1Zm25.6 2c1.767 0 3.2-1.343 3.2-3V12c0-1.657-1.433-3-3.2-3H11.2C9.433 9 8 10.343 8 12v24c0 1.657 1.433 3 3.2 3h25.6Z"/><path class="accent" d="M35 33a1 1 0 0 1-1 1h-4a1 1 0 0 1-1-1v-6a1 1 0 0 1 1-1h4a1 1 0 0 1 1 1v6Zm-8 0a1 1 0 0 1-1 1h-4a1 1 0 0 1-1-1V22a1 1 0 0 1 1-1h4a1 1 0 0 1 1 1v11Zm-9 1a1 1 0 0 0 1-1V15a1 1 0 0 0-1-1h-4a1 1 0 0 0-1 1v18a1 1 0 0 0 1 1h4Z"/></svg>