<svg xmlns="http://www.w3.org/2000/svg" viewBox="0 0 48 48" aria-hidden="true"><path fill-rule="evenodd" clip-rule="evenodd" d="M20 10a1 1 0 0 1 1-1h5.986a1 1 0 0 1 1 1v4H34a1 1 0 0 1 1 1v7.78l2.316.771a1 1 0 0 1 .648 1.217l-2.5 9a1 1 0 0 1-1.12.72c-2.496-.397-3.782-1.83-4.812-2.987-.451.52-.955 1.058-1.546 1.517-.975.756-2.187 1.308-3.887 1.477a.994.994 0 0 1-.15.004c-1.46-.076-2.614-.425-3.637-1.123-.668-.455-1.25-1.04-1.81-1.725a7.998 7.998 0 0 1-1.519 1.423c-.893.63-1.913 1.036-3.22 1.391a1 1 0 0 1-1.226-.697l-2.5-9a1 1 0 0 1 .647-1.217L13 22.78V15a1 1 0 0 1 1-1h6v-4Zm2 4h3.986v-3H22v3Zm-7 8.09 8.67-3.034a1 1 0 0 1 .66 0L33 22.09V16H15v6.09Zm9-1.03-9.67 3.384-.014.005-2.098.7 1.971 7.096c.685-.238 1.2-.493 1.641-.805.626-.442 1.172-1.042 1.85-2.013a1 1 0 0 1 1.632-.01c.802 1.114 1.436 1.836 2.127 2.307.647.441 1.408.705 2.537.773 1.285-.14 2.12-.544 2.784-1.06.586-.454 1.043-.99 1.585-1.626l.4-.467a1 1 0 0 1 1.454-.06c.383.375.707.733 1.008 1.066.793.876 1.429 1.579 2.586 1.958l1.99-7.16-2.099-.7-.014-.004L24 21.06Z"/><path fill-rule="evenodd" clip-rule="evenodd" d="m29.625 35.82.5.399c.469.375 1.16.673 2.006.89.836.215 1.756.333 2.626.393a24.044 24.044 0 0 0 3.104.006l.045-.004h.011a1 1 0 0 1 .166 1.992L38 38.5l.083.996h-.002l-.005.001-.016.001-.057.005-.208.013a26.022 26.022 0 0 1-3.176-.018c-.943-.066-1.992-.197-2.984-.451-.77-.197-1.548-.48-2.225-.893-1.881.878-3.626 1.346-5.41 1.346-1.79 0-3.541-.472-5.43-1.356-1.399.866-2.679 1.362-4.03 1.564-1.488.221-2.99.074-4.71-.223a1 1 0 1 1 .34-1.97c1.658.286 2.907.389 4.075.215 1.149-.172 2.292-.623 3.7-1.562l.483-.322.52.26c1.91.955 3.505 1.394 5.052 1.394 1.548 0 3.142-.44 5.053-1.395l.572-.286Z" class="accent"/></svg>