<svg xmlns="http://www.w3.org/2000/svg" viewBox="0 0 48 48" aria-hidden="true"><path fill-rule="evenodd" clip-rule="evenodd" d="M26.006 10.89a1 1 0 0 1 1.105-.884 11.189 11.189 0 0 1 9.883 9.871 1 1 0 1 1-1.988.223 9.188 9.188 0 0 0-8.116-8.106 1 1 0 0 1-.884-1.104Zm.013 4.447a1 1 0 0 1 1.173-.79 6.66 6.66 0 0 1 5.261 5.262 1 1 0 0 1-1.963.383 4.66 4.66 0 0 0-3.681-3.682 1 1 0 0 1-.79-1.173Z" class="accent"/><path d="M32.66 35c-.104 0-.198 0-.301-.01-3.714-.388-7.302-1.61-10.414-3.55a23.326 23.326 0 0 1-7.229-6.929c-2.022-2.992-3.308-6.452-3.702-10.001a3.081 3.081 0 0 1 .85-2.456 3.306 3.306 0 0 1 1.12-.765 3.237 3.237 0 0 1 1.36-.289h3.453a3.38 3.38 0 0 1 2.199.776 3.16 3.16 0 0 1 1.14 1.978c.135.994.395 1.959.747 2.893.228.577.27 1.193.135 1.79a3.127 3.127 0 0 1-.892 1.58l-.892.866a17.041 17.041 0 0 0 5.445 5.219l.892-.855a3.263 3.263 0 0 1 1.66-.855 3.543 3.543 0 0 1 1.877.13c.964.347 1.98.586 3.008.715.819.11 1.555.497 2.095 1.104.529.596.809 1.352.788 2.137v3.3c0 .448-.093.886-.28 1.293a3.075 3.075 0 0 1-.81 1.074 3.496 3.496 0 0 1-1.192.676 2.94 2.94 0 0 1-1.058.179ZM17.827 12.989h-3.485c-.176 0-.352.04-.508.1a1.15 1.15 0 0 0-.425.297c-.125.12-.208.269-.27.428a1.324 1.324 0 0 0-.062.497c.352 3.231 1.524 6.393 3.37 9.127a21.241 21.241 0 0 0 6.597 6.333 22.483 22.483 0 0 0 9.5 3.24c.156.02.332-.01.498-.059.176-.06.322-.14.446-.258.135-.12.239-.25.3-.408.073-.16.211-.617.211-.786v-3c.01-.298-.21-.638-.407-.867a1.299 1.299 0 0 0-.789-.418 16.604 16.604 0 0 1-3.453-.825 1.34 1.34 0 0 0-.716-.05 1.21 1.21 0 0 0-.622.329L26.55 28.07a1.07 1.07 0 0 1-1.244.16 19.12 19.12 0 0 1-7.302-7 1.024 1.024 0 0 1 .187-1.203l1.462-1.401c.166-.16.28-.368.332-.597a1.073 1.073 0 0 0-.041-.676 14.499 14.499 0 0 1-.871-3.33 1.158 1.158 0 0 0-.426-.736 1.237 1.237 0 0 0-.82-.298Z"/></svg>