<svg xmlns="http://www.w3.org/2000/svg" viewBox="0 0 48 48" aria-hidden="true"><path d="M40.761 11.657 7.085 20.52a.114.114 0 0 0-.017.216l9.857 4.413-1.855 1.36-8.82-3.948a2.115 2.115 0 0 1 .326-3.975l34.355-9.04a1.506 1.506 0 0 1 1.884 1.587l-1.785 20.52c-.02.23-.083.453-.186.658a5.471 5.471 0 0 1-7.129 2.547l-12.391-5.549 1.855-1.36 11.354 5.083a3.47 3.47 0 0 0 4.508-1.586l1.72-19.789Z"/><path class="accent" d="M24.854 30.89 19 37.394v-8.863L37.06 16.33a1 1 0 1 0-1.12-1.658L17 27.47v9.925c0 1.833 2.26 2.7 3.487 1.338l6.285-6.983-1.918-.86Z"/></svg>