<svg xmlns="http://www.w3.org/2000/svg" viewBox="0 0 48 48" aria-hidden="true"><path d="M41.656 24.267a7.404 7.404 0 0 0-7.17-5.58h-.87c-.45-1.36-1.17-2.63-2.1-3.72-1.1-1.3-2.48-2.33-4.04-3.01-1.55-.68-3.24-1.01-4.93-.95-2.22.02-4.32 1.14-5.41 2 1.15-.04 2.31.04 3.45.23.1.02.2.03.3.05.55-.17 1.13-.28 1.7-.28h.03c.95-.04 1.9.08 2.82.33.43.12.84.27 1.25.45a9.12 9.12 0 0 1 3.32 2.48c.45.53.84 1.11 1.16 1.73l.01.01c.32.62.57 1.27.75 1.95.11.44.51.75.97.75h1.61c1.2 0 2.37.4 3.32 1.14a5.43 5.43 0 0 1 1.92 2.93c.29 1.14.2 2.35-.26 3.44-.19.32-.34.55-.47.73v.28c0 .76-.06 1.51-.18 2.24 1.23-.33 1.79-1.25 2.4-2.28.02-.04.04-.07.06-.11.63-1.53.77-3.22.36-4.81Z" class="accent"/><path d="M18.246 37c-2.1 0-4.16-.383-5.94-1.493-1.79-1.11-3.23-2.7-4.15-4.59-.93-1.89-1.31-4-1.1-6.09.21-2.1 1.01-3.787 2.3-5.447a11.08 11.08 0 0 1 4.99-3.68c1.98-.73 4.11-.9 6.18-.47 2.06.43 3.96 1.117 5.49 2.567 1.34 1.27 2.34 2.85 2.92 4.59h.87c1.98 0 3.84.77 5.24 2.17a7.36 7.36 0 0 1 2.17 5.24c0 1.98-.77 3.84-2.17 5.24-1.4 1.4-3.26 2-5.24 2L18.5 37h-.254Zm0-20c-1.09 0-2.18.19-3.21.58-1.62.6-3.04 1.64-4.1 3.01-1.06 1.37-1.71 2.707-1.89 4.427-.17 1.72.14 3.46.9 5.01a9.234 9.234 0 0 0 3.42 3.78c1.47.91 3.15 1.193 4.88 1.193h.254l11.296.037c1.45 0 2.8-.39 3.83-1.41a5.33 5.33 0 0 0 1.58-3.82c0-1.44-.56-2.8-1.58-3.82a5.377 5.377 0 0 0-3.83-1.58h-1.61c-.46 0-.85-.31-.97-.75a9.227 9.227 0 0 0-2.58-4.39c-1.25-1.19-2.81-1.707-4.51-2.057a8.03 8.03 0 0 0-1.88-.21Z"/></svg>