<svg xmlns="http://www.w3.org/2000/svg" viewBox="0 0 48 48" aria-hidden="true"><path fill-rule="evenodd" clip-rule="evenodd" d="M42 24a5 5 0 0 1-9.901.995A1.011 1.011 0 0 1 32 25h-6a1 1 0 1 1 0-2h6c.033 0 .066.002.099.005A5.002 5.002 0 0 1 42 24Zm-2 0a3 3 0 1 1-6 0 3 3 0 0 1 6 0Zm-29 5a5 5 0 1 1 4.901-5.995c.033-.003.066-.005.099-.005h6a1 1 0 0 1 0 2h-6c-.033 0-.066-.002-.099-.005A5.002 5.002 0 0 1 11 29Zm0-2a3 3 0 1 1 0-6 3 3 0 0 1 0 6Z"/><path d="M16 19a3 3 0 0 1 3-3v2a1 1 0 0 0-1 1v2h-2v-2Zm0 10v-2h2v2a1 1 0 0 0 1 1v2a3 3 0 0 1-3-3Zm16 0a3 3 0 0 1-3 3v-2a1 1 0 0 0 1-1v-2h2v2Zm-2-8v-2a1 1 0 0 0-1-1v-2a3 3 0 0 1 3 3v2h-2Z"/><path fill-rule="evenodd" clip-rule="evenodd" d="M11 31a5 5 0 1 0 4.901 5.995c.033.003.066.005.099.005h3a4 4 0 0 0 4-4v-5a1 1 0 1 0-2 0v5a2 2 0 0 1-2 2h-3c-.033 0-.066.002-.099.005A5.002 5.002 0 0 0 11 31Zm0 2a3 3 0 1 0 0 6 3 3 0 0 0 0-6Zm18-22a4 4 0 0 0-4 4v5a1 1 0 1 0 2 0v-5a2 2 0 0 1 2-2h3c.033 0 .066-.002.099-.005A5.002 5.002 0 0 0 42 12a5 5 0 0 0-9.901-.995A1.011 1.011 0 0 0 32 11h-3Zm11 1a3 3 0 1 1-6 0 3 3 0 0 1 6 0Zm-29 5a5 5 0 1 1 4.901-5.995c.033-.003.066-.005.099-.005h3a4 4 0 0 1 4 4v5a1 1 0 1 1-2 0v-5a2 2 0 0 0-2-2h-3c-.033 0-.066-.002-.099-.005A5.002 5.002 0 0 1 11 17Zm0-2a3 3 0 1 1 0-6 3 3 0 0 1 0 6Zm26 16a5 5 0 1 1-4.901 5.995A1.011 1.011 0 0 1 32 37h-3a4 4 0 0 1-4-4v-5a1 1 0 1 1 2 0v5a2 2 0 0 0 2 2h3c.033 0 .066.002.099.005A5.002 5.002 0 0 1 37 31Zm0 2a3 3 0 1 1 0 6 3 3 0 0 1 0-6Z" class="accent"/></svg>