<svg xmlns="http://www.w3.org/2000/svg" viewBox="0 0 48 48" aria-hidden="true"><path d="M20 18.5a1.5 1.5 0 1 1-3 0 1.5 1.5 0 0 1 3 0Zm-3 9a1.5 1.5 0 1 1-3 0 1.5 1.5 0 0 1 3 0Zm4.5 7.5a1.5 1.5 0 1 0 0-3 1.5 1.5 0 0 0 0 3ZM26 24.5a1.5 1.5 0 1 1-3 0 1.5 1.5 0 0 1 3 0Zm4.5 8.5a1.5 1.5 0 1 0 0-3 1.5 1.5 0 0 0 0 3Z" class="accent"/><path d="m39 27 .976.22a1 1 0 0 0-1.151-1.204L39 27ZM24 9l.899.438A1 1 0 0 0 24.004 8L24 9Zm7 9 .82.572a1 1 0 0 0-.973-1.56L31 18Zm1 7.5-.73.683.73-.683Zm-7.5-9 .73-.683-.73.683Zm13.525 10.28c-.585 2.597-1.919 5.169-3.786 7.03l1.412 1.417c2.164-2.157 3.666-5.08 4.325-8.007l-1.951-.44Zm-3.786 7.03a14.23 14.23 0 0 1-6.874 3.787l.446 1.95a16.231 16.231 0 0 0 7.84-4.32l-1.412-1.416Zm-6.874 3.787a14.356 14.356 0 0 1-7.862-.416l-.65 1.892a16.356 16.356 0 0 0 8.958.474l-.446-1.95Zm-7.862-.416a14.18 14.18 0 0 1-6.423-4.49l-1.556 1.258a16.18 16.18 0 0 0 7.329 5.124l.65-1.892Zm-6.423-4.49a13.905 13.905 0 0 1-3.01-7.171l-1.987.226a15.905 15.905 0 0 0 3.441 8.203l1.556-1.257Zm-3.01-7.171a13.843 13.843 0 0 1 1.324-7.65l-1.796-.88a15.843 15.843 0 0 0-1.515 8.756l1.988-.226Zm1.324-7.65a14.064 14.064 0 0 1 5.253-5.783l-1.05-1.702a16.064 16.064 0 0 0-6 6.605l1.797.88Zm5.253-5.783c2.274-1.403 4.677-2.097 7.35-2.087l.007-2c-3.055-.012-5.824.79-8.408 2.385l1.05 1.702ZM31 18c-.82-.572-.82-.571-.821-.57l-.002.003-.004.005-.011.016a3.38 3.38 0 0 0-.129.207 7.143 7.143 0 0 0-.862 2.52c-.234 1.67.09 3.856 2.1 6.002l1.459-1.366c-1.56-1.666-1.736-3.23-1.578-4.358a5.14 5.14 0 0 1 .412-1.408 4.29 4.29 0 0 1 .26-.484l-.001.002-.001.001c-.001.001-.002.002-.822-.57Zm.27 8.183c1.377 1.47 3.463 1.864 5.002 1.949a14.331 14.331 0 0 0 2.831-.135l.05-.009.015-.002.005-.001h.002L39 27l-.175-.985c.001 0 0 0 0 0l-.006.001-.03.006-.137.02a12.341 12.341 0 0 1-2.27.093c-1.41-.077-2.824-.434-3.652-1.318l-1.46 1.366ZM24 9a119.998 119.998 0 0 0-.9-.437v.002l-.003.005-.007.015-.023.05-.078.176a11.156 11.156 0 0 0-.754 2.702c-.237 1.65-.13 3.893 1.535 5.67l1.46-1.366c-1.07-1.143-1.212-2.65-1.015-4.02a9.167 9.167 0 0 1 .683-2.356c0-.003.002-.004.002-.005v.001c-.001.001-.001.001-.9-.437Zm-.23 8.183c1.292 1.38 3.242 1.78 4.675 1.886a13.567 13.567 0 0 0 2.687-.078l.014-.002h.006L31 18l-.153-.988h.001-.005l-.029.004a10.34 10.34 0 0 1-.61.06 11.59 11.59 0 0 1-1.611-.002c-1.305-.097-2.604-.447-3.363-1.257l-1.46 1.366Z"/></svg>