<svg xmlns="http://www.w3.org/2000/svg" viewBox="0 0 48 48" aria-hidden="true"><path d="M37 22.23c-.773.341-1.756.63-2.873.87-2.616.562-6.19.9-10.127.9-3.937 0-7.51-.338-10.127-.9-1.117-.24-2.1-.529-2.873-.87v-2.32a.306.306 0 0 0 .008.009c.078.081.242.208.54.36.593.302 1.517.603 2.745.867 2.44.524 5.866.855 9.707.855 3.84 0 7.267-.331 9.707-.855 1.228-.264 2.152-.565 2.745-.867.298-.152.462-.279.54-.36a.306.306 0 0 0 .008-.01v2.323Z" class="accent"/><path fill-rule="evenodd" clip-rule="evenodd" d="M13.858 9.055C16.492 8.397 20.077 8 24 8c3.923 0 7.508.397 10.142 1.055 1.31.327 2.44.733 3.267 1.222.76.45 1.591 1.168 1.591 2.223 0 .1-.008.197-.022.292.014.067.022.137.022.208v21c0 .543-.26.98-.557 1.294-.293.309-.676.559-1.083.766-.817.416-1.934.761-3.233 1.04-2.616.562-6.19.9-10.127.9-3.937 0-7.51-.338-10.127-.9-1.3-.279-2.416-.624-3.233-1.04-.407-.207-.79-.457-1.083-.767C9.259 34.98 9 34.544 9 34V13c0-.071.007-.141.022-.208A1.952 1.952 0 0 1 9 12.5c0-1.055.831-1.774 1.591-2.223.828-.49 1.958-.895 3.267-1.222ZM11.01 12.5c.03.058.15.236.599.502.59.348 1.51.697 2.734 1.003 2.433.608 5.848.995 9.657.995s7.224-.387 9.657-.995c1.224-.306 2.144-.655 2.734-1.004.449-.265.569-.443.6-.501-.032-.058-.151-.236-.6-.502-.59-.348-1.51-.697-2.734-1.003C31.224 10.387 27.809 10 24 10s-7.224.387-9.657.995c-1.224.306-2.144.655-2.734 1.004-.448.265-.569.443-.6.501ZM11 26.909l.008.009c.078.081.242.208.54.36.593.302 1.517.603 2.745.867 2.44.523 5.866.855 9.707.855 3.84 0 7.267-.332 9.707-.855 1.228-.264 2.152-.565 2.745-.867.298-.152.462-.279.54-.36l.008-.01V14.947c-.775.39-1.753.723-2.858.999C31.508 16.603 27.923 17 24 17c-3.923 0-7.508-.397-10.142-1.055-1.105-.276-2.083-.608-2.858-1V26.91Zm26 2.322c-.773.34-1.756.63-2.873.87C31.51 30.66 27.936 31 24 31c-3.937 0-7.51-.338-10.127-.9-1.117-.24-2.1-.529-2.873-.87v4.679l.008.008c.078.082.242.21.54.361.593.302 1.517.603 2.745.867 2.44.523 5.866.855 9.707.855 3.84 0 7.267-.332 9.707-.855 1.228-.264 2.152-.565 2.745-.867.298-.152.462-.279.54-.36l.008-.01v-4.677Z"/></svg>