<svg xmlns="http://www.w3.org/2000/svg" viewBox="0 0 48 48" aria-hidden="true"><path d="M22.002 29.308c.099-.127.199-.25.3-.37a17.736 17.736 0 0 1 1.7-1.749L24 6.414l4.657 4.656a1 1 0 1 0 1.414-1.414l-6.364-6.364a1 1 0 0 0-1.414 0l-6.364 6.365a1 1 0 0 0 1.415 1.414L22 6.414l.002 22.894Z"/><path fill-rule="evenodd" clip-rule="evenodd" d="M11.992 21.654a1.168 1.168 0 0 1 2.121.218c.02.033.039.068.056.104l3.53 7.468a1.168 1.168 0 1 1-2.112.999l-.652-1.379h-4.152l-.836 1.448a1.168 1.168 0 1 1-2.024-1.169l4.069-7.689Zm-.425 5.41h2.423l-1.09-2.307-1.333 2.307ZM39 26.5a4.5 4.5 0 0 1-8.723 1.56c-1.44.331-2.957 1.353-4.166 2.74-1.176 1.35-1.935 2.9-2.084 4.23a4.5 4.5 0 1 1-2.022.224c.082-2.002 1.153-4.11 2.598-5.767 1.43-1.642 3.37-3.008 5.417-3.418A4.5 4.5 0 0 1 39 26.5Zm-2 0a2.5 2.5 0 1 1-5 0 2.5 2.5 0 0 1 5 0ZM23.5 42a2.5 2.5 0 1 0 0-5 2.5 2.5 0 0 0 0 5Z" class="accent"/></svg>