<svg xmlns="http://www.w3.org/2000/svg" viewBox="0 0 48 48" aria-hidden="true"><path fill-rule="evenodd" clip-rule="evenodd" d="M17.1 13c-2.2 0-4 1.8-4 4s1.8 4 4 4 4-1.8 4-4-1.8-4-4-4Zm-6 4c0-3.3 2.7-6 6-6s6 2.7 6 6-2.7 6-6 6-6-2.7-6-6Z"/><path d="M25.4 39c-.3 0-.5-.1-.7-.3l-4-4c-.4-.4-.4-1 0-1.4l4-4c.4-.4 1-.4 1.4 0 .4.4.4 1 0 1.4L22.9 34l3.3 3.3c.4.4.4 1 0 1.4-.2.2-.5.3-.8.3Z" class="accent"/><path fill-rule="evenodd" clip-rule="evenodd" d="M22.7 28.5c-1.8-1-3.8-1.5-5.8-1.5-2.7 0-5.4.9-7.4 2.8-2.1 1.9-3.4 4.6-3.4 8.2 0 .6.4 1 1 1s1-.4 1-1c0-3.1 1.1-5.3 2.7-6.8s3.8-2.2 6.1-2.2c1.5 0 3 .3 4.3 1l1.5-1.5Z"/><path d="M36 39c-.3 0-.5-.1-.7-.3-.4-.4-.4-1 0-1.4l3.3-3.3-3.3-3.3c-.4-.4-.4-1 0-1.4.4-.4 1-.4 1.4 0l4 4c.4.4.4 1 0 1.4l-4 4c-.1.2-.4.3-.7.3Z" class="accent"/><path d="M29.4 39c-.1 0-.2 0-.3-.1-.5-.2-.8-.7-.6-1.3l2.6-8c.2-.5.7-.8 1.3-.6.5.2.8.7.6 1.3l-2.6 8c-.2.4-.6.7-1 .7Z"/></svg>