<svg xmlns="http://www.w3.org/2000/svg" viewBox="0 0 48 48" aria-hidden="true"><path d="M25.99 18.104c.517-.276 1.178-.112 1.477.366l5.41 8.66c.299.479.122 1.09-.396 1.366-.517.276-1.18.113-1.478-.366l-5.41-8.66c-.299-.478-.121-1.09.396-1.366Zm0 7.396c-.3-.478-.961-.642-1.479-.366-.517.276-.695.888-.396 1.366l2.705 4.33c.299.478.96.642 1.478.366s.695-.888.396-1.366L25.99 25.5Zm4.176 7.383c-.299-.479-.96-.643-1.478-.366-.517.276-.695.887-.396 1.366l1.082 1.732c.299.478.96.642 1.478.366.517-.276.695-.888.396-1.366l-1.082-1.732ZM19.04 24.088c-.299-.478-.96-.642-1.478-.366-.518.277-.695.888-.396 1.366l3.246 5.197c.299.478.96.642 1.478.366.517-.276.695-.888.396-1.366l-3.246-5.197Zm13.83 13.125c.3.478.122 1.09-.395 1.366-.518.276-1.18.112-1.478-.366-.299-.479-.122-1.09.396-1.366.517-.276 1.18-.113 1.478.366Zm1.234-6.119c.517-.276.695-.887.396-1.366-.299-.478-.96-.642-1.478-.366s-.695.888-.396 1.366c.299.479.96.642 1.478.366Z"/><path d="M15.405 9.527a1 1 0 0 0-1.413.914l.035 10.526a1 1 0 0 0 1.544.835l2.964-1.922 2.876 4.45L25.017 22l-2.88-4.455 2.97-1.925a1 1 0 0 0-.131-1.75l-9.571-4.343Z" class="accent"/></svg>