<svg xmlns="http://www.w3.org/2000/svg" viewBox="0 0 48 48" aria-hidden="true"><path d="M21.366 17.73 17.51 23.7l-3.681 5.505c.655.2 1.246.547 1.736 1l3.612-5.399.01-.014 3.886-6.018a4.5 4.5 0 0 1-1.707-1.044Zm4.303 1.126 7.768 11.362a4.494 4.494 0 0 1 1.734-1.009l-7.723-11.295a4.488 4.488 0 0 1-1.78.942ZM32.12 32.5a4.513 4.513 0 0 0-.003 2h-15.22a4.515 4.515 0 0 0-.003-2h15.227Z"/><path fill-rule="evenodd" clip-rule="evenodd" d="M24.527 19.008a4.5 4.5 0 1 0-.04-9 4.5 4.5 0 0 0 .04 9Zm2.48-4.511a2.5 2.5 0 1 1-5 .022 2.5 2.5 0 0 1 5-.022Zm-9.999 18.991a4.5 4.5 0 1 1-9 .04 4.5 4.5 0 0 1 9-.04Zm-4.49 2.52a2.5 2.5 0 1 0-.021-5 2.5 2.5 0 0 0 .022 5Zm28.49-2.52a4.5 4.5 0 1 1-9 .04 4.5 4.5 0 0 1 9-.04Zm-4.49 2.52a2.5 2.5 0 1 0-.021-5 2.5 2.5 0 0 0 .022 5Z" class="accent"/></svg>