<svg xmlns="http://www.w3.org/2000/svg" viewBox="0 0 48 48" aria-hidden="true"><path d="M11 8a1 1 0 0 0-1 1v10.267c0 .377.337.736.674.906L17 23.09v6.41c0 3.854 2.61 6.506 6.467 6.506 2.824 0 5.695-.003 7.536-.006C32.66 35.997 34 35.156 34 33.504v-2.63a4.01 4.01 0 0 1-2 0v2.63c0 .554-.451.495-1 .496-1.841.003-4.71.007-7.532.006-2.75 0-4.468-1.753-4.468-4.506v-6.397l5.434-2.702A1 1 0 0 0 25 19.5V9c0-.5-.5-1-.813-1H20.5a1 1 0 0 0-1 1c0 .552.448 1.08 1 1.08l2.5-.013v8.805L18 21.5l-6-2.848V10h2.563c.552 0 .937-.448.937-1s-.385-1-.938-1H11Z"/><path fill-rule="evenodd" clip-rule="evenodd" d="M33 25a2 2 0 1 0 0 4 2 2 0 0 0 0-4Zm-4 2a4 4 0 1 1 8 0 4 4 0 0 1-8 0Z" class="accent"/></svg>