<svg xmlns="http://www.w3.org/2000/svg" viewBox="0 0 48 48" aria-hidden="true"><path d="M34.032 24.995c0-.552.434-1 .968-1L36 24c.535 0 1 .443 1 .995s-.465 1-1 1h-1c-.535 0-.968-.448-.968-1Z" class="accent"/><path fill-rule="evenodd" clip-rule="evenodd" d="M33.645 39C36.05 39 38 36.985 38 34.5S36.05 30 33.645 30c-2.405 0-4.355 2.015-4.355 4.5s1.95 4.5 4.355 4.5Zm0-2c1.336 0 2.42-1.12 2.42-2.5S34.98 32 33.645 32c-1.336 0-2.42 1.12-2.42 2.5s1.084 2.5 2.42 2.5ZM16.71 34.5c0 2.485-1.95 4.5-4.355 4.5C9.95 39 8 36.985 8 34.5S9.95 30 12.355 30c2.405 0 4.355 2.015 4.355 4.5Zm-1.936 0c0 1.38-1.083 2.5-2.42 2.5-1.335 0-2.419-1.12-2.419-2.5s1.084-2.5 2.42-2.5c1.336 0 2.42 1.12 2.42 2.5Z" class="accent"/><path d="M7.923 10C6.31 10 5 11.343 5 13v18c0 .724.25 1.389.667 1.907l1.282-2.279V13c0-.552.436-1 .974-1h21.923c.538 0 1.154.448 1.154 1v17.925a4.263 4.263 0 0 1 2-.876V19h3.667c.306 0 .595.148.78.4l3.41 5.167c.126.173.143.383.143.6V31c0 .552-.385 1-.923 1h-2.81c.378.584.628 1.266.706 2h2.104C41.69 34 43 32.657 43 31v-5.833c0-.65-.205-1.281-.585-1.8l-3.41-5.167a2.898 2.898 0 0 0-2.338-1.2H33v-4c0-1.657-1.54-3-3.154-3H7.923Z"/><path d="M30.024 32a4.568 4.568 0 0 0-.707 2H16.683a4.569 4.569 0 0 0-.691-1.976.957.957 0 0 1 .213-.024h13.819Z"/></svg>