<svg xmlns="http://www.w3.org/2000/svg" viewBox="0 0 48 48" aria-hidden="true"><path d="M27.093 33H15.935a.906.906 0 0 1-.661-.293A1.036 1.036 0 0 1 15 32c0-.265.098-.52.274-.707a.906.906 0 0 1 .661-.293h11.13c.248 0 .486.105.661.293.175.187.274.442.274.707 0 .265-.099.52-.274.707a.906.906 0 0 1-.661.293h.028Zm0-8H15.935a.906.906 0 0 1-.661-.293A1.036 1.036 0 0 1 15 24c0-.265.098-.52.274-.707a.906.906 0 0 1 .661-.293h11.13c.248 0 .486.105.661.293.175.187.274.442.274.707 0 .265-.099.52-.274.707a.906.906 0 0 1-.661.293h.028Zm0-8H15.935a.906.906 0 0 1-.661-.293A1.036 1.036 0 0 1 15 16c0-.265.098-.52.274-.707a.906.906 0 0 1 .661-.293h11.13c.248 0 .486.105.661.293.175.187.274.442.274.707 0 .265-.099.52-.274.707a.906.906 0 0 1-.661.293h.028Zm0 12H15.935a.906.906 0 0 1-.661-.293A1.036 1.036 0 0 1 15 28c0-.265.098-.52.274-.707a.906.906 0 0 1 .661-.293h11.13c.248 0 .486.105.661.293.175.187.274.442.274.707 0 .265-.099.52-.274.707a.906.906 0 0 1-.661.293h.028Zm0-8H15.935a.906.906 0 0 1-.661-.293A1.036 1.036 0 0 1 15 20c0-.265.098-.52.274-.707a.906.906 0 0 1 .661-.293h11.13c.248 0 .486.105.661.293.175.187.274.442.274.707 0 .265-.099.52-.274.707a.906.906 0 0 1-.661.293h.028Zm0-8H15.935a.906.906 0 0 1-.661-.293A1.036 1.036 0 0 1 15 12c0-.265.098-.52.274-.707a.906.906 0 0 1 .661-.293h11.13c.248 0 .486.105.661.293.175.187.274.442.274.707 0 .265-.099.52-.274.707a.906.906 0 0 1-.661.293h.028Z" class="accent"/><path d="M34.45 16.38H33V9a3 3 0 0 0-3-3H13a3 3 0 0 0-3 3v26.92a3 3 0 0 0 3 3h18a7 7 0 0 0 7-7V19.87a3.5 3.5 0 0 0-3.55-3.49Zm1.553 15.54c0 1.317-.573 2.632-1.5 3.568A5 5 0 0 1 31 36.97H13a1 1 0 0 1-1-1V9a1 1 0 0 1 1-1h17a1 1 0 0 1 1 1v22.2l2-1.15V18.38h1.503a1.5 1.5 0 0 1 1.057.436c.281.279.44.608.443 1.004v12.1Z"/></svg>