<svg xmlns="http://www.w3.org/2000/svg" viewBox="0 0 48 48" aria-hidden="true"><path d="M23 18.059v-1.246c0-.216.105-.422.293-.575.187-.152.442-.238.707-.238.265 0 .52.086.707.238.188.153.293.36.293.575V18c0-.003 0 .003 0 0 .388.135.785.35 1.097.617.114.1.201.225.253.364a.87.87 0 0 1-.124.84.947.947 0 0 1-.35.282.998.998 0 0 1-.606.131 3.805 3.805 0 0 1-.563-.13s-.63-.115-.899-.115c-.319 0-.747.11-.747.383 0 .274.287.529 1.38.83 1.236.355 2.559.793 2.559 2.398 0 1.27-.774 2.031-2 2.294v1.293a.745.745 0 0 1-.293.575A1.128 1.128 0 0 1 24 28c-.265 0-.52-.086-.707-.238a.745.745 0 0 1-.293-.575v-1.273a3.698 3.698 0 0 1-1.655-.828.96.96 0 0 1-.238-.362.923.923 0 0 1 .095-.829.991.991 0 0 1 .316-.304c.187-.116.488-.166.71-.141a.978.978 0 0 1 .583.277c.157.14.341.247.542.317.2.07.414.103.628.094.728 0 .958-.256.958-.52 0-.424-.495-.557-1.45-.814l-.093-.025C22.131 22.433 21 21.822 21 20.381c.008-.334.088-.663.235-.967.148-.304.36-.575.622-.798A2.593 2.593 0 0 1 23 18.06Z" class="accent"/><path fill-rule="evenodd" clip-rule="evenodd" d="M15 22c0-4.979 4.021-9 9-9 4.883 0 8.904 3.925 9 9 0 4.979-4.021 9-9 9a8.99 8.99 0 0 1-9-9Zm1.915-.096A7.07 7.07 0 0 0 24 28.99c3.83-.095 6.99-3.16 7.085-7.085A7.07 7.07 0 0 0 24 14.82a7.07 7.07 0 0 0-7.085 7.085Z" class="accent"/><path fill-rule="evenodd" clip-rule="evenodd" d="M37 7.94H11c-.552 0-1 .434-1 .97v26.18c0 .536.448.97 1 .97h26c.552 0 1-.434 1-.97V8.91c0-.536-.448-.97-1-.97ZM11 6C9.343 6 8 7.302 8 8.91v26.18C8 36.699 9.343 38 11 38h26c1.657 0 3-1.302 3-2.91V8.91C40 7.301 38.657 6 37 6H11Z"/></svg>