<svg xmlns="http://www.w3.org/2000/svg" viewBox="0 0 48 48" aria-hidden="true"><path d="M33 38.41v-3.054l2.1-1.208v4.362c0 1.994-1.6 3.49-3.5 3.49H16.5c-2 0-3.5-1.596-3.5-3.49V9.49C13 7.496 14.5 6 16.5 6h15c2 0 3.5 1.496 3.5 3.49v8.82a8.97 8.97 0 0 0-2-1.368V9.49c0-.797-.7-1.496-1.4-1.496H16.5c-.8 0-1.5.699-1.5 1.496v28.92c0 .798.7 1.496 1.5 1.496h15c.8 0 1.5-.698 1.5-1.496Z"/><path d="M28 9.989h-8c-.6 0-1 .399-1 .997s.4.997 1 .997h8c.6 0 1-.399 1-.997s-.4-.997-1-.997Zm-2.5 26.427c0 .826-.672 1.495-1.5 1.495s-1.5-.67-1.5-1.495c0-.827.672-1.496 1.5-1.496s1.5.67 1.5 1.495Z"/><path d="M28 19.813v1.246a2.593 2.593 0 0 0-1.143.557 2.448 2.448 0 0 0-.622.798 2.337 2.337 0 0 0-.235.967c0 1.44 1.131 2.052 2.396 2.398l.093.025c.955.257 1.45.39 1.45.814 0 .264-.23.52-.958.52a1.684 1.684 0 0 1-.628-.094 1.622 1.622 0 0 1-.542-.317.977.977 0 0 0-.582-.277c-.223-.025-.524.025-.711.14a.989.989 0 0 0-.316.305.934.934 0 0 0-.095.829.96.96 0 0 0 .238.362 3.7 3.7 0 0 0 1.655.828v1.273c0 .216.105.422.293.575.187.152.442.238.707.238.265 0 .52-.086.707-.238a.745.745 0 0 0 .293-.575v-1.293c1.226-.263 2-1.024 2-2.294 0-1.605-1.323-2.043-2.56-2.398-1.092-.301-1.38-.556-1.38-.83 0-.273.43-.383.748-.383.27 0 .9.114.9.114s.35.11.562.131a.998.998 0 0 0 .606-.13.947.947 0 0 0 .35-.284.87.87 0 0 0 .125-.84.91.91 0 0 0-.254-.363A3.483 3.483 0 0 0 30 21v-1.187a.745.745 0 0 0-.293-.575A1.127 1.127 0 0 0 29 19c-.265 0-.52.086-.707.238a.745.745 0 0 0-.293.575Z" class="accent"/><path fill-rule="evenodd" clip-rule="evenodd" d="M29 15.972c-4.979 0-9 4.01-9 8.975s4.021 8.976 9 8.976 9-4.01 9-8.976c-.096-5.06-4.117-8.975-9-8.975Zm0 15.945a7.06 7.06 0 0 1-7.085-7.065A7.06 7.06 0 0 1 29 17.786a7.06 7.06 0 0 1 7.085 7.066c-.096 3.915-3.255 6.97-7.085 7.065Z" class="accent"/></svg>