<svg xmlns="http://www.w3.org/2000/svg" viewBox="0 0 48 48" aria-hidden="true"><path fill-rule="evenodd" clip-rule="evenodd" d="M18.95 11.845a1 1 0 0 1 1.14-.737l12.723 2.206-3 1.5-9.152-1.577a397.673 397.673 0 0 0-1.678 6.918 166.212 166.212 0 0 0-1.265 5.84 43.897 43.897 0 0 0-.382 2.232c-.088.639-.11 1.028-.096 1.196.09 1.077.354 2.48 1.234 3.778.864 1.277 2.388 2.549 5.177 3.269 2.837.732 4.671.472 5.935-.11 1.282-.59 2.125-1.575 2.874-2.606.449-.617.94-1.687 1.439-3.257.493-1.55.973-3.518 1.432-5.875l.192-.981 2.29-1.327-.518 2.69c-.468 2.402-.966 4.45-1.49 6.1-.519 1.63-1.087 2.946-1.728 3.827-.798 1.098-1.89 2.434-3.655 3.246-1.784.821-4.11 1.045-7.27.23-3.209-.829-5.168-2.362-6.334-4.084-1.152-1.7-1.468-3.49-1.572-4.734-.034-.413.022-1.004.109-1.634.09-.66.23-1.46.399-2.339.339-1.76.808-3.878 1.28-5.913a386.565 386.565 0 0 1 1.873-7.687l.043-.171Z"/><path d="M8.611 11.906a1 1 0 0 0-.7 1.157l.033.163a282.602 282.602 0 0 0 .435 2.11c.287 1.374.682 3.229 1.111 5.149.43 1.919.894 3.91 1.322 5.555.214.822.42 1.566.61 2.175.184.587.372 1.116.557 1.465l.014.025.01.018c.54.95 1.024 1.8 1.653 2.493.668.736 1.468 1.27 2.61 1.7l.38.144a9.17 9.17 0 0 1-1.153-2.842 3.892 3.892 0 0 1-.355-.346c-.455-.501-.83-1.143-1.399-2.142-.089-.17-.228-.535-.407-1.11a46.914 46.914 0 0 1-.584-2.083c-.42-1.612-.879-3.578-1.306-5.488a389.406 389.406 0 0 1-1.387-6.48L26.77 8.692l1.223 3.785 2.278.395-1.909-5.726a1 1 0 0 0-1.228-.644L8.61 11.906Z" class="accent"/><path d="M19.662 21.805c.384-1.376 1.95-2.14 3.499-1.708 1.548.433 2.49 1.899 2.106 3.275a2.36 2.36 0 0 1-.723 1.141s-.46-1.472-2.08-1.924c-1.62-.453-2.776.567-2.776.567a2.36 2.36 0 0 1-.026-1.35Zm11.908.643c-1.548-.433-3.115.332-3.5 1.708-.127.454-.109.917.027 1.35 0 0 1.156-1.02 2.776-.567 1.62.453 2.08 1.924 2.08 1.924.34-.3.596-.687.723-1.14.385-1.376-.558-2.843-2.106-3.275Z" class="accent"/><path fill-rule="evenodd" clip-rule="evenodd" d="M44.086 8.026c.506-.085.914.388.914.902v8.084c0 1.5-1 3-3 3-1.588 0-3-1.412-3-3s1.412-3 3-3c.225 0 .5-.079 1 .147v-3.966l-5 .916v6.903c-.002 1.586-.928 3-3 3-1.588 0-3-1.412-3-3 0-1.5 1.287-3 2.875-3 .305 0 .85.048 1.125.136v-4.886a1 1 0 0 1 .836-.986l7.25-1.25ZM43 17.012c0-.483-.517-1-1-1s-1 .517-1 1 .517 1 1 1 1-.517 1-1Zm-8 0c.483 0 1 .517 1 1s-.517 1-1 1-1-.517-1-1 .517-1 1-1Z" class="accent"/></svg>