<svg xmlns="http://www.w3.org/2000/svg" viewBox="0 0 48 48" aria-hidden="true"><path fill-rule="evenodd" clip-rule="evenodd" d="M21.465 8.565C22.402 7.563 23.674 7 25 7s2.598.563 3.535 1.565C29.473 9.567 30 10.925 30 12.343v11.314c0 1.417-.527 2.776-1.465 3.778C27.598 28.437 26.326 29 25 29s-2.598-.563-3.535-1.565C20.527 26.433 20 25.075 20 23.657V12.343c0-1.417.527-2.776 1.465-3.778ZM25 9c-.78 0-1.721.41-2.273 1-.551.59-.727 1.166-.727 2v11.314c0 .834.176 2.097.727 2.686.552.59 1.493 1 2.273 1s1.721-.41 2.273-1c.551-.59.727-1.51.727-2.343V12.343c0-.834-.176-1.754-.727-2.343C26.72 9.41 25.78 9 25 9Z" class="accent"/><path d="M16 19c.552 0 1 .41 1 1v2.748c0 2.268.785 4.649 2.286 6.252 1.499 1.602 3.594 1.998 5.714 2 2.12-.002 4.215-.398 5.714-2 1.5-1.603 2.286-3.984 2.286-6.252V20c0-.59.448-1 1-1s1 .479 1 1.069v2.748c0 2.834-1.054 5.552-2.929 7.557-1.638 1.75-3.786 2.38-6.071 2.626v3.5c0 .052.007.45 0 .5h4c.552 0 1 .341 1 .931 0 .59-.448 1.069-1 1.069H20c-.552 0-1-.478-1-1.069 0-.59.448-.931 1-.931h4c-.007-.05 0-.494 0-.546V33c-2.285-.245-4.433-.876-6.071-2.626C16.054 28.369 15 25.65 15 22.817v-2.748c0-.59.448-1.069 1-1.069Z"/></svg>