<svg xmlns="http://www.w3.org/2000/svg" viewBox="0 0 48 48" aria-hidden="true"><path d="M13 36a1.12 1.12 0 0 1-.707-.241.758.758 0 0 1-.293-.583v-6.352c0-.219.105-.428.293-.583A1.12 1.12 0 0 1 13 28c.265 0 .52.087.707.241a.758.758 0 0 1 .293.583v6.352a.758.758 0 0 1-.293.583A1.118 1.118 0 0 1 13 36Zm19 0a1.12 1.12 0 0 1-.707-.241.758.758 0 0 1-.293-.583v-6.352c0-.219.105-.428.293-.583A1.12 1.12 0 0 1 32 28c.265 0 .52.087.707.241a.758.758 0 0 1 .293.583v6.352a.758.758 0 0 1-.293.583A1.118 1.118 0 0 1 32 36Z" class="accent"/><path fill-rule="evenodd" clip-rule="evenodd" d="M40.086 10.026c.506-.085.914.388.914.902v8.084c0 1.5-1 3-3 3-1.588 0-3-1.412-3-3s1.412-3 3-3c.225 0 .5-.079 1 .148v-3.967l-5 .916v6.903c-.002 1.586-.928 3-3 3-1.588 0-3-1.412-3-3 0-1.5 1.287-3 2.875-3 .305 0 .85.048 1.125.136v-4.886a1 1 0 0 1 .836-.986l7.25-1.25ZM39 19.012c0-.483-.517-1-1-1s-1 .517-1 1 .517 1 1 1 1-.517 1-1Zm-8 0c.483 0 1 .517 1 1s-.517 1-1 1-1-.517-1-1 .517-1 1-1Z" class="accent"/><path d="M33.916 25.204c.056.46.084.927.084 1.396V35a1 1 0 1 0 2 0v-8.4c0-.834-.076-1.66-.224-2.47l-1.86 1.074Zm-4.328-10.179A13.426 13.426 0 0 0 22.5 13a13.45 13.45 0 0 0-9.549 3.986A13.651 13.651 0 0 0 9 26.6V35a1 1 0 1 0 2 0v-8.4c0-3.08 1.213-6.03 3.371-8.205A11.45 11.45 0 0 1 22.5 15c1.775 0 3.508.414 5.072 1.19l2.016-1.165Z"/></svg>