<svg xmlns="http://www.w3.org/2000/svg" viewBox="0 0 48 48" aria-hidden="true"><path d="M18.5 14.77a1 1 0 1 1 1.956.416l-3.77 18.044a1 1 0 0 1-1.956-.416L18.5 14.77Zm10.998 0a1 1 0 0 1 1.956.416l-3.77 18.044a1 1 0 0 1-1.956-.416l3.77-18.044Z" class="accent"/><path d="M13 31a1 1 0 1 1 0-2h18a1 1 0 1 1 0 2H13Zm2-12a1 1 0 0 1 0-2h18a1 1 0 1 1 0 2H15Z" class="accent"/><path fill-rule="evenodd" clip-rule="evenodd" d="M8 12a3 3 0 0 1 3-3h24a3 3 0 0 1 3 3v24a3 3 0 0 1-3 3H11a3 3 0 0 1-3-3V12Zm3-1a1 1 0 0 0-1 1v24a1 1 0 0 0 1 1h24a1 1 0 0 0 1-1V12a1 1 0 0 0-1-1H11Z"/></svg>