<svg xmlns="http://www.w3.org/2000/svg" viewBox="0 0 48 48" aria-hidden="true"><path fill-rule="evenodd" clip-rule="evenodd" d="M10.464 7.464A5 5 0 0 1 14 6h20a5 5 0 0 1 5 5v26h3a1 1 0 1 1 0 2H6a1 1 0 1 1 0-2h3V11a5 5 0 0 1 1.464-3.536ZM11 37V11a3 3 0 0 1 3-3h20a3 3 0 0 1 3 3v26h-8v-5a3 3 0 0 0-3-3h-4a3 3 0 0 0-3 3v5h-8Zm10 0h6v-5a1 1 0 0 0-1-1h-4a1 1 0 0 0-1 1v5Z"/><path fill-rule="evenodd" clip-rule="evenodd" d="M17 14a1 1 0 0 1 1-1h2a1 1 0 1 1 0 2h-2a1 1 0 0 1-1-1Zm10 0a1 1 0 0 1 1-1h2a1 1 0 1 1 0 2h-2a1 1 0 0 1-1-1Zm-10 8a1 1 0 0 1 1-1h2a1 1 0 1 1 0 2h-2a1 1 0 0 1-1-1Zm10 0a1 1 0 0 1 1-1h2a1 1 0 1 1 0 2h-2a1 1 0 0 1-1-1Z" class="accent"/></svg>