<svg xmlns="http://www.w3.org/2000/svg" viewBox="0 0 48 48" aria-hidden="true"><path d="M23.95 35 14 40.69V35h-2a3 3 0 0 1-3-3V16a3 3 0 0 1 3-3h18.996a1.004 1.004 0 1 1 0 2.008L12 15a1 1 0 0 0-1 1v16a1 1 0 0 0 1 1h4v4.25l7.43-4.24H36a1 1 0 0 0 1-1V29a1 1 0 1 1 2 0v3a3 3 0 0 1-3 3H23.95Z"/><path fill-rule="evenodd" clip-rule="evenodd" d="M13 27a1 1 0 0 1 1-1h11a1 1 0 1 1 0 2H14a1 1 0 0 1-1-1Zm0-6a1 1 0 0 1 1-1h14a1 1 0 1 1 0 2H14a1 1 0 0 1-1-1Z" class="accent"/><path d="M30 26h2a6 6 0 0 1 12 0h2a8 8 0 1 0-16 0Z" class="accent"/><path fill-rule="evenodd" clip-rule="evenodd" d="M38 17a4 4 0 1 0 0-8 4 4 0 0 0 0 8Zm0-2a2 2 0 1 0 0-4 2 2 0 0 0 0 4Z" class="accent"/></svg>