<svg xmlns="http://www.w3.org/2000/svg" viewBox="0 0 48 48" aria-hidden="true"><path fill-rule="evenodd" clip-rule="evenodd" d="M21.053 14.197c-.755.136-1.225.319-1.424.462-.482.348-1.132.473-1.453-.048-.32-.52-.19-1.224.29-1.571.587-.423 1.427-.665 2.243-.812.854-.154 1.83-.228 2.791-.228.962 0 1.937.074 2.791.228.816.147 1.656.39 2.242.812.482.347.612 1.05.291 1.571-.321.52-.971.396-1.453.048-.2-.143-.669-.326-1.424-.462A14.218 14.218 0 0 0 23.5 14c-.872 0-1.73.068-2.447.197Z" class="accent"/><path d="M15 20a1 1 0 1 0-2 0v3a1 1 0 1 0 2 0v-3Z"/><path fill-rule="evenodd" clip-rule="evenodd" d="M11.698 13.877c4.855-5.816 13.32-7.505 20.133-3.623 4.622 2.633 7.632 7.216 8.17 12.127v.002l.061.066c.06.06.15.145.267.23.238.173.537.31.877.31.34 0 .638-.137.877-.31a2.062 2.062 0 0 0 .327-.296l.008-.01A1 1 0 0 1 44 23.597l-.216.245c-.122.127-.3.292-.529.457-.453.328-1.155.69-2.05.69-.419 0-.795-.08-1.124-.198A15.884 15.884 0 0 1 38 32c-.775 1.36-1.926 2.574-3.001 3.61V39a1 1 0 0 1-1 1h-6a1 1 0 0 1-1-1v-2h-4v2a1 1 0 0 1-1 1h-6a1 1 0 0 1-1-1v-2.334c-1.434-.709-2.765-2.08-3.995-3.666H7a1 1 0 0 1-1-1v-8a1 1 0 0 1 1-1h1.504c.018-1.605.135-3.233.861-4.929L7.152 14.53a1 1 0 0 1 1.086-1.501l3.46.848Zm19.143-1.885c-6.13-3.493-13.792-1.83-17.968 3.616a1 1 0 0 1-1.031.363l-1.69-.414 1.196 1.913a1 1 0 0 1 .046.977c-.88 1.761-.894 3.417-.894 5.553a1 1 0 0 1-1 1H8v6h3.5a1 1 0 0 1 .8.4c1.495 1.993 2.835 3.258 4.016 3.651A1 1 0 0 1 17 36v2h4v-2a1 1 0 0 1 1-1h6a1 1 0 0 1 1 1v2h4v-2.824a1 1 0 0 1 .327-.74c1.056-.961 2.189-2.115 2.936-3.426 3.814-6.695 1.273-15.204-5.422-19.018Z"/><path d="m43.784 23.842.215-.244-.001.001-.002.003-.006.008-.015.018a3.417 3.417 0 0 1-.191.214Z"/></svg>