<svg xmlns="http://www.w3.org/2000/svg" viewBox="0 0 48 48" aria-hidden="true"><path fill-rule="evenodd" clip-rule="evenodd" d="M24 10a9.692 9.692 0 0 0-6.904 2.913C15.24 14.796 14 17.297 14 20c0 1.748.793 4.32 1.788 6.4.989 2.068 2.317 4.138 3.66 5.99a65.257 65.257 0 0 0 4.545 5.565 65.285 65.285 0 0 0 4.546-5.566c1.343-1.85 2.67-3.921 3.66-5.99C33.193 24.32 34 21.822 34 20.074c0-2.703-1.24-5.277-3.096-7.16A9.692 9.692 0 0 0 24 10Zm0 30-.813-.333-.002-.002-.007-.008-.026-.026a29.023 29.023 0 0 1-.45-.476 67.29 67.29 0 0 1-5.065-6.149c-1.384-1.908-2.784-4.084-3.84-6.293-1.052-2.199-1.797-4.5-1.797-6.64 0-3.171 1.24-6.23 3.476-8.5A11.964 11.964 0 0 1 24 8c3.22 0 6.284 1.3 8.523 3.573a12.111 12.111 0 0 1 3.477 8.5c0 2.14-.745 4.441-1.796 6.64-1.057 2.21-2.457 4.385-3.841 6.294a67.29 67.29 0 0 1-5.42 6.525l-.096.1-.025.026-.007.007-.002.002L24 40Zm0 0 .812-.332A1.137 1.137 0 0 1 24 40c-.31 0-.606-.121-.813-.333L24 40Z"/><path fill-rule="evenodd" clip-rule="evenodd" d="M24 19a2 2 0 1 0 0-4 2 2 0 0 0 0 4Zm0 2a4 4 0 1 0 0-8 4 4 0 0 0 0 8Z" class="accent"/></svg>