<svg xmlns="http://www.w3.org/2000/svg" viewBox="0 0 48 48" aria-hidden="true"><path d="M17.6 39h1.6l-1.7-2.8c.9-.4 1.5-1.2 1.5-2.2 0-1.4-1.1-2.5-2.5-2.5h-3V39H15v-2.6h1l1.6 2.6Zm-2.7-6.1h1.5c.6 0 1 .5 1 1.1 0 .6-.5 1.1-1 1.1h-1.5v-2.2Zm9.7 6.3c1.4 0 2.6-.7 3.2-1.8l-1.3-.7c-.4.7-1.1 1.1-2 1.1-1.5 0-2.4-1-2.4-2.5s1-2.5 2.4-2.5c.9 0 1.6.4 2 1.1l1.3-.7c-.6-1.1-1.9-1.8-3.2-1.8-2.3 0-3.9 1.7-3.9 3.9 0 2.1 1.6 3.9 3.9 3.9Zm7.8 0c1.6 0 2.7-.9 2.7-2.3 0-1.5-1.3-1.9-2.5-2.3-1.1-.3-1.4-.6-1.4-1.1 0-.4.4-.8 1-.8.8 0 1.2.4 1.4 1l1.2-.7c-.5-1.1-1.5-1.7-2.7-1.7-1.3 0-2.5.8-2.5 2.2 0 1.4 1.1 1.9 2.3 2.2 1.1.3 1.6.5 1.6 1.1 0 .4-.3.8-1.2.8-.9 0-1.5-.5-1.7-1.1l-1.3.7c.5 1.2 1.5 2 3.1 2Z"/><path class="accent" d="M16.6 18.3c.6 0 1-.4 1-1s-.4-1-1-1-1 .4-1 1 .5 1 1 1Zm3.3 0c.6 0 1-.4 1-1s-.4-1-1-1-1 .4-1 1 .5 1 1 1Z"/><path fill-rule="evenodd" clip-rule="evenodd" d="m27 19 6.6 3.9V19h1.3c.5 0 1-.2 1.4-.6.4-.4.6-.9.6-1.4V8.3c0-.5-.2-1-.6-1.4-.4-.4-.9-.6-1.4-.6H22.3c-.5 0-1 .2-1.4.6-.4.4-.6.9-.6 1.4V11h-6.7c-.5 0-1 .2-1.4.6-.4.4-.6.9-.6 1.4v8.7c0 .5.2 1 .6 1.4.4.4.9.6 1.4.6h1.3v3.8l6.7-3.8h4.7c.5 0 1-.2 1.4-.6.4-.4.6-.9.6-1.4v-.4l-1.3-.8v1.2c0 .2-.1.3-.2.5s-.3.2-.5.2h-5.1l-4.9 2.8v-2.8h-2.7c-.2 0-.3-.1-.5-.2s-.2-.3-.2-.5V13c0-.2.1-.3.2-.5.1-.1.3-.2.5-.2h6.7V17c0 .5.2 1 .6 1.4.4.4.9.6 1.4.6H27ZM21.8 7.9c.1-.1.3-.2.5-.2H35c.2 0 .3.1.5.2.1.1.2.3.2.5V17c0 .2-.1.3-.2.5-.1.1-.3.2-.5.2h-2.7v2.9l-5-2.9h-5c-.2 0-.3-.1-.5-.2s-.2-.3-.2-.5V8.3c0-.1.1-.3.2-.4Z"/><path class="accent" d="m30.7 12.4-.8-.5-.8-.5-1.6-.9c-.2-.2-.6.1-.6.3v3.7c0 .3.3.5.6.3l1.6-.9.8-.5.8-.5c.3-.2.2-.3 0-.5Z"/></svg>