<svg xmlns="http://www.w3.org/2000/svg" viewBox="0 0 48 48" aria-hidden="true"><path d="M40.021 35.285h-1.998c.57-.71 1.093-1.473 1.563-2.286 4.97-8.608 2.02-19.615-6.587-24.585-6.17-3.561-13.57-3.056-19.098.684l1.368 1.368c4.911-3.163 11.376-3.533 16.782-.411 7.702 4.446 10.34 14.294 5.894 21.996a16.193 16.193 0 0 1-1.631 2.33v-2.803a.947.947 0 1 0-1.895 0v4.654c0 .523.425.947.948.947h4.654a.947.947 0 0 0 0-1.894Zm-7.489 2.375c-4.886 3.046-11.25 3.365-16.583.285C8.247 33.5 5.609 23.651 10.055 15.95c.461-.8.98-1.544 1.55-2.232v2.624a.947.947 0 1 0 1.894 0v-4.655a.947.947 0 0 0-.947-.947H7.897a.947.947 0 1 0 0 1.894h2.146a18.122 18.122 0 0 0-1.629 2.369c-4.97 8.607-2.02 19.614 6.588 24.584 6.096 3.52 13.395 3.067 18.901-.554l-1.371-1.372Z" class="accent"/><path fill-rule="evenodd" clip-rule="evenodd" d="M25.003 13.003a1 1 0 1 0-2 0v3h-1.5a4.5 4.5 0 1 0 0 9h1.5v5h-5a1 1 0 1 0 0 2h5v3a1 1 0 1 0 2 0v-3h1.5a4.5 4.5 0 0 0 0-9h-1.5v-5h4a1 1 0 1 0 0-2h-4v-3Zm-2 5h-1.5a2.5 2.5 0 1 0 0 5h1.5v-5Zm2 7v5h1.5a2.5 2.5 0 1 0 0-5h-1.5Z"/></svg>