<svg xmlns="http://www.w3.org/2000/svg" viewBox="0 0 48 48" aria-hidden="true"><path class="accent" d="M29.7 14.2H18.8c-.2 0-.4-.1-.5-.2-.1-.1-.2-.3-.2-.5s.1-.4.2-.5c.1-.1.3-.2.5-.2h10.9c.2 0 .4.1.5.2.1.1.2.3.2.5s-.1.4-.2.5c-.1.1-.3.2-.5.2Zm0 4.1H18.8c-.2 0-.4-.1-.5-.2-.1-.1-.2-.3-.2-.5s.1-.4.2-.5c.1-.1.3-.2.5-.2h10.9c.2 0 .4.1.5.2.1.1.2.3.2.5s-.1.4-.2.5c-.1.1-.3.2-.5.2Z"/><path d="m17.4 27.1 6.8-4.1h8.2c.5 0 1.1-.2 1.5-.6.4-.4.6-.7.6-1.3v-11c0-.5-.2-1.1-.6-1.5-.4-.4-.9-.6-1.4-.6H16.1c-.5 0-1.1.2-1.5.6-.4.4-.6.9-.6 1.5v11.1c0 .5.2 1.1.6 1.5.4.3.8.3 1.4.3h1.4v4.1ZM32.5 9.4c.2 0 .4.1.5.2.1.1.2.5.2.7V21c0 .2-.1.4-.2.5-.1.1-.3.2-.5.2h-8.6l-5.1 3.1v-3.1h-2.7c-.2 0-.4-.1-.5-.2-.1-.1-.2-.3-.2-.5V10.2c0-.2.1-.5.2-.7.1-.1.3-.2.5-.2l16.4.1ZM14.3 39.2c1.6 0 2.8-.9 2.8-2.3 0-1.6-1.3-2-2.5-2.4-1.2-.4-1.5-.6-1.5-1.1 0-.4.4-.8 1-.8.8 0 1.2.4 1.5 1l1.3-.7c-.5-1.1-1.5-1.7-2.8-1.7-1.3 0-2.5.8-2.5 2.3 0 1.5 1.1 2 2.3 2.3 1.1.3 1.7.6 1.7 1.1 0 .4-.3.8-1.2.8-1 0-1.5-.5-1.8-1.2l-1.3.8c.4 1.1 1.5 1.9 3 1.9Zm12.4-7.9h-1.6l-2.2 3.6-2.2-3.6h-1.6V39h1.5v-5l2.2 3.6h.2l2.2-3.6v5h1.5v-7.7Zm5.1 7.9c1.6 0 2.8-.9 2.8-2.3 0-1.6-1.3-2-2.5-2.4-1.2-.4-1.5-.6-1.5-1.1 0-.4.4-.8 1-.8.8 0 1.2.4 1.5 1l1.3-.7c-.5-1.1-1.5-1.7-2.8-1.7-1.3 0-2.5.8-2.5 2.3 0 1.5 1.1 2 2.3 2.3 1.1.3 1.7.6 1.7 1.1 0 .4-.3.8-1.2.8-1 0-1.5-.5-1.8-1.2l-1.3.8c.3 1.1 1.4 1.9 3 1.9Z"/></svg>