<svg xmlns="http://www.w3.org/2000/svg" viewBox="0 0 48 48" aria-hidden="true"><path fill-rule="evenodd" clip-rule="evenodd" d="M23.5 19a1 1 0 0 1 .95.69l7.5 23a1 1 0 0 1-1.9.62l-2.564-7.86-9.68 5.24-.855 2.62a1 1 0 0 1-1.902-.62l7.5-23A1 1 0 0 1 23.5 19Zm-4.794 18.928 6.574-3.558-5.027-1.185-1.547 4.743Zm3.72-6.286 4.137.976-.875-2.683-3.262 1.707Zm2.633-3.636-1.559-4.78-2.2 6.749 3.759-1.969Z"/><path d="M35.556 23.575a13.5 13.5 0 1 0-18.21 5.94l.589-1.843a11.595 11.595 0 1 1 11.24-.06l.594 1.844a13.5 13.5 0 0 0 5.787-5.881Z" class="accent"/><path d="M28.552 25.68a9.5 9.5 0 1 0-10 .064l.628-1.966a7.511 7.511 0 1 1 8.737-.069l.635 1.97Z" class="accent"/><path d="M27.221 21.55a5.5 5.5 0 1 0-7.354.08l.494-1.547.191-.706a3.496 3.496 0 0 1 .916-4.72 3.494 3.494 0 0 1 5.032 4.635l.039.142.682 2.116Z" class="accent"/></svg>