<svg xmlns="http://www.w3.org/2000/svg" viewBox="0 0 48 48" aria-hidden="true"><path fill-rule="evenodd" clip-rule="evenodd" d="M9 6a1 1 0 0 1 1 1v31a1 1 0 1 1-2 0V7a1 1 0 0 1 1-1Zm3.068 1a1 1 0 0 1 1-1H39a1 1 0 0 1 1 1v31a1 1 0 0 1-1 1H13.068a1 1 0 0 1-1-1V7Zm2 1v29H38V8H14.068Z"/><path fill-rule="evenodd" clip-rule="evenodd" d="M25.553 16.106a1 1 0 0 1 .894 0l8 4a1 1 0 0 1 0 1.788L31 23.619V28.5a1 1 0 0 1-.445.832C28.98 30.382 27.534 31 26 31c-1.534 0-2.98-.619-4.555-1.668A1 1 0 0 1 21 28.5v-4.882l-2-1V25.5a1 1 0 1 1-2 0V21a1 1 0 0 1 .553-.894l8-4ZM20.236 21 26 23.882 31.764 21 26 18.118 20.236 21ZM23 24.618v3.336c1.205.742 2.137 1.046 3 1.046s1.795-.304 3-1.046v-3.336l-2.553 1.277a1 1 0 0 1-.894 0L23 24.617Z" class="accent"/></svg>