<svg xmlns="http://www.w3.org/2000/svg" viewBox="0 0 48 48" aria-hidden="true"><path class="accent" fill-rule="evenodd" clip-rule="evenodd" d="M24 13a4 4 0 1 0 0 8 4 4 0 0 0 0-8Zm-6 4a6 6 0 1 1 12 0 6 6 0 0 1-12 0Z"/><path fill-rule="evenodd" clip-rule="evenodd" d="M17.724 31.24C16.111 32.705 15 34.929 15 38a1 1 0 1 1-2 0c0-3.596 1.322-6.371 3.378-8.24 2.04-1.854 4.74-2.76 7.425-2.76 5.385 0 10.909 3.675 11.196 10.96a1 1 0 1 1-1.998.08c-.239-6.05-4.715-9.04-9.198-9.04-2.25 0-4.451.76-6.08 2.24Z"/></svg>