<svg xmlns="http://www.w3.org/2000/svg" viewBox="0 0 48 48" aria-hidden="true"><path d="M9.013 16.72A3.039 3.039 0 0 0 9 17v14a3 3 0 0 0 3 3h14.09l-1.977-2H12a1 1 0 0 1-1-1V18.73l-1.987-2.01Z"/><path fill-rule="evenodd" clip-rule="evenodd" d="M28 30.248V17a1 1 0 0 0-1-1H13.92l-1.976-2H27a3 3 0 0 1 3 3v5.455l7.386-6.244A1 1 0 0 1 39 17v14a1 1 0 0 1-1.586.81L30 26.457V31a3 3 0 0 1-.197 1.072L28 30.248Zm9-1.204-6.333-4.574L37 19v10.044Z"/><path fill-rule="evenodd" clip-rule="evenodd" d="M2.303 8.625a.933.933 0 0 1 1.403-.058l31.343 31.564c.405.408.433 1.094.063 1.534a.933.933 0 0 1-1.402.057L2.367 10.158a1.158 1.158 0 0 1-.064-1.533Z" class="accent"/></svg>