<svg xmlns="http://www.w3.org/2000/svg" viewBox="0 0 48 48" aria-hidden="true"><path fill-rule="evenodd" clip-rule="evenodd" d="M12 22a1 1 0 0 0-1 1v14a1 1 0 0 0 1 1h15a1 1 0 0 0 1-1V23a1 1 0 0 0-1-1H12Zm-3 1a3 3 0 0 1 3-3h15a3 3 0 0 1 3 3v5.455l7.386-6.244A1 1 0 0 1 39 23v14a1 1 0 0 1-1.586.81L30 32.457V37a3 3 0 0 1-3 3H12a3 3 0 0 1-3-3V23Zm21.667 7.47L37 35.044v-10l-6.333 5.426Z"/><path d="M15.5 28a1.5 1.5 0 1 0 0-3 1.5 1.5 0 0 0 0 3Zm19.24-6.157a9.008 9.008 0 0 0-7.742-6.788c-.549-.06-.998.393-.998.945 0 .552.45.992.997 1.07a7.003 7.003 0 0 1 5.971 6.26l1.772-1.487Z" class="accent"/><path d="M38.036 19.077c-1.82-4.446-6.033-7.659-11.037-8.04-.55-.041-.999.41-.999.963 0 .552.449.995.999 1.045 4.39.395 8.036 3.37 9.412 7.396l1.625-1.364Z" class="accent"/></svg>