<svg class="sinch-icon" xmlns="http://www.w3.org/2000/svg" viewBox="0 0 48 48" aria-hidden="true" focusable="false"><path id="shape-b" d="M19.4379 29.0266L19.5386 28.9482H25.7058C28.5445 28.9482 30.8431 26.6469 30.8431 23.8101V18.0863C32.178 18.085 33.509 18.0837 34.829 18.0828C36.407 18.0818 37.6862 19.361 37.6862 20.939V29.8928C37.6862 31.4708 36.4067 32.75 34.8287 32.75H34.5494V35.1413C34.5494 35.8512 33.7358 36.2534 33.1718 35.8223L29.1526 32.75H22.2938C20.7158 32.75 19.4379 31.4708 19.4379 29.8928V29.0266Z"/><path id="shape-a" fill-rule="evenodd" clip-rule="evenodd" d="M25.702 12.0096C27.2811 12.0095 28.562 13.2891 28.562 14.8682V23.81C28.562 25.388 27.2838 26.6672 25.7058 26.6672H18.7562L14.8337 29.717C14.2707 30.1548 13.4505 29.7536 13.4505 29.0404V26.6672H13.1712C11.5932 26.6672 10.3137 25.388 10.3137 23.81V14.8562C10.3137 13.2782 11.5929 11.999 13.1709 12C14.712 12.001 16.268 12.0026 17.8279 12.0042C20.4596 12.007 23.1021 12.0097 25.702 12.0096ZM19.4858 20.848C20.2885 20.848 20.9392 20.1973 20.9392 19.3946C20.9392 18.5919 20.2885 17.9412 19.4858 17.9412C18.6831 17.9412 18.0324 18.5919 18.0324 19.3946C18.0324 20.1973 18.6831 20.848 19.4858 20.848ZM14.8451 20.848C15.6478 20.848 16.2985 20.1973 16.2985 19.3946C16.2985 18.5919 15.6478 17.9412 14.8451 17.9412C14.0424 17.9412 13.3917 18.5919 13.3917 19.3946C13.3917 20.1973 14.0424 20.848 14.8451 20.848ZM25.5792 19.3946C25.5792 20.1973 24.9285 20.848 24.1258 20.848C23.3231 20.848 22.6724 20.1973 22.6724 19.3946C22.6724 18.5919 23.3231 17.9412 24.1258 17.9412C24.9285 17.9412 25.5792 18.5919 25.5792 19.3946Z"/></svg>