<svg class="sinch-icon" xmlns="http://www.w3.org/2000/svg" viewBox="0 0 48 48" aria-hidden="true" focusable="false"><path id="shape-a" fill-rule="evenodd" clip-rule="evenodd" d="M9.09998 23.548C9.09998 15.2421 15.6772 9.03766 24.1478 9.03766C32.7181 9.03766 39.2953 15.2421 39.3949 23.6481C39.3949 31.954 32.7181 38.1584 24.2474 38.1584C22.7526 38.1584 21.2578 37.9583 19.8626 37.558C19.5637 37.558 19.3644 37.558 19.0654 37.6581L16.0758 38.959C15.2785 39.2592 14.3817 38.6588 14.3817 37.8582L14.282 35.1563C14.282 34.756 14.0827 34.4558 13.8834 34.2556C10.8938 31.6538 9.09998 27.9511 9.09998 23.548ZM19.5637 20.846L15.0792 27.851C14.6806 28.4515 15.4779 29.252 16.0758 28.7517L20.8592 25.1491C21.1582 24.949 21.6564 24.949 21.9554 25.1491L25.4433 27.751C26.5395 28.5515 28.0343 28.2513 28.7319 27.1505L33.2163 20.1455C33.7146 19.5451 32.8177 18.7446 32.2198 19.2449L27.4364 22.8475C27.1374 23.0476 26.6391 23.0476 26.3402 22.8475L22.8523 20.2456C21.7561 19.4451 20.2613 19.7453 19.5637 20.846Z"/></svg>