<svg class="sinch-icon" xmlns="http://www.w3.org/2000/svg" viewBox="0 0 48 48" aria-hidden="true" focusable="false"><path id="shape-a" d="M34.7 19.682V20.3849C34.7 27.4142 29.4 35.5481 19.6 35.5481C16.7 35.5481 13.9 34.7448 11.5 33.1381C11.9 33.2385 12.3 33.2385 12.8 33.2385C15.2 33.2385 17.5 32.4351 19.4 30.9289C17.1 30.9289 15.1 29.4226 14.5 27.2134C15.3 27.4142 16.1 27.3138 16.9 27.113C14.4 26.6109 12.7 24.4017 12.7 21.8912V21.7908C13.4 22.1925 14.3 22.3933 15.1 22.4937C12.8 20.887 12.1 17.8745 13.5 15.364C16.2 18.6778 20.2 20.6862 24.4 20.887C24 19.0795 24.6 17.0711 25.9 15.7657C28 13.7573 31.4 13.8577 33.4 15.9665C34.6 15.7657 35.7 15.2636 36.8 14.6611C36.4 15.8661 35.6 16.9707 34.5 17.5732C35.5 17.4728 36.6 17.1716 37.5 16.7699C36.6 18.0753 35.7 18.9791 34.7 19.682Z"/></svg>