<svg class="sinch-icon" xmlns="http://www.w3.org/2000/svg" viewBox="0 0 48 48" aria-hidden="true" focusable="false"><path id="shape-a" d="M17.6891 13.5651L15.1769 14.2502C13.7801 14.6312 13.3203 15.3948 13.3728 16.7515C13.7509 26.5127 21.6368 34.3496 31.4179 34.6494C32.7315 34.6897 33.4141 34.1331 33.7419 32.9312L34.4464 30.3478C34.8296 28.9428 34.3967 28.1128 33.1233 27.5822L30.1764 26.3543C28.9265 25.8335 28.1417 26.0982 27.3349 27.0827L26.697 27.8612C26.3091 28.3345 25.6452 28.4888 25.113 28.1866C22.9112 26.9365 21.0814 25.1068 19.831 22.9051C19.5285 22.3725 19.6833 21.7079 20.1576 21.3202L21.0041 20.6282C22.0226 19.7956 22.1312 18.9692 21.6585 17.8346L20.3945 14.8012C19.8679 13.5374 19.1679 13.1618 17.6891 13.5651Z"/></svg>