<svg class="sinch-icon" xmlns="http://www.w3.org/2000/svg" viewBox="0 0 48 48" aria-hidden="true" focusable="false"><path id="shape-b" d="M29.94 30.1C29.3333 29.74 28.84 29.22 28.5 28.5933C27.5133 28.5067 26.6533 27.9267 26.2333 27.0333C26.0067 26.56 25.92 26.04 25.9867 25.52C26.0533 25 26.26 24.5133 26.5867 24.1267L26.7 23.9933C26.7933 23.88 26.8867 23.7867 26.9667 23.7067C26.9667 23.5933 26.98 23.4333 26.98 23.2067C26.98 21.28 27.7733 19.7733 29.2333 18.8933C29.8333 17.9467 30.8533 17.3533 31.98 17.3533V14.7C31.96 13.2133 30.76 12.0133 29.2867 12.0133C25.7733 12.0133 22.18 12 18.6667 12C17.1933 12 16 13.1933 16 14.6667V33.3333C16 34.8067 17.1933 36 18.6667 36H29.2933C30.7667 36 31.96 34.8067 31.96 33.3333V30.66C31.2467 30.66 30.5533 30.4667 29.94 30.1ZM20.9 14.6333C20.9 14.1733 21.28 13.8 21.74 13.8067L26.1933 13.8333C26.6533 13.8333 27.0267 14.2133 27.02 14.6733C27.02 15.1333 26.64 15.5067 26.18 15.5L21.7267 15.4733C21.2667 15.4733 20.8933 15.0933 20.9 14.6333ZM23.9533 34.2267C23.22 34.2267 22.62 33.6267 22.62 32.8933C22.62 32.16 23.22 31.56 23.9533 31.56C24.6867 31.56 25.2867 32.16 25.2867 32.8933C25.2867 33.6267 24.6867 34.2267 23.9533 34.2267Z"/><path id="shape-a" d="M35.7933 25.3867L35.74 25.32L35.6933 25.26C35.5933 25.1333 35.5 25.0533 35.4133 24.98C35.1266 24.72 34.96 24.5733 34.96 23.2C34.96 22.3867 34.7666 21.72 34.38 21.22C34.1 20.8533 33.7133 20.5733 33.2133 20.3667C33.2133 20.3667 33.2 20.36 33.1933 20.3533C33.0133 19.7467 32.52 19.34 31.96 19.34C31.4 19.34 30.9066 19.7467 30.7266 20.3533C30.7266 20.3533 30.7133 20.36 30.7066 20.3667C29.5333 20.8467 28.96 21.78 28.96 23.2C28.96 24.58 28.7933 24.7267 28.5066 24.9867C28.4266 25.06 28.3333 25.14 28.2266 25.2667L28.2133 25.28C28.1866 25.3133 28.1533 25.3533 28.1266 25.3867C28.04 25.4933 27.98 25.6267 27.9666 25.7667C27.9466 25.9067 27.9666 26.0467 28.0333 26.1733C28.16 26.4467 28.4333 26.6133 28.7466 26.6133H35.1733C35.4866 26.6133 35.7533 26.4467 35.8866 26.1733C35.9466 26.0467 35.9733 25.9067 35.9533 25.7667C35.9333 25.6267 35.88 25.4933 35.7933 25.3867Z"/><path id="shape-a" d="M33.6266 27.5067C33.6266 27.5067 33.5933 27.4933 33.58 27.4933H30.3333C30.3333 27.4933 30.3 27.4933 30.2866 27.5067C30.2733 27.5133 30.26 27.5267 30.2533 27.54C30.2466 27.5533 30.24 27.5733 30.24 27.5867C30.24 27.6067 30.24 27.62 30.2533 27.6333C30.42 27.94 30.6666 28.2 30.9666 28.38C31.2666 28.56 31.6133 28.6533 31.96 28.6533C32.3133 28.6533 32.6533 28.56 32.9533 28.38C33.2533 28.2 33.5 27.94 33.6666 27.6333C33.6733 27.62 33.68 27.6 33.68 27.5867C33.68 27.5667 33.68 27.5533 33.6666 27.54C33.66 27.5267 33.6466 27.5133 33.6333 27.5067H33.6266Z"/></svg>