<svg class="sinch-icon" xmlns="http://www.w3.org/2000/svg" viewBox="0 0 48 48" aria-hidden="true" focusable="false"><path id="shape-b" d="M19.5388 28.9482L19.438 29.0266V29.8928C19.438 31.4708 20.716 32.75 22.2939 32.75H29.1528L33.1719 35.8223C33.7359 36.2534 34.5496 35.8512 34.5496 35.1413V32.75H34.8288C36.4068 32.75 37.6863 31.4708 37.6863 29.8928V20.939C37.6863 19.361 36.4071 18.0818 34.8291 18.0828C33.5092 18.0837 32.1782 18.085 30.8432 18.0863V23.8101C30.8432 26.6469 28.5446 28.9482 25.7059 28.9482H19.5388Z"/><path id="shape-a" fill-rule="evenodd" clip-rule="evenodd" d="M28.562 14.8682C28.562 13.2891 27.2811 12.0095 25.702 12.0096C23.1021 12.0097 20.4596 12.007 17.8279 12.0042C16.268 12.0026 14.712 12.001 13.1709 12C11.5929 11.999 10.3137 13.2782 10.3137 14.8562V23.81C10.3137 25.388 11.5932 26.6672 13.1712 26.6672H13.4505V29.0404C13.4505 29.7536 14.2707 30.1548 14.8337 29.717L18.7562 26.6672H25.7058C27.2838 26.6672 28.562 25.388 28.562 23.81V14.8682ZM14.5196 15.9766C13.8897 15.9766 13.3791 16.4872 13.3791 17.1171C13.3791 17.747 13.8897 18.2576 14.5196 18.2576H24.4132C25.0431 18.2576 25.5537 17.747 25.5537 17.1171C25.5537 16.4872 25.0431 15.9766 24.4132 15.9766H14.5196ZM14.5196 20.5342C13.8897 20.5342 13.3791 21.0448 13.3791 21.6747C13.3791 22.3046 13.8897 22.8152 14.5196 22.8152H24.4132C25.0431 22.8152 25.5537 22.3046 25.5537 21.6747C25.5537 21.0448 25.0431 20.5342 24.4132 20.5342H14.5196Z"/></svg>