<svg class="sinch-icon" xmlns="http://www.w3.org/2000/svg" viewBox="0 0 48 48" aria-hidden="true" focusable="false"><path id="shape-b" d="M19.5388 28.9482L19.438 29.0266V29.8928C19.438 31.4708 20.716 32.75 22.2939 32.75H29.1528L33.1719 35.8222C33.7359 36.2534 34.5496 35.8512 34.5496 35.1413V32.75H34.8288C36.4068 32.75 37.6863 31.4708 37.6863 29.8928V20.939C37.6863 19.361 36.4071 18.0818 34.8291 18.0828C33.5092 18.0837 32.1782 18.085 30.8432 18.0863V23.8101C30.8432 26.6469 28.5446 28.9482 25.7059 28.9482H19.5388Z"/><path id="shape-a" fill-rule="evenodd" clip-rule="evenodd" d="M28.562 14.8682C28.562 13.2891 27.2811 12.0095 25.702 12.0096C23.1021 12.0097 20.4596 12.007 17.8279 12.0042C16.268 12.0026 14.712 12.001 13.1709 12C11.5929 11.999 10.3137 13.2782 10.3137 14.8562V23.81C10.3137 25.388 11.5932 26.6672 13.1712 26.6672H13.4505V29.0404C13.4505 29.7536 14.2707 30.1548 14.8337 29.717L18.7562 26.6672H25.7058C27.2838 26.6672 28.562 25.388 28.562 23.81V14.8682ZM25.149 16.5186C25.149 17.3649 24.4629 18.051 23.6166 18.051C22.7703 18.051 22.0843 17.3649 22.0843 16.5186C22.0843 15.6723 22.7703 14.9862 23.6166 14.9862C24.4629 14.9862 25.149 15.6723 25.149 16.5186ZM16.9229 17.7103C17.204 17.7116 17.4659 17.853 17.6211 18.0874L19.0435 20.2348L20.3854 19.045C20.7254 18.7434 21.2435 18.7662 21.5557 19.0964L24.2668 21.963C24.5863 22.3008 24.5714 22.8337 24.2336 23.1533C23.8957 23.4728 23.3628 23.4579 23.0433 23.1201L20.8925 20.8459L19.4355 22.138C19.253 22.2998 19.0094 22.3745 18.7676 22.3428C18.5258 22.3112 18.3096 22.1762 18.1749 21.9729L16.9125 20.0669L14.9236 23.0127C14.6633 23.3981 14.14 23.4996 13.7546 23.2394C13.3692 22.9791 13.2677 22.4558 13.5279 22.0704L16.2213 18.0812C16.3786 17.8482 16.6418 17.7091 16.9229 17.7103Z"/></svg>