<svg class="sinch-icon" viewBox="0 0 303 48" fill="none" xmlns="http://www.w3.org/2000/svg"><path d="M56.165 8.79026C56.6598 9.01069 57.2312 9.12316 57.879 9.12316H57.8925C58.5628 9.12316 59.1296 9.00169 59.5929 8.76327C60.0518 8.52484 60.4027 8.20994 60.6366 7.81406C60.8705 7.41819 60.9875 6.99082 60.9875 6.52747C60.9875 6.00563 60.8795 5.58276 60.6591 5.24986C60.4432 4.91697 60.1508 4.65155 59.7909 4.44911C59.431 4.24668 59.0306 4.07123 58.5942 3.91828C58.1804 3.78332 57.816 3.65736 57.4966 3.5404C57.1772 3.42343 56.9253 3.27498 56.7408 3.10403C56.5564 2.93309 56.4619 2.69916 56.4619 2.40675C56.4619 2.06036 56.5834 1.79944 56.8218 1.6195C57.0602 1.43955 57.3571 1.35408 57.708 1.36308C58.1174 1.36308 58.4368 1.48454 58.6707 1.72296C58.9046 1.96139 59.0216 2.2358 59.0306 2.54621H60.7581C60.7401 2.02437 60.6051 1.57451 60.3487 1.19663C60.0923 0.818745 59.7414 0.526336 59.2915 0.314902C58.8417 0.103468 58.3153 0 57.735 0C57.1547 0 56.6418 0.103468 56.1965 0.310403C55.7511 0.517339 55.4002 0.805249 55.1438 1.17863C54.8874 1.55202 54.7614 1.99738 54.7704 2.51921C54.7704 3.13552 54.9504 3.62587 55.3058 3.99475C55.6612 4.36814 56.183 4.66954 56.8623 4.90347C57.2195 5.02638 57.5603 5.14273 57.8819 5.25252L58.0454 5.30834C58.4143 5.43431 58.7112 5.59625 58.9316 5.79869C59.1521 6.00113 59.2645 6.30253 59.2645 6.64443C59.2645 6.98632 59.1386 7.26074 58.8866 7.46767C58.6347 7.67461 58.2928 7.77807 57.8655 7.77807C57.3706 7.77807 56.9792 7.63862 56.7003 7.35521C56.4214 7.07179 56.273 6.7299 56.255 6.31603H54.5545C54.5635 6.90985 54.7119 7.41369 54.9954 7.83206C55.2788 8.25043 55.6701 8.56983 56.165 8.79026Z" fill="black"/><path d="M64.9058 0.152952V8.9702H66.5163V0.152952H64.9058Z" fill="black"/><path d="M70.7495 8.9702V0.152952H72.3599L76.5032 6.36102V0.152952H78.1137V8.9702H76.5032L72.3599 2.77114V8.9702H70.7495Z" fill="black"/><path d="M84.0518 8.55183C84.6906 8.93422 85.4554 9.12316 86.3461 9.12316V9.11866C87.4033 9.11866 88.2715 8.86224 88.9463 8.3494C89.6211 7.83656 90.0439 7.13028 90.2104 6.22156H88.4334C88.3255 6.67592 88.0915 7.03131 87.7362 7.28773C87.3808 7.53965 86.9084 7.67011 86.3191 7.67011C85.5049 7.67011 84.8661 7.39569 84.4027 6.84687C83.9393 6.29804 83.7099 5.54227 83.7099 4.57507C83.7099 3.60788 83.9393 2.84761 84.4027 2.29428C84.8661 1.74096 85.5049 1.46204 86.3191 1.46204C86.9084 1.46204 87.3808 1.597 87.7362 1.87142C88.0915 2.14583 88.3255 2.52371 88.4334 3.00056H90.2104C90.0439 2.05136 89.6211 1.31809 88.9463 0.791753C88.2715 0.265417 87.4033 0.00449852 86.3461 0.00449852C85.4554 0.00449852 84.6906 0.197938 84.0518 0.584818C83.413 0.971697 82.9182 1.50703 82.5763 2.19532C82.2299 2.8836 82.0589 3.67535 82.0589 4.57507C82.0589 5.47479 82.2299 6.26655 82.5763 6.95033C82.9227 7.63862 83.413 8.16945 84.0518 8.55183Z" fill="black"/><path d="M94.1557 8.9702V0.152952H95.7662V3.81931H99.7204V0.152952H101.331V8.9702H99.7204V5.1284H95.7662V8.9702H94.1557Z" fill="black"/><path fill-rule="evenodd" clip-rule="evenodd" d="M263.173 40.0825C261.495 40.0825 259.992 39.6731 258.674 38.8588C257.356 38.0446 256.312 36.929 255.543 35.5119C254.774 34.0948 254.391 32.4888 254.391 30.6894C254.391 28.89 254.774 27.2885 255.543 25.8849C256.312 24.4813 257.356 23.3792 258.674 22.5739C259.992 21.7687 261.495 21.3683 263.173 21.3683C264.518 21.3683 265.692 21.6202 266.699 22.1241C267.707 22.6279 268.521 23.3342 269.147 24.2474V13.7387H273.753V39.6506H269.65L269.147 37.0954C268.571 37.8872 267.811 38.5844 266.861 39.1827C265.912 39.7811 264.684 40.0825 263.173 40.0825ZM264.144 36.0517C265.633 36.0517 266.848 35.5524 267.797 34.5582C268.746 33.564 269.219 32.2864 269.219 30.7254C269.219 29.1644 268.746 27.8868 267.797 26.8926C266.848 25.8984 265.633 25.399 264.144 25.399C262.655 25.399 261.468 25.8894 260.509 26.8746C259.551 27.8598 259.07 29.1284 259.07 30.6894C259.07 32.2504 259.551 33.5325 260.509 34.5402C261.468 35.5479 262.682 36.0517 264.144 36.0517Z" fill="black"/><path d="M205.667 39.1288C207.084 39.7631 208.712 40.0825 210.561 40.0825C212.482 40.0825 214.102 39.7406 215.42 39.0568C216.738 38.373 217.737 37.4688 218.407 36.3396C219.077 35.2105 219.415 33.9869 219.415 32.6688C219.415 31.1797 219.104 29.9651 218.479 29.0159C217.854 28.0667 217.026 27.3065 215.996 26.7306C214.966 26.1548 213.823 25.651 212.577 25.2191C211.403 24.8367 210.359 24.4768 209.446 24.1394C208.533 23.802 207.813 23.3882 207.286 22.8978C206.76 22.4075 206.495 21.7417 206.495 20.9004C206.495 19.9153 206.837 19.1685 207.52 18.6511C208.204 18.1338 209.05 17.8909 210.058 17.9134C211.232 17.9134 212.149 18.2553 212.811 18.9391C213.472 19.6228 213.814 20.4101 213.836 21.2963H218.767C218.717 19.8073 218.331 18.5252 217.597 17.4455C216.864 16.3659 215.856 15.5246 214.574 14.9263C213.292 14.328 211.785 14.0266 210.13 14.0266C208.474 14.0266 207.012 14.319 205.739 14.9083C204.466 15.4976 203.467 16.3254 202.734 17.3915C202.001 18.4577 201.65 19.7353 201.672 21.2243C201.672 22.9743 202.181 24.3779 203.202 25.435C204.223 26.4922 205.703 27.3559 207.646 28.0262C208.452 28.3009 209.224 28.5634 209.964 28.8152L211.029 29.1779C212.086 29.5378 212.932 30.0056 213.566 30.5814C214.201 31.1572 214.52 32.0075 214.52 32.9927C214.52 33.9779 214.16 34.7606 213.441 35.3499C212.721 35.9393 211.749 36.2317 210.525 36.2317C209.108 36.2317 208.002 35.8313 207.196 35.026C206.391 34.2208 205.968 33.2311 205.919 32.057H201.06C201.083 33.7619 201.506 35.206 202.32 36.3936C203.134 37.5812 204.25 38.4945 205.667 39.1288Z" fill="black"/><path d="M54.658 14.4585V39.6506H59.2646V22.268L66.2824 36.0517H69.9173L76.9351 22.268V39.6506H81.5416V14.4585H76.0713L68.1538 30.4375L60.1283 14.4585H54.658Z" fill="black"/><path fill-rule="evenodd" clip-rule="evenodd" d="M88.4155 38.9308C89.8056 39.7001 91.4026 40.0825 93.202 40.0825C94.6416 40.0825 95.9327 39.8171 97.0708 39.2907C98.2089 38.7644 99.1716 38.0356 99.9499 37.1134C100.728 36.1912 101.286 35.1655 101.623 34.0364H96.9448C96.6344 34.7066 96.1576 35.2555 95.5233 35.6738C94.889 36.0922 94.1017 36.3036 93.166 36.3036C91.9199 36.3036 90.8582 35.9078 89.981 35.116C89.1038 34.3243 88.6179 33.2311 88.5235 31.841H102.091C102.114 31.5306 102.132 31.2292 102.145 30.9413C102.159 30.6534 102.163 30.379 102.163 30.1136C102.163 28.4806 101.785 27.0005 101.03 25.669C100.274 24.3374 99.2256 23.2892 97.8805 22.5199C96.5355 21.7507 94.9879 21.3683 93.238 21.3683C91.3666 21.3683 89.7426 21.7687 88.3615 22.5739C86.9804 23.3792 85.9008 24.4993 85.1225 25.9389C84.3443 27.3784 83.9529 29.0474 83.9529 30.8693C83.9529 32.6913 84.3488 34.3018 85.1405 35.6918C85.9323 37.0819 87.0254 38.1616 88.4155 38.9308ZM90.2509 26.0648C91.1147 25.4305 92.1088 25.1111 93.238 25.1111C94.4121 25.1111 95.3973 25.4575 96.1891 26.1548C96.9808 26.8521 97.4127 27.7878 97.4847 28.9619H88.5954C88.8339 27.6663 89.3872 26.6991 90.2509 26.0648Z" fill="black"/><path d="M111.628 40.0825C110.045 40.0825 108.655 39.826 107.454 39.3087C106.252 38.7914 105.294 38.0806 104.574 37.1674C103.855 36.2542 103.423 35.2015 103.279 34.0004H107.921C108.065 34.6976 108.457 35.2915 109.091 35.7818C109.725 36.2722 110.549 36.5196 111.556 36.5196C112.564 36.5196 113.302 36.3171 113.77 35.9078C114.237 35.4984 114.471 35.0305 114.471 34.5042C114.471 33.7349 114.134 33.2131 113.464 32.9387C112.793 32.6643 111.858 32.3944 110.657 32.1289C109.887 31.9625 109.109 31.7556 108.317 31.5171C107.526 31.2787 106.801 30.9728 106.14 30.5994C105.479 30.226 104.948 29.7492 104.538 29.1599C104.129 28.5706 103.927 27.8463 103.927 26.9826C103.927 25.399 104.556 24.0675 105.816 22.9878C107.076 21.9081 108.844 21.3683 111.124 21.3683C113.234 21.3683 114.921 21.8586 116.181 22.8438C117.44 23.829 118.192 25.1831 118.43 26.9106H114.075C113.81 25.5925 112.816 24.9312 111.088 24.9312C110.225 24.9312 109.559 25.0976 109.091 25.435C108.623 25.7724 108.389 26.1908 108.389 26.6946C108.389 27.1985 108.736 27.6438 109.433 27.9542C110.13 28.2647 111.052 28.5526 112.204 28.818C113.45 29.1059 114.597 29.4253 115.641 29.7717C116.685 30.1181 117.517 30.6354 118.142 31.3192C118.768 32.003 119.078 32.9792 119.078 34.2523C119.1 35.3544 118.813 36.3531 118.214 37.2394C117.616 38.1256 116.752 38.8229 115.623 39.3267C114.494 39.8305 113.162 40.0825 111.628 40.0825Z" fill="black"/><path d="M124.548 39.3087C125.749 39.826 127.139 40.0825 128.723 40.0825C130.257 40.0825 131.589 39.8305 132.718 39.3267C133.847 38.8229 134.711 38.1256 135.309 37.2394C135.907 36.3531 136.195 35.3544 136.173 34.2523C136.173 32.9792 135.862 32.003 135.237 31.3192C134.612 30.6354 133.779 30.1181 132.736 29.7717C131.692 29.4253 130.545 29.1059 129.299 28.818C128.147 28.5526 127.225 28.2647 126.528 27.9542C125.83 27.6438 125.484 27.1985 125.484 26.6946C125.484 26.1908 125.718 25.7724 126.186 25.435C126.654 25.0976 127.319 24.9312 128.183 24.9312C129.911 24.9312 130.905 25.5925 131.17 26.9106H135.525C135.286 25.1831 134.535 23.829 133.276 22.8438C132.016 21.8586 130.329 21.3683 128.219 21.3683C125.938 21.3683 124.17 21.9081 122.911 22.9878C121.651 24.0675 121.021 25.399 121.021 26.9826C121.021 27.8463 121.224 28.5706 121.633 29.1599C122.043 29.7492 122.573 30.226 123.235 30.5994C123.896 30.9728 124.62 31.2787 125.412 31.5171C126.204 31.7556 126.982 31.9625 127.751 32.1289C128.952 32.3944 129.888 32.6643 130.558 32.9387C131.229 33.2131 131.566 33.7349 131.566 34.5042C131.566 35.0305 131.332 35.4984 130.864 35.9078C130.396 36.3171 129.659 36.5196 128.651 36.5196C127.643 36.5196 126.82 36.2722 126.186 35.7818C125.551 35.2915 125.16 34.6976 125.016 34.0004H120.374C120.517 35.2015 120.949 36.2542 121.669 37.1674C122.389 38.0806 123.347 38.7914 124.548 39.3087Z" fill="black"/><path fill-rule="evenodd" clip-rule="evenodd" d="M144.594 40.0825C143.06 40.0825 141.8 39.835 140.815 39.3447C139.83 38.8544 139.101 38.1976 138.62 37.3833C138.138 36.5691 137.9 35.6693 137.9 34.6842C137.9 33.0287 138.548 31.6836 139.843 30.6534C141.139 29.6232 143.082 29.1059 145.674 29.1059H150.208V28.674C150.208 27.4504 149.862 26.5507 149.165 25.9749C148.467 25.399 147.604 25.1111 146.573 25.1111C145.638 25.1111 144.823 25.3316 144.126 25.7769C143.429 26.2223 142.997 26.8746 142.831 27.7383H138.332C138.453 26.4427 138.89 25.3136 139.646 24.3554C140.401 23.3972 141.377 22.6594 142.579 22.1421C143.78 21.6247 145.12 21.3683 146.609 21.3683C149.151 21.3683 151.157 22.0026 152.619 23.2757C154.082 24.5488 154.815 26.3482 154.815 28.674V39.6506H150.892L150.46 36.7715C149.934 37.7297 149.196 38.5215 148.247 39.1468C147.298 39.7721 146.083 40.0825 144.594 40.0825ZM145.638 36.4836C146.956 36.4836 147.981 36.0517 148.715 35.188C149.448 34.3243 149.907 33.2581 150.1 31.985H146.177C144.954 31.985 144.077 32.2054 143.55 32.6508C143.024 33.0961 142.759 33.6405 142.759 34.2883C142.759 34.9856 143.024 35.5254 143.55 35.9078C144.077 36.2901 144.774 36.4836 145.638 36.4836Z" fill="black"/><path fill-rule="evenodd" clip-rule="evenodd" d="M162.552 34.0364C163.295 34.2298 164.1 34.3243 164.964 34.3243C166.453 34.3243 167.739 34.0364 168.832 33.4605C169.926 32.8847 170.758 32.1065 171.334 31.1213C171.909 30.1361 172.197 29.0474 172.197 27.8463C172.197 26.7441 171.959 25.7364 171.478 24.8232L174.537 24.6073V21.8002H167.771C166.907 21.5123 165.971 21.3683 164.964 21.3683C163.43 21.3683 162.121 21.6562 161.041 22.232C159.961 22.8079 159.129 23.5861 158.54 24.5713C157.95 25.5565 157.658 26.6452 157.658 27.8463C157.658 29.7672 158.355 31.3372 159.745 32.5608L156.614 35.8718V36.6995C156.88 36.9649 157.186 37.2169 157.532 37.4553C157.878 37.6937 158.292 37.9231 158.774 38.1391C157.213 39.3132 156.434 40.7078 156.434 42.3138C156.434 44.2077 157.213 45.6292 158.774 46.5784C160.335 47.5277 162.386 48 164.928 48C166.799 48 168.333 47.7076 169.534 47.1183C170.735 46.529 171.622 45.7642 172.197 44.815C172.773 43.8658 173.061 42.8671 173.061 41.8099C173.061 40.2039 172.521 38.9443 171.442 38.0311C170.362 37.1179 168.634 36.5556 166.259 36.3396C164.698 36.1957 163.574 36.0517 162.876 35.9078C162.179 35.7638 161.63 35.5839 161.221 35.3679L162.552 34.0364ZM161.887 43.8433C161.059 43.3979 160.645 42.7321 160.645 41.8459C160.645 41.3646 160.793 40.8967 161.095 40.4424C161.396 39.988 161.891 39.5651 162.588 39.1828C163.43 39.3267 164.338 39.4347 165.324 39.5067C166.714 39.6011 167.645 39.8665 168.113 40.2984C168.581 40.7303 168.814 41.2701 168.814 41.9179C168.814 42.7097 168.455 43.3395 167.735 43.8073C167.015 44.2752 166.129 44.5091 164.928 44.5091C163.727 44.5091 162.714 44.2887 161.887 43.8433ZM167.285 30.0416C166.673 30.5454 165.899 30.7974 164.964 30.7974C163.978 30.7974 163.187 30.5454 162.588 30.0416C161.99 29.5378 161.689 28.818 161.689 27.8823C161.689 26.9466 161.99 26.2268 162.588 25.7229C163.187 25.2191 163.978 24.9672 164.964 24.9672C165.899 24.9672 166.673 25.2191 167.285 25.7229C167.897 26.2268 168.203 26.9466 168.203 27.8823C168.203 28.818 167.897 29.5378 167.285 30.0416Z" fill="black"/><path fill-rule="evenodd" clip-rule="evenodd" d="M184.038 40.0825C182.238 40.0825 180.641 39.7001 179.251 38.9308C177.861 38.1616 176.768 37.0819 175.976 35.6918C175.184 34.3018 174.789 32.6913 174.789 30.8693C174.789 29.0474 175.18 27.3784 175.958 25.9389C176.736 24.4993 177.816 23.3792 179.197 22.5739C180.578 21.7687 182.202 21.3683 184.074 21.3683C185.824 21.3683 187.371 21.7507 188.716 22.5199C190.061 23.2892 191.109 24.3374 191.865 25.669C192.621 27.0005 192.999 28.4806 192.999 30.1136C192.999 30.379 192.994 30.6534 192.981 30.9413C192.967 31.2292 192.949 31.5306 192.927 31.841H179.359C179.454 33.2311 179.939 34.3243 180.817 35.116C181.694 35.9078 182.756 36.3036 184.002 36.3036C184.937 36.3036 185.725 36.0922 186.359 35.6738C186.993 35.2555 187.47 34.7066 187.781 34.0364H192.459C192.122 35.1655 191.564 36.1912 190.786 37.1134C190.007 38.0356 189.045 38.7644 187.906 39.2907C186.768 39.8171 185.477 40.0825 184.038 40.0825ZM184.074 25.1111C182.945 25.1111 181.95 25.4305 181.087 26.0648C180.223 26.6991 179.67 27.6663 179.431 28.9619H188.32C188.248 27.7878 187.817 26.8521 187.025 26.1548C186.233 25.4575 185.248 25.1111 184.074 25.1111Z" fill="black"/><path d="M229.487 39.6506C227.616 39.6506 226.118 39.1962 224.988 38.283C223.859 37.3698 223.297 35.7503 223.297 33.4245V25.651H220.238V21.8002H223.297L223.837 17.0137H227.904V21.8002H232.726V25.651H227.904V33.4605C227.904 34.3243 228.088 34.9181 228.461 35.242C228.835 35.5659 229.474 35.7278 230.387 35.7278H232.618V39.6506H229.487Z" fill="black"/><path d="M236.415 37.9951C237.625 39.3852 239.348 40.0825 241.579 40.0825C242.969 40.0825 244.188 39.7721 245.232 39.1468C246.276 38.5215 247.072 37.6847 247.625 36.6275L247.985 39.6506H252.052V21.8002H247.445V31.0133C247.445 32.6463 247.032 33.9149 246.204 34.8281C245.376 35.7413 244.328 36.1957 243.055 36.1957C241.71 36.1957 240.729 35.7863 240.104 34.9721C239.478 34.1578 239.168 32.9792 239.168 31.4452V21.8002H234.597V31.877C234.597 34.5627 235.205 36.6051 236.415 37.9951Z" fill="black"/><path d="M277.046 18.2733C277.586 18.7771 278.274 19.029 279.116 19.029C279.957 19.029 280.645 18.7771 281.185 18.2733C281.725 17.7694 281.995 17.1351 281.995 16.3659C281.995 15.5966 281.725 14.9668 281.185 14.4765C280.645 13.9861 279.957 13.7387 279.116 13.7387C278.274 13.7387 277.586 13.9861 277.046 14.4765C276.506 14.9668 276.236 15.5966 276.236 16.3659C276.236 17.1351 276.506 17.7694 277.046 18.2733Z" fill="black"/><path fill-rule="evenodd" clip-rule="evenodd" d="M293.007 40.0825C291.28 40.0825 289.728 39.6866 288.347 38.8948C286.966 38.1031 285.877 37.0054 285.072 35.6019C284.266 34.1983 283.866 32.5743 283.866 30.7254C283.866 28.8765 284.275 27.2525 285.09 25.8489C285.904 24.4453 287.002 23.3477 288.383 22.5559C289.764 21.7642 291.316 21.3683 293.043 21.3683C294.771 21.3683 296.287 21.7642 297.668 22.5559C299.049 23.3477 300.137 24.4453 300.943 25.8489C301.748 27.2525 302.148 28.8765 302.148 30.7254C302.148 32.5743 301.748 34.1983 300.943 35.6019C300.137 37.0054 299.04 38.1031 297.65 38.8948C296.26 39.6866 294.712 40.0825 293.007 40.0825ZM293.007 36.0877C294.208 36.0877 295.252 35.6379 296.138 34.7381C297.024 33.8384 297.47 32.5023 297.47 30.7254C297.47 28.9484 297.024 27.6124 296.138 26.7126C295.252 25.8129 294.217 25.3631 293.043 25.3631C291.869 25.3631 290.771 25.8129 289.894 26.7126C289.017 27.6124 288.581 28.9484 288.581 30.7254C288.581 32.5023 289.017 33.8384 289.894 34.7381C290.771 35.6379 291.806 36.0877 293.007 36.0877Z" fill="black"/><path d="M40.5459 23.7569V14.3999C40.5459 7.94887 35.3005 2.7035 28.8495 2.7035H11.6964C5.24536 2.7035 0 7.94887 0 14.3999V23.7569C0 30.2079 5.24536 35.4533 11.6964 35.4533H14.6249L21.8317 42.6601V36.0426L16.5638 30.7748H11.6964C7.82756 30.7748 4.67854 27.6257 4.67854 23.7569V14.3999C4.67854 10.5311 7.82756 7.38205 11.6964 7.38205H28.8495C32.7183 7.38205 35.8673 10.5311 35.8673 14.3999V23.7569C35.8673 27.6257 32.7183 30.7748 28.8495 30.7748H21.8317V35.4533H28.8495C35.3005 35.4533 40.5459 30.2079 40.5459 23.7569Z" fill="black"/><path d="M31.1843 12.0606H9.35259V16.7391H31.1843V12.0606Z" fill="black"/><path d="M276.812 21.8002V39.6506H281.419V21.8002H276.812Z" fill="black"/><path d="M21.8272 21.4177H9.35259V26.0962H21.8272V21.4177Z" fill="black"/></svg>