<svg class="sinch-icon" viewBox="0 0 207 29" fill="none" xmlns="http://www.w3.org/2000/svg"><path d="M18.6856 1.10742C19.2235 0.933532 19.8016 0.971191 20.3136 1.21289L20.3458 1.22949L25.9923 4.49317L31.5362 1.24024L31.5518 1.23242C32.0583 0.987457 32.6332 0.945133 33.17 1.11133C33.7079 1.27865 34.1609 1.63912 34.4444 2.12793C34.7291 2.61681 34.8192 3.19258 34.7013 3.74707C34.5822 4.30149 34.2655 4.78717 33.8077 5.11524L33.7725 5.13672L16.6475 15.1279L16.7647 14.2344C16.8264 13.7619 16.9237 13.2904 17.0557 12.8311L14.794 11.5244C11.65 9.71658 9.33148 9.99286 7.93856 10.543C6.90501 10.9301 6.03353 11.6136 5.41122 12.5234C4.78784 13.4333 4.46334 14.4988 4.46981 15.6045C4.47522 16.7102 4.81421 17.7715 5.44735 18.6738C6.07936 19.5759 6.95811 20.2493 7.98934 20.6211C9.39525 21.1581 11.7193 21.4068 14.8429 19.5596L34.9171 7.68457C37.1758 6.34919 39.5605 5.63531 41.8106 5.6211C43.1017 5.60803 44.3713 5.83392 45.5811 6.29102C47.462 6.98112 49.0681 8.22217 50.2218 9.87891C51.3755 11.5358 51.9882 13.4829 52.0001 15.5117H51.9972C52.0155 17.536 51.4251 19.4902 50.2921 21.1602C49.1579 22.8312 47.5671 24.0916 45.6905 24.8047C42.4631 26.0777 38.6662 25.6281 35.0059 23.5381L32.7423 22.2207C32.2001 22.8035 31.5876 23.3164 30.92 23.7461L30.9054 23.7549L22.0147 29V23.7832L35.3546 15.8916L35.2491 16.7783C35.1885 17.2945 35.0854 17.8087 34.9415 18.3096L37.2032 19.6162C40.3482 21.4228 42.6687 21.1486 44.0616 20.5996C44.8051 20.3131 45.4866 19.8566 46.0352 19.2803C46.585 18.7039 47.0095 17.9983 47.2628 17.2393C47.4359 16.6914 47.5237 16.114 47.5216 15.5313C47.5194 14.4245 47.1849 13.3633 46.5528 12.46C45.9198 11.5579 45.0411 10.8863 44.0098 10.5166C42.6018 9.98071 40.2768 9.73301 37.1544 11.5791L17.1241 23.4297L17.089 23.4522C14.8282 24.7895 12.4441 25.5033 10.1964 25.5176C8.90627 25.5307 7.63403 25.3058 6.42294 24.8486C4.03876 23.9627 2.10993 22.2022 0.995202 19.8936C-0.119317 17.585 -0.304254 14.9668 0.472741 12.5205C0.931635 11.125 1.70404 9.82845 2.70516 8.76758C3.70629 7.70671 4.95179 6.86712 6.30575 6.33887C9.55256 5.05725 13.3492 5.5069 16.9942 7.60449L19.255 8.9209C19.7983 8.338 20.4122 7.82531 21.0821 7.39551L21.0919 7.38867L21.5645 7.10645L18.1202 5.13477C17.6516 4.81651 17.3214 4.33379 17.1915 3.7793C17.0607 3.22388 17.143 2.64483 17.421 2.14844C17.6991 1.65191 18.1477 1.28132 18.6856 1.10742Z" fill="black"/><path d="M81.5488 1.17578C83.3351 1.17582 84.895 1.49017 86.2285 2.11914C87.587 2.72297 88.6565 3.60346 89.4365 4.76074C90.2416 5.91812 90.6564 7.27701 90.6816 8.83691H85.2471C85.222 8.25821 85.0456 7.71709 84.7188 7.21387C84.4169 6.68556 83.9889 6.27063 83.4355 5.96875C82.882 5.64163 82.2274 5.47754 81.4727 5.47754C80.8184 5.45247 80.2147 5.55291 79.6611 5.7793C79.1329 6.00575 78.705 6.34592 78.3779 6.79883C78.0761 7.22653 77.9248 7.76778 77.9248 8.42187C77.9249 9.05073 78.0761 9.57918 78.3779 10.0068C78.7049 10.4346 79.1457 10.8116 79.6992 11.1387C80.2527 11.4406 80.9072 11.7301 81.6621 12.0068C82.417 12.2584 83.2346 12.5231 84.1152 12.7998C85.4234 13.2527 86.6315 13.7939 87.7383 14.4229C88.8452 15.0267 89.7258 15.8188 90.3799 16.7998C91.0341 17.7811 91.3613 19.0771 91.3613 20.6875C91.3613 22.0713 90.9963 23.3545 90.2666 24.5371C89.537 25.7195 88.4804 26.6756 87.0967 27.4053C85.7379 28.1349 84.0389 28.5 82.001 28.5C80.0889 28.5 78.3778 28.1727 76.8682 27.5186C75.384 26.8643 74.2018 25.9082 73.3213 24.6504C72.4659 23.3926 72.0253 21.8702 72 20.084H77.3965C77.4216 20.8638 77.6236 21.5684 78.001 22.1973C78.3783 22.8261 78.8936 23.3296 79.5479 23.707C80.2272 24.0594 81.033 24.2354 81.9639 24.2354C82.7688 24.2353 83.4605 24.1089 84.0391 23.8574C84.6431 23.5807 85.1087 23.2037 85.4355 22.7256C85.7627 22.2476 85.9267 21.6814 85.9268 21.0273C85.9268 20.2727 85.7375 19.6438 85.3604 19.1406C85.0082 18.6374 84.5046 18.2086 83.8506 17.8564C83.2215 17.5043 82.4794 17.1898 81.624 16.9131C80.7938 16.6111 79.9125 16.2967 78.9814 15.9697C76.8934 15.2904 75.2954 14.3851 74.1885 13.2529C73.1066 12.1208 72.5665 10.6234 72.5664 8.76172C72.5664 7.17667 72.9436 5.81774 73.6982 4.68555C74.4783 3.55331 75.5476 2.68494 76.9062 2.08105C78.2651 1.47723 79.8126 1.17578 81.5488 1.17578Z" fill="black"/><path d="M133.078 8.57227C135.518 8.57231 137.569 9.21399 139.229 10.4971C140.89 11.7803 141.947 13.542 142.4 15.7812H137.003C136.776 14.9007 136.298 14.2083 135.568 13.7051C134.864 13.202 134.021 12.9502 133.04 12.9502C132.159 12.9502 131.367 13.177 130.662 13.6299C129.983 14.0576 129.441 14.6993 129.039 15.5547C128.662 16.3849 128.474 17.3789 128.474 18.5361C128.474 19.4168 128.586 20.2095 128.812 20.9141C129.039 21.5933 129.354 22.1843 129.757 22.6875C130.159 23.1654 130.637 23.5307 131.19 23.7822C131.769 24.0339 132.386 24.1592 133.04 24.1592C133.694 24.1592 134.285 24.0458 134.813 23.8193C135.367 23.5928 135.833 23.2786 136.21 22.876C136.587 22.4482 136.852 21.9329 137.003 21.3291H142.4C141.947 23.518 140.878 25.2669 139.192 26.5752C137.532 27.8584 135.493 28.5 133.078 28.5C131.166 28.5 129.467 28.0722 127.982 27.2168C126.498 26.3614 125.341 25.1913 124.511 23.707C123.68 22.2226 123.265 20.5235 123.265 18.6113C123.265 16.6489 123.68 14.9258 124.511 13.4414C125.341 11.9319 126.498 10.749 127.982 9.89355C129.467 9.01295 131.166 8.57227 133.078 8.57227Z" fill="black"/><path d="M180.192 28.0693H177V1.46875H180.192V28.0693Z" fill="black"/><path fill-rule="evenodd" clip-rule="evenodd" d="M192.481 1.46875C197.168 1.46875 200.614 2.65968 202.818 5.04102C205.048 7.42226 206.162 10.6903 206.162 14.8447C206.162 18.9233 205.048 22.1538 202.818 24.5352C200.614 26.8912 197.168 28.0693 192.481 28.0693H184.312V1.46875H192.481ZM187.504 25.4092H192.406C194.99 25.4091 197.042 24.9911 198.562 24.1553C200.107 23.2939 201.21 22.0775 201.868 20.5068C202.527 18.9109 202.855 17.0233 202.855 14.8447C202.855 12.6157 202.527 10.7033 201.868 9.10742C201.21 7.51142 200.107 6.28223 198.562 5.4209C197.042 4.55975 194.99 4.12894 192.406 4.12891H187.504V25.4092Z" fill="black"/><path d="M99.4219 28.0469H94.3262V9.02539H99.4219V28.0469Z" fill="black"/><path d="M113.578 8.57227C115.163 8.57227 116.497 8.89952 117.579 9.55371C118.661 10.2079 119.479 11.1639 120.032 12.4219C120.611 13.6799 120.9 15.2277 120.9 17.0645V28.0469H115.843V17.5547C115.843 16.0452 115.516 14.8881 114.861 14.083C114.232 13.2779 113.251 12.875 111.918 12.875C111.062 12.875 110.295 13.076 109.615 13.4785C108.961 13.8811 108.446 14.4602 108.068 15.2148C107.691 15.9446 107.502 16.8376 107.502 17.8945V28.0469H102.407V9.02539H106.898L107.275 12.1201C107.854 11.0635 108.672 10.2079 109.729 9.55371C110.81 8.89959 112.094 8.57233 113.578 8.57227Z" fill="black"/><path d="M149.949 11.8564C150.578 10.8752 151.408 10.0823 152.44 9.47852C153.496 8.87463 154.718 8.57324 156.101 8.57324C157.686 8.57326 159.019 8.91259 160.101 9.5918C161.184 10.246 162.001 11.202 162.555 12.46C163.108 13.7179 163.385 15.2779 163.385 17.1396V28.0469H158.328V17.5928C158.328 16.0835 158.013 14.9262 157.385 14.1211C156.755 13.2908 155.761 12.875 154.402 12.875C153.571 12.875 152.817 13.0769 152.138 13.4795C151.458 13.882 150.918 14.473 150.515 15.2529C150.138 16.0077 149.949 16.914 149.949 17.9707V28.0469H144.854V0.874023H149.949V11.8564Z" fill="black"/><path d="M96.8926 0.68457C97.8234 0.68457 98.5784 0.961178 99.1572 1.51465C99.7611 2.04301 100.063 2.72248 100.063 3.55273C100.063 4.38303 99.7611 5.07538 99.1572 5.62891C98.5784 6.15723 97.8234 6.4209 96.8926 6.4209C95.9868 6.42087 95.2318 6.15727 94.6279 5.62891C94.0492 5.07539 93.7598 4.383 93.7598 3.55273C93.7598 2.72252 94.0492 2.043 94.6279 1.51465C95.2318 0.961152 95.9868 0.684601 96.8926 0.68457Z" fill="black"/></svg>