<svg class="sinch-icon" viewBox="0 0 49 49" fill="none" xmlns="http://www.w3.org/2000/svg"><path d="M23.9975 27.4743C25.8901 27.4743 27.4243 25.9401 27.4243 24.0475C27.4243 22.1549 25.8901 20.6207 23.9975 20.6207C22.105 20.6207 20.5707 22.1549 20.5707 24.0475C20.5707 25.9401 22.105 27.4743 23.9975 27.4743Z"/><path d="M40.281 26.6189C38.8619 26.6189 37.7097 25.4667 37.7097 24.0475C37.7097 16.472 31.5681 10.3354 23.9975 10.3354C16.4269 10.3354 10.2854 16.4769 10.2854 24.0475C10.2854 31.6181 16.4269 37.7597 23.9975 37.7597C29.2292 37.7597 33.7785 34.8323 36.0878 30.5204C39.0745 32.4588 43.1145 32.1176 45.7352 29.4968C47.2434 27.9886 47.9951 26.0156 47.9951 24.0426C47.9951 10.7903 37.2498 0.0450439 23.9975 0.0450439C10.7452 0.0450439 0 10.7952 0 24.0475C0 37.2998 10.7452 48.045 23.9975 48.045C30.6237 48.045 36.6268 45.36 40.9684 41.0134L37.3339 37.3789C33.9219 40.7909 29.2094 42.9024 24.0025 42.9024C13.5885 42.9024 5.14763 34.4614 5.14763 24.0475C5.14763 13.6336 13.5836 5.19267 23.9975 5.19267C34.4115 5.19267 42.8524 13.6336 42.8524 24.0475C42.8524 25.4667 41.7002 26.6189 40.281 26.6189ZM23.9975 32.617C19.2653 32.617 15.428 28.7798 15.428 24.0475C15.428 19.3153 19.2653 15.478 23.9975 15.478C28.7298 15.478 32.567 19.3153 32.567 24.0475C32.567 28.7798 28.7298 32.617 23.9975 32.617Z"/></svg>