<svg class="sinch-icon" viewBox="0 0 48 49" fill="none" xmlns="http://www.w3.org/2000/svg"><path d="M37.2009 7.86456H36.1279C35.2747 3.42346 31.1971 0.0450134 26.3134 0.0450134H9.98202C4.48065 0.0450134 0 4.33574 0 9.60391V20.03C0 24.7067 3.52799 28.6064 8.16568 29.4285V30.456C8.16568 35.7242 12.6411 40.0149 18.1477 40.0149H25.188L33.5735 48.045V40.6716L27.444 34.8019H18.1529C15.6509 34.8019 13.6147 32.852 13.6147 30.456V29.5889H36.2954V13.0826H37.2009C39.703 13.0826 41.7392 15.0325 41.7392 17.4285V34.8069H35.1543L40.5981 40.02H47.183V17.4285C47.183 12.1603 42.7075 7.86958 37.2009 7.86958V7.86456ZM30.8516 24.3708H9.98202C7.47997 24.3708 5.44378 22.421 5.44378 20.025V9.5989C5.44378 7.20291 7.47997 5.25303 9.98202 5.25303H26.3134C28.8154 5.25303 30.8516 7.20291 30.8516 9.5989V24.3708Z" fill="black"/></svg>