<svg viewBox="0 0 278 48" fill="none" xmlns="http://www.w3.org/2000/svg"><path d="M73.4053 11.6915C73.8371 11.8843 74.3356 11.9827 74.9009 11.9827H74.9126C75.4975 11.9827 75.9921 11.8765 76.3964 11.6678C76.7968 11.4592 77.103 11.1837 77.3071 10.8373C77.5112 10.4909 77.6133 10.117 77.6133 9.71152C77.6133 9.25491 77.5191 8.8849 77.3267 8.59362C77.1383 8.30234 76.8832 8.0701 76.5691 7.89297C76.2551 7.71583 75.9058 7.56232 75.525 7.42849C75.1639 7.3104 74.8459 7.20018 74.5672 7.09784C74.2885 6.9955 74.0687 6.8656 73.9077 6.71602C73.7468 6.56644 73.6644 6.36176 73.6644 6.1059C73.6644 5.80281 73.7703 5.57451 73.9784 5.41706C74.1864 5.2596 74.4455 5.18482 74.7517 5.19269C75.1089 5.19269 75.3876 5.29897 75.5917 5.50759C75.7958 5.71621 75.8979 5.95632 75.9058 6.22793H77.4131C77.3974 5.77132 77.2796 5.37769 77.0559 5.04705C76.8321 4.7164 76.526 4.46054 76.1334 4.27554C75.7409 4.09053 75.2816 4 74.7752 4C74.2689 4 73.8214 4.09053 73.4328 4.2716C73.0442 4.45267 72.738 4.70459 72.5142 5.0313C72.2905 5.35801 72.1806 5.7477 72.1884 6.20431C72.1884 6.74358 72.3454 7.17263 72.6555 7.4954C72.9656 7.82211 73.421 8.08584 74.0137 8.29053C74.3254 8.39807 74.6228 8.49988 74.9034 8.59595L75.0461 8.64479C75.368 8.75501 75.6271 8.89671 75.8194 9.07384C76.0117 9.25098 76.1099 9.51471 76.1099 9.81386C76.1099 10.113 76 10.3531 75.7801 10.5342C75.5603 10.7153 75.262 10.8058 74.8891 10.8058C74.4573 10.8058 74.1158 10.6838 73.8724 10.4358C73.629 10.1878 73.4995 9.88865 73.4838 9.52651H72C72.0079 10.0461 72.1374 10.487 72.3847 10.853C72.632 11.2191 72.9735 11.4986 73.4053 11.6915Z"/><path d="M81.0323 4.13383V11.8489H82.4376V4.13383H81.0323Z"/><path d="M86.1314 11.8489V4.13383H87.5366L91.1519 9.56588V4.13383H92.5572V11.8489H91.1519L87.5366 6.42474V11.8489H86.1314Z"/><path d="M97.7387 11.4828C98.2961 11.8174 98.9634 11.9827 99.7406 11.9827V11.9788C100.663 11.9788 101.421 11.7544 102.01 11.3057C102.598 10.857 102.967 10.239 103.113 9.44385H101.562C101.468 9.84142 101.264 10.1524 100.954 10.3767C100.643 10.5972 100.231 10.7113 99.7171 10.7113C99.0066 10.7113 98.4492 10.4712 98.0449 9.99099C97.6406 9.51077 97.4404 8.84948 97.4404 8.00318C97.4404 7.15688 97.6406 6.49166 98.0449 6.0075C98.4492 5.52333 99.0066 5.27929 99.7171 5.27929C100.231 5.27929 100.643 5.39737 100.954 5.63749C101.264 5.8776 101.468 6.20824 101.562 6.62549H103.113C102.967 5.79494 102.598 5.15333 102.01 4.69278C101.421 4.23224 100.663 4.00394 99.7406 4.00394C98.9634 4.00394 98.2961 4.1732 97.7387 4.51171C97.1813 4.85023 96.7495 5.31865 96.4512 5.9209C96.1489 6.52315 95.9998 7.21593 95.9998 8.00318C95.9998 8.79043 96.1489 9.48322 96.4512 10.0815C96.7534 10.6838 97.1813 11.1483 97.7387 11.4828Z"/><path d="M106.555 11.8489V4.13383H107.96V7.34189H111.411V4.13383H112.816V11.8489H111.411V8.48734H107.96V11.8489H106.555Z"/><path fill-rule="evenodd" clip-rule="evenodd" d="M245.152 39.0722C243.688 39.0722 242.377 38.714 241.227 38.0015C240.077 37.289 239.166 36.3129 238.495 35.0729C237.824 33.833 237.49 32.4278 237.49 30.8533C237.49 29.2787 237.824 27.8774 238.495 26.6493C239.166 25.4212 240.077 24.4568 241.227 23.7522C242.377 23.0476 243.688 22.6973 245.152 22.6973C246.326 22.6973 247.351 22.9177 248.23 23.3586C249.109 23.7995 249.82 24.4175 250.365 25.2165V16.0214H254.385V38.6943H250.805L250.365 36.4585C249.863 37.1513 249.2 37.7614 248.371 38.2849C247.543 38.8084 246.471 39.0722 245.152 39.0722ZM246 35.5453C247.3 35.5453 248.359 35.1084 249.188 34.2384C250.016 33.3685 250.428 32.2506 250.428 30.8847C250.428 29.5189 250.016 28.401 249.188 27.531C248.359 26.6611 247.3 26.2242 246 26.2242C244.701 26.2242 243.665 26.6533 242.829 27.5153C241.993 28.3773 241.572 29.4874 241.572 30.8533C241.572 32.2191 241.993 33.341 242.829 34.2227C243.665 35.1044 244.725 35.5453 246 35.5453Z"/><path d="M72.0903 38.6943V16.6512H76.8636L83.8665 30.6328L90.7751 16.6512H95.5484V38.6943H91.5288V23.4846L85.4052 35.5453H82.2335L76.1099 23.4846V38.6943H72.0903Z"/><path fill-rule="evenodd" clip-rule="evenodd" d="M105.723 39.0722C104.153 39.0722 102.759 38.7376 101.546 38.0645C100.333 37.3914 99.3795 36.4467 98.6887 35.2304C97.9978 34.0141 97.6524 32.6049 97.6524 31.0107C97.6524 29.4165 97.9939 27.9562 98.673 26.6966C99.3521 25.4369 100.294 24.4568 101.499 23.7522C102.704 23.0476 104.121 22.6973 105.754 22.6973C107.281 22.6973 108.632 23.0319 109.805 23.705C110.979 24.3781 111.894 25.2952 112.553 26.4604C113.213 27.6255 113.542 28.9205 113.542 30.3494C113.542 30.5816 113.538 30.8218 113.527 31.0737C113.515 31.3256 113.499 31.5893 113.48 31.8609H101.641C101.723 33.0772 102.147 34.0338 102.912 34.7265C103.678 35.4193 104.604 35.7657 105.692 35.7657C106.508 35.7657 107.195 35.5807 107.748 35.2146C108.302 34.8486 108.718 34.3683 108.989 33.7818H113.071C112.777 34.7698 112.29 35.6673 111.611 36.4742C110.932 37.2812 110.092 37.9188 109.099 38.3794C108.106 38.8399 106.979 39.0722 105.723 39.0722ZM105.754 25.9723C104.769 25.9723 103.902 26.2518 103.148 26.8068C102.394 27.3618 101.911 28.2081 101.703 29.3417H109.46C109.397 28.3144 109.02 27.4956 108.329 26.8855C107.639 26.2754 106.779 25.9723 105.754 25.9723Z"/><path d="M118.159 38.3951C119.207 38.8478 120.42 39.0722 121.801 39.0722C123.14 39.0722 124.302 38.8517 125.287 38.4109C126.272 37.97 127.026 37.3599 127.548 36.5845C128.07 35.809 128.321 34.9352 128.302 33.9708C128.302 32.8568 128.031 32.0026 127.485 31.4043C126.94 30.806 126.213 30.3533 125.303 30.0503C124.392 29.7472 123.391 29.4677 122.304 29.2158C121.299 28.9835 120.494 28.7316 119.886 28.46C119.277 28.1884 118.975 27.7987 118.975 27.3578C118.975 26.917 119.179 26.5509 119.587 26.2557C119.996 25.9605 120.577 25.8148 121.33 25.8148C122.838 25.8148 123.705 26.3935 123.937 27.5468H127.736C127.528 26.0353 126.873 24.8504 125.774 23.9884C124.675 23.1264 123.203 22.6973 121.362 22.6973C119.372 22.6973 117.829 23.1697 116.73 24.1144C115.631 25.0591 115.081 26.2242 115.081 27.6098C115.081 28.3655 115.258 28.9993 115.615 29.5149C115.972 30.0306 116.435 30.4478 117.012 30.7745C117.589 31.1012 118.221 31.3689 118.912 31.5775C119.603 31.7861 120.282 31.9672 120.953 32.1129C122.002 32.3451 122.818 32.5813 123.403 32.8214C123.988 33.0615 124.282 33.5181 124.282 34.1912C124.282 34.6517 124.078 35.0611 123.67 35.4193C123.262 35.7775 122.618 35.9547 121.739 35.9547C120.859 35.9547 120.141 35.7382 119.587 35.3091C119.034 34.8801 118.692 34.3605 118.567 33.7503H114.516C114.641 34.8013 115.018 35.7224 115.646 36.5215C116.274 37.3205 117.11 37.9425 118.159 38.3951Z"/><path d="M136.718 39.0722C135.336 39.0722 134.123 38.8478 133.075 38.3951C132.027 37.9425 131.191 37.3205 130.563 36.5215C129.935 35.7224 129.558 34.8013 129.432 33.7503H133.483C133.609 34.3605 133.95 34.8801 134.504 35.3091C135.057 35.7382 135.776 35.9547 136.655 35.9547C137.534 35.9547 138.178 35.7775 138.586 35.4193C138.994 35.0611 139.199 34.6517 139.199 34.1912C139.199 33.5181 138.904 33.0615 138.319 32.8214C137.734 32.5813 136.918 32.3451 135.87 32.1129C135.199 31.9672 134.52 31.7861 133.829 31.5775C133.138 31.3689 132.506 31.1012 131.929 30.7745C131.352 30.4478 130.889 30.0306 130.531 29.5149C130.174 28.9993 129.997 28.3655 129.997 27.6098C129.997 26.2242 130.547 25.0591 131.646 24.1144C132.745 23.1697 134.288 22.6973 136.278 22.6973C138.119 22.6973 139.591 23.1264 140.69 23.9884C141.789 24.8504 142.445 26.0353 142.653 27.5468H138.853C138.622 26.3935 137.754 25.8148 136.247 25.8148C135.493 25.8148 134.912 25.9605 134.504 26.2557C134.096 26.5509 133.891 26.917 133.891 27.3578C133.891 27.7987 134.194 28.1884 134.802 28.46C135.411 28.7316 136.215 28.9835 137.22 29.2158C138.308 29.4677 139.308 29.7472 140.219 30.0503C141.13 30.3533 141.856 30.806 142.402 31.4043C142.947 32.0026 143.218 32.8568 143.218 33.9708C143.238 34.9352 142.987 35.809 142.465 36.5845C141.942 37.3599 141.189 37.97 140.203 38.4109C139.218 38.8517 138.056 39.0722 136.718 39.0722Z"/><path fill-rule="evenodd" clip-rule="evenodd" d="M147.269 38.4266C148.129 38.8557 149.228 39.0722 150.566 39.0722C151.866 39.0722 152.926 38.8006 153.754 38.2534C154.582 37.7063 155.226 37.0135 155.685 36.1751L156.062 38.6943H159.485V29.0898C159.485 27.0548 158.845 25.4803 157.569 24.3663C156.294 23.2523 154.543 22.6973 152.325 22.6973C151.026 22.6973 149.856 22.9217 148.808 23.3743C147.76 23.827 146.908 24.4726 146.249 25.311C145.589 26.1494 145.208 27.1374 145.102 28.2711H149.028C149.173 27.5153 149.55 26.9445 150.158 26.5549C150.767 26.1652 151.477 25.9723 152.294 25.9723C153.193 25.9723 153.946 26.2242 154.555 26.728C155.163 27.2319 155.465 28.0191 155.465 29.0898V29.4677H151.509C149.248 29.4677 147.552 29.9204 146.421 30.8218C145.291 31.7232 144.726 32.9001 144.726 34.3487C144.726 35.2107 144.934 35.998 145.354 36.7104C145.774 37.4229 146.41 37.9976 147.269 38.4266ZM154.162 34.7895C153.522 35.5453 152.627 35.9232 151.477 35.9232C150.724 35.9232 150.115 35.7539 149.656 35.4193C149.197 35.0847 148.965 34.6124 148.965 34.0023C148.965 33.4354 149.197 32.9592 149.656 32.5695C150.115 32.1798 150.881 31.9869 151.948 31.9869H155.371C155.202 33.1009 154.802 34.0338 154.162 34.7895Z"/><path fill-rule="evenodd" clip-rule="evenodd" d="M168.341 34.0338C167.587 34.0338 166.884 33.9511 166.237 33.7818L165.075 34.947C165.432 35.1359 165.911 35.2934 166.519 35.4193C167.128 35.5453 168.109 35.6712 169.471 35.7972C171.544 35.9861 173.051 36.4782 173.993 37.2772C174.935 38.0763 175.406 39.1785 175.406 40.5837C175.406 41.5087 175.155 42.3826 174.653 43.2131C174.15 44.0437 173.377 44.7128 172.329 45.2285C171.281 45.7441 169.942 46 168.309 46C166.091 46 164.301 45.5867 162.939 44.7561C161.577 43.9256 160.898 42.6817 160.898 41.0246C160.898 39.6193 161.577 38.3991 162.939 37.3717C162.519 37.1828 162.158 36.982 161.856 36.7734C161.554 36.5648 161.287 36.3443 161.055 36.1121V35.3878L163.787 32.4907C162.574 31.4201 161.966 30.0463 161.966 28.3655C161.966 27.3146 162.221 26.362 162.735 25.4999C163.249 24.6379 163.976 23.9569 164.918 23.4531C165.86 22.9492 167.002 22.6973 168.341 22.6973C169.22 22.6973 170.036 22.8233 170.79 23.0752H176.694V25.5314L174.025 25.7204C174.445 26.5194 174.653 27.4011 174.653 28.3655C174.653 29.4165 174.401 30.3691 173.899 31.2311C173.396 32.0932 172.67 32.7741 171.716 33.278C170.763 33.7818 169.64 34.0338 168.341 34.0338ZM164.572 40.6152C164.572 41.3906 164.933 41.9732 165.656 42.3629C166.378 42.7526 167.261 42.9455 168.309 42.9455C169.357 42.9455 170.131 42.7408 170.759 42.3314C171.387 41.922 171.701 41.371 171.701 40.6782C171.701 40.1113 171.497 39.639 171.088 39.2611C170.68 38.8832 169.868 38.651 168.655 38.5683C167.795 38.5054 167.002 38.4109 166.268 38.2849C165.66 38.6195 165.228 38.9895 164.965 39.3871C164.702 39.7846 164.572 40.194 164.572 40.6152ZM168.341 30.9477C169.157 30.9477 169.832 30.7273 170.366 30.2864C170.9 29.8456 171.167 29.2158 171.167 28.397C171.167 27.5783 170.9 26.9485 170.366 26.5076C169.832 26.0668 169.157 25.8463 168.341 25.8463C167.481 25.8463 166.79 26.0668 166.268 26.5076C165.746 26.9485 165.483 27.5783 165.483 28.397C165.483 29.2158 165.746 29.8456 166.268 30.2864C166.79 30.7273 167.481 30.9477 168.341 30.9477Z"/><path fill-rule="evenodd" clip-rule="evenodd" d="M180.808 38.0645C182.021 38.7376 183.414 39.0722 184.984 39.0722C186.24 39.0722 187.367 38.8399 188.36 38.3794C189.353 37.9188 190.193 37.2812 190.872 36.4742C191.551 35.6673 192.038 34.7698 192.333 33.7818H188.25C187.979 34.3683 187.563 34.8486 187.01 35.2146C186.456 35.5807 185.769 35.7657 184.953 35.7657C183.866 35.7657 182.939 35.4193 182.174 34.7265C181.408 34.0338 180.984 33.0772 180.902 31.8609H192.741C192.76 31.5893 192.776 31.3256 192.788 31.0737C192.8 30.8218 192.804 30.5816 192.804 30.3494C192.804 28.9205 192.474 27.6255 191.814 26.4604C191.155 25.2952 190.24 24.3781 189.067 23.705C187.893 23.0319 186.543 22.6973 185.016 22.6973C183.383 22.6973 181.966 23.0476 180.761 23.7522C179.555 24.4568 178.613 25.4369 177.934 26.6966C177.255 27.9562 176.914 29.4165 176.914 31.0107C176.914 32.6049 177.259 34.0141 177.95 35.2304C178.641 36.4467 179.595 37.3914 180.808 38.0645ZM182.409 26.8068C183.163 26.2518 184.03 25.9723 185.016 25.9723C186.04 25.9723 186.9 26.2754 187.591 26.8855C188.282 27.4956 188.658 28.3144 188.721 29.3417H180.965C181.173 28.2081 181.656 27.3618 182.409 26.8068Z"/><path d="M194.719 38.6943V16.6512H199.492L206.495 30.6328L213.404 16.6512H218.177V38.6943H214.158V23.4846L208.034 35.5453H204.862L198.739 23.4846V38.6943H194.719Z"/><path fill-rule="evenodd" clip-rule="evenodd" d="M224.175 38.0645C225.388 38.7376 226.782 39.0722 228.352 39.0722C229.608 39.0722 230.734 38.8399 231.728 38.3794C232.721 37.9188 233.561 37.2812 234.24 36.4742C234.919 35.6673 235.406 34.7698 235.7 33.7818H231.618C231.347 34.3683 230.931 34.8486 230.377 35.2146C229.824 35.5807 229.137 35.7657 228.32 35.7657C227.233 35.7657 226.307 35.4193 225.541 34.7265C224.776 34.0338 224.352 33.0772 224.269 31.8609H236.108C236.128 31.5893 236.144 31.3256 236.155 31.0737C236.167 30.8218 236.171 30.5816 236.171 30.3494C236.171 28.9205 235.841 27.6255 235.182 26.4604C234.522 25.2952 233.608 24.3781 232.434 23.705C231.26 23.0319 229.91 22.6973 228.383 22.6973C226.75 22.6973 225.333 23.0476 224.128 23.7522C222.923 24.4568 221.981 25.4369 221.302 26.6966C220.623 27.9562 220.281 29.4165 220.281 31.0107C220.281 32.6049 220.627 34.0141 221.318 35.2304C222.008 36.4467 222.962 37.3914 224.175 38.0645ZM225.777 26.8068C226.53 26.2518 227.398 25.9723 228.383 25.9723C229.408 25.9723 230.267 26.2754 230.958 26.8855C231.649 27.4956 232.026 28.3144 232.089 29.3417H224.332C224.54 28.2081 225.023 27.3618 225.777 26.8068Z"/><path d="M257.254 19.9892C257.725 20.43 258.326 20.6505 259.06 20.6505C259.794 20.6505 260.395 20.43 260.866 19.9892C261.337 19.5483 261.572 18.9933 261.572 18.3202C261.572 17.6471 261.337 17.096 260.866 16.667C260.395 16.2379 259.794 16.0214 259.06 16.0214C258.326 16.0214 257.725 16.2379 257.254 16.667C256.783 17.096 256.548 17.6471 256.548 18.3202C256.548 18.9933 256.783 19.5483 257.254 19.9892Z"/><path fill-rule="evenodd" clip-rule="evenodd" d="M269.082 39.0722C267.743 39.0722 266.644 38.8557 265.784 38.4266C264.925 37.9976 264.289 37.4229 263.869 36.7104C263.449 35.998 263.241 35.2107 263.241 34.3487C263.241 32.9001 263.806 31.7232 264.936 30.8218C266.067 29.9204 267.763 29.4677 270.024 29.4677H273.98V29.0898C273.98 28.0191 273.678 27.2319 273.07 26.728C272.461 26.2242 271.708 25.9723 270.809 25.9723C269.992 25.9723 269.282 26.1652 268.673 26.5549C268.065 26.9445 267.688 27.5153 267.543 28.2711H263.617C263.723 27.1374 264.104 26.1494 264.764 25.311C265.423 24.4726 266.275 23.827 267.323 23.3743C268.371 22.9217 269.541 22.6973 270.84 22.6973C273.058 22.6973 274.809 23.2523 276.084 24.3663C277.36 25.4803 278 27.0548 278 29.0898V38.6943H274.577L274.2 36.1751C273.741 37.0135 273.097 37.7063 272.269 38.2534C271.441 38.8006 270.381 39.0722 269.082 39.0722ZM269.992 35.9232C271.142 35.9232 272.037 35.5453 272.677 34.7895C273.317 34.0338 273.717 33.1009 273.886 31.9869H270.463C269.396 31.9869 268.63 32.1798 268.171 32.5695C267.712 32.9592 267.48 33.4354 267.48 34.0023C267.48 34.6124 267.712 35.0847 268.171 35.4193C268.63 35.7539 269.239 35.9232 269.992 35.9232Z"/><path d="M257.05 23.0752V38.6943H261.07V23.0752H257.05Z"/><path class="logo" fill-rule="evenodd" clip-rule="evenodd" d="M42 0C45.3137 0 48 2.68629 48 6V42C48 45.3137 45.3137 48 42 48H6C2.68629 48 0 45.3137 0 42V6C0 2.68629 2.68629 0 6 0H42ZM32 6C31.3423 6 30.4579 6.15408 29.5156 6.75781C30.6309 7.66538 31.6389 8.84579 32.5234 10.2725C32.9965 10.6648 33.6846 11.5573 34.3691 13.3877C35.3807 16.0836 35.9538 19.6682 35.9961 23.5332V24.002C35.9961 28.04 35.4152 31.8088 34.3652 34.6123C33.3268 37.3774 32.2807 38 31.9961 38C31.7114 37.9999 30.6615 37.3772 29.627 34.6123C28.577 31.8088 27.9961 28.04 27.9961 24.002H31.9961C31.9961 20.1639 31.3077 16.5257 30.0615 13.7529C28.0692 9.3304 25.4076 8.66895 23.9961 8.66895C23.1923 8.66896 21.981 8.88428 20.7158 9.8877C20.7407 9.90111 20.7661 9.9163 20.792 9.93066C20.8179 9.94507 20.8442 9.95921 20.8691 9.97266C22.0652 10.6456 23.1498 11.553 24.1074 12.6758C24.9074 12.7912 25.8304 14.0995 26.4111 15.3955C27.3765 17.5414 27.9498 20.5255 27.9883 23.6289V24.002H23.9883C23.9883 28.509 24.6577 32.7737 25.873 36.0156C26.5114 37.7153 27.2766 39.081 28.1572 40.0693C29.5725 41.6652 31.0229 42 31.9883 42C32.9537 42 34.4078 41.6653 35.8193 40.0693C36.6962 39.081 37.4651 37.7154 38.1035 36.0156C39.3188 32.7737 39.9883 28.509 39.9883 24.002L40 23.998C40 19.491 39.3305 15.2224 38.1152 11.9844C37.4768 10.2847 36.7118 8.92285 35.8311 7.93066C34.4157 6.33468 32.9654 6 32 6ZM16 23.998C16 27.8361 16.6884 31.4743 17.9346 34.2471C19.6153 37.9851 21.781 39.035 23.2617 39.2734C23.2363 39.2273 23.2118 39.1799 23.1875 39.1318C23.1714 39.0999 23.1555 39.0673 23.1387 39.0352C21.1156 34.9856 20 29.6474 20 23.998H16ZM16 12.665C11.5154 12.665 8.00001 17.6449 8 23.998C8 29.4167 10.5543 33.8321 14.0889 35.0166C12.7543 31.8708 12.0231 28.1208 12 24.1982V23.998C12 19.6754 14.1077 16.6641 16 16.6641C17.8923 16.6641 20 19.6754 20 23.998H24C24 17.641 20.4846 12.665 16 12.665Z"/></svg>