<svg class="sinch-icon" viewBox="0 0 313 29" fill="none" xmlns="http://www.w3.org/2000/svg"><path d="M18.6856 1.10742C19.2235 0.93353 19.8016 0.971189 20.3136 1.21289L20.3458 1.22949L25.9923 4.49316L31.5362 1.24023L31.5518 1.23242C32.0583 0.987455 32.6332 0.945131 33.17 1.11133C33.7079 1.27865 34.1609 1.63912 34.4444 2.12793C34.7291 2.6168 34.8192 3.19257 34.7013 3.74707C34.5822 4.30149 34.2655 4.78717 33.8077 5.11523L33.7725 5.13672L16.6475 15.1279L16.7647 14.2344C16.8264 13.7619 16.9237 13.2904 17.0557 12.8311L14.794 11.5244C11.65 9.71658 9.33148 9.99286 7.93856 10.543C6.90501 10.9301 6.03353 11.6136 5.41122 12.5234C4.78784 13.4333 4.46334 14.4988 4.46981 15.6045C4.47522 16.7102 4.81421 17.7715 5.44735 18.6738C6.07936 19.5759 6.95811 20.2493 7.98934 20.6211C9.39525 21.1581 11.7193 21.4068 14.8429 19.5596L34.9171 7.68457C37.1758 6.34919 39.5605 5.63531 41.8106 5.62109C43.1017 5.60803 44.3713 5.83391 45.5811 6.29102C47.462 6.98112 49.0681 8.22217 50.2218 9.87891C51.3755 11.5358 51.9882 13.4829 52.0001 15.5117H51.9972C52.0155 17.536 51.4251 19.4902 50.2921 21.1602C49.1579 22.8312 47.5671 24.0916 45.6905 24.8047C42.4631 26.0777 38.6662 25.6281 35.0059 23.5381L32.7423 22.2207C32.2001 22.8035 31.5876 23.3164 30.92 23.7461L30.9054 23.7549L22.0147 29V23.7832L35.3546 15.8916L35.2491 16.7783C35.1885 17.2945 35.0854 17.8087 34.9415 18.3096L37.2032 19.6162C40.3482 21.4228 42.6687 21.1486 44.0616 20.5996C44.8051 20.3131 45.4866 19.8566 46.0352 19.2803C46.585 18.7039 47.0095 17.9983 47.2628 17.2393C47.4359 16.6914 47.5237 16.114 47.5216 15.5312C47.5194 14.4245 47.1849 13.3633 46.5528 12.46C45.9198 11.5579 45.0411 10.8863 44.0098 10.5166C42.6018 9.9807 40.2768 9.73301 37.1544 11.5791L17.1241 23.4297L17.089 23.4521C14.8282 24.7895 12.4441 25.5033 10.1964 25.5176C8.90627 25.5307 7.63403 25.3058 6.42294 24.8486C4.03876 23.9627 2.10993 22.2022 0.995202 19.8936C-0.119317 17.585 -0.304254 14.9668 0.472741 12.5205C0.931635 11.125 1.70404 9.82845 2.70516 8.76758C3.70629 7.70671 4.95179 6.86711 6.30575 6.33887C9.55256 5.05725 13.3492 5.5069 16.9942 7.60449L19.255 8.9209C19.7983 8.338 20.4122 7.8253 21.0821 7.39551L21.0919 7.38867L21.5645 7.10645L18.1202 5.13477C17.6516 4.8165 17.3214 4.33379 17.1915 3.7793C17.0607 3.22388 17.143 2.64482 17.421 2.14844C17.6991 1.65191 18.1477 1.28132 18.6856 1.10742Z" fill="black"/><path d="M208.821 8.74023C211.051 8.74023 212.925 9.32295 214.445 10.4883C215.991 11.6536 216.966 13.2115 217.371 15.1621H214.104C213.85 13.9968 213.229 13.0972 212.241 12.4639C211.253 11.8053 210.1 11.4766 208.783 11.4766C207.719 11.4766 206.719 11.7424 205.781 12.2744C204.844 12.8064 204.084 13.604 203.501 14.668C202.918 15.7319 202.627 17.0495 202.627 18.6201C202.627 20.1907 202.918 21.5083 203.501 22.5723C204.084 23.6362 204.844 24.4466 205.781 25.0039C206.719 25.5359 207.719 25.8017 208.783 25.8018C210.1 25.8018 211.253 25.4858 212.241 24.8525C213.229 24.1939 213.85 23.2688 214.104 22.0781H217.371C216.991 23.978 216.029 25.5232 214.483 26.7139C212.938 27.9045 211.051 28.5 208.821 28.5C207.023 28.5 205.401 28.0948 203.957 27.2842C202.538 26.4482 201.411 25.2954 200.575 23.8262C199.765 22.3315 199.359 20.5961 199.359 18.6201C199.359 16.6442 199.765 14.9215 200.575 13.4521C201.411 11.9575 202.538 10.8048 203.957 9.99414C205.401 9.15814 207.023 8.74023 208.821 8.74023Z" fill="black"/><path d="M228.974 8.74023C231.203 8.74032 233.077 9.32316 234.597 10.4883C236.142 11.6536 237.118 13.2115 237.523 15.1621H234.255C234.002 13.9969 233.381 13.0972 232.394 12.4639C231.406 11.8053 230.253 11.4766 228.936 11.4766C227.872 11.4766 226.871 11.7425 225.934 12.2744C224.996 12.8064 224.236 13.6041 223.653 14.668C223.071 15.7319 222.779 17.0495 222.779 18.6201C222.779 20.1908 223.071 21.5083 223.653 22.5723C224.236 23.6362 224.996 24.4466 225.934 25.0039C226.871 25.5358 227.872 25.8018 228.936 25.8018C230.253 25.8017 231.406 25.4858 232.394 24.8525C233.381 24.1939 234.002 23.2687 234.255 22.0781H237.523C237.143 23.9781 236.18 25.5232 234.635 26.7139C233.09 27.9044 231.203 28.4999 228.974 28.5C227.175 28.5 225.553 28.0948 224.109 27.2842C222.691 26.4482 221.564 25.2954 220.728 23.8262C219.917 22.3315 219.511 20.5961 219.511 18.6201C219.511 16.6442 219.917 14.9215 220.728 13.4521C221.564 11.9576 222.691 10.8048 224.109 9.99414C225.553 9.15822 227.175 8.74023 228.974 8.74023Z" fill="black"/><path fill-rule="evenodd" clip-rule="evenodd" d="M249.125 8.74023C250.898 8.74023 252.494 9.14539 253.913 9.95605C255.332 10.7667 256.446 11.9195 257.257 13.4141C258.093 14.8834 258.511 16.6188 258.511 18.6201C258.511 20.6215 258.093 22.3696 257.257 23.8643C256.421 25.3335 255.281 26.4735 253.837 27.2842C252.418 28.0948 250.822 28.5 249.049 28.5C247.276 28.5 245.679 28.0948 244.261 27.2842C242.842 26.4735 241.715 25.3335 240.879 23.8643C240.068 22.3696 239.663 20.6215 239.663 18.6201C239.663 16.6188 240.081 14.8834 240.917 13.4141C241.753 11.9195 242.88 10.7667 244.299 9.95605C245.743 9.14539 247.352 8.74023 249.125 8.74023ZM249.125 11.4766C248.036 11.4766 247.022 11.7424 246.085 12.2744C245.148 12.8064 244.387 13.604 243.805 14.668C243.222 15.7319 242.931 17.0495 242.931 18.6201C242.931 20.1907 243.222 21.5083 243.805 22.5723C244.387 23.6362 245.135 24.4338 246.047 24.9658C246.984 25.4978 247.985 25.7646 249.049 25.7646C250.138 25.7646 251.152 25.4978 252.089 24.9658C253.026 24.4338 253.786 23.6362 254.369 22.5723C254.952 21.5083 255.243 20.1908 255.243 18.6201C255.243 17.0495 254.952 15.7319 254.369 14.668C253.812 13.6041 253.064 12.8064 252.127 12.2744C251.19 11.7424 250.189 11.4766 249.125 11.4766Z" fill="black"/><path d="M264.203 19.874C264.203 23.8007 265.812 25.7636 269.029 25.7637C270.676 25.7637 272.032 25.1819 273.096 24.0166C274.185 22.8259 274.729 21.1406 274.729 18.9619V9.19629H277.922V28.0439H275.033L274.806 24.6621C274.223 25.8528 273.349 26.7906 272.184 27.4746C271.044 28.1586 269.751 28.5 268.308 28.5C266.078 28.5 264.305 27.829 262.987 26.4863C261.67 25.1183 261.012 23.0278 261.012 20.2158V9.19629H264.203V19.874Z" fill="black"/><path d="M81.5488 1.12012C83.3351 1.12016 84.895 1.4345 86.2285 2.06348C87.587 2.66731 88.6565 3.5478 89.4365 4.70508C90.2416 5.86246 90.6564 7.22135 90.6816 8.78125H85.2471C85.222 8.20255 85.0456 7.66142 84.7188 7.1582C84.4169 6.6299 83.9889 6.21497 83.4355 5.91309C82.882 5.58597 82.2274 5.42188 81.4727 5.42188C80.8184 5.3968 80.2147 5.49724 79.6611 5.72363C79.1329 5.95009 78.705 6.29025 78.3779 6.74316C78.0761 7.17087 77.9248 7.71212 77.9248 8.36621C77.9249 8.99507 78.0761 9.52351 78.3779 9.95117C78.7049 10.3789 79.1457 10.7559 79.6992 11.083C80.2527 11.3849 80.9072 11.6744 81.6621 11.9512C82.417 12.2028 83.2346 12.4674 84.1152 12.7441C85.4234 13.197 86.6315 13.7382 87.7383 14.3672C88.8452 14.971 89.7258 15.7631 90.3799 16.7441C91.0341 17.7254 91.3613 19.0215 91.3613 20.6318C91.3613 22.0156 90.9963 23.2989 90.2666 24.4814C89.537 25.6638 88.4804 26.6199 87.0967 27.3496C85.7379 28.0792 84.0389 28.4443 82.001 28.4443C80.0889 28.4443 78.3778 28.117 76.8682 27.4629C75.384 26.8087 74.2018 25.8525 73.3213 24.5947C72.4659 23.3369 72.0253 21.8145 72 20.0283H77.3965C77.4216 20.8082 77.6236 21.5128 78.001 22.1416C78.3783 22.7704 78.8936 23.274 79.5479 23.6514C80.2272 24.0037 81.033 24.1797 81.9639 24.1797C82.7688 24.1797 83.4605 24.0533 84.0391 23.8018C84.6431 23.525 85.1087 23.148 85.4355 22.6699C85.7627 22.1919 85.9267 21.6257 85.9268 20.9717C85.9268 20.2171 85.7375 19.5882 85.3604 19.085C85.0082 18.5817 84.5046 18.153 83.8506 17.8008C83.2215 17.4486 82.4794 17.1341 81.624 16.8574C80.7938 16.5555 79.9125 16.241 78.9814 15.9141C76.8934 15.2347 75.2954 14.3294 74.1885 13.1973C73.1066 12.0651 72.5665 10.5677 72.5664 8.70605C72.5664 7.121 72.9436 5.76208 73.6982 4.62988C74.4783 3.49765 75.5476 2.62927 76.9062 2.02539C78.2651 1.42156 79.8126 1.12012 81.5488 1.12012Z" fill="black"/><path d="M133.078 8.5166C135.518 8.51665 137.569 9.15833 139.229 10.4414C140.89 11.7246 141.947 13.4863 142.4 15.7256H137.003C136.776 14.845 136.298 14.1526 135.568 13.6494C134.864 13.1464 134.021 12.8945 133.04 12.8945C132.159 12.8945 131.367 13.1213 130.662 13.5742C129.983 14.002 129.441 14.6437 129.039 15.499C128.662 16.3292 128.474 17.3232 128.474 18.4805C128.474 19.3611 128.586 20.1539 128.812 20.8584C129.039 21.5377 129.354 22.1286 129.757 22.6318C130.159 23.1098 130.637 23.475 131.19 23.7266C131.769 23.9782 132.386 24.1035 133.04 24.1035C133.694 24.1035 134.285 23.9901 134.813 23.7637C135.367 23.5372 135.833 23.2229 136.21 22.8203C136.587 22.3926 136.852 21.8772 137.003 21.2734H142.4C141.947 23.4623 140.878 25.2113 139.192 26.5195C137.532 27.8027 135.493 28.4443 133.078 28.4443C131.166 28.4443 129.467 28.0166 127.982 27.1611C126.498 26.3058 125.341 25.1357 124.511 23.6514C123.68 22.167 123.265 20.4679 123.265 18.5557C123.265 16.5933 123.68 14.8701 124.511 13.3857C125.341 11.8763 126.498 10.6933 127.982 9.83789C129.467 8.95729 131.166 8.5166 133.078 8.5166Z" fill="black"/><path fill-rule="evenodd" clip-rule="evenodd" d="M198.952 28.0439H195.57L193.138 21.2041H181.813L179.344 28.0439H176L185.804 1.44434H189.186L198.952 28.0439ZM182.764 18.6201H192.188L187.476 5.47266L182.764 18.6201Z" fill="black"/><path d="M291.231 8.74023C293.461 8.74024 295.234 9.424 296.552 10.792C297.894 12.1347 298.565 14.2125 298.565 17.0244V28.0439H295.373V17.3662C295.373 13.4397 293.752 11.4767 290.51 11.4766C288.889 11.4766 287.533 12.0712 286.443 13.2617C285.379 14.4271 284.848 16.0997 284.848 18.2783V28.0439H281.655V9.19629H284.543L284.733 12.5781C285.341 11.3875 286.216 10.4506 287.355 9.7666C288.495 9.0826 289.787 8.74023 291.231 8.74023Z" fill="black"/><path d="M306.974 9.19629H312.521V11.8945H306.974V22.2686C306.974 23.4589 307.214 24.2695 307.695 24.7002C308.177 25.1055 309.025 25.3086 310.241 25.3086H312.218V28.0439H309.33C307.607 28.0439 306.252 27.626 305.264 26.79C304.276 25.9541 303.781 24.447 303.781 22.2686V11.8945H300.514V9.19629H303.781L304.199 4.67383H306.974V9.19629Z" fill="black"/><path d="M99.4219 27.9912H94.3262V8.96973H99.4219V27.9912Z" fill="black"/><path d="M113.578 8.5166C115.163 8.5166 116.497 8.84386 117.579 9.49805C118.661 10.1522 119.479 11.1082 120.032 12.3662C120.611 13.6242 120.9 15.172 120.9 17.0088V27.9912H115.843V17.499C115.843 15.9896 115.516 14.8325 114.861 14.0273C114.232 13.2223 113.251 12.8194 111.918 12.8193C111.062 12.8193 110.295 13.0203 109.615 13.4229C108.961 13.8254 108.446 14.4045 108.068 15.1592C107.691 15.8889 107.502 16.782 107.502 17.8389V27.9912H102.407V8.96973H106.898L107.275 12.0645C107.854 11.0078 108.672 10.1522 109.729 9.49805C110.81 8.84392 112.094 8.51667 113.578 8.5166Z" fill="black"/><path d="M149.949 11.8008C150.578 10.8195 151.408 10.0267 152.44 9.42285C153.496 8.81897 154.718 8.51758 156.101 8.51758C157.686 8.5176 159.019 8.85692 160.101 9.53613C161.184 10.1903 162.001 11.1464 162.555 12.4043C163.108 13.6622 163.385 15.2222 163.385 17.084V27.9912H158.328V17.5371C158.328 16.0278 158.013 14.8706 157.385 14.0654C156.755 13.2351 155.761 12.8193 154.402 12.8193C153.571 12.8194 152.817 13.0212 152.138 13.4238C151.458 13.8264 150.918 14.4174 150.515 15.1973C150.138 15.9521 149.949 16.8583 149.949 17.915V27.9912H144.854V0.818359H149.949V11.8008Z" fill="black"/><path d="M96.8926 0.628906C97.8234 0.628906 98.5784 0.905514 99.1572 1.45898C99.7611 1.98734 100.063 2.66682 100.063 3.49707C100.063 4.32736 99.7611 5.01971 99.1572 5.57324C98.5784 6.10157 97.8234 6.36523 96.8926 6.36523C95.9868 6.3652 95.2318 6.10161 94.6279 5.57324C94.0492 5.01972 93.7598 4.32734 93.7598 3.49707C93.7598 2.66685 94.0492 1.98733 94.6279 1.45898C95.2318 0.905488 95.9868 0.628937 96.8926 0.628906Z" fill="black"/></svg>