<svg class="sinch-icon" viewBox="0 0 49 49" fill="none" xmlns="http://www.w3.org/2000/svg"><path d="M46.6375 1.41156C45.3208 0.0894651 43.3484 -0.313613 41.6125 0.379682L2.92769 15.8525C1.20251 16.5458 0.0792689 18.1259 0.00402761 19.9854C-0.0712137 21.8449 0.912298 23.511 2.57298 24.344L14.0258 30.0677L18.1909 25.9026L6.92623 20.2703L41.6716 6.37211L27.7734 41.1175L22.1411 29.8528L17.9759 34.0179L23.6997 45.4707C24.5004 47.0723 26.0805 48.045 27.8541 48.045C27.9185 48.045 27.9884 48.045 28.0583 48.045C29.9178 47.9698 31.4979 46.8466 32.1912 45.1214L47.664 6.43123C48.3573 4.70068 47.9542 2.72829 46.6321 1.40619L46.6375 1.41156Z"/></svg>