<svg class="sinch-icon" xmlns="http://www.w3.org/2000/svg" viewBox="0 0 48 48" aria-hidden="true"><path d="M46.398 19.2a17.48 17.48 0 0 1-5.155 12.443A17.488 17.488 0 0 1 28.8 36.798H24l4.8-4.8c7.057 0 12.799-5.741 12.799-12.798S35.857 6.402 28.8 6.402c-7.057 0-12.799 5.741-12.799 12.798v.25a15.66 15.66 0 0 0-2.801-.25h-.798c-.402 0-.803.014-1.2.046V19.2a17.48 17.48 0 0 1 5.155-12.443A17.488 17.488 0 0 1 28.8 1.602c4.698 0 9.12 1.832 12.443 5.155A17.488 17.488 0 0 1 46.398 19.2Z"/><path d="M24.046 46.398H12.8c-6.176 0-11.202-5.026-11.202-11.201 0-6.176 5.026-11.202 11.202-11.202 6.174 0 11.2 5.026 11.2 11.202v1.601h-4.8v-1.601c0-3.53-2.87-6.402-6.401-6.402a6.408 6.408 0 0 0-6.402 6.402c0 3.53 2.87 6.401 6.402 6.401h6.447l4.8 4.8Z"/></svg>