<svg class="sinch-icon" viewBox="0 0 49 48" fill="none" xmlns="http://www.w3.org/2000/svg"><path fill-rule="evenodd" clip-rule="evenodd" d="M0.477295 6C0.477295 2.68629 3.16359 0 6.47729 0H42.4773C45.791 0 48.4773 2.68629 48.4773 6V42C48.4773 45.3137 45.791 48 42.4773 48H6.47729C3.16359 48 0.477295 45.3137 0.477295 42V6ZM35.0867 9.23007C36.2802 8.75342 37.6362 9.03054 38.5415 9.93951L38.5378 9.93581C39.4468 10.8448 39.7239 12.2008 39.2472 13.3906L28.6094 39.9909C28.1327 41.1769 27.0464 41.9492 25.7679 42.0009H25.6275C24.4081 42.0009 23.3218 41.3321 22.7713 40.231L18.8361 32.357L21.6997 29.4934L25.5721 37.2381L35.1273 13.35L11.2392 22.9052L18.9839 26.7776L16.1203 29.6412L8.24627 25.706C7.10452 25.1333 6.42833 23.9879 6.48006 22.7094C6.53179 21.4309 7.30405 20.3446 8.49014 19.8679L35.0867 9.23007Z"/></svg>