<svg viewBox="0 0 296 48" fill="none" xmlns="http://www.w3.org/2000/svg"><path fill-rule="evenodd" clip-rule="evenodd" d="M18.1079 24.0017C18.1079 27.2551 20.7462 29.8932 24 29.8932C27.2538 29.8932 29.8921 27.2551 29.8921 24.0017C29.8921 20.7483 27.2538 18.1102 24 18.1102C20.7462 18.1102 18.1079 20.7483 18.1079 24.0017ZM26.3562 24.0017C26.3562 25.3028 25.3013 26.3576 24 26.3576C22.6987 26.3576 21.6438 25.3028 21.6438 24.0017C21.6438 22.7006 22.6987 21.6458 24 21.6458C25.3013 21.6458 26.3562 22.7006 26.3562 24.0017Z" class="logo"/><path fill-rule="evenodd" clip-rule="evenodd" d="M0 6C0 2.68629 2.68629 0 6 0H42C45.3137 0 48 2.68629 48 6V42C48 45.3137 45.3137 48 42 48H6C2.68629 48 0 45.3137 0 42V6ZM33.4281 24.0017C33.4281 24.9774 34.2203 25.7695 35.1961 25.7695C36.1718 25.7695 36.964 24.9774 36.964 24.0017C36.964 16.8421 31.1603 11.039 24 11.039C16.8397 11.039 11.0394 16.8421 11.0394 24.0017C11.0394 31.1613 16.8431 36.9644 24.0034 36.9644C27.5836 36.9644 30.8237 35.5128 33.1697 33.167L35.6687 35.6658C32.6835 38.654 28.5559 40.5 24 40.5C14.8881 40.5 7.5 33.1126 7.5 24.0017C7.5 14.8907 14.8881 7.5 24 7.5C33.1119 7.5 40.5 14.8873 40.5 23.9983C40.5 25.3547 39.9832 26.7112 38.9462 27.7481C37.1442 29.5499 34.3665 29.7844 32.3129 28.4518C30.7251 31.4162 27.5972 33.4288 24 33.4288C18.7947 33.4288 14.5719 29.2065 14.5719 24.0017C14.5719 18.7969 18.7947 14.5746 24 14.5746C29.2053 14.5746 33.4281 18.7935 33.4281 24.0017Z" class="logo"/><path d="M225.276 13.6019C225.718 14.0179 226.264 14.2259 226.914 14.2259C227.538 14.2259 228.071 14.0179 228.513 13.6019C228.955 13.16 229.176 12.614 229.176 11.9639C229.176 11.3399 228.955 10.82 228.513 10.404C228.071 9.98794 227.538 9.77994 226.914 9.77994C226.264 9.77994 225.718 9.98794 225.276 10.404C224.86 10.82 224.652 11.3399 224.652 11.9639C224.652 12.614 224.86 13.16 225.276 13.6019Z"/><path d="M225.276 18.5159V37.86H228.552V18.5159H225.276Z"/><path d="M232.006 37.86V9.77994H235.282V37.86H232.006Z"/><path fill-rule="evenodd" clip-rule="evenodd" d="M243.043 31.3469C243.953 31.6328 244.954 31.7758 246.046 31.7758C247.684 31.7758 249.062 31.4769 250.18 30.8789C251.324 30.2549 252.195 29.4228 252.793 28.3829C253.417 27.3429 253.729 26.1859 253.729 24.9119C253.729 23.4819 253.352 22.2209 252.598 21.1289L256.225 20.9729V18.5159H249.088C248.178 18.2039 247.164 18.0479 246.046 18.0479C244.408 18.0479 243.017 18.3599 241.873 18.9839C240.729 19.5818 239.858 20.4009 239.26 21.4409C238.662 22.4809 238.363 23.6379 238.363 24.9119C238.363 27.0439 239.13 28.7599 240.664 30.0599L237.349 33.3359V34.2328C237.432 34.3163 237.517 34.3983 237.604 34.4787C237.709 34.5759 237.816 34.6708 237.926 34.7634C238.092 34.9039 238.264 35.0391 238.441 35.1689C238.857 35.4289 239.351 35.6759 239.923 35.9099C238.857 36.6638 238.129 37.4569 237.739 38.2889C237.349 39.1468 237.154 39.9399 237.154 40.6679C237.154 42.0719 237.531 43.2289 238.285 44.1389C239.039 45.0749 240.092 45.7639 241.444 46.2058C242.796 46.6739 244.343 46.9079 246.085 46.9079C248.061 46.9079 249.673 46.5829 250.921 45.9329C252.195 45.2829 253.131 44.4509 253.729 43.4369C254.353 42.4229 254.665 41.3568 254.665 40.2389C254.665 38.6009 254.106 37.2749 252.988 36.2609C251.87 35.2469 250.011 34.6489 247.411 34.4669C245.955 34.3368 244.824 34.2198 244.018 34.1158L243.885 34.0941C243.811 34.082 243.739 34.0698 243.668 34.0576L243.575 34.0414L243.433 34.0159C243.179 33.9694 242.948 33.9231 242.74 33.8767C242.515 33.8264 242.316 33.7762 242.146 33.7259C241.73 33.5699 241.379 33.3879 241.093 33.1799L243.043 31.3469ZM249.322 28.0319C248.516 28.7339 247.424 29.0848 246.046 29.0848C244.642 29.0848 243.524 28.7339 242.692 28.0319C241.886 27.3039 241.483 26.2639 241.483 24.9119C241.483 23.5859 241.886 22.5719 242.692 21.8698C243.524 21.1419 244.642 20.7779 246.046 20.7779C247.424 20.7779 248.516 21.1419 249.322 21.8698C250.154 22.5719 250.57 23.5859 250.57 24.9119C250.57 26.2639 250.154 27.3039 249.322 28.0319ZM241.99 43.2419C240.898 42.6179 240.352 41.6558 240.352 40.3559C240.352 39.8359 240.521 39.2379 240.859 38.5619C241.197 37.9119 241.899 37.3009 242.965 36.7288C244.005 36.8849 245.24 37.0149 246.67 37.1189C248.49 37.2229 249.738 37.5739 250.414 38.1719C251.09 38.7958 251.428 39.5239 251.428 40.3559C251.428 41.5258 250.934 42.4619 249.946 43.1639C248.984 43.8658 247.697 44.2169 246.085 44.2169C244.447 44.2169 243.082 43.8918 241.99 43.2419Z"/><path d="M277.739 37.8599V18.5159H280.702L280.897 21.9868C281.522 20.7649 282.419 19.8029 283.589 19.1009C284.759 18.3989 286.085 18.0479 287.567 18.0479C289.855 18.0479 291.675 18.7499 293.027 20.1539C294.405 21.5319 295.093 23.6639 295.093 26.5499V37.8599H291.818V26.9008C291.818 22.8709 290.153 20.8559 286.826 20.8559C285.161 20.8559 283.771 21.4669 282.653 22.6889C281.561 23.8849 281.014 25.6009 281.014 27.8369V37.8599H277.739Z"/><path d="M264.729 38.3279C262.441 38.3279 260.621 37.6389 259.269 36.2609C257.917 34.8569 257.241 32.7119 257.241 29.8259V18.5159H260.517V29.4749C260.517 33.5049 262.168 35.5199 265.47 35.5199C267.16 35.5199 268.551 34.9219 269.643 33.7259C270.761 32.5039 271.32 30.7749 271.32 28.5389V18.5159H274.596V37.8599H271.632L271.398 34.3889C270.8 35.6109 269.903 36.5729 268.707 37.2749C267.537 37.9769 266.211 38.3279 264.729 38.3279Z"/><path fill-rule="evenodd" clip-rule="evenodd" d="M212.511 38.3279C210.898 38.3279 209.559 38.0549 208.493 37.5089C207.428 36.9629 206.635 36.2349 206.114 35.3249C205.594 34.4149 205.334 33.4269 205.334 32.3609C205.334 30.3849 206.088 28.8639 207.597 27.7979C209.104 26.7318 211.158 26.1989 213.758 26.1989H218.984V25.9649C218.984 24.2748 218.542 23.0009 217.658 22.1429C216.775 21.2589 215.591 20.8169 214.109 20.8169C212.835 20.8169 211.731 21.1419 210.794 21.7918C209.884 22.4159 209.312 23.3389 209.078 24.5609H205.724C205.854 23.1569 206.322 21.9738 207.129 21.0119C207.96 20.0499 208.987 19.3218 210.209 18.8279C211.432 18.3079 212.731 18.0479 214.109 18.0479C216.814 18.0479 218.841 18.7759 220.193 20.2319C221.572 21.6619 222.261 23.5729 222.261 25.9649V37.8599H219.335L219.14 34.3889C218.594 35.4809 217.788 36.4168 216.723 37.1969C215.682 37.9509 214.278 38.3279 212.511 38.3279ZM213.017 35.5589C214.265 35.5589 215.331 35.2339 216.215 34.5839C217.126 33.9338 217.814 33.0889 218.282 32.0489C218.75 31.0089 218.984 29.9169 218.984 28.7729V28.7339H214.031C212.108 28.7339 210.742 29.0718 209.936 29.7479C209.156 30.3979 208.766 31.2169 208.766 32.2049C208.766 33.2189 209.13 34.0378 209.858 34.6619C210.612 35.2599 211.666 35.5589 213.017 35.5589Z"/><path d="M175.5 10.5599V37.8599H178.776V16.4489L187.902 33.9598H190.359L199.485 16.4099V37.8599H202.761V10.5599H198.9L189.15 29.5919L179.322 10.5599H175.5Z"/><path d="M94.6283 15.4441C95.2322 15.9725 95.987 16.2367 96.8928 16.2367C97.8237 16.2367 98.5785 15.9725 99.1573 15.4441C99.7612 14.8906 100.063 14.1986 100.063 13.3683C100.063 12.5381 99.7612 11.8586 99.1573 11.3303C98.5785 10.7768 97.8237 10.5 96.8928 10.5C95.987 10.5 95.2322 10.7768 94.6283 11.3303C94.0496 11.8586 93.7602 12.5381 93.7602 13.3683C93.7602 14.1986 94.0496 14.8906 94.6283 15.4441Z"/><path d="M94.3264 18.8408V37.8625H99.4215V18.8408H94.3264Z"/><path d="M144.854 37.8625V10.689H149.949V21.6716C150.577 20.6904 151.409 19.8978 152.441 19.2939C153.497 18.6901 154.718 18.3882 156.101 18.3882C157.686 18.3882 159.02 18.7278 160.101 19.4072C161.184 20.0614 162.002 21.0175 162.555 22.2755C163.109 23.5335 163.385 25.0935 163.385 26.9555V37.8625H158.328V27.4083C158.328 25.8987 158.013 24.7413 157.385 23.9361C156.755 23.1058 155.762 22.6907 154.403 22.6907C153.571 22.6907 152.817 22.8919 152.138 23.2945C151.458 23.6971 150.918 24.2884 150.515 25.0683C150.138 25.8231 149.949 26.729 149.949 27.7857V37.8625H144.854Z"/><path d="M127.983 37.032C129.467 37.8874 131.166 38.3151 133.078 38.3151C135.493 38.3151 137.531 37.6736 139.192 36.3903C140.878 35.082 141.947 33.3333 142.4 31.1443H137.003C136.852 31.7483 136.588 32.2639 136.21 32.6917C135.833 33.0944 135.367 33.4088 134.814 33.6353C134.286 33.8618 133.694 33.9748 133.04 33.9748C132.386 33.9748 131.769 33.8491 131.191 33.5975C130.637 33.3459 130.159 32.9811 129.757 32.503C129.354 31.9998 129.04 31.4085 128.813 30.7291C128.587 30.0246 128.473 29.2321 128.473 28.3515C128.473 27.1941 128.662 26.2002 129.04 25.37C129.442 24.5144 129.983 23.8728 130.662 23.4451C131.367 22.9922 132.159 22.7658 133.04 22.7658C134.021 22.7658 134.864 23.0174 135.569 23.5206C136.298 24.0238 136.776 24.7158 137.003 25.5963H142.4C141.947 23.357 140.89 21.5958 139.23 20.3126C137.569 19.0294 135.518 18.3878 133.078 18.3878C131.166 18.3878 129.467 18.8281 127.983 19.7087C126.498 20.5642 125.341 21.7468 124.511 23.2564C123.68 24.7409 123.265 26.4643 123.265 28.4269C123.265 30.3391 123.68 32.0376 124.511 33.522C125.341 35.0066 126.498 36.1765 127.983 37.032Z"/><path d="M102.407 18.8407V37.8623H107.502V27.71C107.502 26.653 107.691 25.7599 108.068 25.0302C108.446 24.2755 108.962 23.6968 109.616 23.2941C110.295 22.8916 111.062 22.6903 111.918 22.6903C113.251 22.6903 114.233 23.0929 114.862 23.898C115.516 24.7031 115.843 25.8606 115.843 27.3702V37.8623H120.901V26.8795C120.901 25.0428 120.611 23.4955 120.032 22.2374C119.479 20.9794 118.661 20.0232 117.579 19.3691C116.497 18.7149 115.164 18.3878 113.579 18.3878C112.094 18.3878 110.811 18.7149 109.729 19.3691C108.672 20.0232 107.854 20.8787 107.276 21.9355L106.898 18.8407H102.407Z"/><path d="M82.0014 38.3153C80.0892 38.3153 78.3783 37.9882 76.8686 37.3341C75.3841 36.6798 74.2015 35.7237 73.3209 34.4657C72.4654 33.2077 72.0253 31.6854 72 29.8991H77.397C77.4221 30.679 77.6235 31.3836 78.0009 32.0126C78.3783 32.6415 78.8939 33.1447 79.5483 33.5221C80.2277 33.8745 81.0328 34.0507 81.9637 34.0507C82.7688 34.0507 83.4607 33.9248 84.0394 33.6732C84.6434 33.3964 85.1089 33.019 85.4357 32.5409C85.7629 32.0628 85.9264 31.4967 85.9264 30.8426C85.9264 30.0878 85.7377 29.4588 85.3603 28.9556C85.0082 28.4523 84.5048 28.0245 83.8508 27.6723C83.2216 27.3201 82.4795 27.0056 81.624 26.7288C81.141 26.5531 80.6409 26.3732 80.1238 26.189C79.7521 26.0566 79.3715 25.9221 78.982 25.7853C76.8937 25.106 75.2961 24.2001 74.189 23.0679C73.107 21.9357 72.5662 20.4386 72.5662 18.5767C72.5662 16.9915 72.9435 15.6329 73.6983 14.5007C74.4783 13.3684 75.5477 12.5003 76.9063 11.8965C78.2651 11.2927 79.8124 10.9907 81.5486 10.9907C83.335 10.9907 84.8948 11.3052 86.2284 11.9343C87.587 12.5381 88.6564 13.4187 89.4364 14.5761C90.2415 15.7335 90.6566 17.0923 90.6819 18.6522H85.2471C85.222 18.0735 85.0457 17.5325 84.7189 17.0293C84.4169 16.5009 83.989 16.0858 83.4355 15.7839C82.882 15.4568 82.2279 15.2932 81.4731 15.2932C80.8187 15.2681 80.215 15.3687 79.6613 15.5952C79.133 15.8216 78.7053 16.1613 78.3783 16.6142C78.0763 17.0419 77.9253 17.5829 77.9253 18.237C77.9253 18.8661 78.0763 19.3944 78.3783 19.8222C78.7053 20.2499 79.1457 20.6273 79.6992 20.9544C80.2527 21.2563 80.9068 21.5457 81.6617 21.8224C82.4167 22.074 83.2342 22.3382 84.115 22.615C85.4233 23.0679 86.631 23.6089 87.7379 24.2379C88.8451 24.8417 89.7257 25.6343 90.3799 26.6156C91.0342 27.5968 91.3612 28.8926 91.3612 30.503C91.3612 31.8867 90.9965 33.1699 90.2668 34.3526C89.5371 35.535 88.4804 36.4911 87.0965 37.2209C85.7377 37.9504 84.0394 38.3153 82.0014 38.3153Z"/></svg>