<svg class="sinch-icon" viewBox="0 0 49 49" fill="none" xmlns="http://www.w3.org/2000/svg"><path d="M40.9557 7.07595C36.4227 2.54195 30.4016 0.0450439 23.9901 0.0450439C17.5786 0.0450439 11.5576 2.54195 7.02451 7.07595C2.49145 11.6099 0 17.6371 0 24.045C0 30.453 2.4964 36.4801 7.02945 41.0141C11.5625 45.5481 17.5835 48.045 23.9951 48.045C27.7372 48.045 31.3458 47.1946 34.6084 45.5827L31.6919 42.6656C31.3458 42.3195 30.985 42.003 30.6093 41.7162C28.5232 42.4975 26.2937 42.9029 24 42.9029C18.9627 42.9029 14.2319 40.94 10.6727 37.38C7.11349 33.8201 5.15098 29.0834 5.15098 24.05C5.15098 19.0166 7.11349 14.2799 10.6727 10.72C14.2319 7.16 18.9677 5.19708 24 5.19708C29.0323 5.19708 33.7681 7.16 37.3273 10.72C40.8865 14.2799 42.849 19.0166 42.849 24.05C42.849 24.1637 42.849 24.2774 42.849 24.3912C42.7798 28.4357 41.4402 32.2675 39.0278 35.4418L38.9685 35.3825C36.9022 33.3158 34.4849 31.7335 31.855 30.6804C33.3726 28.8905 34.2871 26.5716 34.2871 24.05C34.2871 18.3788 29.675 13.7657 24.0049 13.7657C18.3349 13.7657 13.7228 18.3788 13.7228 24.05C13.7228 26.5766 14.6373 28.8905 16.1549 30.6804C15.0723 31.1155 14.0243 31.6347 13.0208 32.2478C14.1182 33.7162 15.5073 34.9573 17.0941 35.8918C19.2297 34.8732 21.5481 34.3541 23.8665 34.3343C23.911 34.3343 23.9605 34.3343 24.0049 34.3343C24.0445 34.3343 24.089 34.3343 24.1285 34.3343C28.192 34.364 32.2406 35.9264 35.3351 39.0216L35.3944 39.0809C35.3944 39.0809 35.3944 39.0809 35.3895 39.0858L39.0525 42.7496C39.7199 42.2107 40.3576 41.6371 40.9705 41.024C45.1773 36.8164 47.6292 31.3182 47.9605 25.4196C47.9852 24.9647 48 24.5148 48 24.0549C48 17.647 45.5036 11.6198 40.9705 7.08584L40.9557 7.07595ZM18.849 24.045C18.849 21.2119 21.1576 18.9029 23.9901 18.9029C26.8227 18.9029 29.1312 21.2119 29.1312 24.045C29.1312 26.8782 26.971 29.0389 24.2571 29.1823C24.1681 29.1823 24.0791 29.1823 23.9901 29.1823C23.9011 29.1823 23.8023 29.1823 23.7083 29.1823C21.0043 29.0339 18.849 26.7892 18.849 24.05V24.045Z" fill="black"/></svg>