<svg class="sinch-icon" viewBox="0 0 234 48" fill="none" xmlns="http://www.w3.org/2000/svg" preserveAspectRatio="xMinYMin meet"><path d="M66.2843 40.0832C63.7336 40.0832 61.5395 39.5389 59.7111 38.4459C57.8827 37.3528 56.4742 35.8324 55.4855 33.8757C54.4968 31.919 54.0047 29.661 54.0047 27.0925C54.0047 24.5241 54.4968 22.257 55.4855 20.2913C56.4742 18.3256 57.8827 16.7872 59.7111 15.6852C61.5395 14.5831 63.7336 14.0298 66.2843 14.0298C69.3181 14.0298 71.8057 14.781 73.7424 16.2789C75.6792 17.7768 76.8891 19.8819 77.3721 22.5943H72.2797C71.9682 21.2269 71.3 20.1518 70.2752 19.3737C69.2504 18.5955 67.896 18.2041 66.2121 18.2041C63.8781 18.2041 62.0451 18.9958 60.7224 20.5792C59.3996 22.1625 58.736 24.3351 58.736 27.0925C58.736 29.8499 59.3996 32.018 60.7224 33.5879C62.0451 35.1577 63.8781 35.9449 66.2121 35.9449C67.896 35.9449 69.2504 35.5806 70.2752 34.8474C71.3 34.1142 71.9682 33.1021 72.2797 31.8066H77.3721C76.8891 34.3975 75.6792 36.4262 73.7424 37.8881C71.8057 39.35 69.3181 40.0832 66.2843 40.0832Z" fill="black"/><path d="M85.7151 40.0832C84.1756 40.0832 82.9115 39.8358 81.9228 39.3455C80.9341 38.8552 80.2028 38.1985 79.7197 37.3843C79.2367 36.5702 78.9974 35.6705 78.9974 34.6854C78.9974 33.0301 79.6475 31.6851 80.9477 30.6551C82.2479 29.625 84.1982 29.1077 86.7986 29.1077H91.3493V28.6759C91.3493 27.4524 91.0017 26.5527 90.3019 25.977C89.6021 25.4012 88.7353 25.1133 87.7015 25.1133C86.7625 25.1133 85.9453 25.3337 85.2456 25.779C84.5458 26.2244 84.1124 26.8766 83.9454 27.7402H79.4308C79.5527 26.4448 79.9906 25.3157 80.749 24.3576C81.5075 23.3995 82.4872 22.6618 83.6926 22.1445C84.8979 21.6272 86.2433 21.3708 87.7376 21.3708C90.2884 21.3708 92.3019 22.0051 93.7691 23.2781C95.2363 24.551 95.9722 26.3503 95.9722 28.6759V39.6514H92.0355L91.6021 36.7726C91.0739 37.7307 90.3335 38.5224 89.3809 39.1476C88.4283 39.7728 87.2094 40.0832 85.7151 40.0832ZM86.7625 36.4847C88.0852 36.4847 89.1146 36.0529 89.8504 35.1892C90.5863 34.3256 91.0468 33.2595 91.2409 31.9865H87.3042C86.0763 31.9865 85.1959 32.2069 84.6677 32.6523C84.1395 33.0976 83.8731 33.6418 83.8731 34.2896C83.8731 34.9868 84.1395 35.5266 84.6677 35.9089C85.1959 36.2913 85.8957 36.4847 86.7625 36.4847Z" fill="black"/><path d="M98.5726 39.6514V21.8027H102.654L103.051 24.2137C103.629 23.35 104.392 22.6618 105.344 22.1445C106.297 21.6272 107.399 21.3708 108.649 21.3708C111.417 21.3708 113.38 22.4369 114.536 24.5735C115.186 23.5884 116.058 22.8103 117.155 22.2345C118.252 21.6587 119.448 21.3708 120.748 21.3708C123.082 21.3708 124.879 22.0681 126.13 23.458C127.38 24.8479 128.008 26.8901 128.008 29.5755V39.6514H123.385V30.0073C123.385 28.4734 123.091 27.2949 122.5 26.4808C121.908 25.6666 121.001 25.2573 119.773 25.2573C118.545 25.2573 117.516 25.7116 116.757 26.6247C115.999 27.5378 115.62 28.8063 115.62 30.4391V39.6514H110.997V30.0073C110.997 28.4734 110.694 27.2949 110.094 26.4808C109.493 25.6666 108.563 25.2573 107.313 25.2573C106.062 25.2573 105.092 25.7116 104.333 26.6247C103.575 27.5378 103.196 28.8063 103.196 30.4391V39.6514H98.5726Z" fill="black"/><path d="M130.608 47.5682V21.8027H134.725L135.231 24.3576C135.809 23.5659 136.572 22.8687 137.524 22.2705C138.477 21.6722 139.709 21.3708 141.226 21.3708C142.91 21.3708 144.418 21.7802 145.741 22.5943C147.064 23.4085 148.111 24.5241 148.883 25.941C149.655 27.3579 150.039 28.9637 150.039 30.763C150.039 32.5623 149.655 34.1636 148.883 35.5671C148.111 36.9705 147.064 38.0725 145.741 38.8777C144.418 39.6829 142.91 40.0832 141.226 40.0832C139.876 40.0832 138.698 39.8313 137.687 39.3275C136.676 38.8237 135.859 38.1175 135.231 37.2044V47.5682H130.608ZM140.251 36.0529C141.718 36.0529 142.937 35.5626 143.899 34.5775C144.861 33.5924 145.344 32.3239 145.344 30.763C145.344 29.2022 144.861 27.9202 143.899 26.9126C142.937 25.905 141.718 25.4012 140.251 25.4012C138.784 25.4012 137.538 25.9005 136.585 26.8946C135.633 27.8887 135.159 29.1662 135.159 30.727C135.159 32.2879 135.633 33.5654 136.585 34.5595C137.538 35.5536 138.757 36.0529 140.251 36.0529Z" fill="black"/><path d="M158.526 40.0832C156.987 40.0832 155.723 39.8358 154.734 39.3455C153.745 38.8552 153.014 38.1985 152.531 37.3843C152.048 36.5702 151.809 35.6705 151.809 34.6854C151.809 33.0301 152.459 31.6851 153.759 30.6551C155.059 29.625 157.009 29.1077 159.61 29.1077H164.16V28.6759C164.16 27.4524 163.813 26.5527 163.113 25.977C162.413 25.4012 161.546 25.1133 160.513 25.1133C159.574 25.1133 158.756 25.3337 158.057 25.779C157.357 26.2244 156.924 26.8766 156.757 27.7402H152.242C152.364 26.4448 152.802 25.3157 153.56 24.3576C154.319 23.3995 155.298 22.6618 156.504 22.1445C157.709 21.6272 159.054 21.3708 160.549 21.3708C163.1 21.3708 165.113 22.0051 166.58 23.2781C168.047 24.551 168.783 26.3503 168.783 28.6759V39.6514H164.847L164.413 36.7726C163.885 37.7307 163.145 38.5224 162.192 39.1476C161.24 39.7728 160.021 40.0832 158.526 40.0832ZM159.574 36.4847C160.896 36.4847 161.926 36.0529 162.662 35.1892C163.397 34.3256 163.858 33.2595 164.052 31.9865H160.115C158.887 31.9865 158.007 32.2069 157.479 32.6523C156.951 33.0976 156.684 33.6418 156.684 34.2896C156.684 34.9868 156.951 35.5266 157.479 35.9089C158.007 36.2913 158.707 36.4847 159.574 36.4847Z" fill="black"/><path d="M173.876 19.0318C173.032 19.0318 172.341 18.7799 171.799 18.2761C171.257 17.7723 170.986 17.1381 170.986 16.3689C170.986 15.5997 171.257 14.9699 171.799 14.4796C172.341 13.9893 173.032 13.7419 173.876 13.7419C174.72 13.7419 175.411 13.9893 175.953 14.4796C176.494 14.9699 176.765 15.5997 176.765 16.3689C176.765 17.1381 176.494 17.7723 175.953 18.2761C175.411 18.7799 174.72 19.0318 173.876 19.0318ZM171.564 39.6514V21.8027H176.187V39.6514H171.564Z" fill="black"/><path d="M186.806 34.3256C185.939 34.3256 185.131 34.2311 184.386 34.0377L183.049 35.3691C183.46 35.5851 184.011 35.765 184.711 35.9089C185.411 36.0529 186.539 36.1968 188.106 36.3407C190.489 36.5567 192.223 37.1189 193.307 38.0321C194.39 38.9452 194.932 40.2047 194.932 41.8105C194.932 42.8676 194.643 43.8662 194.065 44.8153C193.487 45.7644 192.598 46.5291 191.392 47.1184C190.187 47.7076 188.648 48 186.769 48C184.219 48 182.16 47.5277 180.594 46.5786C179.027 45.6295 178.246 44.208 178.246 42.3143C178.246 40.7085 179.027 39.314 180.594 38.14C180.11 37.9241 179.695 37.6947 179.347 37.4563C179 37.2179 178.693 36.966 178.427 36.7006V35.8729L181.569 32.5623C180.174 31.3388 179.474 29.7689 179.474 27.8482C179.474 26.6472 179.767 25.5586 180.359 24.5735C180.95 23.5884 181.785 22.8103 182.869 22.2345C183.952 21.6587 185.266 21.3708 186.806 21.3708C187.817 21.3708 188.756 21.5148 189.623 21.8027H196.413V24.6095L193.343 24.8254C193.826 25.7386 194.065 26.7462 194.065 27.8482C194.065 29.0492 193.776 30.1378 193.198 31.1229C192.62 32.108 191.785 32.8862 190.688 33.4619C189.591 34.0377 188.3 34.3256 186.806 34.3256ZM182.472 41.8465C182.472 42.7326 182.887 43.3984 183.718 43.8437C184.548 44.289 185.564 44.5094 186.769 44.5094C187.975 44.5094 188.864 44.2755 189.587 43.8077C190.309 43.3399 190.67 42.7102 190.67 41.9185C190.67 41.2707 190.435 40.731 189.966 40.2991C189.496 39.8673 188.562 39.6019 187.167 39.5075C186.178 39.4355 185.266 39.3275 184.422 39.1836C183.722 39.5659 183.226 39.9888 182.923 40.4431C182.621 40.8974 182.472 41.3652 182.472 41.8465ZM186.806 30.799C187.745 30.799 188.521 30.5471 189.135 30.0433C189.749 29.5395 190.056 28.8198 190.056 27.8842C190.056 26.9486 189.749 26.2289 189.135 25.7251C188.521 25.2213 187.745 24.9694 186.806 24.9694C185.817 24.9694 185.022 25.2213 184.422 25.7251C183.821 26.2289 183.519 26.9486 183.519 27.8842C183.519 28.8198 183.821 29.5395 184.422 30.0433C185.022 30.5471 185.817 30.799 186.806 30.799Z" fill="black"/><path d="M197.966 39.6514V21.8027H202.047L202.408 24.8254C202.963 23.7684 203.762 22.9317 204.81 22.3065C205.857 21.6812 207.09 21.3708 208.512 21.3708C210.728 21.3708 212.448 22.0681 213.676 23.458C214.904 24.8479 215.518 26.8901 215.518 29.5755V39.6514H210.895V30.0073C210.895 28.4734 210.584 27.2949 209.956 26.4808C209.329 25.6666 208.354 25.2573 207.031 25.2573C205.708 25.2573 204.665 25.7116 203.835 26.6247C203.004 27.5378 202.589 28.8063 202.589 30.4391V39.6514H197.966Z" fill="black"/><path d="M225.523 40.0832C223.933 40.0832 222.538 39.8268 221.333 39.3095C220.128 38.7922 219.166 38.0815 218.444 37.1684C217.721 36.2553 217.288 35.2027 217.144 34.0017H221.803C221.947 34.6989 222.34 35.2927 222.976 35.783C223.613 36.2733 224.439 36.5207 225.45 36.5207C226.462 36.5207 227.202 36.3183 227.672 35.9089C228.141 35.4996 228.376 35.0318 228.376 34.5055C228.376 33.7363 228.037 33.2145 227.365 32.9401C226.692 32.6657 225.753 32.3959 224.547 32.1305C223.775 31.964 222.994 31.7571 222.2 31.5187C221.405 31.2803 220.678 30.9744 220.015 30.6011C219.351 30.2277 218.818 29.7509 218.408 29.1617C217.997 28.5724 217.794 27.8482 217.794 26.9846C217.794 25.4012 218.426 24.0697 219.69 22.9902C220.954 21.9106 222.728 21.3708 225.017 21.3708C227.134 21.3708 228.827 21.8611 230.091 22.8462C231.355 23.8313 232.109 25.1853 232.349 26.9126H227.979C227.712 25.5946 226.714 24.9334 224.981 24.9334C224.114 24.9334 223.446 25.0998 222.976 25.4372C222.507 25.7746 222.272 26.1929 222.272 26.6967C222.272 27.2005 222.62 27.6458 223.32 27.9562C224.019 28.2665 224.945 28.5544 226.1 28.8198C227.351 29.1077 228.502 29.4271 229.55 29.7734C230.597 30.1198 231.432 30.6371 232.06 31.3208C232.687 32.0045 232.999 32.9806 232.999 34.2536C233.021 35.3556 232.732 36.3542 232.132 37.2404C231.532 38.1265 230.665 38.8237 229.532 39.3275C228.398 39.8313 227.062 40.0832 225.523 40.0832Z" fill="black"/><path d="M58.0678 9.12228C57.4177 9.12228 56.8444 9.00983 56.3478 8.78942C55.8512 8.56901 55.4584 8.24964 55.174 7.83131C54.8895 7.41748 54.7406 6.90919 54.7315 6.31543H56.4381C56.4561 6.72926 56.6051 7.07562 56.885 7.3545C57.1649 7.63339 57.5577 7.77733 58.0543 7.77733C58.4832 7.77733 58.8263 7.67388 59.0791 7.46696C59.3319 7.26004 59.4583 6.98566 59.4583 6.64379C59.4583 6.30193 59.3454 6.00056 59.1242 5.79814C58.903 5.59572 58.6051 5.43379 58.2349 5.30784C57.8647 5.18189 57.4674 5.04695 57.0475 4.903C56.3658 4.6691 55.8421 4.36772 55.4855 3.99437C55.1288 3.62552 54.9482 3.13522 54.9482 2.51897C54.9392 1.99719 55.0656 1.55187 55.3229 1.17852C55.5803 0.805172 55.9324 0.517289 56.3794 0.310373C56.8263 0.103458 57.341 0 57.9233 0C58.5057 0 59.0339 0.103458 59.4854 0.314872C59.9369 0.526286 60.289 0.818667 60.5463 1.19651C60.8036 1.57436 60.9391 2.02418 60.9571 2.54596H59.2235C59.2145 2.23559 59.0971 1.9612 58.8624 1.7228C58.6321 1.4844 58.3071 1.36294 57.8963 1.36294C57.5441 1.35395 57.2462 1.43941 57.0069 1.61934C56.7676 1.79927 56.6457 2.06016 56.6457 2.40652C56.6457 2.6989 56.7405 2.93281 56.9256 3.10374C57.1107 3.27467 57.3635 3.42311 57.6841 3.54006C58.0046 3.65701 58.3703 3.78296 58.7856 3.9179C59.2235 4.07084 59.6253 4.24627 59.9865 4.44869C60.3477 4.65111 60.6411 4.9165 60.8578 5.24936C61.079 5.58223 61.1874 6.00506 61.1874 6.52684C61.1874 6.99015 61.07 7.41748 60.8352 7.81332C60.6005 8.20916 60.2484 8.52403 59.7879 8.76243C59.3229 9.00083 58.754 9.12228 58.0814 9.12228H58.0678Z" fill="black"/><path d="M65.1196 8.97385V0.157436H66.7358V8.97385H65.1196Z" fill="black"/><path d="M70.984 8.97385V0.157436H72.6002L76.7582 6.36491V0.157436H78.3744V8.97385H76.7582L72.6002 2.77537V8.97385H70.984Z" fill="black"/><path d="M86.6361 9.12229C85.7422 9.12229 84.9747 8.93336 84.3336 8.55102C83.6926 8.16867 83.2005 7.63789 82.8529 6.94967C82.5052 6.26595 82.3337 5.47427 82.3337 4.57464C82.3337 3.675 82.5052 2.88333 82.8529 2.19511C83.196 1.50689 83.6926 0.967106 84.3336 0.584762C84.9747 0.19792 85.7422 0.00449809 86.6361 0.00449809C87.697 0.00449809 88.5683 0.265392 89.2455 0.791678C89.9227 1.31796 90.3471 2.05116 90.5141 3.00028H88.7308C88.6225 2.52347 88.3877 2.14563 88.0311 1.87124C87.6744 1.59685 87.2004 1.4619 86.609 1.4619C85.7919 1.4619 85.1508 1.74079 84.6858 2.29407C84.2208 2.84734 83.9905 3.60753 83.9905 4.57464C83.9905 5.54174 84.2208 6.29744 84.6858 6.84621C85.1508 7.39499 85.7919 7.66938 86.609 7.66938C87.2004 7.66938 87.6744 7.54343 88.0311 7.28703C88.3877 7.03064 88.6225 6.67528 88.7308 6.22097H90.5141C90.3471 7.1296 89.9227 7.83581 89.2455 8.3486C88.5683 8.86139 87.697 9.11779 86.6361 9.11779V9.12229Z" fill="black"/><path d="M94.4734 8.97385V0.157436H96.0896V3.82344H100.058V0.157436H101.674V8.97385H100.058V5.13241H96.0896V8.97385H94.4734Z" fill="black"/><path d="M38.5964 15.0464C37.1744 11.0655 35.2376 7.49848 33.1473 5.002C32.0322 3.67054 30.8991 2.67644 29.784 2.0512C27.8969 0.994129 26.3845 1.16956 25.4455 1.50242C24.818 1.72283 24.0369 2.16365 23.3507 3.0273L0.845529 21.3259L0.6198 21.8027C0.479848 22.095 -0.707487 24.7759 0.628829 28.5184C1.96514 32.2609 4.58812 33.5924 4.88156 33.7318L5.36011 33.9567H14.6556L21.888 41.1628V34.546L16.6014 29.2786H6.59259C6.18176 28.9413 5.50909 28.226 5.05312 26.9486C4.59715 25.6711 4.66938 24.695 4.7687 24.1732L21.7255 10.3548C21.7255 10.3548 21.7255 10.3773 21.7255 10.3908C21.8744 13.3686 22.6148 16.8232 23.8518 20.2778C25.0888 23.7324 26.705 26.8766 28.4793 29.2786H21.8925V33.9567H34.4114C34.7997 34.0422 35.1609 34.0782 35.4949 34.0782C36.0909 34.0782 36.601 33.9657 37.0028 33.8218C37.9418 33.4889 39.224 32.6702 40.0185 30.6641C40.4881 29.4765 40.7318 27.9966 40.7499 26.2603C40.7499 26.1884 40.7499 26.1164 40.7499 26.0444C40.7499 22.8327 39.9915 18.9418 38.5964 15.0464ZM28.2761 18.7079C27.1384 15.5232 26.4703 12.334 26.4026 9.72507C26.3484 7.79536 26.6328 6.7158 26.8676 6.21201C26.9263 6.08156 26.9849 5.99159 27.0301 5.93312C27.0662 5.94211 27.1114 5.95561 27.161 5.9691C27.608 6.13104 28.5876 6.74729 29.9239 8.47009C30.723 9.50017 31.4995 10.7417 32.2219 12.1226C32.9397 13.5035 33.6033 15.0194 34.1722 16.6118C35.3098 19.7965 35.978 22.9857 36.0457 25.5946C36.1044 27.7717 35.7342 28.8693 35.4904 29.2741C35.4633 29.3191 35.4362 29.3596 35.4137 29.3866C35.3414 29.3731 35.2376 29.3371 35.1112 29.2741C34.6101 29.0312 33.7026 28.3745 32.5198 26.8451C30.9217 24.7804 29.4138 21.8881 28.2716 18.7034L28.2761 18.7079Z" fill="black"/></svg>