<svg class="sinch-icon" viewBox="0 0 207 48" fill="none" xmlns="http://www.w3.org/2000/svg"><path d="M57.8039 9.5442C57.157 9.5442 56.5865 9.4317 56.0923 9.21121C55.5981 8.99072 55.2073 8.67123 54.9243 8.25274C54.6412 7.83425 54.493 7.33027 54.484 6.73629H56.1821C56.2001 7.15027 56.3484 7.49226 56.6269 7.77575C56.9054 8.05924 57.2963 8.19874 57.7904 8.19874C58.2172 8.19874 58.5586 8.09524 58.8102 7.88825C59.0618 7.68126 59.1876 7.40677 59.1876 7.06478C59.1876 6.72279 59.0753 6.4213 58.8551 6.2188C58.635 6.01631 58.3385 5.85431 57.9701 5.72832L57.8116 5.6741C57.489 5.56381 57.1471 5.44688 56.7886 5.32333C56.1103 5.08934 55.5891 4.78785 55.2342 4.41436C54.8793 4.04537 54.6996 3.55489 54.6996 2.9384C54.6907 2.41642 54.8164 1.97093 55.0725 1.59745C55.3286 1.22396 55.679 0.935967 56.1237 0.728973C56.5685 0.521979 57.0806 0.418483 57.6601 0.418483C58.2397 0.418483 58.7653 0.52198 59.2145 0.733473C59.6638 0.944966 60.0142 1.23746 60.2702 1.61545C60.5263 1.99343 60.6611 2.44342 60.6791 2.9654H58.954C58.945 2.65491 58.8282 2.38042 58.5946 2.14193C58.361 1.90344 58.042 1.78194 57.6332 1.78194C57.2828 1.77294 56.9863 1.85844 56.7482 2.03843C56.5101 2.21843 56.3888 2.47942 56.3888 2.82591C56.3888 3.1184 56.4831 3.35239 56.6673 3.52339C56.8515 3.69438 57.1031 3.84288 57.422 3.95987C57.741 4.07687 58.1049 4.20286 58.5182 4.33786C58.954 4.49086 59.3538 4.66635 59.7132 4.86884C60.0726 5.07134 60.3646 5.33683 60.5802 5.66982C60.8003 6.00281 60.9082 6.4258 60.9082 6.94778C60.9082 7.41127 60.7914 7.83875 60.5578 8.23474C60.3242 8.63073 59.9737 8.94572 59.5155 9.18421C59.0528 9.4227 58.4868 9.5442 57.8174 9.5442H57.8039Z" fill="black"/><path d="M64.8211 9.3912V0.571478H66.4294V9.3912H64.8211Z" fill="black"/><path d="M70.6567 0.571478V9.3912H72.265V3.1904L76.4025 9.3912H78.0108V0.571478H76.4025V6.78128L72.265 0.571478H70.6567Z" fill="black"/><path d="M86.232 9.5442C85.3425 9.5442 84.5787 9.35521 83.9408 8.97272C83.3029 8.59023 82.8132 8.05925 82.4673 7.37077C82.1214 6.68679 81.9507 5.89481 81.9507 4.99484C81.9507 4.09487 82.1214 3.30289 82.4673 2.61441C82.8087 1.92594 83.3029 1.39045 83.9408 1.00346C84.5787 0.616476 85.3425 0.422982 86.232 0.422982C87.2877 0.422982 88.1547 0.683974 88.8286 1.21046C89.5024 1.73694 89.9247 2.47042 90.0909 3.41989H88.3164C88.2086 2.9429 87.975 2.56492 87.6201 2.29042C87.2652 2.01593 86.7935 1.88094 86.205 1.88094C85.3919 1.88094 84.7539 2.15993 84.2912 2.71341C83.8285 3.26689 83.5994 4.02737 83.5994 4.99484C83.5994 5.96231 83.8285 6.71829 84.2912 7.26727C84.7539 7.81625 85.3919 8.09074 86.205 8.09074C86.7935 8.09074 87.2652 7.96025 87.6201 7.70826C87.975 7.45176 88.2086 7.09628 88.3164 6.64179H90.0909C89.9247 7.55076 89.5024 8.25724 88.8286 8.77022C88.1547 9.28321 87.2877 9.5397 86.232 9.5397V9.5442Z" fill="black"/><path d="M94.0308 0.571478V9.3912H95.6391V5.54832H99.5879V9.3912H101.196V0.571478H99.5879V4.23886H95.6391V0.571478H94.0308Z" fill="black"/><path d="M79.1699 40.0802V14.161H83.7702V24.9607C84.3677 23.9752 85.1763 23.2013 86.1961 22.6388C87.2159 22.0763 88.3839 21.7928 89.7002 21.7928C91.906 21.7928 93.6131 22.4903 94.8215 23.8807C96.03 25.2712 96.6365 27.3141 96.6365 30.0006V40.0802H92.0722V30.4325C92.0722 28.8981 91.7667 27.7191 91.1557 26.9047C90.5448 26.0902 89.5789 25.6807 88.2626 25.6807C86.9463 25.6807 85.8951 26.1352 85.046 27.0486C84.197 27.9621 83.7702 29.2311 83.7702 30.8645V40.0802H79.1699Z" fill="black"/><path d="M65.9802 40.5122C63.442 40.5122 61.2587 39.9677 59.4392 38.8743C57.6198 37.7808 56.2182 36.2599 55.2343 34.3024C54.2505 32.345 53.7608 30.0861 53.7608 27.5166C53.7608 24.9472 54.2505 22.6793 55.2343 20.7128C56.2182 18.7464 57.6198 17.2075 59.4392 16.105C61.2587 15.0025 63.442 14.449 65.9802 14.449C68.9991 14.449 71.4744 15.2005 73.4017 16.699C75.3289 18.1974 76.5329 20.3034 77.0136 23.0168H71.9461C71.6362 21.6488 70.9713 20.5733 69.9515 19.7949C68.9317 19.0164 67.584 18.6249 65.9083 18.6249C63.5857 18.6249 61.7618 19.4169 60.4455 21.0008C59.1292 22.5848 58.4689 24.7582 58.4689 27.5166C58.4689 30.275 59.1292 32.444 60.4455 34.0144C61.7618 35.5849 63.5857 36.3724 65.9083 36.3724C67.584 36.3724 68.9317 36.0079 69.9515 35.2744C70.9713 34.5409 71.6362 33.5284 71.9461 32.2325H77.0136C76.5329 34.8244 75.3289 36.8538 73.4017 38.3163C71.4744 39.7788 68.9991 40.5122 65.9802 40.5122Z" fill="black"/><path fill-rule="evenodd" clip-rule="evenodd" d="M101.596 39.7743C102.58 40.2647 103.838 40.5122 105.37 40.5122C106.857 40.5122 108.07 40.2017 109.018 39.5763C109.965 38.9508 110.702 38.1588 111.228 37.2003L111.659 40.0802H115.577V29.1006C115.577 26.7742 114.844 24.9742 113.384 23.7008C111.924 22.4273 109.921 21.7928 107.382 21.7928C105.895 21.7928 104.557 22.0493 103.357 22.5668C102.158 23.0843 101.183 23.8222 100.428 24.7807C99.6734 25.7392 99.2376 26.8687 99.1163 28.1646H103.609C103.775 27.3006 104.206 26.6482 104.903 26.2027C105.599 25.7572 106.412 25.5367 107.346 25.5367C108.375 25.5367 109.238 25.8247 109.934 26.4007C110.63 26.9766 110.976 27.8766 110.976 29.1006V29.5326H106.448C103.86 29.5326 101.92 30.0501 100.626 31.0805C99.3319 32.111 98.685 33.4565 98.685 35.1124C98.685 36.0979 98.9231 36.9978 99.4038 37.8123C99.8845 38.6268 100.612 39.2838 101.596 39.7743ZM109.485 35.6164C108.753 36.4804 107.728 36.9123 106.412 36.9123C105.549 36.9123 104.853 36.7188 104.328 36.3364C103.802 35.9539 103.537 35.4139 103.537 34.7164C103.537 34.0684 103.802 33.524 104.328 33.0785C104.853 32.633 105.729 32.4125 106.951 32.4125H110.868C110.675 33.6859 110.217 34.7524 109.485 35.6164Z" fill="black"/><path d="M125.855 40.0802C123.986 40.0802 122.49 39.6258 121.363 38.7123C120.235 37.7988 119.674 36.1789 119.674 33.8524V26.0767H116.619V22.2248H119.674L120.213 17.4369H124.274V22.2248H129.09V26.0767H124.274V33.8884C124.274 34.7524 124.458 35.3464 124.831 35.6704C125.204 35.9944 125.842 36.1564 126.754 36.1564H128.982V40.0802H125.855Z" fill="black"/><path d="M131.246 14.161V40.0802H135.846V14.161H131.246Z" fill="black"/><path fill-rule="evenodd" clip-rule="evenodd" d="M144.903 40.5122C143.371 40.5122 142.113 40.2647 141.129 39.7743C140.146 39.2838 139.418 38.6268 138.937 37.8123C138.456 36.9978 138.218 36.0979 138.218 35.1124C138.218 33.4565 138.865 32.111 140.159 31.0805C141.453 30.0501 143.394 29.5326 145.981 29.5326H150.51V29.1006C150.51 27.8766 150.164 26.9766 149.467 26.4007C148.771 25.8247 147.908 25.5367 146.88 25.5367C145.945 25.5367 145.132 25.7572 144.436 26.2027C143.74 26.6482 143.308 27.3006 143.142 28.1646H138.65C138.771 26.8687 139.207 25.7392 139.961 24.7807C140.716 23.8222 141.691 23.0843 142.89 22.5668C144.09 22.0493 145.429 21.7928 146.916 21.7928C149.454 21.7928 151.458 22.4273 152.918 23.7008C154.378 24.9742 155.11 26.7742 155.11 29.1006V40.0802H151.192L150.761 37.2003C150.236 38.1588 149.499 38.9508 148.551 39.5763C147.603 40.2017 146.39 40.5122 144.903 40.5122ZM145.945 36.9123C147.262 36.9123 148.286 36.4804 149.018 35.6164C149.75 34.7524 150.209 33.6859 150.402 32.4125H146.484C145.262 32.4125 144.386 32.633 143.861 33.0785C143.335 33.524 143.07 34.0684 143.07 34.7164C143.07 35.4139 143.335 35.9539 143.861 36.3364C144.386 36.7188 145.083 36.9123 145.945 36.9123Z" fill="black"/><path d="M163.448 38.8923L159.315 48H164.202L175.523 22.2248H170.636L165.424 34.7884L160.429 22.2248H155.433L162.37 38.8923H163.448Z" fill="black"/><path fill-rule="evenodd" clip-rule="evenodd" d="M183.861 40.5122C182.064 40.5122 180.47 40.1297 179.081 39.3603C177.693 38.5908 176.602 37.5108 175.811 36.1204C175.02 34.7299 174.625 33.119 174.625 31.2965C174.625 29.4741 175.016 27.8046 175.793 26.3647C176.57 24.9247 177.648 23.8042 179.027 22.9988C180.407 22.1933 182.028 21.7928 183.897 21.7928C185.645 21.7928 187.19 22.1753 188.533 22.9448C189.877 23.7142 190.923 24.7627 191.678 26.0947C192.433 27.4266 192.81 28.9071 192.81 30.5405C192.81 30.806 192.806 31.0805 192.792 31.3685C192.779 31.6565 192.761 31.958 192.738 32.2685H179.189C179.284 33.6589 179.769 34.7524 180.645 35.5444C181.521 36.3364 182.581 36.7323 183.825 36.7323C184.76 36.7323 185.546 36.5209 186.179 36.1024C186.813 35.6839 187.289 35.1349 187.599 34.4644H192.271C191.934 35.5939 191.377 36.6199 190.6 37.5423C189.823 38.4648 188.861 39.1938 187.725 39.7203C186.588 40.2467 185.299 40.5122 183.861 40.5122ZM183.897 25.5367C182.77 25.5367 181.777 25.8562 180.914 26.4907C180.052 27.1251 179.499 28.0926 179.261 29.3886H188.138C188.066 28.2141 187.635 27.2781 186.844 26.5807C186.054 25.8832 185.07 25.5367 183.897 25.5367Z" fill="black"/><path d="M194.895 22.2248V40.0802H199.495V31.9445C199.495 30.5765 199.715 29.5101 200.16 28.7406C200.605 27.9711 201.22 27.4311 202.011 27.1206C202.801 26.8102 203.7 26.6527 204.706 26.6527H206V21.7928C204.491 21.7928 203.179 22.1348 202.065 22.8188C200.951 23.5028 200.07 24.4207 199.423 25.5727L198.992 22.2248H194.895Z" fill="black"/><path d="M31.9276 7.01978H31.0067C30.2744 3.03291 26.7748 0 22.5834 0H8.56705C3.84551 0 0 3.85188 0 8.58123V17.9409C0 22.1393 3.02789 25.6402 7.00818 26.3782V27.3007C7.00818 32.03 10.8492 35.8819 15.5752 35.8819H21.6175L28.8144 43.0907V36.4714L23.5538 31.202H15.5797C13.4323 31.202 11.6848 29.4516 11.6848 27.3007V26.5222H31.1505V11.7041H31.9276C34.075 11.7041 35.8226 13.4546 35.8226 15.6055V31.2065H30.1711L34.8432 35.8864H40.4947V15.6055C40.4947 10.8762 36.6537 7.02428 31.9276 7.02428V7.01978ZM26.4783 21.8378H8.56705C6.41967 21.8378 4.67212 20.0874 4.67212 17.9364V8.57673C4.67212 6.4258 6.41967 4.67535 8.56705 4.67535H22.5834C24.7308 4.67535 26.4783 6.4258 26.4783 8.57673V21.8378Z" fill="black"/></svg>