<svg class="sinch-icon" viewBox="0 0 165 48" fill="none" xmlns="http://www.w3.org/2000/svg"><path d="M16.2239 20.2239C18.3094 18.1384 21.6906 18.1384 23.7761 20.2239C25.8615 22.3094 25.8615 25.6906 23.7761 27.776C21.6906 29.8615 18.3094 29.8615 16.2239 27.776C14.1385 25.6906 14.1385 22.3094 16.2239 20.2239Z" fill="black"/><path fill-rule="evenodd" clip-rule="evenodd" d="M20 6.21367C18.6719 5.59871 17.3476 5.10491 16.0473 4.74083C11.3507 3.42577 6.33894 3.67655 3.00776 7.00773C-0.32342 10.3389 -0.574198 15.3507 0.740856 20.0473C1.10494 21.3476 1.59873 22.6719 2.21369 24C1.59872 25.3281 1.10492 26.6524 0.740826 27.9527C-0.574228 32.6493 -0.323451 37.6611 3.00773 40.9922C6.33891 44.3234 11.3507 44.5742 16.0473 43.2592C17.3476 42.8951 18.6719 42.4013 20 41.7863C21.3281 42.4013 22.6524 42.8951 23.9527 43.2591C28.6493 44.5742 33.6611 44.3234 36.9923 40.9922C40.3235 37.6611 40.5742 32.6493 39.2592 27.9527C38.8951 26.6524 38.4013 25.3281 37.7863 24C38.4013 22.6719 38.8951 21.3476 39.2591 20.0473C40.5742 15.3507 40.3234 10.3389 36.9922 7.00773C33.6611 3.67655 28.6493 3.42578 23.9527 4.74083C22.6524 5.10492 21.3281 5.59871 20 6.21367ZM14.0956 9.74799C10.5293 8.86358 8.08364 9.48396 6.78382 10.7838C5.484 12.0836 4.86361 14.5292 5.74802 18.0955C6.88831 16.5538 8.18238 15.0493 9.61583 13.6158C11.0493 12.1824 12.5539 10.8883 14.0956 9.74799ZM34.252 18.0955C33.1117 16.5538 31.8176 15.0493 30.3842 13.6158C30.3651 13.5967 30.1761 13.4105 29.547 13.3286C28.8934 13.2435 27.8485 13.2897 26.3657 13.7241C25.5281 13.9694 24.627 14.3197 23.6856 14.7763C24.6756 15.5659 25.6547 16.4385 26.6081 17.3919C28.7375 19.5213 30.4637 21.779 31.7639 24C30.4637 26.221 28.7375 28.4787 26.6081 30.6081C22.7 34.5162 18.36 37.0661 14.6074 38.1168C10.7624 39.1934 8.14489 38.5773 6.78379 37.2162C5.48396 35.9164 4.86357 33.4707 5.748 29.9044C6.88829 31.4461 8.18236 32.9506 9.6158 34.3841C9.63489 34.4032 9.82389 34.5894 10.453 34.6713C11.1066 34.7565 12.1515 34.7102 13.6343 34.2759C14.4719 34.0305 15.373 33.6802 16.3143 33.2237C15.3244 32.434 14.3453 31.5615 13.3919 30.6081C11.2625 28.4787 9.53628 26.221 8.23613 24C9.53628 21.779 11.2625 19.5213 13.3919 17.3919C17.3 13.4838 21.64 10.9339 25.3925 9.88321C29.2376 8.8066 31.8551 9.42269 33.2162 10.7838C34.516 12.0836 35.1364 14.5292 34.252 18.0955ZM34.252 29.9044C35.1364 33.4707 34.516 35.9164 33.2162 37.2162C31.9164 38.516 29.4707 39.1364 25.9044 38.252C27.4461 37.1117 28.9507 35.8176 30.3841 34.3841C31.8176 32.9507 33.1117 31.4461 34.252 29.9044Z" fill="black"/><path d="M51 35.0482V12H55.2145L66.0472 28.2325V12H70.2617V35.0482H66.0472L55.2145 18.8486V35.0482H51Z" fill="black"/><path d="M111.061 33.7969C112.093 34.631 113.465 35.0481 115.177 35.0481H118.042V31.4591H116C115.166 31.4591 114.573 31.3165 114.222 31.0311C113.893 30.7238 113.728 30.175 113.728 29.3848V22.2399H118.14V18.7168H113.728V14.3376H110.008L109.514 18.7168H106.715V22.2399H109.514V29.3519C109.514 31.4811 110.03 32.9628 111.061 33.7969Z" fill="black"/><path fill-rule="evenodd" clip-rule="evenodd" d="M125.414 35.4433C124.009 35.4433 122.856 35.2238 121.956 34.7848C121.057 34.3238 120.387 33.7202 119.948 32.9738C119.509 32.2275 119.289 31.4044 119.289 30.5044C119.289 28.9898 119.882 27.7606 121.067 26.8167C122.253 25.8728 124.031 25.4009 126.401 25.4009H130.55V25.0057C130.55 23.8863 130.232 23.0631 129.595 22.5363C128.959 22.0095 128.169 21.7461 127.225 21.7461C126.369 21.7461 125.622 21.9546 124.986 22.3717C124.349 22.7668 123.954 23.3594 123.8 24.1497H119.685C119.794 22.9643 120.189 21.9327 120.87 21.0546C121.572 20.1766 122.472 19.5071 123.57 19.0461C124.667 18.5632 125.897 18.3218 127.258 18.3218C129.584 18.3218 131.417 18.9035 132.756 20.0669C134.095 21.2302 134.765 22.8765 134.765 25.0057V35.0482H131.176L130.781 32.4141C130.298 33.2921 129.617 34.0165 128.739 34.5872C127.883 35.1579 126.775 35.4433 125.414 35.4433ZM126.369 32.1507C127.576 32.1507 128.509 31.7556 129.167 30.9653C129.848 30.1751 130.276 29.1983 130.451 28.0349H126.862C125.743 28.0349 124.942 28.2435 124.459 28.6605C123.976 29.0556 123.734 29.5495 123.734 30.1422C123.734 30.7788 123.976 31.2727 124.459 31.6239C124.942 31.9751 125.578 32.1507 126.369 32.1507Z" fill="black"/><path d="M136.811 18.7169V35.0482H141.025V27.6069C141.025 26.3557 141.223 25.3789 141.618 24.6765C142.035 23.9741 142.606 23.4802 143.33 23.1948C144.055 22.9095 144.878 22.7668 145.8 22.7668H146.985V20.1794L152.73 33.9615H153.718L149.931 42.2918H154.409L164.781 18.7168H160.303L155.529 30.208L150.952 18.7168H146.985V18.3218C145.602 18.3218 144.395 18.6401 143.363 19.2766C142.354 19.8912 141.552 20.7254 140.96 21.779L140.565 18.7169H136.811Z" fill="black"/><path d="M98.3594 35.4433C96.6911 35.4433 95.2204 35.0811 93.9473 34.3567C92.6741 33.6324 91.6644 32.6226 90.9181 31.3275C90.1937 30.0324 89.8315 28.5508 89.8315 26.8825C89.8315 25.2143 90.1937 23.7326 90.9181 22.4375C91.6644 21.1424 92.6741 20.1327 93.9473 19.4083C95.2204 18.684 96.6911 18.3218 98.3594 18.3218C100.445 18.3218 102.201 18.8705 103.628 19.9681C105.054 21.0437 105.965 22.5363 106.36 24.446H101.915C101.696 23.6558 101.257 23.0412 100.598 22.6022C99.9618 22.1412 99.2045 21.9107 98.3264 21.9107C97.1631 21.9107 96.1753 22.3497 95.3631 23.2277C94.5509 24.1058 94.1448 25.324 94.1448 26.8825C94.1448 28.441 94.5509 29.6593 95.3631 30.5373C96.1753 31.4153 97.1631 31.8543 98.3264 31.8543C99.2045 31.8543 99.9618 31.6348 100.598 31.1958C101.257 30.7568 101.696 30.1312 101.915 29.319H106.36C105.965 31.1629 105.054 32.6446 103.628 33.7641C102.201 34.8835 100.445 35.4433 98.3594 35.4433Z" fill="black"/><path fill-rule="evenodd" clip-rule="evenodd" d="M76.2115 34.3896C77.4847 35.0921 78.9444 35.4433 80.5907 35.4433C81.9077 35.4433 83.0821 35.2018 84.1138 34.7189C85.1674 34.236 86.0454 33.5775 86.7478 32.7433C87.4722 31.8873 87.9881 30.9434 88.2954 29.9117H84.015C83.7296 30.5263 83.2906 31.0312 82.698 31.4263C82.1272 31.7995 81.4138 31.9861 80.5578 31.9861C79.4163 31.9861 78.4395 31.6239 77.6274 30.8995C76.8371 30.1751 76.3981 29.1764 76.3103 27.9032H88.7234C88.7454 27.6179 88.7563 27.3435 88.7563 27.0801C88.7783 26.8167 88.7893 26.5642 88.7893 26.3228C88.7893 24.8301 88.438 23.4802 87.7356 22.2729C87.0552 21.0437 86.1003 20.0778 84.8711 19.3754C83.6418 18.673 82.226 18.3218 80.6236 18.3218C78.9115 18.3218 77.4188 18.6949 76.1457 19.4413C74.8945 20.1656 73.9067 21.1863 73.1824 22.5034C72.4799 23.8204 72.1287 25.324 72.1287 27.0142C72.1287 28.6825 72.4909 30.1532 73.2153 31.4263C73.9397 32.6994 74.9384 33.6872 76.2115 34.3896ZM77.8908 22.6351C78.681 22.0424 79.5919 21.7461 80.6236 21.7461C81.6992 21.7461 82.5992 22.0644 83.3235 22.7009C84.0479 23.3375 84.443 24.1936 84.5089 25.2692H76.3762C76.5957 24.0838 77.1005 23.2058 77.8908 22.6351Z" fill="black"/></svg>