<svg viewBox="0 0 250 48" fill="none" xmlns="http://www.w3.org/2000/svg"><path fill-rule="evenodd" clip-rule="evenodd" d="M6 0C2.68629 0 0 2.68629 0 6V42C0 45.3137 2.68629 48 6 48H42C45.3137 48 48 45.3137 48 42V6C48 2.68629 45.3137 0 42 0H6ZM25.7654 11.643C26.791 11.7895 27.5036 12.7397 27.3571 13.7653L24.3571 34.7653C24.2106 35.7909 23.2604 36.5036 22.2348 36.3571C21.2092 36.2106 20.4965 35.2604 20.643 34.2347L23.643 13.2347C23.7896 12.2091 24.7398 11.4965 25.7654 11.643ZM16.3265 19.3265C17.0591 18.5939 17.0591 17.4061 16.3265 16.6735C15.5939 15.941 14.4062 15.941 13.6736 16.6735L7.67361 22.6735C6.94103 23.4061 6.94103 24.5939 7.67361 25.3265L13.6736 31.3265C14.4062 32.059 15.5939 32.059 16.3265 31.3265C17.0591 30.5939 17.0591 29.4061 16.3265 28.6735L11.653 24L16.3265 19.3265ZM34.3265 16.6735C33.5939 15.941 32.4062 15.941 31.6736 16.6735C30.941 17.4061 30.941 18.5939 31.6736 19.3265L36.3472 24L31.6736 28.6735C30.941 29.4061 30.941 30.5939 31.6736 31.3265C32.4062 32.059 33.5939 32.059 34.3265 31.3265L40.3265 25.3265C41.0591 24.5939 41.0591 23.4061 40.3265 22.6735L34.3265 16.6735Z" class="logo"/><path d="M216.935 13.572C217.377 13.988 217.923 14.196 218.573 14.196C219.197 14.196 219.73 13.988 220.172 13.572C220.614 13.13 220.835 12.584 220.835 11.934C220.835 11.31 220.614 10.79 220.172 10.374C219.73 9.95801 219.197 9.75 218.573 9.75C217.923 9.75 217.377 9.95801 216.935 10.374C216.519 10.79 216.311 11.31 216.311 11.934C216.311 12.584 216.519 13.13 216.935 13.572Z"/><path d="M216.935 18.486V37.83H220.211V18.486H216.935Z"/><path d="M223.665 37.83V9.75H226.941V37.83H223.665Z"/><path fill-rule="evenodd" clip-rule="evenodd" d="M238.836 38.298C236.912 38.298 235.222 37.856 233.766 36.972C232.336 36.088 231.218 34.879 230.412 33.345C229.632 31.811 229.242 30.069 229.242 28.119C229.242 26.169 229.645 24.44 230.451 22.932C231.257 21.398 232.375 20.202 233.805 19.344C235.235 18.46 236.925 18.018 238.875 18.018C240.461 18.018 241.865 18.343 243.087 18.993C244.309 19.643 245.258 20.553 245.934 21.723V9.75H249.21V37.83H246.246L245.934 34.632C245.31 35.568 244.413 36.413 243.243 37.167C242.073 37.921 240.604 38.298 238.836 38.298ZM239.187 35.451C240.487 35.451 241.631 35.152 242.619 34.554C243.633 33.93 244.413 33.072 244.959 31.98C245.531 30.888 245.817 29.614 245.817 28.158C245.817 26.702 245.531 25.428 244.959 24.336C244.413 23.244 243.633 22.399 242.619 21.801C241.631 21.177 240.487 20.865 239.187 20.865C237.913 20.865 236.769 21.177 235.755 21.801C234.767 22.399 233.987 23.244 233.415 24.336C232.869 25.428 232.596 26.702 232.596 28.158C232.596 29.614 232.869 30.888 233.415 31.98C233.987 33.072 234.767 33.93 235.755 34.554C236.769 35.152 237.913 35.451 239.187 35.451Z"/><path d="M203.575 38.298C201.287 38.298 199.467 37.6089 198.115 36.231C196.763 34.827 196.087 32.6819 196.087 29.796V18.486H199.363V29.445C199.363 33.475 201.014 35.49 204.316 35.49C206.006 35.49 207.397 34.892 208.489 33.696C209.607 32.474 210.166 30.745 210.166 28.509V18.486H213.442V37.83H210.478L210.244 34.359C209.646 35.581 208.749 36.543 207.553 37.245C206.383 37.947 205.057 38.298 203.575 38.298Z"/><path fill-rule="evenodd" clip-rule="evenodd" d="M175.5 10.5299V37.83H185.406C187.304 37.83 188.916 37.5049 190.242 36.8549C191.568 36.1789 192.569 35.282 193.245 34.164C193.921 33.02 194.259 31.759 194.259 30.381C194.259 29.263 194.012 28.2359 193.518 27.2999C193.05 26.3639 192.4 25.584 191.568 24.9599C190.736 24.336 189.813 23.9329 188.799 23.7509C190.125 23.361 191.256 22.6589 192.192 21.6449C193.154 20.631 193.635 19.2399 193.635 17.4719C193.635 16.1719 193.323 15.0019 192.699 13.9619C192.075 12.8959 191.126 12.0639 189.852 11.4659C188.604 10.8419 187.018 10.5299 185.094 10.5299H175.5ZM184.86 22.4639H178.776V13.2599H184.743C186.589 13.2599 187.967 13.6759 188.877 14.5079C189.813 15.3399 190.281 16.4449 190.281 17.8229C190.281 19.2789 189.813 20.4229 188.877 21.2549C187.941 22.061 186.602 22.4639 184.86 22.4639ZM185.055 35.0999H178.776V25.0769H184.977C186.797 25.0769 188.24 25.545 189.306 26.4809C190.372 27.3909 190.905 28.6129 190.905 30.1469C190.905 31.707 190.398 32.929 189.384 33.8129C188.37 34.6709 186.927 35.0999 185.055 35.0999Z"/><path d="M94.6284 15.4441C95.2322 15.9725 95.987 16.2366 96.8928 16.2366C97.8237 16.2366 98.5785 15.9725 99.1573 15.4441C99.7612 14.8905 100.063 14.1986 100.063 13.3683C100.063 12.538 99.7612 11.8587 99.1573 11.3303C98.5785 10.7768 97.8237 10.5 96.8928 10.5C95.987 10.5 95.2322 10.7768 94.6284 11.3303C94.0496 11.8587 93.7603 12.538 93.7603 13.3683C93.7603 14.1986 94.0496 14.8905 94.6284 15.4441Z"/><path d="M94.3264 18.8408V37.8624H99.4215V18.8408H94.3264Z"/><path d="M144.854 37.8625V10.689H149.949V21.6716C150.578 20.6904 151.409 19.8978 152.441 19.294C153.497 18.6901 154.718 18.3882 156.101 18.3882C157.686 18.3882 159.02 18.7278 160.101 19.4072C161.184 20.0614 162.002 21.0175 162.555 22.2755C163.109 23.5335 163.385 25.0935 163.385 26.9555V37.8625H158.328V27.4083C158.328 25.8987 158.013 24.7413 157.385 23.9361C156.755 23.1058 155.762 22.6907 154.403 22.6907C153.571 22.6907 152.817 22.8919 152.138 23.2945C151.458 23.6971 150.918 24.2884 150.515 25.0683C150.138 25.8231 149.949 26.729 149.949 27.7857V37.8625H144.854Z"/><path d="M127.983 37.032C129.467 37.8875 131.166 38.3151 133.078 38.3151C135.493 38.3151 137.531 37.6735 139.192 36.3903C140.878 35.082 141.947 33.3333 142.4 31.1444H137.003C136.852 31.7482 136.588 32.264 136.21 32.6917C135.833 33.0943 135.367 33.4087 134.814 33.6352C134.286 33.8617 133.694 33.9749 133.04 33.9749C132.386 33.9749 131.769 33.8492 131.191 33.5975C130.637 33.3459 130.159 32.9811 129.757 32.5031C129.354 31.9998 129.04 31.4085 128.813 30.7292C128.587 30.0246 128.473 29.2321 128.473 28.3515C128.473 27.1941 128.662 26.2002 129.04 25.3699C129.442 24.5145 129.983 23.8729 130.662 23.4451C131.367 22.9922 132.159 22.7658 133.04 22.7658C134.021 22.7658 134.864 23.0174 135.569 23.5206C136.298 24.0238 136.776 24.7158 137.003 25.5963H142.4C141.947 23.3571 140.89 21.5958 139.23 20.3126C137.569 19.0294 135.518 18.3878 133.078 18.3878C131.166 18.3878 129.467 18.8281 127.983 19.7087C126.498 20.5642 125.341 21.7468 124.511 23.2564C123.68 24.7409 123.265 26.4644 123.265 28.4269C123.265 30.3392 123.68 32.0376 124.511 33.522C125.341 35.0066 126.498 36.1766 127.983 37.032Z"/><path d="M102.407 18.8407V37.8623H107.502V27.7099C107.502 26.6531 107.691 25.76 108.068 25.0302C108.446 24.2754 108.962 23.6967 109.616 23.2942C110.295 22.8916 111.062 22.6903 111.918 22.6903C113.251 22.6903 114.233 23.0929 114.862 23.898C115.516 24.7032 115.843 25.8606 115.843 27.3702V37.8623H120.901V26.8796C120.901 25.0428 120.611 23.4955 120.032 22.2374C119.479 20.9794 118.661 20.0233 117.579 19.3691C116.497 18.7149 115.164 18.3878 113.579 18.3878C112.094 18.3878 110.811 18.7149 109.729 19.3691C108.672 20.0233 107.854 20.8787 107.276 21.9355L106.898 18.8407H102.407Z"/><path d="M82.0014 38.3153C80.0892 38.3153 78.3783 37.9883 76.8686 37.3341C75.3842 36.6798 74.2015 35.7237 73.3209 34.4657C72.4655 33.2078 72.0253 31.6854 72 29.8991H77.397C77.4221 30.679 77.6235 31.3836 78.0009 32.0126C78.3783 32.6415 78.8939 33.1447 79.5483 33.5222C80.2277 33.8745 81.0328 34.0506 81.9637 34.0506C82.7688 34.0506 83.4608 33.9248 84.0394 33.6732C84.6434 33.3965 85.1089 33.019 85.4357 32.5409C85.7629 32.0628 85.9265 31.4967 85.9265 30.8426C85.9265 30.0878 85.7377 29.4588 85.3603 28.9556C85.0082 28.4523 84.5048 28.0245 83.8508 27.6723C83.2216 27.3201 82.4795 27.0056 81.624 26.7288C80.7938 26.4269 79.9131 26.1123 78.982 25.7853C76.8937 25.106 75.2961 24.2001 74.189 23.0679C73.1071 21.9357 72.5662 20.4386 72.5662 18.5767C72.5662 16.9915 72.9435 15.6329 73.6983 14.5007C74.4783 13.3684 75.5477 12.5004 76.9063 11.8965C78.2651 11.2927 79.8124 10.9907 81.5486 10.9907C83.335 10.9907 84.8948 11.3053 86.2284 11.9343C87.587 12.5381 88.6564 13.4187 89.4364 14.5761C90.2415 15.7335 90.6566 17.0922 90.6819 18.6522H85.2471C85.222 18.0735 85.0457 17.5325 84.7189 17.0293C84.4169 16.5009 83.989 16.0858 83.4355 15.7839C82.882 15.4568 82.2279 15.2932 81.4731 15.2932C80.8187 15.2681 80.215 15.3687 79.6613 15.5951C79.1331 15.8216 78.7053 16.1613 78.3783 16.6142C78.0764 17.0419 77.9253 17.5828 77.9253 18.237C77.9253 18.866 78.0764 19.3944 78.3783 19.8222C78.7053 20.2499 79.1457 20.6273 79.6992 20.9544C80.2527 21.2563 80.9068 21.5457 81.6617 21.8224C82.4167 22.0741 83.2343 22.3382 84.115 22.615C85.4233 23.0679 86.631 23.6088 87.7379 24.2379C88.8452 24.8417 89.7257 25.6343 90.3799 26.6156C91.0342 27.5969 91.3612 28.8926 91.3612 30.5029C91.3612 31.8867 90.9965 33.17 90.2668 34.3526C89.5371 35.535 88.4804 36.4911 87.0965 37.2209C85.7377 37.9505 84.0394 38.3153 82.0014 38.3153Z"/></svg>