<svg class="sinch-icon" viewBox="0 0 44 49" fill="none" xmlns="http://www.w3.org/2000/svg"><path d="M21.5 24.9524H16.125C16.125 19.1889 13.2928 15.1739 10.75 15.1739C8.20721 15.1739 5.375 19.1889 5.375 24.9524C5.375 25.0447 5.375 25.1319 5.375 25.219C5.40601 30.4492 6.38798 35.4487 8.18137 39.6431C3.43173 38.0638 0 32.1773 0 24.9524C0 16.4815 4.7238 9.84119 10.75 9.84119C16.7762 9.84119 21.5 16.4764 21.5 24.9524Z"/><path d="M16.125 24.9524H10.75C10.75 30.0698 11.6751 34.9206 13.3496 38.6176C15.6082 43.6017 18.5179 45.0015 20.5077 45.3194C20.4508 45.2169 20.3992 45.1092 20.3423 45.0015C17.6238 39.6021 16.125 32.4849 16.125 24.9524Z"/><path d="M43 24.9524C43 18.9428 42.1007 13.2511 40.4675 8.93359C39.6096 6.66717 38.5811 4.85198 37.3976 3.52904C35.4957 1.40106 33.5472 0.954956 32.25 0.954956C31.3662 0.954956 30.1775 1.16006 28.9113 1.9651C30.4101 3.17523 31.7642 4.74942 32.9529 6.65178C33.5886 7.1748 34.5137 8.36442 35.4337 10.8052C36.7929 14.3997 37.563 19.1786 37.6198 24.3319C37.6198 24.3935 37.6198 24.455 37.6198 24.5217C37.6198 24.6652 37.6198 24.8088 37.6198 24.9575C37.6198 30.3416 36.8394 35.3667 35.4285 39.1047C34.0331 42.7915 32.6273 43.6222 32.2448 43.6222C31.8624 43.6222 30.4514 42.7915 29.0612 39.1047C27.6502 35.3667 26.8698 30.3416 26.8698 24.9575H32.2448C32.2448 19.8401 31.3197 14.9894 29.6452 11.2923C26.968 5.39551 23.3916 4.51355 21.4948 4.51355C20.4147 4.51355 18.7867 4.8007 17.0863 6.13902C17.1535 6.17491 17.2258 6.21593 17.293 6.25183C18.9004 7.14917 20.3578 8.35929 21.6447 9.85657C22.7197 10.0104 23.9601 11.7538 24.7405 13.4818C26.0377 16.3431 26.8078 20.3221 26.8595 24.4601C26.8595 24.5114 26.8595 24.5627 26.8595 24.6088C26.8595 24.7268 26.8595 24.8396 26.8595 24.9575H21.4845C21.4845 30.9671 22.3838 36.6537 24.0169 40.9763C24.8749 43.2427 25.9034 45.0631 27.0869 46.3809C28.9888 48.5089 30.9373 48.955 32.2345 48.955C33.5317 48.955 35.4853 48.5089 37.3821 46.3809C38.5605 45.0631 39.5941 43.2427 40.452 40.9763C42.0852 36.6537 42.9845 30.9671 42.9845 24.9575L43 24.9524Z"/></svg>