<svg class="sinch-icon" viewBox="0 0 49 48" fill="none" xmlns="http://www.w3.org/2000/svg"><path fill-rule="evenodd" clip-rule="evenodd" d="M6.47729 0C3.16359 0 0.477295 2.68629 0.477295 6V42C0.477295 45.3137 3.16359 48 6.47729 48H42.4773C45.791 48 48.4773 45.3137 48.4773 42V6C48.4773 2.68629 45.791 0 42.4773 0H6.47729ZM26.2427 11.643C27.2683 11.7895 27.9809 12.7397 27.8344 13.7653L24.8344 34.7653C24.6879 35.7909 23.7377 36.5036 22.7121 36.3571C21.6865 36.2106 20.9738 35.2604 21.1203 34.2347L24.1203 13.2347C24.2668 12.2091 25.217 11.4965 26.2427 11.643ZM16.8038 19.3265C17.5364 18.5939 17.5364 17.4061 16.8038 16.6735C16.0712 15.941 14.8835 15.941 14.1509 16.6735L8.15091 22.6735C7.41833 23.4061 7.41833 24.5939 8.15091 25.3265L14.1509 31.3265C14.8835 32.059 16.0712 32.059 16.8038 31.3265C17.5364 30.5939 17.5364 29.4061 16.8038 28.6735L12.1303 24L16.8038 19.3265ZM34.8038 16.6735C34.0712 15.941 32.8835 15.941 32.1509 16.6735C31.4183 17.4061 31.4183 18.5939 32.1509 19.3265L36.8245 24L32.1509 28.6735C31.4183 29.4061 31.4183 30.5939 32.1509 31.3265C32.8835 32.059 34.0712 32.059 34.8038 31.3265L40.8038 25.3265C41.5364 24.5939 41.5364 23.4061 40.8038 22.6735L34.8038 16.6735Z"/></svg>