<svg viewBox="0 0 290 48" fill="none" xmlns="http://www.w3.org/2000/svg"><path d="M94.6283 15.4441C95.2322 15.9725 95.987 16.2367 96.8929 16.2367C97.8238 16.2367 98.5786 15.9725 99.1573 15.4441C99.7612 14.8906 100.063 14.1986 100.063 13.3683C100.063 12.538 99.7612 11.8587 99.1573 11.3303C98.5786 10.7768 97.8238 10.5 96.8929 10.5C95.987 10.5 95.2322 10.7768 94.6283 11.3303C94.0496 11.8587 93.7603 12.538 93.7603 13.3683C93.7603 14.1986 94.0496 14.8906 94.6283 15.4441Z"/><path d="M94.3264 18.8408V37.8624H99.4216V18.8408H94.3264Z"/><path d="M144.854 37.8626V10.689H149.949V21.6717C150.578 20.6904 151.409 19.8978 152.441 19.294C153.497 18.6901 154.718 18.3882 156.101 18.3882C157.686 18.3882 159.02 18.7278 160.101 19.4072C161.184 20.0614 162.002 21.0175 162.555 22.2755C163.109 23.5335 163.385 25.0935 163.385 26.9555V37.8626H158.328V27.4083C158.328 25.8987 158.013 24.7413 157.385 23.9361C156.755 23.1058 155.762 22.6907 154.403 22.6907C153.572 22.6907 152.817 22.8919 152.138 23.2945C151.458 23.6971 150.918 24.2884 150.515 25.0683C150.138 25.8231 149.949 26.729 149.949 27.7857V37.8626H144.854Z"/><path d="M127.983 37.032C129.467 37.8875 131.166 38.3151 133.078 38.3151C135.493 38.3151 137.531 37.6736 139.192 36.3903C140.878 35.082 141.947 33.3333 142.4 31.1444H137.003C136.852 31.7483 136.588 32.264 136.21 32.6918C135.833 33.0944 135.368 33.4088 134.814 33.6353C134.286 33.8618 133.694 33.9749 133.04 33.9749C132.386 33.9749 131.769 33.8492 131.191 33.5975C130.637 33.3459 130.159 32.9811 129.757 32.5031C129.354 31.9998 129.04 31.4085 128.813 30.7292C128.587 30.0246 128.473 29.2322 128.473 28.3515C128.473 27.1941 128.662 26.2002 129.04 25.37C129.442 24.5145 129.983 23.8729 130.662 23.4451C131.367 22.9922 132.159 22.7658 133.04 22.7658C134.021 22.7658 134.864 23.0174 135.569 23.5206C136.298 24.0238 136.776 24.7157 137.003 25.5963H142.4C141.947 23.3571 140.89 21.5958 139.23 20.3126C137.569 19.0294 135.518 18.3878 133.078 18.3878C131.166 18.3878 129.467 18.8281 127.983 19.7087C126.498 20.5642 125.341 21.7468 124.511 23.2564C123.68 24.7409 123.265 26.4644 123.265 28.427C123.265 30.3392 123.68 32.0376 124.511 33.522C125.341 35.0066 126.498 36.1766 127.983 37.032Z"/><path d="M102.407 18.8407V37.8623H107.502V27.71C107.502 26.6531 107.691 25.76 108.068 25.0302C108.446 24.2754 108.962 23.6967 109.616 23.2942C110.295 22.8916 111.063 22.6903 111.918 22.6903C113.251 22.6903 114.233 23.0929 114.862 23.898C115.516 24.7032 115.843 25.8606 115.843 27.3702V37.8623H120.9V26.8796C120.9 25.0428 120.611 23.4955 120.032 22.2374C119.479 20.9794 118.661 20.0233 117.579 19.3691C116.497 18.7149 115.164 18.3878 113.579 18.3878C112.094 18.3878 110.811 18.7149 109.729 19.3691C108.672 20.0233 107.854 20.8787 107.276 21.9355L106.898 18.8407H102.407Z"/><path d="M82.0014 38.3153C80.0892 38.3153 78.3783 37.9883 76.8686 37.3341C75.3841 36.6798 74.2016 35.7237 73.3209 34.4657C72.4654 33.2078 72.0252 31.6854 72 29.8991H77.397C77.4222 30.6791 77.6235 31.3836 78.0009 32.0126C78.3783 32.6415 78.894 33.1448 79.5483 33.5222C80.2276 33.8745 81.0327 34.0506 81.9636 34.0506C82.7688 34.0506 83.4607 33.9248 84.0394 33.6732C84.6433 33.3965 85.1088 33.0191 85.4358 32.5409C85.7629 32.0628 85.9265 31.4967 85.9265 30.8426C85.9265 30.0878 85.7377 29.4588 85.3604 28.9556C85.0081 28.4523 84.5049 28.0245 83.8508 27.6723C83.2216 27.3201 82.4795 27.0056 81.624 26.7288C80.7937 26.4269 79.9131 26.1123 78.9821 25.7853C76.8938 25.106 75.2961 24.2001 74.1889 23.0679C73.107 21.9357 72.5661 20.4386 72.5661 18.5767C72.5661 16.9916 72.9435 15.6329 73.6983 14.5006C74.4783 13.3684 75.5477 12.5004 76.9063 11.8965C78.2651 11.2927 79.8124 10.9907 81.5486 10.9907C83.3349 10.9907 84.8949 11.3052 86.2284 11.9343C87.5871 12.5381 88.6564 13.4187 89.4364 14.5761C90.2415 15.7335 90.6567 17.0922 90.6819 18.6522H85.2471C85.2221 18.0735 85.0458 17.5325 84.7188 17.0293C84.4168 16.5009 83.9891 16.0858 83.4355 15.7839C82.882 15.4568 82.2279 15.2932 81.4731 15.2932C80.8188 15.268 80.215 15.3687 79.6614 15.5951C79.1331 15.8216 78.7053 16.1613 78.3783 16.6142C78.0764 17.0419 77.9253 17.5828 77.9253 18.237C77.9253 18.8661 78.0764 19.3944 78.3783 19.8222C78.7053 20.2499 79.1457 20.6273 79.6992 20.9544C80.2527 21.2563 80.9069 21.5457 81.6618 21.8224C82.4166 22.074 83.2342 22.3382 84.1149 22.615C85.4233 23.0679 86.631 23.6089 87.738 24.2379C88.8452 24.8417 89.7258 25.6343 90.38 26.6156C91.0341 27.5969 91.3613 28.8926 91.3613 30.503C91.3613 31.8867 90.9964 33.17 90.2667 34.3526C89.5371 35.535 88.4803 36.4911 87.0965 37.2209C85.7377 37.9505 84.0394 38.3153 82.0014 38.3153Z"/><path d="M175.5 10.5V37.8H192.387V35.109H178.776V25.359H191.217V22.707H178.776V13.191H192.387V10.5H175.5Z"/><path d="M195.069 37.8V18.456H198.033L198.228 21.927C198.852 20.705 199.749 19.743 200.919 19.041C202.089 18.339 203.415 17.988 204.897 17.988C207.185 17.988 209.005 18.69 210.357 20.094C211.735 21.472 212.424 23.604 212.424 26.49V37.8H209.148V26.841C209.148 22.811 207.484 20.796 204.156 20.796C202.492 20.796 201.101 21.407 199.983 22.629C198.891 23.825 198.345 25.541 198.345 27.777V37.8H195.069Z"/><path fill-rule="evenodd" clip-rule="evenodd" d="M219.778 31.287C220.688 31.573 221.689 31.716 222.781 31.716C224.419 31.716 225.797 31.417 226.915 30.819C228.059 30.195 228.93 29.363 229.528 28.323C230.152 27.283 230.464 26.126 230.464 24.852C230.464 23.422 230.087 22.161 229.333 21.069L232.96 20.913V18.456H225.823C224.913 18.144 223.899 17.988 222.781 17.988C221.143 17.988 219.752 18.3 218.608 18.924C217.464 19.522 216.593 20.341 215.995 21.381C215.397 22.421 215.098 23.578 215.098 24.852C215.098 26.984 215.865 28.7 217.399 30L214.084 33.276V34.173C214.422 34.511 214.786 34.823 215.176 35.109C215.592 35.369 216.086 35.616 216.658 35.85C215.592 36.604 214.864 37.397 214.474 38.229C214.084 39.087 213.889 39.88 213.889 40.608C213.889 42.012 214.266 43.169 215.02 44.079C215.774 45.015 216.827 45.704 218.179 46.146C219.531 46.614 221.078 46.848 222.82 46.848C224.796 46.848 226.408 46.523 227.656 45.873C228.93 45.223 229.866 44.391 230.464 43.377C231.088 42.363 231.4 41.297 231.4 40.179C231.4 38.541 230.841 37.215 229.723 36.201C228.605 35.187 226.746 34.589 224.146 34.407C222.69 34.277 221.559 34.16 220.753 34.056C219.947 33.926 219.323 33.796 218.881 33.666C218.465 33.51 218.114 33.328 217.828 33.12L219.778 31.287ZM226.057 27.972C225.251 28.674 224.159 29.025 222.781 29.025C221.377 29.025 220.259 28.674 219.427 27.972C218.621 27.244 218.218 26.204 218.218 24.852C218.218 23.526 218.621 22.512 219.427 21.81C220.259 21.082 221.377 20.718 222.781 20.718C224.159 20.718 225.251 21.082 226.057 21.81C226.889 22.512 227.305 23.526 227.305 24.852C227.305 26.204 226.889 27.244 226.057 27.972ZM218.725 43.182C217.633 42.558 217.087 41.596 217.087 40.296C217.087 39.776 217.256 39.178 217.594 38.502C217.932 37.852 218.634 37.241 219.7 36.669C220.74 36.825 221.975 36.955 223.405 37.059C225.225 37.163 226.473 37.514 227.149 38.112C227.825 38.736 228.163 39.464 228.163 40.296C228.163 41.466 227.669 42.402 226.681 43.104C225.719 43.806 224.432 44.157 222.82 44.157C221.182 44.157 219.817 43.832 218.725 43.182Z"/><path fill-rule="evenodd" clip-rule="evenodd" d="M240.841 38.268C239.229 38.268 237.89 37.995 236.824 37.449C235.758 36.903 234.965 36.175 234.445 35.265C233.925 34.355 233.665 33.367 233.665 32.301C233.665 30.325 234.419 28.804 235.927 27.738C237.435 26.672 239.489 26.139 242.089 26.139H247.315V25.905C247.315 24.215 246.873 22.941 245.989 22.083C245.105 21.199 243.922 20.757 242.44 20.757C241.166 20.757 240.061 21.082 239.125 21.732C238.215 22.356 237.643 23.279 237.409 24.501H234.055C234.185 23.097 234.653 21.914 235.459 20.952C236.291 19.99 237.318 19.262 238.54 18.768C239.762 18.248 241.062 17.988 242.44 17.988C245.144 17.988 247.172 18.716 248.524 20.172C249.902 21.602 250.591 23.513 250.591 25.905V37.8H247.666L247.471 34.329C246.925 35.421 246.119 36.357 245.053 37.137C244.013 37.891 242.609 38.268 240.841 38.268ZM241.348 35.499C242.596 35.499 243.662 35.174 244.546 34.524C245.456 33.874 246.145 33.029 246.613 31.989C247.081 30.949 247.315 29.857 247.315 28.713V28.674H242.362C240.438 28.674 239.073 29.012 238.267 29.688C237.487 30.338 237.097 31.157 237.097 32.145C237.097 33.159 237.461 33.978 238.189 34.602C238.943 35.2 239.996 35.499 241.348 35.499Z"/><path fill-rule="evenodd" clip-rule="evenodd" d="M257.896 31.287C258.806 31.573 259.807 31.716 260.899 31.716C262.537 31.716 263.915 31.417 265.033 30.819C266.177 30.195 267.048 29.363 267.646 28.323C268.27 27.283 268.582 26.126 268.582 24.852C268.582 23.422 268.205 22.161 267.451 21.069L271.078 20.913V18.456H263.941C263.031 18.144 262.017 17.988 260.899 17.988C259.261 17.988 257.87 18.3 256.726 18.924C255.582 19.522 254.711 20.341 254.113 21.381C253.515 22.421 253.216 23.578 253.216 24.852C253.216 26.984 253.983 28.7 255.517 30L252.202 33.276V34.173C252.54 34.511 252.904 34.823 253.294 35.109C253.71 35.369 254.204 35.616 254.776 35.85C253.71 36.604 252.982 37.397 252.592 38.229C252.202 39.087 252.007 39.88 252.007 40.608C252.007 42.012 252.384 43.169 253.138 44.079C253.892 45.015 254.945 45.704 256.297 46.146C257.649 46.614 259.196 46.848 260.938 46.848C262.914 46.848 264.526 46.523 265.774 45.873C267.048 45.223 267.984 44.391 268.582 43.377C269.206 42.363 269.518 41.297 269.518 40.179C269.518 38.541 268.959 37.215 267.841 36.201C266.723 35.187 264.864 34.589 262.264 34.407C260.808 34.277 259.677 34.16 258.871 34.056C258.065 33.926 257.441 33.796 256.999 33.666C256.583 33.51 256.232 33.328 255.946 33.12L257.896 31.287ZM264.175 27.972C263.369 28.674 262.277 29.025 260.899 29.025C259.495 29.025 258.377 28.674 257.545 27.972C256.739 27.244 256.336 26.204 256.336 24.852C256.336 23.526 256.739 22.512 257.545 21.81C258.377 21.082 259.495 20.718 260.899 20.718C262.277 20.718 263.369 21.082 264.175 21.81C265.007 22.512 265.423 23.526 265.423 24.852C265.423 26.204 265.007 27.244 264.175 27.972ZM256.843 43.182C255.751 42.558 255.205 41.596 255.205 40.296C255.205 39.776 255.374 39.178 255.712 38.502C256.05 37.852 256.752 37.241 257.818 36.669C258.858 36.825 260.093 36.955 261.523 37.059C263.343 37.163 264.591 37.514 265.267 38.112C265.943 38.736 266.281 39.464 266.281 40.296C266.281 41.466 265.787 42.402 264.799 43.104C263.837 43.806 262.55 44.157 260.938 44.157C259.3 44.157 257.935 43.832 256.843 43.182Z"/><path fill-rule="evenodd" clip-rule="evenodd" d="M275.545 37.02C276.975 37.852 278.613 38.268 280.459 38.268C282.747 38.268 284.619 37.683 286.075 36.513C287.557 35.317 288.558 33.822 289.078 32.028H285.841C285.425 33.094 284.762 33.939 283.852 34.563C282.942 35.187 281.811 35.499 280.459 35.499C279.419 35.499 278.431 35.252 277.495 34.758C276.585 34.264 275.818 33.536 275.194 32.574C274.596 31.586 274.258 30.351 274.18 28.869H289.585V27.894C289.611 27.608 289.624 27.322 289.624 27.036C289.624 25.45 289.26 23.968 288.532 22.59C287.804 21.212 286.751 20.107 285.373 19.275C284.021 18.417 282.409 17.988 280.537 17.988C278.639 17.988 276.962 18.417 275.506 19.275C274.076 20.107 272.958 21.29 272.152 22.824C271.346 24.332 270.943 26.1 270.943 28.128C270.943 30.182 271.346 31.963 272.152 33.471C272.984 34.979 274.115 36.162 275.545 37.02ZM276.286 22.2C277.508 21.238 278.899 20.757 280.459 20.757C282.097 20.757 283.475 21.251 284.593 22.239C285.711 23.227 286.309 24.592 286.387 26.334H274.219C274.401 24.514 275.09 23.136 276.286 22.2Z"/><path fill-rule="evenodd" clip-rule="evenodd" d="M0 6C0 2.68629 2.68629 0 6 0H42C45.3137 0 48 2.68629 48 6V42C48 45.3137 45.3137 48 42 48H6C2.68629 48 0 45.3137 0 42V6ZM7.5 14.2332C7.5 12.1762 9.14052 10.5084 11.1649 10.5074L25.8315 10.5C27.8573 10.499 29.5 12.1674 29.5 14.2258V24.47C29.5 26.5277 27.8584 28.1958 25.8333 28.1958H19.4167L14.4495 31.8011C13.8428 32.2414 13 31.8007 13 31.0431V28.1958H11.1667C9.14162 28.1958 7.5 26.5277 7.5 24.47V14.2332ZM22.1667 34.716C20.5442 34.716 19.1678 33.6452 18.6847 32.1611L20.2979 30.9902H25.8333C29.3772 30.9902 32.25 28.071 32.25 24.47V17.9567L36.8352 17.959C38.8595 17.9601 40.5 19.6279 40.5 21.6849V30.9902C40.5 33.0479 38.8584 34.716 36.8333 34.716H35V38.4419C35 39.2094 34.1376 39.6476 33.5333 39.187L27.6667 34.716H22.1667Z" class="logo"/></svg>