<svg class="sinch-icon" viewBox="0 0 49 49" fill="none" xmlns="http://www.w3.org/2000/svg"><path d="M37.6865 12.1957H11.3027V17.816H37.6865V12.1957Z" fill="black"/><path d="M26.3783 23.4364H11.3027V29.0567H26.3783V23.4364Z" fill="black"/><path d="M49 15.0058V26.2466C49 33.9962 42.6609 40.2974 34.8649 40.2974H26.3838V34.6771H34.8649C39.5403 34.6771 43.3459 30.8942 43.3459 26.2466V15.0058C43.3459 10.3582 39.5403 6.57531 34.8649 6.57531H14.1351C9.45967 6.57531 5.65406 10.3582 5.65406 15.0058V26.2466C5.65406 30.8942 9.45967 34.6771 14.1351 34.6771H20.0175L26.3838 41.0054V48.955L17.6744 40.2974H14.1351C6.33906 40.2974 0 33.9962 0 26.2466V15.0058C0 7.25624 6.33906 0.954956 14.1351 0.954956H34.8649C42.6609 0.954956 49 7.25624 49 15.0058Z" fill="black"/></svg>