<svg viewBox="0 0 148 48" fill="none" xmlns="http://www.w3.org/2000/svg"><path d="M53.1476 39.7241V16.5517H58.1793L65.5614 31.2496L72.8441 16.5517H77.8759V39.7241H73.6386V23.7352L67.1834 36.4138H63.84L57.3848 23.7352V39.7241H53.1476Z"/><path d="M86.2841 40.1214C84.8731 40.1214 83.7145 39.8938 82.8083 39.4428C81.9021 38.9917 81.2317 38.3876 80.789 37.6386C80.3462 36.8896 80.1269 36.0621 80.1269 35.1559C80.1269 33.6331 80.7228 32.3959 81.9145 31.4483C83.1062 30.5007 84.8938 30.0248 87.2772 30.0248H91.4483V29.6276C91.4483 28.5021 91.1297 27.6745 90.4883 27.1448C89.8469 26.6152 89.0524 26.3503 88.1048 26.3503C87.2441 26.3503 86.4952 26.5531 85.8538 26.9628C85.2124 27.3724 84.8152 27.9724 84.6621 28.7669H80.5241C80.6359 27.5752 81.0372 26.5365 81.7324 25.6552C82.4276 24.7738 83.3255 24.0952 84.4303 23.6193C85.5352 23.1434 86.7683 22.9076 88.1379 22.9076C90.4759 22.9076 92.3214 23.491 93.6662 24.6621C95.011 25.8331 95.6855 27.4883 95.6855 29.6276V39.7241H92.0772L91.68 37.0759C91.1959 37.9572 90.5172 38.6855 89.6441 39.2607C88.771 39.8359 87.6538 40.1214 86.2841 40.1214ZM87.2441 36.811C88.4565 36.811 89.4 36.4138 90.0745 35.6193C90.749 34.8248 91.171 33.8441 91.349 32.6731H87.7407C86.6152 32.6731 85.8083 32.8759 85.3241 33.2855C84.84 33.6952 84.5959 34.1959 84.5959 34.7917C84.5959 35.4331 84.84 35.9296 85.3241 36.2814C85.8083 36.6331 86.4496 36.811 87.2441 36.811Z"/><path d="M100.353 20.7559C99.5793 20.7559 98.9462 20.5241 98.4496 20.0607C97.9531 19.5972 97.7048 19.0138 97.7048 18.3062C97.7048 17.5986 97.9531 17.0193 98.4496 16.5683C98.9462 16.1172 99.5793 15.8896 100.353 15.8896C101.127 15.8896 101.76 16.1172 102.257 16.5683C102.753 17.0193 103.001 17.5986 103.001 18.3062C103.001 19.0138 102.753 19.5972 102.257 20.0607C101.76 20.5241 101.127 20.7559 100.353 20.7559ZM98.2345 39.7241V23.3048H102.472V39.7241H98.2345Z"/><path d="M105.252 39.7241V15.8896H109.49V39.7241H105.252Z"/><path d="M109.059 47.0069V43.3986H110.35C111.079 43.3986 111.596 43.2538 111.906 42.9683C112.217 42.6828 112.37 42.1945 112.37 41.5117V23.3048H116.607V41.5117C116.607 43.4979 116.106 44.909 115.101 45.749C114.095 46.589 112.734 47.0069 111.012 47.0069H109.059ZM114.521 20.7559C113.748 20.7559 113.114 20.5241 112.618 20.0607C112.121 19.5972 111.873 19.0138 111.873 18.3062C111.873 17.5986 112.121 17.0193 112.618 16.5683C113.114 16.1172 113.748 15.8896 114.521 15.8896C115.295 15.8896 115.928 16.1172 116.425 16.5683C116.921 17.0193 117.17 17.5986 117.17 18.3062C117.17 19.0138 116.921 19.5972 116.425 20.0607C115.928 20.5241 115.295 20.7559 114.521 20.7559Z"/><path d="M127.366 40.1214C125.71 40.1214 124.241 39.7696 122.963 39.0621C121.684 38.3545 120.679 37.3614 119.95 36.0828C119.222 34.8041 118.858 33.3228 118.858 31.6469C118.858 29.971 119.218 28.4359 119.934 27.1117C120.65 25.7876 121.643 24.7572 122.913 24.0165C124.183 23.2759 125.677 22.9076 127.399 22.9076C129.008 22.9076 130.432 23.2593 131.669 23.9669C132.906 24.6745 133.87 25.6386 134.566 26.8634C135.261 28.0883 135.608 29.4496 135.608 30.9517C135.608 31.1959 135.604 31.4483 135.592 31.7131C135.579 31.9779 135.563 32.2552 135.542 32.5407H123.062C123.149 33.8193 123.596 34.8248 124.403 35.5531C125.21 36.2814 126.186 36.6455 127.332 36.6455C128.193 36.6455 128.917 36.451 129.501 36.0662C130.084 35.6814 130.523 35.1765 130.808 34.56H135.112C134.801 35.5986 134.288 36.5421 133.572 37.3903C132.857 38.2386 131.971 38.909 130.924 39.3931C129.877 39.8772 128.69 40.1214 127.366 40.1214ZM127.399 26.3503C126.36 26.3503 125.446 26.6441 124.651 27.2276C123.857 27.811 123.348 28.7007 123.128 29.8924H131.305C131.239 28.8124 130.841 27.9517 130.113 27.3103C129.385 26.669 128.479 26.3503 127.399 26.3503Z"/><path d="M144.546 39.7241C142.825 39.7241 141.447 39.3062 140.408 38.4662C139.37 37.6262 138.852 36.1365 138.852 33.9972V26.8469H136.039V23.3048H138.852L139.349 18.9021H143.09V23.3048H147.526V26.8469H143.09V34.0303C143.09 34.8248 143.259 35.371 143.603 35.669C143.946 35.9669 144.534 36.1159 145.374 36.1159H147.426V39.7241H144.546Z"/><path d="M56.1104 11.6442C55.5145 11.6442 54.989 11.5407 54.5338 11.338C54.0786 11.1352 53.7186 10.8414 53.4579 10.4566C53.1973 10.0718 53.0607 9.6083 53.0524 9.0621H54.6166C54.6331 9.44279 54.7697 9.75727 55.0262 10.018C55.2828 10.2786 55.6428 10.4069 56.0979 10.4069C56.4911 10.4069 56.8055 10.3118 57.0373 10.1214C57.269 9.93106 57.3848 9.67865 57.3848 9.36417C57.3848 9.04968 57.2814 8.77244 57.0786 8.58623C56.8759 8.40003 56.6028 8.25106 56.2635 8.1352C55.9242 8.01934 55.56 7.8952 55.1752 7.76279C54.5504 7.54761 54.0704 7.27037 53.7435 6.92692C53.4166 6.58761 53.251 6.13658 53.251 5.56968C53.2428 5.08968 53.3586 4.68003 53.5945 4.33658C53.8304 3.99313 54.1531 3.7283 54.5628 3.53796C54.9724 3.34761 55.4442 3.25244 55.9779 3.25244C56.5117 3.25244 56.9959 3.34761 57.4097 3.5421C57.8235 3.73658 58.1462 4.00555 58.3821 4.35313C58.6179 4.70072 58.7421 5.11451 58.7586 5.59451H57.1697C57.1614 5.30899 57.0538 5.05658 56.8386 4.83727C56.6235 4.61796 56.3297 4.50623 55.9531 4.50623C55.6304 4.49796 55.3573 4.57658 55.1379 4.7421C54.9186 4.90761 54.8069 5.14761 54.8069 5.46623C54.8069 5.7352 54.8938 5.95037 55.0635 6.10761C55.2331 6.26486 55.4648 6.40141 55.7586 6.50899C56.0524 6.61658 56.3876 6.73244 56.7683 6.85658C57.1697 6.99727 57.5379 7.15865 57.869 7.34486C58.2 7.53106 58.469 7.7752 58.6676 8.08141C58.8704 8.38761 58.9697 8.77658 58.9697 9.25658C58.9697 9.68279 58.8621 10.0759 58.6469 10.44C58.4317 10.8042 58.109 11.0938 57.6869 11.3131C57.2607 11.5324 56.7393 11.6442 56.1228 11.6442H56.1104Z"/><path d="M62.5738 11.5035V3.39313H64.0552V11.5035H62.5738Z"/><path d="M67.949 11.5035V3.39313H69.4304L73.2414 9.10348V3.39313H74.7228V11.5035H73.2414L69.4304 5.80141V11.5035H67.949Z"/><path d="M82.2952 11.6442C81.4759 11.6442 80.7724 11.4704 80.1848 11.1186C79.5973 10.7669 79.1462 10.2786 78.8276 9.64554C78.509 9.01658 78.3517 8.2883 78.3517 7.46072C78.3517 6.63313 78.509 5.90486 78.8276 5.27175C79.1421 4.63865 79.5973 4.14623 80.1848 3.79037C80.7724 3.43451 81.4759 3.25658 82.2952 3.25658C83.2676 3.25658 84.0662 3.49658 84.6869 3.98072C85.3076 4.46486 85.6966 5.13934 85.8497 6.01244H84.2152C84.1159 5.57382 83.9007 5.22623 83.5738 4.97382C83.2469 4.72141 82.8124 4.59727 82.2704 4.59727C81.5214 4.59727 80.9338 4.85382 80.5076 5.36279C80.0814 5.87175 79.8704 6.57106 79.8704 7.46072C79.8704 8.35037 80.0814 9.04554 80.5076 9.55037C80.9338 10.0552 81.5214 10.3076 82.2704 10.3076C82.8124 10.3076 83.2469 10.1876 83.5738 9.95589C83.9007 9.72003 84.1159 9.39313 84.2152 8.9752H85.8497C85.6966 9.81106 85.3076 10.4607 84.6869 10.9324C84.0662 11.4042 83.2676 11.64 82.2952 11.64V11.6442Z"/><path d="M89.4786 11.5035V3.39313H90.96V6.76554H94.5973V3.39313H96.0786V11.5035H94.5973V7.96968H90.96V11.5035H89.4786Z"/><path d="M38.6897 4.34486C37.6759 3.32693 36.1573 3.01658 34.8207 3.55037L5.03587 15.4635C3.7076 15.9973 2.84277 17.2138 2.78484 18.6455C2.72691 20.0773 3.48415 21.36 4.76277 22.0014L13.5807 26.4083L16.7876 23.2014L8.11449 18.8649L34.8662 8.16417L24.1655 34.9159L19.829 26.2428L16.6221 29.4497L21.029 38.2676C21.6455 39.5007 22.8621 40.2497 24.2276 40.2497C24.2773 40.2497 24.331 40.2497 24.3848 40.2497C25.8166 40.1918 27.0331 39.3269 27.5669 37.9986L39.48 8.20968C40.0138 6.87727 39.7035 5.35865 38.6855 4.34072L38.6897 4.34486Z" class="logo"/></svg>