<svg xmlns="http://www.w3.org/2000/svg" viewBox="0 0 48 48" aria-hidden="true"><path d="m17.588 12.745.336-.383s1.293-1.464 2.346-1.836c1.05-.37 2.182-.49 2.987-.528a8.341 8.341 0 0 1 8.737 8.025c-.022 1.922-.01 5.01-.002 7.482v.022l.006 1.628L34 29.157v-.884c0-.714-.004-1.702-.008-2.808-.008-2.284-.018-5.07-.002-6.979.006-.046.01-.093.01-.141 0-.115-.002-.23-.005-.345l.005-.358c.002-.115 0-.142 0-.142-.15-1.512-.68-3.164-1.464-4.476A10.342 10.342 0 0 0 23.16 8c-.885.043-2.24.176-3.556.64-1.28.452-2.635 1.258-3.41 2.712l1.394 1.393Zm-3.845 6.23L14 15l1.962 2.078a8.123 8.123 0 0 0-.22 1.894v.002c0 5.593-1.199 9.026-2.486 11.095-.2.322-.558.675-.756.931h17.113l1.84 1.892a1.003 1.003 0 0 1-.288.043H10.072a1 1 0 0 1-.417-1.91l.008-.004a3.496 3.496 0 0 0 .5-.349c.358-.296.87-.814 1.395-1.659 1.049-1.686 2.184-4.733 2.185-10.038Z"/><path d="M10.786 8.936a1 1 0 1 0-1.429 1.4l28.929 29.53a1 1 0 0 0 1.428-1.4L10.786 8.937ZM28 35a4 4 0 0 1-8 0h2.007a1.994 1.994 0 0 0 3.834.763c.1-.242.152-.501.152-.763H28Z" class="accent"/></svg>