<svg xmlns="http://www.w3.org/2000/svg" viewBox="0 0 48 48" aria-hidden="true"><path d="M34.015 11.024h3c1.7 0 3 1.114 3 2.571v6.857c0 1.457-1.3 2.572-3 2.572h-3v-12Zm3 10.285c.6 0 1-.343 1-.857v-6.857c0-.514-.4-.857-1-.857h-1v8.571h1Z" class="accent"/><path fill-rule="evenodd" clip-rule="evenodd" d="M18.7 9c1.856 0 3.702.278 5.477.824A26.601 26.601 0 0 0 32 11v12l-3.049 1.22A11.058 11.058 0 0 0 22 34.487V36a3 3 0 1 1-6 0v-7h-5.5a3.5 3.5 0 0 1-2.45-6A3.49 3.49 0 0 1 7 20.5c0-.905.343-1.73.907-2.35a2.997 2.997 0 0 1 .478-4.678A3 3 0 0 1 11 9l7.7-.001ZM18 27v9a1 1 0 1 0 2 0v-1.513c0-5.34 3.25-10.141 8.208-12.124L30 21.646V12.93a28.601 28.601 0 0 1-6.411-1.195 16.626 16.626 0 0 0-4.89-.735H11a1 1 0 1 0 0 2 1 1 0 1 1 0 2h-1a1 1 0 1 0 0 2h1a1 1 0 1 1 0 2h-.5a1.5 1.5 0 0 0 0 3h.5a1 1 0 1 1 0 2h-.5a1.5 1.5 0 0 0 0 3H18Z"/></svg>