<svg xmlns="http://www.w3.org/2000/svg" viewBox="0 0 48 48" aria-hidden="true"><path fill-rule="evenodd" clip-rule="evenodd" d="M11 8a5 5 0 0 1 5 5c0 2.42-1.715 4.539-4 5 0-.033.003.033 0 0v3a2 2 0 0 0 2 2h8a1 1 0 1 1 0 2h-8a4 4 0 0 1-4-4v-3c-.003.033 0-.033 0 0-2.285-.461-4-2.58-4-5a5 5 0 0 1 5-5Zm0 2a3 3 0 1 1 0 6 3 3 0 0 1 0-6Z" class="accent"/><path d="M18 21v-2a1 1 0 0 1 1-1h10a1 1 0 0 1 1 1v2h2v-2a3 3 0 0 0-3-3H19a3 3 0 0 0-3 3v2h2Zm14 8v-2h-2v2a1 1 0 0 1-1 1H19a1 1 0 0 1-1-1v-2h-2v2a3 3 0 0 0 3 3h10a3 3 0 0 0 3-3Z"/><path fill-rule="evenodd" clip-rule="evenodd" d="M37 40a5 5 0 0 1-5-5c0-2.42 1.715-4.539 4-5 0 .033-.003-.033 0 0v-3a2 2 0 0 0-2-2h-8a1 1 0 1 1 0-2h8a4 4 0 0 1 4 4v3c.003-.033 0 .033 0 0 2.284.461 4 2.58 4 5a5 5 0 0 1-5 5Zm0-2a3 3 0 1 1 0-6 3 3 0 0 1 0 6Z"/></svg>