<svg xmlns="http://www.w3.org/2000/svg" viewBox="0 0 48 48" aria-hidden="true"><path fill-rule="evenodd" clip-rule="evenodd" d="M10 6a2 2 0 0 0-2 2v14a2 2 0 0 0 2 2h2v5.266L20.777 24H28a2 2 0 0 0 2-2V12h7.5a.5.5 0 0 1 .5.5v13a.5.5 0 0 1-.5.5H34v4.131L27.803 26h-6.56l-2.513 1.545c.346.284.788.455 1.27.455h7.197L36 33.868V32h1.5a.5.5 0 0 1 .5.5v4c0 .5 0 1.5-.5 1.5h-27c-.5 0-.5-.5-.5-1.5v-4a.5.5 0 0 1 .5-.5h16.78L25 30H10a2 2 0 0 0-2 2v5c0 2 0 3 2 3h28c2 0 2-1 2-3v-5a2 2 0 0 0-2-2h-2v-2h2a2 2 0 0 0 2-2V12a2 2 0 0 0-2-2h-8V8a2 2 0 0 0-2-2H10Zm0 2.5a.5.5 0 0 1 .5-.5h17a.5.5 0 0 1 .5.5v13a.5.5 0 0 1-.5.5h-7.277L14 25.734V22h-3.5a.5.5 0 0 1-.5-.5v-13Z"/><path fill-rule="evenodd" clip-rule="evenodd" d="M13 12a1 1 0 1 0 0 2h12a1 1 0 1 0 0-2H13Zm0 4a1 1 0 1 0 0 2h12a1 1 0 1 0 0-2H13Zm-1 19a1 1 0 0 1 1-1h12a1 1 0 1 1 0 2H13a1 1 0 0 1-1-1Zm16 1a1 1 0 1 0 0-2 1 1 0 0 0 0 2Z" class="accent"/></svg>