<svg xmlns="http://www.w3.org/2000/svg" viewBox="0 0 48 48" aria-hidden="true"><path d="M41.99 22.07V16c0-.55-.454-1-1.009-1h-4.065c-.08-.38-.191-.85-.363-1.34-.201-.56-.504-1.19-.958-1.7-.484-.53-1.16-.96-2.057-.96-.898 0-1.574.43-2.048.96-.454.51-.757 1.14-.958 1.7-.182.49-.293.96-.373 1.34H28v2h3.016c.524 0 .958-.39 1.009-.91v-.02c0-.02.01-.06.01-.11a7.351 7.351 0 0 1 .383-1.62c.161-.44.353-.81.575-1.05.201-.22.373-.29.544-.29.172 0 .343.07.545.29.212.24.414.61.575 1.05.161.43.262.87.323 1.22.03.17.05.31.06.4 0 .05.01.08.01.11v.02c.05.52.485.91 1.01.91h3.913v4.23c-.374.08-.828.19-1.301.36-.545.2-1.16.49-1.665.93-.514.46-.948 1.11-.948 1.98 0 .88.414 1.56.938 2.04.504.46 1.13.76 1.685.96.474.17.917.27 1.29.35V31H36.23c-.544 0-.998.44-1.008.98V32c0 .02 0 .06-.01.1-.01.09-.02.23-.04.4-.04.34-.122.77-.253 1.19-.302.93-.706 1.31-1.22 1.31-.535 0-.978-.41-1.322-1.34a6.638 6.638 0 0 1-.302-1.19c-.03-.17-.04-.3-.05-.4 0-.05-.01-.08-.01-.1v-.02a.996.996 0 0 0-1-.95H28v2h2.138c.07.39.182.86.363 1.34.394 1.07 1.302 2.66 3.218 2.66 1.937 0 2.794-1.62 3.137-2.69.151-.47.242-.93.302-1.31h3.833c.555 0 1.009-.45 1.009-1v-5c0-.52-.404-.95-.928-1h-.02c-.02 0-.06-.01-.101-.01-.09-.01-.232-.03-.393-.06a7.6 7.6 0 0 1-1.18-.3c-.424-.15-.777-.34-1.01-.55-.21-.19-.292-.37-.292-.58 0-.13.05-.28.273-.47.232-.21.595-.39 1.029-.55.423-.15.857-.26 1.19-.32.161-.03.302-.05.393-.07.05-.01.08-.01.101-.01h.02c.525-.08.908-.5.908-1.01Z"/><path d="M25 33h-5c-.49 0-.91-.36-.99-.84-.15-.93-.75-2.66-1.51-2.66-.86 0-1.48 1.84-1.63 2.68-.09.47-.5.82-.99.82H10c-.55 0-1-.45-1-1v-5.14c-1.44-.29-4-1.11-4-3.36s2.56-3.07 4-3.36V16c0-.55.45-1 1-1h4.07c.35-1.41 1.29-4 3.43-4s3.01 2.58 3.33 4H25c.55 0 1 .45 1 1v4.14c1.44.28 4 1.1 4 3.36s-2.56 3.08-4 3.36V32c0 .55-.45 1-1 1Zm-4.2-2H24v-5c0-.52.4-.95.91-1 1.08-.1 3.09-.64 3.09-1.5s-2.01-1.4-3.09-1.5c-.51-.05-.91-.48-.91-1v-4h-4c-.5 0-.93-.37-.99-.87-.17-1.31-.83-3.13-1.51-3.13-.71 0-1.43 1.84-1.63 3.15-.07.49-.49.85-.99.85H11v4c0 .51-.39.95-.9 1-1.08.1-3.1.65-3.1 1.5s2.02 1.4 3.1 1.5c.51.05.9.49.9 1v5h3.09c.37-1.27 1.32-3.5 3.41-3.5 2.06 0 2.96 2.22 3.3 3.5Z" class="accent"/></svg>