<svg xmlns="http://www.w3.org/2000/svg" viewBox="0 0 48 48" aria-hidden="true"><path fill-rule="evenodd" clip-rule="evenodd" d="M7 22h24.87l7.884 2.075c.44.115 1.246.47 1.246.925v3.764c0 .489-.853.948-1.336 1.028l-.397.066a4.242 4.242 0 0 1 .19 1.996l.536-.09c1.447-.24 3.007-1.534 3.007-3V25c0-1.363-1.419-2.513-2.736-2.86l-7.729-2.033-5.709-6.148A3 3 0 0 0 24.628 13H12.029a3 3 0 0 0-2.441 1.256L5.186 20.42A1 1 0 0 0 5 21v7.43a3 3 0 0 0 1.336 2.496l.61.406 1.109-1.664-.61-.406A1 1 0 0 1 7 28.43V22Zm4.216-6.581a1 1 0 0 1 .813-.419H18v5H7.943l3.273-4.581ZM20 20v-5h4.628a1 1 0 0 1 .733.32L29.707 20H20Z"/><path d="M31.187 30a4.25 4.25 0 0 0-.121 2H18.434a4.271 4.271 0 0 0-.12-2h12.873Z"/><path d="M20.5 24a1 1 0 0 1 1-1h1a1 1 0 1 1 0 2h-1a1 1 0 0 1-1-1Z" class="accent"/><path fill-rule="evenodd" clip-rule="evenodd" d="M35.25 35.5a4.25 4.25 0 1 0 0-8.5 4.25 4.25 0 0 0 0 8.5Zm0-2a2.25 2.25 0 1 0 0-4.5 2.25 2.25 0 0 0 0 4.5ZM18.5 31.25a4.25 4.25 0 1 1-8.5 0 4.25 4.25 0 0 1 8.5 0Zm-2 0a2.25 2.25 0 1 1-4.5 0 2.25 2.25 0 0 1 4.5 0Z" class="accent"/></svg>