<svg xmlns="http://www.w3.org/2000/svg" viewBox="0 0 48 48" aria-hidden="true"><path d="M40 22h-1V11a3 3 0 0 0-3-3H17a3 3 0 0 0-3 3v4H8a3 3 0 0 0-3 3v12a3 3 0 0 0 3 3h2v5.73l8-4.62L19.93 33H27a3 3 0 0 0 3-3v-3h6a3 3 0 0 0 3-3h1a1 1 0 0 1 1 1v12a1 1 0 0 1-1 1h-4v4.27L28.61 38H21a1 1 0 0 1-1-1v-1.73l-2 1.15V37a3 3 0 0 0 3 3h7.07L38 45.73V40h2a3 3 0 0 0 3-3V25a3 3 0 0 0-3-3Zm-12 0v8a1 1 0 0 1-1 1h-7.61l-1.39.8-6 3.47V31H8a1 1 0 0 1-1-1V18a1 1 0 0 1 1-1h19a1 1 0 0 1 1 1v4Zm9 0v2a1 1 0 0 1-1 1h-6v-7a3 3 0 0 0-3-3H16v-4a1 1 0 0 1 1-1h19a1 1 0 0 1 1 1v11Z"/><path d="M27.189 32.994A3 3 0 0 0 30 30v-.427c.018-.185.027-.376.027-.573l4.52 2.293c.603.308.603 1.104 0 1.413l-6.235 3.19c-.588.301-1.285-.279-1.285-.896v-2h.005c.052 0 .104-.002.157-.006ZM19 20a1 1 0 1 0-2 0v8a1 1 0 1 0 2 0v-8Zm-4 2a1 1 0 1 0-2 0v4a1 1 0 1 0 2 0v-4Zm8 1a1 1 0 1 0-2 0v2a1 1 0 1 0 2 0v-2Z" class="accent"/></svg>