<svg xmlns="http://www.w3.org/2000/svg" viewBox="0 0 48 48" aria-hidden="true"><path fill-rule="evenodd" clip-rule="evenodd" d="M12.945 31.631C10.49 29.079 9.178 25.815 9 22c-.39-8.351 5.798-15.593 14.15-15.983 8.35-.39 15.437 6.063 15.827 14.414C39.367 28.782 32.851 35.61 24.5 36c-3.817.178-7.306-.814-10.076-3.022l-8.686 9.509a1 1 0 0 1-1.476-1.35l8.683-9.506ZM23.243 8.015c7.248-.34 13.398 5.262 13.736 12.51.34 7.248-5.325 13.139-12.572 13.477-3.56.166-6.791-.84-9.263-3.03a1 1 0 0 0-.267-.243c-2.41-2.257-3.713-5.263-3.88-8.822-.338-7.248 4.998-13.554 12.246-13.892Z"/><path d="M14.372 18.31a1 1 0 0 1 .161 1.206c-.22.379-.162.354-.223.787-.034.47.027.944.18 1.39A1 1 0 0 1 13.654 23a1 1 0 0 1-1.07-.684 5.591 5.591 0 0 1-.262-2.245c.093-.712.128-.955.496-1.57a1 1 0 0 1 1.553-.192Z" class="accent"/></svg>