<svg xmlns="http://www.w3.org/2000/svg" viewBox="0 0 48 48" aria-hidden="true"><path fill-rule="evenodd" clip-rule="evenodd" d="M24 35c6.075 0 11-4.925 11-11s-4.925-11-11-11-11 4.925-11 11 4.925 11 11 11Zm0 2c7.18 0 13-5.82 13-13s-5.82-13-13-13-13 5.82-13 13 5.82 13 13 13Z" class="accent"/><path d="M24 39c0-.552-.45-.996-1-1.035-7.265-.513-13-6.57-13-13.965 0-7.732 6.268-14 14-14s14 6.268 14 14c0 2.974-.928 5.732-2.51 8H39a4 4 0 0 0 4-4v-7a4 4 0 0 0-4-4h-.608C35.794 11.671 30.325 8 24 8c-6.326 0-11.795 3.671-14.392 9H9a4 4 0 0 0-4 4v7a4 4 0 0 0 4 4h1.14c2.61 4.511 7.359 7.63 12.86 7.97.551.033 1-.418 1-.97Z"/></svg>