<svg xmlns="http://www.w3.org/2000/svg" viewBox="0 0 48 48" aria-hidden="true"><path d="M35.998 16.484c0 .887-.716 1.606-1.6 1.606-.883 0-1.6-.719-1.6-1.606 0-.887.717-1.606 1.6-1.606.884 0 1.6.719 1.6 1.606Z" class="accent"/><path fill-rule="evenodd" clip-rule="evenodd" d="M44.48 14.636c.286.334.468.746.52 1.184l-.032.75v.653a2.211 2.211 0 0 1-1.621 1.917l-1.557.407v.085l.853 1.414a2.149 2.149 0 0 1-.235 2.506l-.896.91a2.213 2.213 0 0 1-2.57.257l-1.365-.857h-.064l-.288 1.478A2.225 2.225 0 0 1 35.348 27h-1.45a2.203 2.203 0 0 1-1.91-1.628l-.405-1.563h-.085l-1.408.857a2.126 2.126 0 0 1-2.528-.258l-.938-.963a2.55 2.55 0 0 1-.352-.654 2.225 2.225 0 0 1 0-1.563l.053-.107.853-1.414v-.085l-1.546-.407A2.221 2.221 0 0 1 24 17.34v-1.403a2.221 2.221 0 0 1 1.621-1.917l1.557-.407v-.086l-.853-1.413a2.148 2.148 0 0 1 .235-2.506l.896-.9a2.13 2.13 0 0 1 2.58-.32l1.291.802h.085l.395-1.553A2.225 2.225 0 0 1 33.684 6h1.45a2.14 2.14 0 0 1 1.952 1.724l.395 1.51h.085l1.408-.857a2.126 2.126 0 0 1 2.517.257l.864.814a2.145 2.145 0 0 1 .33 2.592l-.853 1.424v.086l1.557.396c.424.116.804.356 1.09.69Zm-3.97-3.731-.619-.621-1.482 1.006a1.659 1.659 0 0 1-1.6.064l-.512-.203a1.631 1.631 0 0 1-.97-1.167l-.438-1.778h-.874l-.438 1.81a1.652 1.652 0 0 1-1.066 1.135l-.555.225a1.678 1.678 0 0 1-1.46-.097l-1.537-.931-.618.62.917 1.714a1.665 1.665 0 0 1 0 1.585l-.203.504a1.596 1.596 0 0 1-1.162.974l-1.717.428v.879l1.802.45a1.64 1.64 0 0 1 1.141 1.07l.203.6c.088.195.132.407.128.621a2.757 2.757 0 0 1-.117.643l-.064.117c-.34.484-.65.988-.928 1.51l.618.579 1.675-1.018c.24-.083.492-.13.746-.139.245.002.486.06.704.171l.544.215a1.62 1.62 0 0 1 .97 1.177l.449 1.778h.874l.438-1.81a1.672 1.672 0 0 1 1.066-1.145l.555-.225a1.721 1.721 0 0 1 1.46.096l1.59.942.619-.62-.96-1.618a1.653 1.653 0 0 1-.064-1.606l.192-.514a1.627 1.627 0 0 1 1.173-.975l1.653-.503v-.867l-1.803-.44a1.662 1.662 0 0 1-1.14-1.07l-.225-.546a1.74 1.74 0 0 1 .107-1.478l.928-1.542Z" class="accent"/><path d="M26.86 13H12a3 3 0 0 0-3 3v16a3 3 0 0 0 3 3h24a3 3 0 0 0 3-3v-2a1 1 0 1 0-2 0v2a1 1 0 0 1-1 1H12a1 1 0 0 1-1-1V16a1 1 0 0 1 1-1h12.316a2.208 2.208 0 0 1 1.305-.98l1.557-.406v-.086L26.86 13ZM7 37a1 1 0 1 0 0 2h35a1 1 0 1 0 0-2H7Z"/></svg>