<svg xmlns="http://www.w3.org/2000/svg" viewBox="0 0 48 48" aria-hidden="true"><path d="M19.228 23.091a1 1 0 1 0-1.708-1.04 1 1 0 0 0 1.708 1.04Zm4.387-2.399a1 1 0 1 0-1.708-1.04 1 1 0 0 0 1.708 1.04Zm4.387-2.399a1 1 0 1 0-1.708-1.04 1 1 0 0 0 1.708 1.04Zm4.387-2.399a1 1 0 1 0-1.708-1.04 1 1 0 0 0 1.708 1.04Z" class="accent"/><path d="M25.143 12H14.372a1 1 0 0 0-.57.179l-3.533 2.453a1 1 0 0 0 .165 1.736l4.19 1.858 2.112-1.25-3.866-1.715L14.685 14h7.079l3.379-2Z"/><path fill-rule="evenodd" clip-rule="evenodd" d="M16.104 19.674a1145.963 1145.963 0 0 0-5.379 3.32l-.01.006H3a1 1 0 0 0-.76 1.651l6 7a1 1 0 0 0 1.153.269l12.632-5.404v12.25a1 1 0 0 0 1.59.807l4.04-2.946a1 1 0 0 0 .374-.543l3.811-13.867 10.566-4.803.004-.002c2.47-1.102 2.379-4.641-.147-5.613l-1.898-.73-4.994-1.997A1 1 0 0 0 35.013 9a1.694 1.694 0 0 0-.501.08 4.7 4.7 0 0 0-.409.15c-.281.115-.625.277-1.014.473-.35.175-.748.384-1.185.62l-15.8 9.351ZM11 25a1 1 0 0 0 .529-.151l.252-.157a735.982 735.982 0 0 1 3.282-2.03 961.354 961.354 0 0 1 7.89-4.813c2.905-1.75 5.848-3.495 8.156-4.8a72.076 72.076 0 0 1 2.878-1.56 13.584 13.584 0 0 1 .947-.438l4.695 1.878 1.916.737c.864.332.895 1.544.049 1.92l-.008.004-11 5a1 1 0 0 0-.55.645l-3.843 13.982-2.168 1.581V25a1 1 0 0 0-1.393-.92l-13.35 5.712L5.173 25H11Z"/></svg>