<svg xmlns="http://www.w3.org/2000/svg" viewBox="0 0 48 48" aria-hidden="true"><path fill-rule="evenodd" clip-rule="evenodd" d="M18 9a1 1 0 0 0-1 1v6a1 1 0 0 0 1 1h12a1 1 0 0 0 1-1v-6a1 1 0 0 0-1-1H18Zm1 2v4h10v-4H19Zm8 20a1 1 0 0 0-1 1v6a1 1 0 0 0 1 1h12a1 1 0 0 0 1-1v-6a1 1 0 0 0-1-1H27Zm1 2v4h10v-4H28ZM8 32a1 1 0 0 1 1-1h12a1 1 0 0 1 1 1v6a1 1 0 0 1-1 1H9a1 1 0 0 1-1-1v-6Zm2 5v-4h10v4H10Z"/><path fill-rule="evenodd" clip-rule="evenodd" d="M23 24v-7h2v7h8a1 1 0 0 1 1 1v6h-2v-5H16v5h-2v-6a1 1 0 0 1 1-1h8Z" class="accent"/></svg>