<svg class="sinch-icon" xmlns="http://www.w3.org/2000/svg" viewBox="0 0 48 48" aria-hidden="true"><path d="M20.994 14.007A1 1 0 0 1 22 15v7a1 1 0 0 1-1 1h-.5l-6.507-.012a1 1 0 1 1 0-1.998l4.538-.001-.677-.86a6.366 6.366 0 0 0-10.697 5.914 6.36 6.36 0 0 0 5.836 4.945c1.826.106 3.085-.431 3.829-1.005 3.418-2.732 5.111-4.438 8.012-7.588a.893.893 0 0 1 .117-.13l3.786-3.556a8.366 8.366 0 0 1 14.055 7.782 8.36 8.36 0 0 1-7.676 6.491 8.368 8.368 0 0 1-5.11-1.383c-1.913-1.234-2.275-1.506-3.701-2.882l-.007-.007-1.033-1.017 1.408-1.42 1.025 1.01c1.311 1.265 1.566 1.458 3.399 2.64l.012.008a6.367 6.367 0 0 0 9.732-3.884 6.358 6.358 0 0 0-3.126-6.978 6.368 6.368 0 0 0-7.598 1.086l-3.724 3.497a221.313 221.313 0 0 1-.876.948l-2.839 2.86a59.668 59.668 0 0 1-4.614 4.089l-.012.01c-1.136.88-2.876 1.558-5.176 1.424a8.368 8.368 0 0 1-7.67-6.499 8.355 8.355 0 0 1 4.12-9.167 8.369 8.369 0 0 1 9.98 1.436l.694.555v-4.296a1 1 0 0 1 .994-1.005Z"/></svg>