<svg xmlns="http://www.w3.org/2000/svg" viewBox="0 0 48 48" aria-hidden="true"><path d="M18.3 22.941c-.6 0-1-.4-1-1 0-.4.2-.7.5-.9l22.4-12.9c.5-.3 1.1-.1 1.3.4.2.5.1 1-.3 1.3l-22.4 13c-.2.1-.4.1-.5.1ZM5.4 28.84c0 .6.4 1 1 1 .2 0 .3 0 .5-.1l8.6-5c.5-.3.7-.9.4-1.4-.3-.5-.9-.7-1.4-.4l-8.6 5c-.3.2-.5.5-.5.9ZM8.5 34c0 .6.4 1 1 1 .2 0 .3 0 .5-.1l8.012-4.7c.5-.3.7-.9.4-1.4-.3-.5-.9-.7-1.4-.4L9 33.1c-.3.2-.5.5-.5.9Z" class="accent"/><path d="M38.952 11.146 32.4 33.44l-11.7-6.6c-.5-.3-1.1-.1-1.4.4-.3.5-.1 1.1.4 1.4l12.9 7.1c.3.1.6.1.9 0 .3-.1.5-.3.6-.6l7.6-25.7c0-.33-.044-.574-.16-.787.143.461.03.91-.34 1.187l-2.248 1.305ZM14.28 32.352l1.91-1.091.41 4.58 3.9-4.6c.3-.4 1-.5 1.4-.1.5.4.5 1.1.1 1.5l-5.4 6.4c-.3.3-.7.4-1.1.3-.4-.2-.7-.5-.7-.9l-.52-6.089Zm-.481-6.622 1.7-.99a1.21 1.21 0 0 0 .171-.122l.23 2.223-1.9 1.1-.201-2.211ZM5 19.74c0-.4.3-.8.7-.9l25.533-7.878a.052.052 0 0 1 .041.094L23.8 15.34l-15 4.6 3.7 1.9-2 1.2-4.9-2.3c-.4-.2-.6-.6-.6-1Z"/></svg>