<svg xmlns="http://www.w3.org/2000/svg" viewBox="0 0 48 48" aria-hidden="true"><path d="M14 37.001h-3c-1.7 0-3-1.114-3-2.571v-6.857C8 26.115 9.3 25 11 25h3v12Zm-3-10.286c-.6 0-1 .343-1 .858v6.857c0 .514.4.857 1 .857h1v-8.572h-1Z" class="accent"/><path fill-rule="evenodd" clip-rule="evenodd" d="M29.3 39c-1.856 0-3.702-.278-5.477-.824A26.603 26.603 0 0 0 16 37V25l3.049-1.22A11.058 11.058 0 0 0 26 13.513V12a3 3 0 1 1 6 0v7h5.5a3.5 3.5 0 0 1 2.45 6A3.49 3.49 0 0 1 41 27.5a3.48 3.48 0 0 1-.907 2.35c.56.546.907 1.307.907 2.15a2.997 2.997 0 0 1-1.385 2.529A3 3 0 0 1 37 39h-7.7Zm.7-18v-9a1 1 0 1 0-2 0v1.513c0 5.34-3.25 10.141-8.208 12.124L18 26.354v8.716a28.57 28.57 0 0 1 6.411 1.195 16.64 16.64 0 0 0 4.89.735H37a1 1 0 1 0 0-2 1 1 0 1 1 0-2h1a1 1 0 1 0 0-2h-1a1 1 0 1 1 0-2h.5a1.5 1.5 0 0 0 0-3H37a1 1 0 1 1 0-2h.5a1.5 1.5 0 0 0 0-3H30Z"/></svg>