<svg xmlns="http://www.w3.org/2000/svg" viewBox="0 0 48 48" aria-hidden="true"><path d="m17.5 14.5 10.776 5.861 2.651-1.403-11.196-5.638L17.5 14.5Z" class="accent"/><path fill-rule="evenodd" clip-rule="evenodd" d="M23.532 9.116a1 1 0 0 1 .936 0l13 6.877a1 1 0 0 1 .532.884v14.246a1 1 0 0 1-.532.884l-13 6.877a1 1 0 0 1-.992-.032l-13-8A1 1 0 0 1 10 30V16.877a1 1 0 0 1 .532-.884l13-6.877ZM12 18.538l11 5.819V36.21l-11-6.769V18.538ZM25 36.34l11-5.82V18.538l-11 5.819V36.34Zm-1-13.717 10.861-5.746L24 11.131l-10.861 5.746L24 22.623Z"/></svg>