<svg xmlns="http://www.w3.org/2000/svg" viewBox="0 0 48 48" aria-hidden="true"><path d="M38.673 31.26A1 1 0 0 1 38 33H10a1 1 0 0 1-.633-1.774c2.47-2.021 3.536-5.104 4.022-8.015.24-1.444.332-2.805.394-3.923l.02-.378c.022-.405.042-.78.067-1.098.023-.295.055-.612.116-.889 0-.058.003-.11.006-.155.011-.138.037-.287.07-.434.066-.3.177-.674.333-1.092.313-.838.828-1.907 1.587-2.965 1.458-2.031 3.877-4.091 7.518-4.265-.463.724-.69 1.177-1 2.128-2.257.435-3.833 1.826-4.893 3.303a10.975 10.975 0 0 0-1.339 2.5 6.37 6.37 0 0 0-.253.82c-.01.05-.018.088-.022.115a2.89 2.89 0 0 0-.044.438l-.001.004-.003.01a2.154 2.154 0 0 0-.033.179c-.017.119-.033.27-.048.46-.023.29-.04.63-.062 1.028l-.022.402c-.063 1.133-.16 2.584-.419 4.14-.402 2.415-1.213 5.183-2.996 7.461h23.368c-1.681-2.203-2.526-4.73-2.975-7H34.8c.556 2.557 1.646 5.236 3.873 7.26Z"/><path d="M29.977 8.877a1 1 0 1 1 2 0v5.147a1 1 0 0 1-2 0V8.877Zm2.046 8.108a1 1 0 1 1-2 0 1 1 0 0 1 2 0Z" class="accent"/><path fill-rule="evenodd" clip-rule="evenodd" d="M22 13c0-4.979 4.021-9 9-9 4.883 0 8.904 3.926 9 9 0 4.979-4.021 9-9 9a8.99 8.99 0 0 1-9-9Zm1.915-.096A7.07 7.07 0 0 0 31 19.99c3.83-.095 6.99-3.16 7.085-7.085A7.07 7.07 0 0 0 31 5.82a7.07 7.07 0 0 0-7.085 7.085Z" class="accent"/><path d="M28 35a4 4 0 0 1-8 0h2.007a1.992 1.992 0 1 0 3.986 0H28Z" class="accent"/><path d="M28 35a4 4 0 0 1-8 0h2.007a1.992 1.992 0 1 0 3.986 0H28Z" class="accent"/></svg>