<svg xmlns="http://www.w3.org/2000/svg" viewBox="0 0 48 48" aria-hidden="true"><path d="m24 37 8 5v-7h1a4 4 0 0 0 4-4V18a4 4 0 0 0-4-4h-5v2h5a2 2 0 0 1 2 2v13a2 2 0 0 1-2 2h-3v5.392L27.774 37H24Z" class="accent"/><path fill-rule="evenodd" clip-rule="evenodd" d="m22.97 8.271-11 6.142c-.623.349-.97.966-.97 1.593v15.136c0 .959.827 1.858 2 1.858h11c1.173 0 2-.9 2-1.858V9.864c0-1.324-1.588-2.398-3.03-1.593Zm-11.974 4.396C9.76 13.357 9 14.63 9 16.006v15.136C9 33.272 10.79 35 13 35h11c2.21 0 4-1.727 4-3.858V9.864c0-2.972-3.337-4.828-6.004-3.34l-11 6.143Z"/></svg>