<svg xmlns="http://www.w3.org/2000/svg" viewBox="0 0 48 48" aria-hidden="true"><path d="M24.984 26.437c-.798.744-1.418 1.411-1.967 2.153a1 1 0 0 1-.033-.254V6.414l-4.657 4.657a1 1 0 0 1-1.414-1.414l6.364-6.364a1 1 0 0 1 1.414 0l6.364 6.364a1 1 0 0 1-1.414 1.414l-4.657-4.657v20.023Z"/><path fill-rule="evenodd" clip-rule="evenodd" d="M17.584 27.93a4.496 4.496 0 1 0-1.248 1.612c1.312.651 4.612 2.392 6.134 6.112.158-.08.321-.151.49-.213a9 9 0 0 1 .472-2.296c-1.811-2.95-4.5-4.523-5.848-5.215Zm-1.592-1.884a2.496 2.496 0 1 1-4.992.022 2.496 2.496 0 0 1 4.992-.023Z"/><path fill-rule="evenodd" clip-rule="evenodd" d="M39.423 26.492a4.496 4.496 0 0 1-8.752 1.473 12.348 12.348 0 0 0-3.54 2.788c-1.132 1.301-1.929 2.82-2.138 4.446a4.497 4.497 0 1 1-2.033.242c.162-2.308 1.237-4.363 2.661-6a14.262 14.262 0 0 1 4.86-3.604 4.497 4.497 0 0 1 8.942.655Zm-4.485 2.516a2.496 2.496 0 1 0-.022-4.992 2.496 2.496 0 0 0 .022 4.992Zm-10.43 13.156a2.496 2.496 0 1 0-.023-4.992 2.496 2.496 0 0 0 .022 4.992Z" class="accent"/></svg>