<svg xmlns="http://www.w3.org/2000/svg" viewBox="0 0 48 48" aria-hidden="true"><path d="M17 26.042h15a.99.99 0 0 0 .707-.3 1.032 1.032 0 0 0 0-1.443A.99.99 0 0 0 32 24H17a.99.99 0 0 0-.707.299 1.032 1.032 0 0 0 0 1.444.99.99 0 0 0 .707.299Zm0 6h15a.99.99 0 0 0 .707-.3 1.032 1.032 0 0 0 0-1.443A.99.99 0 0 0 32 30H17a.99.99 0 0 0-.707.299 1.032 1.032 0 0 0 0 1.444.99.99 0 0 0 .707.299ZM17 7a1 1 0 1 1 2 0v6a1 1 0 1 1-2 0V7Zm13 0a1 1 0 1 1 2 0v6a1 1 0 1 1-2 0V7Z" class="accent"/><path fill-rule="evenodd" clip-rule="evenodd" d="M17 9h-6.09C9.301 9 8 10.221 8 11.727v24.546C8 37.779 9.302 39 10.91 39h26.18c1.608 0 2.91-1.221 2.91-2.727V11.727C40 10.221 38.698 9 37.09 9H32v2h5.09c.536 0 .902.225.902.727V17H10v-5.454c0-.503.373-.546.91-.546H17V9Zm-6.09 28h26.18c.536 0 .97-.225.97-.727L37.993 19H10l-.06 17.273c0 .502.434.727.97.727Z"/><path d="M19 11V9h11v2H19Z"/></svg>