<svg xmlns="http://www.w3.org/2000/svg" viewBox="0 0 48 48" aria-hidden="true"><path fill-rule="evenodd" clip-rule="evenodd" d="M27 32c6.627 0 12-5.373 12-12S33.627 8 27 8s-12 5.373-12 12c0 1.918.45 3.73 1.25 5.338l-7.978 8.477a1 1 0 0 0 .02 1.392l4 4a1 1 0 0 0 1.436-.022l7.938-8.433A11.95 11.95 0 0 0 27 32Zm-9.991-11.577 9.568 9.568a9.996 9.996 0 0 1-9.568-9.568ZM27 10c-4.775 0-8.769 3.347-9.762 7.823l11.939 11.94C33.653 28.768 37 24.774 37 20c0-5.523-4.477-10-10-10Zm-7.08 19.69a12.068 12.068 0 0 1-2.59-2.582l-6.937 7.37 2.585 2.586 6.941-7.375Z"/><circle cx="36" cy="38" r="3" class="accent" stroke="#007171" stroke-width="2"/></svg>