<svg xmlns="http://www.w3.org/2000/svg" viewBox="0 0 48 48" aria-hidden="true"><path d="M10 35c0-2.2 1.7-4 4-4 1.4 0 2.7.7 3.3 1.8l-1.1.6c-.4-.8-1.2-1.2-2.2-1.2-1.7 0-2.8 1.2-2.8 2.8 0 1.6 1.1 2.8 2.8 2.8 1 0 1.8-.5 2.2-1.2l1.1.6c-.6 1.1-1.9 1.8-3.3 1.8-2.3 0-4-1.8-4-4Zm14.5-3.8v7.7h-1.3v-3.3H20v3.3h-1.3v-7.7H20v3.2h3.3v-3.2h1.2Zm6.3 6.1h-3.3l-.5 1.6h-1.4l2.8-7.7h1.5l2.8 7.7h-1.4l-.5-1.6Zm-.4-1.2-1.2-3.5-1.2 3.5h2.4Zm7.9-3.7h-2.2v6.5h-1.3v-6.5h-2.2v-1.2h5.6v1.2h.1Z"/><path class="accent" d="M17.2 14c0 .5-.4.9-.9.9s-.9-.4-.9-.9.4-.9.9-.9.9.4.9.9Zm2.1.9c.5 0 .9-.4.9-.9s-.4-.9-.9-.9-.9.4-.9.9.4.9.9.9Zm3.8-.9c0 .5-.4.9-.9.9s-.9-.4-.9-.9.4-.9.9-.9.9.4.9.9Z"/><path fill-rule="evenodd" clip-rule="evenodd" d="M13.6 8.1c-.5 0-.9.2-1.3.5s-.5.8-.5 1.3v7.8c0 .5.2.9.5 1.3.3.3.8.5 1.3.5h1.2v3.4l4.8-2.8 1.2-.7H25c.5 0 .9-.2 1.3-.5.3-.3.5-.8.5-1.3v-4.2h6c.2 0 .3.1.4.2.1.1.2.3.2.4v7.8c0 .2-.1.3-.2.4-.1.1-.3.2-.4.2h-2.4V25L26 22.5h-4.5c-.2 0-.3-.1-.4-.2-.1-.1-.2-.3-.2-.4v-1l-1.2.7v.3c0 .5.2.9.5 1.3.3.3.8.5 1.3.5h4.2l5.9 3.4v-3.4h1.2c.5 0 .9-.2 1.3-.5.3-.3.5-.8.5-1.3v-7.8c0-.5-.2-.9-.5-1.3-.3-.3-.8-.5-1.3-.5h-6V9.9c0-.5-.2-.9-.5-1.3-.3-.3-.8-.5-1.3-.5H13.6Zm12 9.6V9.9c0-.2-.1-.3-.2-.4-.1-.1-.3-.2-.4-.2H13.6c-.2 0-.3.1-.4.2-.1.1-.2.3-.2.4v7.8c0 .2.1.3.2.4.1.1.3.2.4.2H16v2.6l3.6-2.1.8-.5H25c.2 0 .3-.1.4-.2.1-.1.2-.2.2-.4Z"/></svg>