<svg xmlns="http://www.w3.org/2000/svg" viewBox="0 0 48 48" aria-hidden="true"><path d="M26 23.5a1.5 1.5 0 1 1-3 0 1.5 1.5 0 0 1 3 0Zm3.5 1.5a1.5 1.5 0 1 0 0-3 1.5 1.5 0 0 0 0 3Zm6.5-1.5a1.5 1.5 0 1 1-3 0 1.5 1.5 0 0 1 3 0Z" class="accent"/><path fill-rule="evenodd" clip-rule="evenodd" d="m28.5 32 8.5 4.69V32h1a3 3 0 0 0 3-3V18a3 3 0 0 0-3-3H21a3 3 0 0 0-3 3v11a3 3 0 0 0 3 3h7.5Zm-8.207-14.697A1.01 1.01 0 0 1 21 17h17a1 1 0 0 1 1 1v11a1 1 0 0 1-1 1h-3v3.25l-6-3.24h-8a1 1 0 0 1-1-1v-11a1 1 0 0 1 .293-.707Z" class="accent"/><path d="M33 36.798V38.5c0 .798-.787 1.5-1.584 1.5H16.484c-.796 0-1.493-.792-1.493-1.59V9.49c0-.797.697-1.496 1.493-1.496h15.032c.697 0 1.484.708 1.484 1.506V15h2l.009-5.5c0-1.994-1.602-3.5-3.593-3.5H16.484C14.494 6 13 7.496 13 9.49v29.02c0 1.894 1.493 3.49 3.484 3.49h15.032A3.466 3.466 0 0 0 35 38.51v-.557l-2-1.155Z"/><path d="M28 10h-7.987c-.597 0-1.013.402-1.013 1s.371 1 .968 1H28c.597 0 .995-.415.995-1.014 0-.598-.398-.986-.995-.986Zm-2.014 26.468c0 .826-.668 1.496-1.493 1.496-.824 0-1.493-.67-1.493-1.496s.669-1.496 1.493-1.496c.825 0 1.493.67 1.493 1.496Z"/></svg>