<svg xmlns="http://www.w3.org/2000/svg" viewBox="0 0 48 48" aria-hidden="true"><path d="M27.286 6H16.46A3.46 3.46 0 0 0 13 9.46v29.08A3.46 3.46 0 0 0 16.46 42h15.08A3.46 3.46 0 0 0 35 38.54V23l-2-.01v15.55A1.46 1.46 0 0 1 31.54 40H16.46A1.46 1.46 0 0 1 15 38.54V9.46A1.46 1.46 0 0 1 16.46 8h9.472c.361-.728.818-1.4 1.354-2Z"/><path d="M24 38a1.5 1.5 0 1 0 0-3 1.5 1.5 0 0 0 0 3Z"/><path d="M38.568 9.8a1 1 0 0 0-1.505-1.318l-4.164 4.756-2.126-2.205a1 1 0 1 0-1.44 1.388l2.882 2.988a1 1 0 0 0 1.472-.035l4.88-5.575Z" class="accent"/><path fill-rule="evenodd" clip-rule="evenodd" d="M25 12c0-4.979 4.021-9 9-9 4.883 0 8.904 3.926 9 9 0 4.979-4.021 9-9 9a8.99 8.99 0 0 1-9-9Zm1.915-.096A7.07 7.07 0 0 0 34 18.99c3.83-.095 6.99-3.16 7.085-7.085C41.085 7.98 37.925 5 34 5s-7.085 2.979-7.085 6.904Z" class="accent"/></svg>