<svg xmlns="http://www.w3.org/2000/svg" viewBox="0 0 48 48" aria-hidden="true"><path fill-rule="evenodd" clip-rule="evenodd" d="M24 40c8.837 0 16-7.163 16-16S32.837 8 24 8 8 15.163 8 24s7.163 16 16 16Zm0-2c7.732 0 14-6.268 14-14s-6.268-14-14-14-14 6.268-14 14 6.268 14 14 14Z"/><path class="accent" d="M22.395 27.16h2.53c0-2.376 3.872-3.278 3.872-6.622 0-2.772-2.376-4.224-4.818-4.224-2.244 0-4.268 1.1-5.104 3.256l2.178 1.232c.44-1.298 1.474-2.024 2.86-2.024 1.408 0 2.354.638 2.354 1.914 0 2.398-3.872 3.234-3.872 6.468Zm1.276 5.104c.902 0 1.65-.748 1.65-1.65 0-.924-.748-1.65-1.65-1.65-.924 0-1.65.726-1.65 1.65 0 .902.726 1.65 1.65 1.65Z"/></svg>