<svg xmlns="http://www.w3.org/2000/svg" viewBox="0 0 48 48" aria-hidden="true"><path d="M28 12h-8a1 1 0 0 1 0-2h8a1 1 0 0 1 0 2Zm-4.5 26a1.5 1.5 0 1 0 0-3 1.5 1.5 0 0 0 0 3Z"/><path fill-rule="evenodd" clip-rule="evenodd" d="M16.46 42h15.08A3.46 3.46 0 0 0 35 38.54V9.46A3.46 3.46 0 0 0 31.54 6H16.46A3.46 3.46 0 0 0 13 9.46v29.08A3.46 3.46 0 0 0 16.46 42ZM15.428 8.428A1.46 1.46 0 0 1 16.46 8h15.08A1.46 1.46 0 0 1 33 9.46v29.08A1.46 1.46 0 0 1 31.54 40H16.46A1.46 1.46 0 0 1 15 38.54V9.46c0-.387.154-.759.428-1.032Z"/><path d="M25 20a1 1 0 1 1-2 0 1 1 0 0 1 2 0Zm-1 4a1 1 0 1 0 0-2 1 1 0 0 0 0 2Zm1 2a1 1 0 1 1-2 0 1 1 0 0 1 2 0Zm0 3a1 1 0 1 1-2 0 1 1 0 0 1 2 0Zm-4-2a1 1 0 1 0 0-2 1 1 0 0 0 0 2Zm1-4a1 1 0 1 1-2 0 1 1 0 0 1 2 0Zm-1-2a1 1 0 1 0 0-2 1 1 0 0 0 0 2Zm7 5a1 1 0 1 1-2 0 1 1 0 0 1 2 0Zm-1-2a1 1 0 1 0 0-2 1 1 0 0 0 0 2Zm1-4a1 1 0 1 1-2 0 1 1 0 0 1 2 0Z" class="accent"/></svg>