<svg xmlns="http://www.w3.org/2000/svg" viewBox="0 0 48 48" aria-hidden="true"><path fill-rule="evenodd" clip-rule="evenodd" d="M23.649 8.064a1 1 0 0 1 .702 0l12 4.5A1 1 0 0 1 37 13.5V24c0 4.946-3.282 8.95-6.341 11.628a33.532 33.532 0 0 1-6.06 4.188l-.109.057-.03.015-.009.004-.002.002h-.001l-.222.08L24 40l-.226-.026-.222-.08-.003-.002-.01-.004-.03-.015A20.735 20.735 0 0 1 23 39.6a33.532 33.532 0 0 1-5.659-3.972c-3.058-2.678-6.34-6.682-6.34-11.628V13.5a1 1 0 0 1 .649-.936l12-4.5ZM24 40l-.226-.026-.222-.08c.282.14.614.14.896 0l-.222.08L24 40Zm0-2.133.031-.017a31.536 31.536 0 0 0 5.31-3.727C32.282 31.55 35 28.052 35 24v-9.807l-11-4.125-11 4.125V24c0 4.054 2.718 7.55 5.659 10.122a31.536 31.536 0 0 0 5.31 3.728l.031.017Z"/><path fill-rule="evenodd" clip-rule="evenodd" d="M19 20h-.444C17.208 20 16 21.037 16 22.454v5.091C16 28.963 17.209 30 18.556 30h10.888C30.792 30 32 28.963 32 27.546v-5.091C32 21.037 30.791 20 29.444 20H29v-1.18a4.734 4.734 0 0 0-1.481-3.425A5.098 5.098 0 0 0 24 14a5.098 5.098 0 0 0-3.519 1.395A4.734 4.734 0 0 0 19 18.82V20Zm2.862-3.158A3.098 3.098 0 0 1 24 16a3.1 3.1 0 0 1 2.138.842c.558.533.862 1.245.862 1.977V20h-6v-1.18c0-.733.304-1.445.862-1.978ZM18 22.455c0-.19.184-.455.556-.455h10.888c.372 0 .556.266.556.454v5.091c0 .19-.184.455-.556.455H18.556c-.372 0-.556-.266-.556-.454v-5.091Z" class="accent"/></svg>