<svg xmlns="http://www.w3.org/2000/svg" viewBox="0 0 48 48" aria-hidden="true"><path fill-rule="evenodd" clip-rule="evenodd" d="M23.612 39.995C14.955 39.79 8 32.707 8 24c0-8.837 7.163-16 16-16s16 7.163 16 16v.032l-.245-.027h-1.808a.2.2 0 0 1-.19-.134L37.454 23h.512a13.921 13.921 0 0 0-2.375-6.855 14.867 14.867 0 0 1-3.183 2.13c.335.858.609 1.768.799 2.729h-1.033c-.349 0-.682.09-.973.252a14.326 14.326 0 0 0-.669-2.187A18.575 18.575 0 0 1 25 20.088V23h5.055l-.293.838a.2.2 0 0 1-.231.13l-2.066-.45a2 2 0 0 0-1.987.705l-1.587 1.984a2 2 0 0 0-.365 1.784l.426 1.535a.2.2 0 0 1-.126.242l-.826.29v-.131a16.51 16.51 0 0 0-4.635.907c.767 1.399 1.695 2.65 2.637 3.726v.845a2 2 0 0 0 1.257 1.856l1.555.623a.2.2 0 0 1 .11.262l-.388.933a1 1 0 0 0 .076.916Zm-2.186-29.759a13.974 13.974 0 0 0-7.545 4.09c.787.74 1.681 1.38 2.66 1.912 1.5-2.76 3.509-4.803 4.885-6.002ZM10.036 23a13.923 13.923 0 0 1 2.57-7.136c.915.844 1.95 1.574 3.08 2.178A15.849 15.849 0 0 0 14.531 23h-4.497Zm6.504 0c.116-1.458.48-2.833 1-4.11A18.488 18.488 0 0 0 23 20.06V23h-6.46ZM25 18.087a16.669 16.669 0 0 0 4.682-.837c-1.323-2.442-3.145-4.44-4.682-5.858v6.695Zm1.574-7.851c1.413 1.23 3.492 3.35 5.004 6.224a12.763 12.763 0 0 0 2.775-1.884 13.98 13.98 0 0 0-7.78-4.34Zm-8.165 6.849c1.42.526 2.967.856 4.591.97v-6.663c-1.502 1.386-3.276 3.325-4.59 5.693Zm-5.888 14.932A13.923 13.923 0 0 1 10.035 25h4.497a15.821 15.821 0 0 0 1.11 4.849 14.75 14.75 0 0 0-3.121 2.168Zm1.26 1.552a13.976 13.976 0 0 0 7.645 4.195c-1.393-1.214-3.435-3.293-4.941-6.105a12.645 12.645 0 0 0-2.704 1.91ZM23 27.924a18.41 18.41 0 0 0-5.495 1.1A13.727 13.727 0 0 1 16.54 25H23v2.924Z"/><path class="accent" d="M34.998 33.484c0 .887-.716 1.606-1.6 1.606-.883 0-1.6-.719-1.6-1.606 0-.887.717-1.606 1.6-1.606.884 0 1.6.719 1.6 1.606Z"/><path class="accent" fill-rule="evenodd" clip-rule="evenodd" d="M43.48 31.636c.286.334.468.746.52 1.184l-.032.75v.653a2.211 2.211 0 0 1-1.621 1.917l-1.557.407v.085l.853 1.414a2.149 2.149 0 0 1-.235 2.506l-.896.91a2.213 2.213 0 0 1-2.57.257l-1.365-.857h-.064l-.288 1.478A2.225 2.225 0 0 1 34.348 44h-1.45a2.203 2.203 0 0 1-1.91-1.628l-.405-1.563h-.085l-1.408.857a2.126 2.126 0 0 1-2.528-.258l-.938-.963a2.55 2.55 0 0 1-.352-.654 2.225 2.225 0 0 1 0-1.563l.053-.107.853-1.414v-.085l-1.546-.407A2.221 2.221 0 0 1 23 34.34v-1.403a2.221 2.221 0 0 1 1.621-1.917l1.557-.407v-.086l-.853-1.413a2.148 2.148 0 0 1 .235-2.506l.896-.9a2.13 2.13 0 0 1 2.58-.32l1.291.802h.085l.395-1.553A2.225 2.225 0 0 1 32.684 23h1.45a2.14 2.14 0 0 1 1.952 1.724l.395 1.51h.085l1.408-.857a2.126 2.126 0 0 1 2.517.257l.864.814a2.146 2.146 0 0 1 .33 2.592l-.853 1.424v.086l1.557.396c.424.116.804.356 1.09.69Zm-3.97-3.731-.619-.622-1.482 1.007a1.659 1.659 0 0 1-1.6.064l-.512-.203a1.631 1.631 0 0 1-.97-1.167l-.438-1.778h-.874l-.438 1.81a1.652 1.652 0 0 1-1.066 1.135l-.555.225a1.678 1.678 0 0 1-1.46-.097l-1.537-.931-.618.62.917 1.714a1.665 1.665 0 0 1 0 1.585l-.203.503a1.596 1.596 0 0 1-1.162.975l-1.717.428v.878l1.802.45a1.64 1.64 0 0 1 1.141 1.071l.203.6c.088.195.132.407.128.621a2.757 2.757 0 0 1-.117.642l-.064.118c-.34.484-.65.988-.928 1.51l.618.578 1.675-1.017c.24-.083.492-.13.746-.139.245.002.486.06.704.171l.544.215a1.62 1.62 0 0 1 .97 1.177l.449 1.778h.874l.438-1.81a1.672 1.672 0 0 1 1.066-1.145l.555-.225a1.721 1.721 0 0 1 1.46.096l1.59.942.619-.62-.96-1.618a1.653 1.653 0 0 1-.064-1.606l.192-.514a1.627 1.627 0 0 1 1.173-.975l1.653-.503v-.867l-1.803-.44a1.662 1.662 0 0 1-1.14-1.07l-.225-.547a1.74 1.74 0 0 1 .107-1.477l.928-1.542Z"/></svg>