<svg xmlns="http://www.w3.org/2000/svg" viewBox="0 0 48 48" aria-hidden="true"><path d="M31.54 6H16.46A3.46 3.46 0 0 0 13 9.46V25.1a5.022 5.022 0 0 1 2-.001V9.46A1.46 1.46 0 0 1 16.46 8h15.08A1.46 1.46 0 0 1 33 9.46v3.639a5.101 5.101 0 0 1 2 .001V9.46A3.46 3.46 0 0 0 31.54 6ZM25.5 36.5a1.5 1.5 0 1 1-3 0 1.5 1.5 0 0 1 3 0Z"/><path d="M13 37v1.55A3.46 3.46 0 0 0 16.46 42h15.08A3.46 3.46 0 0 0 35 38.54V25h-2v13.54A1.46 1.46 0 0 1 31.54 40H16.46A1.46 1.46 0 0 1 15 38.54V37h-2Zm15-25h-8a1 1 0 0 1 0-2h8a1 1 0 0 1 0 2Z"/><path fill-rule="evenodd" clip-rule="evenodd" d="M29 19c.463 2.282 2.581 4 5 4a5 5 0 0 0 0-10c-2.419 0-4.537 1.718-5 4h-2a4 4 0 0 0-4 4v6a2 2 0 0 1-2 2h-2c-.463-2.282-2.581-4-5-4a5 5 0 0 0 0 10c2.419 0 4.537-1.718 5-4h2a4 4 0 0 0 4-4v-6a2 2 0 0 1 2-2h2Zm8-1a3 3 0 1 1-6 0 3 3 0 0 1 6 0ZM17 30a3 3 0 1 0-6 0 3 3 0 0 0 6 0Z" class="accent"/></svg>