<svg xmlns="http://www.w3.org/2000/svg" viewBox="0 0 48 48" aria-hidden="true"><path fill-rule="evenodd" clip-rule="evenodd" d="M19.465 13.565C20.402 12.563 21.674 12 23 12s2.598.563 3.535 1.565c.938 1.002 1.465 2.36 1.465 3.778v11.314c0 1.417-.527 2.776-1.465 3.778C25.598 33.437 24.326 34 23 34s-2.598-.563-3.535-1.565C18.527 31.433 18 30.075 18 28.657V17.343c0-1.417.527-2.776 1.465-3.778ZM23 14c-.78 0-1.721.41-2.273 1-.551.59-.727 1.166-.727 2v11.314c0 .834.176 2.097.727 2.686.552.59 1.493 1 2.273 1s1.721-.41 2.273-1c.551-.59.727-1.51.727-2.343V17.343c0-.834-.176-1.754-.727-2.343-.552-.59-1.493-1-2.273-1Z"/><path d="M14 24c.552 0 1 .41 1 1v2.748c0 2.268.785 4.649 2.286 6.252 1.499 1.602 3.594 1.998 5.714 2 2.12-.002 4.215-.398 5.714-2 1.5-1.603 2.286-3.984 2.286-6.252V25c0-.59.448-1 1-1s1 .479 1 1.069v2.748c0 2.834-1.054 5.552-2.929 7.557-1.638 1.75-3.786 2.38-6.071 2.626v3.5c0 .052.007.45 0 .5h4c.552 0 1 .341 1 .931 0 .59-.448 1.069-1 1.069H18c-.552 0-1-.478-1-1.069 0-.59.448-.931 1-.931h4c-.007-.05 0-.494 0-.546V38c-2.285-.245-4.433-.876-6.071-2.626C14.054 33.369 13 30.65 13 27.817v-2.748c0-.59.448-1.069 1-1.069Z"/><path d="M36 16c.552 0 1.004-.45.962-1C36.477 8.618 31.382 3.523 25 3.038c-.55-.042-1 .41-1 .962s.45.995 1 1.045A11.003 11.003 0 0 1 34.954 15c.05.55.493.999 1.045.999Z" class="accent"/><path d="M32 16c.552 0 1.006-.45.945-.998a9.004 9.004 0 0 0-7.947-7.947C24.45 6.995 24 7.448 24 8c0 .552.45.992.997 1.07a7.004 7.004 0 0 1 5.933 5.933c.078.547.518.997 1.07.997Z" class="accent"/></svg>